<svg xmlns="http://www.w3.org/2000/svg" width="60.234" height="60.234" viewBox="0 0 60.234 60.234">
  <g id="Icon_collaboration" transform="translate(-851.266 -2563.766)">
    <path id="Path_1004" data-name="Path 1004" d="M114.752,230.329H110.2a.9.9,0,0,1-.895-.9v-49.4a1.8,1.8,0,0,0-1.791-1.8h-50.3a1.8,1.8,0,0,0-1.8,1.8v50.294a1.8,1.8,0,0,0,1.8,1.8H106.61a.9.9,0,0,1,.9.9v4.551a.889.889,0,0,0,.891.893h6.348a.9.9,0,0,0,.9-.893v-6.349a.9.9,0,0,0-.9-.9" transform="translate(795.848 2385.53)" fill="#8fc740"/>
    <g id="Group_2156" data-name="Group 2156" transform="translate(857.875 2569.042)">
      <g id="Group_2157" data-name="Group 2157">
        <path id="Path_1550" data-name="Path 1550" d="M2.1,82.626l9.62,3.968L6.006,101.265,2.1,99.882" transform="translate(-1.762 -69.43)" fill="none" stroke="#fff" stroke-miterlimit="10" stroke-width="2"/>
        <path id="Path_1551" data-name="Path 1551" d="M173.112,8.034,162.245,18.319,173.112,29.71l3.088-2.767" transform="translate(-136.333 -3.28)" fill="none" stroke="#fff" stroke-miterlimit="10" stroke-width="2"/>
        <path id="Path_1552" data-name="Path 1552" d="M58.939,165.015l-3.494,5.448a1.714,1.714,0,1,1-2.885-1.85l3.494-5.448a1.714,1.714,0,1,1,2.885,1.85Z" transform="translate(-43.938 -136.443)" fill="none" stroke="#fff" stroke-miterlimit="10" stroke-width="2"/>
        <path id="Path_1553" data-name="Path 1553" d="M83.855,109.495,77.9,111.636a1.713,1.713,0,1,1-1.405-3.126l5.116-2.3a1.841,1.841,0,0,1,.248-.089,1.7,1.7,0,0,1,.81-.2c.05,0,.1,0,.15.006l9.211.786" transform="translate(-63.423 -89.001)" fill="none" stroke="#fff" stroke-miterlimit="10" stroke-width="2"/>
        <path id="Path_1554" data-name="Path 1554" d="M135.731,218.572l1.566,1a1.714,1.714,0,1,1-1.85,2.885l-1.6-1.026" transform="translate(-112.469 -183.664)" fill="none" stroke="#fff" stroke-miterlimit="10" stroke-width="2"/>
        <path id="Path_1555" data-name="Path 1555" d="M152.426,199.331l2.972,1.818a1.714,1.714,0,1,1-1.85,2.885l-1.6-1.026" transform="translate(-127.68 -167.496)" fill="none" stroke="#fff" stroke-miterlimit="10" stroke-width="2"/>
        <path id="Path_1556" data-name="Path 1556" d="M159.085,176.931l5,3.046a1.714,1.714,0,0,1-1.85,2.885l-1.6-1.026" transform="translate(-133.677 -148.673)" fill="none" stroke="#fff" stroke-miterlimit="10" stroke-width="2"/>
        <path id="Path_1557" data-name="Path 1557" d="M122.643,127.331l13.164,8.343a1.714,1.714,0,0,1-1.85,2.885l-1.6-1.026" transform="translate(-103.056 -106.995)" fill="none" stroke="#fff" stroke-miterlimit="10" stroke-width="2"/>
        <path id="Path_1558" data-name="Path 1558" d="M76.923,182.821l-2.769,4.318a1.714,1.714,0,0,1-2.885-1.85l2.769-4.318a1.714,1.714,0,1,1,2.885,1.85Z" transform="translate(-59.659 -151.405)" fill="none" stroke="#fff" stroke-miterlimit="10" stroke-width="2"/>
        <path id="Path_1559" data-name="Path 1559" d="M95.571,201.91l-1.755,2.737a1.714,1.714,0,1,1-2.885-1.85l1.755-2.737a1.714,1.714,0,1,1,2.885,1.85Z" transform="translate(-76.18 -167.445)" fill="none" stroke="#fff" stroke-miterlimit="10" stroke-width="2"/>
        <path id="Path_1560" data-name="Path 1560" d="M113.36,218.49l-1.24,1.934a1.714,1.714,0,0,1-2.885-1.85l1.24-1.934a1.714,1.714,0,1,1,2.885,1.85Z" transform="translate(-91.561 -181.377)" fill="none" stroke="#fff" stroke-miterlimit="10" stroke-width="2"/>
        <line id="Line_205" data-name="Line 205" x2="3.397" y2="1.887" transform="translate(5.927 29.19)" fill="none" stroke="#fff" stroke-miterlimit="10" stroke-width="2"/>
        <line id="Line_206" data-name="Line 206" x2="5.946" y2="0.401" transform="translate(9.639 17.977)" fill="none" stroke="#fff" stroke-miterlimit="10" stroke-width="2"/>
        <line id="Line_207" data-name="Line 207" y1="3.049" x2="2.899" transform="translate(32.091 24.906)" fill="none" stroke="#fff" stroke-miterlimit="10" stroke-width="2"/>
      </g>
    </g>
  </g>
</svg>
