<svg xmlns="http://www.w3.org/2000/svg" width="60.162" height="60.162" viewBox="0 0 60.162 60.162">
  <g id="Icon_reduce_risk" transform="translate(-808.734 -1319.919)">
    <path id="Path_273" data-name="Path 273" d="M114.681,230.266h-4.548a.894.894,0,0,1-.894-.894v-49.34a1.8,1.8,0,0,0-1.789-1.8H57.213a1.8,1.8,0,0,0-1.8,1.8v50.234a1.8,1.8,0,0,0,1.8,1.8h49.335a.9.9,0,0,1,.9.9v4.545a.888.888,0,0,0,.89.892h6.341a.894.894,0,0,0,.9-.892v-6.342a.9.9,0,0,0-.9-.9" transform="translate(753.316 1141.683)" fill="#8fc740"/>
    <g id="Group_1865" data-name="Group 1865" transform="translate(815.807 1327.331)">
      <g id="Group_1866" data-name="Group 1866" transform="translate(0 0)">
        <g id="Polygon_2" data-name="Polygon 2" fill="none">
          <path d="M16.5,6.006a4,4,0,0,1,6.929,0l13.04,22.6a4,4,0,0,1-3.465,6H6.926a4,4,0,0,1-3.465-6Z" stroke="none"/>
          <path d="M 19.96578788757324 6.004444122314453 C 19.61847877502441 6.004444122314453 18.75440788269043 6.101934432983398 18.23341751098633 7.005002975463867 L 5.193267822265625 29.60792350769043 C 4.672557830810547 30.51047325134277 5.020137786865234 31.30705261230469 5.193748474121094 31.60763359069824 C 5.367359161376953 31.90822410583496 5.883647918701172 32.60736465454102 6.925647735595703 32.60736465454102 L 33.00593948364258 32.60736465454102 C 34.04792785644531 32.60736465454102 34.56421661376953 31.90822410583496 34.73782730102539 31.60764312744141 C 34.91143798828125 31.30705261230469 35.25901794433594 30.51047325134277 34.73830795288086 29.60792350769043 L 21.69815826416016 7.004993438720703 C 21.17715835571289 6.101934432983398 20.31309700012207 6.004444122314453 19.96578788757324 6.004444122314453 M 19.96578788757324 4.004440307617188 C 21.31332969665527 4.004440307617188 22.66087341308594 4.671478271484375 23.43052864074707 6.00555419921875 L 36.47067642211914 28.60847473144531 C 38.00913619995117 31.27513313293457 36.08456802368164 34.60736465454102 33.00593948364258 34.60736465454102 L 6.925647735595703 34.60736465454102 C 3.847007751464844 34.60736465454102 1.922439575195312 31.27513313293457 3.460899353027344 28.60847473144531 L 16.50104713439941 6.00555419921875 C 17.27070236206055 4.671478271484375 18.61824607849121 4.004440307617188 19.96578788757324 4.004440307617188 Z" stroke="none" fill="#fff"/>
        </g>
        <line id="Line_186" data-name="Line 186" y2="10.648" transform="translate(19.966 13.311)" fill="none" stroke="#fff" stroke-width="2"/>
        <g id="Ellipse_16" data-name="Ellipse 16" transform="translate(18.635 25.29)" fill="#fff" stroke="#fff" stroke-width="1">
          <ellipse cx="1.331" cy="1.331" rx="1.331" ry="1.331" stroke="none"/>
          <ellipse cx="1.331" cy="1.331" rx="0.831" ry="0.831" fill="none"/>
        </g>
      </g>
    </g>
  </g>
</svg>
