<svg xmlns="http://www.w3.org/2000/svg" width="100" height="100" viewBox="0 0 100 100"><defs><style>.a{fill:#8fc740;}.b{fill:#fff;font-size:44px;font-family:FrutigerLTStd-Bold, Frutiger LT Std;font-weight:700;}</style></defs><g transform="translate(0 -1069)"><path class="a" d="M153.923,264.719h-7.559a1.487,1.487,0,0,1-1.485-1.486V181.222a2.983,2.983,0,0,0-2.974-2.986H58.4a2.989,2.989,0,0,0-2.984,2.986v83.5a2.987,2.987,0,0,0,2.984,2.986h82a1.491,1.491,0,0,1,1.5,1.493v7.555a1.476,1.476,0,0,0,1.479,1.483h10.539a1.486,1.486,0,0,0,1.5-1.483V266.212a1.494,1.494,0,0,0-1.5-1.493" transform="translate(-55.418 890.764)"/><text class="b" transform="translate(32 1130)"><tspan x="0" y="0">2</tspan></text></g></svg>