<svg xmlns="http://www.w3.org/2000/svg" width="171.357" height="173.47" viewBox="0 0 171.357 173.47">
    <defs>
        <style>
            .a,
            .b,
            .c,
            .d {
                fill: #8fc740;
            }

            .a {
                font-size: 52px;
            }

            .a,
            .b,
            .c {
                font-family: frutiger, frutiger linotype, univers, calibri, gill sans, gill sans mt, myriad pro, myriad, dejavu sans condensed, liberation sans, nimbus sans l, tahoma, geneva, helvetica neue, helvetica, arial, sans-serif;
                font-weight: 700;
            }

            .b {
                font-size: 81px;
            }

            .c {
                font-size: 93px;
            }
        </style>
    </defs>
    <g transform="translate(1.5 1.5)"><text class="a" transform="translate(16.408 93.342)">
            <tspan x="0" y="0">&lt;</tspan>
        </text>
        <g transform="translate(-2 -8)"><text class="b" transform="translate(54.33 80.269)">
                <tspan x="0" y="0">1</tspan>
            </text><text class="b" transform="translate(115.179 128.769)">
                <tspan x="0" y="0">2</tspan>
            </text><text class="c" transform="matrix(0.966, 0.259, -0.259, 0.966, 73.861, 109.235)">
                <tspan x="0" y="0">/</tspan>
            </text></g>
        <path class="d"
            d="M149.6,173.47h-.017a4.01,4.01,0,0,1-3.973-4.033V156.546a1.029,1.029,0,0,0-.3-.729,1.018,1.018,0,0,0-.719-.3H6.516A6.57,6.57,0,0,1,0,148.923V6.589A6.576,6.576,0,0,1,6.515,0h140.6a6.564,6.564,0,0,1,6.5,6.591V48.578h-3v-42A3.56,3.56,0,0,0,147.1,3H6.524A3.571,3.571,0,0,0,3,6.585V148.934a3.566,3.566,0,0,0,3.528,3.584H144.589a4.025,4.025,0,0,1,4.017,4.025v12.909a1.007,1.007,0,0,0,.99,1.018h17.746a1,1,0,0,0,.714-.3,1.022,1.022,0,0,0,.3-.725V151.473a1.034,1.034,0,0,0-1.018-1.045H154.607a4.023,4.023,0,0,1-3.992-4.034V124.9h3V146.4a1.019,1.019,0,0,0,1.008,1.027h12.723a4.037,4.037,0,0,1,4.012,4.049v17.975a4.018,4.018,0,0,1-4.011,4.017H149.6Z"
            transform="translate(-1.5 -1.5)" />
    </g>
</svg>