<svg width="62" height="61" viewBox="0 0 62 61" fill="none" xmlns="http://www.w3.org/2000/svg">
<g id="Group 2759">
<path id="Path 1004" d="M60.261 52.0922H55.7084C55.2164 52.0922 54.8137 51.6928 54.8137 51.197V1.79785C54.8137 0.808197 54.0123 -0.000488281 53.0224 -0.000488281H2.7289C1.73704 -0.000488281 0.931641 0.808197 0.931641 1.79785V52.0922C0.931641 53.0838 1.73704 53.8905 2.7289 53.8905H52.1198C52.6177 53.8905 53.0224 54.2879 53.0224 54.7897V59.3406C53.0224 59.8365 53.4191 60.2339 53.9131 60.2339H60.261C60.7589 60.2339 61.1616 59.8365 61.1616 59.3406V52.9913C61.1616 52.4955 60.7589 52.0922 60.261 52.0922Z" fill="#CF142B"/>
<g id="Group 2139">
<g id="Group 2138">
<path id="Path 1544" d="M22.7422 40.7952H11.3223V13.3574H16.9627V14.8023C16.9627 15.4057 17.4519 15.895 18.0552 15.895H28.8125C29.4158 15.895 29.9051 15.4057 29.9051 14.8023V13.3574H35.71V22.7684" stroke="white" stroke-width="2"/>
<path id="Path 1545" d="M29.9053 10.9463V14.8023C29.9053 15.4057 29.416 15.895 28.8127 15.895H18.0555C17.4522 15.895 16.9629 15.4057 16.9629 14.8023V10.9463H19.8671C20.4704 10.9463 20.9596 10.457 20.9596 9.85362V8.99354C20.9596 8.39019 21.4489 7.90088 22.0522 7.90088H24.816C25.4193 7.90088 25.9085 8.39019 25.9085 8.99354V9.85362C25.9085 10.457 26.3978 10.9463 27.0011 10.9463H29.9053Z" stroke="white" stroke-width="2"/>
<path id="Path 1546" d="M45.2904 35.8157C45.2904 41.6497 40.5611 46.3793 34.7275 46.3793C30.6942 46.3793 27.1885 44.1187 25.4094 40.7953C24.6146 39.3116 24.1641 37.6167 24.1641 35.8157C24.1641 29.9811 28.8933 25.2515 34.7275 25.2515C35.0589 25.2515 35.387 25.2667 35.7105 25.2964C41.0836 25.7924 45.2904 30.3125 45.2904 35.8157Z" stroke="white" stroke-width="2"/>
<line id="Line 198" x1="14.7109" y1="19.2095" x2="31.6779" y2="19.2095" stroke="white" stroke-width="2"/>
<line id="Line 199" x1="14.7109" y1="24.0132" x2="25.8769" y2="24.0132" stroke="white" stroke-width="2"/>
<line id="Line 200" x1="14.7109" y1="28.8164" x2="21.9767" y2="28.8164" stroke="white" stroke-width="2"/>
<path id="Path 1547" d="M28.8105 35.6661L33.1856 39.9421L40.6431 31.6885" stroke="white" stroke-width="2" stroke-linecap="square"/>
</g>
</g>
</g>
</svg>
