<svg width="62" height="61" viewBox="0 0 62 61" fill="none" xmlns="http://www.w3.org/2000/svg">
<g id="Group 2759">
<g id="Group 3982">
<path id="Path 1004" d="M60.261 52.0927H55.7084C55.2164 52.0927 54.8137 51.6933 54.8137 51.1974V1.79834C54.8137 0.808685 54.0123 0 53.0224 0H2.7289C1.73704 0 0.931641 0.808685 0.931641 1.79834V52.0927C0.931641 53.0843 1.73704 53.891 2.7289 53.891H52.1198C52.6177 53.891 53.0224 54.2884 53.0224 54.7902V59.3411C53.0224 59.8369 53.4191 60.2344 53.9131 60.2344H60.261C60.7589 60.2344 61.1616 59.8369 61.1616 59.3411V52.9918C61.1616 52.496 60.7589 52.0927 60.261 52.0927Z" fill="#CF142B"/>
<g id="Group 2139">
<path id="Path 269" d="M28.4458 44.0005C28.3106 44.0005 28.1824 43.9455 28.0865 43.8497L21.5978 37.2431C21.401 37.0444 21.403 36.7215 21.6008 36.5229C21.7986 36.3243 22.1176 36.3284 22.3154 36.527L27.9412 42.2536V24.2477C27.9412 23.9656 28.1662 23.7384 28.4458 23.7384C28.7244 23.7384 28.9505 23.9656 28.9505 24.2477V42.2536L34.5773 36.526C34.7741 36.3294 35.093 36.3243 35.2918 36.5229C35.4887 36.7226 35.4907 37.0444 35.2949 37.2431L28.8041 43.8507C28.7082 43.9455 28.5811 44.0005 28.4458 44.0005ZM37.5607 31.8271H33.7991C33.5205 31.8271 33.2945 31.599 33.2945 31.3178C33.2945 31.0367 33.5205 30.8085 33.7991 30.8085H37.5607C41.3526 30.8085 44.436 27.6957 44.436 23.8698C44.436 20.0429 41.3526 16.9301 37.5607 16.9301C37.0884 16.9301 36.6201 16.9779 36.1699 17.0716C35.9247 17.1287 35.6875 16.9902 35.5977 16.7579C34.2502 13.2712 30.9842 11.0191 27.2771 11.0191C22.3537 11.0191 18.3479 15.0619 18.3479 20.0307L18.3499 20.1611C18.3519 20.3027 18.2944 20.4391 18.1934 20.5369C18.0905 20.6357 17.9522 20.6877 17.8129 20.6765C17.7019 20.6694 17.5919 20.6643 17.4799 20.6643C14.7084 20.6643 12.4546 22.9388 12.4546 25.7369C12.4546 28.534 14.7084 30.8085 17.4799 30.8085H22.5334C22.813 30.8085 23.038 31.0367 23.038 31.3178C23.038 31.599 22.813 31.8271 22.5334 31.8271H17.4799C14.1522 31.8271 11.4453 29.0942 11.4453 25.7369C11.4453 22.4234 14.0796 19.719 17.3466 19.6467C17.5495 14.2898 21.9268 10.0005 27.2771 10.0005C31.2638 10.0005 34.7922 12.3412 36.3788 16.0001C36.7664 15.941 37.1621 15.9114 37.5607 15.9114C41.9088 15.9114 45.4453 19.4817 45.4453 23.8698C45.4453 28.2569 41.9088 31.8271 37.5607 31.8271Z" fill="white" stroke="white"/>
</g>
</g>
</g>
</svg>
