<svg xmlns="http://www.w3.org/2000/svg" width="60.234" height="60.234" viewBox="0 0 60.234 60.234">
  <g id="Icon_mobile_app" transform="translate(-851.266)">
    <path id="Path_1004" data-name="Path 1004" d="M114.752,230.329H110.2a.9.9,0,0,1-.895-.9v-49.4a1.8,1.8,0,0,0-1.791-1.8h-50.3a1.8,1.8,0,0,0-1.8,1.8v50.294a1.8,1.8,0,0,0,1.8,1.8H106.61a.9.9,0,0,1,.9.9v4.551a.889.889,0,0,0,.891.893h6.348a.9.9,0,0,0,.9-.893v-6.349a.9.9,0,0,0-.9-.9" transform="translate(795.848 -178.236)" fill="#8fc740"/>
    <g id="RICOH_device_001" transform="translate(645 -37.845)">
      <path id="Path_1900" data-name="Path 1900" d="M244.383,47.591V80.638a3.192,3.192,0,0,1-3.191,3.191h-17A3.192,3.192,0,0,1,221,80.638V47.591a3.192,3.192,0,0,1,3.191-3.191h17A3.192,3.192,0,0,1,244.383,47.591Z" fill="none" stroke="#fff" stroke-miterlimit="10" stroke-width="1.5"/>
      <path id="Path_1901" data-name="Path 1901" d="M244.383,47.591v2.639H221V47.591a3.192,3.192,0,0,1,3.191-3.191h17A3.192,3.192,0,0,1,244.383,47.591Z" fill="none" stroke="#fff" stroke-miterlimit="10" stroke-width="1.5"/>
      <path id="Path_1902" data-name="Path 1902" d="M244.383,540.8v3.984a3.192,3.192,0,0,1-3.191,3.191h-17A3.192,3.192,0,0,1,221,544.784V540.8Z" transform="translate(0 -464.14)" fill="none" stroke="#fff" stroke-miterlimit="10" stroke-width="1.5"/>
      <path id="Path_1903" data-name="Path 1903" d="M476.208,204.172h-1.345a1.162,1.162,0,0,1-1.163-1.163v-1.345a1.162,1.162,0,0,1,1.163-1.163h1.345a1.162,1.162,0,0,1,1.163,1.163v1.345A1.162,1.162,0,0,1,476.208,204.172Z" transform="translate(-236.277 -145.955)" fill="none" stroke="#fff" stroke-miterlimit="10" stroke-width="1.5"/>
      <path id="Path_1904" data-name="Path 1904" d="M375.109,204.172h-1.345a1.162,1.162,0,0,1-1.163-1.163v-1.345a1.162,1.162,0,0,1,1.163-1.163h1.345a1.162,1.162,0,0,1,1.163,1.163v1.345A1.162,1.162,0,0,1,375.109,204.172Z" transform="translate(-141.748 -145.955)" fill="none" stroke="#fff" stroke-miterlimit="10" stroke-width="1.5"/>
      <path id="Path_1905" data-name="Path 1905" d="M274.009,204.172h-1.345a1.162,1.162,0,0,1-1.163-1.163v-1.345a1.162,1.162,0,0,1,1.163-1.163h1.345a1.162,1.162,0,0,1,1.163,1.163v1.345A1.162,1.162,0,0,1,274.009,204.172Z" transform="translate(-47.218 -145.955)" fill="none" stroke="#fff" stroke-miterlimit="10" stroke-width="1.5"/>
      <path id="Path_1906" data-name="Path 1906" d="M476.208,305.872h-1.345a1.162,1.162,0,0,1-1.163-1.163v-1.345a1.162,1.162,0,0,1,1.163-1.163h1.345a1.162,1.162,0,0,1,1.163,1.163v1.345A1.162,1.162,0,0,1,476.208,305.872Z" transform="translate(-236.277 -241.046)" fill="none" stroke="#fff" stroke-miterlimit="10" stroke-width="1.5"/>
      <path id="Path_1907" data-name="Path 1907" d="M375.109,305.872h-1.345a1.162,1.162,0,0,1-1.163-1.163v-1.345a1.162,1.162,0,0,1,1.163-1.163h1.345a1.162,1.162,0,0,1,1.163,1.163v1.345A1.162,1.162,0,0,1,375.109,305.872Z" transform="translate(-141.748 -241.046)" fill="none" stroke="#fff" stroke-miterlimit="10" stroke-width="1.5"/>
      <path id="Path_1908" data-name="Path 1908" d="M274.009,305.872h-1.345a1.162,1.162,0,0,1-1.163-1.163v-1.345a1.162,1.162,0,0,1,1.163-1.163h1.345a1.162,1.162,0,0,1,1.163,1.163v1.345A1.162,1.162,0,0,1,274.009,305.872Z" transform="translate(-47.218 -241.046)" fill="none" stroke="#fff" stroke-miterlimit="10" stroke-width="1.5"/>
      <path id="Path_1909" data-name="Path 1909" d="M476.208,407.672h-1.345a1.162,1.162,0,0,1-1.163-1.163v-1.345A1.162,1.162,0,0,1,474.863,404h1.345a1.162,1.162,0,0,1,1.163,1.163v1.345A1.162,1.162,0,0,1,476.208,407.672Z" transform="translate(-236.277 -336.23)" fill="none" stroke="#fff" stroke-miterlimit="10" stroke-width="1.5"/>
      <path id="Path_1910" data-name="Path 1910" d="M375.109,407.672h-1.345a1.162,1.162,0,0,1-1.163-1.163v-1.345A1.162,1.162,0,0,1,373.763,404h1.345a1.162,1.162,0,0,1,1.163,1.163v1.345A1.162,1.162,0,0,1,375.109,407.672Z" transform="translate(-141.748 -336.23)" fill="none" stroke="#fff" stroke-miterlimit="10" stroke-width="1.5"/>
      <path id="Path_1911" data-name="Path 1911" d="M274.009,407.672h-1.345a1.162,1.162,0,0,1-1.163-1.163v-1.345A1.162,1.162,0,0,1,272.663,404h1.345a1.162,1.162,0,0,1,1.163,1.163v1.345A1.162,1.162,0,0,1,274.009,407.672Z" transform="translate(-47.218 -336.23)" fill="none" stroke="#fff" stroke-miterlimit="10" stroke-width="1.5"/>
      <line id="Line_382" data-name="Line 382" x2="4.497" transform="translate(236.064 80.417)" fill="none" stroke="#fff" stroke-miterlimit="10" stroke-width="1.5"/>
      <line id="Line_383" data-name="Line 383" x2="4.504" transform="translate(224.821 80.417)" fill="none" stroke="#fff" stroke-miterlimit="10" stroke-width="1.5"/>
      <line id="Line_384" data-name="Line 384" x2="9.306" transform="translate(227.629 47.487)" fill="none" stroke="#fff" stroke-miterlimit="10" stroke-width="1.5"/>
      <circle id="Ellipse_11" data-name="Ellipse 11" cx="0.533" cy="0.533" r="0.533" transform="translate(232.158 79.884)" fill="none" stroke="#fff" stroke-miterlimit="10" stroke-width="1.5"/>
    </g>
  </g>
</svg>
