<svg xmlns="http://www.w3.org/2000/svg" width="60.234" height="60.234" viewBox="0 0 60.234 60.234">
  <g id="Icon_consulting" transform="translate(-851.266)">
    <path id="Path_1004" data-name="Path 1004" d="M114.752,230.329H110.2a.9.9,0,0,1-.895-.9v-49.4a1.8,1.8,0,0,0-1.791-1.8h-50.3a1.8,1.8,0,0,0-1.8,1.8v50.294a1.8,1.8,0,0,0,1.8,1.8H106.61a.9.9,0,0,1,.9.9v4.551a.889.889,0,0,0,.891.893h6.348a.9.9,0,0,0,.9-.893v-6.349a.9.9,0,0,0-.9-.9" transform="translate(795.848 -178.236)" fill="#8fc740"/>
    <g id="Group_2602" data-name="Group 2602" transform="translate(4621.935 -2087.057)">
      <path id="Path_1924" data-name="Path 1924" d="M824.411,266.7h-20.3a2.822,2.822,0,0,0-2.812,2.806v20.3a2.819,2.819,0,0,0,2.812,2.813h13.479a13.073,13.073,0,0,1,2.347-2.41H803.425V273.582h21.667v1.09a8.963,8.963,0,0,1,2.125-.444v-4.715A2.817,2.817,0,0,0,824.411,266.7Zm-4.875,4.979a1.33,1.33,0,1,1,1.326-1.326A1.322,1.322,0,0,1,819.536,271.679Zm4.139-.007A1.323,1.323,0,1,1,825,270.353,1.319,1.319,0,0,1,823.675,271.672Z" transform="translate(-4563.9 1830.6)" fill="none" stroke="#fff" stroke-miterlimit="10" stroke-width="1.5"/>
      <rect id="Rectangle_984" data-name="Rectangle 984" width="9.445" height="2.653" transform="translate(-3757.975 2111.259)" fill="none" stroke="#fff" stroke-miterlimit="10" stroke-width="1.5"/>
      <rect id="Rectangle_985" data-name="Rectangle 985" width="9.445" height="2.653" transform="translate(-3757.975 2115.363)" fill="none" stroke="#fff" stroke-miterlimit="10" stroke-width="1.5"/>
      <rect id="Rectangle_986" data-name="Rectangle 986" width="9.445" height="2.653" transform="translate(-3757.975 2107.147)" fill="none" stroke="#fff" stroke-miterlimit="10" stroke-width="1.5"/>
      <path id="Path_1925" data-name="Path 1925" d="M1185.1,577.732a6.672,6.672,0,0,0,4.389-1.632" transform="translate(-4921.047 1542.686)" fill="none" stroke="#fff" stroke-linecap="round" stroke-linejoin="round" stroke-miterlimit="10" stroke-width="1.5"/>
      <path id="Path_1926" data-name="Path 1926" d="M1142.97,605l-.07.021" transform="translate(-4881.777 1515.793)" fill="none" stroke="#fff" stroke-linecap="round" stroke-linejoin="round" stroke-miterlimit="10" stroke-width="1.5"/>
      <path id="Path_1927" data-name="Path 1927" d="M1174.5,599.063V599a6.327,6.327,0,0,0,.729.042" transform="translate(-4911.183 1521.377)" fill="none" stroke="#fff" stroke-linecap="round" stroke-linejoin="round" stroke-miterlimit="10" stroke-width="1.5"/>
      <path id="Path_1928" data-name="Path 1928" d="M1185.1,577.732a6.672,6.672,0,0,0,4.389-1.632" transform="translate(-4921.047 1542.686)" fill="none" stroke="#fff" stroke-linecap="round" stroke-linejoin="round" stroke-miterlimit="10" stroke-width="1.5"/>
      <path id="Path_1929" data-name="Path 1929" d="M1142.97,605l-.07.021" transform="translate(-4881.777 1515.793)" fill="none" stroke="#fff" stroke-linecap="round" stroke-linejoin="round" stroke-miterlimit="10" stroke-width="1.5"/>
      <path id="Path_1930" data-name="Path 1930" d="M1174.5,599.063V599a6.327,6.327,0,0,0,.729.042" transform="translate(-4911.183 1521.377)" fill="none" stroke="#fff" stroke-linecap="round" stroke-linejoin="round" stroke-miterlimit="10" stroke-width="1.5"/>
      <path id="Path_1931" data-name="Path 1931" d="M1101.831,412.815a6.7,6.7,0,0,1-2.181,4.958c-.049.042-.1.09-.146.132a6.659,6.659,0,0,1-4.389,1.632h-.007a6.231,6.231,0,0,1-.729-.042,6.634,6.634,0,0,1-3.646-1.59c-.048-.042-.1-.083-.146-.132a6.714,6.714,0,0,1,3.8-11.632,6.448,6.448,0,0,1,.736-.042A6.714,6.714,0,0,1,1101.831,412.815Z" transform="translate(-4831.063 1700.881)" fill="none" stroke="#fff" stroke-linecap="round" stroke-linejoin="round" stroke-miterlimit="10" stroke-width="1.5"/>
      <path id="Path_1932" data-name="Path 1932" d="M1048.693,610.686H1026.7a11.269,11.269,0,0,1,.465-3.188,10.93,10.93,0,0,1,2.521-4.347c.215-.229.438-.451.674-.66a11.05,11.05,0,0,1,4.41-2.41h.069v-.014a1.108,1.108,0,0,1,.146-.035c.083-.021.16-.042.243-.056s.174-.042.264-.056a.909.909,0,0,0,.132-.028c.09-.014.174-.035.264-.049l.132-.021.132-.021.132-.021.389-.042a.519.519,0,0,1,.1-.007,1.722,1.722,0,0,1,.194-.014q.365-.021.729-.021h.007a10.944,10.944,0,0,1,4.5.965,10.963,10.963,0,0,1,6.486,10.021Z" transform="translate(-4773.647 1520.725)" fill="none" stroke="#fff" stroke-linecap="round" stroke-linejoin="round" stroke-miterlimit="10" stroke-width="1.5"/>
      <path id="Path_1933" data-name="Path 1933" d="M1142.97,605v.021h-.07A.266.266,0,0,1,1142.97,605Z" transform="translate(-4881.777 1515.793)" fill="none" stroke="#fff" stroke-linecap="round" stroke-linejoin="round" stroke-miterlimit="10" stroke-width="1.5"/>
    </g>
  </g>
</svg>
