<svg xmlns="http://www.w3.org/2000/svg" width="60.234" height="60.234" viewBox="0 0 60.234 60.234">
  <g id="Icon_uiux" transform="translate(-851.266)">
    <path id="Path_1004" data-name="Path 1004" d="M114.752,230.329H110.2a.9.9,0,0,1-.895-.9v-49.4a1.8,1.8,0,0,0-1.791-1.8h-50.3a1.8,1.8,0,0,0-1.8,1.8v50.294a1.8,1.8,0,0,0,1.8,1.8H106.61a.9.9,0,0,1,.9.9v4.551a.889.889,0,0,0,.891.893h6.348a.9.9,0,0,0,.9-.893v-6.349a.9.9,0,0,0-.9-.9" transform="translate(795.848 -178.236)" fill="#8fc740"/>
    <g id="Group_2604" data-name="Group 2604" transform="translate(4583 -1613.297)">
      <g id="Group_2603" data-name="Group 2603">
        <path id="Path_1949" data-name="Path 1949" d="M117.71,198.875H111.9V179.58a2.879,2.879,0,0,1,2.88-2.88h34.274a2.834,2.834,0,0,1,2.838,2.838v19.337h-5.81" transform="translate(-3836.892 1447.1)" fill="none" stroke="#fff" stroke-miterlimit="10" stroke-width="1.5"/>
        <path id="Path_1950" data-name="Path 1950" d="M151.8,441v2.872a2.485,2.485,0,0,1-2.485,2.485H113.933a2.136,2.136,0,0,1-2.133-2.133V441Z" transform="translate(-3836.8 1204.991)" fill="none" stroke="#fff" stroke-miterlimit="10" stroke-width="1.5"/>
        <rect id="Rectangle_988" data-name="Rectangle 988" width="12.208" height="5.357" transform="translate(-3711.104 1651.357)" fill="none" stroke="#fff" stroke-miterlimit="10" stroke-width="1.5"/>
        <path id="Path_1951" data-name="Path 1951" d="M264.8,568.7H247.6" transform="translate(-3961.198 1088.013)" fill="none" stroke="#fff" stroke-miterlimit="10" stroke-width="1.5"/>
        <line id="Line_388" data-name="Line 388" x2="5.508" transform="translate(-3707.754 1648.67)" fill="none" stroke="#fff" stroke-miterlimit="10" stroke-width="1.5"/>
      </g>
      <text id="UI_UX" data-name="UI/UX" transform="translate(-3705 1640)" fill="#fff" font-size="12" font-family="FrutigerLTStd-Bold, Frutiger LT Std" font-weight="700"><tspan x="-16.668" y="0">UI/UX</tspan></text>
    </g>
  </g>
</svg>
