<svg xmlns="http://www.w3.org/2000/svg" width="60.234" height="60.234" viewBox="0 0 60.234 60.234">
  <g id="Icon_iOS_android" transform="translate(-851.266)">
    <path id="Path_1004" data-name="Path 1004" d="M114.752,230.329H110.2a.9.9,0,0,1-.895-.9v-49.4a1.8,1.8,0,0,0-1.791-1.8h-50.3a1.8,1.8,0,0,0-1.8,1.8v50.294a1.8,1.8,0,0,0,1.8,1.8H106.61a.9.9,0,0,1,.9.9v4.551a.889.889,0,0,0,.891.893h6.348a.9.9,0,0,0,.9-.893v-6.349a.9.9,0,0,0-.9-.9" transform="translate(795.848 -178.236)" fill="#8fc740"/>
    <g id="Group_2607" data-name="Group 2607" transform="translate(4195.073 -1924.623)">
      <g id="android-logo" transform="translate(-3319.2 1948.008)">
        <g id="Group_2605" data-name="Group 2605" transform="translate(0 0)">
          <path id="Path_1952" data-name="Path 1952" d="M43.943,179.141a1.349,1.349,0,0,0-.992.407,1.334,1.334,0,0,0-.407.978v5.841a1.391,1.391,0,0,0,1.4,1.4,1.329,1.329,0,0,0,.985-.408,1.362,1.362,0,0,0,.4-.992v-5.841a1.391,1.391,0,0,0-1.386-1.385Z" transform="translate(-42.544 -171.819)" fill="none" stroke="#fff" stroke-width="1.5"/>
          <path id="Path_1953" data-name="Path 1953" d="M132.024,2.078,132.988.3a.179.179,0,0,0-.068-.272.188.188,0,0,0-.272.081L131.671,1.9a6.813,6.813,0,0,0-5.461,0L125.232.109a.188.188,0,0,0-.272-.081.179.179,0,0,0-.068.272l.965,1.779a5.956,5.956,0,0,0-2.337,2.085,5.267,5.267,0,0,0-.869,2.928h12.565a5.268,5.268,0,0,0-.869-2.928A5.981,5.981,0,0,0,132.024,2.078Zm-5.576,2.588a.509.509,0,0,1-.374.157.486.486,0,0,1-.367-.157.542.542,0,0,1,0-.747.488.488,0,0,1,.367-.156.528.528,0,0,1,.374.9Zm5.726,0a.487.487,0,0,1-.367.157.53.53,0,0,1,0-1.06.488.488,0,0,1,.367.156.542.542,0,0,1,0,.747Z" transform="translate(-119.377 0)" fill="none" stroke="#fff" stroke-width="1.5"/>
          <path id="Path_1954" data-name="Path 1954" d="M123.971,194.5a1.484,1.484,0,0,0,1.494,1.494h1.005l.014,3.084a1.35,1.35,0,0,0,.407.992,1.334,1.334,0,0,0,.978.408,1.391,1.391,0,0,0,1.4-1.4v-3.084h1.875v3.084a1.4,1.4,0,1,0,2.8,0v-3.084h1.019a1.427,1.427,0,0,0,1.046-.435,1.442,1.442,0,0,0,.435-1.06V185.45h-12.47Z" transform="translate(-120.643 -177.87)" fill="none" stroke="#fff" stroke-width="1.5"/>
          <path id="Path_1955" data-name="Path 1955" d="M443.762,179.141a1.346,1.346,0,0,0-.978.4,1.329,1.329,0,0,0-.407.985v5.841a1.349,1.349,0,0,0,.407.992,1.334,1.334,0,0,0,.978.408,1.391,1.391,0,0,0,1.4-1.4v-5.841a1.328,1.328,0,0,0-.407-.985A1.362,1.362,0,0,0,443.762,179.141Z" transform="translate(-426.034 -171.819)" fill="none" stroke="#fff" stroke-width="1.5"/>
        </g>
      </g>
      <g id="apple-logo" transform="translate(-3334.073 1933.19)">
        <g id="Group_2606" data-name="Group 2606" transform="translate(0)">
          <path id="Path_1956" data-name="Path 1956" d="M15.524,0h.153a4.607,4.607,0,0,1-1.16,3.472,3.6,3.6,0,0,1-3.166,1.486,4.468,4.468,0,0,1,1.181-3.364A5.1,5.1,0,0,1,15.524,0Z" transform="translate(-2.615)" fill="none" stroke="#fff" stroke-width="1.5"/>
          <path id="Path_1957" data-name="Path 1957" d="M19.643,16.1v.043a12.517,12.517,0,0,1-1.791,3.453c-.683.94-1.52,2.2-3.014,2.2-1.291,0-2.149-.83-3.473-.853-1.4-.023-2.17.694-3.45.875H7.478a3.9,3.9,0,0,1-2.251-1.551A13.59,13.59,0,0,1,2.1,12.448v-.963A6.3,6.3,0,0,1,4.857,6.31a4.649,4.649,0,0,1,3.121-.723,7.852,7.852,0,0,1,1.529.438,4.223,4.223,0,0,0,1.528.458,3.669,3.669,0,0,0,1.072-.328,6.6,6.6,0,0,1,3.45-.612,4.787,4.787,0,0,1,3.517,2.1,4.513,4.513,0,0,0-2.293,4.478A4.623,4.623,0,0,0,19.643,16.1Z" transform="translate(-2.104 -0.304)" fill="none" stroke="#fff" stroke-width="1.5"/>
        </g>
      </g>
    </g>
  </g>
</svg>
