<svg xmlns="http://www.w3.org/2000/svg" width="60.234" height="60.234" viewBox="0 0 60.234 60.234">
  <g id="Icon_web_app_development" transform="translate(-851.266 0.062)">
    <path id="Path_1004" data-name="Path 1004" d="M114.752,230.329H110.2a.9.9,0,0,1-.895-.9v-49.4a1.8,1.8,0,0,0-1.791-1.8h-50.3a1.8,1.8,0,0,0-1.8,1.8v50.294a1.8,1.8,0,0,0,1.8,1.8H106.61a.9.9,0,0,1,.9.9v4.551a.889.889,0,0,0,.891.893h6.348a.9.9,0,0,0,.9-.893v-6.349a.9.9,0,0,0-.9-.9" transform="translate(795.848 -178.298)" fill="#8fc740"/>
    <g id="Group_2600" data-name="Group 2600" transform="translate(-137.298 -78.945)">
      <g id="Group_1998" data-name="Group 1998" transform="translate(993.921 92.883)">
        <rect id="Rectangle_682" data-name="Rectangle 682" width="30.986" height="21.399" transform="translate(2 0)" fill="none" stroke="#fff" stroke-miterlimit="10" stroke-width="1.6"/>
        <path id="Path_1323" data-name="Path 1323" d="M0,0H14.535V3.776H0Z" transform="translate(10.226 23.916)" fill="none" stroke="#fff" stroke-width="1.6"/>
        <g id="Group_1999" data-name="Group 1999" transform="translate(14.269 21.345)">
          <line id="Line_191" data-name="Line 191" y2="2.572" transform="translate(0 0)" fill="none" stroke="#fff" stroke-miterlimit="10" stroke-width="1.6"/>
          <line id="Line_192" data-name="Line 192" y2="2.572" transform="translate(6.449 0)" fill="none" stroke="#fff" stroke-miterlimit="10" stroke-width="1.6"/>
        </g>
      </g>
      <g id="Group_2000" data-name="Group 2000" transform="translate(1022.771 99.314)">
        <rect id="Rectangle_688" data-name="Rectangle 688" width="11.904" height="21.007" transform="translate(0 0)" fill="#8fc740" stroke="#fff" stroke-miterlimit="10" stroke-width="1.6"/>
        <rect id="Rectangle_689" data-name="Rectangle 689" width="5.567" height="1.3" transform="translate(3.169)" fill="#fff" stroke="#fff" stroke-miterlimit="10" stroke-width="1.6"/>
      </g>
    </g>
  </g>
</svg>
