<svg id="Icon-data_insights" xmlns="http://www.w3.org/2000/svg" width="60.234" height="60.234" viewBox="0 0 60.234 60.234">
  <path id="Path_1004" data-name="Path 1004" d="M114.752,230.329H110.2a.9.9,0,0,1-.895-.9v-49.4a1.8,1.8,0,0,0-1.791-1.8h-50.3a1.8,1.8,0,0,0-1.8,1.8v50.294a1.8,1.8,0,0,0,1.8,1.8H106.61a.9.9,0,0,1,.9.9v4.551a.889.889,0,0,0,.891.893h6.348a.9.9,0,0,0,.9-.893v-6.349a.9.9,0,0,0-.9-.9" transform="translate(-55.418 -178.236)" fill="#8fc740"></path>
  <g id="Group_1998" data-name="Group 1998" transform="translate(5.265 12.946)">
    <rect id="Rectangle_682" data-name="Rectangle 682" width="30.986" height="21.399" transform="translate(2 0)" fill="none" stroke="#fff" stroke-miterlimit="10" stroke-width="1.6"></rect>
    <path id="Path_1323" data-name="Path 1323" d="M0,0H14.535V3.776H0Z" transform="translate(10.226 23.916)" fill="none" stroke="#fff" stroke-width="1.6"></path>
    <g id="Group_1999" data-name="Group 1999" transform="translate(14.269 21.345)">
      <line id="Line_191" data-name="Line 191" y2="2.572" transform="translate(0 0)" fill="none" stroke="#fff" stroke-miterlimit="10" stroke-width="1.6"></line>
      <line id="Line_192" data-name="Line 192" y2="2.572" transform="translate(6.449 0)" fill="none" stroke="#fff" stroke-miterlimit="10" stroke-width="1.6"></line>
    </g>
    <path id="Path_1926" data-name="Path 1926" d="M0,7.744,5.163,2.829,7.021,4.714l3.226-3.163,1.829,1.83L15.482,0" transform="translate(8.006 8.37) rotate(-8)" fill="none" stroke="#fff" stroke-width="1.8"></path>
    <path id="Polygon_5" data-name="Polygon 5" d="M2.89,0,5.78,3.086H0Z" transform="matrix(0.719, 0.695, -0.695, 0.719, 22.822, 2.883)" fill="#fff"></path>
  </g>
  <g id="Group_2000" data-name="Group 2000" transform="translate(34.115 19.377)">
    <rect id="Rectangle_688" data-name="Rectangle 688" width="11.904" height="21.007" transform="translate(0 0)" fill="#8fc740" stroke="#fff" stroke-miterlimit="10" stroke-width="1.6"></rect>
    <rect id="Rectangle_689" data-name="Rectangle 689" width="5.567" height="1.3" transform="translate(3.169)" fill="#fff" stroke="#fff" stroke-miterlimit="10" stroke-width="1.6"></rect>
  </g>
</svg>
