<svg xmlns="http://www.w3.org/2000/svg" xmlns:xlink="http://www.w3.org/1999/xlink" width="60" height="60" viewBox="0 0 60 60">
  <defs>
    <clipPath id="clip-path">
      <rect id="Rectangle_697" data-name="Rectangle 697" width="38" height="36" transform="translate(333.74 1925.466)"></rect>
    </clipPath>
  </defs>
  <g id="Icon_full_scalability" transform="translate(0)">
    <path id="Path_273" data-name="Path 273" d="M114.521,230.126h-4.535a.892.892,0,0,1-.891-.892V180.027a1.79,1.79,0,0,0-1.784-1.791h-50.1a1.794,1.794,0,0,0-1.79,1.791v50.1a1.792,1.792,0,0,0,1.79,1.791h49.2a.894.894,0,0,1,.9.9v4.533a.886.886,0,0,0,.887.89h6.324a.892.892,0,0,0,.9-.89v-6.325a.9.9,0,0,0-.9-.9" transform="translate(-55.418 -178.236)" fill="#56a3da"></path>
    <g id="Icon_6" transform="translate(-326.387 -1916.473)" clip-path="url('#clip-path')">
      <path id="Path_1498" data-name="Path 1498" d="M418,1966.04V1932" transform="translate(-64.765 -5.444)" fill="none" stroke="#fff" stroke-miterlimit="8" stroke-width="2" fill-rule="evenodd"></path>
      <path id="Path_1499" data-name="Path 1499" d="M434.677,1999H422.67a4.7,4.7,0,0,0-4.67,4.74v13.079" transform="translate(-64.765 -57.137)" fill="none" stroke="#fff" stroke-miterlimit="8" stroke-width="2" fill-rule="evenodd"></path>
      <path id="Path_1500" data-name="Path 1500" d="M343,2027h11.938a5.181,5.181,0,0,1,5.2,5.166v4.658" transform="translate(-6.899 -78.74)" fill="none" stroke="#fff" stroke-miterlimit="8" stroke-width="2" fill-rule="evenodd"></path>
      <path id="Path_1501" data-name="Path 1501" d="M347.483,2013.966,342,2008.481l5.483-5.481" transform="translate(-6.127 -60.224)" fill="none" stroke="#fff" stroke-miterlimit="8" stroke-width="2" fill-rule="evenodd"></path>
      <path id="Path_1502" data-name="Path 1502" d="M393,1937.711l5.6-5.711,5.6,5.711" transform="translate(-45.476 -5.444)" fill="none" stroke="#fff" stroke-miterlimit="8" stroke-width="2" fill-rule="evenodd"></path>
      <path id="Path_1503" data-name="Path 1503" d="M467,1975l5.483,5.485-5.483,5.48" transform="translate(-102.57 -38.62)" fill="none" stroke="#fff" stroke-miterlimit="8" stroke-width="2" fill-rule="evenodd"></path>
    </g>
  </g>
</svg>
