<svg width="229" height="224" xmlns="http://www.w3.org/2000/svg" xmlns:xlink="http://www.w3.org/1999/xlink" xml:space="preserve" overflow="hidden"><defs><clipPath id="clip0"><rect x="2777" y="495" width="229" height="224"/></clipPath><clipPath id="clip1"><rect x="2780" y="496" width="223" height="223"/></clipPath><clipPath id="clip2"><rect x="2780" y="496" width="223" height="223"/></clipPath><clipPath id="clip3"><rect x="2780" y="496" width="223" height="223"/></clipPath></defs><g clip-path="url(#clip0)" transform="translate(-2777 -495)"><g clip-path="url(#clip1)"><g clip-path="url(#clip2)"><g clip-path="url(#clip3)"><path d="M2896.62 572.313C2896.62 574.867 2894.55 576.938 2892 576.938 2889.45 576.938 2887.38 574.867 2887.38 572.313 2887.38 569.758 2889.45 567.688 2892 567.688 2894.55 567.688 2896.62 569.758 2896.62 572.313Z" fill="#FFFFFF" fill-rule="nonzero" fill-opacity="1"/><path d="M2896.62 664.813C2896.62 667.367 2894.55 669.438 2892 669.438 2889.45 669.438 2887.38 667.367 2887.38 664.813 2887.38 662.258 2889.45 660.188 2892 660.188 2894.55 660.188 2896.62 662.258 2896.62 664.813Z" fill="#FFFFFF" fill-rule="nonzero" fill-opacity="1"/><path d="M2942.88 616.25C2942.88 618.804 2940.8 620.875 2938.25 620.875 2935.7 620.875 2933.62 618.804 2933.62 616.25 2933.62 613.696 2935.7 611.625 2938.25 611.625 2940.8 611.625 2942.88 613.696 2942.88 616.25Z" fill="#FFFFFF" fill-rule="nonzero" fill-opacity="1"/><path d="M2850.38 616.25C2850.38 618.804 2848.3 620.875 2845.75 620.875 2843.2 620.875 2841.12 618.804 2841.12 616.25 2841.12 613.696 2843.2 611.625 2845.75 611.625 2848.3 611.625 2850.38 613.696 2850.38 616.25Z" fill="#FFFFFF" fill-rule="nonzero" fill-opacity="1"/><path d="M2896.62 583.875 2887.38 583.875 2887.38 616.25C2887.38 617.406 2887.84 618.563 2888.76 619.488L2911.66 642.381 2918.13 635.906 2896.62 614.4 2896.62 583.875Z" fill="#FFFFFF" fill-rule="nonzero" fill-opacity="1"/><path d="M2892 683.313C2856.16 683.313 2827.25 654.406 2827.25 618.563 2827.25 582.719 2856.16 553.813 2892 553.813 2927.84 553.813 2956.75 582.719 2956.75 618.563 2956.75 654.406 2927.84 683.313 2892 683.313L2892 683.313ZM2946.81 562.138 2953.74 555.2C2956.29 552.425 2956.29 548.263 2953.51 545.488 2950.97 542.944 2946.57 542.713 2943.8 545.256L2935.94 553.35C2924.84 545.95 2912.12 541.325 2898.94 540.4L2898.94 530.688 2919.75 530.688 2919.75 516.813 2864.25 516.813 2864.25 530.688 2885.06 530.688 2885.06 540.169C2848.29 543.406 2818.69 571.85 2814.07 608.619 2809.44 645.388 2830.95 680.306 2865.87 692.563 2900.79 704.819 2939.41 691.406 2959.06 659.956 2978.72 628.506 2973.17 587.806 2946.81 562.138Z" fill="#FFFFFF" fill-rule="nonzero" fill-opacity="1"/></g></g></g></g></svg>