<svg width="229" height="224" xmlns="http://www.w3.org/2000/svg" xmlns:xlink="http://www.w3.org/1999/xlink" xml:space="preserve" overflow="hidden"><defs><clipPath id="clip0"><rect x="1943" y="495" width="229" height="224"/></clipPath><clipPath id="clip1"><rect x="1947" y="496" width="223" height="223"/></clipPath><clipPath id="clip2"><rect x="1947" y="496" width="223" height="223"/></clipPath><clipPath id="clip3"><rect x="1947" y="496" width="223" height="223"/></clipPath></defs><g clip-path="url(#clip0)" transform="translate(-1943 -495)"><g clip-path="url(#clip1)"><g clip-path="url(#clip2)"><g clip-path="url(#clip3)"><path d="M2055.92 541.556C2050.6 541.556 2046.21 545.95 2046.21 551.269 2046.21 556.588 2050.6 560.981 2055.92 560.981 2061.24 560.981 2065.63 556.588 2065.63 551.269 2065.63 545.95 2061.24 541.556 2055.92 541.556Z" fill="#FFFFFF" fill-rule="nonzero" fill-opacity="1"/><path d="M2036.49 598.213C2036.49 603.577 2032.15 607.925 2026.78 607.925 2021.42 607.925 2017.07 603.577 2017.07 598.213 2017.07 592.849 2021.42 588.5 2026.78 588.5 2032.15 588.5 2036.49 592.849 2036.49 598.213Z" fill="#FFFFFF" fill-rule="nonzero" fill-opacity="1"/><path d="M2083.44 554.506 2077.66 557.281C2077.19 559.131 2076.27 560.75 2075.34 562.369L2077.43 568.381 2072.8 573.006 2066.79 570.925C2065.17 571.85 2063.55 572.544 2061.7 573.006L2058.93 578.556 2052.45 578.556 2049.68 572.775C2047.83 572.313 2046.21 571.619 2044.59 570.694L2038.58 572.775 2033.95 568.15 2036.03 562.138C2035.11 560.519 2034.41 558.9 2033.95 557.05L2028.17 554.275 2028.17 547.8 2033.95 545.025C2034.41 543.175 2035.11 541.556 2036.03 539.938L2034.18 533.925 2038.81 529.3 2044.82 531.381C2046.44 530.456 2048.06 529.763 2049.91 529.3L2052.68 523.519 2059.16 523.519 2061.93 529.069C2063.78 529.531 2065.4 530.225 2067.02 531.15L2073.03 529.069 2077.66 533.694 2075.57 539.706C2076.5 541.325 2077.19 542.944 2077.66 544.794L2083.44 547.569 2083.44 554.506ZM2054.3 601.45 2048.52 604.225C2048.06 606.075 2047.36 607.694 2046.44 609.313L2048.29 615.325 2043.66 619.95 2037.65 617.869C2036.03 618.794 2034.41 619.488 2032.56 619.95L2030.02 625.5 2023.54 625.5 2020.77 619.719C2018.92 619.256 2017.3 618.563 2015.68 617.638L2009.67 619.488 2005.04 614.863 2007.12 608.85C2006.2 607.231 2005.51 605.613 2005.04 603.763L1999.26 600.988 1999.26 594.513 2005.04 591.738C2005.51 589.888 2006.2 588.269 2007.12 586.65L2005.04 580.638 2009.67 576.013 2015.68 578.094C2017.3 577.169 2018.92 576.475 2020.77 576.013L2023.54 570.231 2030.25 570.231 2033.03 576.013C2034.88 576.475 2036.49 577.169 2038.11 578.094L2044.12 576.013 2048.75 580.638 2046.67 586.65C2047.59 588.269 2048.29 589.888 2048.75 591.738L2054.53 594.513 2054.3 601.45ZM2134.31 610.006 2118.36 582.256 2118.36 581.1C2119.28 555.663 2106.33 531.844 2084.36 518.663 2062.39 505.713 2035.34 505.713 2013.37 518.663 1991.4 531.613 1978.45 555.663 1979.38 581.1 1979.38 603.069 1989.32 623.65 2006.66 637.063L2006.66 695.569 2079.74 695.569 2079.74 667.819 2091.07 667.819C2098.47 667.819 2105.41 664.813 2110.49 659.725 2115.58 654.406 2118.36 647.469 2118.36 640.069L2118.36 626.194 2128.53 626.194C2134.54 625.5 2139.86 618.563 2134.31 610.006Z" fill="#FFFFFF" fill-rule="nonzero" fill-opacity="1"/></g></g></g></g></svg>