<svg width="225" height="224" xmlns="http://www.w3.org/2000/svg" xmlns:xlink="http://www.w3.org/1999/xlink" xml:space="preserve" overflow="hidden"><defs><clipPath id="clip0"><rect x="3611" y="495" width="225" height="224"/></clipPath><clipPath id="clip1"><rect x="3613" y="496" width="223" height="223"/></clipPath><clipPath id="clip2"><rect x="3613" y="496" width="223" height="223"/></clipPath><clipPath id="clip3"><rect x="3613" y="496" width="223" height="223"/></clipPath></defs><g clip-path="url(#clip0)" transform="translate(-3611 -495)"><g clip-path="url(#clip1)"><g clip-path="url(#clip2)"><g clip-path="url(#clip3)"><path d="M3812.87 660.188 3805.94 667.125 3646.37 667.125 3637.12 657.875 3637.12 611.625 3646.37 602.375 3805.94 602.375 3812.87 609.313 3812.87 660.188ZM3623.25 588.5 3623.25 681 3826.75 681 3826.75 588.5 3623.25 588.5Z" fill="#FFFFFF" fill-rule="nonzero" fill-opacity="1"/><path d="M3743.5 634.75C3743.5 647.522 3735.22 657.875 3725 657.875 3714.78 657.875 3706.5 647.522 3706.5 634.75 3706.5 621.979 3714.78 611.625 3725 611.625 3735.22 611.625 3743.5 621.979 3743.5 634.75Z" fill="#FFFFFF" fill-rule="nonzero" fill-opacity="1"/><path d="M3674.12 634.75C3674.12 638.582 3671.02 641.688 3667.19 641.688 3663.36 641.688 3660.25 638.582 3660.25 634.75 3660.25 630.919 3663.36 627.813 3667.19 627.813 3671.02 627.813 3674.12 630.919 3674.12 634.75Z" fill="#FFFFFF" fill-rule="nonzero" fill-opacity="1"/><path d="M3789.75 634.75C3789.75 638.582 3786.64 641.688 3782.81 641.688 3778.98 641.688 3775.87 638.582 3775.87 634.75 3775.87 630.919 3778.98 627.813 3782.81 627.813 3786.64 627.813 3789.75 630.919 3789.75 634.75Z" fill="#FFFFFF" fill-rule="nonzero" fill-opacity="1"/><path d="M3766.39 543.869 3769.86 552.656 3783.74 549.881 3774.02 525.6 3649.61 576.475 3720.84 562.369Z" fill="#FFFFFF" fill-rule="nonzero" fill-opacity="1"/><path d="M3754.37 579.25 3790.91 572.081 3792.52 579.25 3806.63 579.25 3802.01 555.663 3683.37 579.25Z" fill="#FFFFFF" fill-rule="nonzero" fill-opacity="1"/></g></g></g></g></svg>