<svg width="225" height="224" xmlns="http://www.w3.org/2000/svg" xmlns:xlink="http://www.w3.org/1999/xlink" xml:space="preserve" overflow="hidden"><defs><clipPath id="clip0"><rect x="453" y="495" width="225" height="224"/></clipPath><clipPath id="clip1"><rect x="455" y="496" width="222" height="223"/></clipPath><clipPath id="clip2"><rect x="455" y="496" width="222" height="223"/></clipPath><clipPath id="clip3"><rect x="455" y="496" width="222" height="223"/></clipPath></defs><g clip-path="url(#clip0)" transform="translate(-453 -495)"><g clip-path="url(#clip1)"><g clip-path="url(#clip2)"><g clip-path="url(#clip3)"><path d="M46.2499 32.375 32.375 32.375 32.375 189.625 189.625 189.625 189.625 175.75 46.2499 175.75Z" fill="#FFFFFF" fill-rule="nonzero" fill-opacity="1" transform="matrix(1 0 0 1 455 496)"/><path d="M152.625 71.6874 166.269 85.3311 148 103.6 134.125 89.7249 111 112.85 97.1249 98.9749 55.2687 140.831 64.9812 150.544 97.1249 118.4 111 132.275 134.125 109.15 148 123.025 175.981 95.0436 189.625 108.687 189.625 71.6874Z" fill="#FFFFFF" fill-rule="nonzero" fill-opacity="1" transform="matrix(1 0 0 1 455 496)"/></g></g></g></g></svg>