<svg width="225" height="224" xmlns="http://www.w3.org/2000/svg" xmlns:xlink="http://www.w3.org/1999/xlink" xml:space="preserve" overflow="hidden"><defs><clipPath id="clip0"><rect x="1200" y="495" width="225" height="224"/></clipPath><clipPath id="clip1"><rect x="1201" y="496" width="223" height="223"/></clipPath><clipPath id="clip2"><rect x="1201" y="496" width="223" height="223"/></clipPath><clipPath id="clip3"><rect x="1201" y="496" width="223" height="223"/></clipPath></defs><g clip-path="url(#clip0)" transform="translate(-1200 -495)"><g clip-path="url(#clip1)"><g clip-path="url(#clip2)"><g clip-path="url(#clip3)"><path d="M1410.51 681 1320.09 523.75C1316.63 517.506 1307.61 517.506 1304.14 523.75L1213.49 681C1210.02 687.244 1214.41 694.875 1221.58 694.875L1312 694.875 1402.42 694.875C1409.59 694.875 1413.98 687.244 1410.51 681ZM1305.06 560.75 1318.94 560.75 1318.94 641.688 1305.06 641.688 1305.06 560.75ZM1312 674.063C1305.53 674.063 1300.44 668.975 1300.44 662.5 1300.44 656.025 1305.53 650.938 1312 650.938 1318.48 650.938 1323.56 656.025 1323.56 662.5 1323.56 668.975 1318.48 674.063 1312 674.063Z" fill="#FFFFFF" fill-rule="nonzero" fill-opacity="1"/></g></g></g></g></svg>