<svg xmlns="http://www.w3.org/2000/svg" xmlns:xlink="http://www.w3.org/1999/xlink" width="60.234" height="60.234" viewBox="0 0 60.234 60.234"><defs><style>.a{fill:none;stroke:#fff;stroke-width:0.3px;}.b{fill:#8fc740;}.c{clip-path:url(#a);}.d{fill:#fff;}</style><clipPath id="a"><rect class="a" width="31.458" height="34.042"/></clipPath></defs><g transform="translate(-851.266)"><path class="b" d="M114.752,230.329H110.2a.9.9,0,0,1-.895-.9v-49.4a1.8,1.8,0,0,0-1.791-1.8h-50.3a1.8,1.8,0,0,0-1.8,1.8v50.294a1.8,1.8,0,0,0,1.8,1.8H106.61a.9.9,0,0,1,.9.9v4.551a.889.889,0,0,0,.891.893h6.348a.9.9,0,0,0,.9-.893v-6.349a.9.9,0,0,0-.9-.9" transform="translate(795.848 -178.236)"/><g transform="translate(861.271 9.949)"><g transform="translate(0 -0.002)"><g class="c" transform="translate(0 0)"><path class="d" d="M20.118,45.967a4.212,4.212,0,1,1,4.212-4.212,4.216,4.216,0,0,1-4.212,4.212m0-7.4a3.189,3.189,0,1,0,3.189,3.189,3.193,3.193,0,0,0-3.189-3.189" transform="translate(-7.247 -17.105)"/><path class="d" d="M20.118,46.117a4.362,4.362,0,1,1,4.362-4.362A4.366,4.366,0,0,1,20.118,46.117Zm0-8.423a4.062,4.062,0,1,0,4.062,4.062A4.066,4.066,0,0,0,20.118,37.694Zm0,7.4a3.339,3.339,0,1,1,3.339-3.339A3.342,3.342,0,0,1,20.118,45.094Zm0-6.377a3.039,3.039,0,1,0,3.039,3.039A3.042,3.042,0,0,0,20.118,38.717Z" transform="translate(-7.247 -17.105)"/><path class="d" d="M17.438,46.807H14.172l-.536-2.08a7.429,7.429,0,0,1-1.506-.622l-1.82,1.13L8,42.927,9.09,41.079a7.576,7.576,0,0,1-.627-1.506l-2.089-.491V35.816l2.08-.536a7.383,7.383,0,0,1,.621-1.507l-1.13-1.82,2.308-2.308L12.1,30.735a7.549,7.549,0,0,1,1.506-.627l.491-2.09h3.265L17.9,30.1a7.5,7.5,0,0,1,1.511.621l1.821-1.135,2.308,2.308L22.45,33.74a7.594,7.594,0,0,1,.627,1.506l2.089.491V39l-2.073.535a7.387,7.387,0,0,1-.623,1.513l1.119,1.821-2.307,2.307-1.848-1.089a7.6,7.6,0,0,1-1.505.626Zm-2.474-1.023h1.664l.446-1.9.3-.076a6.553,6.553,0,0,0,1.8-.747l.261-.157,1.684.992L22.3,42.72l-1.019-1.658.161-.266a6.409,6.409,0,0,0,.741-1.8l.072-.3,1.892-.489V36.547l-1.9-.446-.076-.3A6.566,6.566,0,0,0,21.42,34l-.157-.261.994-1.684-1.174-1.174-1.657,1.033-.268-.161a6.414,6.414,0,0,0-1.8-.741l-.3-.072-.489-1.9H14.908l-.446,1.9-.3.076a6.536,6.536,0,0,0-1.8.747l-.261.158-1.685-.993L9.242,32.1l1.029,1.658-.162.268a6.353,6.353,0,0,0-.74,1.793l-.073.3-1.9.488v1.664l1.9.446.076.3a6.552,6.552,0,0,0,.747,1.8l.157.261-.994,1.685,1.175,1.174,1.658-1.028.268.162a6.408,6.408,0,0,0,1.794.741l.3.073Z" transform="translate(-2.904 -12.765)"/><path class="d" d="M17.557,46.957h-3.5l-.543-2.11a7.6,7.6,0,0,1-1.377-.568l-1.848,1.146L7.813,42.951l1.1-1.875A7.75,7.75,0,0,1,8.345,39.7l-2.121-.5V35.7l2.11-.543A7.552,7.552,0,0,1,8.9,33.779L7.756,31.932l2.474-2.475L12.1,30.562a7.716,7.716,0,0,1,1.377-.573l.5-2.121h3.5l.543,2.11a7.669,7.669,0,0,1,1.381.568l1.848-1.152,2.475,2.475-1.1,1.875A7.763,7.763,0,0,1,23.2,35.12l2.121.5v3.5l-2.1.543a7.557,7.557,0,0,1-.57,1.385l1.136,1.848-2.473,2.473-1.875-1.1a7.772,7.772,0,0,1-1.376.573Zm-3.269-.3h3.031L17.8,44.6l.084-.025a7.469,7.469,0,0,0,1.476-.614l.075-.041,1.822,1.073L23.4,42.85l-1.1-1.794.042-.076a7.254,7.254,0,0,0,.61-1.483l.024-.082,2.044-.528V35.856l-2.059-.483-.025-.084a7.461,7.461,0,0,0-.614-1.477l-.041-.075,1.073-1.821-2.142-2.142-1.794,1.118-.077-.042a7.365,7.365,0,0,0-1.481-.609l-.082-.024-.528-2.051h-3.03l-.484,2.059-.084.025a7.414,7.414,0,0,0-1.476.614l-.075.041-1.821-1.074L8.136,31.975l1.113,1.793-.042.077A7.249,7.249,0,0,0,8.6,35.322l-.024.082-2.051.528v3.031l2.059.484.025.084a7.448,7.448,0,0,0,.614,1.476l.041.075L8.189,42.9l2.142,2.142,1.794-1.113.077.042a7.3,7.3,0,0,0,1.476.609l.082.024Zm2.459-.723h-1.9l-.5-1.924-.21-.052a6.557,6.557,0,0,1-1.836-.758l-.189-.115-1.681,1.043L9.1,42.788,10.1,41.08,9.992,40.9a6.7,6.7,0,0,1-.765-1.838l-.053-.214-1.927-.453v-1.9L9.171,36l.052-.211a6.5,6.5,0,0,1,.758-1.835l.115-.189L9.052,32.081l1.341-1.341L12.1,31.747l.185-.112a6.686,6.686,0,0,1,1.838-.764l.214-.053.453-1.927h1.9l.5,1.924.21.051a6.564,6.564,0,0,1,1.841.759l.189.114,1.68-1.048,1.341,1.34-1.007,1.707.111.184a6.72,6.72,0,0,1,.765,1.839l.053.214,1.927.453v1.9l-1.918.5-.051.21a6.561,6.561,0,0,1-.758,1.841l-.114.188,1.033,1.681-1.342,1.341-1.707-1.006-.185.111a6.7,6.7,0,0,1-1.838.764l-.213.053Zm-1.666-.3h1.429l.44-1.874.391-.1a6.4,6.4,0,0,0,1.756-.73l.338-.2,1.661.979,1.01-1.01-1-1.635.209-.344a6.261,6.261,0,0,0,.724-1.757l.094-.385,1.867-.482V36.666l-1.874-.44-.1-.391a6.42,6.42,0,0,0-.73-1.757l-.2-.337.98-1.661L21.06,31.072l-1.634,1.019-.347-.208a6.265,6.265,0,0,0-1.758-.724l-.385-.094-.482-1.873H15.027l-.44,1.874-.391.1a6.386,6.386,0,0,0-1.755.73l-.338.2-1.662-.979L9.432,32.125l1.015,1.635-.21.347a6.2,6.2,0,0,0-.723,1.751l-.094.385-1.873.482v1.429l1.874.44.1.391a6.4,6.4,0,0,0,.73,1.756l.2.337-.98,1.662,1.009,1.008,1.635-1.014.347.21a6.257,6.257,0,0,0,1.752.724l.384.094Z" transform="translate(-2.904 -12.765)"/><path class="d" d="M48.713,43.725H47.69V32.232a.576.576,0,0,1,.575-.576l1.109,0-2.869-4.969-2.869,4.969,1.11,0a.577.577,0,0,1,.575.576V43.725H44.3V32.678l-1.437,0a.576.576,0,0,1-.5-.863l3.643-6.31a.58.58,0,0,1,.5-.287h0a.579.579,0,0,1,.5.286l3.643,6.31a.576.576,0,0,1-.493.864l-1.441,0Z" transform="translate(-19.266 -11.488)"/><path class="d" d="M48.863,43.875H47.54V32.232a.727.727,0,0,1,.725-.726h.849l-2.609-4.52L43.9,31.505h.851a.726.726,0,0,1,.725.726V43.875H44.149V32.828H42.862a.726.726,0,0,1-.628-1.088l3.643-6.311a.726.726,0,0,1,1.256,0l3.643,6.311a.726.726,0,0,1-.622,1.089H48.863Zm-1.022-.3h.722V32.528l1.591,0a.426.426,0,0,0,.363-.639l-3.643-6.31a.428.428,0,0,0-.367-.211.432.432,0,0,0-.371.214l-3.642,6.309a.427.427,0,0,0,0,.423.432.432,0,0,0,.37.215l1.585,0V43.575h.722V32.232a.426.426,0,0,0-.425-.426l-1.37,0,3.129-5.419L49.634,31.8l-1.368,0a.426.426,0,0,0-.426.426Z" transform="translate(-19.266 -11.488)"/><path class="d" d="M33.88,19.785H32.858V16.526a.578.578,0,0,1,.567-.575l1.117,0L31.673,10.98,28.8,15.949l1.11,0a.58.58,0,0,1,.575.575v2.451H29.466v-2l-1.436,0a.576.576,0,0,1-.5-.865L31.174,9.8a.6.6,0,0,1,1,0l3.643,6.31a.576.576,0,0,1-.5.863l-1.435,0Zm1.046-3.168,0,.005Zm-6.508,0v0m6.9-.669h0Zm-7.284,0h0Z" transform="translate(-12.508 -4.343)"/><path class="d" d="M34.03,19.935H32.708V16.526a.729.729,0,0,1,.715-.725h.859L31.673,11.28,29.064,15.8h.85a.733.733,0,0,1,.725.725v2.6H29.316v-2H28.03a.726.726,0,0,1-.627-1.09l3.642-6.308a.75.75,0,0,1,1.256,0l3.643,6.311a.726.726,0,0,1-.629,1.088H34.03Zm-1.022-.3h.722V16.823l1.585,0a.426.426,0,0,0,.369-.638L32.041,9.872a.451.451,0,0,0-.737,0l-3.642,6.308a.426.426,0,0,0,.368.64l1.586,0v2h.722v-2.3a.432.432,0,0,0-.427-.425l-1.367,0,3.128-5.418L34.8,16.1l-1.376,0a.427.427,0,0,0-.417.425Z" transform="translate(-12.508 -4.343)"/><path class="d" d="M47.378,12.05H46.355V7.016a.576.576,0,0,1,.575-.576l1.109,0-2.869-4.97L42.3,6.439l1.11,0a.577.577,0,0,1,.575.576v4.631H42.964V7.462l-1.437,0a.576.576,0,0,1-.5-.863L44.672.288a.58.58,0,0,1,.5-.288h0a.578.578,0,0,1,.5.287L49.312,6.6a.576.576,0,0,1-.493.864l-1.441,0Z" transform="translate(-18.658 0)"/><path class="d" d="M47.528,12.2H46.205V7.016a.727.727,0,0,1,.725-.726h.849l-2.609-4.52-2.609,4.52h.851a.726.726,0,0,1,.725.726V11.8H42.814V7.612H41.527A.726.726,0,0,1,40.9,6.523L44.542.213a.726.726,0,0,1,1.256,0l3.643,6.31a.726.726,0,0,1-.622,1.089H47.528Zm-1.022-.3h.722V7.312l1.591,0a.426.426,0,0,0,.363-.64L45.539.362a.426.426,0,0,0-.738,0L41.159,6.673a.427.427,0,0,0,0,.423.432.432,0,0,0,.37.215l1.585,0V11.5h.722V7.016a.426.426,0,0,0-.425-.426l-1.37,0,3.129-5.42L48.3,6.588l-1.368,0a.426.426,0,0,0-.426.426Z" transform="translate(-18.658 0)"/><path class="d" d="M1.022,30.423H0a11.91,11.91,0,0,1,11.9-11.9v1.022A10.887,10.887,0,0,0,1.022,30.423" transform="translate(0 -8.44)"/><path class="d" d="M1.172,30.573H-.15v-.15A12.061,12.061,0,0,1,11.9,18.376h.15V19.7H11.9A10.737,10.737,0,0,0,1.172,30.423Zm-1.021-.3H.873A11.038,11.038,0,0,1,11.747,19.4v-.722A11.762,11.762,0,0,0,.151,30.273Z" transform="translate(0 -8.44)"/><path class="d" d="M20.673,19.908l-.723-.723L21.033,18.1,19.8,16.929l.7-.741,1.995,1.9Z" transform="translate(-9.02 -7.376)"/><path class="d" d="M20.673,20.121l-.935-.935,1.08-1.08-1.232-1.171.911-.958,2.215,2.1Zm-.511-.935.511.511,1.609-1.61L20.508,16.4l-.5.524L21.247,18.1Z" transform="translate(-9.02 -7.376)"/></g></g></g></g></svg>