<svg xmlns="http://www.w3.org/2000/svg" xmlns:xlink="http://www.w3.org/1999/xlink" width="60.234" height="60.234" viewBox="0 0 60.234 60.234"><defs><style>.a{fill:none;stroke:#fff;stroke-width:0.3px;}.b{fill:#8fc740;}.c{clip-path:url(#a);}.d{fill:#fff;}</style><clipPath id="a"><rect class="a" width="31.137" height="28.959"/></clipPath></defs><g transform="translate(-851.266)"><path class="b" d="M114.752,230.329H110.2a.9.9,0,0,1-.895-.9v-49.4a1.8,1.8,0,0,0-1.791-1.8h-50.3a1.8,1.8,0,0,0-1.8,1.8v50.294a1.8,1.8,0,0,0,1.8,1.8H106.61a.9.9,0,0,1,.9.9v4.551a.889.889,0,0,0,.891.893h6.348a.9.9,0,0,0,.9-.893v-6.349a.9.9,0,0,0-.9-.9" transform="translate(795.848 -178.236)"/><g transform="translate(862.431 11.502)"><g class="c" transform="translate(0 0)"><path class="d" d="M29.476,31.593H1.662A1.664,1.664,0,0,1,0,29.932V12.077a1.664,1.664,0,0,1,1.662-1.662H14.9v.834H1.662a.829.829,0,0,0-.828.828V29.932a.829.829,0,0,0,.828.828H29.476a.829.829,0,0,0,.828-.828V12.077a.829.829,0,0,0-.828-.828H24.982v-.834h4.494a1.664,1.664,0,0,1,1.662,1.662V29.932a1.664,1.664,0,0,1-1.662,1.662" transform="translate(0 -5.793)"/><path class="d" d="M29.476,31.743H1.662A1.814,1.814,0,0,1-.15,29.932V12.077a1.814,1.814,0,0,1,1.812-1.812H15.047V11.4H1.662a.679.679,0,0,0-.678.678V29.932a.679.679,0,0,0,.678.678H29.476a.679.679,0,0,0,.678-.678V12.077a.679.679,0,0,0-.678-.678H24.832V10.265h4.643a1.814,1.814,0,0,1,1.812,1.812V29.932A1.814,1.814,0,0,1,29.476,31.743ZM1.662,10.565A1.513,1.513,0,0,0,.15,12.077V29.932a1.513,1.513,0,0,0,1.512,1.512H29.476a1.513,1.513,0,0,0,1.512-1.512V12.077a1.513,1.513,0,0,0-1.512-1.512H25.132V11.1h4.344a.979.979,0,0,1,.978.978V29.932a.979.979,0,0,1-.978.978H1.662a.979.979,0,0,1-.978-.978V12.077a.979.979,0,0,1,.978-.978H14.747v-.534Z" transform="translate(0 -5.793)"/><rect class="d" width="0.833" height="2.724" transform="translate(12.162 25.528)"/><path class="d" d="M-.15-.15H.983V2.874H-.15Zm.833.3H.15V2.574H.683Z" transform="translate(12.162 25.528)"/><rect class="d" width="0.833" height="2.724" transform="translate(18.086 25.528)"/><path class="d" d="M-.15-.15H.983V2.874H-.15Zm.833.3H.15V2.574H.683Z" transform="translate(18.086 25.528)"/><rect class="d" width="10.184" height="0.834" transform="translate(10.47 28.126)"/><path class="d" d="M-.15-.15H10.334V.984H-.15Zm10.184.3H.15V.684h9.884Z" transform="translate(10.47 28.126)"/><rect class="d" width="29.676" height="0.834" transform="translate(0.696 21.634)"/><path class="d" d="M-.15-.15H29.826V.984H-.15Zm29.676.3H.15V.684H29.526Z" transform="translate(0.696 21.634)"/><rect class="d" width="0.833" height="13.259" transform="translate(3.439 8.604)"/><path class="d" d="M-.15-.15H.983V13.409H-.15Zm.833.3H.15V13.109H.683Z" transform="translate(3.439 8.604)"/><path class="d" d="M19.035,37.717H18.2V33.091H14.948v4.626h-.833v-5.46h4.92Z" transform="translate(-7.851 -17.941)"/><path class="d" d="M19.185,37.867H18.051V33.241H15.1v4.626H13.965v-5.76h5.22Zm-.833-.3h.533v-5.16h-4.62v5.16H14.8V32.941h3.553Z" transform="translate(-7.851 -17.941)"/><path class="d" d="M32.062,33.948h-.833V26.235H27.976v7.712h-.833V25.4h4.92Z" transform="translate(-15.097 -14.128)"/><path class="d" d="M32.212,34.1H31.079V26.385H28.126V34.1H26.992V25.251h5.22Zm-.833-.3h.533V25.551h-4.62V33.8h.533V26.085h3.553Z" transform="translate(-15.097 -14.128)"/><rect class="d" width="3.434" height="0.834" transform="translate(24.982 10.361)"/><path class="d" d="M-.15-.15H3.584V.984H-.15Zm3.434.3H.15V.684H3.284Z" transform="translate(24.982 10.361)"/><rect class="d" width="3.434" height="0.834" transform="translate(24.982 12.664)"/><path class="d" d="M-.15-.15H3.584V.984H-.15Zm3.434.3H.15V.684H3.284Z" transform="translate(24.982 12.664)"/><rect class="d" width="3.434" height="0.834" transform="translate(24.982 14.838)"/><path class="d" d="M-.15-.15H3.584V.984H-.15Zm3.434.3H.15V.684H3.284Z" transform="translate(24.982 14.838)"/><path class="d" d="M41.942,19.775h-.833V7.4a.486.486,0,0,1,.486-.486l1.425,0L39.7,1.162,36.379,6.913l1.426,0a.486.486,0,0,1,.485.486V19.775h-.833V7.748l-1.68,0a.486.486,0,0,1-.421-.729L39.278.224a.507.507,0,0,1,.843,0l3.921,6.792a.487.487,0,0,1-.421.73l-1.679,0ZM41.6,7.749h0Zm-5.818-.837h0Zm7.843,0h0ZM39.4.641h0Zm.6,0h0Z" transform="translate(-19.629 0)"/><path class="d" d="M42.092,19.925H40.958V7.4a.637.637,0,0,1,.636-.636l1.165,0L39.7,1.462l-3.061,5.3,1.167,0a.636.636,0,0,1,.635.636V19.925H37.307V7.9l-1.53,0a.636.636,0,0,1-.551-.953L39.148.149a.657.657,0,0,1,1.1,0l3.921,6.791a.637.637,0,0,1-.551.955l-1.529,0Zm-.833-.3h.533V7.6l1.829,0a.337.337,0,0,0,.291-.5L39.991.3a.358.358,0,0,0-.583,0L35.486,7.092a.336.336,0,0,0,.291.5l1.83,0V19.625h.533V7.4a.336.336,0,0,0-.335-.336l-1.686,0L39.7.862l3.58,6.2-1.684,0a.336.336,0,0,0-.336.336Z" transform="translate(-19.629 0)"/></g></g></g></svg>