<svg xmlns="http://www.w3.org/2000/svg" xmlns:xlink="http://www.w3.org/1999/xlink" width="60.234" height="60.234" viewBox="0 0 60.234 60.234"><defs><style>.a{fill:none;stroke:#fff;stroke-width:0.3px;}.b{fill:#8fc740;}.c{clip-path:url(#a);}.d{fill:#fff;}</style><clipPath id="a"><rect class="a" width="35.286" height="30.112"/></clipPath></defs><g transform="translate(-851.266)"><path class="b" d="M114.752,230.329H110.2a.9.9,0,0,1-.895-.9v-49.4a1.8,1.8,0,0,0-1.791-1.8h-50.3a1.8,1.8,0,0,0-1.8,1.8v50.294a1.8,1.8,0,0,0,1.8,1.8H106.61a.9.9,0,0,1,.9.9v4.551a.889.889,0,0,0,.891.893h6.348a.9.9,0,0,0,.9-.893v-6.349a.9.9,0,0,0-.9-.9" transform="translate(795.848 -178.236)"/><g transform="translate(860.357 11.994)"><g class="c" transform="translate(0 0)"><path class="d" d="M47.262,13.694a6.847,6.847,0,1,1,6.847-6.847,6.855,6.855,0,0,1-6.847,6.847M47.262.8a6.044,6.044,0,1,0,6.045,6.045A6.051,6.051,0,0,0,47.262.8" transform="translate(-20.984 1.844)"/><path class="d" d="M47.262,13.844a7,7,0,1,1,7-7A7,7,0,0,1,47.262,13.844Zm0-13.694a6.7,6.7,0,1,0,6.7,6.7A6.7,6.7,0,0,0,47.262.15Zm0,12.892a6.194,6.194,0,1,1,6.195-6.194A6.2,6.2,0,0,1,47.262,13.042Zm0-12.089a5.894,5.894,0,1,0,5.895,5.895A5.9,5.9,0,0,0,47.262.953Z" transform="translate(-20.984 1.844)"/><rect class="d" width="0.803" height="2.717" transform="translate(24.55 5.974)"/><path class="d" d="M-.15-.15h1.1V2.867H-.15Zm.8.3H.15V2.567h.5Z" transform="translate(24.55 5.974)"/><rect class="d" width="0.803" height="2.717" transform="translate(27.394 5.974)"/><path class="d" d="M-.15-.15h1.1V2.867H-.15Zm.8.3H.15V2.567h.5Z" transform="translate(27.394 5.974)"/><path class="d" d="M52.259,20.473a3.122,3.122,0,0,1-3.119-3.119h.8a2.316,2.316,0,0,0,4.632,0h.8a3.122,3.122,0,0,1-3.119,3.119" transform="translate(-25.98 -8.094)"/><path class="d" d="M52.259,20.623a3.272,3.272,0,0,1-3.269-3.269V17.2h1.1v.15a2.166,2.166,0,0,0,4.332,0V17.2h1.1v.15A3.272,3.272,0,0,1,52.259,20.623ZM49.294,17.5a2.969,2.969,0,0,0,5.93,0h-.5a2.466,2.466,0,0,1-4.923,0Z" transform="translate(-25.98 -8.094)"/><path class="d" d="M22.12,40.787a3.755,3.755,0,1,1,3.755-3.754,3.759,3.759,0,0,1-3.755,3.754m0-6.706a2.952,2.952,0,1,0,2.952,2.952,2.955,2.955,0,0,0-2.952-2.952" transform="translate(-8.356 -17.214)"/><path class="d" d="M22.12,40.937a3.9,3.9,0,1,1,3.9-3.9A3.909,3.909,0,0,1,22.12,40.937Zm0-7.509a3.6,3.6,0,1,0,3.6,3.6A3.609,3.609,0,0,0,22.12,33.428Zm0,6.706a3.1,3.1,0,1,1,3.1-3.1A3.105,3.105,0,0,1,22.12,40.134Zm0-5.9a2.8,2.8,0,1,0,2.8,2.8A2.805,2.805,0,0,0,22.12,34.231Z" transform="translate(-8.356 -17.214)"/><path class="d" d="M17.275,39.184H14.412l-.482-1.873a6.623,6.623,0,0,1-1.419-.585l-1.639,1.017L8.85,35.72l.98-1.663a6.829,6.829,0,0,1-.59-1.418L7.359,32.2V29.334l1.873-.482a6.645,6.645,0,0,1,.585-1.418L8.8,25.794l2.023-2.023,1.664.98a6.821,6.821,0,0,1,1.417-.59l.442-1.881h2.862l.482,1.873a6.683,6.683,0,0,1,1.423.585l1.639-1.022,2.023,2.023L21.794,27.4a6.8,6.8,0,0,1,.59,1.417l1.881.442v2.863l-1.867.482a6.668,6.668,0,0,1-.586,1.424l1.007,1.639L20.8,37.694l-1.664-.981a6.794,6.794,0,0,1-1.417.59Zm-2.241-.8h1.6l.407-1.733.238-.059a6.007,6.007,0,0,0,1.645-.684l.205-.124,1.536.906L21.8,35.552l-.929-1.511L21,33.832a5.891,5.891,0,0,0,.679-1.648l.057-.233,1.725-.446V29.9l-1.733-.407-.059-.237a6,6,0,0,0-.684-1.646l-.123-.205.906-1.536-1.133-1.133-1.511.943-.211-.127a5.882,5.882,0,0,0-1.647-.679l-.234-.057-.446-1.732h-1.6l-.407,1.733-.237.059a6.018,6.018,0,0,0-1.646.685l-.2.123-1.536-.906L9.817,25.912l.938,1.511-.127.211a5.841,5.841,0,0,0-.679,1.643l-.057.234-1.732.446v1.6l1.734.407.059.238a6,6,0,0,0,.684,1.645l.123.205-.906,1.537,1.133,1.133,1.511-.938.211.127a5.856,5.856,0,0,0,1.643.679l.234.057Z" transform="translate(-2.053 -10.916)"/><path class="d" d="M17.394,39.334H14.3l-.49-1.9a6.787,6.787,0,0,1-1.29-.532L10.85,37.933,8.661,35.744l1-1.69a7,7,0,0,1-.537-1.289l-1.912-.449v-3.1l1.9-.49a6.81,6.81,0,0,1,.532-1.29L8.61,25.773,10.8,23.583l1.691,1a6.987,6.987,0,0,1,1.289-.536l.449-1.912h3.1l.49,1.9a6.85,6.85,0,0,1,1.294.532l1.666-1.038,2.19,2.189-1,1.69A6.968,6.968,0,0,1,22.5,28.7l1.912.449v3.1l-1.9.49a6.83,6.83,0,0,1-.533,1.3l1.024,1.666-2.188,2.188-1.691-1a6.962,6.962,0,0,1-1.289.537Zm-2.866-.3h2.628l.435-1.85.084-.024a6.659,6.659,0,0,0,1.386-.577l.075-.042,1.638.965,1.856-1.856-.991-1.613.042-.077a6.528,6.528,0,0,0,.573-1.392l.023-.083,1.838-.475V29.382l-1.85-.435-.024-.084a6.664,6.664,0,0,0-.577-1.386l-.042-.075.965-1.637L20.73,23.908l-1.613,1.005-.077-.043a6.547,6.547,0,0,0-1.391-.572l-.083-.023-.475-1.844H14.465l-.435,1.851-.084.024a6.683,6.683,0,0,0-1.386.577l-.075.042-1.638-.965L8.99,25.816l1,1.613-.043.077a6.507,6.507,0,0,0-.572,1.386l-.023.083-1.844.475v2.628l1.85.435.024.084a6.693,6.693,0,0,0,.577,1.387l.042.075L9.038,35.7l1.856,1.857,1.613-1,.077.043a6.485,6.485,0,0,0,1.387.572l.083.023Zm2.229-.5h-1.84l-.452-1.757-.146-.036a6,6,0,0,1-1.685-.7l-.132-.08-1.534.953-1.3-1.3.919-1.56-.077-.129a6.152,6.152,0,0,1-.7-1.686l-.037-.149-1.76-.413V29.84l1.757-.452.036-.146a5.989,5.989,0,0,1,.7-1.685l.08-.132L9.627,25.89l1.3-1.3,1.559.919.128-.077a6.168,6.168,0,0,1,1.687-.7l.149-.037.413-1.76H16.7l.452,1.757.147.036a6.033,6.033,0,0,1,1.689.7l.132.079,1.534-.957,1.3,1.3L21.037,27.4l.077.129a6.155,6.155,0,0,1,.7,1.687l.037.148,1.76.414v1.84l-1.751.453-.036.146a6.042,6.042,0,0,1-.7,1.69l-.079.131.943,1.535-1.3,1.3-1.559-.919-.129.078a6.158,6.158,0,0,1-1.686.7l-.149.037Zm-1.607-.3h1.37l.4-1.707.327-.081a5.857,5.857,0,0,0,1.6-.667l.282-.17,1.513.892.968-.968L20.7,34.042l.173-.288a5.742,5.742,0,0,0,.662-1.606l.078-.321,1.7-.44v-1.37l-1.706-.4-.082-.325a5.856,5.856,0,0,0-.667-1.6l-.17-.282.892-1.513-.966-.966-1.488.928-.29-.174a5.733,5.733,0,0,0-1.606-.661l-.322-.078-.439-1.706H15.1l-.4,1.707-.326.081a5.867,5.867,0,0,0-1.6.667l-.281.17-1.513-.892-.967.967.924,1.488-.175.289a5.689,5.689,0,0,0-.661,1.6l-.078.321-1.706.439v1.369l1.707.4.081.327a5.853,5.853,0,0,0,.667,1.6l.17.282-.892,1.514.967.967,1.488-.924.289.175a5.7,5.7,0,0,0,1.6.661l.321.078Z" transform="translate(-2.053 -10.916)"/><path class="d" d="M.8,22.041H0a10.732,10.732,0,0,1,10.72-10.72v.8A9.928,9.928,0,0,0,.8,22.041" transform="translate(2.161 -4.639)"/><path class="d" d="M.953,22.191H-.15v-.15a10.882,10.882,0,0,1,10.87-10.87h.15v1.1h-.15A9.778,9.778,0,0,0,.953,22.041Zm-.8-.3h.5a10.08,10.08,0,0,1,9.916-9.916v-.5A10.583,10.583,0,0,0,.151,21.891Z" transform="translate(2.161 -4.639)"/><path class="d" d="M22.6,11.336l-.567-.567,1.855-1.855L21.805,6.931l.553-.582L25.041,8.9Z" transform="translate(-10.326 -1.792)"/><path class="d" d="M22.6,11.548l-.78-.78,1.852-1.852-2.083-1.98.76-.8,2.9,2.758Zm-.355-.78.355.355L24.826,8.9l-2.462-2.34-.346.364,2.089,1.985Z" transform="translate(-10.326 -1.792)"/></g></g></g></svg>