<svg xmlns="http://www.w3.org/2000/svg" width="111" height="111" viewBox="0 0 111 111">
  <g id="Group_1491" data-name="Group 1491" transform="translate(0 -1069)">
    <path id="Path_273" data-name="Path 273" d="M164.758,274.233h-8.39a1.65,1.65,0,0,1-1.649-1.65V181.55a3.311,3.311,0,0,0-3.3-3.314H58.73a3.318,3.318,0,0,0-3.312,3.314v92.683a3.316,3.316,0,0,0,3.312,3.314h91.024a1.655,1.655,0,0,1,1.663,1.657v8.386a1.639,1.639,0,0,0,1.642,1.646h11.7a1.649,1.649,0,0,0,1.66-1.646v-11.7a1.659,1.659,0,0,0-1.66-1.657" transform="translate(-55.418 890.764)" fill="#758cc5"/>
    <g id="RICOH_managed_services_001" data-name="RICOH_managed services_001" transform="translate(21.081 1089.371)">
      <circle id="Ellipse_4" data-name="Ellipse 4" cx="11.814" cy="11.814" r="11.814" transform="translate(16.549 16.549)" fill="none" stroke="#fff" stroke-miterlimit="10" stroke-width="2"/>
      <path id="Path_994" data-name="Path 994" d="M169.724,141.672v-7.86l-6.357-1.49a22.119,22.119,0,0,0-2.584-6.177l3.317-5.636-5.552-5.564L153,118.381a22.412,22.412,0,0,0-6.189-2.548l-1.634-6.333h-7.86l-1.49,6.357a22.118,22.118,0,0,0-6.177,2.584l-5.636-3.317-5.564,5.564,3.437,5.552a22.261,22.261,0,0,0-2.548,6.189L113,134.053v7.86l6.357,1.49a22.453,22.453,0,0,0,2.572,6.177l-3.317,5.636L124,160.6a18.584,18.584,0,0,1,3.341-4.855,19.238,19.238,0,0,1,28.026,0A19.4,19.4,0,0,1,158.7,160.6h.012l5.564-5.564-3.449-5.528a22.412,22.412,0,0,0,2.548-6.189Z" transform="translate(-113 -109.5)" fill="none" stroke="#fff" stroke-miterlimit="10" stroke-width="2" fill-rule="evenodd"/>
      <path id="Path_995" data-name="Path 995" d="M227.305,463.241H188.8a19.124,19.124,0,0,1,1.887-8.328,18.583,18.583,0,0,1,3.341-4.855,19.238,19.238,0,0,1,28.026,0,19.4,19.4,0,0,1,3.341,4.855,18.317,18.317,0,0,1,1.082,2.764A18.892,18.892,0,0,1,227.305,463.241Z" transform="translate(-179.69 -403.8)" fill="none" stroke="#fff" stroke-linecap="round" stroke-linejoin="round" stroke-miterlimit="10" stroke-width="2"/>
    </g>
  </g>
</svg>
