<svg xmlns="http://www.w3.org/2000/svg" xmlns:xlink="http://www.w3.org/1999/xlink" width="172.754" height="172.754" viewBox="0 0 172.754 172.754"><defs><style>.a{fill:#fff;}.b{fill:#00328f;}.c{clip-path:url(#a);}</style><clipPath id="a"><rect class="a" width="100.602" height="100.611"/></clipPath></defs><g transform="translate(1.5 1.5)"><path class="b" d="M222.634,325.045H209.8a2.524,2.524,0,0,1-2.522-2.523V183.3a5.064,5.064,0,0,0-5.049-5.068H60.483a5.075,5.075,0,0,0-5.065,5.068V325.045a5.071,5.071,0,0,0,5.065,5.068h139.2a2.531,2.531,0,0,1,2.544,2.534v12.826a2.506,2.506,0,0,0,2.51,2.518h17.891a2.523,2.523,0,0,0,2.538-2.518V327.579a2.537,2.537,0,0,0-2.538-2.534" transform="translate(-55.418 -178.236)"/><path class="b" d="M222.634,349.49H204.743a4.006,4.006,0,0,1-4.01-4.018V332.647a1.028,1.028,0,0,0-1.044-1.034H60.483a6.574,6.574,0,0,1-6.565-6.568V183.3a6.574,6.574,0,0,1,6.565-6.568H202.232a6.566,6.566,0,0,1,6.549,6.568V322.522a1.023,1.023,0,0,0,1.022,1.023h12.831a4.041,4.041,0,0,1,4.038,4.034v17.894A4.033,4.033,0,0,1,222.634,349.49ZM60.483,179.736a3.571,3.571,0,0,0-3.565,3.568V325.045a3.571,3.571,0,0,0,3.565,3.568h139.2a4.031,4.031,0,0,1,4.044,4.034v12.826a1,1,0,0,0,1.01,1.018h17.891a1.017,1.017,0,0,0,1.038-1.018V327.579a1.037,1.037,0,0,0-1.038-1.034H209.8a4.027,4.027,0,0,1-4.022-4.023V183.3a3.562,3.562,0,0,0-3.549-3.568Z" transform="translate(-55.418 -178.236)"/><g transform="translate(24.516 21.983)"><g transform="translate(2.977 2.971)"><g class="c"><path class="a" d="M396.6,157.248a.786.786,0,0,0-1.528.369,48.984,48.984,0,0,1-3.052,31.858.789.789,0,0,0,1.436.655,50.56,50.56,0,0,0,3.143-32.882" transform="translate(-297.413 -118.866)"/><path class="a" d="M309.888,374.985a36.87,36.87,0,0,1-3.536,2.18.786.786,0,1,0,.743,1.386,38.572,38.572,0,0,0,3.687-2.274l.03-.021a.786.786,0,0,0-.925-1.271" transform="translate(-232.142 -284.429)"/><path class="a" d="M110.62,362.665A48.561,48.561,0,0,1,62.9,352H73.595a.786.786,0,0,0,0-1.572H61.06a.779.779,0,0,0-.893.88v12.548a.786.786,0,1,0,1.572,0V353.062a50.153,50.153,0,0,0,49.353,11.1.786.786,0,1,0-.472-1.5" transform="translate(-45.65 -265.903)"/><path class="a" d="M358.137,332.52a.786.786,0,0,0-1.1.159,37.01,37.01,0,0,1-2.966,3.424.784.784,0,1,0,1.132,1.086,38.68,38.68,0,0,0,3.091-3.568l0,0a.786.786,0,0,0-.159-1.1" transform="translate(-268.504 -252.201)"/><path class="a" d="M85.891,15.853a.781.781,0,0,0,.212-.636V2.656a.786.786,0,1,0-1.572,0v10.8A50.288,50.288,0,0,0,.887,59.645a.786.786,0,0,0,.77.641.764.764,0,0,0,.144-.014h0a.786.786,0,0,0,.627-.917A48.717,48.717,0,0,1,83.362,14.512H72.675a.786.786,0,1,0,0,1.572H85.228a.782.782,0,0,0,.663-.231" transform="translate(0 0)"/><path class="a" d="M103.8,70.475a33.305,33.305,0,1,0,33.307,33.305v0a33.305,33.305,0,0,0-33.307-33.3m31.638,33.309a31.636,31.636,0,1,1-31.635-31.638,31.636,31.636,0,0,1,31.635,31.638Z" transform="translate(-53.518 -53.475)"/><path class="a" d="M163.93,164.419c-.31.223-.623.437-.933.636l-4.906,3.17-4.986-3.191a20.618,20.618,0,0,1-9.548-17.444l-.011-12.833a54.408,54.408,0,0,0,14.476-5.629,54.945,54.945,0,0,0,5.506,2.707.784.784,0,0,0,.611-1.444,53.329,53.329,0,0,1-5.348-2.63,1.56,1.56,0,0,0-1.521,0,53.164,53.164,0,0,1-14.08,5.468,1.545,1.545,0,0,0-1.2,1.508v12.852a22.178,22.178,0,0,0,10.271,18.764l4.988,3.192a1.554,1.554,0,0,0,1.671,0l4.927-3.17c.333-.214.67-.444,1-.684a.784.784,0,0,0-.917-1.271" transform="translate(-107.742 -96.798)"/><path class="a" d="M251.252,146.7c-1.614-.375-3.222-.828-4.78-1.346a.784.784,0,0,0-.5,1.488,50.16,50.16,0,0,0,4.909,1.367v12.9a20.615,20.615,0,0,1-5.394,13.95.784.784,0,1,0,1.157,1.058,22.181,22.181,0,0,0,5.805-15.008V148.2a1.546,1.546,0,0,0-1.2-1.509" transform="translate(-186.126 -110.263)"/><path class="a" d="M187.544,165.5H177.285v-3a4.448,4.448,0,0,1,8.9,0,.784.784,0,1,0,1.568,0,6.015,6.015,0,0,0-12.031,0v3.006a2.7,2.7,0,0,0-2.491,2.685v2.78a.784.784,0,0,0,1.568,0V168.2a1.129,1.129,0,0,1,1.127-1.127h11.623a1.129,1.129,0,0,1,1.127,1.127v9.822a1.128,1.128,0,0,1-1.127,1.127H175.921a1.128,1.128,0,0,1-1.127-1.127v-2.78a.784.784,0,1,0-1.568,0v2.78a2.7,2.7,0,0,0,2.7,2.7h11.623a2.7,2.7,0,0,0,2.7-2.7V168.2a2.7,2.7,0,0,0-2.7-2.7" transform="translate(-131.446 -118.748)"/><path class="a" d="M200.217,221.107a.784.784,0,0,0,.784-.784v-.914a2.631,2.631,0,1,0-1.568,0v.914a.784.784,0,0,0,.784.784m0-5.274a1.064,1.064,0,1,1-1.064,1.064,1.065,1.065,0,0,1,1.064-1.064" transform="translate(-149.931 -162.588)"/></g></g></g></g></svg>