<svg xmlns="http://www.w3.org/2000/svg" xmlns:xlink="http://www.w3.org/1999/xlink" width="60.23" height="60.23" viewBox="0 0 60.23 60.23"><defs><style>.a{clip-path:url(#b);}.b{fill:#0f7ac9;}.c{fill:#fff;}</style><clipPath id="b"><rect width="60.23" height="60.23"/></clipPath></defs><g id="a" class="a"><g transform="translate(0.281 0.234)"><path class="b" d="M114.29,229.923h-4.518a.888.888,0,0,1-.888-.888V180.02a1.783,1.783,0,0,0-1.778-1.784H57.2a1.787,1.787,0,0,0-1.783,1.784v49.9a1.785,1.785,0,0,0,1.783,1.784h49.01a.891.891,0,0,1,.9.892v4.516a.882.882,0,0,0,.884.886h6.3a.888.888,0,0,0,.894-.886v-6.3a.893.893,0,0,0-.894-.892" transform="translate(-55.418 -178.236)"/><g transform="translate(8.467 8.943)"><path class="c" d="M-1-1H21.874V21.874H-1ZM19.874,1H1V19.874H19.874Z" transform="translate(0 15.055)"/><path class="c" d="M.707,8.292-.707,6.878,6.878-.707,8.292.707Z" transform="translate(23.073 5.196)"/><path class="c" d="M446.557,111.429h-2V106.6H439.6v-2h6.957Z" transform="translate(-414.899 -100.404)"/><path class="c" d="M-22.66,2145.623h-2.749v-2h.749v-.251h2Zm-5.749,0h-3v-2h3Zm-6,0h-3v-2h3Zm11.749-5.251h-2v-3h2Zm0-6h-2v-3h2Zm0-6h-2v-3h2Zm0-6h-2v-3h2Zm-35.929-.287h-2v-3h2Zm35.929-5.713h-2v-3h2Zm-35.929-.287h-2v-3h2Zm35.929-5.713h-2v-.679h-.321v-2h2.321Zm-35.929-.287h-2v-2.392h2.608v2h-.608Zm30.608-.392h-3v-2h3Zm-6,0h-3v-2h3Zm-6,0h-3v-2h3Zm-6,0h-3v-2h3Zm-6,0h-3v-2h3Z" transform="translate(59.589 -2108.693)"/></g></g></g></svg>