<svg xmlns="http://www.w3.org/2000/svg" xmlns:xlink="http://www.w3.org/1999/xlink" width="60.23" height="60.23" viewBox="0 0 60.23 60.23"><defs><style>.a{clip-path:url(#b);}.b{fill:#0f7ac9;}.c{fill:#fff;}</style><clipPath id="b"><rect width="60.23" height="60.23"/></clipPath></defs><g id="a" class="a"><g transform="translate(-851.266 -2563.766)"><path class="b" d="M114.521,230.126h-4.535a.892.892,0,0,1-.891-.892V180.027a1.79,1.79,0,0,0-1.784-1.791h-50.1a1.794,1.794,0,0,0-1.79,1.791v50.1a1.792,1.792,0,0,0,1.79,1.791h49.2a.894.894,0,0,1,.9.9v4.533a.886.886,0,0,0,.887.89h6.324a.892.892,0,0,0,.9-.89v-6.325a.9.9,0,0,0-.9-.9" transform="translate(795.848 2385.53)"/><g transform="translate(858.183 2573.758)"><g transform="translate(0 0)"><path class="c" d="M6.571,102.458l-4.807-1.7.667-1.885L5.41,99.926l4.982-12.8L1.716,83.55,2.479,81.7l10.489,4.327Z" transform="translate(-2.097 -74.217)"/><path class="c" d="M173.015,31.017,160.829,18.242,172.383,7.308l1.375,1.453-10.1,9.554,9.463,9.92,2.354-2.109,1.335,1.489Z" transform="translate(-136.768 -8.034)"/><path class="c" d="M57.478,161.376a2.707,2.707,0,0,1,2.277,4.168l-3.48,5.427a2.707,2.707,0,1,1-4.557-2.922l3.48-5.427A2.7,2.7,0,0,1,57.478,161.376Zm-3.483,8.841a.705.705,0,0,0,.6-.326l3.48-5.427a.707.707,0,1,0-1.19-.763l-3.48,5.427a.707.707,0,0,0,.594,1.089Z" transform="translate(-44.304 -141.28)"/><path class="c" d="M77.19,112.764a2.706,2.706,0,0,1-1.114-5.175l5.1-2.291a5.435,5.435,0,0,1,1.463-.381c.086,0,.165,0,.239.01l9.17.782-.17,1.993-9.186-.784c-.005,0-.021,0-.053,0A.692.692,0,0,0,82.3,107l-.094.051-.1.03a.847.847,0,0,0-.113.04l-5.1,2.291a.707.707,0,1,0,.58,1.289l.035-.016,5.973-2.146.676,1.882-5.9,2.121A2.693,2.693,0,0,1,77.19,112.764Z" transform="translate(-63.804 -93.803)"/><path class="c" d="M136.357,223.715a2.691,2.691,0,0,1-1.457-.427l-1.595-1.023,1.08-1.684,1.595,1.022a.707.707,0,0,0,.763-1.19l-1.56-1,1.08-1.684,1.56,1a2.706,2.706,0,0,1-1.466,4.985Z" transform="translate(-112.886 -188.536)"/><path class="c" d="M154.46,205.285a2.69,2.69,0,0,1-1.457-.428l-1.594-1.022,1.079-1.684,1.595,1.022a.707.707,0,0,0,.77-1.186l-2.95-1.8,1.044-1.706,2.979,1.823a2.706,2.706,0,0,1-1.466,4.985Z" transform="translate(-128.108 -172.356)"/><path class="c" d="M163.139,184.11a2.688,2.688,0,0,1-1.456-.429l-1.594-1.022,1.08-1.684L162.763,182a.707.707,0,0,0,.771-1.185l-4.969-3.027,1.04-1.708,5,3.046a2.707,2.707,0,0,1-.883,4.923A2.732,2.732,0,0,1,163.139,184.11Z" transform="translate(-134.11 -153.52)"/><path class="c" d="M134.829,139.786a2.689,2.689,0,0,1-1.456-.429l-1.594-1.023,1.08-1.684,1.594,1.022a.707.707,0,0,0,.765-1.189l-13.11-8.308,1.071-1.689L136.3,134.8a2.709,2.709,0,0,1-1.467,4.987Z" transform="translate(-103.465 -111.81)"/><path class="c" d="M75.464,179.182a2.707,2.707,0,0,1,2.277,4.168l-2.758,4.3a2.707,2.707,0,0,1-4.558-2.922l2.758-4.3A2.7,2.7,0,0,1,75.464,179.182ZM72.7,186.9a.706.706,0,0,0,.6-.326l2.758-4.3a.707.707,0,1,0-1.19-.763l-2.758,4.3A.707.707,0,0,0,72.7,186.9Z" transform="translate(-60.036 -156.253)"/><path class="c" d="M94.117,198.271a2.707,2.707,0,0,1,2.277,4.168l-1.748,2.727a2.707,2.707,0,0,1-4.558-2.922l1.749-2.727A2.7,2.7,0,0,1,94.117,198.271Zm-1.752,6.141a.706.706,0,0,0,.6-.326l1.748-2.727a.707.707,0,1,0-1.19-.763l-1.749,2.727a.707.707,0,0,0,.594,1.089Z" transform="translate(-76.57 -172.305)"/><path class="c" d="M111.907,214.851a2.707,2.707,0,0,1,2.277,4.168l-1.235,1.926a2.707,2.707,0,1,1-4.557-2.922l1.235-1.926A2.7,2.7,0,0,1,111.907,214.851Zm-1.238,5.341a.705.705,0,0,0,.6-.325l1.235-1.927a.707.707,0,1,0-1.19-.763l-1.235,1.927a.707.707,0,0,0,.594,1.089Z" transform="translate(-91.962 -186.248)"/><path class="c" d="M2.9,2.754-.486.874.486-.874,3.869,1.005Z" transform="translate(5.57 24.34)"/><path class="c" d="M5.855,1.4-.067,1,.067-1,5.99-.6Z" transform="translate(9.268 13.17)"/><path class="c" d="M.725,3.726-.725,2.348,2.163-.689,3.613.689Z" transform="translate(31.632 20.073)"/></g></g></g></g></svg>