<svg xmlns="http://www.w3.org/2000/svg" xmlns:xlink="http://www.w3.org/1999/xlink" width="60.23" height="60.23" viewBox="0 0 60.23 60.23"><defs><style>.a{clip-path:url(#b);}.b{fill:#0f7ac9;}.c{fill:#fff;}</style><clipPath id="b"><rect width="60.23" height="60.23"/></clipPath></defs><g id="a" class="a"><g transform="translate(-0.25 -1068.898)"><path class="b" d="M114.751,230.329H110.2a.9.9,0,0,1-.895-.9v-49.4a1.8,1.8,0,0,0-1.791-1.8h-50.3a1.8,1.8,0,0,0-1.8,1.8v50.294a1.8,1.8,0,0,0,1.8,1.8H106.61a.9.9,0,0,1,.9.9v4.551a.889.889,0,0,0,.891.893h6.348a.9.9,0,0,0,.9-.893v-6.349a.9.9,0,0,0-.9-.9" transform="translate(-55.168 890.663)"/><g transform="translate(12.745 1077.934)"><path class="c" d="M410.778,1206.8h-2.841a.537.537,0,0,0,0,1.073h2.841a.507.507,0,0,0,.537-.537A.572.572,0,0,0,410.778,1206.8Z" transform="translate(-395.182 -1180.011)"/><path class="c" d="M12.924,1H0V-1H12.924Z" transform="translate(7.332 33.784)"/><g transform="translate(0 0)"><g transform="translate(0)"><path class="c" d="M161.559,47.108l-1.054-.184a1.988,1.988,0,0,0-.33-.029h-3.918V42.543a7.183,7.183,0,0,0-2.27-5.056,7.763,7.763,0,0,0-10.614,0,7.183,7.183,0,0,0-2.27,5.056V46.9H137a1.243,1.243,0,0,0-.173.012l-1.025.144v-4.52a12.279,12.279,0,0,1,3.782-8.869,13.135,13.135,0,0,1,18.2,0,12.279,12.279,0,0,1,3.782,8.869Zm-3.5-2.013h1.7V42.532a11.085,11.085,0,0,0-22.159,0V45.1h1.7V42.511a8.97,8.97,0,0,1,2.831-6.33,9.563,9.563,0,0,1,13.092,0,8.971,8.971,0,0,1,2.831,6.33V45.1Z" transform="translate(-134.421 -30.902)"/><path class="c" d="M96.245,315.5H119.3a3.724,3.724,0,0,1,.634.056,3.513,3.513,0,0,1,2.923,3.434v12.683a3.526,3.526,0,0,1-3.553,3.486H96.256a3.53,3.53,0,0,1-3.556-3.484V318.991a3.517,3.517,0,0,1,3.124-3.464,4.049,4.049,0,0,1,.414-.027ZM119.3,333.358a1.724,1.724,0,0,0,1.756-1.686V318.991a1.714,1.714,0,0,0-1.438-1.663,1.9,1.9,0,0,0-.322-.029H96.258c-.074,0-.149.006-.222.015a1.715,1.715,0,0,0-1.536,1.676v12.682a1.727,1.727,0,0,0,1.756,1.686Z" transform="translate(-93.6 -300.474)"/><path class="c" d="M304.359,395.41h-1.45a1.946,1.946,0,0,1-1.947-1.948v-3.772a3.765,3.765,0,1,1,5.343.076v3.7a1.946,1.946,0,0,1-1.946,1.947Zm-.688-10.3a1.965,1.965,0,0,0-1.241,3.489l.361.294-.032.465,0,.031v4.074a.148.148,0,0,0,.043.1.145.145,0,0,0,.1.043h1.451a.146.146,0,0,0,.146-.146v-3.726l-.472-.473.824-.623a1.965,1.965,0,0,0-1.15-3.533Z" transform="translate(-289.495 -364.689)"/></g></g></g></g></g></svg>