<svg xmlns="http://www.w3.org/2000/svg" width="60.234" height="60.234" viewBox="0 0 60.234 60.234">
  <g id="Icon_notification" transform="translate(-851.266)">
    <path id="Path_1004" data-name="Path 1004" d="M114.752,230.329H110.2a.9.9,0,0,1-.895-.9v-49.4a1.8,1.8,0,0,0-1.791-1.8h-50.3a1.8,1.8,0,0,0-1.8,1.8v50.294a1.8,1.8,0,0,0,1.8,1.8H106.61a.9.9,0,0,1,.9.9v4.551a.889.889,0,0,0,.891.893h6.348a.9.9,0,0,0,.9-.893v-6.349a.9.9,0,0,0-.9-.9" transform="translate(795.848 -178.236)" fill="#8fc740"></path>
    <g id="Group_2131" data-name="Group 2131" transform="translate(861.701 8.851)">
      <g id="Group_2133" data-name="Group 2133" transform="translate(1.137 0.534)">
        <path id="Path_1539" data-name="Path 1539" d="M10.658,51.048C13.8,47.27,16.007,41.9,16.007,37.329q0-1.547-.017-3.095a10,10,0,0,1,20-.2q.02,1.832.022,3.664c0,4.449,2.578,10.309,4.97,13.35Z" transform="translate(-10.658 -21.375)" fill="none" stroke="#fff" stroke-miterlimit="10" stroke-width="2"></path>
        <path id="Path_1540" data-name="Path 1540" d="M95.736,209.8a4.009,4.009,0,0,1-7.938,0Z" transform="translate(-76.621 -180.127)" fill="none" stroke="#fff" stroke-miterlimit="10" stroke-width="2"></path>
        <path id="Path_1541" data-name="Path 1541" d="M106.479,6.8V7.908a9.913,9.913,0,0,0-1.63-.133,10.03,10.03,0,0,0-1.97.194V6.8a1.8,1.8,0,1,1,3.6,0Z" transform="translate(-89.517 -5)" fill="none" stroke="#fff" stroke-miterlimit="10" stroke-width="2"></path>
        <path id="Path_1542" data-name="Path 1542" d="M180.758,21.08a10.263,10.263,0,0,1,4.665,9.658" transform="translate(-156.113 -18.75)" fill="none" stroke="#fff" stroke-miterlimit="10" stroke-width="2"></path>
        <path id="Path_1543" data-name="Path 1543" d="M25.328,21.08a10.263,10.263,0,0,0-4.665,9.658" transform="translate(-19.18 -18.75)" fill="none" stroke="#fff" stroke-miterlimit="10" stroke-width="2"></path>
      </g>
    </g>
  </g>
</svg>
