<svg xmlns="http://www.w3.org/2000/svg" xmlns:xlink="http://www.w3.org/1999/xlink" width="219.523" height="52.75" viewBox="0 0 219.523 52.75"><defs><clipPath id="a"><rect width="219.523" height="52.75" fill="none"/></clipPath></defs><g clip-path="url(#a)"><path d="M212.832,0H6.692A6.7,6.7,0,0,0,0,6.692v36.1a6.7,6.7,0,0,0,6.692,6.692H39.074V47.91H6.692a5.127,5.127,0,0,1-5.121-5.121V6.692A5.127,5.127,0,0,1,6.692,1.571h206.14a5.127,5.127,0,0,1,5.121,5.121v36.1a5.127,5.127,0,0,1-5.121,5.121H180.449v1.571h32.383a6.7,6.7,0,0,0,6.692-6.692V6.692A6.7,6.7,0,0,0,212.832,0" fill="#fff"/><path d="M118.971,113.023h4.571v1.3H120.62v2.026h2.78v1.3h-2.78v3.6h-1.649Z" transform="translate(-72.25 -68.638)" fill="#fff"/><path d="M138.18,112.664c2.58,0,4.029,1.743,4.029,4.229s-1.426,4.277-4.029,4.277c-2.639,0-4.029-1.755-4.029-4.277s1.414-4.229,4.029-4.229m0,7.21c1.685,0,2.309-1.5,2.309-2.981,0-1.449-.672-2.934-2.309-2.934s-2.309,1.484-2.309,2.934c0,1.484.625,2.981,2.309,2.981" transform="translate(-81.469 -68.42)" fill="#fff"/><path d="M159.351,113.024h1.779c1.767,0,3.876-.059,3.876,2.226a1.882,1.882,0,0,1-1.7,1.909v.023c.448.035.707.483.872.849l1.319,3.216h-1.838l-.989-2.568c-.236-.613-.448-.848-1.143-.848H161v3.416h-1.649ZM161,116.535h.542c.813,0,1.743-.118,1.743-1.143,0-.99-.919-1.072-1.743-1.072H161Z" transform="translate(-96.773 -68.638)" fill="#fff"/><path d="M176.57,113.023H178.3l1.532,6.574h.023l1.4-6.574H183.5l1.449,6.574h.024l1.543-6.574h1.6l-2.144,8.223h-2.12l-1.484-6.574h-.024l-1.461,6.574H178.75Z" transform="translate(-107.23 -68.638)" fill="#fff"/><path d="M209.835,113.023H211.7l3.228,8.223H213.1l-.707-1.885h-3.334l-.719,1.885h-1.708Zm.907,1.649h-.024l-1.19,3.393h2.4Z" transform="translate(-125.485 -68.638)" fill="#fff"/><path d="M231.291,113.024h1.779c1.767,0,3.876-.059,3.876,2.226a1.882,1.882,0,0,1-1.7,1.909v.023c.448.035.707.483.872.849l1.319,3.216H235.6l-.989-2.568c-.236-.613-.448-.848-1.143-.848h-.531v3.416h-1.649Zm1.649,3.511h.542c.813,0,1.743-.118,1.743-1.143,0-.99-.919-1.072-1.743-1.072h-.542Z" transform="translate(-140.461 -68.638)" fill="#fff"/><path d="M251.181,113.023h2.25c2.521,0,4.748.849,4.748,4.112s-2.227,4.112-4.748,4.112h-2.25Zm1.649,6.927h.919a2.818,2.818,0,0,0,0-5.631h-.919Z" transform="translate(-152.54 -68.638)" fill="#fff"/><path d="M283.746,114.319h-2.356v-1.3h6.361v1.3H285.4v6.927h-1.649Z" transform="translate(-170.886 -68.638)" fill="#fff"/><path d="M304.469,112.664c2.58,0,4.029,1.743,4.029,4.229s-1.426,4.277-4.029,4.277c-2.639,0-4.029-1.755-4.029-4.277s1.414-4.229,4.029-4.229m0,7.21c1.685,0,2.309-1.5,2.309-2.981,0-1.449-.672-2.934-2.309-2.934s-2.309,1.484-2.309,2.934c0,1.484.625,2.981,2.309,2.981" transform="translate(-182.455 -68.42)" fill="#fff"/><path d="M331.8,114.4a5.382,5.382,0,0,0-2.121-.436,2.8,2.8,0,0,0-2.981,2.98,2.709,2.709,0,0,0,2.792,2.934,4.441,4.441,0,0,0,1.084-.118v-2.144h-1.744v-1.3h3.322v4.429a10.369,10.369,0,0,1-2.662.424c-2.663,0-4.512-1.332-4.512-4.112,0-2.816,1.72-4.394,4.512-4.394a8.118,8.118,0,0,1,2.415.342Z" transform="translate(-197.359 -68.42)" fill="#fff"/><path d="M348.859,113.023h4.853v1.3h-3.2v2.026h2.934v1.3h-2.934v2.309h3.228v1.3h-4.877Z" transform="translate(-211.86 -68.638)" fill="#fff"/><path d="M366.906,114.319H364.55v-1.3h6.361v1.3h-2.356v6.927h-1.649Z" transform="translate(-221.388 -68.638)" fill="#fff"/><path d="M384.619,113.023h1.649v3.322h3.3v-3.322h1.649v8.223h-1.649v-3.6h-3.3v3.6h-1.649Z" transform="translate(-233.576 -68.638)" fill="#fff"/><path d="M407.478,113.023h4.854v1.3h-3.2v2.026h2.934v1.3h-2.934v2.309h3.228v1.3h-4.877Z" transform="translate(-247.459 -68.638)" fill="#fff"/><path d="M425,113.024h1.779c1.767,0,3.876-.059,3.876,2.226a1.882,1.882,0,0,1-1.7,1.909v.023c.448.035.707.483.872.849l1.319,3.216h-1.838l-.989-2.568c-.236-.613-.448-.848-1.143-.848h-.531v3.416H425Zm1.649,3.511h.542c.813,0,1.743-.118,1.743-1.143,0-.99-.919-1.072-1.743-1.072h-.542Z" transform="translate(-258.099 -68.638)" fill="#fff"/><path d="M104.16,49c0,2.7,2,4.7,5.35,4.7a9.4,9.4,0,0,0,4.119-.864l1.255,1.706a11.719,11.719,0,0,1-5.961,1.4c-5.34,0-9.266-2.573-9.266-6.939v0c0-4.366,3.925-6.936,9.266-6.936a13.118,13.118,0,0,1,5.835,1.146l-1.284,1.964a7.786,7.786,0,0,0-3.965-.874c-3.348,0-5.35,1.994-5.35,4.7" transform="translate(-60.522 -25.546)" fill="#fff"/><path d="M149.243,53.777c-2.843,0-4.413-2.136-4.413-4.783s1.57-4.783,4.413-4.783,4.416,2.138,4.416,4.783-1.572,4.783-4.416,4.783m0-11.722c-5.17,0-8.9,2.575-8.9,6.941s3.728,6.94,8.9,6.94,8.9-2.572,8.9-6.94-3.729-6.941-8.9-6.941" transform="translate(-85.23 -25.54)" fill="#fff"/><path d="M203.2,50.54v5.585h4.273V42.943H203.2v5.028h-6.531V42.943h-4.263V56.124h4.263V50.54Z" transform="translate(-116.847 -26.079)" fill="#fff"/><rect width="4.5" height="13.181" transform="translate(32.061 16.864)" fill="#fff"/><path d="M40.354,48.5v1.26a33.637,33.637,0,0,1,5.853,5.887h5.037a32.262,32.262,0,0,0-6.421-5.736c2.325-.1,4.914-1.037,4.914-3.705,0-3.421-3.658-4.05-7.356-4.05-3.021,0-5.8.139-7.476.276V55.645h4.2V44.42a26.323,26.323,0,0,1,3.292-.178c2.163,0,3.259.715,3.259,1.961,0,1.065-.454,2.341-5.3,2.294" transform="translate(-21.198 -25.6)" fill="#fff"/><path d="M259.55,55.683a.786.786,0,0,1-.785-.785V41.657a.785.785,0,1,1,1.571,0V54.9a.786.786,0,0,1-.785.785" transform="translate(-157.146 -24.821)" fill="#fff"/><path d="M358.535,47.977a5.034,5.034,0,0,0-1.751-.781,8.5,8.5,0,0,0-1.975-.233h-3.484v9.549h3.589a6.951,6.951,0,0,0,1.927-.275,5.126,5.126,0,0,0,1.716-.862,4.392,4.392,0,0,0,1.23-1.5,4.719,4.719,0,0,0,.467-2.165,4.931,4.931,0,0,0-.473-2.264,4.048,4.048,0,0,0-1.246-1.469m-.849,3.733a2.863,2.863,0,0,1-.245,1.255,2.153,2.153,0,0,1-.65.8,2.664,2.664,0,0,1-.948.436,4.762,4.762,0,0,1-1.139.135h-.954V49.109h1.007a4.712,4.712,0,0,1,1.1.128,2.643,2.643,0,0,1,.935.423,2.106,2.106,0,0,1,.65.788,2.858,2.858,0,0,1,.245,1.261" transform="translate(-213.357 -28.52)" fill="#fff"/><path d="M382.535,52.8a3.944,3.944,0,0,0-1.307-.773,4.842,4.842,0,0,0-3.172,0,3.84,3.84,0,0,0-1.307.773,3.669,3.669,0,0,0-.884,1.233,3.947,3.947,0,0,0-.327,1.634,4,4,0,0,0,.327,1.642,3.731,3.731,0,0,0,.884,1.248,3.975,3.975,0,0,0,1.307.795,4.594,4.594,0,0,0,3.172,0,4.087,4.087,0,0,0,1.307-.795,3.683,3.683,0,0,0,.891-1.248,4,4,0,0,0,.327-1.642,3.946,3.946,0,0,0-.327-1.634,3.623,3.623,0,0,0-.891-1.233m-1.241,3.565a1.914,1.914,0,0,1-.334.617,1.645,1.645,0,0,1-.55.438,1.838,1.838,0,0,1-1.515,0,1.648,1.648,0,0,1-.55-.438,1.913,1.913,0,0,1-.334-.617,2.249,2.249,0,0,1,0-1.4,1.814,1.814,0,0,1,.327-.6,1.653,1.653,0,0,1,.542-.423,1.839,1.839,0,0,1,1.515,0,1.743,1.743,0,0,1,.549.423,1.853,1.853,0,0,1,.342.6,2.111,2.111,0,0,1,.119.7,2.241,2.241,0,0,1-.112.7" transform="translate(-228.061 -31.435)" fill="#fff"/><path d="M400.964,54.368a1.7,1.7,0,0,1,.535-.416,1.537,1.537,0,0,1,.7-.156,1.732,1.732,0,0,1,.728.163,1.485,1.485,0,0,1,.565.431l1.411-1.634a2.789,2.789,0,0,0-.527-.408,3.448,3.448,0,0,0-.668-.312,5.331,5.331,0,0,0-.758-.2,4.284,4.284,0,0,0-.795-.075,4.736,4.736,0,0,0-1.621.275,3.894,3.894,0,0,0-1.32.787,3.661,3.661,0,0,0-.882,1.241,4.358,4.358,0,0,0,0,3.283,3.661,3.661,0,0,0,.882,1.241,3.8,3.8,0,0,0,1.32.78,4.9,4.9,0,0,0,1.636.267,4.677,4.677,0,0,0,1.545-.253,3.177,3.177,0,0,0,1.188-.7l-1.352-1.649a1.408,1.408,0,0,1-.587.408,2.018,2.018,0,0,1-.736.141,1.682,1.682,0,0,1-.72-.148,1.661,1.661,0,0,1-.55-.408,1.778,1.778,0,0,1-.349-.6,2.2,2.2,0,0,1-.119-.728,2.086,2.086,0,0,1,.126-.728,1.959,1.959,0,0,1,.349-.6" transform="translate(-241.707 -31.434)" fill="#fff"/><path d="M422.409,56.363a1.888,1.888,0,0,1-.334,1.114,1.115,1.115,0,0,1-.973.475,1.046,1.046,0,0,1-.549-.126.941.941,0,0,1-.335-.349,1.48,1.48,0,0,1-.17-.505,3.793,3.793,0,0,1-.045-.594V52.367h-2.451v4.575a4.364,4.364,0,0,0,.141,1.107,2.72,2.72,0,0,0,.46.966,2.431,2.431,0,0,0,.832.691,2.687,2.687,0,0,0,1.255.267,2.567,2.567,0,0,0,.735-.1,3.09,3.09,0,0,0,.639-.267,2.191,2.191,0,0,0,.505-.386,2.1,2.1,0,0,0,.349-.476h.03v1.025h2.347v-7.4h-2.436Z" transform="translate(-253.576 -31.802)" fill="#fff"/><path d="M448.823,46.961,447.386,52.9l-1.579-5.856-.022-.083h-2.516L441.68,52.9l-1.411-5.935h-2.661l2.711,9.549h2.408l1.779-6.088,1.779,6.088h2.394l2.724-9.549Z" transform="translate(-265.756 -28.519)" fill="#fff"/><path d="M477.594,52.7a2.359,2.359,0,0,0-1.047-.713,4.742,4.742,0,0,0-1.582-.231,5.211,5.211,0,0,0-1.775.312,4.264,4.264,0,0,0-1.523.936l1.233,1.322a3.2,3.2,0,0,1,.824-.534,2.363,2.363,0,0,1,1-.223,1.667,1.667,0,0,1,.951.26.908.908,0,0,1,.386.81v.119a15.783,15.783,0,0,0-1.649.089,5.994,5.994,0,0,0-1.537.357,2.879,2.879,0,0,0-1.129.758,1.867,1.867,0,0,0-.438,1.292,2.194,2.194,0,0,0,.253,1.1,2.084,2.084,0,0,0,.646.713,2.7,2.7,0,0,0,.869.386,3.8,3.8,0,0,0,.921.119,3.035,3.035,0,0,0,1.241-.253,1.836,1.836,0,0,0,.854-.713h.044V59.4h2.228V55.668a7.2,7.2,0,0,0-.186-1.746,3.041,3.041,0,0,0-.587-1.218m-1.456,3.721a1.527,1.527,0,0,1-.393,1.107,1.505,1.505,0,0,1-1.136.408,1.967,1.967,0,0,1-.371-.037,1.041,1.041,0,0,1-.342-.126.749.749,0,0,1-.245-.238.639.639,0,0,1-.1-.357.7.7,0,0,1,.208-.527,1.348,1.348,0,0,1,.527-.3,3.364,3.364,0,0,1,.728-.141q.409-.037.81-.037h.312Z" transform="translate(-286.223 -31.434)" fill="#fff"/><path d="M495.946,51.837a2.066,2.066,0,0,0-1.2.359,2.414,2.414,0,0,0-.8.928h-.029v-1.07h-2.347v7.389H494V55.65a1.827,1.827,0,0,1,.089-.518,1.629,1.629,0,0,1,.289-.548,1.682,1.682,0,0,1,.535-.43,1.737,1.737,0,0,1,.824-.178q.148,0,.3.015a1.917,1.917,0,0,1,.319.059l.1-2.154a1.122,1.122,0,0,0-.231-.044,2.782,2.782,0,0,0-.289-.015" transform="translate(-298.523 -31.48)" fill="#fff"/><path d="M511.9,54.094a3.669,3.669,0,0,0-.765-1.263,3.265,3.265,0,0,0-1.173-.795,3.99,3.99,0,0,0-1.5-.275,4.32,4.32,0,0,0-1.575.282,3.775,3.775,0,0,0-1.263.795,3.713,3.713,0,0,0-.846,1.248,4.16,4.16,0,0,0-.312,1.642,4.1,4.1,0,0,0,.319,1.664,3.516,3.516,0,0,0,.876,1.226,3.822,3.822,0,0,0,1.3.758,4.736,4.736,0,0,0,1.575.26,4.547,4.547,0,0,0,1.982-.408,3.423,3.423,0,0,0,1.374-1.166l-1.693-1.07a1.938,1.938,0,0,1-.653.557,2.052,2.052,0,0,1-.981.215,1.971,1.971,0,0,1-1.181-.393,1.6,1.6,0,0,1-.4-.438,1.29,1.29,0,0,1-.186-.565h5.363a2.686,2.686,0,0,0,.015-.282v-.3a4.846,4.846,0,0,0-.275-1.693m-5.1.758a1.327,1.327,0,0,1,.148-.542,1.511,1.511,0,0,1,.357-.453,1.68,1.68,0,0,1,.52-.3,1.85,1.85,0,0,1,.653-.111,1.376,1.376,0,0,1,1.092.416,1.462,1.462,0,0,1,.364,1Z" transform="translate(-306.356 -31.435)" fill="#fff"/><path d="M314.415,53.57a3.688,3.688,0,0,1-3.691,3.691h-.007V54.808h-2.463V52.343h2.463V49.88h.007a3.7,3.7,0,0,1,3.691,3.69" transform="translate(-187.2 -30.292)" fill="#fff"/><path d="M308.022,37.442a9.689,9.689,0,1,0,2.838,6.852,9.659,9.659,0,0,0-2.838-6.852m-3.084,11.251a6.181,6.181,0,0,1-4.4,1.823h-.007V47.987h-2.463V45.531H295.6V43.066h2.464V40.6h2.463V38.072h.007a6.221,6.221,0,0,1,4.4,10.621" transform="translate(-177.014 -21.015)" fill="#fff"/></g></svg>