<svg xmlns="http://www.w3.org/2000/svg" width="171.357" height="172.754" viewBox="0 0 171.357 172.754">
  <g id="Component_212_1" data-name="Component 212 – 1" transform="translate(1.5 1.5)">
    <path id="Path_263" data-name="Path 263" d="M221.257,325.045H208.532a2.513,2.513,0,0,1-2.5-2.523V183.3a5.043,5.043,0,0,0-5.007-5.068H60.442a5.054,5.054,0,0,0-5.024,5.068V325.045a5.05,5.05,0,0,0,5.024,5.068H198.5a2.52,2.52,0,0,1,2.523,2.534v12.826a2.5,2.5,0,0,0,2.49,2.517h17.744a2.512,2.512,0,0,0,2.517-2.517V327.579a2.526,2.526,0,0,0-2.517-2.534" transform="translate(-55.418 -178.236)" fill="none" stroke="#8fc740" stroke-width="3"></path>
    <text id="_1" data-name="1" transform="translate(14.066 81.246)" fill="#8fc740" font-size="83" font-family="frutiger, frutiger linotype, univers, calibri, gill sans, gill sans mt, myriad pro, myriad, dejavu sans condensed, liberation sans, nimbus sans l, tahoma, geneva, helvetica neue, helvetica, arial, sans-serif" font-weight="700"><tspan x="0" y="0">1</tspan></text>
    <text id="_" data-name="/" transform="translate(51.68 112)" fill="#8fc740" font-size="83" font-family="frutiger, frutiger linotype, univers, calibri, gill sans, gill sans mt, myriad pro, myriad, dejavu sans condensed, liberation sans, nimbus sans l, tahoma, geneva, helvetica neue, helvetica, arial, sans-serif" font-weight="700"><tspan x="0" y="0">/</tspan></text>
    <text id="_3" data-name="3" transform="translate(87.766 127.091)" fill="#8fc740" font-size="83" font-family="frutiger, frutiger linotype, univers, calibri, gill sans, gill sans mt, myriad pro, myriad, dejavu sans condensed, liberation sans, nimbus sans l, tahoma, geneva, helvetica neue, helvetica, arial, sans-serif" font-weight="700"><tspan x="0" y="0">3</tspan></text>
  </g>
</svg>
