<svg xmlns="http://www.w3.org/2000/svg" width="60.234" height="60.234" viewBox="0 0 60.234 60.234"><defs><style>.a {
  fill: #8fc740;
}

.b {
  fill: #fff;
}

</style></defs><g transform="translate(-851.266 -2563.766)"><path class="a" d="M114.752,230.329H110.2a.9.9,0,0,1-.895-.9v-49.4a1.8,1.8,0,0,0-1.791-1.8h-50.3a1.8,1.8,0,0,0-1.8,1.8v50.294a1.8,1.8,0,0,0,1.8,1.8H106.61a.9.9,0,0,1,.9.9v4.551a.889.889,0,0,0,.891.893h6.348a.9.9,0,0,0,.9-.893v-6.349a.9.9,0,0,0-.9-.9" transform="translate(795.848 2385.53)"></path><g transform="translate(861.111 2574.188)"><g transform="translate(13.458 12.817)"><path class="b" d="M318.412,285.649a2.963,2.963,0,1,1-.013,0Zm-.013,4.393a1.424,1.424,0,0,0,.974-.378l.007-.006a1.421,1.421,0,0,0,.469-1.066,1.442,1.442,0,0,0-1.437-1.443H318.4a1.443,1.443,0,0,0-.98,2.512A1.427,1.427,0,0,0,318.4,290.042Z" transform="translate(-314.811 -286.399)"></path><path class="b" d="M302.992,355.146H295.8a.75.75,0,0,1-.75-.75,4.545,4.545,0,0,1,.179-1.248l0-.012a4.418,4.418,0,0,1,.993-1.717,4.34,4.34,0,0,1,6.325,0,4.422,4.422,0,0,1,.993,1.712,4.1,4.1,0,0,1,.2,1.268A.75.75,0,0,1,302.992,355.146Zm-6.344-1.5h5.486l-.019-.059,0-.015a2.91,2.91,0,0,0-.655-1.13,2.84,2.84,0,0,0-4.136,0,2.907,2.907,0,0,0-.651,1.121Q296.658,353.606,296.648,353.646Z" transform="translate(-295.8 -346.414)"></path></g><path class="b" d="M0,5.824a.75.75,0,0,1-.75-.75V0A.75.75,0,0,1,0-.75.75.75,0,0,1,.75,0V5.074A.75.75,0,0,1,0,5.824Z" transform="translate(17.054 5.115)"></path><path class="b" d="M1.852-.75a2.6,2.6,0,1,1-2.6,2.6A2.605,2.605,0,0,1,1.852-.75Zm0,3.7a1.1,1.1,0,1,0-1.1-1.1A1.1,1.1,0,0,0,1.852,2.955Z" transform="translate(15.201 0)"></path><path class="b" d="M3.582,4.332a.748.748,0,0,1-.53-.22L-.53.53A.75.75,0,0,1-.53-.53.75.75,0,0,1,.53-.53L4.113,3.052a.75.75,0,0,1-.53,1.28Z" transform="translate(8.37 8.813)"></path><path class="b" d="M1.852-.75a2.6,2.6,0,1,1-2.6,2.6A2.605,2.605,0,0,1,1.852-.75Zm0,3.7a1.1,1.1,0,1,0-1.1-1.1A1.1,1.1,0,0,0,1.852,2.955Z" transform="translate(4.209 4.645)"></path><path class="b" d="M3.582,4.332a.748.748,0,0,1-.53-.22L-.53.53A.75.75,0,0,1-.53-.53.75.75,0,0,1,.53-.53L4.113,3.052a.75.75,0,0,1-.53,1.28Z" transform="translate(22.053 22.08)"></path><path class="b" d="M1.852-.75a2.6,2.6,0,1,1-2.6,2.6A2.605,2.605,0,0,1,1.852-.75Zm0,3.7a1.1,1.1,0,1,0-1.1-1.1A1.1,1.1,0,0,0,1.852,2.955Z" transform="translate(26.091 26.125)"></path><path class="b" d="M0,4.339A.748.748,0,0,1-.53,4.12a.75.75,0,0,1,0-1.061L3.052-.53a.75.75,0,0,1,1.061,0,.75.75,0,0,1,0,1.061L.531,4.119A.748.748,0,0,1,0,4.339Z" transform="translate(22.223 8.636)"></path><path class="b" d="M1.852-.75a2.6,2.6,0,1,1-2.6,2.6A2.605,2.605,0,0,1,1.852-.75Zm0,3.7a1.1,1.1,0,1,0-1.1-1.1A1.1,1.1,0,0,0,1.852,2.955Z" transform="translate(26.268 4.475)"></path><path class="b" d="M0,4.332a.748.748,0,0,1-.53-.22.75.75,0,0,1,0-1.061L3.052-.53a.75.75,0,0,1,1.061,0,.75.75,0,0,1,0,1.061L.53,4.113A.748.748,0,0,1,0,4.332Z" transform="translate(8.643 22.237)"></path><path class="b" d="M1.852-.75a2.6,2.6,0,1,1-2.6,2.6A2.605,2.605,0,0,1,1.852-.75Zm0,3.7a1.1,1.1,0,1,0-1.1-1.1A1.1,1.1,0,0,0,1.852,2.955Z" transform="translate(4.475 26.282)"></path><path class="b" d="M0,5.824a.75.75,0,0,1-.75-.75V0A.75.75,0,0,1,0-.75.75.75,0,0,1,.75,0V5.074A.75.75,0,0,1,0,5.824Z" transform="translate(17.054 24.109)"></path><path class="b" d="M1.852-.75a2.6,2.6,0,1,1-2.6,2.6A2.605,2.605,0,0,1,1.852-.75Zm0,3.7a1.1,1.1,0,1,0-1.1-1.1A1.1,1.1,0,0,0,1.852,2.955Z" transform="translate(15.201 30.593)"></path><path class="b" d="M5.074.75H0A.75.75,0,0,1-.75,0,.75.75,0,0,1,0-.75H5.074a.75.75,0,0,1,.75.75A.75.75,0,0,1,5.074.75Z" transform="translate(5.115 17.435)"></path><path class="b" d="M1.852-.75a2.6,2.6,0,1,1-2.6,2.6A2.605,2.605,0,0,1,1.852-.75Zm0,3.7a1.1,1.1,0,1,0-1.1-1.1A1.1,1.1,0,0,0,1.852,2.955Z" transform="translate(0 15.583)"></path><path class="b" d="M5.074.75H0A.75.75,0,0,1-.75,0,.75.75,0,0,1,0-.75H5.074a.75.75,0,0,1,.75.75A.75.75,0,0,1,5.074.75Z" transform="translate(24.109 17.694)"></path><path class="b" d="M1.852-.75a2.6,2.6,0,1,1-2.6,2.6A2.605,2.605,0,0,1,1.852-.75Zm0,3.7a1.1,1.1,0,1,0-1.1-1.1A1.1,1.1,0,0,0,1.852,2.955Z" transform="translate(30.593 15.841)"></path><path class="b" d="M6.96-.75A7.71,7.71,0,1,1-.75,6.96,7.719,7.719,0,0,1,6.96-.75Zm0,13.921A6.21,6.21,0,1,0,.75,6.96,6.217,6.217,0,0,0,6.96,13.171Z" transform="translate(10.189 10.189)"></path></g></g></svg>