<svg xmlns="http://www.w3.org/2000/svg" width="60.234" height="60.234" viewBox="0 0 60.234 60.234"><defs><style>.a {
  fill: #8fc740;
}

.b {
  fill: #fff;
}

</style></defs><g transform="translate(-851.266 -2563.766)"><path class="a" d="M114.752,230.329H110.2a.9.9,0,0,1-.895-.9v-49.4a1.8,1.8,0,0,0-1.791-1.8h-50.3a1.8,1.8,0,0,0-1.8,1.8v50.294a1.8,1.8,0,0,0,1.8,1.8H106.61a.9.9,0,0,1,.9.9v4.551a.889.889,0,0,0,.891.893h6.348a.9.9,0,0,0,.9-.893v-6.349a.9.9,0,0,0-.9-.9" transform="translate(795.848 2385.53)"></path><g transform="translate(858.605 2578.917)"><path class="b" d="M267.734,173.35a6.477,6.477,0,1,1-6.484,6.478A6.485,6.485,0,0,1,267.734,173.35Zm0,11.462a4.981,4.981,0,1,0-4.984-4.984,4.99,4.99,0,0,0,4.984,4.984Z" transform="translate(-248.37 -174.1)"></path><path class="b" d="M4.164-.75A4.914,4.914,0,1,1-.75,4.164,4.92,4.92,0,0,1,4.164-.75Zm0,8.328A3.414,3.414,0,1,0,.75,4.164,3.418,3.418,0,0,0,4.164,7.578Z" transform="translate(27.739 2.979)"></path><path class="b" d="M509.677,372.562h-8.139a.75.75,0,0,1-.729-.574,10.723,10.723,0,0,0-2.746-4.971.75.75,0,0,1,.068-1.109,7.569,7.569,0,0,1,12.3,5.9A.75.75,0,0,1,509.677,372.562Zm-7.563-1.5h6.767a6.075,6.075,0,0,0-6.022-5.312,6,6,0,0,0-3.133.868A12.228,12.228,0,0,1,502.114,371.062Z" transform="translate(-470.956 -353.692)"></path><path class="b" d="M4.164-.75A4.914,4.914,0,1,1-.75,4.164,4.92,4.92,0,0,1,4.164-.75Zm0,8.328A3.414,3.414,0,1,0,.75,4.164,3.418,3.418,0,0,0,4.164,7.578Z" transform="translate(2.654 2.979)"></path><path class="b" d="M38.712,364.25a7.479,7.479,0,0,1,4.728,1.658.75.75,0,0,1,.07,1.107,10.814,10.814,0,0,0-2.748,4.974.75.75,0,0,1-.729.574H31.9a.75.75,0,0,1-.75-.75A7.57,7.57,0,0,1,38.712,364.25Zm3.135,2.369a6,6,0,0,0-3.135-.869,6.071,6.071,0,0,0-6.016,5.312h6.761A12.309,12.309,0,0,1,41.847,366.619Z" transform="translate(-31.9 -353.692)"></path><path class="b" d="M219.159,377.727H200.4a.75.75,0,0,1-.75-.75,10.372,10.372,0,0,1,.427-2.931l0-.006a10.129,10.129,0,0,1,17.073-4,10.231,10.231,0,0,1,2.322,4.011,10.084,10.084,0,0,1,.435,2.93A.75.75,0,0,1,219.159,377.727Zm-17.976-1.5h17.194a8.591,8.591,0,0,0-.338-1.745,8.722,8.722,0,0,0-1.98-3.419,8.635,8.635,0,0,0-14.544,3.41A8.974,8.974,0,0,0,201.183,376.227Z" transform="translate(-190.419 -356.138)"></path></g></g></svg>