<svg id="Icon_touch_sensor" xmlns="http://www.w3.org/2000/svg" width="60" height="60" viewBox="0 0 60 60">
  <path id="Path_273" data-name="Path 273" d="M114.521,230.126h-4.535a.892.892,0,0,1-.891-.892V180.027a1.79,1.79,0,0,0-1.784-1.791h-50.1a1.794,1.794,0,0,0-1.79,1.791v50.1a1.792,1.792,0,0,0,1.79,1.791h49.2a.894.894,0,0,1,.9.9v4.533a.886.886,0,0,0,.887.89h6.324a.892.892,0,0,0,.9-.89v-6.325a.9.9,0,0,0-.9-.9" transform="translate(-55.418 -178.236)" fill="#768ec7"></path>
  <g id="Group_1962" data-name="Group 1962" transform="translate(0.295 1)">
    <g id="Group_1963" data-name="Group 1963" transform="translate(11.705 10.109)">
      <path id="Path_1531" data-name="Path 1531" d="M246.75,227.953a14.007,14.007,0,0,1,.307-14.754" transform="translate(-244.8 -213.2)" fill="none" stroke="#fff" stroke-miterlimit="10" stroke-width="1.6"></path>
      <path id="Path_1532" data-name="Path 1532" d="M282.554,240.637a12.272,12.272,0,0,1,.288-11.737" transform="translate(-277.704 -227.392)" fill="none" stroke="#fff" stroke-miterlimit="10" stroke-width="1.6"></path>
      <path id="Path_1533" data-name="Path 1533" d="M317.533,242.7a10.744,10.744,0,0,0-.259,9.048" transform="translate(-309.523 -239.866)" fill="none" stroke="#fff" stroke-miterlimit="10" stroke-width="1.6"></path>
    </g>
    <path id="Path_1537" data-name="Path 1537" d="M355.343,306.5l-.49,4.524c-.077.74-.163,1.479-.24,2.219a10.359,10.359,0,0,1-1,3.467,7.313,7.313,0,0,1-10.325,2.757,7.724,7.724,0,0,1-2.737-2.8l-2.968-4.783-1.9-3.074a2.2,2.2,0,0,1,2.939-3.16,2.335,2.335,0,0,1,.74.73h0l1.191,1.921v-9.759a2.258,2.258,0,0,1,.317-1.143,2.2,2.2,0,0,1,4.092,1.143v4.409a8.144,8.144,0,0,0,5.859.768,2.142,2.142,0,0,1,.874,1,2.223,2.223,0,0,1,2.593-.231,1.8,1.8,0,0,1,.221.154,2.259,2.259,0,0,1,.836,1.863Z" transform="translate(-315.528 -279.12)" fill="none" stroke="#fff" stroke-miterlimit="10" stroke-width="1.6"></path>
  </g>
</svg>
