<svg xmlns="http://www.w3.org/2000/svg" width="210" height="89" viewBox="0 0 210 89"><defs><style>.a {
  fill: #fff;
}

.b {
  fill: #231f20;
}

.c {
  fill: #d71920;
}

</style></defs><g transform="translate(6371)"><g transform="translate(-6371)"><rect class="a" width="210" height="89" rx="8"></rect></g><g transform="translate(-6352.281 15.391)"><g transform="translate(-152.067 -356.445)"><g transform="translate(152.069 356.445)"><path class="a" d="M-12.613-6.307a29.07,29.07,0,0,1-29.07,29.07,29.068,29.068,0,0,1-29.07-29.07,29.07,29.07,0,0,1,29.07-29.072A29.071,29.071,0,0,1-12.613-6.307" transform="translate(70.752 35.379)"></path></g><g transform="translate(218.997 370.151)"><path class="b" d="M0,0H15.835V3.249H10.011V19.555H5.82V3.249H0Z"></path></g><g transform="translate(238.872 370.142)"><path class="b" d="M-.91-.707H4.268C6.1-.679,7.185.047,7.185,1.767S6.1,4.411,4.268,4.435H-.91Zm0,8.544H3.521a71.574,71.574,0,0,1,3.1,7.762h5.163L7.815,7.559c2.8-.722,3.519-4.055,3.519-6.587C11.335-3,6.908-4.079,3.2-3.956h-8.3V15.6h4.2V7.837Z" transform="translate(5.106 3.965)"></path></g><g transform="translate(260.96 370.151)"><path class="b" d="M0,0H14.025V3.249H4.2v4.6h9.043V11.1H4.2v5.211H14.319v3.249H0Z"></path></g><g transform="translate(280.983 370.151)"><path class="b" d="M-2.421-4.243l-7.181-13-.058.054V-4.243h-3.921V-23.8h5.2l7.14,12.778.054-.052V-23.8H2.735V-4.243Z" transform="translate(13.582 23.798)"></path></g><g transform="translate(303.392 370.151)"><path class="b" d="M-.91-.738H1.259C6.238-.79,6.971,2.524,6.971,5.637s-.732,6.587-5.712,6.531H-.91Zm-4.2,16.155H1.553c6.094.054,9.886-2.977,9.886-9.78S7.647-4.192,1.553-4.138H-5.106V15.417Z" transform="translate(5.106 4.139)"></path></g><g transform="translate(221.63 394.924)"><path class="b" d="M-2.272-2.355H-4.3V-10.9L-6.437-2.355H-8.543L-10.68-10.9l-.032,8.548h-2.031V-13.208h3.275l1.953,7.395,1.957-7.395h3.286Z" transform="translate(12.743 13.208)"></path></g><path class="b" d="M269.113,414.125h-2.186V403.271h2.186Z" transform="translate(-20.476 -8.348)"></path><g transform="translate(285.289 394.923)"><path class="b" d="M-1.406-.835a1.131,1.131,0,0,1-.7.607,2.147,2.147,0,0,1-.624.106c-.251.022-.618.028-1.089.028H-5.7V-2.849h1.713q1.18,0,1.514.028a1.4,1.4,0,0,1,.633.212,1.026,1.026,0,0,1,.432.456,1.574,1.574,0,0,1,.13.65,1.614,1.614,0,0,1-.13.668m.192,2.491.676-.2A2.535,2.535,0,0,0,.683.379,4.138,4.138,0,0,0,1.053-1.55a3.622,3.622,0,0,0-.49-1.694A2.558,2.558,0,0,0-.788-4.413,4.087,4.087,0,0,0-1.546-4.6a13.178,13.178,0,0,0-1.73-.089H-7.884V6.169H-5.7V1.891l2.085-.024,2.314,4.3H1.325L-1.213,1.656Z" transform="translate(7.884 4.685)"></path></g><g transform="translate(306.3 394.742)"><path class="b" d="M-1.558-1.874a2.765,2.765,0,0,1-1.925.7,2.816,2.816,0,0,1-1.588-.441A2.719,2.719,0,0,1-5.94-2.54a3.762,3.762,0,0,1-.374-.9A5.613,5.613,0,0,1-6.482-4.9a4.774,4.774,0,0,1,.575-2.474A2.63,2.63,0,0,1-3.483-8.632a2.607,2.607,0,0,1,2.5,1.393A4.874,4.874,0,0,1-.493-4.933,3.941,3.941,0,0,1-1.558-1.874M.466-8.891a4.944,4.944,0,0,0-3.96-1.622A4.963,4.963,0,0,0-7.376-9,5.983,5.983,0,0,0-8.742-4.845a5.987,5.987,0,0,0,1.11,3.714A4.867,4.867,0,0,0-3.466.7,4.872,4.872,0,0,0,.583-1.023,6.026,6.026,0,0,0,1.769-4.888a5.934,5.934,0,0,0-1.3-4" transform="translate(8.742 10.513)"></path></g><g transform="translate(262.519 394.682)"><path class="b" d="M-1.594-.825A2.188,2.188,0,0,0-3.979-2.688c-1.082,0-2.67.722-2.67,3.772,0,1.94.763,3.679,2.67,3.679A2.3,2.3,0,0,0-1.594,2.737H.657A4.475,4.475,0,0,1-4.023,6.706c-2.867,0-4.921-1.925-4.921-5.649,0-3.774,2.173-5.686,4.949-5.686C-.769-4.63.54-2.418.657-.825Z" transform="translate(8.944 4.63)"></path></g><g transform="translate(317.997 390.524)"><path class="b" d="M-.606-.091H-1.775V3.018h-.467V-.091H-3.4V-.51h2.8Z" transform="translate(3.402 0.51)"></path></g><g transform="translate(321.271 390.524)"><path class="b" d="M-.729-.765h-.443V-3.719L-2.2-.765h-.419l-1.009-3-.013,3h-.449V-4.293h.7l.832,2.5.093.292.063.231.2-.566.845-2.454h.62Z" transform="translate(4.088 4.293)"></path></g><g transform="translate(152.067 356.521)"><path class="c" d="M-1.149-7.511l.039-.1L-1-7.922-.883-8.2l.05-.13a30.568,30.568,0,0,1,2.052-4.107c.108-.231.22-.458.333-.687l-3.482.009.845-1.867A27.336,27.336,0,0,0,11.16-21.808l.136-.009h2.409L10.59-15.141l5-.015-.918,1.988-4.995.017A47.346,47.346,0,0,0,6.542-5.118c-.616,3.74-.011,6.531,3.34,7.576a13.356,13.356,0,0,0,7.434-.294,41.78,41.78,0,0,0,18.46-12.359c8.337-9.685,8.5-19.594.369-22.124-5.217-1.62-12.573.181-19.38,4.239,8.488-5.474,17.821-8.045,24.261-6.04a10.9,10.9,0,0,1,3.143,1.534,29.005,29.005,0,0,0-21.545-9.547,29.072,29.072,0,0,0-29.07,29.07A28.95,28.95,0,0,0-1.624,2.973C-2.776.132-2.614-3.512-1.149-7.511" transform="translate(6.446 42.133)"></path></g><g transform="translate(159.927 370.17)"><path class="c" d="M-9.949,0c1.944,5.282-.488,13.165-7.2,20.968-10.08,11.722-26,18.81-35.561,15.835a10.81,10.81,0,0,1-3.1-1.506A28.978,28.978,0,0,0-34.6,44.492,29.071,29.071,0,0,0-5.525,15.423,28.974,28.974,0,0,0-9.949,0" transform="translate(55.809)"></path></g></g></g></g></svg>