<svg xmlns="http://www.w3.org/2000/svg" width="111" height="111" viewBox="0 0 111 111"><g transform="translate(0 -1069)"><path d="M164.758,274.233h-8.39a1.65,1.65,0,0,1-1.649-1.65V181.55a3.311,3.311,0,0,0-3.3-3.314H58.73a3.318,3.318,0,0,0-3.312,3.314v92.683a3.316,3.316,0,0,0,3.312,3.314h91.024a1.655,1.655,0,0,1,1.663,1.657v8.386a1.639,1.639,0,0,0,1.642,1.646h11.7a1.649,1.649,0,0,0,1.66-1.646v-11.7a1.659,1.659,0,0,0-1.66-1.657" transform="translate(-55.418 890.764)" fill="#768ec7"/><g transform="translate(272.54 910.516)"><path d="M-224.19,240.483a1,1,0,0,1-1-1V223.664c0-5.983-6.471-10.851-14.425-10.851s-14.425,4.868-14.425,10.851v15.819a1,1,0,0,1-1,1,1,1,0,0,1-1-1V223.664a10.464,10.464,0,0,1,1.336-5.1,13.182,13.182,0,0,1,3.572-4.078,18.931,18.931,0,0,1,11.516-3.678,18.931,18.931,0,0,1,11.516,3.678,13.182,13.182,0,0,1,3.572,4.078,10.465,10.465,0,0,1,1.336,5.1v15.819A1,1,0,0,1-224.19,240.483Z" fill="#fff"/><path d="M7.5-1A8.5,8.5,0,1,1-1,7.5,8.513,8.513,0,0,1,7.5-1Zm0,15.007A6.5,6.5,0,1,0,1,7.5,6.511,6.511,0,0,0,7.5,14.007Z" transform="translate(-247.185 196.806)" fill="#fff"/><path d="M7.5-1A8.5,8.5,0,1,1-1,7.5,8.513,8.513,0,0,1,7.5-1Zm0,15.007A6.5,6.5,0,1,0,1,7.5,6.511,6.511,0,0,0,7.5,14.007Z" transform="translate(-227.332 200.259)" fill="#fff"/><path d="M-221.032,224.266q-.039,0-.078,0c-.136-.01-.274-.023-.41-.037a1,1,0,0,1-.894-1.1,1,1,0,0,1,1.1-.894c.12.012.242.023.362.032a1,1,0,0,1,.92,1.074A1,1,0,0,1-221.032,224.266Zm4.96-.41a1,1,0,0,1-.97-.759,1,1,0,0,1,.73-1.211,14.481,14.481,0,0,0,1.781-.567,1,1,0,0,1,1.3.567,1,1,0,0,1-.567,1.3,16.49,16.49,0,0,1-2.028.645A1,1,0,0,1-216.072,223.856Zm6.191-3.141a1,1,0,0,1-.769-.36,1,1,0,0,1,.128-1.408,14.7,14.7,0,0,0,1.358-1.287,1,1,0,0,1,1.413-.052,1,1,0,0,1,.053,1.413,16.706,16.706,0,0,1-1.543,1.463A1,1,0,0,1-209.881,220.715Zm4.211-5.517a1,1,0,0,1-.414-.09,1,1,0,0,1-.5-1.324,14.493,14.493,0,0,0,.663-1.748,1,1,0,0,1,1.249-.663,1,1,0,0,1,.663,1.249,16.5,16.5,0,0,1-.755,1.99A1,1,0,0,1-205.67,215.2Zm1.386-6.8a1,1,0,0,1-1-.977,14.7,14.7,0,0,0-.162-1.864,1,1,0,0,1,.838-1.139,1,1,0,0,1,1.139.838,16.71,16.71,0,0,1,.184,2.118,1,1,0,0,1-.977,1.023Zm-1.7-6.728a1,1,0,0,1-.89-.543,14.594,14.594,0,0,0-.96-1.605,1,1,0,0,1,.256-1.391,1,1,0,0,1,1.391.256,16.607,16.607,0,0,1,1.091,1.826,1,1,0,0,1-.433,1.346A1,1,0,0,1-205.987,201.669Zm-25.337-3.38a1,1,0,0,1-.673-.261,1,1,0,0,1-.066-1.413,16.688,16.688,0,0,1,1.53-1.477,1,1,0,0,1,1.41.115,1,1,0,0,1-.115,1.41,14.681,14.681,0,0,0-1.346,1.3A1,1,0,0,1-231.323,198.289Zm20.868-1.934a1,1,0,0,1-.6-.2,14.625,14.625,0,0,0-1.561-1.031,1,1,0,0,1-.372-1.364,1,1,0,0,1,1.364-.372,16.633,16.633,0,0,1,1.775,1.172,1,1,0,0,1,.194,1.4A1,1,0,0,1-210.455,196.355Zm-15.168-2.027a1,1,0,0,1-.928-.627,1,1,0,0,1,.555-1.3,16.487,16.487,0,0,1,2.022-.664,1,1,0,0,1,1.218.719,1,1,0,0,1-.719,1.218,14.48,14.48,0,0,0-1.776.583A1,1,0,0,1-225.623,194.327Zm8.839-.818a1,1,0,0,1-.2-.019,14.616,14.616,0,0,0-1.854-.245,1,1,0,0,1-.93-1.065,1,1,0,0,1,1.065-.93,16.622,16.622,0,0,1,2.109.279,1,1,0,0,1,.786,1.176A1,1,0,0,1-216.784,193.51Z" fill="#fff"/><path d="M0,14.459a1,1,0,0,1-1-1V0A1,1,0,0,1,0-1,1,1,0,0,1,1,0V13.459A1,1,0,0,1,0,14.459Z" transform="translate(-247.185 226.024)" fill="#fff"/><path d="M0,14.459a1,1,0,0,1-1-1V0A1,1,0,0,1,0-1,1,1,0,0,1,1,0V13.459A1,1,0,0,1,0,14.459Z" transform="translate(-232.178 226.024)" fill="#fff"/><path d="M-213.612,186.461a1,1,0,0,1-.979-.8l-1.771-8.62H-223.3l-1.771,8.62a1,1,0,0,1-1.181.778,1,1,0,0,1-.778-1.181l2.1-10.218h10.2l2.1,10.218a1,1,0,0,1-.778,1.181A1,1,0,0,1-213.612,186.461Z" fill="#fff"/><path d="M-214.73,240.483h-6.444a1,1,0,0,1-1-1,1,1,0,0,1,1-1h4.813l1.771-8.62a1,1,0,0,1,1.181-.778,1,1,0,0,1,.778,1.181Z" fill="#fff"/><path d="M-197.529,214.981a1,1,0,0,1-.979-.8,1,1,0,0,1,.778-1.181l8.621-1.771v-6.936l-8.621-1.771a1,1,0,0,1-.778-1.181,1,1,0,0,1,1.181-.778l10.218,2.1v10.2l-10.218,2.1A1,1,0,0,1-197.529,214.981Z" fill="#fff"/><path d="M-200.3,234.5l-8.709-5.741a1,1,0,0,1-.285-1.385,1,1,0,0,1,1.385-.285l7.348,4.844,4.9-4.9-4.844-7.348a1,1,0,0,1,.285-1.385,1,1,0,0,1,1.385.285l5.741,8.709Z" fill="#fff"/><path d="M-239.994,197.39a1,1,0,0,1-.836-.45l-5.741-8.709,7.211-7.211,8.709,5.741a1,1,0,0,1,.285,1.385,1,1,0,0,1-1.385.285l-7.348-4.843-4.9,4.9,4.843,7.348a1,1,0,0,1-.285,1.385A1,1,0,0,1-239.994,197.39Z" fill="#fff"/><path d="M-199.664,197.39a1,1,0,0,1-.549-.165,1,1,0,0,1-.285-1.385l4.844-7.348-4.9-4.9-7.348,4.843a1,1,0,0,1-1.385-.285,1,1,0,0,1,.285-1.385l8.709-5.741,7.211,7.211-5.741,8.709A1,1,0,0,1-199.664,197.39Z" fill="#fff"/><path d="M-208.456,188.6a1,1,0,0,1-.837-.452l-.015-.024a22.105,22.105,0,0,0-4.067-1.687l-.032.007a1,1,0,0,1-1.182-.777l-.361-1.745,1.575.433a24.1,24.1,0,0,1,5.536,2.3l1.421.809-1.489.976A1,1,0,0,1-208.456,188.6Z" fill="#fff"/><path d="M-195.986,202.884l-1.745-.361a1,1,0,0,1-.777-1.182l.007-.032a22.165,22.165,0,0,0-1.686-4.067l-.03-.019a1,1,0,0,1-.28-1.386l.98-1.476.8,1.413a24.158,24.158,0,0,1,2.294,5.535Z" fill="#fff"/><path d="M-199.513,221.157l-.981-1.466a1,1,0,0,1,.275-1.387l.032-.021a22.158,22.158,0,0,0,1.687-4.068q0-.019-.009-.039a1,1,0,0,1,.785-1.177l1.735-.347-.43,1.563a24.154,24.154,0,0,1-2.294,5.534Z" fill="#fff"/><path d="M-214.952,231.607l.361-1.746a1,1,0,0,1,1.182-.777l.032.007a22.2,22.2,0,0,0,4.068-1.687l.015-.024a1,1,0,0,1,1.385-.288l1.49.977-1.422.809a24.193,24.193,0,0,1-5.535,2.295Z" fill="#fff"/><path d="M-231.2,188.6a1,1,0,0,1-.551-.166l-1.479-.978,1.415-.805a24.1,24.1,0,0,1,5.536-2.3l1.575-.433-.361,1.744a1,1,0,0,1-1.182.777l-.032-.007a22.106,22.106,0,0,0-4.069,1.688l-.017.026A1,1,0,0,1-231.2,188.6Z" fill="#fff"/></g></g></svg>