<svg id="Icon-Reduce-Cost" xmlns="http://www.w3.org/2000/svg" xmlns:xlink="http://www.w3.org/1999/xlink" width="99.947" height="99.947" viewBox="0 0 99.947 99.947">
  <defs>
    <clipPath id="clip-path">
      <rect id="Rectangle_538" data-name="Rectangle 538" width="65.432" height="64.377" transform="translate(0.001 0)" fill="#fff"></rect>
    </clipPath>
  </defs>
  <path id="Ricoh_Ribbon_-_HW" data-name="Ricoh Ribbon - HW" d="M153.871,264.674h-7.555a1.486,1.486,0,0,1-1.485-1.486V181.22a2.981,2.981,0,0,0-2.973-2.984H58.4a2.988,2.988,0,0,0-2.982,2.984v83.454a2.986,2.986,0,0,0,2.982,2.984h81.961a1.49,1.49,0,0,1,1.5,1.492V276.7a1.475,1.475,0,0,0,1.478,1.482h10.534a1.485,1.485,0,0,0,1.495-1.482V266.166a1.493,1.493,0,0,0-1.495-1.492" transform="translate(-55.418 -178.236)" fill="#758cc5"></path>
  <g id="reduce-cost" transform="translate(13.144 12.154)" clip-path="url('#clip-path')">
    <path id="reduce-cost-2" data-name="reduce-cost" d="M54.1,36.682V32.268c0-2.984-4.866-4.974-10.743-5.782V22.942c0-.995-.569-2.363-3.16-3.668V14.859c0-4.041-8.784-6.217-17.062-6.217S6.071,10.818,6.071,14.859v4.974c0,1.492,1.2,2.736,3.16,3.73v4.414c-2.591,1.306-3.16,2.736-3.16,3.668V36.62c0,4.041,8.784,6.217,17.062,6.217v2.487c0,4.041,8.784,6.217,17.062,6.217s17.062-2.176,17.062-6.217V40.35C57.257,39.418,56.688,37.988,54.1,36.682Zm1.9,3.73c0,2.363-6.509,4.974-15.8,4.974-7.394,0-13.018-1.679-15.04-3.544h0a38.255,38.255,0,0,0,11.817,1.679c7.71,0,15.925-1.927,16.936-5.409C55.3,38.8,55.993,39.6,55.993,40.412ZM45.25,46.319v3.73c-.822.062-1.643.186-2.528.186v-3.73A16.662,16.662,0,0,0,45.25,46.319Zm1.264-.124c.885-.124,1.706-.249,2.528-.435v3.668c-.758.186-1.643.311-2.528.435Zm3.792-.746a17.075,17.075,0,0,0,2.528-.808v3.606a17.27,17.27,0,0,1-2.528.87ZM30.084,49.117a17.266,17.266,0,0,1-2.528-.87V44.64c.821.311,1.643.56,2.528.808Zm1.264-3.357c.821.187,1.643.311,2.528.435v3.73c-.885-.124-1.769-.311-2.528-.435Zm3.792.56c.821.062,1.706.186,2.528.186v3.73c-.885-.062-1.706-.124-2.528-.186ZM19.973,32.33v.187c-.885-.124-1.769-.311-2.528-.435V28.413c.822.186,1.643.311,2.528.435ZM21.237,37.3V34.817a7.648,7.648,0,0,0,1.9,1.243V39.6C21.932,38.8,21.237,38.05,21.237,37.3Zm31.6,0c0,.746-.7,1.554-1.9,2.238V36a7.648,7.648,0,0,0,1.9-1.243Zm-3.16,2.86a17.281,17.281,0,0,1-2.528.87V37.366a17.075,17.075,0,0,0,2.528-.808Zm-3.792,1.181c-.758.187-1.643.311-2.528.435V38.05c.885-.124,1.706-.249,2.528-.435Zm-3.792.622c-.822.062-1.643.186-2.528.186v-3.73c.821-.062,1.706-.124,2.528-.186Zm-3.792.249H35.771v-3.73H38.3Zm-3.792,0c-.885-.062-1.706-.124-2.528-.187V38.3c.821.062,1.706.187,2.528.187Zm-3.792-.373c-.885-.124-1.769-.311-2.528-.435V37.739c.821.187,1.643.311,2.528.435Zm-3.792-.808a17.277,17.277,0,0,1-2.528-.87V36.558c.821.311,1.643.56,2.528.808Zm25.909-8.7c0,2.363-6.509,4.974-15.8,4.974s-15.8-2.611-15.8-4.974,6.509-4.974,15.8-4.974S52.833,29.967,52.833,32.33Zm-31.6-2.487V28.91c.379.062.758.062,1.138.124A12.82,12.82,0,0,0,21.237,29.843Zm19.779-3.606a12.819,12.819,0,0,0,1.137-.808v.933C41.711,26.3,41.4,26.3,41.016,26.237Zm-.948-5.6c1.327.746,2.022,1.554,2.022,2.3,0,1.057-1.39,2.238-3.728,3.109H37.035a37.137,37.137,0,0,0-12.323,1.865c-6.635-.186-11.564-1.741-13.4-3.482h0a38.257,38.257,0,0,0,11.817,1.679C30.842,26.113,39.057,24.185,40.068,20.641Zm-23.887,7.4v3.668a17.259,17.259,0,0,1-2.528-.87V27.232A19.854,19.854,0,0,0,16.182,28.04ZM12.39,26.672v3.544c-1.2-.746-1.9-1.492-1.9-2.238V25.491A9.683,9.683,0,0,0,12.39,26.672Zm-1.9-3.917V19.149c.822.311,1.643.56,2.528.808v3.668A20.286,20.286,0,0,1,10.494,22.755Zm3.792,1.181V20.268c.822.186,1.643.311,2.528.435v3.73C15.929,24.309,15.107,24.123,14.286,23.936Zm3.792.622v-3.73c.822.062,1.706.187,2.528.187v3.73A16.662,16.662,0,0,1,18.077,24.558Zm3.792.249v-3.73H24.4v3.73H23.133A8.582,8.582,0,0,1,21.869,24.807Zm3.792,0v-3.73c.822-.062,1.706-.124,2.528-.186v3.73C27.367,24.682,26.545,24.745,25.66,24.807Zm3.792-.373V20.7c.885-.124,1.706-.249,2.528-.435v3.668C31.221,24.123,30.337,24.309,29.452,24.434Zm3.792-.808V19.957a17.071,17.071,0,0,0,2.528-.808v3.606A17.267,17.267,0,0,1,33.244,23.626Zm3.792-1.492V18.589a7.648,7.648,0,0,0,1.9-1.243v2.487C38.931,20.641,38.3,21.387,37.035,22.133Zm-27.8,0c-1.2-.746-1.9-1.492-1.9-2.238V17.408a7.646,7.646,0,0,0,1.9,1.244Zm-1.9-7.212c0-2.363,6.509-4.974,15.8-4.974s15.8,2.611,15.8,4.974S32.422,19.9,23.133,19.9,7.335,17.222,7.335,14.921Zm2.212,14.3c1.138,2.3,5.435,3.793,10.427,4.477v2.8C12.39,36,7.335,33.7,7.335,31.646,7.335,30.838,8.156,30.029,9.546,29.221Zm-.316,9.7c-1.2-.746-1.9-1.492-1.9-2.238V34.2a7.649,7.649,0,0,0,1.9,1.243Zm3.792,1.492a17.282,17.282,0,0,1-2.528-.87V35.936c.822.311,1.643.559,2.528.808Zm3.792.808c-.885-.124-1.769-.311-2.528-.435V37.117c.822.186,1.643.311,2.528.435Zm1.264-3.606c.632.062,1.264.124,1.959.186a3.917,3.917,0,0,0,.569,1.306v2.487c-.885-.062-1.706-.124-2.528-.186Zm3.792,2.611c.379.249.822.5,1.264.746v.622H21.869Zm2.528,5.16V42.9a7.646,7.646,0,0,0,1.9,1.244v3.544C25.092,46.879,24.4,46.132,24.4,45.386Zm14.534,1.181h2.528V50.3H38.931ZM54.1,44.081a7.648,7.648,0,0,0,1.9-1.243v2.487c0,.746-.7,1.554-1.9,2.238Z" transform="translate(1.052 2.097)" fill="#fff" stroke="#fff" stroke-width="0.641"></path>
  </g>
</svg>
