<svg id="Icon-Insights" xmlns="http://www.w3.org/2000/svg" xmlns:xlink="http://www.w3.org/1999/xlink" width="99.947" height="99.947" viewBox="0 0 99.947 99.947">
  <defs>
    <clipPath id="clip-path">
      <rect id="Rectangle_542" data-name="Rectangle 542" width="65.278" height="65.256" fill="#fff"></rect>
    </clipPath>
  </defs>
  <path id="Ricoh_Ribbon_-_HW" data-name="Ricoh Ribbon - HW" d="M153.871,264.674h-7.555a1.486,1.486,0,0,1-1.485-1.486V181.22a2.981,2.981,0,0,0-2.973-2.984H58.4a2.988,2.988,0,0,0-2.982,2.984v83.454a2.986,2.986,0,0,0,2.982,2.984h81.961a1.49,1.49,0,0,1,1.5,1.492V276.7a1.475,1.475,0,0,0,1.478,1.482h10.534a1.485,1.485,0,0,0,1.495-1.482V266.166a1.493,1.493,0,0,0-1.495-1.492" transform="translate(-55.418 -178.236)" fill="#758cc5"></path>
  <g id="offer-insights" transform="translate(13.297 13.539)" clip-path="url('#clip-path')">
    <g id="offer-insights-2" data-name="offer-insights" transform="translate(7.363 7.581)">
      <path id="Path_1106" data-name="Path 1106" d="M57.634,13.056a.687.687,0,0,0,0-1.373H33.682V8.937a.684.684,0,1,0-1.369,0v2.746H8.361a.687.687,0,0,0,0,1.373H11.1V41.207H8.361a.687.687,0,0,0,0,1.373H31.346L19.169,54.8a.685.685,0,0,0,.968.971L32.313,43.551V57.686a.684.684,0,1,0,1.369,0V43.551L45.858,55.768a.685.685,0,0,0,.968-.971L34.65,42.581H57.634a.687.687,0,0,0,0-1.373H54.9V13.056ZM53.528,41.207H12.467V13.056h41.06Z" transform="translate(-7.677 -8.25)" fill="#fff" stroke="#fff" stroke-width="0.693"></path>
      <path id="Path_1107" data-name="Path 1107" d="M23.031,27.487A10.265,10.265,0,1,0,33.3,17.188,10.282,10.282,0,0,0,23.031,27.487Zm11.933.687h7.193a8.885,8.885,0,0,1-2.113,5.113l-5.085-5.1C34.954,28.179,34.956,28.173,34.965,28.173ZM24.4,27.487A8.919,8.919,0,0,1,32.612,18.6v9.175l6.465,6.486A8.886,8.886,0,0,1,24.4,27.487ZM42.158,26.8H33.981V18.6A8.911,8.911,0,0,1,42.158,26.8Z" transform="translate(-7.976 -8.262)" fill="#fff" stroke="#fff" stroke-width="0.693"></path>
    </g>
  </g>
</svg>
