<svg id="Icon-Team-Collab" xmlns="http://www.w3.org/2000/svg" xmlns:xlink="http://www.w3.org/1999/xlink" width="99.768" height="99.768" viewBox="0 0 99.768 99.768">
  <defs>
    <clipPath id="clip-path">
      <rect id="Rectangle_546" data-name="Rectangle 546" width="65.161" height="65.161" transform="translate(0 0)" fill="#fff"></rect>
    </clipPath>
  </defs>
  <path id="Ricoh_Ribbon_-_HW" data-name="Ricoh Ribbon - HW" d="M153.694,264.518h-7.541a1.483,1.483,0,0,1-1.482-1.483V181.215a2.976,2.976,0,0,0-2.967-2.979H58.4a2.982,2.982,0,0,0-2.977,2.979v83.3A2.98,2.98,0,0,0,58.4,267.5h81.813a1.487,1.487,0,0,1,1.5,1.489v7.538a1.473,1.473,0,0,0,1.475,1.48h10.515a1.483,1.483,0,0,0,1.492-1.48V266.008a1.491,1.491,0,0,0-1.492-1.489" transform="translate(-55.418 -178.236)" fill="#758cc5"></path>
  <g id="team-collaboration" transform="translate(13.271 13.275)" clip-path="url('#clip-path')">
    <g id="team-collaboration-2" data-name="team-collaboration" transform="translate(1.536 3.964)">
      <path id="Path_1108" data-name="Path 1108" d="M961.294,549.027h-1.355V541.99a.677.677,0,0,1,.367-.6c.668-.345,1.817-1.658,2-6.585a.678.678,0,0,1,.086-.305l2.615-4.671a.642.642,0,0,0,.04-.442.475.475,0,0,0-.251-.3.556.556,0,0,0-.766.185l-.006.01-2.505,4.451a.678.678,0,0,1-1.247-.5l1.682-6.664a.529.529,0,0,0-.058-.432.507.507,0,0,0-.341-.23.573.573,0,0,0-.477.047.5.5,0,0,0-.23.341l-1.441,5.773a.678.678,0,0,1-1.335-.164v-6.207a.582.582,0,0,0-.529-.587.569.569,0,0,0-.606.529c0,.013,0,.026,0,.038v6.664a.678.678,0,0,1-1.338.154l-1.431-6.166a.57.57,0,0,0-1.112.252l.009.034,1.735,7.377a.647.647,0,0,1,.016.2,15.616,15.616,0,0,1-.454,2.608.677.677,0,0,1-1.163.285.67.67,0,0,1-.123-.141,7.676,7.676,0,0,0-3.967-3.2.449.449,0,0,0-.365.034.531.531,0,0,0-.242.316.476.476,0,0,0,.336.584l.019,0c1.01.231,1.778,1.413,2.665,2.781l.074.115a12.014,12.014,0,0,0,3.875,4.2.678.678,0,0,1,.344.589v6.664h-1.355v-6.281a13.774,13.774,0,0,1-4-4.44l-.071-.11c-.637-.98-1.357-2.091-1.877-2.21a1.831,1.831,0,0,1-1.322-2.226c.005-.021.011-.041.017-.061a1.887,1.887,0,0,1,.864-1.1,1.78,1.78,0,0,1,1.412-.162,8.306,8.306,0,0,1,3.859,2.616.009.009,0,0,0,.01,0v0c.045-.277.084-.565.107-.853l-1.719-7.309a1.923,1.923,0,1,1,3.746-.873.349.349,0,0,1,.008.036l.075.321c.007.031.012.031.012,0v-.657a1.95,1.95,0,0,1,1.865-1.962,1.926,1.926,0,0,1,1.98,1.868c0,.019,0,.036,0,.054v.669c0,.029.005.03.012,0l.085-.335a1.842,1.842,0,0,1,.831-1.2,1.889,1.889,0,0,1,1.5-.222,1.829,1.829,0,0,1,1.188.829,1.886,1.886,0,0,1,.222,1.5l-.427,1.694c-.006.024,0,.027.011.005a.568.568,0,0,0,.057-.1,1.9,1.9,0,0,1,2.5-.635,1.819,1.819,0,0,1,.948,1.146,2.007,2.007,0,0,1-.147,1.444l-2.551,4.557c-.163,3.919-.936,6.332-2.359,7.351Z" transform="translate(-925.995 -491.716)" fill="#fff" stroke="#fff" stroke-width="0.656"></path>
      <path id="Path_1109" data-name="Path 1109" d="M929.914,534.343l-.639-1.194,6.164-3.3a.675.675,0,0,1,.707.042c1.043.73,3.469.234,6.655-1.36a.694.694,0,0,1,.312-.071l5.417.062a.568.568,0,0,0-.008-1.136l-5.051-.062a.678.678,0,0,1-.159-1.335l6.6-1.681a.568.568,0,0,0,.345-.269.481.481,0,0,0,.045-.375.586.586,0,0,0-.276-.373.48.48,0,0,0-.375-.044l-5.751,1.5a.677.677,0,0,1-.5-1.25l5.479-2.99a.563.563,0,1,0-.533-.992l-.024.013-5.838,3.106a.678.678,0,0,1-.766-1.107l4.732-4.173a.57.57,0,0,0,.185-.389.547.547,0,0,0-.122-.4.577.577,0,0,0-.388-.183.548.548,0,0,0-.4.122L940,521.489a.663.663,0,0,1-.161.1,9.8,9.8,0,0,1-2.609.8.678.678,0,0,1-.773-.566.7.7,0,0,1-.008-.1.738.738,0,0,1,.216-.521,7.715,7.715,0,0,0,.861-4.869.431.431,0,0,0-.213-.284.622.622,0,0,0-.426-.075.543.543,0,0,0-.341.635c.239,1.03-.417,2.28-1.174,3.729a12.364,12.364,0,0,0-1.863,5.454.679.679,0,0,1-.354.576l-5.854,3.177-.645-1.191,5.52-3a14.448,14.448,0,0,1,1.989-5.635c.559-1.07,1.187-2.266,1.057-2.828a1.894,1.894,0,0,1,1.4-2.249,1.989,1.989,0,0,1,1.38.236,1.752,1.752,0,0,1,.85,1.167,8.431,8.431,0,0,1-.49,4.665.006.006,0,0,0,.005.008h0c.274-.093.545-.2.817-.322l5.654-4.918a1.94,1.94,0,0,1,2.7.19,1.912,1.912,0,0,1,.453,1.391,1.931,1.931,0,0,1-.642,1.309l-.359.318c-.024.02-.02.025.007.01l.709-.377a1.917,1.917,0,0,1,1.8,3.383l-.567.31c-.025.013-.023.02.005.012l.1-.025a2.781,2.781,0,0,1,1.637.1,1.913,1.913,0,0,1,.921,1.185,1.813,1.813,0,0,1-.162,1.4,1.919,1.919,0,0,1-1.184.922l-1.591.406c-.022.005-.021.01,0,.011a1.924,1.924,0,0,1-.145,3.842l-5.262-.061c-3.438,1.7-5.964,2.168-7.516,1.4Z" transform="translate(-926.656 -492.012)" fill="#fff" stroke="#fff" stroke-width="0.656"></path>
      <path id="Path_1110" data-name="Path 1110" d="M982.247,537.517l-4.223-4.575a14.227,14.227,0,0,1-5.961-.519c-.819-.214-2.5-.65-3-.375a1.742,1.742,0,0,1-1.411.125,1.9,1.9,0,0,1-1.062-.89,1.743,1.743,0,0,1-.129-1.414,1.91,1.91,0,0,1,.89-1.063,8.294,8.294,0,0,1,4.606-.737s.007,0,.007-.006a0,0,0,0,0,0,0c-.158-.242-.329-.481-.513-.711l-6.206-4.241a1.956,1.956,0,0,1-.493-2.679c.573-.859,1.464-1.316,2.344-.728l.645.436c.026.018.029.013.008-.009l-.5-.545a1.864,1.864,0,0,1,.031-2.635c.017-.016.033-.032.05-.046a1.8,1.8,0,0,1,1.384-.541,2.016,2.016,0,0,1,1.317.6l.526.565c.02.021.025.018.011-.007l-.241-.439a2.026,2.026,0,0,1-.159-1.466,1.822,1.822,0,0,1,.949-1.147,2.007,2.007,0,0,1,1.444-.147,1.813,1.813,0,0,1,1.145.949l.842,1.525c.012.021.017.018.012,0,0,0-.005-.021-.007-.031a1.923,1.923,0,0,1,3.746-.867l1.211,5.086c1.509,1.7,3.734,4.677,3.248,6.995l4.477,4.89-1,.916-4.732-5.17a.676.676,0,0,1-.135-.693c.552-1.487-1.178-4.157-2.981-6.162a.671.671,0,0,1-.155-.3l-1.246-5.232a.585.585,0,0,0-.711-.424h0a.58.58,0,0,0-.388.707l1.175,4.883a.678.678,0,0,1-1.252.486l-3.3-5.979a.487.487,0,0,0-.314-.275.66.66,0,0,0-.471.056.468.468,0,0,0-.25.3.659.659,0,0,0,.056.471l2.852,5.209a.678.678,0,0,1-1.09.787L969.05,517.9a.645.645,0,0,0-.411-.19.472.472,0,0,0-.358.145.54.54,0,0,0-.085.76c.007.008.014.018.023.026l4.564,4.94a.678.678,0,0,1-.879,1.02l-5.23-3.55a.575.575,0,0,0-.676.931l6.3,4.3a.744.744,0,0,1,.143.13,14.43,14.43,0,0,1,1.44,2.223.677.677,0,0,1-.6,1,1.371,1.371,0,0,1-.216-.018,7.613,7.613,0,0,0-5.065.372.559.559,0,0,0-.256.3.4.4,0,0,0,.027.327.566.566,0,0,0,.307.263.4.4,0,0,0,.328-.027c.908-.5,2.342-.181,3.986.248a12.456,12.456,0,0,0,5.714.432.679.679,0,0,1,.653.2l4.483,4.857Z" transform="translate(-925.436 -492.023)" fill="#fff" stroke="#fff" stroke-width="0.656"></path>
      <path id="Path_1111" data-name="Path 1111" d="M966.081,516.777a1.586,1.586,0,0,1-.9-.215,1.813,1.813,0,0,1-.913-1.127,2.006,2.006,0,0,1,.148-1.445l.207-.388c.015-.029.01-.032-.011-.007l-.512.585a1.771,1.771,0,0,1-1.444.667,2,2,0,0,1-1.216-.448,1.955,1.955,0,0,1-.681-1.34,1.919,1.919,0,0,1,.454-1.392l.418-.474c.021-.024.017-.028-.008-.01l-.219.151a1.607,1.607,0,0,1-1.113.4,1.863,1.863,0,0,1-1.561-.862,1.958,1.958,0,0,1,.5-2.683l1.344-.926c.016-.011.013-.016-.006-.011a1.843,1.843,0,0,1-.525.061,2.037,2.037,0,0,1-1.876-1.36,1.958,1.958,0,0,1,1.126-2.5l4.977-1.761c2.7-2.818,4.852-4.115,6.593-3.946l4.358-5.008,1.021.89-4.607,5.294a.677.677,0,0,1-.674.212c-.725-.181-2.446.046-5.82,3.608a.683.683,0,0,1-.266.173l-5.1,1.805a.591.591,0,0,0-.337.75.692.692,0,0,0,.609.487.554.554,0,0,0,.221-.027l4.72-1.678a.678.678,0,0,1,.611,1.2l-5.6,3.861a.6.6,0,0,0-.133.81.526.526,0,0,0,.434.259.326.326,0,0,0,.2-.051.743.743,0,0,1,.094-.078l4.857-3.362a.677.677,0,0,1,.894,1l-4.109,4.671a.547.547,0,0,0-.122.4.578.578,0,0,0,.184.388.589.589,0,0,0,.363.143.444.444,0,0,0,.4-.181l4.44-5.069a.678.678,0,0,1,1.108.766l-2.989,5.6a.649.649,0,0,0-.047.455.466.466,0,0,0,.251.3.649.649,0,0,1,.073.042.917.917,0,0,0,.184.011.638.638,0,0,0,.533-.345l3.6-6.71a.654.654,0,0,1,.118-.158,12.024,12.024,0,0,1,2.108-1.65.676.676,0,0,1,1.041.572c0,.029,0,.12-.005.149a7.723,7.723,0,0,0,.884,5.012.488.488,0,1,0,.813-.54.055.055,0,0,0-.007-.01c-.562-.885-.388-2.277-.186-3.889l.016-.121a12.666,12.666,0,0,0-.157-5.743.678.678,0,0,1,.132-.661l4.358-4.982,1.02.892-4.11,4.7a14.408,14.408,0,0,1,.1,5.971l-.013.114c-.149,1.181-.316,2.52-.023,2.981a1.843,1.843,0,0,1-3.066,2.047,8.293,8.293,0,0,1-1.193-4.539.008.008,0,0,0-.007-.006h0c-.243.194-.464.39-.672.593l-3.562,6.636A2,2,0,0,1,966.081,516.777Z" transform="translate(-925.643 -492.718)" fill="#fff" stroke="#fff" stroke-width="0.656"></path>
      <path id="Path_1112" data-name="Path 1112" d="M950.689,515.718a1.864,1.864,0,0,1-1.709-.963l-.878-1.574c-.011-.021-.016-.019-.012,0l.021.078a1.955,1.955,0,0,1-1.353,2.29,1.232,1.232,0,0,1-.551.1,1.869,1.869,0,0,1-1.844-1.465l-1.26-5.037c-.713-.749-3.881-4.268-3.152-6.967l-4.512-4.805.989-.927,4.794,5.106a.678.678,0,0,1,.122.745c-.725,1.588,1.365,4.54,2.852,6.028a.687.687,0,0,1,.178.315l1.308,5.232a.53.53,0,0,0,.526.421.676.676,0,0,1,.133-.039.6.6,0,0,0,.448-.712.018.018,0,0,1,0-.007l-1.177-4.883a.678.678,0,0,1,1.251-.488l3.3,5.916a.513.513,0,0,0,.53.276.529.529,0,0,0,.246-.073.749.749,0,0,1,.073-.042.49.49,0,0,0,.245-.3.582.582,0,0,0-.035-.444l-2.865-5.17a.677.677,0,0,1,1.088-.79l4.235,4.546a.677.677,0,0,0,.862.01.585.585,0,0,0,0-.785l-4.53-4.84a.677.677,0,0,1,.871-1.026l5.293,3.55a.592.592,0,0,0,.308.072.625.625,0,0,0,.494-.259.6.6,0,0,0-.123-.8l-6.351-4.235a.66.66,0,0,1-.149-.135,14.257,14.257,0,0,1-1.44-2.222.678.678,0,0,1,.595-1,1.4,1.4,0,0,1,.217.018,7.61,7.61,0,0,0,5.064-.372.439.439,0,0,0,.216-.271.482.482,0,0,0-.049-.362.446.446,0,0,0-.274-.221.482.482,0,0,0-.362.048c-.893.487-2.264.19-3.853-.156l-.107-.023a11.74,11.74,0,0,0-5.721-.381.682.682,0,0,1-.669-.192l-4.544-4.857.989-.926,4.277,4.57a13.466,13.466,0,0,1,5.972.465l.092.021c1.1.24,2.465.537,2.911.293a1.823,1.823,0,0,1,1.378-.167,1.8,1.8,0,0,1,1.1.869,1.818,1.818,0,0,1,.169,1.381,1.8,1.8,0,0,1-.868,1.1,8.154,8.154,0,0,1-4.6.74.007.007,0,0,0-.007.007,0,0,0,0,0,0,0c.157.238.326.476.509.7l6.264,4.178a1.949,1.949,0,0,1-1.123,3.545,1.928,1.928,0,0,1-1.06-.3l-.329-.221c-.027-.018-.03-.013-.008.01l.46.492a1.941,1.941,0,0,1-.078,2.685.826.826,0,0,1-.072.063,2.164,2.164,0,0,1-1.278.447,1.957,1.957,0,0,1-1.414-.573l-.447-.48c-.02-.022-.025-.019-.01.007l.16.289a1.934,1.934,0,0,1,.145,1.5,1.84,1.84,0,0,1-.9,1.1A1.875,1.875,0,0,1,950.689,515.718Z" transform="translate(-926.373 -492.719)" fill="#fff" stroke="#fff" stroke-width="0.656"></path>
    </g>
  </g>
</svg>
