<svg id="Icon_user_first_design" xmlns="http://www.w3.org/2000/svg" xmlns:xlink="http://www.w3.org/1999/xlink" width="60" height="60" viewBox="0 0 60 60">
  <defs>
    <clipPath id="clip-path">
      <rect id="Rectangle_689" data-name="Rectangle 689" width="43" height="45" transform="translate(313 1178.425)"/>
    </clipPath>
  </defs>
  <path id="Path_273" data-name="Path 273" d="M114.521,230.126h-4.535a.892.892,0,0,1-.891-.892V180.027a1.79,1.79,0,0,0-1.784-1.791h-50.1a1.794,1.794,0,0,0-1.79,1.791v50.1a1.792,1.792,0,0,0,1.79,1.791h49.2a.894.894,0,0,1,.9.9v4.533a.886.886,0,0,0,.887.89h6.324a.892.892,0,0,0,.9-.89v-6.325a.9.9,0,0,0-.9-.9" transform="translate(-55.418 -178.236)" fill="#606cbf"/>
  <g id="Icon_2" transform="translate(-308 -1174.425)" clip-path="url(#clip-path)">
    <path id="Path_1419" data-name="Path 1419" d="M387.978,1230.536l-1.479-1.026a13.721,13.721,0,0,0-1.629-17.567,14,14,0,0,0-17.233-1.932,14.1,14.1,0,0,0-2.03,1.544l-1.215-1.328a15.7,15.7,0,0,1,10.643-4.128,15.658,15.658,0,0,1,11.1,4.566,15.521,15.521,0,0,1,1.84,19.87Z" transform="translate(-40.414 -20.994)" fill="#fff"/>
    <path id="Path_1420" data-name="Path 1420" d="M361.718,1222.732a1.011,1.011,0,1,1,.012-1.43A1.013,1.013,0,0,1,361.718,1222.732Z" transform="translate(-36.423 -32.167)" fill="#fff" fill-rule="evenodd"/>
    <path id="Path_1420_-_Outline" data-name="Path 1420 - Outline" d="M361.01,1223.921a1.9,1.9,0,0,1-1.361-.569,1.91,1.91,0,0,1,1.361-3.251,1.91,1.91,0,1,1,0,3.819Z" transform="translate(-36.423 -32.167)" fill="#fff"/>
    <path id="Path_1421" data-name="Path 1421" d="M361.061,1222.076a1.212,1.212,0,1,0-1.714-.014,1.214,1.214,0,0,0,1.714.014Zm-1.5-1.527a.928.928,0,1,1-.012,1.313.929.929,0,0,1,.012-1.313C359.927,1220.192,359.2,1220.909,359.562,1220.55Z" transform="translate(-35.625 -31.368)" fill="#8093dc" fill-rule="evenodd"/>
    <path id="Path_1421_-_Outline" data-name="Path 1421 - Outline" d="M360.211,1223.324h0a2.112,2.112,0,1,1,1.507-3.593,2.121,2.121,0,0,1,.313,2.555.9.9,0,0,1-.2.295l0,0h0l-.136.134h0l-.035.034-.1.1,0,0a1.03,1.03,0,0,1-.306.2A2.105,2.105,0,0,1,360.211,1223.324Z" transform="translate(-35.625 -31.368)" fill="#fff"/>
    <path id="Path_1422" data-name="Path 1422" d="M354.806,1262.924a15.658,15.658,0,0,1-11.1-4.566,15.521,15.521,0,0,1-1.84-19.87l1.479,1.026a13.721,13.721,0,0,0,1.629,17.567,14,14,0,0,0,17.233,1.932,14.117,14.117,0,0,0,2.03-1.544l1.215,1.328a15.918,15.918,0,0,1-2.291,1.743A15.75,15.75,0,0,1,354.806,1262.924Z" transform="translate(-20.463 -46.531)" fill="#fff"/>
    <path id="Path_1423" data-name="Path 1423" d="M457.365,1329.318a1.314,1.314,0,0,1,1.726.013,1.04,1.04,0,0,1-.016,1.569,1.313,1.313,0,0,1-1.726-.014,1.04,1.04,0,0,1,.015-1.569Z" transform="matrix(0.839, -0.545, 0.545, 0.839, -764.338, 345.829)" fill="#fff" fill-rule="evenodd"/>
    <path id="Path_1423_-_Outline" data-name="Path 1423 - Outline" d="M458.221,1328.1a2.175,2.175,0,0,1,1.48.568,1.94,1.94,0,0,1-.026,2.9,2.213,2.213,0,0,1-2.936-.023,1.94,1.94,0,0,1,.024-2.9l.256-.23h.055A2.2,2.2,0,0,1,458.221,1328.1Zm0,2.216a.39.39,0,0,0,.258-.089.171.171,0,0,0,.064-.119.16.16,0,0,0-.061-.117.386.386,0,0,0-.259-.091.391.391,0,0,0-.258.089l-.012.011a.159.159,0,0,0-.051.107.161.161,0,0,0,.061.117A.386.386,0,0,0,458.22,1330.317Z" transform="matrix(0.839, -0.545, 0.545, 0.839, -764.338, 345.829)" fill="#fff"/>
    <path id="Path_1425" data-name="Path 1425" d="M371.735,1248.81a19.793,19.793,0,0,1-11.244-3.476l1.018-1.484a18,18,0,0,0,23.293-27.227l1.3-1.245a19.912,19.912,0,0,1,2.447,3.129,19.8,19.8,0,0,1-16.814,30.3Z" transform="translate(-37.221 -28.176)" fill="#fff"/>
    <path id="Path_1426" data-name="Path 1426" d="M477.3,1212.9a1.189,1.189,0,0,1-.006-1.569.946.946,0,0,1,1.428-.006,1.189,1.189,0,0,1,.006,1.569A.946.946,0,0,1,477.3,1212.9Z" transform="translate(-129.794 -24.188)" fill="#fff" fill-rule="evenodd"/>
    <path id="Path_1426_-_Outline" data-name="Path 1426 - Outline" d="M478.01,1214.123a1.873,1.873,0,0,1-1.376-.615,2.083,2.083,0,0,1-.009-2.78,1.845,1.845,0,0,1,2.76-.01,2.082,2.082,0,0,1,.009,2.78A1.873,1.873,0,0,1,478.01,1214.123Zm0-2.221a.081.081,0,0,0-.049.031.291.291,0,0,0,0,.359.079.079,0,0,0,.048.031.081.081,0,0,0,.048-.031.29.29,0,0,0,0-.359A.08.08,0,0,0,478.01,1211.9Z" transform="translate(-129.794 -24.188)" fill="#fff"/>
    <path id="Path_1427" data-name="Path 1427" d="M476.357,1212.9a1.3,1.3,0,0,0,1.715-.006,1.051,1.051,0,0,0-.006-1.573,1.3,1.3,0,0,0-1.715.006,1.051,1.051,0,0,0,.006,1.573C476.831,1213.331,475.884,1212.468,476.357,1212.9Zm1.508-1.393a.8.8,0,0,1,0,1.2.988.988,0,0,1-1.312,0,.8.8,0,0,1-.005-1.2.988.988,0,0,1,1.312,0Z" transform="translate(-128.996 -24.186)" fill="#8093dc" fill-rule="evenodd"/>
    <path id="Path_1427_-_Outline" data-name="Path 1427 - Outline" d="M477.212,1214.122a2.2,2.2,0,0,1-1.013-.245.965.965,0,0,1-.315-.194h0l-.045-.041-.084-.076h0l0,0h0l-.107-.1-.017-.016-.005,0h0a1.014,1.014,0,0,1-.211-.282,1.932,1.932,0,0,1-.311-1.08,1.952,1.952,0,0,1,.641-1.42,2.2,2.2,0,0,1,2.93-.011,1.98,1.98,0,0,1,.652,1.452,1.908,1.908,0,0,1-.035.369l.353.884-.585-.268a2.007,2.007,0,0,1-.374.466A2.16,2.16,0,0,1,477.212,1214.122Z" transform="translate(-128.996 -24.186)" fill="#fff"/>
    <path id="Path_1428" data-name="Path 1428" d="M324.586,1218.533a19.931,19.931,0,0,1-2.447-3.129,19.832,19.832,0,0,1,28.058-26.828l-1.018,1.484a18,18,0,0,0-23.293,27.227Z" transform="translate(-4.502 -4.235)" fill="#fff"/>
    <path id="Path_1429" data-name="Path 1429" d="M342.721,1338.321a1.194,1.194,0,0,1,.006,1.573.949.949,0,0,1-1.428.006,1.194,1.194,0,0,1-.006-1.573A.949.949,0,0,1,342.721,1338.321Z" transform="translate(-21.261 -125.537)" fill="#fff" fill-rule="evenodd"/>
    <path id="Path_1429_-_Outline" data-name="Path 1429 - Outline" d="M342.01,1337.1a1.876,1.876,0,0,1,1.374.612,2.091,2.091,0,0,1,.012,2.784,1.849,1.849,0,0,1-2.76.013,2.091,2.091,0,0,1-.012-2.784A1.875,1.875,0,0,1,342.01,1337.1Zm0,2.222a.081.081,0,0,0,.049-.031.3.3,0,0,0,0-.363.078.078,0,0,0-.047-.028.082.082,0,0,0-.049.031.3.3,0,0,0,0,.363A.078.078,0,0,0,342.01,1339.322Z" transform="translate(-21.261 -125.537)" fill="#fff"/>
    <path id="Path_1430" data-name="Path 1430" d="M342.066,1338.321a1.3,1.3,0,0,0-1.715.006,1.05,1.05,0,0,0,.006,1.573,1.3,1.3,0,0,0,1.715-.006,1.051,1.051,0,0,0-.006-1.573C341.592,1337.891,342.54,1338.754,342.066,1338.321Zm-1.508,1.394a.8.8,0,0,1-.005-1.2.988.988,0,0,1,1.312,0,.8.8,0,0,1,.005,1.2.988.988,0,0,1-1.312,0Z" transform="translate(-20.463 -125.537)" fill="#8093dc" fill-rule="evenodd"/>
    <path id="Path_1430_-_Outline" data-name="Path 1430 - Outline" d="M341.212,1337.1a2.2,2.2,0,0,1,1.014.245.965.965,0,0,1,.315.193h0l.046.042.084.075h0l0,0h0l.107.1.017.016.006.005h0a1.016,1.016,0,0,1,.211.282,1.933,1.933,0,0,1,.311,1.079,1.952,1.952,0,0,1-.641,1.42,2.2,2.2,0,0,1-2.93.011,1.98,1.98,0,0,1-.653-1.451q0-.072.005-.144l-.251-.484.335.047a2,2,0,0,1,.552-.868A2.16,2.16,0,0,1,341.212,1337.1Z" transform="translate(-20.463 -125.537)" fill="#fff"/>
    <path id="Path_1431" data-name="Path 1431" d="M381.983,1251.206l-.7-.685a.559.559,0,0,0-.2-.125l-5.618-2.071a2.355,2.355,0,0,1-1.067-3.641c.486-.64,2.073-2.866,2.073-4.614a6.5,6.5,0,0,0-.3-1.947,4.657,4.657,0,0,0-3.97-3.2,3.839,3.839,0,0,0-.409-.023c-.081,0-.164,0-.244.01h-.007a4.666,4.666,0,0,0-4.091,3.212,6.526,6.526,0,0,0-.3,1.949c0,.441.15,2.077,2.073,4.614a2.355,2.355,0,0,1-1.065,3.64l-5.617,2.071a.6.6,0,0,0-.2.129l-.7.681-1.254-1.291.71-.69a2.379,2.379,0,0,1,.83-.52l5.613-2.069a.555.555,0,0,0,.256-.863c-.911-1.2-2.44-3.54-2.44-5.7a8.35,8.35,0,0,1,.388-2.494,6.451,6.451,0,0,1,5.675-4.462c.127-.01.255-.015.382-.015a5.662,5.662,0,0,1,.6.033,6.457,6.457,0,0,1,5.5,4.446,8.323,8.323,0,0,1,.387,2.492,7.606,7.606,0,0,1-.975,3.4,16.123,16.123,0,0,1-1.464,2.3.555.555,0,0,0,.258.864l5.613,2.069a2.333,2.333,0,0,1,.835.526l.7.683Z" transform="translate(-37.221 -42.541)" fill="#fff"/>
  </g>
</svg>
