<svg xmlns="http://www.w3.org/2000/svg" xmlns:xlink="http://www.w3.org/1999/xlink" width="60" height="60" viewBox="0 0 60 60">
  <defs>
    <clipPath id="clip-path">
      <rect id="Rectangle_1034" data-name="Rectangle 1034" width="39.006" height="29.894" fill="none" stroke="#707070" stroke-width="1.5"/>
    </clipPath>
  </defs>
  <g id="Customer-Survey_Stat_guest" transform="translate(0.213 -0.242)">
    <g id="Ricoh_Ribbon_-_Digital_WF" data-name="Ricoh Ribbon - Digital WF" transform="translate(-0.213 0.242)">
      <path id="Path_1007" data-name="Path 1007" d="M114.521,230.126h-4.535a.892.892,0,0,1-.891-.892V180.027a1.79,1.79,0,0,0-1.784-1.791h-50.1a1.794,1.794,0,0,0-1.79,1.791v50.1a1.792,1.792,0,0,0,1.79,1.791h49.2a.9.9,0,0,1,.9.9v4.533a.886.886,0,0,0,.887.89h6.324a.892.892,0,0,0,.9-.89v-6.325a.9.9,0,0,0-.9-.9" transform="translate(-55.418 -178.236)" fill="#606cbf"/>
    </g>
    <g id="Group_2668" data-name="Group 2668" transform="translate(7.337 11.573)">
      <g id="Group_2667" data-name="Group 2667" clip-path="url(#clip-path)">
        <path id="Path_2069" data-name="Path 2069" d="M6.879,22a4.069,4.069,0,0,1,4.064,4.064A4.791,4.791,0,0,1,9.794,29.1a3.829,3.829,0,0,1-2.916,1.449A3.828,3.828,0,0,1,3.964,29.1a4.791,4.791,0,0,1-1.149-3.042A4.069,4.069,0,0,1,6.879,22Zm0,7.056a2.359,2.359,0,0,0,1.772-.92,3.315,3.315,0,0,0,.792-2.072,2.564,2.564,0,1,0-5.128,0,3.316,3.316,0,0,0,.792,2.072A2.359,2.359,0,0,0,6.879,29.054Z" transform="translate(-1.034 -6.6)" fill="#fff"/>
        <path id="Path_2070" data-name="Path 2070" d="M11.562,39.98a.75.75,0,0,1-.75-.75v-2.2a2.066,2.066,0,0,0-2.248-1.807H3.937a2.066,2.066,0,0,0-2.248,1.807v2.2a.75.75,0,1,1-1.5,0v-2.2a3.552,3.552,0,0,1,3.748-3.307H8.565a3.552,3.552,0,0,1,3.748,3.307v2.2A.75.75,0,0,1,11.562,39.98Z" transform="translate(-0.272 -10.002)" fill="#fff"/>
        <path id="Path_2071" data-name="Path 2071" d="M26.22,22a4.069,4.069,0,0,1,4.064,4.064A4.791,4.791,0,0,1,29.135,29.1a3.657,3.657,0,0,1-5.831,0,4.791,4.791,0,0,1-1.149-3.042A4.069,4.069,0,0,1,26.22,22Zm0,7.056a2.359,2.359,0,0,0,1.772-.92,3.316,3.316,0,0,0,.792-2.072,2.564,2.564,0,1,0-5.128,0,3.316,3.316,0,0,0,.792,2.072A2.359,2.359,0,0,0,26.22,29.054Z" transform="translate(-6.646 -6.6)" fill="#fff"/>
        <path id="Path_2072" data-name="Path 2072" d="M30.9,39.98a.75.75,0,0,1-.75-.75v-2.2a2.066,2.066,0,0,0-2.248-1.807H23.278a2.066,2.066,0,0,0-2.248,1.807v2.2a.75.75,0,0,1-1.5,0v-2.2a3.552,3.552,0,0,1,3.748-3.307h4.628a3.552,3.552,0,0,1,3.748,3.307v2.2A.75.75,0,0,1,30.9,39.98Z" transform="translate(-5.884 -10.002)" fill="#fff"/>
        <path id="Path_2073" data-name="Path 2073" d="M15.478.189a4.069,4.069,0,0,1,4.064,4.064A4.791,4.791,0,0,1,18.393,7.3a3.829,3.829,0,0,1-2.916,1.449A3.828,3.828,0,0,1,12.563,7.3a4.791,4.791,0,0,1-1.149-3.042A4.069,4.069,0,0,1,15.478.189Zm0,7.056a2.359,2.359,0,0,0,1.772-.92,3.316,3.316,0,0,0,.792-2.072,2.564,2.564,0,1,0-5.128,0,3.316,3.316,0,0,0,.792,2.072A2.359,2.359,0,0,0,15.478,7.245Z" transform="translate(-3.529 -0.273)" fill="#fff"/>
        <path id="Path_2074" data-name="Path 2074" d="M20.162,18.171a.75.75,0,0,1-.75-.75v-2.2a2.066,2.066,0,0,0-2.248-1.807H12.537a2.066,2.066,0,0,0-2.248,1.807v2.2a.75.75,0,0,1-1.5,0v-2.2a3.552,3.552,0,0,1,3.748-3.307h4.628a3.552,3.552,0,0,1,3.748,3.307v2.2A.75.75,0,0,1,20.162,18.171Z" transform="translate(-2.767 -3.675)" fill="#fff"/>
        <path id="Path_2075" data-name="Path 2075" d="M34.819.189a4.069,4.069,0,0,1,4.064,4.064A4.791,4.791,0,0,1,37.734,7.3a3.657,3.657,0,0,1-5.831,0,4.791,4.791,0,0,1-1.149-3.042A4.069,4.069,0,0,1,34.819.189Zm0,7.056a2.358,2.358,0,0,0,1.771-.92,3.316,3.316,0,0,0,.792-2.072,2.564,2.564,0,1,0-5.128,0,3.316,3.316,0,0,0,.792,2.072A2.359,2.359,0,0,0,34.819,7.245Z" transform="translate(-9.14 -0.273)" fill="#fff"/>
        <path id="Path_2076" data-name="Path 2076" d="M39.5,18.171a.75.75,0,0,1-.75-.75v-2.2a2.066,2.066,0,0,0-2.248-1.807H31.878a2.066,2.066,0,0,0-2.248,1.807v2.2a.75.75,0,0,1-1.5,0v-2.2a3.552,3.552,0,0,1,3.748-3.307h4.628a3.552,3.552,0,0,1,3.748,3.307v2.2A.75.75,0,0,1,39.5,18.171Z" transform="translate(-8.379 -3.675)" fill="#fff"/>
        <path id="Path_2077" data-name="Path 2077" d="M44.984,22a4.069,4.069,0,0,1,4.064,4.064A4.791,4.791,0,0,1,47.9,29.1a3.657,3.657,0,0,1-5.831,0,4.791,4.791,0,0,1-1.149-3.042A4.069,4.069,0,0,1,44.984,22Zm0,7.056a2.359,2.359,0,0,0,1.772-.92,3.316,3.316,0,0,0,.792-2.072,2.564,2.564,0,1,0-5.128,0,3.316,3.316,0,0,0,.792,2.072A2.359,2.359,0,0,0,44.984,29.054Z" transform="translate(-12.089 -6.6)" fill="#fff"/>
        <path id="Path_2078" data-name="Path 2078" d="M49.667,39.98a.75.75,0,0,1-.75-.75v-2.2a2.066,2.066,0,0,0-2.248-1.807H42.042a2.066,2.066,0,0,0-2.248,1.807v2.2a.75.75,0,0,1-1.5,0v-2.2a3.552,3.552,0,0,1,3.748-3.307H46.67a3.552,3.552,0,0,1,3.748,3.307v2.2A.75.75,0,0,1,49.667,39.98Z" transform="translate(-11.328 -10.002)" fill="#fff"/>
      </g>
    </g>
  </g>
</svg>
