<svg id="Icon-Microphone" xmlns="http://www.w3.org/2000/svg" width="60.162" height="60.162" viewBox="0 0 60.162 60.162">
  <path id="Path_1198" data-name="Path 1198" d="M114.681,230.266h-4.548a.894.894,0,0,1-.894-.894v-49.34a1.8,1.8,0,0,0-1.789-1.8H57.213a1.8,1.8,0,0,0-1.8,1.8v50.234a1.8,1.8,0,0,0,1.8,1.8h49.335a.9.9,0,0,1,.9.9v4.545a.888.888,0,0,0,.89.892h6.341a.894.894,0,0,0,.9-.892v-6.342a.9.9,0,0,0-.9-.9" transform="translate(-55.418 -178.236)" fill="#758cc5"></path>
  <path id="Icon_awesome-microphone" data-name="Icon awesome-microphone" d="M11.943,22.722c3.6,0,5.429-2.288,5.429-5.886V5.979c0-3.6-1.831-6.062-5.429-6.062S6.514,2.382,6.514,5.979V16.837C6.514,20.434,8.345,22.722,11.943,22.722Zm10.857-9.7H21.714a1.085,1.085,0,0,0-1.086,1.086v3.257a8.7,8.7,0,0,1-9.554,8.644,8.949,8.949,0,0,1-7.818-9.03v-2.87a1.085,1.085,0,0,0-1.086-1.086H1.086A1.085,1.085,0,0,0,0,14.111v2.725A12.317,12.317,0,0,0,10.314,29.166v2.317h-3.8a1.085,1.085,0,0,0-1.086,1.086v1.086A1.085,1.085,0,0,0,6.514,34.74H17.371a1.085,1.085,0,0,0,1.086-1.086V32.569a1.085,1.085,0,0,0-1.086-1.086h-3.8V29.191A11.954,11.954,0,0,0,23.886,17.369V14.111A1.085,1.085,0,0,0,22.8,13.026Z" transform="translate(15.125 9.501)" fill="none" stroke="#fff" stroke-width="2"></path>
</svg>
