<svg id="Icon-Fixed-Monthly-Rate" xmlns="http://www.w3.org/2000/svg" width="60" height="60" viewBox="0 0 60 60">
  <path id="Path_273" data-name="Path 273" d="M114.521,230.126h-4.535a.892.892,0,0,1-.891-.892V180.027a1.79,1.79,0,0,0-1.784-1.791h-50.1a1.794,1.794,0,0,0-1.79,1.791v50.1a1.792,1.792,0,0,0,1.79,1.791h49.2a.894.894,0,0,1,.9.9v4.533a.886.886,0,0,0,.887.89h6.324a.892.892,0,0,0,.9-.89v-6.325a.9.9,0,0,0-.9-.9" transform="translate(-55.418 -178.236)" fill="#768ec7"></path>
  <g id="Group_2091" data-name="Group 2091" transform="translate(-93.672 -477.402)">
    <g id="Group_2311" data-name="Group 2311" transform="translate(101.922 487.001)">
      <path id="Path_1580" data-name="Path 1580" d="M-152.657-513.12h-22.1V-540.2h35.269v14.5" transform="translate(174.758 542.089)" fill="none" stroke="#fff" stroke-miterlimit="10" stroke-width="2" style="isolation: isolate"></path>
      <line id="Line_211" data-name="Line 211" x2="34.858" transform="translate(0.146 8.002)" fill="none" stroke="#fff" stroke-miterlimit="10" stroke-width="2" style="isolation: isolate"></line>
      <line id="Line_212" data-name="Line 212" x2="26.451" transform="translate(4.364 15.784)" fill="none" stroke="#fff" stroke-miterlimit="10" stroke-width="2" style="isolation: isolate"></line>
      <line id="Line_213" data-name="Line 213" x1="16.82" transform="translate(4.364 20.013)" fill="none" stroke="#fff" stroke-miterlimit="10" stroke-width="2" style="isolation: isolate"></line>
      <path id="Path_1581" data-name="Path 1581" d="M-150.947-511.48h-17.045v-13.9h26.924v5.8" transform="translate(172.131 536.334)" fill="none" stroke="#fff" stroke-miterlimit="10" stroke-width="2"></path>
      <line id="Line_214" data-name="Line 214" y2="5.353" transform="translate(4.814 0)" fill="none" stroke="#fff" stroke-miterlimit="10" stroke-width="2"></line>
      <line id="Line_215" data-name="Line 215" y2="13.47" transform="translate(9.087 11.169)" fill="none" stroke="#fff" stroke-miterlimit="10" stroke-width="2"></line>
      <line id="Line_216" data-name="Line 216" y2="13.47" transform="translate(13.316 11.169)" fill="none" stroke="#fff" stroke-miterlimit="10" stroke-width="2"></line>
      <line id="Line_217" data-name="Line 217" y2="13.47" transform="translate(17.499 11.169)" fill="none" stroke="#fff" stroke-miterlimit="10" stroke-width="2"></line>
      <path id="Path_1646" data-name="Path 1646" d="M0,0V14.656" transform="translate(21.728 11.169)" fill="none" stroke="#fff" stroke-width="2"></path>
      <line id="Line_219" data-name="Line 219" y1="5.065" transform="translate(26.092 11.168)" fill="none" stroke="#fff" stroke-miterlimit="10" stroke-width="2"></line>
      <line id="Line_220" data-name="Line 220" y2="5.353" transform="translate(30.275 0)" fill="none" stroke="#fff" stroke-miterlimit="10" stroke-width="2"></line>
      <ellipse id="Ellipse_37" data-name="Ellipse 37" cx="7.565" cy="7.565" rx="7.565" ry="7.565" transform="translate(24.369 18.95)" fill="none" stroke="#fff" stroke-miterlimit="10" stroke-width="2"></ellipse>
      <text id="_" data-name="$" transform="translate(29.517 29.081)" fill="#fff" font-size="9" font-family="SourceSansPro-Bold, Source Sans Pro" font-weight="700" style="isolation: isolate"><tspan x="0" y="0">$</tspan></text>
    </g>
  </g>
</svg>
