<svg id="Icon-Label-printer" xmlns="http://www.w3.org/2000/svg" width="60.162" height="60.162" viewBox="0 0 60.162 60.162">
  <path id="Path_1198" data-name="Path 1198" d="M114.681,230.266h-4.548a.894.894,0,0,1-.894-.894v-49.34a1.8,1.8,0,0,0-1.789-1.8H57.213a1.8,1.8,0,0,0-1.8,1.8v50.234a1.8,1.8,0,0,0,1.8,1.8h49.335a.9.9,0,0,1,.9.9v4.545a.888.888,0,0,0,.89.892h6.341a.894.894,0,0,0,.9-.892v-6.342a.9.9,0,0,0-.9-.9" transform="translate(-55.418 -178.236)" fill="#758cc5"></path>
  <g id="Icon_feather-printer" data-name="Icon feather-printer" transform="translate(9.399 8.181)">
    <path id="Path_1673" data-name="Path 1673" d="M9,13.5V3H27V13.5" fill="none" stroke="#fff" stroke-linecap="round" stroke-linejoin="round" stroke-width="2"></path>
    <path id="Path_1674" data-name="Path 1674" d="M9,27H6a3,3,0,0,1-3-3V16.5a3,3,0,0,1,3-3H30a3,3,0,0,1,3,3V24a3,3,0,0,1-3,3H27" fill="none" stroke="#fff" stroke-linecap="round" stroke-linejoin="round" stroke-width="2"></path>
    <path id="Path_1675" data-name="Path 1675" d="M9,21H27V33H9Z" fill="none" stroke="#fff" stroke-linecap="round" stroke-linejoin="round" stroke-width="2"></path>
  </g>
</svg>
