<svg id="Icon-IoT-Office-Module" xmlns="http://www.w3.org/2000/svg" width="60.146" height="60.146" viewBox="0 0 60.146 60.146">
  <g id="Group_1204" data-name="Group 1204">
    <path id="Path_273" data-name="Path 273" d="M114.664,230.252h-4.546a.894.894,0,0,1-.893-.894V180.032a1.794,1.794,0,0,0-1.789-1.8H57.213a1.8,1.8,0,0,0-1.795,1.8v50.22a1.8,1.8,0,0,0,1.795,1.8h49.322a.9.9,0,0,1,.9.9v4.544a.888.888,0,0,0,.889.892h6.339a.894.894,0,0,0,.9-.892v-6.34a.9.9,0,0,0-.9-.9" transform="translate(-55.418 -178.236)" fill="#768ec7"></path>
    <g id="Group_2313" data-name="Group 2313" transform="translate(10.051 6.852)">
      <ellipse id="Ellipse_39" data-name="Ellipse 39" cx="7.995" cy="7.995" rx="7.995" ry="7.995" transform="translate(9.104 11.003)" fill="none" stroke="#fff" stroke-miterlimit="10" stroke-width="2"></ellipse>
      <ellipse id="Ellipse_40" data-name="Ellipse 40" cx="2.653" cy="8.035" rx="2.653" ry="8.035" transform="translate(14.483 10.845)" fill="none" stroke="#fff" stroke-miterlimit="10" stroke-width="2"></ellipse>
      <ellipse id="Ellipse_41" data-name="Ellipse 41" cx="7.902" cy="2.653" rx="7.902" ry="2.653" transform="translate(9.223 16.072)" fill="none" stroke="#fff" stroke-miterlimit="10" stroke-width="2"></ellipse>
      <ellipse id="Ellipse_42" data-name="Ellipse 42" cx="2.85" cy="2.85" rx="2.85" ry="2.85" transform="translate(14.328 0)" fill="none" stroke="#fff" stroke-miterlimit="10" stroke-width="2"></ellipse>
      <line id="Line_224" data-name="Line 224" y2="1.267" transform="translate(17.172 2.216)" fill="none" stroke="#fff" stroke-miterlimit="10" stroke-width="1.5"></line>
      <ellipse id="Ellipse_43" data-name="Ellipse 43" cx="2.85" cy="2.85" rx="2.85" ry="2.85" transform="translate(28.656 8.391)" fill="none" stroke="#fff" stroke-miterlimit="10" stroke-width="2"></ellipse>
      <line id="Line_225" data-name="Line 225" y2="1.267" transform="translate(31.506 10.766)" fill="none" stroke="#fff" stroke-miterlimit="10" stroke-width="1.5"></line>
      <ellipse id="Ellipse_44" data-name="Ellipse 44" cx="2.85" cy="2.85" rx="2.85" ry="2.85" transform="translate(28.656 23.748)" fill="none" stroke="#fff" stroke-miterlimit="10" stroke-width="2"></ellipse>
      <line id="Line_226" data-name="Line 226" y2="1.267" transform="translate(31.506 26.123)" fill="none" stroke="#fff" stroke-miterlimit="10" stroke-width="1.5"></line>
      <ellipse id="Ellipse_45" data-name="Ellipse 45" cx="2.85" cy="2.85" rx="2.85" ry="2.85" transform="translate(14.328 32.139)" fill="none" stroke="#fff" stroke-miterlimit="10" stroke-width="2"></ellipse>
      <line id="Line_227" data-name="Line 227" y2="1.267" transform="translate(17.178 34.514)" fill="none" stroke="#fff" stroke-miterlimit="10" stroke-width="1.5"></line>
      <ellipse id="Ellipse_46" data-name="Ellipse 46" cx="2.85" cy="2.85" rx="2.85" ry="2.85" transform="translate(0 23.827)" fill="none" stroke="#fff" stroke-miterlimit="10" stroke-width="2"></ellipse>
      <line id="Line_228" data-name="Line 228" y2="1.267" transform="translate(2.85 26.202)" fill="none" stroke="#fff" stroke-miterlimit="10" stroke-width="1.5"></line>
      <ellipse id="Ellipse_47" data-name="Ellipse 47" cx="2.85" cy="2.85" rx="2.85" ry="2.85" transform="translate(0 8.391)" fill="none" stroke="#fff" stroke-miterlimit="10" stroke-width="2"></ellipse>
      <line id="Line_229" data-name="Line 229" y2="1.267" transform="translate(2.85 10.766)" fill="none" stroke="#fff" stroke-miterlimit="10" stroke-width="1.5"></line>
      <line id="Line_230" data-name="Line 230" y2="4.987" transform="translate(17.178 5.779)" fill="none" stroke="#fff" stroke-miterlimit="10" stroke-width="2.5"></line>
      <line id="Line_231" data-name="Line 231" y2="4.987" transform="translate(17.178 27.073)" fill="none" stroke="#fff" stroke-miterlimit="10" stroke-width="2.5"></line>
      <line id="Line_232" data-name="Line 232" y1="2.533" x2="4.512" transform="translate(24.302 12.666)" fill="none" stroke="#fff" stroke-miterlimit="10" stroke-width="2.5"></line>
      <line id="Line_233" data-name="Line 233" y1="2.533" x2="4.512" transform="translate(5.482 22.818)" fill="none" stroke="#fff" stroke-miterlimit="10" stroke-width="2.5"></line>
      <line id="Line_234" data-name="Line 234" x2="4.512" y2="2.553" transform="translate(5.541 12.614)" fill="none" stroke="#fff" stroke-miterlimit="10" stroke-width="2.5"></line>
      <line id="Line_235" data-name="Line 235" x2="4.512" y2="2.553" transform="translate(24.368 22.761)" fill="none" stroke="#fff" stroke-miterlimit="10" stroke-width="2.5"></line>
      <line id="Line_236" data-name="Line 236" x1="1.158" y2="1.158" transform="translate(11.345 3.439)" fill="none" stroke="#fff" stroke-miterlimit="10" stroke-width="1.5"></line>
      <line id="Line_237" data-name="Line 237" x1="1.158" y2="1.158" transform="translate(9.223 5.25)" fill="none" stroke="#fff" stroke-miterlimit="10" stroke-width="1.5"></line>
      <line id="Line_238" data-name="Line 238" x1="1.158" y2="1.158" transform="translate(7.026 7.728)" fill="none" stroke="#fff" stroke-miterlimit="10" stroke-width="1.5"></line>
      <line id="Line_239" data-name="Line 239" x2="1.158" y2="1.158" transform="translate(21.852 3.483)" fill="none" stroke="#fff" stroke-miterlimit="10" stroke-width="1.5"></line>
      <line id="Line_240" data-name="Line 240" x2="1.158" y2="1.158" transform="translate(24.303 5.699)" fill="none" stroke="#fff" stroke-miterlimit="10" stroke-width="1.5"></line>
      <line id="Line_241" data-name="Line 241" x2="1.158" y2="1.158" transform="translate(26.173 7.609)" fill="none" stroke="#fff" stroke-miterlimit="10" stroke-width="1.5"></line>
      <line id="Line_242" data-name="Line 242" x2="1.158" y2="1.158" transform="translate(6.447 29.769)" fill="none" stroke="#fff" stroke-miterlimit="10" stroke-width="1.5"></line>
      <line id="Line_243" data-name="Line 243" x2="1.158" y2="1.158" transform="translate(8.837 32.06)" fill="none" stroke="#fff" stroke-miterlimit="10" stroke-width="1.5"></line>
      <line id="Line_244" data-name="Line 244" x2="1.158" y2="1.158" transform="translate(11.119 34.41)" fill="none" stroke="#fff" stroke-miterlimit="10" stroke-width="1.5"></line>
      <line id="Line_245" data-name="Line 245" x1="1.158" y2="1.158" transform="translate(26.752 30.348)" fill="none" stroke="#fff" stroke-miterlimit="10" stroke-width="1.5"></line>
      <line id="Line_246" data-name="Line 246" x1="1.158" y2="1.158" transform="translate(25.028 32.06)" fill="none" stroke="#fff" stroke-miterlimit="10" stroke-width="1.5"></line>
      <line id="Line_247" data-name="Line 247" x1="1.158" y2="1.158" transform="translate(23.011 33.831)" fill="none" stroke="#fff" stroke-miterlimit="10" stroke-width="1.5"></line>
      <line id="Line_248" data-name="Line 248" y2="1.256" transform="translate(2.849 15.991)" fill="none" stroke="#fff" stroke-miterlimit="10" stroke-width="1.5"></line>
      <line id="Line_249" data-name="Line 249" y2="1.256" transform="translate(12.487 18.299)" fill="none" stroke="#fff" stroke-miterlimit="10" stroke-width="1.5"></line>
      <line id="Line_250" data-name="Line 250" y2="1.256" transform="translate(17.171 18.299)" fill="none" stroke="#fff" stroke-miterlimit="10" stroke-width="1.5"></line>
      <line id="Line_251" data-name="Line 251" y2="1.256" transform="translate(21.823 18.299)" fill="none" stroke="#fff" stroke-miterlimit="10" stroke-width="1.5"></line>
      <line id="Line_252" data-name="Line 252" y2="1.256" transform="translate(2.849 18.318)" fill="none" stroke="#fff" stroke-miterlimit="10" stroke-width="1.5"></line>
      <line id="Line_253" data-name="Line 253" y2="1.256" transform="translate(2.849 20.676)" fill="none" stroke="#fff" stroke-miterlimit="10" stroke-width="1.5"></line>
      <line id="Line_254" data-name="Line 254" y2="1.256" transform="translate(31.506 15.991)" fill="none" stroke="#fff" stroke-miterlimit="10" stroke-width="1.5"></line>
      <line id="Line_255" data-name="Line 255" y2="1.256" transform="translate(31.506 18.318)" fill="none" stroke="#fff" stroke-miterlimit="10" stroke-width="1.5"></line>
      <line id="Line_256" data-name="Line 256" y2="1.256" transform="translate(31.506 20.676)" fill="none" stroke="#fff" stroke-miterlimit="10" stroke-width="1.5"></line>
    </g>
  </g>
</svg>
