<svg id="Icon-End-to-end-Support" xmlns="http://www.w3.org/2000/svg" width="60.146" height="60.146" viewBox="0 0 60.146 60.146">
  <g id="Group_1204" data-name="Group 1204">
    <path id="Path_273" data-name="Path 273" d="M114.664,230.252h-4.546a.894.894,0,0,1-.893-.894V180.032a1.794,1.794,0,0,0-1.789-1.8H57.213a1.8,1.8,0,0,0-1.795,1.8v50.22a1.8,1.8,0,0,0,1.795,1.8h49.322a.9.9,0,0,1,.9.9v4.544a.888.888,0,0,0,.889.892h6.339a.894.894,0,0,0,.9-.892v-6.34a.9.9,0,0,0-.9-.9" transform="translate(-55.418 -178.236)" fill="#768ec7"></path>
    <g id="Group_2314" data-name="Group 2314" transform="translate(9.475 10.015)">
      <path id="Path_1587" data-name="Path 1587" d="M-212.043,7.224l-3.7,3.552-.33.24h-2.387a3.755,3.755,0,0,0-1.605.355,5.8,5.8,0,0,0-3.2,3.559,2.392,2.392,0,0,0-.1.672v1.888h.719l2.968-2.787,3.087,3.177-2.637,2.607v1.079h1.723a2.482,2.482,0,0,0,.594-.07,5.23,5.23,0,0,0,4.1-4.966l-.09-2.218,3.058-2.942" transform="translate(223.356 11.134)" fill="none" stroke="#fff" stroke-miterlimit="10" stroke-width="2"></path>
      <path id="Path_1588" data-name="Path 1588" d="M-213.478,18.774a3.507,3.507,0,0,1,3.507,3.507" transform="translate(218.783 5.114)" fill="none" stroke="#fff" stroke-miterlimit="10" stroke-width="2"></path>
      <path id="Path_1589" data-name="Path 1589" d="M-188.214-11.269l3.767-3.647.33-.24h2.387a3.759,3.759,0,0,0,1.605-.355,5.8,5.8,0,0,0,3.2-3.56,2.4,2.4,0,0,0,.095-.671V-21.63h-.719l-2.967,2.787-3.087-3.177,2.638-2.607v-1.079h-1.723a2.462,2.462,0,0,0-.595.07,5.231,5.231,0,0,0-4.1,4.966l.09,2.218s-3.476,3.538-4.754,4.787" transform="translate(209.714 25.706)" fill="none" stroke="#fff" stroke-miterlimit="10" stroke-width="2"></path>
      <path id="Path_1590" data-name="Path 1590" d="M-175.034-12.321a3.507,3.507,0,0,1-3.507-3.507" transform="translate(202.609 21.133)" fill="none" stroke="#fff" stroke-miterlimit="10" stroke-width="2"></path>
      <path id="Path_1591" data-name="Path 1591" d="M-195.749,8.455l12.369,12.369,2.138.06,2.2-2.118V16.447L-191.393,4.059Z" transform="translate(210.575 11.926)" fill="none" stroke="#fff" stroke-miterlimit="10" stroke-width="2"></path>
      <line id="Line_257" data-name="Line 257" x2="7.833" y2="7.833" transform="translate(18.373 20.856)" fill="none" stroke="#fff" stroke-miterlimit="10" stroke-width="1"></line>
      <line id="Line_258" data-name="Line 258" x2="7.873" y2="7.953" transform="translate(19.702 19.542)" fill="none" stroke="#fff" stroke-miterlimit="10" stroke-width="1"></line>
      <path id="Path_1592" data-name="Path 1592" d="M-196.557,6.892l-1.5-1.509,3.637-3.557L-192.96,3.3" transform="translate(211.333 12.65)" fill="none" stroke="#fff" stroke-miterlimit="10" stroke-width="2"></path>
      <path id="Path_1593" data-name="Path 1593" d="M-207.312-7.628-217.323-17.7l-2.278-.08-2.118-3.237,1.079-1.119,3.317,2.358.03,2.093" transform="translate(222.598 24.053)" fill="none" stroke="#fff" stroke-miterlimit="10" stroke-width="2"></path>
      <line id="Line_259" data-name="Line 259" y1="4.076" x2="4.116" transform="translate(26.136 27.869)" fill="none" stroke="#fff" stroke-miterlimit="10" stroke-width="2"></line>
      <line id="Line_260" data-name="Line 260" y2="1.218" transform="translate(3.317 28.689)" fill="none" stroke="#fff" stroke-miterlimit="10" stroke-width="1.5"></line>
      <line id="Line_261" data-name="Line 261" y2="1.218" transform="translate(29.651 2.658)" fill="none" stroke="#fff" stroke-miterlimit="10" stroke-width="1.5"></line>
    </g>
  </g>
</svg>
