<svg id="Icon-Specialised-Services" xmlns="http://www.w3.org/2000/svg" width="60.146" height="60.146" viewBox="0 0 60.146 60.146">
  <g id="Group_1204" data-name="Group 1204">
    <path id="Path_273" data-name="Path 273" d="M114.664,230.252h-4.546a.894.894,0,0,1-.893-.894V180.032a1.794,1.794,0,0,0-1.789-1.8H57.213a1.8,1.8,0,0,0-1.795,1.8v50.22a1.8,1.8,0,0,0,1.795,1.8h49.322a.9.9,0,0,1,.9.9v4.544a.888.888,0,0,0,.889.892h6.339a.894.894,0,0,0,.9-.892v-6.34a.9.9,0,0,0-.9-.9" transform="translate(-55.418 -178.236)" fill="#768ec7"></path>
    <g id="Group_2315" data-name="Group 2315" transform="translate(7.899 7.97)">
      <rect id="Rectangle_754" data-name="Rectangle 754" width="6.78" height="7.319" rx="3.39" transform="translate(3.703 1.006)" fill="none" stroke="#fff" stroke-miterlimit="10" stroke-width="2"></rect>
      <path id="Path_1594" data-name="Path 1594" d="M-207.7,96.209v21.038h-7.971V96.209" transform="translate(218.794 -80.385)" fill="none" stroke="#fff" stroke-miterlimit="10" stroke-width="2"></path>
      <line id="Line_262" data-name="Line 262" y2="12.414" transform="translate(7.106 24.253)" fill="none" stroke="#fff" stroke-miterlimit="10" stroke-width="2"></line>
      <line id="Line_263" data-name="Line 263" y2="1.307" transform="translate(7.106 20.594)" fill="none" stroke="#fff" stroke-miterlimit="10" stroke-width="2"></line>
      <line id="Line_264" data-name="Line 264" y2="1.307" transform="translate(7.106 18.242)" fill="none" stroke="#fff" stroke-miterlimit="10" stroke-width="2"></line>
      <path id="Path_1595" data-name="Path 1595" d="M-220.958,100.872V91.643a3.512,3.512,0,0,1,3.512-3.512h15.3" transform="translate(220.958 -77.076)" fill="none" stroke="#fff" stroke-miterlimit="10" stroke-width="2"></path>
      <path id="Path_1596" data-name="Path 1596" d="M-213.055,88.537l2.228,4.311a.191.191,0,0,0,.324,0l2.022-4.271" transform="translate(217.721 -77.242)" fill="none" stroke="#fff" stroke-miterlimit="10" stroke-width="2"></path>
      <line id="Line_265" data-name="Line 265" x2="5.588" transform="translate(13.204 15.37)" fill="none" stroke="#fff" stroke-miterlimit="10" stroke-width="2"></line>
      <rect id="Rectangle_755" data-name="Rectangle 755" width="14.417" height="8.494" rx="0.505" transform="translate(17.559 0)" fill="none" stroke="#fff" stroke-miterlimit="10" stroke-width="2"></rect>
      <line id="Line_266" data-name="Line 266" x2="7.405" transform="translate(19.781 3.093)" fill="none" stroke="#fff" stroke-miterlimit="10" stroke-width="2"></line>
      <line id="Line_267" data-name="Line 267" x2="9.701" transform="translate(19.781 5.575)" fill="none" stroke="#fff" stroke-miterlimit="10" stroke-width="2"></line>
      <line id="Line_268" data-name="Line 268" y2="9.103" transform="translate(24.703 9.09)" fill="none" stroke="#fff" stroke-miterlimit="10" stroke-width="2"></line>
      <path id="Path_1597" data-name="Path 1597" d="M-190.112,102.61v-1.894a.248.248,0,0,1,.248-.249h13.006a.248.248,0,0,1,.248.249v1.894" transform="translate(208.325 -82.128)" fill="none" stroke="#fff" stroke-miterlimit="10" stroke-width="2"></path>
      <rect id="Rectangle_756" data-name="Rectangle 756" width="9.408" height="5.686" rx="0.519" transform="translate(13.817 22.492)" fill="none" stroke="#fff" stroke-miterlimit="10" stroke-width="2"></rect>
      <line id="Line_269" data-name="Line 269" y2="1.307" transform="translate(17.302 24.701)" fill="none" stroke="#fff" stroke-miterlimit="10" stroke-width="2"></line>
      <line id="Line_270" data-name="Line 270" y2="1.307" transform="translate(19.744 24.701)" fill="none" stroke="#fff" stroke-miterlimit="10" stroke-width="2"></line>
      <rect id="Rectangle_757" data-name="Rectangle 757" width="9.408" height="5.686" rx="0.519" transform="translate(13.817 31.213)" fill="none" stroke="#fff" stroke-miterlimit="10" stroke-width="2"></rect>
      <line id="Line_271" data-name="Line 271" y2="1.307" transform="translate(17.302 33.422)" fill="none" stroke="#fff" stroke-miterlimit="10" stroke-width="2"></line>
      <line id="Line_272" data-name="Line 272" y2="1.307" transform="translate(19.744 33.422)" fill="none" stroke="#fff" stroke-miterlimit="10" stroke-width="2"></line>
      <line id="Line_273" data-name="Line 273" y2="2.784" transform="translate(18.478 28.199)" fill="none" stroke="#fff" stroke-miterlimit="10" stroke-width="2"></line>
      <rect id="Rectangle_758" data-name="Rectangle 758" width="9.408" height="5.686" rx="0.519" transform="translate(26.623 22.492)" fill="none" stroke="#fff" stroke-miterlimit="10" stroke-width="2"></rect>
      <line id="Line_274" data-name="Line 274" y2="1.307" transform="translate(30.108 24.701)" fill="none" stroke="#fff" stroke-miterlimit="10" stroke-width="2"></line>
      <line id="Line_275" data-name="Line 275" y2="1.307" transform="translate(32.55 24.701)" fill="none" stroke="#fff" stroke-miterlimit="10" stroke-width="2"></line>
      <rect id="Rectangle_759" data-name="Rectangle 759" width="9.408" height="5.686" rx="0.519" transform="translate(26.623 31.213)" fill="none" stroke="#fff" stroke-miterlimit="10" stroke-width="2"></rect>
      <line id="Line_276" data-name="Line 276" y2="1.307" transform="translate(30.108 33.422)" fill="none" stroke="#fff" stroke-miterlimit="10" stroke-width="2"></line>
      <line id="Line_277" data-name="Line 277" y2="1.307" transform="translate(32.55 33.422)" fill="none" stroke="#fff" stroke-miterlimit="10" stroke-width="2"></line>
      <line id="Line_278" data-name="Line 278" y2="2.784" transform="translate(31.284 28.199)" fill="none" stroke="#fff" stroke-miterlimit="10" stroke-width="2"></line>
      <path id="Path_1598" data-name="Path 1598" d="M-184.872,95.677" transform="translate(206.179 -80.167)" fill="none" stroke="#fff" stroke-miterlimit="10" stroke-width="2"></path>
      <path id="Path_1599" data-name="Path 1599" d="M-184.95,86.927" transform="translate(206.211 -76.583)" fill="none" stroke="#fff" stroke-miterlimit="10" stroke-width="2"></path>
      <line id="Line_279" data-name="Line 279" x2="0.034" y2="6.479" transform="translate(19.744 9.851)" fill="none" stroke="#fff" stroke-miterlimit="10" stroke-width="2"></line>
    </g>
  </g>
</svg>
