<svg id="Component_97_1" data-name="Component 97 – 1" xmlns="http://www.w3.org/2000/svg" width="111" height="111" viewBox="0 0 111 111">
  <path id="Path_273" data-name="Path 273" d="M164.758,274.233h-8.39a1.65,1.65,0,0,1-1.649-1.65V181.55a3.311,3.311,0,0,0-3.3-3.314H58.73a3.318,3.318,0,0,0-3.312,3.314v92.683a3.316,3.316,0,0,0,3.312,3.314h91.024a1.655,1.655,0,0,1,1.663,1.657v8.386a1.639,1.639,0,0,0,1.642,1.646h11.7a1.649,1.649,0,0,0,1.66-1.646v-11.7a1.659,1.659,0,0,0-1.66-1.657" transform="translate(-55.418 -178.236)" fill="#768ec7"></path>
  <g id="Group_2382" data-name="Group 2382" transform="translate(524.352 -1510.333)">
    <path id="Path_1663" data-name="Path 1663" d="M-484.218,1556.659h-18.026v-14.5a2.4,2.4,0,0,1,2.4-2.4h48.573a2.4,2.4,0,0,1,2.4,2.4v14.5l-17.775.076" transform="translate(0 0.595)" fill="none" stroke="#fff" stroke-miterlimit="10" stroke-width="2"></path>
    <rect id="Rectangle_894" data-name="Rectangle 894" width="23.872" height="4.162" transform="translate(-487.378 1532.615)" fill="none" stroke="#fff" stroke-miterlimit="10" stroke-width="2"></rect>
    <line id="Line_288" data-name="Line 288" y2="3.625" transform="translate(-484.721 1536.106)" fill="none" stroke="#fff" stroke-miterlimit="10" stroke-width="2"></line>
    <line id="Line_289" data-name="Line 289" y2="3.625" transform="translate(-466.091 1536.106)" fill="none" stroke="#fff" stroke-miterlimit="10" stroke-width="2"></line>
    <rect id="Rectangle_895" data-name="Rectangle 895" width="13.83" height="6.848" rx="0.901" transform="translate(-482.304 1553.696)" fill="none" stroke="#fff" stroke-miterlimit="10" stroke-width="2"></rect>
    <path id="Path_1664" data-name="Path 1664" d="M-468.355,1581.037h-29.807a.673.673,0,0,1-.673-.674v-24.57" transform="translate(0.284 1.931)" fill="none" stroke="#fff" stroke-miterlimit="10" stroke-width="2"></path>
    <rect id="Rectangle_896" data-name="Rectangle 896" width="17.59" height="20.947" rx="0.381" transform="translate(-465.923 1562.155)" fill="none" stroke="#fff" stroke-miterlimit="10" stroke-width="2"></rect>
    <line id="Line_290" data-name="Line 290" x2="17.59" transform="translate(-465.923 1568.399)" fill="none" stroke="#fff" stroke-miterlimit="10" stroke-width="2"></line>
    <g id="Group_2374" data-name="Group 2374" transform="translate(-461.467 1571.151)">
      <g id="Group_2365" data-name="Group 2365">
        <rect id="Rectangle_897" data-name="Rectangle 897" width="1.427" height="1.511" fill="#fff"></rect>
      </g>
      <g id="Group_2366" data-name="Group 2366" transform="translate(0 3.726)">
        <rect id="Rectangle_898" data-name="Rectangle 898" width="1.427" height="1.511" fill="#fff"></rect>
      </g>
      <g id="Group_2367" data-name="Group 2367" transform="translate(0 7.452)">
        <rect id="Rectangle_899" data-name="Rectangle 899" width="1.427" height="1.511" fill="#fff"></rect>
      </g>
      <g id="Group_2368" data-name="Group 2368" transform="translate(3.625)">
        <rect id="Rectangle_900" data-name="Rectangle 900" width="1.427" height="1.511" fill="#fff"></rect>
      </g>
      <g id="Group_2369" data-name="Group 2369" transform="translate(3.625 3.726)">
        <rect id="Rectangle_901" data-name="Rectangle 901" width="1.427" height="1.511" fill="#fff"></rect>
      </g>
      <g id="Group_2370" data-name="Group 2370" transform="translate(3.625 7.452)">
        <rect id="Rectangle_902" data-name="Rectangle 902" width="1.427" height="1.511" fill="#fff"></rect>
      </g>
      <g id="Group_2371" data-name="Group 2371" transform="translate(7.251)">
        <rect id="Rectangle_903" data-name="Rectangle 903" width="1.427" height="1.511" fill="#fff"></rect>
      </g>
      <g id="Group_2372" data-name="Group 2372" transform="translate(7.251 3.726)">
        <rect id="Rectangle_904" data-name="Rectangle 904" width="1.427" height="1.511" fill="#fff"></rect>
      </g>
      <g id="Group_2373" data-name="Group 2373" transform="translate(7.251 7.452)">
        <rect id="Rectangle_905" data-name="Rectangle 905" width="1.427" height="1.511" fill="#fff"></rect>
      </g>
    </g>
    <g id="Group_2380" data-name="Group 2380" transform="translate(-463.481 1564.807)">
      <g id="Group_2375" data-name="Group 2375">
        <rect id="Rectangle_906" data-name="Rectangle 906" width="1.427" height="1.511" fill="#fff"></rect>
      </g>
      <g id="Group_2376" data-name="Group 2376" transform="translate(2.87)">
        <rect id="Rectangle_907" data-name="Rectangle 907" width="1.427" height="1.511" fill="#fff"></rect>
      </g>
      <g id="Group_2377" data-name="Group 2377" transform="translate(5.74)">
        <rect id="Rectangle_908" data-name="Rectangle 908" width="1.427" height="1.511" fill="#fff"></rect>
      </g>
      <g id="Group_2378" data-name="Group 2378" transform="translate(8.61)">
        <rect id="Rectangle_909" data-name="Rectangle 909" width="1.427" height="1.511" fill="#fff"></rect>
      </g>
      <g id="Group_2379" data-name="Group 2379" transform="translate(11.48)">
        <rect id="Rectangle_910" data-name="Rectangle 910" width="1.427" height="1.511" fill="#fff"></rect>
      </g>
    </g>
    <g id="Group_2381" data-name="Group 2381" transform="translate(-453.158 1557.858)">
      <rect id="Rectangle_911" data-name="Rectangle 911" width="1.427" height="1.964" fill="#fff"></rect>
    </g>
  </g>
</svg>
