<svg id="Component_98_1" data-name="Component 98 – 1" xmlns="http://www.w3.org/2000/svg" width="111" height="111" viewBox="0 0 111 111">
  <path id="Path_273" data-name="Path 273" d="M164.758,274.233h-8.39a1.65,1.65,0,0,1-1.649-1.65V181.55a3.311,3.311,0,0,0-3.3-3.314H58.73a3.318,3.318,0,0,0-3.312,3.314v92.683a3.316,3.316,0,0,0,3.312,3.314h91.024a1.655,1.655,0,0,1,1.663,1.657v8.386a1.639,1.639,0,0,0,1.642,1.646h11.7a1.649,1.649,0,0,0,1.66-1.646v-11.7a1.659,1.659,0,0,0-1.66-1.657" transform="translate(-55.418 -178.236)" fill="#768ec7"></path>
  <g id="Group_2384" data-name="Group 2384" transform="translate(448.085 -1505.583)">
    <path id="Path_1648" data-name="Path 1648" d="M-376.078,1557.591a20.984,20.984,0,0,1-6.976,15.648l5.63,5.626a28.915,28.915,0,0,0,9.3-21.274Z" fill="none" stroke="#fff" stroke-miterlimit="10" stroke-width="2"></path>
    <path id="Path_1649" data-name="Path 1649" d="M-406.084,1538.55a20.957,20.957,0,0,1,8.965-2v-7.95a28.89,28.89,0,0,0-11.535,2.385Z" fill="none" stroke="#fff" stroke-miterlimit="10" stroke-width="2"></path>
    <path id="Path_1650" data-name="Path 1650" d="M-410.5,1541.355a21,21,0,0,0-7.656,16.236,21.04,21.04,0,0,0,21.04,21.04,20.953,20.953,0,0,0,9.4-2.213l6.206,5.607a28.858,28.858,0,0,1-15.609,4.557,28.991,28.991,0,0,1-28.991-28.991,28.952,28.952,0,0,1,11.955-23.46Z" fill="none" stroke="#fff" stroke-miterlimit="10" stroke-width="2"></path>
    <path id="Path_1651" data-name="Path 1651" d="M-372.2,1557.776" fill="none" stroke="#fff" stroke-miterlimit="10" stroke-width="2" stroke-dasharray="2.5"></path>
    <path id="Path_1652" data-name="Path 1652" d="M-397.119,1532.77" fill="none" stroke="#fff" stroke-miterlimit="10" stroke-width="2" stroke-dasharray="2.5"></path>
    <path id="Path_1653" data-name="Path 1653" d="M-397.119,1582.366a24.59,24.59,0,0,1-24.59-24.59,24.488,24.488,0,0,1,2.321-10.441" fill="none" stroke="#fff" stroke-miterlimit="10" stroke-width="2" stroke-dasharray="2 2"></path>
    <path id="Path_1654" data-name="Path 1654" d="M-378.2,1535.1l-.882.882-4.715,4.715-.935.935a21.223,21.223,0,0,0-1.877-1.317.844.844,0,0,1-.131-.085l6.677-6.677c.428.309.862.638,1.31.994Z" fill="#fff" style="isolation: isolate"></path>
    <path id="Path_1655" data-name="Path 1655" d="M-381.3,1532.714l-.955.955-4.846,4.847-.975.974a19.827,19.827,0,0,0-2.1-.922c-.1-.039-.191-.072-.283-.1l1.021-1.021,5.011-5.011.981-.981c.659.349,1.35.751,2.022,1.185C-381.391,1532.662-381.345,1532.688-381.3,1532.714Z" fill="#fff" style="isolation: isolate"></path>
    <path id="Path_1656" data-name="Path 1656" d="M-384.683,1530.93l-6.289,6.288-1.093-1.086-.033-1.192,1.284-1.284,2.766-2.772,1.027-1.027c.441.158.915.349,1.422.566.251.1.494.217.745.336Z" fill="#fff" style="isolation: isolate"></path>
    <path id="Path_1657" data-name="Path 1657" d="M-388.9,1529.5l-2.443,2.932-.171-.205-.085-3.58.032-.04a24.562,24.562,0,0,1,2.569.775Z" fill="#fff" style="isolation: isolate"></path>
    <path id="Path_1658" data-name="Path 1658" d="M-375.524,1537.574l-.935.935-5.617,5.617c-.013-.013-.026-.02-.033-.033l-.085-.1a21.3,21.3,0,0,0-1.561-1.534.108.108,0,0,0-.033-.026l.935-.935,4.7-4.7.935-.935C-376.663,1536.382-376.1,1536.955-375.524,1537.574Z" fill="#fff" style="isolation: isolate"></path>
    <path id="Path_1659" data-name="Path 1659" d="M-373.134,1540.524l-.948.948-4.78,4.787-.962.962-.079-.139-.092-.164a18.337,18.337,0,0,0-1.211-1.719l5.656-5.656.895-.9.4.4Z" fill="#fff" style="isolation: isolate"></path>
    <path id="Path_1660" data-name="Path 1660" d="M-371.079,1543.869l-7.019,7.019a2.35,2.35,0,0,0-.1-.289,18.542,18.542,0,0,0-.922-2.1l6.7-6.7.356.355.046.079Z" fill="#fff" style="isolation: isolate"></path>
    <path id="Path_1661" data-name="Path 1661" d="M-369.492,1547.438l-4.741,4.741-1.225-.026-1.08-1.08.257-.257,4.794-4.794.955-.948.111.112c.014.02.02.046.033.066.237.52.422.941.573,1.343l.04.1C-369.663,1546.964-369.571,1547.208-369.492,1547.438Z" fill="#fff" style="isolation: isolate"></path>
    <path id="Path_1662" data-name="Path 1662" d="M-368.459,1551.139l-2.18-.046-.237-.237,1.87-1.876c.014.039.027.085.04.125C-368.775,1549.776-368.6,1550.455-368.459,1551.139Z" fill="#fff" style="isolation: isolate"></path>
  </g>
</svg>
