<svg id="Icon-Video-conferencing-camera" xmlns="http://www.w3.org/2000/svg" xmlns:xlink="http://www.w3.org/1999/xlink" width="60.162" height="60.162" viewBox="0 0 60.162 60.162">
  <defs>
    <clipPath id="clip-path">
      <rect id="Rectangle_919" data-name="Rectangle 919" width="34.819" height="39.153" fill="#fff"></rect>
    </clipPath>
  </defs>
  <path id="Path_1198" data-name="Path 1198" d="M114.681,230.266h-4.548a.894.894,0,0,1-.894-.894v-49.34a1.8,1.8,0,0,0-1.789-1.8H57.213a1.8,1.8,0,0,0-1.8,1.8v50.234a1.8,1.8,0,0,0,1.8,1.8h49.335a.9.9,0,0,1,.9.9v4.545a.888.888,0,0,0,.89.892h6.341a.894.894,0,0,0,.9-.892v-6.342a.9.9,0,0,0-.9-.9" transform="translate(-55.418 -178.236)" fill="#758cc5"></path>
  <g id="Group_2436" data-name="Group 2436" transform="translate(13 10.278)">
    <g id="Group_2435" data-name="Group 2435" transform="translate(-3 -2)" clip-path="url('#clip-path')">
      <path id="Path_1676" data-name="Path 1676" d="M20.785,26.827a9.089,9.089,0,0,1,2.288,6.965H5.306a9.055,9.055,0,0,1,2.276-6.95C2.723,23.969.017,19.8,0,14.11A13.572,13.572,0,0,1,4.642,3.7,14.219,14.219,0,1,1,20.785,26.827M1.957,14.228A12.231,12.231,0,1,0,14.12,1.986,12.26,12.26,0,0,0,1.957,14.228M21.043,31.82A6.572,6.572,0,0,0,19.029,27.9a.693.693,0,0,0-.572-.129,14.472,14.472,0,0,1-8.517.006.757.757,0,0,0-.623.156A6.587,6.587,0,0,0,7.33,31.82Z" transform="translate(3.217 2.144)" fill="#fff"></path>
      <path id="Path_1677" data-name="Path 1677" d="M79.752,74.9a4.943,4.943,0,1,1-4.924-4.977A4.953,4.953,0,0,1,79.752,74.9m-4.936,2.949a2.968,2.968,0,1,0-2.976-2.977,2.977,2.977,0,0,0,2.976,2.977" transform="translate(-57.404 -58.524)" fill="#fff"></path>
      <path id="Path_1678" data-name="Path 1678" d="M143.566,55.212a1.3,1.3,0,1,1,1.295-1.308,1.3,1.3,0,0,1-1.295,1.308" transform="translate(-120.185 -43.507)" fill="#fff"></path>
    </g>
  </g>
</svg>
