<svg xmlns="http://www.w3.org/2000/svg" width="100" height="100" viewBox="0 0 100 100">
  <g id="Group_1284" data-name="Group 1284" transform="translate(0 0)">
    <g id="Group_2056" data-name="Group 2056" transform="translate(-971.728 -2469.579)">
      <path id="Path_1326" data-name="Path 1326" d="M153.923,264.719h-7.559a1.487,1.487,0,0,1-1.485-1.486V181.222a2.983,2.983,0,0,0-2.974-2.986H58.4a2.989,2.989,0,0,0-2.984,2.986v83.5A2.987,2.987,0,0,0,58.4,267.7h82a1.491,1.491,0,0,1,1.5,1.493v7.555a1.476,1.476,0,0,0,1.479,1.483h10.539a1.486,1.486,0,0,0,1.5-1.483V266.212a1.494,1.494,0,0,0-1.5-1.493" transform="translate(916.31 2291.343)" fill="#8fc740"></path>
      <g id="RICOH_organisation_001" transform="translate(984.836 2499.493)">
        <path id="Path_1320" data-name="Path 1320" d="M377.9,115.3v36.324h12.792V129.268Z" transform="translate(-362.74 -115.3)" fill="none" stroke="#fff" stroke-miterlimit="10" stroke-width="1.5"></path>
        <path id="Path_1321" data-name="Path 1321" d="M284.509,150.9H277.9v3.134" transform="translate(-271.257 -147.868)" fill="none" stroke="#fff" stroke-miterlimit="10" stroke-width="1.5"></path>
        <path id="Path_1322" data-name="Path 1322" d="M213.518,191.5H199.9v29.835h13.84" transform="translate(-199.9 -185.01)" fill="none" stroke="#fff" stroke-miterlimit="10" stroke-width="1.5"></path>
        <rect id="Rectangle_706" data-name="Rectangle 706" width="2.759" height="4.463" transform="translate(9.215 9.939)" fill="none" stroke="#fff" stroke-miterlimit="10" stroke-width="1.5"></rect>
        <rect id="Rectangle_707" data-name="Rectangle 707" width="2.759" height="4.463" transform="translate(2.836 9.939)" fill="none" stroke="#fff" stroke-miterlimit="10" stroke-width="1.5"></rect>
        <rect id="Rectangle_708" data-name="Rectangle 708" width="2.759" height="4.463" transform="translate(9.215 17.553)" fill="none" stroke="#fff" stroke-miterlimit="10" stroke-width="1.5"></rect>
        <rect id="Rectangle_709" data-name="Rectangle 709" width="2.759" height="4.463" transform="translate(2.836 17.553)" fill="none" stroke="#fff" stroke-miterlimit="10" stroke-width="1.5"></rect>
        <rect id="Rectangle_710" data-name="Rectangle 710" width="2.759" height="4.463" transform="translate(9.215 25.321)" fill="none" stroke="#fff" stroke-miterlimit="10" stroke-width="1.5"></rect>
        <path id="Path_1323" data-name="Path 1323" d="M433.232,472.832H424.4V470.2h8.832" transform="translate(-405.28 -439.974)" fill="none" stroke="#fff" stroke-miterlimit="10" stroke-width="1.5"></path>
        <path id="Path_1324" data-name="Path 1324" d="M433.232,407.332H424.4V404.7h8.832" transform="translate(-405.28 -380.052)" fill="none" stroke="#fff" stroke-miterlimit="10" stroke-width="1.5"></path>
        <path id="Path_1325" data-name="Path 1325" d="M433.232,341.732H424.4V339.1h8.832" transform="translate(-405.28 -320.039)" fill="none" stroke="#fff" stroke-miterlimit="10" stroke-width="1.5"></path>
        <line id="Line_187" data-name="Line 187" x1="8.832" transform="translate(19.12 16.114)" fill="none" stroke="#fff" stroke-miterlimit="10" stroke-width="1.5"></line>
        <rect id="Rectangle_711" data-name="Rectangle 711" width="2.759" height="4.463" transform="translate(2.836 25.321)" fill="none" stroke="#fff" stroke-miterlimit="10" stroke-width="1.5"></rect>
      </g>
      <g id="RICOH_organisation_001-2" data-name="RICOH_organisation_001" transform="translate(1017.618 2512.924)">
        <path id="Path_1320-2" data-name="Path 1320" d="M377.9,115.3v36.324h12.792V129.268Z" transform="translate(-362.74 -115.3)" fill="none" stroke="#fff" stroke-miterlimit="10" stroke-width="1.5"></path>
        <path id="Path_1321-2" data-name="Path 1321" d="M284.509,150.9H277.9v3.134" transform="translate(-271.257 -147.868)" fill="none" stroke="#fff" stroke-miterlimit="10" stroke-width="1.5"></path>
        <path id="Path_1322-2" data-name="Path 1322" d="M213.518,191.5H199.9v29.835h13.84" transform="translate(-199.9 -185.01)" fill="none" stroke="#fff" stroke-miterlimit="10" stroke-width="1.5"></path>
        <rect id="Rectangle_706-2" data-name="Rectangle 706" width="2.759" height="4.463" transform="translate(9.215 9.939)" fill="none" stroke="#fff" stroke-miterlimit="10" stroke-width="1.5"></rect>
        <rect id="Rectangle_707-2" data-name="Rectangle 707" width="2.759" height="4.463" transform="translate(2.836 9.939)" fill="none" stroke="#fff" stroke-miterlimit="10" stroke-width="1.5"></rect>
        <rect id="Rectangle_708-2" data-name="Rectangle 708" width="2.759" height="4.463" transform="translate(9.215 17.553)" fill="none" stroke="#fff" stroke-miterlimit="10" stroke-width="1.5"></rect>
        <rect id="Rectangle_709-2" data-name="Rectangle 709" width="2.759" height="4.463" transform="translate(2.836 17.553)" fill="none" stroke="#fff" stroke-miterlimit="10" stroke-width="1.5"></rect>
        <rect id="Rectangle_710-2" data-name="Rectangle 710" width="2.759" height="4.463" transform="translate(9.215 25.321)" fill="none" stroke="#fff" stroke-miterlimit="10" stroke-width="1.5"></rect>
        <path id="Path_1323-2" data-name="Path 1323" d="M433.232,472.832H424.4V470.2h8.832" transform="translate(-405.28 -439.974)" fill="none" stroke="#fff" stroke-miterlimit="10" stroke-width="1.5"></path>
        <path id="Path_1324-2" data-name="Path 1324" d="M433.232,407.332H424.4V404.7h8.832" transform="translate(-405.28 -380.052)" fill="none" stroke="#fff" stroke-miterlimit="10" stroke-width="1.5"></path>
        <path id="Path_1325-2" data-name="Path 1325" d="M433.232,341.732H424.4V339.1h8.832" transform="translate(-405.28 -320.039)" fill="none" stroke="#fff" stroke-miterlimit="10" stroke-width="1.5"></path>
        <line id="Line_187-2" data-name="Line 187" x1="8.832" transform="translate(19.12 16.114)" fill="none" stroke="#fff" stroke-miterlimit="10" stroke-width="1.5"></line>
        <rect id="Rectangle_711-2" data-name="Rectangle 711" width="2.759" height="4.463" transform="translate(2.836 25.321)" fill="none" stroke="#fff" stroke-miterlimit="10" stroke-width="1.5"></rect>
      </g>
      <g id="RICOH_organisation_001-3" data-name="RICOH_organisation_001" transform="translate(1017.617 2477)" opacity="0.48">
        <path id="Path_1320-3" data-name="Path 1320" d="M377.9,115.3v31.016h10.923v-19.09Z" transform="translate(-364.956 -115.3)" fill="none" stroke="#fff" stroke-miterlimit="10" stroke-width="1.5"></path>
        <path id="Path_1321-3" data-name="Path 1321" d="M283.543,150.9H277.9v2.676" transform="translate(-272.228 -148.311)" fill="none" stroke="#fff" stroke-miterlimit="10" stroke-width="1.5"></path>
        <path id="Path_1322-3" data-name="Path 1322" d="M211.528,191.5H199.9v25.474h11.817" transform="translate(-199.9 -185.959)" fill="none" stroke="#fff" stroke-miterlimit="10" stroke-width="1.5"></path>
        <rect id="Rectangle_706-3" data-name="Rectangle 706" width="2.356" height="3.811" transform="translate(7.869 8.487)" fill="none" stroke="#fff" stroke-miterlimit="10" stroke-width="1.5"></rect>
        <rect id="Rectangle_707-3" data-name="Rectangle 707" width="2.356" height="3.811" transform="translate(2.422 8.487)" fill="none" stroke="#fff" stroke-miterlimit="10" stroke-width="1.5"></rect>
        <rect id="Rectangle_708-3" data-name="Rectangle 708" width="2.356" height="3.811" transform="translate(7.869 14.988)" fill="none" stroke="#fff" stroke-miterlimit="10" stroke-width="1.5"></rect>
        <rect id="Rectangle_709-3" data-name="Rectangle 709" width="2.356" height="3.811" transform="translate(2.422 14.988)" fill="none" stroke="#fff" stroke-miterlimit="10" stroke-width="1.5"></rect>
        <rect id="Rectangle_710-3" data-name="Rectangle 710" width="2.356" height="3.811" transform="translate(7.869 21.62)" fill="none" stroke="#fff" stroke-miterlimit="10" stroke-width="1.5"></rect>
        <path id="Path_1323-3" data-name="Path 1323" d="M431.941,472.447H424.4V470.2h7.541" transform="translate(-408.074 -444.391)" fill="none" stroke="#fff" stroke-miterlimit="10" stroke-width="1.5"></path>
        <path id="Path_1324-3" data-name="Path 1324" d="M431.941,406.947H424.4V404.7h7.541" transform="translate(-408.074 -383.654)" fill="none" stroke="#fff" stroke-miterlimit="10" stroke-width="1.5"></path>
        <path id="Path_1325-3" data-name="Path 1325" d="M431.941,341.347H424.4V339.1h7.541" transform="translate(-408.074 -322.825)" fill="none" stroke="#fff" stroke-miterlimit="10" stroke-width="1.5"></path>
        <line id="Line_187-3" data-name="Line 187" x1="7.541" transform="translate(16.326 13.759)" fill="none" stroke="#fff" stroke-miterlimit="10" stroke-width="1.5"></line>
        <rect id="Rectangle_711-3" data-name="Rectangle 711" width="2.356" height="3.811" transform="translate(2.422 21.62)" fill="none" stroke="#fff" stroke-miterlimit="10" stroke-width="1.5"></rect>
      </g>
    </g>
  </g>
</svg>
