<svg width="55" height="55" viewBox="0 0 55 55" fill="none" xmlns="http://www.w3.org/2000/svg">
<path d="M44.6854 0H10.3146C4.618 0 0 4.618 0 10.3146V44.6854C0 50.382 4.618 55 10.3146 55H44.6854C50.382 55 55 50.382 55 44.6854V10.3146C55 4.618 50.382 0 44.6854 0Z" fill="#8D8C8C"/>
<path d="M35.3845 11.8495H20.8706V22.7033H35.3845V11.8495Z" stroke="white" stroke-width="2" stroke-miterlimit="10" stroke-linecap="round" stroke-linejoin="round"/>
<path d="M13.615 24.7405V27.4968C13.615 28.4032 14.3496 29.1378 15.2559 29.1378H19.1987" stroke="white" stroke-width="2" stroke-miterlimit="10" stroke-linecap="round" stroke-linejoin="round"/>
<path d="M37.0563 27.972H40.2103C41.1347 27.972 41.8835 28.7208 41.8835 29.6452V32.3706" stroke="white" stroke-width="2" stroke-miterlimit="10" stroke-linecap="round" stroke-linejoin="round"/>
<path d="M30.951 22.7046H25.304V25.4184H30.951V22.7046Z" stroke="white" stroke-width="2" stroke-miterlimit="10" stroke-linecap="round" stroke-linejoin="round"/>
<path d="M37.0563 25.4183H19.1986V38.2835H37.0563V25.4183Z" stroke="white" stroke-width="2" stroke-miterlimit="10" stroke-linecap="round" stroke-linejoin="round"/>
<path d="M41.5685 42.5428C41.5685 44.895 39.6616 46.8032 37.3093 46.8032H18.9469C16.5946 46.8032 14.6877 44.8963 14.6877 42.5441C14.6877 40.1918 16.5946 38.2849 18.9469 38.2849H37.3093C39.6616 38.2823 41.5685 40.1905 41.5685 42.5428Z" stroke="white" stroke-width="2" stroke-miterlimit="10" stroke-linecap="round" stroke-linejoin="round"/>
<path d="M28.1275 10.1621C29.0644 10.1621 29.8239 9.40262 29.8239 8.46571C29.8239 7.5288 29.0644 6.76929 28.1275 6.76929C27.1905 6.76929 26.431 7.5288 26.431 8.46571C26.431 9.40262 27.1905 10.1621 28.1275 10.1621Z" stroke="white" stroke-width="2" stroke-miterlimit="10" stroke-linecap="round" stroke-linejoin="round"/>
<path d="M25.304 18.6261C26.2409 18.6261 27.0004 17.8666 27.0004 16.9297C27.0004 15.9928 26.2409 15.2333 25.304 15.2333C24.3671 15.2333 23.6075 15.9928 23.6075 16.9297C23.6075 17.8666 24.3671 18.6261 25.304 18.6261Z" stroke="white" stroke-width="2" stroke-miterlimit="10" stroke-linecap="round" stroke-linejoin="round"/>
<path d="M30.9509 18.6261C31.8879 18.6261 32.6474 17.8666 32.6474 16.9297C32.6474 15.9928 31.8879 15.2333 30.9509 15.2333C30.014 15.2333 29.2545 15.9928 29.2545 16.9297C29.2545 17.8666 30.014 18.6261 30.9509 18.6261Z" stroke="white" stroke-width="2" stroke-miterlimit="10" stroke-linecap="round" stroke-linejoin="round"/>
<path d="M28.1275 44.239C29.0644 44.239 29.8239 43.4795 29.8239 42.5426C29.8239 41.6057 29.0644 40.8462 28.1275 40.8462C27.1905 40.8462 26.431 41.6057 26.431 42.5426C26.431 43.4795 27.1905 44.239 28.1275 44.239Z" stroke="white" stroke-width="2" stroke-miterlimit="10" stroke-linecap="round" stroke-linejoin="round"/>
<path d="M37.0563 44.239C37.9932 44.239 38.7527 43.4795 38.7527 42.5426C38.7527 41.6057 37.9932 40.8462 37.0563 40.8462C36.1194 40.8462 35.3599 41.6057 35.3599 42.5426C35.3599 43.4795 36.1194 44.239 37.0563 44.239Z" stroke="white" stroke-width="2" stroke-miterlimit="10" stroke-linecap="round" stroke-linejoin="round"/>
<path d="M19.1986 44.239C20.1355 44.239 20.8951 43.4795 20.8951 42.5426C20.8951 41.6057 20.1355 40.8462 19.1986 40.8462C18.2617 40.8462 17.5022 41.6057 17.5022 42.5426C17.5022 43.4795 18.2617 44.239 19.1986 44.239Z" stroke="white" stroke-width="2" stroke-miterlimit="10" stroke-linecap="round" stroke-linejoin="round"/>
<path d="M14.7975 21.7455C15.1577 22.0695 15.3836 22.5382 15.3836 23.0598C15.3836 24.0358 14.5922 24.8285 13.6149 24.8285C12.6376 24.8285 11.8462 24.0371 11.8462 23.0598C11.8462 22.5717 12.0437 22.1289 12.3639 21.8087" stroke="white" stroke-width="2" stroke-miterlimit="10" stroke-linecap="round" stroke-linejoin="round"/>
<path d="M40.7009 35.8176C40.3407 35.4936 40.1147 35.0249 40.1147 34.5033C40.1147 33.5273 40.9062 32.7346 41.8835 32.7346C42.8595 32.7346 43.6522 33.526 43.6522 34.5033C43.6522 34.9914 43.4547 35.4342 43.1345 35.7544" stroke="white" stroke-width="2" stroke-miterlimit="10" stroke-linecap="round" stroke-linejoin="round"/>
<path d="M30.951 17.3945C31.2077 17.3945 31.4158 17.1864 31.4158 16.9297C31.4158 16.6731 31.2077 16.465 30.951 16.465C30.6943 16.465 30.4862 16.6731 30.4862 16.9297C30.4862 17.1864 30.6943 17.3945 30.951 17.3945Z" fill="white" stroke="white" stroke-width="2"/>
<path d="M25.304 17.3945C25.5607 17.3945 25.7688 17.1864 25.7688 16.9297C25.7688 16.6731 25.5607 16.465 25.304 16.465C25.0473 16.465 24.8392 16.6731 24.8392 16.9297C24.8392 17.1864 25.0473 17.3945 25.304 17.3945Z" fill="white" stroke="white" stroke-width="2"/>
<path d="M28.1274 10.1621V11.843" stroke="white" stroke-width="2" stroke-miterlimit="10" stroke-linecap="round" stroke-linejoin="round"/>
</svg>
