<svg width="55" height="55" viewBox="0 0 55 55" fill="none" xmlns="http://www.w3.org/2000/svg">
<path d="M44.6854 0H10.3146C4.618 0 0 4.618 0 10.3146V44.6854C0 50.382 4.618 55 10.3146 55H44.6854C50.382 55 55 50.382 55 44.6854V10.3146C55 4.618 50.382 0 44.6854 0Z" fill="#8D8C8C"/>
<path d="M28.0013 9.30774C24.7256 9.30774 20.9263 10.7422 18.3727 13.2958C15.8191 15.8494 14.3846 19.3138 14.3846 22.9244C14.3846 35.8872 28.0025 45.6924 28.0025 45.6924C28.0025 45.6924 41.6204 36.5825 41.6204 22.9463C41.6241 20.5535 40.9982 18.2021 39.8036 16.1283C38.609 14.0545 36.8896 12.3326 34.8182 11.1343C32.7444 9.93852 31.277 9.30774 28.0013 9.30774Z" stroke="white" stroke-width="2" stroke-miterlimit="10"/>
<path d="M28.0013 22.2523C30.2987 22.2523 32.1611 20.3899 32.1611 18.0925C32.1611 15.7951 30.2987 13.9327 28.0013 13.9327C25.7039 13.9327 23.8416 15.7951 23.8416 18.0925C23.8416 20.3899 25.7039 22.2523 28.0013 22.2523Z" stroke="white" stroke-width="2" stroke-miterlimit="10"/>
<path d="M21.0834 30.5778C21.0834 26.7578 24.1801 23.6611 28.0001 23.6611C31.8201 23.6611 34.9168 26.7578 34.9168 30.5778" stroke="white" stroke-width="2" stroke-miterlimit="10"/>
</svg>
