<svg xmlns="http://www.w3.org/2000/svg" xmlns:xlink="http://www.w3.org/1999/xlink" width="60" height="60" viewBox="0 0 60 60">
  <defs>
    <clipPath id="clip-path">
      <rect id="Rectangle_698" data-name="Rectangle 698" width="41.858" height="40.858" transform="translate(264.375 1419.661)"/>
    </clipPath>
  </defs>
  <g id="Icon_Configure_Backup" transform="translate(0)">
    <path id="Path_273" data-name="Path 273" d="M114.521,230.126h-4.535a.892.892,0,0,1-.891-.892V180.027a1.79,1.79,0,0,0-1.784-1.791h-50.1a1.794,1.794,0,0,0-1.79,1.791v50.1a1.792,1.792,0,0,0,1.79,1.791h49.2a.894.894,0,0,1,.9.9v4.533a.886.886,0,0,0,.887.89h6.324a.892.892,0,0,0,.9-.89v-6.325a.9.9,0,0,0-.9-.9" transform="translate(-55.418 -178.236)" fill="#0f7ac9"/>
    <g id="Icon_6" transform="translate(-258.451 -1413.268)" clip-path="url(#clip-path)">
      <path id="Path_1506" data-name="Path 1506" d="M411,1436a17.937,17.937,0,0,1,13.178,17.255,17.751,17.751,0,0,1-2.395,8.928" transform="translate(-120.492 -13.249)" fill="none" stroke="#fff" stroke-miterlimit="8" stroke-width="1.5" fill-rule="evenodd"/>
      <path id="Path_1507" data-name="Path 1507" d="M409.272,1432.121l.359-.2-1.044-1.691,1.841-.87-.185-.357L408,1430.061Z" transform="translate(-118.013 -7.463)" fill="none" stroke="#fff" stroke-miterlimit="8" stroke-width="0.8" fill-rule="evenodd"/>
      <path id="Path_1508" data-name="Path 1508" d="M279.851,1454.582a18.2,18.2,0,0,1,7.209-20.632,17.691,17.691,0,0,1,8.76-2.949" transform="translate(-11.381 -9.116)" fill="none" stroke="#fff" stroke-miterlimit="8" stroke-width="1.5" fill-rule="evenodd"/>
      <path id="Path_1509" data-name="Path 1509" d="M276.121,1555.184l-.358-.184-.865,1.843-1.7-1.035-.2.361,2.068,1.259Z" transform="translate(-6.421 -111.615)" fill="none" stroke="#fff" stroke-miterlimit="8" stroke-width="0.8" fill-rule="evenodd"/>
      <path id="Path_1510" data-name="Path 1510" d="M322.09,1594.1a17.968,17.968,0,0,1-21.4,3.22A17.76,17.76,0,0,1,294,1591" transform="translate(-23.78 -141.373)" fill="none" stroke="#fff" stroke-miterlimit="8" stroke-width="1.5" fill-rule="evenodd"/>
      <path id="Path_1511" data-name="Path 1511" d="M444,1607.083l.014.4,1.992-.068-.077,1.994.405.014.093-2.428Z" transform="translate(-147.77 -154.599)" fill="none" stroke="#fff" stroke-miterlimit="8" stroke-width="0.8" fill-rule="evenodd"/>
      <path id="Path_1941" data-name="Path 1941" d="M424.924,1400.083a3.464,3.464,0,0,1-1.923-3.1,4.751,4.751,0,0,1,1.917-3.914,3.436,3.436,0,0,1,1.959-.714,1.957,1.957,0,0,1,.593.09.436.436,0,0,0,.345,0,.46.46,0,0,0,.213-.268,7.628,7.628,0,0,1,6.571-5.157c5.051-.34,6.53,3.564,6.571,3.737h0a.434.434,0,0,0,.463.285s2.921-.321,4.72,1.284a4.788,4.788,0,0,1,1.443,3.748,4.35,4.35,0,0,1-1.253,3.28,6.9,6.9,0,0,1-4.475,1.491H427.755a5.611,5.611,0,0,1-2.832-.766Z" transform="translate(-149.496 44.615)" fill="#0f7ac9" stroke="#fff" stroke-linecap="round" stroke-linejoin="round" stroke-miterlimit="8" stroke-width="2" fill-rule="evenodd"/>
      <path id="Path_1942" data-name="Path 1942" d="M436.447,1394.689l.59-.442.233-.306a2.039,2.039,0,0,0,.307-1.071,2.792,2.792,0,0,0-1.127-2.3,2.02,2.02,0,0,0-1.151-.419,1.153,1.153,0,0,0-.348.053.256.256,0,0,1-.2,0,.271.271,0,0,1-.125-.157,4.483,4.483,0,0,0-3.861-3.031,3.632,3.632,0,0,0-3.862,2.2h0a.255.255,0,0,1-.272.167,4.023,4.023,0,0,0-2.773.755,2.814,2.814,0,0,0-.848,2.2,2.557,2.557,0,0,0,.736,1.927,4.054,4.054,0,0,0,2.63.876h8.411a3.3,3.3,0,0,0,1.664-.45Z" transform="matrix(1, -0.017, 0.017, 1, -165.56, 60.034)" fill="#0f7ac9" stroke="#fff" stroke-linecap="square" stroke-linejoin="round" stroke-miterlimit="8" stroke-width="2" fill-rule="evenodd"/>
    </g>
  </g>
</svg>
