<svg id="Layer_1" data-name="Layer 1" xmlns="http://www.w3.org/2000/svg" viewBox="0 0 100 39" width="100px" height="39px">
	<defs>
		<style>
		.cls-1 {
			fill: #cf142b;
		}
		.cls-2 {
			fill: #fff;
		}

		</style>
	</defs>
	<title>ricoh-marker</title>
	<path class="cls-1" d="M97,0H3A3,3,0,0,0,0,3V31a3,3,0,0,0,3,3H40.81L50,39.19,59.19,34H97a3,3,0,0,0,3-3V3A3,3,0,0,0,97,0Z" />
	<path class="cls-2" d="M41.13,16.72c0,2.81,2.08,4.89,5.56,4.89a9.78,9.78,0,0,0,4.28-.9l1.31,1.78a12.19,12.19,0,0,1-6.2,1.45c-5.55,0-9.64-2.68-9.64-7.22h0c0-4.54,4.08-7.21,9.64-7.21a13.64,13.64,0,0,1,6.07,1.19l-1.34,2a8.09,8.09,0,0,0-4.12-.91c-3.48,0-5.56,2.07-5.56,4.89" />
	<path class="cls-2" d="M62.32,21.7c-3,0-4.59-2.22-4.59-5s1.63-5,4.59-5,4.59,2.22,4.59,5-1.64,5-4.59,5m0-12.19c-5.38,0-9.25,2.68-9.25,7.22s3.88,7.22,9.25,7.22,9.26-2.68,9.26-7.22S67.7,9.51,62.32,9.51" />
	<polygon class="cls-2" points="85.56 17.77 85.56 23.58 90 23.58 90 9.87 85.56 9.87 85.56 15.1 78.76 15.1 78.76 9.87 74.33 9.87 74.33 23.58 78.76 23.58 78.76 17.77 85.56 17.77 85.56 17.77" />
	<polygon class="cls-2" points="33.77 9.87 29.09 9.87 29.09 23.58 33.77 23.58 33.77 9.87 33.77 9.87" />
	<path class="cls-2" d="M15.67,16.14v1.31a35,35,0,0,1,6.09,6.12H27a33.57,33.57,0,0,0-6.68-6c2.42-.1,5.11-1.08,5.11-3.85,0-3.56-3.81-4.21-7.65-4.21-3.14,0-6,.14-7.77.29V23.58h4.37V11.9a27.4,27.4,0,0,1,3.42-.18c2.25,0,3.39.74,3.39,2,0,1.11-.47,2.43-5.52,2.39" />
</svg>
