<svg xmlns="http://www.w3.org/2000/svg" width="100" height="100" viewBox="0 0 100 100" fill="none">
    <path
        d="M98.5047 86.4833H90.9459C90.1291 86.4833 89.4605 85.8202 89.4605 84.997V2.98556C89.4605 1.34256 88.1299 0 86.4864 0H2.98398C1.3372 0 0 1.34256 0 2.98556V86.4833C0 88.1297 1.3372 89.4689 2.98398 89.4689H84.9878C85.8145 89.4689 86.4864 90.1286 86.4864 90.9616V98.5169C86.4864 99.3401 87.1451 100 87.9652 100H98.5047C99.3314 100 100 99.3401 100 98.5169V87.9761C100 87.1529 99.3314 86.4833 98.5047 86.4833Z"
        fill="#CF142B" />
    <path
        d="M33.4045 42.9255C32.9514 42.9255 32.5187 42.9945 32.0859 43.058C32.2265 42.5874 32.3699 42.1086 32.6012 41.6785C32.8324 41.0537 33.1935 40.5128 33.5533 39.9664C33.8535 39.3767 34.3823 38.9764 34.7718 38.472C35.1789 37.981 35.7347 37.6537 36.1756 37.2467C36.6084 36.8207 37.1737 36.607 37.624 36.3067C38.0947 36.0363 38.5045 35.7387 38.9426 35.5967L40.0354 35.1464L40.997 34.7474L40.0124 30.8159L38.802 31.108C38.4152 31.2054 37.9419 31.319 37.4049 31.4556C36.8545 31.557 36.2689 31.8343 35.6157 32.0885C34.9706 32.3766 34.2241 32.5714 33.5303 33.0339C32.8324 33.4761 32.0277 33.8453 31.3177 34.4377C30.6293 35.049 29.8003 35.5778 29.1877 36.3541C28.5182 37.0803 27.8569 37.8431 27.343 38.7113C26.7479 39.539 26.3449 40.4478 25.9189 41.3459C25.5334 42.2439 25.2224 43.1635 24.9695 44.0561C24.4893 45.8454 24.273 47.5453 24.1905 48.9992C24.1215 50.4557 24.1621 51.6662 24.2473 52.5439C24.277 52.9577 24.3352 53.3594 24.3757 53.6366L24.4271 53.9775L24.4799 53.9653C25.4832 58.6522 29.9406 61.765 34.6864 61.093C39.4321 60.421 42.85 56.193 42.5126 51.4118C42.1753 46.6305 38.1976 42.9245 33.4045 42.9255ZM55.7194 42.9255C55.2663 42.9255 54.8336 42.9945 54.4008 43.058C54.5414 42.5874 54.6848 42.1086 54.9161 41.6785C55.1473 41.0537 55.5084 40.5128 55.8682 39.9664C56.1684 39.3767 56.6972 38.9764 57.0867 38.472C57.4938 37.981 58.0496 37.6537 58.4905 37.2467C58.9233 36.8207 59.4886 36.607 59.939 36.3067C60.4096 36.0363 60.8194 35.7387 61.2576 35.5967L62.3503 35.1464L63.3119 34.7474L62.3273 30.8159L61.1169 31.108C60.7301 31.2054 60.2568 31.319 59.7199 31.4556C59.1694 31.557 58.5838 31.8343 57.9306 32.0885C57.2869 32.378 56.539 32.5714 55.8452 33.0366C55.1473 33.4788 54.3426 33.848 53.6326 34.4404C52.9442 35.0517 52.1152 35.5805 51.5026 36.3554C50.8331 37.0817 50.1718 37.8444 49.6579 38.7127C49.0628 39.5404 48.6598 40.4492 48.2338 41.3472C47.8483 42.2452 47.5373 43.1649 47.2844 44.0575C46.8043 45.8467 46.5879 47.5467 46.5054 49.0005C46.4364 50.4571 46.477 51.6675 46.5622 52.5452C46.5919 52.9591 46.6501 53.3607 46.6907 53.638L46.7421 53.9788L46.7948 53.9666C47.7988 58.6532 52.2563 61.7653 57.0018 61.0929C61.7473 60.4204 65.1647 56.1926 64.8272 51.4115C64.4898 46.6305 60.5123 42.9246 55.7194 42.9255Z"
        fill="white" />
</svg>