<svg xmlns="http://www.w3.org/2000/svg" width="60" height="60" viewBox="0 0 60 60">
  <g id="Icon_Breeze" transform="translate(-851.262 -2563.759)">
    <path id="Path_1004" data-name="Path 1004" d="M114.521,230.123h-4.534a.9.9,0,0,1-.892-.9v-49.2a1.793,1.793,0,0,0-1.784-1.793h-50.1a1.793,1.793,0,0,0-1.793,1.793v50.1a1.793,1.793,0,0,0,1.793,1.793h49.2a.9.9,0,0,1,.9.9v4.533a.886.886,0,0,0,.888.889h6.323a.9.9,0,0,0,.9-.89v-6.324a.9.9,0,0,0-.9-.9" transform="translate(795.848 2385.53)" fill="#8fc740"></path>
    <g id="Group_2117" data-name="Group 2117" transform="translate(857.5 2576.835)">
      <path id="Path_1561" data-name="Path 1561" d="M682.8,360.834h1.518a3.8,3.8,0,0,1,3.8,3.8h0a3.8,3.8,0,0,1-3.8,3.8H672.009" transform="translate(-666.49 -360.469)" fill="none" stroke="#fff" stroke-miterlimit="10" stroke-width="2"></path>
      <path id="Path_1562" data-name="Path 1562" d="M683.161,380.428h1.527a3.553,3.553,0,0,0,3.553-3.552h0a3.553,3.553,0,0,0-3.553-3.553h-10.04" transform="translate(-664.716 -352.076)" fill="none" stroke="#fff" stroke-miterlimit="10" stroke-width="2"></path>
      <path id="Path_1563" data-name="Path 1563" d="M673.2,378.658h-2.02a2.476,2.476,0,0,1-2.475-2.476h0a2.475,2.475,0,0,1,2.475-2.475h25.552a4.161,4.161,0,0,0,4.162-4.161h0a4.162,4.162,0,0,0-4.162-4.161h-3.4" transform="translate(-668.708 -357.412)" fill="none" stroke="#fff" stroke-miterlimit="10" stroke-width="2"></path>
      <ellipse id="Ellipse_33" data-name="Ellipse 33" cx="2.587" cy="2.587" rx="2.587" ry="2.587" transform="translate(30.987 0)" fill="none" stroke="#fff" stroke-miterlimit="10" stroke-width="2"></ellipse>
      <ellipse id="Ellipse_34" data-name="Ellipse 34" cx="1.453" cy="1.453" rx="1.453" ry="1.453" transform="translate(37.344 8.868)" fill="none" stroke="#fff" stroke-miterlimit="10" stroke-width="2"></ellipse>
    </g>
  </g>
</svg>
