<svg xmlns="http://www.w3.org/2000/svg" width="60.234" height="60.234" viewBox="0 0 60.234 60.234">
  <g id="Icon-Reduce-Paper" transform="translate(-851.266 -2563.766)">
    <path id="Path_1004" data-name="Path 1004" d="M114.752,230.329H110.2a.9.9,0,0,1-.895-.9v-49.4a1.8,1.8,0,0,0-1.791-1.8h-50.3a1.8,1.8,0,0,0-1.8,1.8v50.294a1.8,1.8,0,0,0,1.8,1.8H106.61a.9.9,0,0,1,.9.9v4.551a.889.889,0,0,0,.891.893h6.348a.9.9,0,0,0,.9-.893v-6.349a.9.9,0,0,0-.9-.9" transform="translate(795.848 2385.53)" fill="#8fc740"></path>
    <g id="Group_2498" data-name="Group 2498" transform="translate(871.938 2576.932)">
      <g id="Group_2500" data-name="Group 2500" transform="translate(-6.382 -3)">
        <path id="Path_1515" data-name="Path 1515" d="M0,0V6.386H6.458Z" transform="translate(20.1 -0.155)" fill="none" stroke="#fff" stroke-linecap="round" stroke-linejoin="round" stroke-miterlimit="10" stroke-width="2"></path>
        <g id="Group_2499" data-name="Group 2499" transform="translate(0 0)">
          <path id="Path_1925" data-name="Path 1925" d="M20.353-.155H3.688V28.567h22.87V6.295Z" transform="translate(-4.093 4.517)" fill="#8fc740" stroke="#fff" stroke-width="2"></path>
          <path id="Path_1916" data-name="Path 1916" d="M20.353-.155H3.688V28.567h22.87V6.295Z" fill="#8fc740" stroke="#fff" stroke-width="2"></path>
          <path id="Path_1911" data-name="Path 1911" d="M0,0H12.467" transform="translate(8.89 23.155)" fill="none" stroke="#fff" stroke-linecap="square" stroke-linejoin="round" stroke-miterlimit="10" stroke-width="2"></path>
          <path id="Path_1910" data-name="Path 1910" d="M0,0H12.467" transform="translate(8.89 18.723)" fill="none" stroke="#fff" stroke-linecap="square" stroke-linejoin="round" stroke-miterlimit="10" stroke-width="2"></path>
          <path id="Path_1520" data-name="Path 1520" d="M0,0H12.467" transform="translate(8.89 14.291)" fill="none" stroke="#fff" stroke-linecap="square" stroke-linejoin="round" stroke-miterlimit="10" stroke-width="2"></path>
          <path id="Path_1521" data-name="Path 1521" d="M0,0H8.943" transform="translate(8.89 9.86)" fill="none" stroke="#fff" stroke-linecap="square" stroke-linejoin="round" stroke-miterlimit="10" stroke-width="2"></path>
          <path id="Path_1522" data-name="Path 1522" d="M0,0H5.882" transform="translate(8.89 5.428)" fill="none" stroke="#fff" stroke-linecap="square" stroke-linejoin="round" stroke-miterlimit="10" stroke-width="2"></path>
        </g>
      </g>
    </g>
  </g>
</svg>
