<svg xmlns="http://www.w3.org/2000/svg" xmlns:xlink="http://www.w3.org/1999/xlink" width="100" height="100" viewBox="0 0 100 100"><defs><style>.a {
  clip-path: url("#b");
}

.b {
  fill: #8fc740;
}

.c {
  fill: #fff;
}

</style><clipPath id="b"><rect width="100" height="100"></rect></clipPath></defs><g id="a" class="a"><g transform="translate(0 -1069)"><path class="b" d="M153.923,264.719h-7.559a1.487,1.487,0,0,1-1.485-1.486V181.222a2.983,2.983,0,0,0-2.974-2.986H58.4a2.989,2.989,0,0,0-2.984,2.986v83.5a2.987,2.987,0,0,0,2.984,2.986h82a1.491,1.491,0,0,1,1.5,1.493v7.555a1.476,1.476,0,0,0,1.479,1.483h10.539a1.486,1.486,0,0,0,1.5-1.483V266.212a1.494,1.494,0,0,0-1.5-1.493" transform="translate(-55.418 890.764)"></path><g transform="translate(2398.09 -1527.102)"><g transform="translate(-2381.79 2618.133)"><path class="c" d="M168.288,208.412h-9.047v-2h7.047V180.631a2.934,2.934,0,0,0-2.931-2.931H115.889a2.992,2.992,0,0,0-2.989,2.989v25.723h7.047v2H110.9V180.689a4.994,4.994,0,0,1,4.989-4.989h47.469a4.936,4.936,0,0,1,4.931,4.931Z" transform="translate(-111.888 -176.7)"></path><path class="c" d="M110.8,440h57.4v4.977a4.447,4.447,0,0,1-4.442,4.442h-49a3.958,3.958,0,0,1-3.954-3.954Zm55.4,2H112.8v3.465a1.956,1.956,0,0,0,1.954,1.954h49a2.445,2.445,0,0,0,2.442-2.442Z" transform="translate(-111.8 -410.265)"></path><path class="c" d="M-1-1H17.908V8.419H-1ZM15.908,1H1V6.419H15.908Z" transform="translate(19.246 38.166)"></path><path class="c" d="M271.416,569.7H247.6v-2h23.816Z" transform="translate(-231.808 -523.115)"></path><path class="c" d="M7.629,1H0V-1H7.629Z" transform="translate(23.886 34.445)"></path></g><g transform="translate(-20.027 14)"><path class="c" d="M51.875,45.938a3.938,3.938,0,1,0-3.937,3.938A3.942,3.942,0,0,0,51.875,45.938ZM49.25,48.7a3.024,3.024,0,0,1-2.625,0V47.688a.438.438,0,0,1,.438-.437h1.75a.438.438,0,0,1,.438.438Zm-2.187-3.2a.875.875,0,1,1,.875.875A.876.876,0,0,1,47.063,45.5Zm2.305,1a1.75,1.75,0,1,0-2.86,0,1.311,1.311,0,0,0-.757,1.185v.389a3.063,3.063,0,1,1,4.375,0v-.389A1.311,1.311,0,0,0,49.368,46.5Z" transform="translate(-2369.125 2579.313)"></path><path class="c" d="M47.938,22a3.938,3.938,0,1,0,3.938,3.938A3.942,3.942,0,0,0,47.938,22Zm1.313,6.7a3.024,3.024,0,0,1-2.625,0V27.688a.438.438,0,0,1,.438-.437h1.75a.438.438,0,0,1,.438.438Zm-2.187-3.2a.875.875,0,1,1,.875.875A.876.876,0,0,1,47.063,25.5Zm3.063,2.577v-.389a1.311,1.311,0,0,0-.757-1.185,1.75,1.75,0,1,0-2.86,0,1.311,1.311,0,0,0-.757,1.185v.389a3.063,3.063,0,1,1,4.375,0Z" transform="translate(-2382 2599.313)"></path><path class="c" d="M47.938,2a3.938,3.938,0,1,0,3.938,3.938A3.942,3.942,0,0,0,47.938,2ZM49.25,8.7a3.024,3.024,0,0,1-2.625,0V7.687a.438.438,0,0,1,.438-.437h1.75a.438.438,0,0,1,.438.438ZM47.063,5.5a.875.875,0,1,1,.875.875A.876.876,0,0,1,47.063,5.5Zm3.063,2.577V7.687A1.311,1.311,0,0,0,49.368,6.5a1.75,1.75,0,1,0-2.86,0,1.311,1.311,0,0,0-.757,1.185v.389a3.063,3.063,0,1,1,4.375,0Z" transform="translate(-2394.875 2619.563)"></path></g><path class="c" d="M30,12.187V38.729h6.7l-1.009,1.009,1.1,1.1L39.139,38.5a.78.78,0,0,0,0-1.1L36.8,35.054l-1.1,1.1L36.7,37.167H31.561V25.458H36.7l-1.009,1.009,1.1,1.1,2.342-2.342a.78.78,0,0,0,0-1.1L36.8,21.783l-1.1,1.1L36.7,23.9H31.561V12.967H36.7l-1.009,1.009,1.1,1.1,2.342-2.342a.78.78,0,0,0,0-1.1L36.8,9.293l-1.1,1.1L36.7,11.406H30.781a.781.781,0,0,0-.781.781Z" transform="translate(-2329.022 2594.135) rotate(90)"></path></g></g></g></svg>