<svg xmlns="http://www.w3.org/2000/svg" xmlns:xlink="http://www.w3.org/1999/xlink" width="100" height="100" viewBox="0 0 100 100"><defs><style>.a {
  clip-path: url("#b");
}

.b {
  fill: #8fc740;
}

.c {
  fill: #fff;
}

</style><clipPath id="b"><rect width="100" height="100"></rect></clipPath></defs><g id="a" class="a"><g transform="translate(-0.25 -1068.899)"><path class="b" d="M153.923,264.719h-7.559a1.487,1.487,0,0,1-1.485-1.486V181.222a2.983,2.983,0,0,0-2.974-2.986H58.4a2.989,2.989,0,0,0-2.984,2.986v83.5a2.987,2.987,0,0,0,2.984,2.986h82a1.491,1.491,0,0,1,1.5,1.493v7.555a1.476,1.476,0,0,0,1.479,1.483h10.539a1.486,1.486,0,0,0,1.5-1.483V266.212a1.494,1.494,0,0,0-1.5-1.493" transform="translate(-55.168 890.663)"></path><g transform="translate(18.25 1083.898)"><path class="c" d="M187.7,829.731a2.677,2.677,0,0,0,2.673,2.673h14.674v5.335h-1.96a.891.891,0,1,0,0,1.782h21.7a.891.891,0,1,0,0-1.782h-1.96V832.4H237.5a2.677,2.677,0,0,0,2.673-2.673V798.16a2.677,2.677,0,0,0-2.673-2.673h-5.87V785.173a2.677,2.677,0,0,0-2.673-2.673H205.131a.942.942,0,0,0-.618.262L196.5,790.77a.8.8,0,0,0-.262.619v4.088h-5.87a2.677,2.677,0,0,0-2.673,2.673v31.581Zm33.353,7.914H206.819v-5.335h14.234Zm16.446-7.117H190.362a.9.9,0,0,1-.891-.891v-4.444H238.39v4.539a.822.822,0,0,1-.891.8Zm0-33.259a.9.9,0,0,1,.891.891v25.261h-6.761V797.269Zm-31.477-12.987h23.039a.9.9,0,0,1,.891.891v38.248H198.025V792.29h7.107a.842.842,0,0,0,.891-.891Zm-1.782,1.247v4.979h-4.979Zm-13.867,11.74h5.87v26.152h-6.761V798.16a.89.89,0,0,1,.891-.891Z" transform="translate(-187.7 -782.5)"></path><path class="c" d="M413.008,1206.8h-4.717a.891.891,0,0,0,0,1.782h4.717a.842.842,0,0,0,.891-.891A.95.95,0,0,0,413.008,1206.8Z" transform="translate(-384.372 -1162.326)"></path><path class="c" d="M324.3,930.191V949.31a.842.842,0,0,0,.891.891h22.148a.842.842,0,0,0,.891-.891V930.191a.842.842,0,0,0-.891-.891H325.191a.847.847,0,0,0-.891.891Zm22.054,11.834H331.679V937.4h14.674Zm-16.446,0H326V937.4h3.91Zm-3.826,1.782h3.91v4.623h-3.91Zm20.272,4.623H331.679v-4.623h14.674Zm0-12.809H331.679V931h14.674Zm-20.272-4.539h3.91V935.7h-3.91Z" transform="translate(-309.982 -913.913)"></path><path class="c" d="M406.591,860.682h12.987a.891.891,0,1,0,0-1.782H406.591a.842.842,0,0,0-.891.891A.9.9,0,0,0,406.591,860.682Z" transform="translate(-382.85 -850.892)"></path><path class="c" d="M21.456,1H0V-1H21.456Z" transform="translate(14.916 56.088)"></path></g></g></g></svg>