<svg xmlns="http://www.w3.org/2000/svg" width="61.754" height="55.29" viewBox="0 0 61.754 55.29">
  <g id="Group_1438" data-name="Group 1438" transform="translate(-719.92 -2901.545)">
    <text id="_66_" data-name="66%" transform="translate(726.674 2936.702)" fill="#606cbf" font-size="30" font-family="FrutigerLTStd-Bold, Frutiger LT Std" font-weight="700"><tspan x="0" y="0">66</tspan><tspan y="0" font-size="21">%</tspan></text>
    <path id="Path_984" data-name="Path 984" d="M49.025,16.355V3.106A1.6,1.6,0,0,0,47.445,1.5H3.085A1.6,1.6,0,0,0,1.5,3.106V48.019a1.6,1.6,0,0,0,1.585,1.606H46.648a.8.8,0,0,1,.8.8v4.069a.79.79,0,0,0,.783.8h5.6a.794.794,0,0,0,.794-.794V48.822a.8.8,0,0,0-.794-.8H49.814a.794.794,0,0,1-.789-.8V40.436" transform="translate(719.17 2900.795)" fill="none" stroke="#606cbf" stroke-width="1.5"/>
  </g>
</svg>
