<svg xmlns="http://www.w3.org/2000/svg" xmlns:xlink="http://www.w3.org/1999/xlink" width="172.754" height="172.754"
    viewBox="0 0 172.754 172.754">
    <defs>
        <style>
            .a {
                fill: none;
                stroke: #fff;
                stroke-width: 1.5px;
            }

            .b {
                fill: #00328F;
            }

            .c {
                clip-path: url(#a);
            }

            .d {
                fill: #fff;
            }
        </style>
        <clipPath id="a">
            <rect class="a" width="112.555" height="112.555" />
        </clipPath>
    </defs>
    <g transform="translate(1.5 1.5)">
        <path class="b"
            d="M222.634,325.045H209.8a2.524,2.524,0,0,1-2.522-2.523V183.3a5.064,5.064,0,0,0-5.049-5.068H60.483a5.075,5.075,0,0,0-5.065,5.068V325.045a5.071,5.071,0,0,0,5.065,5.068h139.2a2.531,2.531,0,0,1,2.544,2.534v12.826a2.506,2.506,0,0,0,2.51,2.518h17.891a2.523,2.523,0,0,0,2.538-2.518V327.579a2.537,2.537,0,0,0-2.538-2.534"
            transform="translate(-55.418 -178.236)" />
        <path class="b"
            d="M222.634,349.49H204.743a4.006,4.006,0,0,1-4.01-4.018V332.647a1.028,1.028,0,0,0-1.044-1.034H60.483a6.574,6.574,0,0,1-6.565-6.568V183.3a6.574,6.574,0,0,1,6.565-6.568H202.232a6.566,6.566,0,0,1,6.549,6.568V322.522a1.023,1.023,0,0,0,1.022,1.023h12.831a4.041,4.041,0,0,1,4.038,4.034v17.894A4.033,4.033,0,0,1,222.634,349.49ZM60.483,179.736a3.571,3.571,0,0,0-3.565,3.568V325.045a3.571,3.571,0,0,0,3.565,3.568h139.2a4.031,4.031,0,0,1,4.044,4.034v12.826a1,1,0,0,0,1.01,1.018h17.891a1.017,1.017,0,0,0,1.038-1.018V327.579a1.037,1.037,0,0,0-1.038-1.034H209.8a4.027,4.027,0,0,1-4.022-4.023V183.3a3.562,3.562,0,0,0-3.549-3.568Z"
            transform="translate(-55.418 -178.236)" />
        <g transform="translate(24.516 21.983)">
            <g class="c" transform="translate(-3 -3)">
                <path class="d"
                    d="M42.936,100.574a.749.749,0,0,1-.245-.041,43.858,43.858,0,0,1-8.292-79,.75.75,0,0,1,.776,1.284A42.623,42.623,0,0,0,20.329,37.96,42.385,42.385,0,0,0,43.181,99.115a.75.75,0,0,1-.245,1.459Z"
                    transform="translate(-0.763 -2.808)" />
                <path class="d"
                    d="M86.477,101.8a.75.75,0,0,1-.2-1.474,42.307,42.307,0,0,0,31.139-40.85A42.306,42.306,0,0,0,98.747,24.358a.75.75,0,0,1,.84-1.243,44.2,44.2,0,0,1,14.039,15.458,43.875,43.875,0,0,1-26.951,63.2A.751.751,0,0,1,86.477,101.8Z"
                    transform="translate(-18.792 -3.198)" />
                <path class="d"
                    d="M24.386,14.158a.75.75,0,0,1-.495-1.314,54.159,54.159,0,0,1,70.233-1.071.75.75,0,0,1-.955,1.157,52.66,52.66,0,0,0-68.289,1.041A.747.747,0,0,1,24.386,14.158Z"
                    transform="translate(-3.359 2.667)" />
                <path class="d"
                    d="M14.891,96.9a.748.748,0,0,1-.543-.233,54.22,54.22,0,0,1-.527-74.217.75.75,0,0,1,1.1,1.019,52.72,52.72,0,0,0,.513,72.164.75.75,0,0,1-.543,1.267Z"
                    transform="translate(2.666 -3.006)" />
                <path class="d"
                    d="M61.141,139.994a53.88,53.88,0,0,1-31.135-9.825.75.75,0,0,1,.862-1.227,52.388,52.388,0,0,0,30.273,9.553,52.977,52.977,0,0,0,12.25-1.431,52.445,52.445,0,0,0,11.225-4.072.75.75,0,0,1,.669,1.343,54,54,0,0,1-24.144,5.66Z"
                    transform="translate(-4.863 -29.499)" />
                <path class="d"
                    d="M117.35,100.451a.75.75,0,0,1-.486-1.321,52.907,52.907,0,0,0,13.565-17.682,52.43,52.43,0,0,0,3.725-10.792,53.026,53.026,0,0,0,1.306-11.713,52.542,52.542,0,0,0-15-36.827.75.75,0,0,1,1.073-1.048,54.156,54.156,0,0,1,4.222,70.881,54.633,54.633,0,0,1-7.924,8.324A.747.747,0,0,1,117.35,100.451Z"
                    transform="translate(-26.466 -2.664)" />
                <path class="d"
                    d="M27.7,54.651a.751.751,0,0,1-.724-.948A34.609,34.609,0,0,1,37.5,36.843a.75.75,0,0,1,.993,1.125A33.113,33.113,0,0,0,28.422,54.1.75.75,0,0,1,27.7,54.651Z"
                    transform="translate(-4.182 -6.595)" />
                <path class="d"
                    d="M42.909,103.716a.746.746,0,0,1-.385-.107,34.761,34.761,0,0,1-16-21.983.75.75,0,1,1,1.462-.336A33.261,33.261,0,0,0,43.3,102.323a.75.75,0,0,1-.386,1.393Z"
                    transform="translate(-4.072 -17.545)" />
                <path class="d"
                    d="M93.824,105.413a.75.75,0,0,1-.375-1.4,33.34,33.34,0,0,0,14.576-17.2.75.75,0,0,1,1.406.524A34.843,34.843,0,0,1,94.2,105.313.747.747,0,0,1,93.824,105.413Z"
                    transform="translate(-20.618 -18.941)" />
                <path class="d"
                    d="M110.661,52.243a.75.75,0,0,1-.707-.5,33.29,33.29,0,0,0-9.662-14.126.75.75,0,0,1,.979-1.136,34.793,34.793,0,0,1,10.1,14.764.751.751,0,0,1-.707,1Z"
                    transform="translate(-22.347 -6.506)" />
                <path class="d"
                    d="M48.625,85.377a.748.748,0,0,1-.526-.215,22.757,22.757,0,0,1-5.591-23.518.75.75,0,1,1,1.42.482,21.2,21.2,0,0,0,5.222,21.966.75.75,0,0,1-.526,1.285Z"
                    transform="translate(-7.751 -12.68)" />
                <path class="d"
                    d="M90.817,86.395a.75.75,0,0,1-.5-1.308,21.258,21.258,0,0,0,6.231-21.677.75.75,0,0,1,1.442-.414A22.708,22.708,0,0,1,91.318,86.2.747.747,0,0,1,90.817,86.395Z"
                    transform="translate(-19.871 -13.007)" />
                <path class="d"
                    d="M5.066-.75h23.9A5.823,5.823,0,0,1,34.78,5.066v23.9a5.823,5.823,0,0,1-5.816,5.816H5.066A5.823,5.823,0,0,1-.75,28.964V5.066A5.823,5.823,0,0,1,5.066-.75Zm23.9,34.03a4.321,4.321,0,0,0,4.316-4.316V5.066A4.321,4.321,0,0,0,28.964.75H5.066A4.321,4.321,0,0,0,.75,5.066v23.9A4.321,4.321,0,0,0,5.066,33.28Z"
                    transform="translate(39.263 16.075)" />
                <path class="d"
                    d="M3.81-.75H21.781a4.565,4.565,0,0,1,4.56,4.56V21.781a4.564,4.564,0,0,1-4.559,4.559H3.81A4.565,4.565,0,0,1-.75,21.78V3.81A4.565,4.565,0,0,1,3.81-.75ZM21.782,24.84a3.062,3.062,0,0,0,3.059-3.059V3.81A3.063,3.063,0,0,0,21.781.75H3.81A3.063,3.063,0,0,0,.75,3.81V21.78a3.063,3.063,0,0,0,3.06,3.06Z"
                    transform="translate(43.482 20.295)" />
                <path class="d"
                    d="M1.424-.75h9.945a2.176,2.176,0,0,1,2.174,2.174V8.043a2.176,2.176,0,0,1-2.174,2.174H1.424A2.176,2.176,0,0,1-.75,8.043V1.424A2.176,2.176,0,0,1,1.424-.75Zm9.945,9.467a.675.675,0,0,0,.674-.674V1.424A.675.675,0,0,0,11.369.75H1.424a.675.675,0,0,0-.674.674V8.043a.675.675,0,0,0,.674.674Z"
                    transform="translate(49.753 31.939)" />
                <path class="d"
                    d="M73.029,33.048h-7.8a.75.75,0,0,1-.75-.75V29.1a3.952,3.952,0,0,1,3.948-3.948H69.83A3.953,3.953,0,0,1,73.779,29.1v3.2A.75.75,0,0,1,73.029,33.048Zm-7.054-1.5h6.3V29.1a2.451,2.451,0,0,0-2.449-2.448H68.423A2.451,2.451,0,0,0,65.975,29.1Z"
                    transform="translate(-13.041 -0.231)" />
                <path class="d"
                    d="M0,13.918a.75.75,0,0,1-.75-.75V0A.75.75,0,0,1,0-.75.75.75,0,0,1,.75,0V13.168A.75.75,0,0,1,0,13.918Z"
                    transform="translate(62.866 50.105)" />
                <path class="d"
                    d="M67.3,109.266a7.744,7.744,0,0,1-7.755-7.716V62.141a.75.75,0,0,1,1.5,0v39.41a6.255,6.255,0,0,0,12.509,0V92.676a.75.75,0,0,1,1.5,0v8.874A7.744,7.744,0,0,1,67.3,109.266Z"
                    transform="translate(-11.434 -12.036)" />
                <path class="d"
                    d="M0,39.9a.75.75,0,0,1-.75-.75V0A.75.75,0,0,1,0-.75.75.75,0,0,1,.75,0V39.147A.75.75,0,0,1,0,39.9Z"
                    transform="translate(54.422 52.152)" />
                <path class="d"
                    d="M6.525.75H0A.75.75,0,0,1-.75,0,.75.75,0,0,1,0-.75H6.525a.75.75,0,0,1,.75.75A.75.75,0,0,1,6.525.75Z"
                    transform="translate(58.836 65.777)" />
                <path class="d"
                    d="M6.525.75H0A.75.75,0,0,1-.75,0,.75.75,0,0,1,0-.75H6.525a.75.75,0,0,1,.75.75A.75.75,0,0,1,6.525.75Z"
                    transform="translate(58.836 70.267)" />
                <path class="d"
                    d="M6.525.75H0A.75.75,0,0,1-.75,0,.75.75,0,0,1,0-.75H6.525a.75.75,0,0,1,.75.75A.75.75,0,0,1,6.525.75Z"
                    transform="translate(58.836 74.808)" />
                <path class="d"
                    d="M6.525.75H0A.75.75,0,0,1-.75,0,.75.75,0,0,1,0-.75H6.525a.75.75,0,0,1,.75.75A.75.75,0,0,1,6.525.75Z"
                    transform="translate(58.836 78.89)" />
            </g>
        </g>
    </g>
</svg>