<svg xmlns="http://www.w3.org/2000/svg" width="60.234" height="60.234" viewBox="0 0 60.234 60.234"><defs><style>.a{fill:#8fc740;}.b{fill:#fff;}</style></defs><g transform="translate(-851.266 -2563.766)"><path class="a" d="M114.752,230.329H110.2a.9.9,0,0,1-.895-.9v-49.4a1.8,1.8,0,0,0-1.791-1.8h-50.3a1.8,1.8,0,0,0-1.8,1.8v50.294a1.8,1.8,0,0,0,1.8,1.8H106.61a.9.9,0,0,1,.9.9v4.551a.889.889,0,0,0,.891.893h6.348a.9.9,0,0,0,.9-.893v-6.349a.9.9,0,0,0-.9-.9" transform="translate(795.848 2385.53)"/><g transform="translate(859.278 2574.275)"><path class="b" d="M37.444,1H0V-1H37.444Z" transform="translate(0 30.389)"/><path class="b" d="M-1523.5,1414.94a1,1,0,0,1-1-1V1393.8h-15.125v20.14a1,1,0,0,1-1,1,1,1,0,0,1-1-1V1391.8h19.125v22.14A1,1,0,0,1-1523.5,1414.94Z" transform="translate(1543.709 -1384.318)"/><path class="b" d="M-1509.56,1414.628a1,1,0,0,1-1-1v-19.6h-7.33l-1.779,2.1v17.5a1,1,0,0,1-1,1,1,1,0,0,1-1-1V1395.4l2.851-3.371h10.258v21.6A1,1,0,0,1-1509.56,1414.628Z" transform="translate(1543.654 -1384.319)"/><path class="b" d="M-1532.115,1393.624a1,1,0,0,1-1-1v-9.33h15.885v9.148a1,1,0,0,1-1,1,1,1,0,0,1-1-1v-7.148h-11.885v7.33A1,1,0,0,1-1532.115,1393.624Z" transform="translate(1543.686 -1384.294)"/><rect class="b" width="4.618" height="1.921" transform="translate(5.718 12.342)"/><rect class="b" width="4.618" height="1.921" transform="translate(12.969 12.342)"/><rect class="b" width="6.171" height="1.921" transform="translate(25.61 12.342)"/><rect class="b" width="9.334" height="1.542" transform="translate(13.827 2.376)"/><rect class="b" width="9.334" height="1.542" transform="translate(13.827 4.745)"/><rect class="b" width="6.171" height="1.921" transform="translate(25.61 16.198)"/><rect class="b" width="6.171" height="1.921" transform="translate(25.61 21.289)"/><rect class="b" width="6.171" height="1.921" transform="translate(25.61 25.145)"/><rect class="b" width="4.618" height="1.921" transform="translate(5.718 16.352)"/><rect class="b" width="4.618" height="1.921" transform="translate(12.969 16.352)"/><rect class="b" width="4.618" height="1.921" transform="translate(5.718 21.135)"/><rect class="b" width="4.618" height="1.921" transform="translate(12.969 21.135)"/><rect class="b" width="4.618" height="1.921" transform="translate(5.718 25.455)"/><rect class="b" width="4.618" height="1.921" transform="translate(12.969 25.455)"/></g></g></svg>