<svg xmlns="http://www.w3.org/2000/svg" width="60.234" height="60.234" viewBox="0 0 60.234 60.234"><defs><style>.a,.d{fill:#8fc740;}.b,.c{fill:none;}.b,.c,.d,.e{stroke:#fff;stroke-width:1.6px;}.b,.d,.e{stroke-miterlimit:10;}.e{fill:#fff;}</style></defs><path class="a" d="M114.752,230.329H110.2a.9.9,0,0,1-.895-.9v-49.4a1.8,1.8,0,0,0-1.791-1.8h-50.3a1.8,1.8,0,0,0-1.8,1.8v50.294a1.8,1.8,0,0,0,1.8,1.8H106.61a.9.9,0,0,1,.9.9v4.551a.889.889,0,0,0,.891.893h6.348a.9.9,0,0,0,.9-.893v-6.349a.9.9,0,0,0-.9-.9" transform="translate(-55.418 -178.236)"/><g transform="translate(6.265 12.946)"><rect class="b" width="30.986" height="21.399" transform="translate(2 0)"/><path class="c" d="M0,0H14.535V3.776H0Z" transform="translate(10.226 23.916)"/><g transform="translate(14.269 21.345)"><line class="b" y2="2.572" transform="translate(0 0)"/><line class="b" y2="2.572" transform="translate(6.449 0)"/></g></g><g transform="translate(35.115 19.377)"><rect class="d" width="11.904" height="21.007" transform="translate(0 0)"/><rect class="e" width="5.567" height="1.3" transform="translate(3.169)"/></g></svg>