<svg xmlns="http://www.w3.org/2000/svg" width="60" height="60" viewBox="0 0 60 60"><defs><style>.a{fill:#8fc740;}.b{fill:#fff;}</style></defs><g transform="translate(0 -1069)"><path class="a" d="M114.521,230.126h-4.535a.892.892,0,0,1-.891-.892V180.027a1.79,1.79,0,0,0-1.784-1.791h-50.1a1.794,1.794,0,0,0-1.79,1.791v50.1a1.792,1.792,0,0,0,1.79,1.791h49.2a.894.894,0,0,1,.9.9v4.533a.886.886,0,0,0,.887.89h6.324a.892.892,0,0,0,.9-.89v-6.325a.9.9,0,0,0-.9-.9" transform="translate(-55.418 890.764)"/><g transform="translate(12 1077.394)"><path class="b" d="M15.446-.5a2.63,2.63,0,0,1,.736.1c2.5.729,5.033,1.477,7.485,2.2,2.138.631,4.35,1.283,6.526,1.92A1.568,1.568,0,0,1,31.42,5.377c-.009,3.15-.011,6.355-.012,9.454,0,2.213,0,4.5-.006,6.753a2.687,2.687,0,0,1-.271,1.19,32.242,32.242,0,0,1-6.206,8.513,32.586,32.586,0,0,1-8.653,6,1.83,1.83,0,0,1-.809.195,1.9,1.9,0,0,1-.81-.191A32.408,32.408,0,0,1,7.07,32.476,29.236,29.236,0,0,1,1.229,25.61C1,25.24.8,24.864.6,24.5c-.12-.222-.233-.431-.352-.64a5.714,5.714,0,0,1-.721-3.008c.032-1.745.026-3.524.02-5.244,0-.357,0-.72,0-1.085H-.49v-1q0-1.005,0-2.011c0-2.034,0-4.136-.011-6.2A1.526,1.526,0,0,1,.689,3.719C2.85,3.087,5.047,2.44,7.172,1.814,9.636,1.087,12.185.336,14.694-.4A2.728,2.728,0,0,1,15.446-.5ZM29.42,5.579C27.31,4.961,25.172,4.33,23.1,3.72c-2.451-.723-4.986-1.471-7.479-2.2a.8.8,0,0,0-.369,0c-2.506.731-5.053,1.482-7.517,2.208-2.043.6-4.153,1.224-6.235,1.833.013,1.986.011,4,.01,5.948q0,.5,0,1.009h.033v1c0,.692,0,1.4,0,2.078.006,1.731.012,3.521-.02,5.287a3.722,3.722,0,0,0,.46,1.984c.129.226.252.455.372.676.192.355.374.691.572,1.013a27.239,27.239,0,0,0,5.442,6.4,30.4,30.4,0,0,0,7.083,4.5,30.575,30.575,0,0,0,8.071-5.605,30.244,30.244,0,0,0,5.818-7.986.72.72,0,0,0,.055-.288c0-2.252,0-4.54.006-6.752C29.41,11.8,29.411,8.665,29.42,5.579ZM15.658,7.453a9.883,9.883,0,1,1-9.883,9.883A9.894,9.894,0,0,1,15.658,7.453Zm0,17.766a7.883,7.883,0,1,0-7.883-7.883A7.892,7.892,0,0,0,15.658,25.22Z" transform="translate(0)"/><path class="b" d="M15.906,23.606h-.022a1.485,1.485,0,0,1-1.075-.487l-2.528-2.786a1,1,0,1,1,1.481-1.344l2.156,2.375L26.186,10.7a1,1,0,1,1,1.441,1.387L16.973,23.152A1.486,1.486,0,0,1,15.906,23.606Z" transform="translate(-1.848 -1.607)"/></g></g></svg>