<svg xmlns="http://www.w3.org/2000/svg" width="60.234" height="60.234" viewBox="0 0 60.234 60.234"><defs><style>.a{fill:#8fc740;}.b{fill:#fff;}</style></defs><g transform="translate(-851.266 -2563.766)"><path class="a" d="M114.752,230.329H110.2a.9.9,0,0,1-.895-.9v-49.4a1.8,1.8,0,0,0-1.791-1.8h-50.3a1.8,1.8,0,0,0-1.8,1.8v50.294a1.8,1.8,0,0,0,1.8,1.8H106.61a.9.9,0,0,1,.9.9v4.551a.889.889,0,0,0,.891.893h6.348a.9.9,0,0,0,.9-.893v-6.349a.9.9,0,0,0-.9-.9" transform="translate(795.848 2385.53)"/><g transform="translate(859.266 2572.651)"><path class="b" d="M-1-1H12.292V12.292H-1ZM10.292,1H1v9.292h9.292Z" transform="translate(9.184 12.406) rotate(-45)"/><path class="b" d="M-1-1H4.481V6.682H-1ZM2.481,1H1V4.682H2.481Z" transform="translate(20.01 17.709) rotate(-45)"/><g transform="translate(23.591 18.829)"><path class="b" d="M-1-1H5.756V16.275H-1ZM3.756,1H1V14.275H3.756Z" transform="translate(0 3.363) rotate(-45)"/></g><path class="b" d="M-1-1H13.2V4.505H-1ZM11.2,1H1V2.505H11.2Z" transform="translate(3.769 28.26)"/><g transform="translate(0.61 0.61)"><path class="b" d="M-1-1H19.518V4.826H-1ZM17.518,1H1V2.826H17.518Z" transform="translate(0 31.153)"/><path class="b" d="M267.966,22.287a1.441,1.441,0,0,1-1.026-.425l-8.732-8.732a1.453,1.453,0,0,1,0-2.052l2.653-2.653a1.451,1.451,0,0,1,2.052,0l8.732,8.732a1.453,1.453,0,0,1,0,2.052l-2.653,2.653A1.441,1.441,0,0,1,267.966,22.287ZM260.01,12.1l7.956,7.956,1.877-1.877-7.956-7.956Z" transform="translate(-242.716 -9)"/><path class="b" d="M90.537,199.773a1.446,1.446,0,0,1-1.03-.427l-8.725-8.725a1.458,1.458,0,0,1,0-2.059l2.647-2.647a1.456,1.456,0,0,1,2.059,0l8.726,8.726a1.458,1.458,0,0,1,0,2.059l-2.646,2.646A1.446,1.446,0,0,1,90.537,199.773Zm-7.956-10.181,7.956,7.956,1.877-1.877-7.956-7.956Z" transform="translate(-76.702 -175.073)"/></g></g></g></svg>