<svg id="Icon-Fixed-Monthly-Rate" xmlns="http://www.w3.org/2000/svg" width="168.357" height="168.357" viewBox="0 0 168.357 168.357">
  <path id="Path_1004" data-name="Path 1004" d="M221.257,323.837H208.532a2.5,2.5,0,0,1-2.5-2.5V183.263a5.022,5.022,0,0,0-5.007-5.026H60.442a5.033,5.033,0,0,0-5.024,5.026V323.837a5.029,5.029,0,0,0,5.024,5.026H198.5a2.51,2.51,0,0,1,2.523,2.513V344.1a2.485,2.485,0,0,0,2.49,2.5h17.744a2.5,2.5,0,0,0,2.517-2.5V326.35a2.516,2.516,0,0,0-2.517-2.513" transform="translate(-55.418 -178.236)" fill="#758cc5"></path>
  <g id="Group_2433" data-name="Group 2433" transform="translate(-243.45 -1397.573)">
    <path id="Path_1506" data-name="Path 1506" d="M411,1436a46.686,46.686,0,0,1,34.3,44.91,46.2,46.2,0,0,1-6.233,23.238" transform="translate(-78.608 -8.297)" fill="none" stroke="#fff" stroke-miterlimit="8" stroke-width="5" fill-rule="evenodd"></path>
    <path id="Path_1507" data-name="Path 1507" d="M412.6,1440.279l1.3-.734-3.773-6.11,6.653-3.146L416.1,1429l-8.1,3.834Z" transform="translate(-77.962 -5.612)" fill="none" stroke="#fff" stroke-miterlimit="8" stroke-width="2" fill-rule="evenodd"></path>
    <path id="Path_1508" data-name="Path 1508" d="M281.214,1492.378a47.375,47.375,0,0,1,18.763-53.7,46.045,46.045,0,0,1,22.8-7.677" transform="translate(-6.181 -5.554)" fill="none" stroke="#fff" stroke-miterlimit="8" stroke-width="5" fill-rule="evenodd"></path>
    <path id="Path_1509" data-name="Path 1509" d="M284.1,1555.653l-1.275-.653-3.076,6.557-6.038-3.682-.715,1.283,7.358,4.479Z" transform="translate(-4.515 -73.909)" fill="none" stroke="#fff" stroke-miterlimit="8" stroke-width="2" fill-rule="evenodd"></path>
    <path id="Path_1510" data-name="Path 1510" d="M367.112,1599.074a46.768,46.768,0,0,1-55.691,8.381A46.225,46.225,0,0,1,294,1591" transform="translate(-14.411 -93.344)" fill="none" stroke="#fff" stroke-miterlimit="8" stroke-width="5" fill-rule="evenodd"></path>
    <path id="Path_1511" data-name="Path 1511" d="M444,1607.306l.052,1.489,7.337-.249-.284,7.343,1.492.051.342-8.939Z" transform="translate(-97.714 -103.744)" fill="none" stroke="#fff" stroke-miterlimit="8" stroke-width="2" fill-rule="evenodd"></path>
    <g id="Group_1537" data-name="Group 1537" transform="translate(297.509 1446.922)">
      <text id="_" data-name="$" transform="translate(6.916 44.334)" fill="#fff" font-size="54" font-family="Helvetica"><tspan x="0" y="0">$</tspan></text>
    </g>
  </g>
</svg>
