<svg xmlns="http://www.w3.org/2000/svg" xmlns:xlink="http://www.w3.org/1999/xlink" width="60.23" height="60.23" viewBox="0 0 60.23 60.23">
  <defs>
    <clipPath id="clip-Icon_Dynamics-365_2">
      <rect width="60.23" height="60.23"></rect>
    </clipPath>
  </defs>
  <g id="Icon_Dynamics-365_2" data-name="Icon_Dynamics-365 – 2" clip-path="url('#clip-Icon_Dynamics-365_2')">
    <rect width="60.23" height="60.23" fill="#fff"></rect>
    <g id="Group_1966" data-name="Group 1966" transform="translate(-851.27 -2563.766)">
      <path id="Path_1004" data-name="Path 1004" d="M114.752,230.329H110.2a.9.9,0,0,1-.895-.9v-49.4a1.8,1.8,0,0,0-1.791-1.8h-50.3a1.8,1.8,0,0,0-1.8,1.8v50.294a1.8,1.8,0,0,0,1.8,1.8H106.61a.9.9,0,0,1,.9.9v4.551a.889.889,0,0,0,.891.893h6.348a.9.9,0,0,0,.9-.893v-6.349a.9.9,0,0,0-.9-.9" transform="translate(795.848 2385.53)" fill="#8fc740"></path>
      <path id="Article_5_Icons_3" data-name="Article 5 Icons_3" d="M338.819,313.322l4.091-.18-.18,4.091m-4.491.58,4.671-4.671m2.341,10.513,2.921,2.921-2.921,2.921m-3.511-2.921h6.422m-5.992,9.343.15,4.091-3.5-.18m-1.16-4.491,4.671,4.671m-10.513,2.921-2.631,2.921-2.621-2.921m2.331-4.091v7.012m-9.343-6.022-4.091.18.18-4.091m4.491-.58-4.671,4.671m-2.341-11.093-2.921-2.641,2.921-2.621m3.511,2.921H310.21m5.432-9.933-.18-3.5,4.091.15m.58,4.521-4.671-4.671m11.093-2.921,2.631-2.921,2.621,2.921m-2.911,3.5V307.3m10.513,20.686v-2.911l-2.361-.55a8.586,8.586,0,0,0-.95-2.291l1.23-2.091-2.061-2.071-2.051,1.28a8.039,8.039,0,0,0-2.3-.95l-.61-2.351H327.4l-.55,2.361a8.587,8.587,0,0,0-2.291.95l-2.081-1.23-2.061,2.061,1.27,2.051a8.275,8.275,0,0,0-.95,2.291l-2.351.61v2.931l2.361.55a8.587,8.587,0,0,0,.95,2.291l-1.23,2.091,2.061,2.061,2.051-1.27a8.27,8.27,0,0,0,2.291.95l.61,2.351h2.911l.55-2.361a8.583,8.583,0,0,0,2.291-.95l2.091,1.23,2.061-2.061-1.26-2.051a8.333,8.333,0,0,0,.95-2.3Zm-5.842-1.7a4.381,4.381,0,1,1-4.381-4.381A4.38,4.38,0,0,1,333.567,326.286Z" transform="translate(549.205 2265.001)" fill="none" stroke="#fff" stroke-miterlimit="8" stroke-width="1.6"></path>
    </g>
  </g>
</svg>
