<svg xmlns="http://www.w3.org/2000/svg" xmlns:xlink="http://www.w3.org/1999/xlink" width="60.23" height="60.23" viewBox="0 0 60.23 60.23"><defs><clipPath id="b"><rect width="60.23" height="60.23"></rect></clipPath></defs><g id="a" clip-path="url('#b')"><rect width="60.23" height="60.23" fill="#fff"></rect><g transform="translate(-851.266 -2563.766)"><path d="M114.752,230.329H110.2a.9.9,0,0,1-.895-.9v-49.4a1.8,1.8,0,0,0-1.791-1.8h-50.3a1.8,1.8,0,0,0-1.8,1.8v50.294a1.8,1.8,0,0,0,1.8,1.8H106.61a.9.9,0,0,1,.9.9v4.551a.889.889,0,0,0,.891.893h6.348a.9.9,0,0,0,.9-.893v-6.349a.9.9,0,0,0-.9-.9" transform="translate(795.848 2385.53)" fill="#8fc740"></path><path d="M344.806,371.977v-7.051l-6.031-11.7h1.312a6.258,6.258,0,0,1,4.719,2.159V332.6h.8l.538-.592,5.888,5.355-1.077,1.184-4.55-4.138V348.5a5.566,5.566,0,0,1,4-1.7h1.038l-5.041,19.11v2.12l-.37-.718Zm-3.29-16.929,3.29,6.385v-1.78A4.83,4.83,0,0,0,341.516,355.048Zm4.89-2.6v7.193l2.925-11.088A4.045,4.045,0,0,0,346.406,352.445Zm-18.414,2.115-1.184-1.077,5.355-5.888,1.184,1.077Zm28.865-.481-1.08-1.18,6.431-5.888,1.08,1.18Z" transform="translate(532.637 2241.582)" fill="#fff"></path></g></g></svg>