<svg xmlns="http://www.w3.org/2000/svg" xmlns:xlink="http://www.w3.org/1999/xlink" width="60.23" height="60.23" viewBox="0 0 60.23 60.23">
  <defs>
    <clipPath id="clip-Icon_Dynamics-365_4">
      <rect width="60.23" height="60.23"></rect>
    </clipPath>
  </defs>
  <g id="Icon_Dynamics-365_4" data-name="Icon_Dynamics-365 – 4" clip-path="url('#clip-Icon_Dynamics-365_4')">
    <rect width="60.23" height="60.23" fill="#fff"></rect>
    <g id="Group_1964" data-name="Group 1964" transform="translate(-851.266 -2563.766)">
      <path id="Path_1004" data-name="Path 1004" d="M114.752,230.329H110.2a.9.9,0,0,1-.895-.9v-49.4a1.8,1.8,0,0,0-1.791-1.8h-50.3a1.8,1.8,0,0,0-1.8,1.8v50.294a1.8,1.8,0,0,0,1.8,1.8H106.61a.9.9,0,0,1,.9.9v4.551a.889.889,0,0,0,.891.893h6.348a.9.9,0,0,0,.9-.893v-6.349a.9.9,0,0,0-.9-.9" transform="translate(795.848 2385.53)" fill="#8fc740"></path>
      <path id="Article_5_Icons_5" data-name="Article 5 Icons_5" d="M349.607,356.749a5.539,5.539,0,0,0,1.48-3.771,5.336,5.336,0,0,0-5.23-5.435,5.03,5.03,0,0,0-2.582.7l2.82-3.209m-4.268,4.462a5.117,5.117,0,0,0-1.351,3.468,5.248,5.248,0,0,0,5.294,5.2,5.332,5.332,0,0,0,2.518-.627l-2.863,3.123m-5.5,2.226h12.825m-19.524-7.812,6.137-11.712m19.524,11.712-6.137-11.712M350.363,332.2a.731.731,0,0,1,.724.724v8.6a.738.738,0,0,1-.724.724h-8.6a.731.731,0,0,1-.724-.724v-8.6a.724.724,0,0,1,.724-.724Zm-17.969,25.111A5.294,5.294,0,1,0,337.7,362.6,5.31,5.31,0,0,0,332.394,357.311Zm31.323,0a.728.728,0,0,0-.367.108l-8.028,4.884a.709.709,0,0,0-.346.594.685.685,0,0,0,.346.594l8.028,4.884a.763.763,0,0,0,.746.022.682.682,0,0,0,.378-.616V358a.672.672,0,0,0-.227-.5A.69.69,0,0,0,363.718,357.311Z" transform="translate(531.333 2239.841)" fill="none" stroke="#fff" stroke-linecap="round" stroke-linejoin="round" stroke-miterlimit="10" stroke-width="1.6"></path>
    </g>
  </g>
</svg>
