<svg xmlns="http://www.w3.org/2000/svg" xmlns:xlink="http://www.w3.org/1999/xlink" width="60.23" height="60.23" viewBox="0 0 60.23 60.23">
  <defs>
    <clipPath id="clip-Icon_Dynamics-365">
      <rect width="60.23" height="60.23"></rect>
    </clipPath>
  </defs>
  <g id="Icon_Dynamics-365" clip-path="url('#clip-Icon_Dynamics-365')">
    <rect width="60.23" height="60.23" fill="#fff"></rect>
    <g id="Group_1963" data-name="Group 1963" transform="translate(-851.266 -2563.766)">
      <path id="Path_1004" data-name="Path 1004" d="M114.752,230.329H110.2a.9.9,0,0,1-.895-.9v-49.4a1.8,1.8,0,0,0-1.791-1.8h-50.3a1.8,1.8,0,0,0-1.8,1.8v50.294a1.8,1.8,0,0,0,1.8,1.8H106.61a.9.9,0,0,1,.9.9v4.551a.889.889,0,0,0,.891.893h6.348a.9.9,0,0,0,.9-.893v-6.349a.9.9,0,0,0-.9-.9" transform="translate(795.848 2385.53)" fill="#8fc740"></path>
      <path id="Article_5_Icons_1" data-name="Article 5 Icons_1" d="M362.535,376.819H338.264a12.138,12.138,0,0,1,.511-3.446,11.784,11.784,0,0,1,2.784-4.7c.232-.244.487-.487.743-.708a11.86,11.86,0,0,1,3.132-1.984,12.353,12.353,0,0,1,1.74-.615h.081v-.012a.812.812,0,0,1,.162-.035,2.2,2.2,0,0,1,.267-.058,2.564,2.564,0,0,1,.29-.058.489.489,0,0,0,.139-.035,2.147,2.147,0,0,0,.29-.058c.046-.012.1-.012.151-.023s.1-.012.139-.023c.058-.012.1-.012.151-.023.139-.012.278-.035.429-.046a.4.4,0,0,1,.116-.012,1.261,1.261,0,0,1,.209-.012c.267-.012.534-.023.8-.023h.012a12.2,12.2,0,0,1,4.966,1.044,12.378,12.378,0,0,1,3.863,2.692,11.614,11.614,0,0,1,3.295,8.133Zm-4.861-19.155a7.226,7.226,0,0,1-2.367,5.372,1.734,1.734,0,0,1-.162.139,7.251,7.251,0,0,1-4.757,1.775h-.012a5.88,5.88,0,0,1-.789-.046,7.345,7.345,0,0,1-2.309-.65,7.479,7.479,0,0,1-1.647-1.079c-.058-.046-.1-.093-.162-.139a7.279,7.279,0,0,1,1.821-11.962,7.433,7.433,0,0,1,2.309-.65,6.061,6.061,0,0,1,.8-.046A7.3,7.3,0,0,1,357.674,357.664Zm-7.541,7.286a7.886,7.886,0,0,0,4.85-1.613m-4.85,1.613a7.886,7.886,0,0,0,4.85-1.613M326.395,350.39h10.244v2.7H326.395Zm0,9.165h10.244v2.692H326.395Zm0-4.542h10.244v2.651H326.395ZM346.489,339.6H324.1a3.112,3.112,0,0,0-3.1,3.1v22.38a3.1,3.1,0,0,0,3.1,3.1H338.96a14.382,14.382,0,0,1,2.587-2.657H323.332V347.188h23.9v1.207a9.787,9.787,0,0,1,2.344-.487v-5.2A3.1,3.1,0,0,0,346.489,339.6Zm-5.372,5.488a1.456,1.456,0,0,1-1.462-1.462,1.462,1.462,0,1,1,2.924,0A1.456,1.456,0,0,1,341.118,345.088Zm4.56,0a1.456,1.456,0,1,1,1.462-1.45A1.461,1.461,0,0,1,345.677,345.088Z" transform="translate(536.266 2233.021)" fill="none" stroke="#fff" stroke-linecap="round" stroke-linejoin="round" stroke-miterlimit="8" stroke-width="1.6"></path>
    </g>
  </g>
</svg>
