<svg xmlns="http://www.w3.org/2000/svg" xmlns:xlink="http://www.w3.org/1999/xlink" width="111" height="111" viewBox="0 0 111 111"><defs><style>.a{clip-path:url(#b);}.b{fill:#8fc740;}.c{fill:#fff;}</style><clipPath id="b"><rect width="111" height="111"/></clipPath></defs><g id="a" class="a"><rect class="c" width="111" height="111"/><g transform="translate(0 -1069)"><path class="b" d="M164.758,274.233h-8.39a1.65,1.65,0,0,1-1.649-1.65V181.55a3.311,3.311,0,0,0-3.3-3.314H58.73a3.318,3.318,0,0,0-3.312,3.314v92.683a3.316,3.316,0,0,0,3.312,3.314h91.024a1.655,1.655,0,0,1,1.663,1.657v8.386a1.639,1.639,0,0,0,1.642,1.646h11.7a1.649,1.649,0,0,0,1.66-1.646v-11.7a1.659,1.659,0,0,0-1.66-1.657" transform="translate(-55.418 890.764)"/><g transform="translate(27.291 1086.202)"><path class="c" d="M180.1,150.8H193v4.086h21.343V150.8h12.891v57.82H180.1Zm10.9,2h-8.9v53.82h43.139V152.8h-8.891v2.375a1.713,1.713,0,0,1-1.711,1.711H192.716A1.713,1.713,0,0,1,191,155.175Z" transform="translate(-181.1 -143.587)"/><path class="c" d="M282.09,106.227H260.211a1.713,1.713,0,0,1-1.711-1.711V96.544h7.785a4.864,4.864,0,0,1,9.718,0h7.785v4.83l.028,3.128A1.727,1.727,0,0,1,282.09,106.227Zm-21.59-2h21.313l-.025-2.849V98.544h-5.972a1.811,1.811,0,0,1-1.809-1.809,2.863,2.863,0,0,0-5.725,0,1.811,1.811,0,0,1-1.809,1.809H260.5Z" transform="translate(-248.567 -92.9)"/><g transform="translate(6.54 18.254)"><path class="c" d="M18.895,1H0V-1H18.895Z" transform="translate(12.969 2.942)"/><path class="c" d="M18.895,1H0V-1H18.895Z" transform="translate(13.038 14.251)"/><path class="c" d="M18.895,1H0V-1H18.895Z" transform="translate(13.038 25.574)"/><path class="c" d="M18.895,1H0V-1H18.895Z" transform="translate(13.038 36.897)"/><path class="c" d="M230.19,231.095l-2.895-2.876,1.41-1.419,1.484,1.474,5.208-5.183,1.411,1.418Z" transform="translate(-228 -223.8)"/><path class="c" d="M230.191,312.21l-2.9-2.877,1.41-1.419,1.483,1.474,5.208-5.2,1.413,1.416Z" transform="translate(-228 -293.591)"/><path class="c" d="M230.188,393.412l-2.9-2.9,1.414-1.414,1.483,1.483,5.205-5.193,1.413,1.416Z" transform="translate(-228 -363.468)"/><path class="c" d="M230.19,474.595l-2.895-2.876,1.41-1.419,1.484,1.474,5.208-5.183,1.411,1.418Z" transform="translate(-228 -433.345)"/></g></g></g></g></svg>