<svg xmlns="http://www.w3.org/2000/svg" xmlns:xlink="http://www.w3.org/1999/xlink" width="111" height="111" viewBox="0 0 111 111"><defs><style>.a{clip-path:url(#b);}.b{fill:#8fc740;}.c{fill:#fff;}</style><clipPath id="b"><rect width="111" height="111"/></clipPath></defs><g id="a" class="a"><rect class="c" width="111" height="111"/><g transform="translate(0 -1069)"><path class="b" d="M164.758,274.233h-8.39a1.65,1.65,0,0,1-1.649-1.65V181.55a3.311,3.311,0,0,0-3.3-3.314H58.73a3.318,3.318,0,0,0-3.312,3.314v92.683a3.316,3.316,0,0,0,3.312,3.314h91.024a1.655,1.655,0,0,1,1.663,1.657v8.386a1.639,1.639,0,0,0,1.642,1.646h11.7a1.649,1.649,0,0,0,1.66-1.646v-11.7a1.659,1.659,0,0,0-1.66-1.657" transform="translate(-55.418 890.764)"/><g transform="translate(21.081 1089.371)"><path class="c" d="M11.814-1A12.814,12.814,0,0,1,24.627,11.814,12.814,12.814,0,0,1,11.814,24.627,12.814,12.814,0,0,1-1,11.814,12.814,12.814,0,0,1,11.814-1Zm0,23.627A10.814,10.814,0,0,0,19.46,4.167,10.814,10.814,0,0,0,4.167,19.46,10.743,10.743,0,0,0,11.814,22.627Z" transform="translate(16.549 16.549)"/><path class="c" d="M124.29,162.308l-6.932-6.932,3.411-5.8a23.42,23.42,0,0,1-2.225-5.34L112,142.7v-9.429l6.513-1.668a23.25,23.25,0,0,1,2.2-5.352l-3.538-5.715,6.672-6.672,5.794,3.41a23.089,23.089,0,0,1,5.343-2.236l1.534-6.544h9.427l1.681,6.513a23.349,23.349,0,0,1,5.353,2.2l5.715-3.538,6.658,6.673-3.409,5.793a23.09,23.09,0,0,1,2.236,5.343l6.544,1.534v9.426l-6.525,1.693a23.349,23.349,0,0,1-2.2,5.351l3.551,5.691L159.13,161.6h-1.054l-.273-.565a18.378,18.378,0,0,0-3.169-4.6,18.218,18.218,0,0,0-26.568,0l-.007.007a17.521,17.521,0,0,0-3.16,4.594Zm17.06-13.62a20.165,20.165,0,0,1,14.742,6.373,20.377,20.377,0,0,1,2.869,3.881l4.05-4.05-3.353-5.374.316-.525a21.356,21.356,0,0,0,2.434-5.913l.142-.579,6.174-1.6V134.6l-6.18-1.449-.148-.592a21.1,21.1,0,0,0-2.467-5.9l-.313-.512,3.229-5.487-4.446-4.456-5.4,3.341-.523-.314a21.357,21.357,0,0,0-5.913-2.434l-.58-.143L144.4,110.5H138.1l-1.449,6.18-.592.148a21.1,21.1,0,0,0-5.9,2.467l-.512.313-5.486-3.229-4.457,4.457,3.341,5.4-.314.523a21.263,21.263,0,0,0-2.433,5.911l-.142.582L114,134.829v6.291l6.18,1.449.148.592a21.429,21.429,0,0,0,2.457,5.9l.309.511-3.227,5.484,3.872,3.872a19.4,19.4,0,0,1,2.872-3.871,20.165,20.165,0,0,1,14.739-6.37Z" transform="translate(-113 -109.5)"/><path class="c" d="M227.305,464.241H188.8a1,1,0,0,1-1-1,20.124,20.124,0,0,1,1.985-8.761,19.513,19.513,0,0,1,3.517-5.111,20.218,20.218,0,0,1,29.48,0,20.375,20.375,0,0,1,3.512,5.1,19.2,19.2,0,0,1,1.138,2.908,19.872,19.872,0,0,1,.872,5.855A1,1,0,0,1,227.305,464.241Zm-37.478-2h36.451a17.762,17.762,0,0,0-.758-4.27l0-.007a17.23,17.23,0,0,0-1.023-2.614,18.383,18.383,0,0,0-3.17-4.607,18.218,18.218,0,0,0-26.568,0l-.007.007a17.52,17.52,0,0,0-3.16,4.594,18.081,18.081,0,0,0-1.762,6.9Z" transform="translate(-179.69 -403.8)"/></g></g></g></svg>