<svg xmlns="http://www.w3.org/2000/svg" xmlns:xlink="http://www.w3.org/1999/xlink" width="111" height="111" viewBox="0 0 111 111"><defs><style>.a{clip-path:url(#b);}.b{fill:#8fc740;}.c{fill:#fef5f5;}.d{fill:#fff;}</style><clipPath id="b"><rect width="111" height="111"/></clipPath></defs><g id="a" class="a"><rect class="d" width="111" height="111"/><g transform="translate(0 -1069)"><path class="b" d="M164.758,274.233h-8.39a1.65,1.65,0,0,1-1.649-1.65V181.55a3.311,3.311,0,0,0-3.3-3.314H58.73a3.318,3.318,0,0,0-3.312,3.314v92.683a3.316,3.316,0,0,0,3.312,3.314h91.024a1.655,1.655,0,0,1,1.663,1.657v8.386a1.639,1.639,0,0,0,1.642,1.646h11.7a1.649,1.649,0,0,0,1.66-1.646v-11.7a1.659,1.659,0,0,0-1.66-1.657" transform="translate(-55.418 890.764)"/><g transform="translate(16.073 1087.328)"><path class="c" d="M7.576-1A8.576,8.576,0,1,1-1,7.576,8.585,8.585,0,0,1,7.576-1Zm0,15.151A6.576,6.576,0,1,0,1,7.576,6.583,6.583,0,0,0,7.576,14.151Z" transform="translate(25.612 25.612)"/><path class="c" d="M207.17,223.074h-6.614l-1.095-4.25a15.1,15.1,0,0,1-3.125-1.288l-3.719,2.308-4.673-4.673,2.225-3.774a15.465,15.465,0,0,1-1.3-3.124l-4.269-1v-6.614l4.25-1.095a15.1,15.1,0,0,1,1.289-3.125l-2.308-3.719,4.673-4.673,3.774,2.225a15.467,15.467,0,0,1,3.124-1.3l1-4.269h6.614l1.094,4.249a15.237,15.237,0,0,1,3.133,1.29l3.721-2.321,4.675,4.675-2.225,3.774a15.465,15.465,0,0,1,1.3,3.124l4.269,1v6.614l-4.238,1.094a15.237,15.237,0,0,1-1.292,3.138l2.286,3.721-4.671,4.671-3.774-2.225a15.465,15.465,0,0,1-3.124,1.3Zm-5.064-2h3.479l.916-3.9.59-.149a13.475,13.475,0,0,0,3.692-1.535l.511-.309,3.457,2.038,2.459-2.459-2.088-3.4.312-.521a13.247,13.247,0,0,0,1.523-3.7l.141-.583,3.886-1v-3.48l-3.9-.916-.149-.59a13.475,13.475,0,0,0-1.535-3.692l-.309-.511,2.038-3.457-2.455-2.455-3.4,2.12-.525-.315a13.246,13.246,0,0,0-3.7-1.523l-.583-.141-1-3.9h-3.479l-.916,3.9-.59.149a13.473,13.473,0,0,0-3.692,1.535l-.511.309-3.457-2.038-2.457,2.457,2.111,3.4-.318.524a13.106,13.106,0,0,0-1.522,3.685l-.142.582-3.9,1v3.479l3.9.916.149.59a13.475,13.475,0,0,0,1.535,3.692l.309.511-2.038,3.457,2.457,2.457,3.4-2.111.524.318a13.107,13.107,0,0,0,3.685,1.522l.582.142Z" transform="translate(-170.616 -170.705)"/><g transform="translate(28.687)"><path class="c" d="M1,11.586H-1V0H1Z" transform="translate(4.657 0)"/><path class="c" d="M309.337,56.856,307.863,55.5l5.395-5.885,5.383,5.886-1.476,1.35-3.909-4.274Z" transform="translate(-308.6 -51.1)"/></g><g transform="translate(9.826 9.614)"><path class="c" d="M7.481,8.9-.707.707.707-.707,8.9,7.481Z" transform="translate(0 0)"/><path class="c" d="M138.6,144.329l-.348-7.975,7.975.348-.087,2-5.795-.253.253,5.795Z" transform="translate(-139.3 -137.4)"/></g><g transform="translate(0 28.386)"><path class="c" d="M11.586,1H0V-1H11.586Z" transform="translate(0 4.646)"/><path class="c" d="M55.5,315.94l-5.885-5.395,5.886-5.383,1.35,1.476-4.274,3.909,4.275,3.919Z" transform="translate(-51.1 -305.9)"/></g><g transform="translate(9.614 48.362)"><path class="c" d="M.707,8.9-.707,7.481,7.481-.707,8.9.707Z" transform="translate(0)"/><path class="c" d="M136.353,504.832l.348-7.975,2,.087-.253,5.795,5.795-.253.087,2Z" transform="translate(-137.4 -495.597)"/></g><g transform="translate(28.386 54.79)"><path class="c" d="M1,11.586H-1V0H1Z" transform="translate(4.646 0)"/><path class="c" d="M310.545,607.861l-5.383-5.886,1.476-1.35,3.909,4.274,3.919-4.275,1.474,1.351Z" transform="translate(-305.9 -594.794)"/></g><g transform="translate(48.362 48.573)"><path class="c" d="M7.481,8.9-.707.707.707-.707,8.9,7.481Z" transform="translate(0 0)"/><path class="c" d="M504.832,506.732l-7.975-.348.087-2,5.795.253-.253-5.795,2-.087Z" transform="translate(-495.597 -497.497)"/></g><g transform="translate(54.79 28.687)"><path class="c" d="M11.586,1H0V-1H11.586Z" transform="translate(0 4.657)"/><path class="c" d="M601.975,318.64l-1.35-1.476,4.274-3.909-4.275-3.919,1.351-1.474,5.885,5.395Z" transform="translate(-594.794 -308.6)"/></g><g transform="translate(48.573 9.826)"><path class="c" d="M.707,8.9-.707,7.481,7.481-.707,8.9.707Z" transform="translate(0)"/><path class="c" d="M506.383,146.229l-2-.087.253-5.795-5.795.253-.087-2,7.975-.348Z" transform="translate(-497.497 -139.3)"/></g></g></g></g></svg>