<svg id="Icon-Speaker" xmlns="http://www.w3.org/2000/svg" xmlns:xlink="http://www.w3.org/1999/xlink" width="60.162" height="60.162" viewBox="0 0 60.162 60.162">
  <defs>
    <clipPath id="clip-path">
      <rect id="Rectangle_926" data-name="Rectangle 926" width="38.445" height="33.298" fill="none"/>
    </clipPath>
  </defs>
  <path id="Path_1198" data-name="Path 1198" d="M114.681,230.266h-4.548a.894.894,0,0,1-.894-.894v-49.34a1.8,1.8,0,0,0-1.789-1.8H57.213a1.8,1.8,0,0,0-1.8,1.8v50.234a1.8,1.8,0,0,0,1.8,1.8h49.335a.9.9,0,0,1,.9.9v4.545a.888.888,0,0,0,.89.892h6.341a.894.894,0,0,0,.9-.892v-6.342a.9.9,0,0,0-.9-.9" transform="translate(-55.418 -178.236)" fill="#758cc5"/>
  <g id="Group_2450" data-name="Group 2450" transform="translate(11.945 13.274)">
    <g id="Group_2449" data-name="Group 2449" transform="translate(-4 -3)" clip-path="url(#clip-path)">
      <path id="Path_1679" data-name="Path 1679" d="M17.145,24.742c0,3.339-.009,6.678.007,10.018a1.727,1.727,0,0,1-.913,1.839,1.774,1.774,0,0,1-2-.484C11.758,34.043,9.259,32,6.783,29.922a2.109,2.109,0,0,0-1.552-.579c-1.179.057-2.363.024-3.544.014A1.547,1.547,0,0,1,.009,27.7q-.018-2.905,0-5.81a1.53,1.53,0,0,1,1.658-1.675c1.293-.028,2.587.014,3.879-.026a1.689,1.689,0,0,0,.951-.345q3.935-3.21,7.833-6.466a1.676,1.676,0,0,1,1.9-.424,1.714,1.714,0,0,1,.929,1.769c-.019,3.339-.008,6.678-.008,10.017" transform="translate(4.171 -7.962)" fill="none" stroke="#fff" stroke-width="2"/>
      <path id="Path_1680" data-name="Path 1680" d="M202.329,10.789a14.546,14.546,0,0,1-3.421,8.859,1.172,1.172,0,0,1-1.711.258,1.2,1.2,0,0,1-.276-1.824,12.465,12.465,0,0,0,2.608-5.462,12.026,12.026,0,0,0-2.472-10.092c-.112-.144-.233-.281-.346-.425A1.207,1.207,0,0,1,196.96.277a1.161,1.161,0,0,1,1.68.192,15.37,15.37,0,0,1,3.689,10.32" transform="translate(-167.259 6.729)" fill="#fff"/>
      <path id="Path_1681" data-name="Path 1681" d="M158.364,45.956a6.608,6.608,0,0,0-1.452-4.093,1.249,1.249,0,0,1,.411-1.945,1.15,1.15,0,0,1,1.517.3,9.169,9.169,0,0,1,.256,11.211,1.168,1.168,0,0,1-1.626.325,1.226,1.226,0,0,1-.449-1.762,7.213,7.213,0,0,0,1.253-3c.051-.343.062-.693.091-1.039" transform="translate(-131.447 -29.048)" fill="#fff"/>
    </g>
  </g>
</svg>
