<svg width="17" height="18" viewBox="0 0 17 18" fill="none" xmlns="http://www.w3.org/2000/svg">
<rect width="17" height="18" fill="#F5F5F5"/>
<g id="Homepage_Mockup_Desktop" clip-path="url(#clip0_3552_3733)">
<rect width="1440" height="4996" transform="translate(-1112 -55)" fill="white"/>
<g id="header-group-navigation-update">
<g id="header_desktop_module">
<g id="top-menu">
<mask id="path-1-inside-1_3552_3733" fill="white">
<path d="M-1112 -55H328V58H-1112V-55Z"/>
</mask>
<path d="M-1112 -55H328V58H-1112V-55Z" fill="white"/>
<path d="M-1112 -52H328V-58H-1112V-52Z" fill="#CF142B" mask="url(#path-1-inside-1_3552_3733)"/>
<g id="top-header">
<g id="group-3">
<path id="icon-linkedin" d="M3.77198 17.271H0.294981V6.073H3.77198V17.271ZM2.03198 4.545C1.63187 4.54678 1.24023 4.42987 0.906564 4.20906C0.572901 3.98825 0.312208 3.67346 0.157451 3.30449C0.00269482 2.93552 -0.0391748 2.52895 0.0371371 2.13618C0.113449 1.74342 0.304515 1.3821 0.586174 1.09793C0.867833 0.813749 1.22743 0.619476 1.61951 0.539672C2.01158 0.459869 2.41851 0.498119 2.78884 0.649587C3.15917 0.801054 3.47627 1.05894 3.70004 1.39062C3.92381 1.72231 4.0442 2.1129 4.04598 2.513C4.04626 3.0489 3.83474 3.56319 3.45749 3.94381C3.08024 4.32442 2.56786 4.54052 2.03198 4.545ZM16.786 17.271H13.318V11.82C13.318 10.52 13.292 8.855 11.51 8.855C9.70198 8.855 9.42498 10.266 9.42498 11.727V17.272H5.94998V6.073H9.28498V7.598H9.33398C9.66752 7.02721 10.1497 6.55759 10.729 6.2392C11.3084 5.9208 11.9633 5.76556 12.624 5.79C16.143 5.79 16.79 8.107 16.79 11.117V17.268L16.786 17.271Z" fill="#3171AD"/>
</g>
</g>
</g>
</g>
</g>
</g>
<defs>
<clipPath id="clip0_3552_3733">
<rect width="1440" height="4996" fill="white" transform="translate(-1112 -55)"/>
</clipPath>
</defs>
</svg>
