<svg xmlns="http://www.w3.org/2000/svg" width="60.234" height="60.234" viewBox="0 0 60.234 60.234"><defs><style>.a{fill:#8fc740;}.b{fill:#fff;}</style></defs><g transform="translate(-851.266 -2563.766)"><path class="a" d="M114.752,230.329H110.2a.9.9,0,0,1-.895-.9v-49.4a1.8,1.8,0,0,0-1.791-1.8h-50.3a1.8,1.8,0,0,0-1.8,1.8v50.294a1.8,1.8,0,0,0,1.8,1.8H106.61a.9.9,0,0,1,.9.9v4.551a.889.889,0,0,0,.891.893h6.348a.9.9,0,0,0,.9-.893v-6.349a.9.9,0,0,0-.9-.9" transform="translate(795.848 2385.53)"/><g transform="translate(860.007 2573.57)"><g transform="translate(5 1.316)"><path class="b" d="M159.515,45.817l-1.054-.184a1.74,1.74,0,0,0-.289-.026h-3.66V41.551a6.494,6.494,0,0,0-2.053-4.57,7.024,7.024,0,0,0-9.6,0,6.494,6.494,0,0,0-2.053,4.57v4.057h-3.831a1.06,1.06,0,0,0-.147.01l-1.025.144V41.54a11.308,11.308,0,0,1,3.482-8.168,12.092,12.092,0,0,1,16.75,0,11.308,11.308,0,0,1,3.482,8.168Zm-3.2-2.009h1.4V41.54a10.063,10.063,0,0,0-20.115,0v2.268H139V41.519a8.282,8.282,0,0,1,2.613-5.844,8.824,8.824,0,0,1,12.081,0,8.282,8.282,0,0,1,2.614,5.844v2.289Z" transform="translate(-134.615 -30.902)"/><path class="b" d="M96.018,315.5h21.091a3.482,3.482,0,0,1,.593.053,3.29,3.29,0,0,1,2.737,3.216v11.6a3.3,3.3,0,0,1-3.327,3.265H96.03a3.306,3.306,0,0,1-3.33-3.263v-11.6a3.293,3.293,0,0,1,2.925-3.245,3.789,3.789,0,0,1,.387-.025Zm21.091,16.335a1.5,1.5,0,0,0,1.53-1.466v-11.6a1.491,1.491,0,0,0-1.252-1.445,1.664,1.664,0,0,0-.281-.025H96.032c-.065,0-.131.005-.195.013A1.492,1.492,0,0,0,94.5,318.77v11.6a1.5,1.5,0,0,0,1.53,1.465Z" transform="translate(-93.6 -301.833)"/><path class="b" d="M304.056,394.531H302.73a1.857,1.857,0,0,1-1.858-1.859v-3.42a3.521,3.521,0,1,1,5.041.071v3.35a1.857,1.857,0,0,1-1.857,1.858Zm-1.386-5.614,0,.056v3.7a.058.058,0,0,0,.017.041.056.056,0,0,0,.04.017h1.327a.057.057,0,0,0,.057-.057V389.3l-.476-.472.828-.626a1.721,1.721,0,1,0-2.125-.038l.361.294Z" transform="translate(-290.46 -366.354)"/></g></g></g></svg>