<svg width="62" height="61" viewBox="0 0 62 61" fill="none" xmlns="http://www.w3.org/2000/svg">
<g id="Group 2759">
<path id="Path 1004" d="M60.261 52.0922H55.7084C55.2164 52.0922 54.8137 51.6928 54.8137 51.197V1.79785C54.8137 0.808197 54.0123 -0.000488281 53.0224 -0.000488281H2.7289C1.73704 -0.000488281 0.931641 0.808197 0.931641 1.79785V52.0922C0.931641 53.0838 1.73704 53.8905 2.7289 53.8905H52.1198C52.6177 53.8905 53.0224 54.2879 53.0224 54.7897V59.3406C53.0224 59.8365 53.4191 60.2339 53.9131 60.2339H60.261C60.7589 60.2339 61.1616 59.8365 61.1616 59.3406V52.9913C61.1616 52.4955 60.7589 52.0922 60.261 52.0922Z" fill="#CF142B"></path>
<g id="Group 1964">
<path id="Path 1526" fill-rule="evenodd" clip-rule="evenodd" d="M20.8497 38.2108H17.8138C17.395 38.2108 17.0443 37.9017 16.992 37.4826L16.7879 35.7903C16.0132 35.5021 15.3013 35.083 14.6784 34.5643L13.1081 35.2349C12.7208 35.4025 12.2759 35.2506 12.0665 34.8891C11.5587 34.0141 11.0563 33.1339 10.5485 32.259C10.3391 31.8922 10.4334 31.4364 10.7684 31.1849L12.1293 30.1632C11.9932 29.3564 11.9932 28.5286 12.1293 27.7217L10.7684 26.7C10.4334 26.4486 10.3391 25.9875 10.5485 25.626C11.0563 24.751 11.5587 23.8708 12.0665 22.9958C12.2759 22.6291 12.7208 22.4824 13.1081 22.65L14.6784 23.3207C15.3013 22.802 16.0184 22.3881 16.7931 22.0999L16.9972 20.4076C17.0496 19.9885 17.4003 19.6793 17.819 19.6793H20.8549C21.2737 19.6793 21.6244 19.9885 21.6767 20.4076L21.8809 22.0999C22.6556 22.3881 23.3674 22.802 23.9955 23.3207L25.5658 22.65C25.9532 22.4824 26.3981 22.6343 26.6075 22.9958C27.1152 23.8708 27.6177 24.751 28.1254 25.626C28.3348 25.9927 28.2406 26.4486 27.9056 26.7L26.5447 27.7217C26.6808 28.5286 26.6808 29.3564 26.5447 30.1632L27.9056 31.1849C28.2406 31.4364 28.3348 31.8974 28.1254 32.259C27.6177 33.1339 27.1152 34.0141 26.6075 34.8891C26.3981 35.2558 25.9532 35.4025 25.5658 35.2349L23.9955 34.5643C23.3727 35.083 22.6556 35.4969 21.8809 35.785L21.6767 37.4773C21.6192 37.8965 21.2737 38.2108 20.8497 38.2108ZM19.3318 24.751C17.0234 24.751 15.1495 26.6267 15.1495 28.9372C15.1495 31.2478 17.0234 33.1234 19.3318 33.1234C21.6401 33.1234 23.514 31.2478 23.514 28.9372C23.514 26.6215 21.6401 24.751 19.3318 24.751ZM36.7883 43.7907C35.9717 43.5706 35.1552 43.3506 34.3334 43.1305C33.9931 43.0415 33.7785 42.7114 33.8256 42.3656L34.0245 40.9562C33.4592 40.558 32.9777 40.0655 32.5799 39.5102L31.1666 39.7093C30.8159 39.7564 30.4914 39.5416 30.4024 39.2011C30.1825 38.3837 29.9627 37.5664 29.7429 36.7438C29.6539 36.4033 29.8266 36.0522 30.1511 35.9212L31.4754 35.3868C31.5382 34.7057 31.7214 34.0351 32.0041 33.4116L31.1247 32.2904C30.9101 32.0127 30.9311 31.6198 31.1823 31.3735C31.779 30.7762 32.381 30.1737 32.9777 29.5764C33.2289 29.3249 33.6163 29.304 33.8937 29.5188L35.0138 30.399C35.6315 30.1161 36.2963 29.9327 36.9872 29.8698L37.5159 28.5495C37.6467 28.2247 37.9974 28.0465 38.3376 28.1409C39.1542 28.3609 39.9708 28.581 40.7926 28.801C41.1328 28.8901 41.3474 29.2201 41.3003 29.5659L41.1014 30.9753C41.6667 31.3735 42.1482 31.866 42.5461 32.4214L43.9593 32.2223C44.31 32.1751 44.6346 32.3899 44.7235 32.7305C44.9434 33.5478 45.1632 34.3652 45.3831 35.1877C45.4721 35.5283 45.2993 35.8793 44.9748 36.0103L43.6505 36.5447C43.5877 37.2258 43.4045 37.8965 43.1218 38.5199L44.0012 39.6412C44.2158 39.9188 44.1949 40.3118 43.9436 40.558L42.1482 42.3551C41.897 42.6066 41.5097 42.6276 41.2322 42.4128L40.1121 41.5273C39.4944 41.8102 38.8297 41.9936 38.1387 42.0565L37.6101 43.3768C37.4792 43.7069 37.1285 43.885 36.7883 43.7907ZM38.4737 32.589C36.6103 32.0861 34.6893 33.1968 34.192 35.062C33.6895 36.9272 34.7992 38.85 36.6627 39.3478C38.5261 39.8507 40.4471 38.74 40.9443 36.8748C41.4468 35.0096 40.3372 33.092 38.4737 32.589ZM34.213 25.6731C34.5532 25.7622 34.9039 25.5893 35.0348 25.2645L35.5634 23.9442C36.2544 23.8813 36.9191 23.6979 37.5368 23.415L38.6569 24.2952C38.9344 24.51 39.3269 24.489 39.573 24.2376C40.1697 23.6403 40.7716 23.0378 41.3683 22.4405C41.6196 22.189 41.6405 21.8013 41.4259 21.5236L40.5465 20.4024C40.8292 19.7789 41.0072 19.1083 41.0752 18.4272L42.3995 17.8927C42.724 17.7618 42.902 17.4107 42.8078 17.0702C42.5879 16.2528 42.3681 15.4355 42.1482 14.6129C42.0593 14.2724 41.7295 14.0576 41.384 14.1047L39.9708 14.3038C39.5782 13.7484 39.0914 13.2612 38.5261 12.8578L38.725 11.4484C38.7721 11.0973 38.5575 10.7725 38.2173 10.6834C37.4007 10.4634 36.5841 10.2433 35.7624 10.0233C35.4221 9.93421 35.0714 10.1071 34.9406 10.4319L34.4119 11.7523C33.721 11.8151 33.0562 11.9985 32.4385 12.2814L31.3184 11.4012C31.041 11.1864 30.6484 11.2074 30.4024 11.4589C29.8057 12.0561 29.2037 12.6587 28.607 13.2559C28.3558 13.5074 28.3348 13.8951 28.5494 14.1728L29.4288 15.294C29.1461 15.9175 28.9682 16.5882 28.9001 17.2693L27.5758 17.8037C27.2513 17.9347 27.0733 18.2857 27.1676 18.6262C27.3874 19.4436 27.6072 20.2609 27.8271 21.0835C27.9161 21.424 28.2458 21.6389 28.5913 21.5917L30.0046 21.3926C30.3972 21.948 30.8839 22.4352 31.4493 22.8387L31.2503 24.248C31.2032 24.5991 31.4178 24.9239 31.7581 25.013C32.5799 25.233 33.3964 25.4531 34.213 25.6731ZM35.8984 14.4662C37.7619 14.9692 38.8716 16.8868 38.3691 18.752C37.8666 20.6172 35.9508 21.7279 34.0874 21.2249C32.2239 20.722 31.1143 18.8044 31.6167 16.9392C32.114 15.074 34.035 13.9685 35.8984 14.4662Z" stroke="white" stroke-width="1.2" stroke-linecap="round" stroke-linejoin="round"></path>
</g>
</g>
</svg>
