<svg width="315" height="27" viewBox="0 0 315 27" fill="none" xmlns="http://www.w3.org/2000/svg">
<path d="M0 2.26318H6.02702C6.58536 2.26318 7.1437 2.27083 7.70204 2.29378C8.7404 2.34739 9.76684 2.54033 10.7538 2.86741C11.6566 3.15104 12.4448 3.71667 13.0024 4.48125C13.5883 5.45319 13.878 6.57485 13.8361 7.70892C13.8518 8.83408 13.4638 9.92762 12.7424 10.7913C11.9553 11.6815 10.8644 12.2461 9.683 12.3745V12.428C9.94044 12.4532 10.1902 12.5299 10.4175 12.6534C10.6448 12.7768 10.845 12.9447 11.0062 13.147C11.3419 13.5557 11.6151 14.0119 11.8169 14.5008L15.0446 22.3711H10.5473L8.12271 16.0993C7.94866 15.4896 7.62227 14.9342 7.17429 14.4855C6.62678 14.1346 5.97913 13.9733 5.331 14.0266H4.03076V22.3864H0V2.26318ZM4.03076 10.8524H5.35395C5.62165 10.8524 5.8817 10.8448 6.1341 10.8219C6.3865 10.7989 6.64655 10.776 6.91424 10.7377C7.38378 10.692 7.84184 10.5652 8.26803 10.3629C8.67384 10.1816 9.02279 9.89345 9.27763 9.52926C9.52719 9.08148 9.64641 8.57278 9.62181 8.06075C9.64255 7.54907 9.52357 7.04141 9.27763 6.59223C9.01975 6.24379 8.67026 5.97372 8.26803 5.81209C7.83678 5.62952 7.38032 5.51347 6.91424 5.46791C6.64655 5.45261 6.3865 5.43731 6.1341 5.43731H4.03076V10.8524Z" fill="black"></path>
<path d="M18.7656 2.26318H22.804V22.3864H18.7656V2.26318Z" fill="black"></path>
<path d="M42.919 22.0928C41.4217 22.4814 39.8842 22.6944 38.3376 22.7276C35.0334 22.7276 32.3921 21.8913 30.4137 20.2189C28.3563 18.5668 27.3186 16.0504 27.3008 12.6698C27.4308 5.57965 31.1097 1.99505 38.3376 1.91602C39.8904 1.93825 41.4286 2.22004 42.8884 2.7497L42.6054 6.15328C41.923 5.75162 41.1863 5.45024 40.418 5.25841C39.7021 5.1438 38.9784 5.08499 38.2534 5.08249C37.3341 5.04625 36.4181 5.21321 35.5707 5.57148C34.7232 5.92975 33.9653 6.47052 33.3507 7.15524C32.0868 8.5913 31.4264 10.4601 31.5075 12.3715C31.4198 14.2439 32.0708 16.0758 33.3201 17.4731C33.9502 18.1693 34.7274 18.7165 35.5952 19.075C36.4631 19.4335 37.3998 19.5943 38.3376 19.5458C39.1704 19.5448 40.0008 19.4576 40.8157 19.2858C41.18 19.2205 41.5401 19.1337 41.8941 19.0257C42.1844 18.939 42.4681 18.8316 42.7431 18.7045L42.919 22.0928Z" fill="black"></path>
<path d="M45.4844 12.2644C45.4844 9.12855 46.3308 6.63004 48.0237 4.76891C49.6987 2.90267 52.1386 1.95171 55.3433 1.91602C58.5174 1.93131 60.9573 2.89247 62.6629 4.7995C64.3532 6.66573 65.1997 9.15405 65.2022 12.2644C65.2946 14.9833 64.4039 17.6444 62.6935 19.76C60.9803 21.718 58.5302 22.7072 55.3433 22.7276C52.0927 22.6893 49.6528 21.7103 48.0237 19.7906C46.3257 17.9243 45.4793 15.4156 45.4844 12.2644ZM49.6911 12.2644C49.6162 14.0193 50.0691 15.7563 50.9913 17.2513C51.4368 17.9968 52.0779 18.6062 52.8451 19.0133C53.6122 19.4205 54.4762 19.6099 55.3433 19.5611C56.2138 19.6045 57.08 19.413 57.8511 19.0066C58.6222 18.6003 59.2697 17.9939 59.7259 17.2513C60.5889 15.733 61.0274 14.0105 60.9956 12.2644C61.0297 10.5335 60.5794 8.82738 59.6953 7.3388C59.238 6.60835 58.5928 6.01424 57.8272 5.61865C57.0615 5.22305 56.2037 5.04052 55.3433 5.09014C54.4904 5.04075 53.6401 5.22384 52.883 5.61986C52.126 6.01589 51.4907 6.60999 51.0449 7.3388C50.1265 8.81509 49.6562 10.5261 49.6911 12.2644Z" fill="black"></path>
<path d="M69.4102 2.26318H73.4486V10.3935H81.5177V2.26318H85.5561V22.3864H81.5177V13.5677H73.4486V22.3864H69.4102V2.26318Z" fill="black"></path>
<path d="M97.9764 0.760742H101.839V13.4725H101.9L106.512 7.53731H111.063L105.525 14.1686L111.751 22.383H106.849L101.892 15.1782H101.831V22.383H97.9688V0.760742H97.9764Z" fill="black"></path>
<path d="M115.211 1.13428H119.073V4.82085H115.211V1.13428ZM115.211 7.53607H119.073V22.3818H115.211V7.53607Z" fill="black"></path>
<path d="M123.777 7.54019H127.441V9.55939H127.502C128.061 8.79931 128.797 8.18689 129.646 7.77509C130.495 7.3633 131.431 7.16453 132.374 7.196C133.102 7.14958 133.83 7.27413 134.501 7.55968C135.171 7.84523 135.766 8.28386 136.237 8.84043C137.071 10.0688 137.486 11.5332 137.422 13.0165V22.3859H133.56V13.7355C133.56 13.4831 133.552 13.2383 133.529 12.9859C133.502 12.5224 133.404 12.0659 133.239 11.6321C133.112 11.2131 132.861 10.8424 132.52 10.569C132.079 10.2981 131.567 10.1674 131.051 10.1942C130.454 10.1701 129.866 10.342 129.376 10.6837C128.938 11.0111 128.582 11.4351 128.336 11.9228C128.081 12.4201 127.905 12.9544 127.816 13.506C127.705 14.0369 127.646 14.5775 127.64 15.1198V22.3859H123.777V7.54019Z" fill="black"></path>
<path d="M143.029 10.3615H140.176V7.53919H143.029V4.57158L146.891 3.33252V7.53919H150.318V10.3615H146.891V17.2834C146.864 17.8652 146.993 18.4436 147.266 18.9584C147.409 19.2092 147.62 19.4151 147.874 19.5529C148.128 19.6907 148.415 19.755 148.704 19.7385C149.316 19.7652 149.924 19.6251 150.463 19.3332L150.578 22.3849C149.648 22.6325 148.687 22.7484 147.725 22.7291C144.612 22.6526 143.047 21.049 143.029 17.9182V10.3615Z" fill="black"></path>
<path d="M153.346 15.0639C153.291 13.9937 153.464 12.9241 153.851 11.925C154.239 10.926 154.833 10.02 155.594 9.26636C157.097 7.89607 159.068 7.15423 161.101 7.19362C163.155 7.13081 165.151 7.87489 166.662 9.26636C168.1 10.6278 168.839 12.5603 168.88 15.0639C168.93 16.0942 168.762 17.1234 168.387 18.0842C168.012 19.045 167.438 19.9158 166.703 20.6393C165.968 21.3629 165.088 21.923 164.121 22.2829C163.155 22.6427 162.123 22.7943 161.094 22.7277C160.037 22.7846 158.98 22.6132 157.996 22.2251C157.011 21.8371 156.122 21.2416 155.388 20.4791C154.027 19.0096 153.294 17.0663 153.346 15.0639ZM157.384 14.5974C157.384 14.7503 157.392 14.8957 157.399 15.0333C157.407 15.171 157.422 15.3163 157.445 15.4693L157.507 15.9282C157.523 16.083 157.552 16.2364 157.591 16.3871C157.696 16.9713 157.889 17.5361 158.164 18.0621C158.44 18.5505 158.838 18.9589 159.319 19.2477C159.852 19.5897 160.476 19.7605 161.109 19.7372C161.765 19.7654 162.415 19.6062 162.983 19.2782C163.462 18.9903 163.859 18.5849 164.138 18.1004C164.435 17.5842 164.63 17.0154 164.711 16.4254C164.75 16.1194 164.78 15.8135 164.811 15.5152C164.842 15.2128 164.857 14.909 164.857 14.605C164.891 13.5089 164.578 12.4301 163.962 11.5227C163.623 11.0942 163.189 10.7512 162.693 10.5214C162.197 10.2915 161.655 10.1813 161.109 10.1995C160.572 10.1798 160.038 10.2931 159.555 10.5292C159.072 10.7654 158.655 11.1171 158.34 11.5533C157.693 12.4339 157.357 13.5047 157.384 14.5974Z" fill="black"></path>
<path d="M171.934 7.54019H175.597V9.55939H175.658C176.217 8.79931 176.953 8.18689 177.802 7.77509C178.651 7.3633 179.588 7.16453 180.531 7.196C181.258 7.14958 181.986 7.27413 182.657 7.55968C183.328 7.84523 183.922 8.28386 184.393 8.84043C185.227 10.0688 185.643 11.5332 185.579 13.0165V22.3859H181.716V13.7355C181.716 13.4831 181.708 13.2383 181.685 12.9859C181.658 12.5224 181.56 12.0659 181.395 11.6321C181.268 11.2131 181.018 10.8424 180.676 10.569C180.236 10.2981 179.724 10.1674 179.207 10.1942C178.611 10.1701 178.022 10.342 177.532 10.6837C177.095 11.0111 176.739 11.4351 176.492 11.9228C176.237 12.4201 176.062 12.9544 175.972 13.506C175.861 14.0369 175.802 14.5775 175.796 15.1198V22.3859H171.934V7.54019Z" fill="black"></path>
<path d="M201.745 21.551C200.179 22.3892 198.419 22.7982 196.644 22.7365C191.534 22.6371 188.949 20.0723 188.888 15.0421C188.819 13.0466 189.428 11.0865 190.617 9.48168C191.237 8.72252 192.028 8.12046 192.925 7.72443C193.822 7.3284 194.8 7.14955 195.779 7.20243C198.487 7.24067 200.361 8.07691 201.401 9.71114C202.459 11.6918 202.956 13.9239 202.839 16.1665H192.575C192.59 16.6881 192.713 17.2009 192.937 17.6723C193.161 18.1436 193.48 18.5633 193.875 18.9046C194.697 19.59 195.742 19.9493 196.812 19.9142C197.717 19.924 198.617 19.7685 199.466 19.4553C200.264 19.199 201.029 18.8499 201.745 18.4151V21.551ZM199.152 13.5048C199.16 12.6266 198.887 11.769 198.372 11.0573C198.086 10.7123 197.724 10.4387 197.313 10.2582C196.903 10.0776 196.456 9.99508 196.009 10.0171C195.555 9.99894 195.102 10.0768 194.681 10.2455C194.259 10.4142 193.877 10.6699 193.561 10.9961C192.978 11.7078 192.635 12.5861 192.582 13.5048H199.152Z" fill="black"></path>
<path d="M213.879 7.07612H217.565V9.17945H217.619C218.445 7.60386 219.982 6.78802 222.231 6.73193C224.48 6.74723 226.093 7.51973 227.072 9.03413C228.069 10.6612 228.552 12.5512 228.457 14.4569C228.523 16.3597 228.043 18.2416 227.072 19.8797C226.093 21.4553 224.452 22.2533 222.147 22.2737C221.312 22.2927 220.484 22.1174 219.729 21.7616C218.974 21.4059 218.312 20.8795 217.795 20.2239H217.734V27.0005H213.871V7.07612H213.879ZM221.229 9.73015C220.682 9.71426 220.141 9.85478 219.671 10.1352C219.201 10.4157 218.821 10.8244 218.575 11.3134C218.038 12.2737 217.759 13.3567 217.764 14.4569C217.743 15.5649 218.012 16.6591 218.544 17.631C218.806 18.085 219.16 18.4786 219.585 18.786C220.044 19.1187 220.601 19.2907 221.168 19.2755C221.745 19.2941 222.312 19.1221 222.782 18.786C223.196 18.4858 223.532 18.0895 223.761 17.631C223.895 17.3824 224.006 17.1211 224.089 16.8509C224.175 16.5872 224.247 16.3191 224.304 16.0478C224.342 15.7801 224.372 15.5124 224.388 15.2371C224.403 14.9617 224.418 14.7093 224.418 14.4569C224.425 13.3766 224.208 12.3066 223.784 11.3134C223.566 10.8481 223.228 10.4494 222.805 10.1585C222.334 9.86104 221.785 9.71182 221.229 9.73015Z" fill="black"></path>
<path d="M232.039 0.760742H235.902V22.383H232.039V0.760742Z" fill="black"></path>
<path d="M253.66 22.3838H249.997V20.3646H249.943C249.374 21.1139 248.636 21.7184 247.79 22.129C246.943 22.5396 246.012 22.7449 245.071 22.728C243.304 22.6898 242.035 22.1314 241.262 21.053C240.389 19.8494 239.953 18.3847 240.023 16.8998V7.53809H243.885V15.4619C243.885 15.5614 243.893 15.6608 243.901 15.7832C243.909 15.8988 243.924 16.0137 243.947 16.1273V16.4715C243.946 16.5971 243.957 16.7225 243.977 16.8463C244.007 17.3266 244.095 17.8017 244.237 18.2613C244.399 18.664 244.656 19.0211 244.987 19.3015C245.391 19.6114 245.893 19.7661 246.402 19.7374C247.035 19.7679 247.658 19.5728 248.161 19.1867C248.598 18.8665 248.945 18.44 249.171 17.9477C249.426 17.4503 249.601 16.9161 249.691 16.3645C249.729 16.0968 249.76 15.8291 249.775 15.569C249.79 15.309 249.805 15.0566 249.805 14.8042V7.53809H253.668V22.3838H253.66Z" fill="black"></path>
<path d="M267.175 10.6491C266.647 10.4563 266.108 10.2929 265.562 10.1596C265.294 10.1213 265.011 10.0907 264.713 10.0601C264.382 10.028 264.05 10.0126 263.718 10.0142C263.202 10.0149 262.692 10.1216 262.219 10.3278C261.979 10.4535 261.778 10.6441 261.64 10.8779C261.502 11.1118 261.432 11.3796 261.439 11.651C261.469 11.9353 261.588 12.2027 261.779 12.4155C261.97 12.6283 262.223 12.7756 262.502 12.8365C262.664 12.9178 262.833 12.9844 263.007 13.0354C263.191 13.0889 263.389 13.1501 263.596 13.2113C263.802 13.2725 264.009 13.3337 264.2 13.3949C264.391 13.4561 264.59 13.5326 264.804 13.609C265.239 13.7524 265.664 13.9262 266.074 14.1291C266.449 14.3587 266.797 14.6279 267.114 14.9322C267.445 15.2763 267.709 15.6781 267.894 16.1177C268.08 16.6853 268.168 17.28 268.154 17.8769C268.193 18.6094 268.037 19.3389 267.702 19.9917C267.368 20.6445 266.867 21.1973 266.25 21.5941C264.94 22.3597 263.445 22.7488 261.929 22.7184C260.447 22.6843 258.976 22.4711 257.546 22.0836L257.775 18.9094C258.941 19.5539 260.252 19.8908 261.584 19.8885C262.155 19.8744 262.717 19.736 263.229 19.4831C263.505 19.3675 263.739 19.1697 263.899 18.9166C264.059 18.6635 264.138 18.3673 264.124 18.0681C264.133 17.7331 264.043 17.4029 263.864 17.1197C263.642 16.8874 263.377 16.7003 263.083 16.569C262.755 16.4313 262.403 16.3013 262.02 16.1789C261.638 16.0566 261.225 15.9342 260.781 15.8195C260.567 15.743 260.368 15.6665 260.177 15.59C259.986 15.5135 259.779 15.4294 259.573 15.3299C259.368 15.2357 259.171 15.1258 258.984 15.0011C258.8 14.8801 258.631 14.739 258.479 14.5804C258.146 14.2564 257.89 13.8617 257.729 13.4255C257.504 12.9074 257.394 12.3461 257.408 11.781C257.37 11.0855 257.518 10.3923 257.839 9.77362C258.159 9.15491 258.639 8.63321 259.229 8.26274C260.43 7.51588 261.823 7.13576 263.236 7.169C263.68 7.169 264.101 7.1843 264.506 7.21489C264.911 7.24549 265.271 7.27608 265.6 7.31432C265.929 7.37551 266.242 7.4367 266.548 7.50553C266.854 7.57437 267.152 7.64321 267.443 7.71969L267.175 10.6491Z" fill="black"></path>
<path d="M305.763 25.4729C305.489 25.4729 305.227 25.3641 305.033 25.1705C304.84 24.9769 304.731 24.7142 304.731 24.4404C304.731 24.1665 304.84 23.9039 305.033 23.7102C305.227 23.5166 305.489 23.4078 305.763 23.4078C307.288 23.4089 308.759 22.8462 309.894 21.8278C311.029 20.8095 311.747 19.4075 311.91 17.8917C312.073 16.3758 311.67 14.8531 310.778 13.6165C309.886 12.3799 308.569 11.5168 307.079 11.1932C306.845 11.1426 306.635 11.0117 306.487 10.8232C306.339 10.6346 306.262 10.4003 306.268 10.1606C306.268 10.1224 306.283 10 306.283 9.96176C306.269 8.87853 305.828 7.84468 305.056 7.0844C304.285 6.32412 303.244 5.8987 302.161 5.90041C301.835 5.90292 301.512 5.9466 301.197 6.03044C301.013 6.07464 300.819 6.06735 300.639 6.00936C300.458 5.95137 300.297 5.8449 300.172 5.70155C299.169 4.5275 297.856 3.65941 296.383 3.19653C294.909 2.73365 293.336 2.69465 291.841 3.084C290.347 3.47335 288.992 4.27533 287.932 5.39825C286.872 6.52118 286.149 7.91973 285.847 9.43402C285.809 9.62497 285.718 9.80129 285.584 9.94221C285.45 10.0831 285.278 10.1828 285.089 10.2295C283.506 10.6261 282.122 11.5883 281.198 12.9347C280.275 14.2811 279.875 15.9188 280.076 17.5392C280.276 19.1595 281.062 20.6507 282.286 21.7317C283.509 22.8127 285.086 23.4088 286.719 23.4078C286.992 23.4078 287.255 23.5166 287.449 23.7102C287.642 23.9039 287.751 24.1665 287.751 24.4404C287.751 24.7142 287.642 24.9769 287.449 25.1705C287.255 25.3641 286.992 25.4729 286.719 25.4729C284.639 25.4742 282.628 24.7346 281.045 23.3869C279.462 22.0392 278.411 20.1715 278.08 18.1189C277.749 16.0662 278.161 13.963 279.241 12.1864C280.321 10.4097 281.998 9.07601 283.973 8.42442C284.44 6.66023 285.367 5.05197 286.661 3.7646C287.954 2.47723 289.567 1.55709 291.333 1.09857C293.099 0.640048 294.956 0.65965 296.712 1.15536C298.468 1.65108 300.061 2.60506 301.327 3.91945C301.603 3.87654 301.882 3.85608 302.161 3.85826C303.691 3.86135 305.165 4.43026 306.3 5.45545C307.436 6.48064 308.152 7.88961 308.31 9.41107C310.175 10.0165 311.763 11.2677 312.787 12.9394C313.812 14.6111 314.206 16.5936 313.899 18.5301C313.592 20.4666 312.604 22.2299 311.112 23.5027C309.621 24.7754 307.724 25.4741 305.763 25.4729Z" fill="black"></path>
<path d="M297.518 8.99511C297.791 8.99532 298.054 9.10417 298.247 9.29776C298.441 9.49136 298.55 9.75387 298.55 10.0277V14.1426H302.665C302.939 14.1428 303.201 14.2516 303.395 14.4452C303.588 14.6388 303.697 14.9013 303.698 15.1751V18.2651C303.697 18.5389 303.588 18.8014 303.395 18.995C303.201 19.1886 302.939 19.2974 302.665 19.2976H298.55V23.4125C298.55 23.6863 298.441 23.9488 298.247 24.1424C298.054 24.336 297.791 24.4449 297.518 24.4451H294.428C294.154 24.4449 293.891 24.336 293.698 24.1424C293.504 23.9488 293.395 23.6863 293.395 23.4125V19.2976H289.28C289.006 19.2974 288.744 19.1886 288.55 18.995C288.357 18.8014 288.248 18.5389 288.248 18.2651V15.1751C288.248 14.9013 288.357 14.6388 288.55 14.4452C288.744 14.2516 289.006 14.1428 289.28 14.1426H293.395V10.0277C293.395 9.75387 293.504 9.49136 293.698 9.29776C293.891 9.10417 294.154 8.99532 294.428 8.99511H297.518ZM297.518 7.97021H294.428C293.883 7.97223 293.36 8.18964 292.975 8.57505C292.59 8.96046 292.372 9.48261 292.37 10.0277V13.1177H289.28C288.735 13.1197 288.213 13.3371 287.828 13.7225C287.442 14.1079 287.225 14.6301 287.223 15.1751V18.2651C287.225 18.8101 287.442 19.3323 287.828 19.7177C288.213 20.1031 288.735 20.3205 289.28 20.3225H292.37V23.4125C292.372 23.9576 292.59 24.4797 292.975 24.8651C293.36 25.2505 293.883 25.468 294.428 25.47H297.518C298.063 25.468 298.585 25.2505 298.97 24.8651C299.356 24.4797 299.573 23.9576 299.575 23.4125V20.3225H302.665C303.21 20.3205 303.732 20.1031 304.118 19.7177C304.503 19.3323 304.72 18.8101 304.722 18.2651V15.1751C304.72 14.6301 304.503 14.1079 304.118 13.7225C303.732 13.3371 303.21 13.1197 302.665 13.1177H299.575V10.0277C299.575 9.48205 299.358 8.95885 298.972 8.57305C298.586 8.18725 298.063 7.97042 297.518 7.97021Z" fill="url('#paint0_linear_4282_4443')"></path>
<path fill-rule="evenodd" clip-rule="evenodd" d="M294.431 24.4399H297.521C297.795 24.4397 298.057 24.3308 298.251 24.1372C298.445 23.9437 298.553 23.6811 298.554 23.4074V19.2925H302.669C302.942 19.2923 303.205 19.1834 303.398 18.9898C303.592 18.7962 303.701 18.5337 303.701 18.2599V15.1776C303.701 14.9038 303.592 14.6413 303.398 14.4477C303.205 14.2541 302.942 14.1452 302.669 14.145H294.439C294.165 14.1452 293.903 14.2541 293.709 14.4477C293.515 14.6413 293.406 14.9038 293.406 15.1776V23.4074C293.405 23.5425 293.431 23.6765 293.482 23.8017C293.534 23.9268 293.609 24.0406 293.704 24.1366C293.799 24.2325 293.913 24.3087 294.037 24.3607C294.162 24.4128 294.296 24.4397 294.431 24.4399Z" fill="#FFBF00"></path>
<path fill-rule="evenodd" clip-rule="evenodd" d="M297.516 8.99658H294.426C294.152 8.99679 293.89 9.10564 293.696 9.29923C293.503 9.49283 293.394 9.75534 293.394 10.0291V14.144H289.279C289.005 14.1442 288.742 14.2531 288.549 14.4467C288.355 14.6403 288.246 14.9028 288.246 15.1766V18.2666C288.246 18.5403 288.355 18.8029 288.549 18.9965C288.742 19.1901 289.005 19.2989 289.279 19.2991H297.508C297.782 19.2989 298.045 19.1901 298.238 18.9965C298.432 18.8029 298.541 18.5403 298.541 18.2666V10.0368C298.543 9.90085 298.518 9.76584 298.468 9.63963C298.417 9.51342 298.342 9.39854 298.247 9.3017C298.151 9.20486 298.038 9.128 297.912 9.07562C297.787 9.02323 297.652 8.99636 297.516 8.99658Z" fill="white"></path>
<path fill-rule="evenodd" clip-rule="evenodd" d="M297.789 19.2925H293.406V14.9099C293.406 14.707 293.487 14.5125 293.63 14.369C293.774 14.2256 293.968 14.145 294.171 14.145H298.554V18.5276C298.554 18.7305 298.473 18.925 298.33 19.0684C298.186 19.2119 297.992 19.2925 297.789 19.2925Z" fill="#FFE599"></path>
<defs>
<linearGradient id="paint0_linear_4282_4443" x1="290.408" y1="11.1377" x2="301.537" y2="22.285" gradientUnits="userSpaceOnUse">
<stop stop-color="#FFCC00"></stop>
<stop offset="0.024" stop-color="#FFCA00"></stop>
<stop offset="0.676" stop-color="#FF9A00"></stop>
<stop offset="1" stop-color="#FF8800"></stop>
</linearGradient>
</defs>
</svg>
