<svg xmlns="http://www.w3.org/2000/svg" width="112.972" height="103" viewBox="0 0 112.972 103">
  <g id="Group_1284" data-name="Group 1284" transform="translate(-1.003 1.5)">
    <g id="Group_1237" data-name="Group 1237" transform="translate(2.503)">
      <path id="Path_263" data-name="Path 263" d="M152.756,264.72h-7.469a1.478,1.478,0,0,1-1.468-1.486V181.222a2.966,2.966,0,0,0-2.939-2.986H58.367a2.972,2.972,0,0,0-2.949,2.986v83.5a2.97,2.97,0,0,0,2.949,2.986H139.4a1.482,1.482,0,0,1,1.481,1.493v7.555a1.468,1.468,0,0,0,1.461,1.483h10.415a1.477,1.477,0,0,0,1.478-1.483V266.212a1.486,1.486,0,0,0-1.478-1.493" transform="translate(-55.418 -178.236)" fill="none" stroke="#8fc740" stroke-width="3"/>
      <rect id="Rectangle_384" data-name="Rectangle 384" width="68" height="55" transform="translate(43.472 18)" fill="#fff"/>
      <text id="_72_" data-name="72%" transform="translate(18.359 63.303)" fill="#8fc740" font-size="50" font-family="FrutigerLTStd-Bold, Frutiger LT Std" font-weight="700" opacity="0.72"><tspan x="0" y="0">72</tspan><tspan y="0" font-size="35">%</tspan></text>
    </g>
  </g>
</svg>
