<svg xmlns="http://www.w3.org/2000/svg" id="Icon-3" width="60.234" height="60.234" viewBox="0 0 60.234 60.234">
  <path id="Path_1004" data-name="Path 1004" d="M114.752,230.329H110.2a.9.9,0,0,1-.895-.9v-49.4a1.8,1.8,0,0,0-1.791-1.8h-50.3a1.8,1.8,0,0,0-1.8,1.8v50.294a1.8,1.8,0,0,0,1.8,1.8H106.61a.9.9,0,0,1,.9.9v4.551a.889.889,0,0,0,.891.893h6.348a.9.9,0,0,0,.9-.893v-6.349a.9.9,0,0,0-.9-.9" transform="translate(-55.418 -178.236)" fill="#CF142B"/>
  <text id="_3" data-name="3" transform="translate(17.734 37.99)" fill="#fff" font-size="32" font-family="frutiger, frutiger linotype, univers, calibri, gill sans, gill sans mt, myriad pro, myriad, dejavu sans condensed, liberation sans, nimbus sans l, tahoma, geneva, helvetica neue, helvetica, arial, sans-serif" font-weight="700">
    <tspan x="0" y="0">3</tspan>
  </text>
</svg>