<svg xmlns="http://www.w3.org/2000/svg" id="Icon-Quote" width="60" height="60" viewBox="0 0 60 60">
  <path id="Path_283" data-name="Path 283" d="M114.521,230.126h-4.535a.892.892,0,0,1-.891-.892V180.027a1.79,1.79,0,0,0-1.784-1.791h-50.1a1.794,1.794,0,0,0-1.79,1.791v50.1a1.792,1.792,0,0,0,1.79,1.791h49.2a.894.894,0,0,1,.9.9v4.533a.886.886,0,0,0,.887.89h6.324a.892.892,0,0,0,.9-.89v-6.325a.9.9,0,0,0-.9-.9" transform="translate(-55.418 -178.236)" fill="#b1b1b1"/>
  <path id="bxs-quote-alt-left" d="M8.646,13.554a5.568,5.568,0,0,0-.818.082,4.535,4.535,0,0,1,.319-.855,5.291,5.291,0,0,1,.59-1.062,6.26,6.26,0,0,1,.755-.927,8.41,8.41,0,0,1,.87-.76,5.365,5.365,0,0,1,.9-.583,4.745,4.745,0,0,1,.818-.44l.678-.279.6-.247-.61-2.438-.75.181c-.24.06-.533.131-.866.215a6.77,6.77,0,0,0-1.109.392,7.811,7.811,0,0,0-1.293.586,11.808,11.808,0,0,0-1.372.87A9.808,9.808,0,0,0,6.031,9.48a8.842,8.842,0,0,0-1.144,1.462A10.2,10.2,0,0,0,4,12.575a13.835,13.835,0,0,0-.589,1.68,15.183,15.183,0,0,0-.483,3.065,15.676,15.676,0,0,0,.035,2.2c.018.257.055.506.08.678l.032.211.033-.008a5.66,5.66,0,1,0,5.533-6.845Zm13.835,0a5.568,5.568,0,0,0-.818.082,4.534,4.534,0,0,1,.319-.855,5.291,5.291,0,0,1,.59-1.062,6.26,6.26,0,0,1,.755-.927,8.411,8.411,0,0,1,.87-.76,5.365,5.365,0,0,1,.9-.583,4.744,4.744,0,0,1,.818-.44l.678-.279.6-.247-.61-2.438-.75.181c-.24.06-.533.131-.866.215a6.77,6.77,0,0,0-1.109.392,7.788,7.788,0,0,0-1.293.588,11.807,11.807,0,0,0-1.372.87A9.858,9.858,0,0,0,19.866,9.48a8.842,8.842,0,0,0-1.144,1.462,10.2,10.2,0,0,0-.883,1.633,13.835,13.835,0,0,0-.589,1.68,15.184,15.184,0,0,0-.483,3.065,15.676,15.676,0,0,0,.035,2.2c.018.257.055.506.08.678l.032.211.033-.008a5.66,5.66,0,1,0,5.533-6.846Z" transform="translate(11.251 12.175)" fill="#fff"/>
</svg>