<svg xmlns="http://www.w3.org/2000/svg" width="60" height="60" viewBox="0 0 60 60">
  <g id="Icon-Collab" transform="translate(0 0)">
    <path id="Path_273" data-name="Path 273" d="M114.521,230.126h-4.535a.892.892,0,0,1-.891-.892V180.027a1.79,1.79,0,0,0-1.784-1.791h-50.1a1.794,1.794,0,0,0-1.79,1.791v50.1a1.792,1.792,0,0,0,1.79,1.791h49.2a.894.894,0,0,1,.9.9v4.533a.886.886,0,0,0,.887.89h6.324a.892.892,0,0,0,.9-.89v-6.325a.9.9,0,0,0-.9-.9" transform="translate(-55.418 -178.236)" fill="#768ec7"/>
    <g id="Group_1538" data-name="Group 1538" transform="translate(7 6.711)">
      <g id="Group_1531" data-name="Group 1531" transform="translate(13.755)">
        <path id="Path_1027" data-name="Path 1027" d="M312.433,41.716a3.423,3.423,0,0,1-3.416,3.423,3.423,3.423,0,0,1-3.416-3.423,3.416,3.416,0,1,1,6.833,0Z" transform="translate(-303.423 -38.3)" fill="none" stroke="#fff" stroke-linecap="round" stroke-linejoin="round" stroke-miterlimit="10" stroke-width="2"/>
        <path id="Path_1028" data-name="Path 1028" d="M282.88,150.487H271.7a5.637,5.637,0,0,1,.238-1.618,5.6,5.6,0,0,1,9.427-2.209,5.637,5.637,0,0,1,1.284,2.215A5.719,5.719,0,0,1,282.88,150.487Z" transform="translate(-271.7 -138.054)" fill="none" stroke="#fff" stroke-linecap="round" stroke-linejoin="round" stroke-miterlimit="10" stroke-width="2"/>
      </g>
      <g id="Group_1532" data-name="Group 1532" transform="translate(13.755 27.635)">
        <path id="Path_1029" data-name="Path 1029" d="M312.433,473.416a3.423,3.423,0,0,1-3.416,3.423,3.423,3.423,0,0,1-3.416-3.423,3.416,3.416,0,0,1,6.833,0Z" transform="translate(-303.423 -470)" fill="none" stroke="#fff" stroke-linecap="round" stroke-linejoin="round" stroke-miterlimit="10" stroke-width="2"/>
        <path id="Path_1030" data-name="Path 1030" d="M282.88,582.087H271.7a5.637,5.637,0,0,1,.238-1.618,5.6,5.6,0,0,1,9.427-2.209,5.637,5.637,0,0,1,1.284,2.215A5.788,5.788,0,0,1,282.88,582.087Z" transform="translate(-271.7 -569.661)" fill="none" stroke="#fff" stroke-linecap="round" stroke-linejoin="round" stroke-miterlimit="10" stroke-width="2"/>
      </g>
      <g id="Group_1533" data-name="Group 1533" transform="translate(27.504 13.713)">
        <path id="Path_1031" data-name="Path 1031" d="M526.633,256.616a3.416,3.416,0,1,1-3.416-3.416A3.422,3.422,0,0,1,526.633,256.616Z" transform="translate(-517.617 -253.2)" fill="none" stroke="#fff" stroke-linecap="round" stroke-linejoin="round" stroke-miterlimit="10" stroke-width="2"/>
        <path id="Path_1032" data-name="Path 1032" d="M496.987,365.387H485.8a5.636,5.636,0,0,1,.238-1.618,5.6,5.6,0,0,1,9.427-2.209,5.638,5.638,0,0,1,1.284,2.215A5.494,5.494,0,0,1,496.987,365.387Z" transform="translate(-485.8 -352.954)" fill="none" stroke="#fff" stroke-linecap="round" stroke-linejoin="round" stroke-miterlimit="10" stroke-width="2"/>
      </g>
      <g id="Group_1534" data-name="Group 1534" transform="translate(0 13.713)">
        <path id="Path_1033" data-name="Path 1033" d="M98.139,256.616a3.423,3.423,0,0,1-3.416,3.423,3.379,3.379,0,0,1-2.305-.9,3.417,3.417,0,1,1,5.722-2.524Z" transform="translate(-89.129 -253.2)" fill="none" stroke="#fff" stroke-linecap="round" stroke-linejoin="round" stroke-miterlimit="10" stroke-width="2"/>
        <path id="Path_1034" data-name="Path 1034" d="M68.687,365.387H57.5a5.637,5.637,0,0,1,.238-1.618,5.6,5.6,0,0,1,9.427-2.209,5.638,5.638,0,0,1,1.284,2.215A5.718,5.718,0,0,1,68.687,365.387Z" transform="translate(-57.5 -352.954)" fill="none" stroke="#fff" stroke-linecap="round" stroke-linejoin="round" stroke-miterlimit="10" stroke-width="2"/>
      </g>
      <line id="Line_161" data-name="Line 161" y2="2" transform="translate(19.349 13.922)" fill="none" stroke="#fff" stroke-linecap="round" stroke-linejoin="round" stroke-miterlimit="10" stroke-width="2"/>
      <line id="Line_162" data-name="Line 162" y2="2" transform="translate(19.349 24.145)" fill="none" stroke="#fff" stroke-linecap="round" stroke-linejoin="round" stroke-miterlimit="10" stroke-width="2"/>
      <line id="Line_163" data-name="Line 163" x2="3" transform="translate(11.18 19.929)" fill="none" stroke="#fff" stroke-linecap="round" stroke-linejoin="round" stroke-miterlimit="10" stroke-width="2"/>
      <line id="Line_164" data-name="Line 164" x1="3" transform="translate(24.517 19.929)" fill="none" stroke="#fff" stroke-linecap="round" stroke-linejoin="round" stroke-miterlimit="10" stroke-width="2"/>
      <circle id="Ellipse_11" data-name="Ellipse 11" cx="2.517" cy="2.517" r="2.517" transform="translate(16.831 17.412)" fill="none" stroke="#fff" stroke-linecap="round" stroke-linejoin="round" stroke-miterlimit="10" stroke-width="2"/>
    </g>
  </g>
</svg>
