<svg width="220" height="53" viewBox="0 0 220 53" fill="none" xmlns="http://www.w3.org/2000/svg">
<g id="Docuware_Logo" clip-path="url(#clip0_3552_3746)">
<g id="Clip path group">
<mask id="mask0_3552_3746" style="mask-type:luminance" maskUnits="userSpaceOnUse" x="0" y="0" width="220" height="53">
<g id="clip-path">
<path id="Rectangle 1064" d="M219.523 0H0V52.75H219.523V0Z" fill="white"/>
</g>
</mask>
<g mask="url(#mask0_3552_3746)">
<g id="Group 3002">
<path id="Path 2393" d="M212.832 0H6.692C4.91782 0.00211716 3.21691 0.707845 1.96238 1.96238C0.707845 3.21691 0.00211716 4.91782 0 6.692L0 42.792C0.00211716 44.5662 0.707845 46.2671 1.96238 47.5216C3.21691 48.7762 4.91782 49.4819 6.692 49.484H39.074V47.91H6.692C5.33431 47.9084 4.03269 47.3684 3.07266 46.4083C2.11263 45.4483 1.57259 44.1467 1.571 42.789V6.692C1.57259 5.33431 2.11263 4.03269 3.07266 3.07266C4.03269 2.11263 5.33431 1.57259 6.692 1.571H212.832C214.19 1.57259 215.491 2.11263 216.451 3.07266C217.411 4.03269 217.951 5.33431 217.953 6.692V42.792C217.951 44.1497 217.411 45.4513 216.451 46.4113C215.491 47.3714 214.19 47.9114 212.832 47.913H180.449V49.484H212.832C214.606 49.4819 216.307 48.7762 217.562 47.5216C218.816 46.2671 219.522 44.5662 219.524 42.792V6.692C219.522 4.91782 218.816 3.21691 217.562 1.96238C216.307 0.707845 214.606 0.00211716 212.832 0Z" fill="#797979"/>
<path id="Path 2394" d="M46.7209 44.385H51.2919V45.685H48.3699V47.711H51.1499V49.011H48.3699V52.611H46.7209V44.385Z" fill="#797979"/>
<path id="Path 2395" d="M56.7109 44.244C59.2909 44.244 60.7399 45.987 60.7399 48.473C60.7399 50.959 59.3139 52.75 56.7109 52.75C54.0719 52.75 52.6819 50.995 52.6819 48.473C52.6819 45.951 54.0959 44.244 56.7109 44.244ZM56.7109 51.454C58.3959 51.454 59.0199 49.954 59.0199 48.473C59.0199 47.024 58.3479 45.539 56.7109 45.539C55.0739 45.539 54.4019 47.023 54.4019 48.473C54.4019 49.957 55.0269 51.454 56.7109 51.454Z" fill="#797979"/>
<path id="Path 2396" d="M62.5779 44.386H64.3569C66.1239 44.386 68.2329 44.327 68.2329 46.612C68.2419 47.0858 68.0719 47.5455 67.7567 47.8994C67.4416 48.2533 67.0045 48.4753 66.5329 48.521V48.544C66.9809 48.579 67.2399 49.027 67.4049 49.393L68.7239 52.609H66.8859L65.8969 50.041C65.6609 49.428 65.4489 49.193 64.7539 49.193H64.2269V52.609H62.5779V44.386ZM64.2269 47.897H64.7689C65.5819 47.897 66.5119 47.779 66.5119 46.754C66.5119 45.764 65.5929 45.682 64.7689 45.682H64.2269V47.897Z" fill="#797979"/>
<path id="Path 2397" d="M69.3401 44.385H71.0701L72.6021 50.959H72.6251L74.0251 44.385H76.2701L77.7191 50.959H77.7431L79.2861 44.385H80.8861L78.7421 52.608H76.6221L75.1381 46.034H75.1141L73.6531 52.608H71.5201L69.3401 44.385Z" fill="#797979"/>
<path id="Path 2398" d="M84.35 44.385H86.215L89.443 52.608H87.615L86.908 50.723H83.574L82.855 52.608H81.147L84.35 44.385ZM85.257 46.034H85.233L84.043 49.427H86.443L85.257 46.034Z" fill="#797979"/>
<path id="Path 2399" d="M90.8299 44.386H92.6089C94.3759 44.386 96.4849 44.327 96.4849 46.612C96.4939 47.0858 96.3239 47.5455 96.0087 47.8994C95.6936 48.2533 95.2566 48.4753 94.7849 48.521V48.544C95.2329 48.579 95.4919 49.027 95.6569 49.393L96.9759 52.609H95.1389L94.1499 50.041C93.9139 49.428 93.7019 49.193 93.0069 49.193H92.4759V52.609H90.8269L90.8299 44.386ZM92.4789 47.897H93.0209C93.8339 47.897 94.7639 47.779 94.7639 46.754C94.7639 45.764 93.8449 45.682 93.0209 45.682H92.4789V47.897Z" fill="#797979"/>
<path id="Path 2400" d="M98.6411 44.385H100.891C103.412 44.385 105.639 45.234 105.639 48.497C105.639 51.76 103.412 52.609 100.891 52.609H98.6411V44.385ZM100.29 51.312H101.209C101.935 51.2814 102.622 50.9714 103.125 50.4467C103.628 49.9221 103.908 49.2233 103.908 48.4965C103.908 47.7697 103.628 47.0709 103.125 46.5463C102.622 46.0216 101.935 45.7116 101.209 45.681H100.29V51.312Z" fill="#797979"/>
<path id="Path 2401" d="M112.86 45.681H110.504V44.381H116.865V45.681H114.514V52.608H112.865L112.86 45.681Z" fill="#797979"/>
<path id="Path 2402" d="M122.014 44.244C124.594 44.244 126.043 45.987 126.043 48.473C126.043 50.959 124.617 52.75 122.014 52.75C119.375 52.75 117.985 50.995 117.985 48.473C117.985 45.951 119.399 44.244 122.014 44.244ZM122.014 51.454C123.699 51.454 124.323 49.954 124.323 48.473C124.323 47.024 123.651 45.539 122.014 45.539C120.377 45.539 119.705 47.023 119.705 48.473C119.705 49.957 120.33 51.454 122.014 51.454Z" fill="#797979"/>
<path id="Path 2403" d="M134.441 45.98C133.771 45.6925 133.049 45.5442 132.32 45.544C131.922 45.5173 131.522 45.5761 131.149 45.7164C130.775 45.8567 130.435 46.0753 130.153 46.3575C129.871 46.6397 129.652 46.9791 129.512 47.3527C129.371 47.7264 129.312 48.1257 129.339 48.524C129.307 48.9053 129.356 49.2891 129.483 49.65C129.61 50.011 129.812 50.3409 130.076 50.6181C130.34 50.8953 130.659 51.1134 131.013 51.2582C131.368 51.403 131.748 51.4711 132.131 51.458C132.496 51.4634 132.86 51.4237 133.215 51.34V49.196H131.471V47.896H134.793V52.325C133.928 52.5816 133.033 52.7241 132.131 52.749C129.468 52.749 127.619 51.417 127.619 48.637C127.619 45.821 129.339 44.243 132.131 44.243C132.949 44.2348 133.763 44.3501 134.546 44.585L134.441 45.98Z" fill="#797979"/>
<path id="Path 2404" d="M136.999 44.385H141.852V45.685H138.652V47.711H141.586V49.011H138.652V51.32H141.88V52.62H137.003L136.999 44.385Z" fill="#797979"/>
<path id="Path 2405" d="M145.518 45.681H143.162V44.381H149.523V45.681H147.167V52.608H145.518V45.681Z" fill="#797979"/>
<path id="Path 2406" d="M151.043 44.385H152.692V47.707H155.992V44.385H157.641V52.608H155.992V49.008H152.692V52.608H151.043V44.385Z" fill="#797979"/>
<path id="Path 2407" d="M160.019 44.385H164.873V45.685H161.673V47.711H164.607V49.011H161.673V51.32H164.901V52.62H160.024L160.019 44.385Z" fill="#797979"/>
<path id="Path 2408" d="M166.901 44.386H168.68C170.447 44.386 172.556 44.327 172.556 46.612C172.565 47.0858 172.395 47.5455 172.08 47.8994C171.765 48.2533 171.328 48.4753 170.856 48.521V48.544C171.304 48.579 171.563 49.027 171.728 49.393L173.047 52.609H171.209L170.22 50.041C169.984 49.428 169.772 49.193 169.077 49.193H168.546V52.609H166.901V44.386ZM168.55 47.897H169.092C169.905 47.897 170.835 47.779 170.835 46.754C170.835 45.764 169.916 45.682 169.092 45.682H168.55V47.897Z" fill="#797979"/>
<path id="Path 2409" d="M43.638 23.454C43.638 26.154 45.638 28.154 48.988 28.154C50.4087 28.181 51.817 27.8856 53.107 27.29L54.362 28.996C52.5342 29.9827 50.477 30.4659 48.401 30.396C43.061 30.396 39.135 27.823 39.135 23.457C39.135 19.091 43.06 16.521 48.401 16.521C50.4081 16.4513 52.4044 16.8434 54.236 17.667L52.952 19.631C51.7309 18.9941 50.3627 18.6926 48.987 18.757C45.639 18.757 43.637 20.751 43.637 23.457" fill="#C9002E"/>
<path id="Path 2410" d="M64.013 28.237C61.17 28.237 59.6 26.101 59.6 23.454C59.6 20.807 61.17 18.671 64.013 18.671C66.856 18.671 68.429 20.809 68.429 23.454C68.429 26.099 66.857 28.237 64.013 28.237ZM64.013 16.515C58.843 16.515 55.113 19.09 55.113 23.456C55.113 27.822 58.841 30.396 64.013 30.396C69.185 30.396 72.913 27.824 72.913 23.456C72.913 19.088 69.184 16.515 64.013 16.515Z" fill="#C9002E"/>
<path id="Path 2411" d="M86.3531 24.461V30.046H90.6261V16.864H86.3531V21.892H79.8221V16.864H75.5591V30.045H79.8221V24.461H86.3531Z" fill="#C9002E"/>
<path id="Rectangle 1063" d="M36.561 16.864H32.061V30.045H36.561V16.864Z" fill="#C9002E"/>
<path id="Path 2412" d="M19.156 22.9V24.16C21.3426 25.8731 23.3086 27.8505 25.009 30.047H30.046C28.1716 27.8567 26.012 25.9275 23.625 24.311C25.95 24.211 28.539 23.274 28.539 20.606C28.539 17.185 24.881 16.556 21.183 16.556C18.162 16.556 15.383 16.695 13.707 16.832V30.045H17.907V18.82C18.9996 18.6919 20.0991 18.6325 21.199 18.642C23.362 18.642 24.458 19.357 24.458 20.603C24.458 21.668 24.004 22.944 19.158 22.897" fill="#C9002E"/>
<path id="Path 2413" d="M102.404 30.862C102.196 30.8617 101.996 30.7789 101.849 30.6318C101.702 30.4846 101.619 30.2851 101.619 30.077V16.836C101.619 16.6277 101.702 16.4279 101.849 16.2805C101.996 16.1332 102.196 16.0505 102.404 16.0505C102.613 16.0505 102.812 16.1332 102.96 16.2805C103.107 16.4279 103.19 16.6277 103.19 16.836V30.079C103.19 30.2871 103.107 30.4866 102.96 30.6338C102.812 30.7809 102.613 30.8637 102.405 30.864" fill="#797979"/>
<path id="Path 2414" d="M145.178 19.457C144.65 19.0869 144.055 18.8217 143.427 18.676C142.78 18.5213 142.117 18.4431 141.452 18.443H137.968V27.992H141.557C142.209 27.9912 142.858 27.8986 143.484 27.717C144.105 27.5403 144.687 27.2479 145.2 26.855C145.717 26.4529 146.137 25.9404 146.43 25.355C146.755 24.6806 146.915 23.9385 146.897 23.19C146.921 22.4085 146.759 21.6325 146.424 20.926C146.133 20.3432 145.705 19.8393 145.178 19.457ZM144.329 23.19C144.343 23.6214 144.259 24.0505 144.084 24.445C143.935 24.7604 143.712 25.0349 143.434 25.245C143.15 25.4514 142.828 25.5996 142.486 25.681C142.113 25.7717 141.731 25.817 141.347 25.816H140.393V20.589H141.4C141.77 20.5883 142.14 20.6312 142.5 20.717C142.836 20.7955 143.154 20.9393 143.435 21.14C143.713 21.3453 143.936 21.616 144.085 21.928C144.261 22.3243 144.345 22.7555 144.33 23.189" fill="#2E2C2D"/>
<path id="Path 2415" d="M154.474 21.365C154.093 21.0251 153.649 20.7626 153.167 20.592C152.14 20.2359 151.022 20.2359 149.995 20.592C149.512 20.7601 149.068 21.0229 148.688 21.365C148.311 21.7099 148.01 22.1299 147.804 22.598C147.58 23.1132 147.468 23.6703 147.477 24.232C147.469 24.7963 147.58 25.3559 147.804 25.874C148.009 26.3466 148.31 26.7715 148.688 27.122C149.068 27.4691 149.512 27.7391 149.995 27.917C151.019 28.2936 152.143 28.2936 153.167 27.917C153.649 27.7366 154.092 27.4669 154.474 27.122C154.855 26.7731 155.159 26.3479 155.365 25.874C155.589 25.3559 155.7 24.7963 155.692 24.232C155.701 23.6703 155.589 23.1132 155.365 22.598C155.159 22.1286 154.855 21.7083 154.474 21.365ZM153.233 24.93C153.161 25.1545 153.047 25.3637 152.899 25.547C152.749 25.7309 152.562 25.8803 152.349 25.985C152.111 26.0927 151.853 26.1484 151.592 26.1484C151.33 26.1484 151.072 26.0927 150.834 25.985C150.621 25.8803 150.434 25.7309 150.284 25.547C150.136 25.3637 150.022 25.1545 149.95 24.93C149.801 24.4752 149.801 23.9848 149.95 23.53C150.02 23.3111 150.131 23.1075 150.277 22.93C150.426 22.7526 150.611 22.6085 150.819 22.507C151.057 22.3994 151.315 22.3437 151.577 22.3437C151.838 22.3437 152.096 22.3994 152.334 22.507C152.543 22.6098 152.73 22.7537 152.883 22.93C153.034 23.1068 153.15 23.3103 153.225 23.53C153.304 23.7549 153.344 23.9916 153.344 24.23C153.344 24.4678 153.306 24.7041 153.232 24.93" fill="#2E2C2D"/>
<path id="Path 2416" d="M159.257 22.934C159.406 22.7608 159.587 22.6194 159.792 22.518C160.01 22.4115 160.25 22.3581 160.492 22.362C160.744 22.3628 160.992 22.4184 161.22 22.525C161.44 22.6208 161.634 22.7687 161.785 22.956L163.196 21.322C163.037 21.1654 162.86 21.0284 162.669 20.914C162.458 20.7864 162.234 20.6818 162.001 20.602C161.754 20.5168 161.5 20.45 161.243 20.402C160.981 20.3523 160.715 20.3272 160.448 20.327C159.896 20.3235 159.347 20.4165 158.827 20.602C158.339 20.774 157.89 21.0416 157.507 21.389C157.129 21.7363 156.829 22.1591 156.625 22.63C156.197 23.6825 156.197 24.8605 156.625 25.913C156.829 26.3839 157.129 26.8067 157.507 27.154C157.889 27.501 158.338 27.7664 158.827 27.934C159.353 28.1153 159.906 28.2056 160.463 28.201C160.988 28.2041 161.511 28.1185 162.008 27.948C162.45 27.8045 162.856 27.5655 163.196 27.248L161.844 25.599C161.687 25.7832 161.484 25.9238 161.257 26.007C161.023 26.0995 160.773 26.1474 160.521 26.148C160.273 26.1524 160.027 26.1018 159.801 26C159.591 25.9037 159.404 25.7647 159.251 25.592C159.096 25.4169 158.978 25.213 158.902 24.992C158.822 24.7578 158.781 24.5116 158.783 24.264C158.781 24.0158 158.824 23.7692 158.909 23.536C158.989 23.3168 159.107 23.1136 159.258 22.936" fill="#2E2C2D"/>
<path id="Path 2417" d="M168.833 24.561C168.842 24.9582 168.725 25.3481 168.499 25.675C168.391 25.8303 168.244 25.9554 168.074 26.0385C167.904 26.1216 167.715 26.16 167.526 26.15C167.335 26.159 167.145 26.1154 166.977 26.024C166.837 25.9389 166.721 25.8185 166.642 25.675C166.555 25.5183 166.498 25.3472 166.472 25.17C166.442 24.9735 166.426 24.7749 166.427 24.576V20.565H163.976V25.14C163.976 25.5135 164.023 25.8856 164.117 26.247C164.205 26.5963 164.361 26.9246 164.577 27.213C164.799 27.5029 165.083 27.7391 165.409 27.904C165.8 28.093 166.23 28.1847 166.664 28.171C166.913 28.1734 167.16 28.1397 167.399 28.071C167.621 28.0062 167.836 27.9167 168.038 27.804C168.224 27.7006 168.394 27.5705 168.543 27.418C168.681 27.2766 168.799 27.1163 168.892 26.942H168.922V27.967H171.269V20.567H168.833V24.561Z" fill="#2E2C2D"/>
<path id="Path 2418" d="M183.067 18.442L181.63 24.381L180.051 18.525L180.029 18.442H177.513L175.924 24.381L174.513 18.446H171.852L174.563 27.995H176.971L178.75 21.907L180.529 27.995H182.923L185.647 18.446L183.067 18.442Z" fill="#2E2C2D"/>
<path id="Path 2419" d="M191.371 21.266C191.094 20.9374 190.732 20.6908 190.324 20.553C189.814 20.387 189.279 20.3089 188.742 20.322C188.137 20.3221 187.536 20.4277 186.967 20.634C186.399 20.8349 185.88 21.1539 185.444 21.57L186.677 22.892C186.923 22.6727 187.201 22.4926 187.501 22.358C187.814 22.2115 188.155 22.1353 188.501 22.135C188.837 22.1238 189.169 22.2145 189.452 22.395C189.581 22.485 189.684 22.607 189.752 22.749C189.82 22.891 189.849 23.0481 189.838 23.205V23.324C189.287 23.3249 188.737 23.3546 188.189 23.413C187.663 23.4638 187.146 23.5838 186.652 23.77C186.221 23.9289 185.833 24.1888 185.523 24.528C185.219 24.888 185.063 25.3495 185.085 25.82C185.072 26.2025 185.159 26.5817 185.338 26.92C185.495 27.2048 185.716 27.449 185.984 27.633C186.249 27.8121 186.543 27.9428 186.853 28.019C187.154 28.0962 187.463 28.1362 187.774 28.138C188.201 28.1419 188.624 28.0557 189.015 27.885C189.367 27.7414 189.665 27.4923 189.869 27.172H189.913V27.966H192.141V24.234C192.151 23.6466 192.088 23.0603 191.955 22.488C191.853 22.0431 191.653 21.6268 191.368 21.27M189.912 24.991C189.923 25.1924 189.894 25.3938 189.826 25.5838C189.759 25.7738 189.654 25.9486 189.519 26.098C189.368 26.2408 189.189 26.3507 188.994 26.4209C188.798 26.4911 188.59 26.5201 188.383 26.506C188.258 26.5055 188.134 26.4931 188.012 26.469C187.892 26.4475 187.776 26.4048 187.67 26.343C187.571 26.2836 187.487 26.2022 187.425 26.105C187.357 25.9985 187.322 25.8743 187.325 25.748C187.321 25.6505 187.338 25.5533 187.373 25.4625C187.409 25.3718 187.464 25.2895 187.533 25.221C187.684 25.0823 187.864 24.9797 188.06 24.921C188.297 24.8473 188.541 24.8001 188.788 24.78C189.061 24.7554 189.331 24.743 189.598 24.743H189.91L189.912 24.991Z" fill="#2E2C2D"/>
<path id="Path 2420" d="M197.423 20.357C196.996 20.3496 196.576 20.475 196.223 20.716C195.881 20.9514 195.606 21.271 195.423 21.644H195.394V20.574H193.047V27.963H195.477V24.17C195.482 23.9939 195.512 23.8195 195.566 23.652C195.626 23.4525 195.725 23.2665 195.855 23.104C196.002 22.9254 196.184 22.779 196.39 22.674C196.646 22.5479 196.929 22.4868 197.214 22.496C197.313 22.496 197.413 22.501 197.514 22.511C197.622 22.5216 197.729 22.5414 197.833 22.57L197.933 20.416C197.858 20.3933 197.78 20.3785 197.702 20.372C197.606 20.362 197.51 20.357 197.413 20.357" fill="#2E2C2D"/>
<path id="Path 2421" d="M205.544 22.659C205.377 22.1905 205.117 21.7608 204.779 21.396C204.451 21.0483 204.051 20.7769 203.606 20.601C203.128 20.4137 202.619 20.3204 202.106 20.326C201.568 20.3211 201.034 20.4167 200.531 20.608C200.061 20.7863 199.632 21.0566 199.268 21.403C198.904 21.7567 198.616 22.1815 198.422 22.651C198.208 23.1716 198.102 23.7302 198.11 24.293C198.099 24.8638 198.208 25.4306 198.429 25.957C198.629 26.4242 198.928 26.8424 199.305 27.183C199.684 27.5193 200.126 27.777 200.605 27.941C201.112 28.1161 201.644 28.2041 202.18 28.201C202.863 28.2156 203.54 28.0761 204.162 27.793C204.716 27.534 205.19 27.1314 205.536 26.627L203.843 25.557C203.67 25.7891 203.447 25.9795 203.19 26.114C202.886 26.2658 202.549 26.3397 202.209 26.329C201.783 26.329 201.369 26.1911 201.028 25.936C200.869 25.8162 200.733 25.6676 200.628 25.498C200.523 25.3267 200.459 25.1332 200.442 24.933H205.805C205.815 24.8393 205.82 24.7452 205.82 24.651V24.351C205.83 23.7748 205.737 23.2015 205.545 22.658M200.445 23.416C200.455 23.2268 200.506 23.042 200.593 22.874C200.682 22.7015 200.803 22.5477 200.95 22.421C201.104 22.2906 201.28 22.189 201.47 22.121C201.679 22.045 201.901 22.0074 202.123 22.01C202.324 21.9949 202.527 22.0244 202.715 22.0963C202.904 22.1682 203.075 22.2808 203.215 22.426C203.458 22.7018 203.588 23.0588 203.579 23.426L200.445 23.416Z" fill="#2E2C2D"/>
<path id="Path 2422" d="M127.215 23.278C127.215 23.7628 127.12 24.243 126.935 24.691C126.749 25.139 126.478 25.546 126.135 25.8888C125.792 26.2316 125.385 26.5035 124.937 26.6889C124.489 26.8742 124.009 26.9694 123.524 26.969H123.517V24.516H121.054V22.051H123.517V19.588H123.524C124.502 19.5904 125.439 19.9799 126.131 20.6714C126.823 21.3628 127.212 22.3 127.215 23.278Z" fill="#004194"/>
<path id="Path 2423" d="M131.008 16.427C129.423 14.842 127.337 13.8556 125.107 13.636C122.876 13.4163 120.638 13.9769 118.774 15.2222C116.91 16.4675 115.536 18.3206 114.885 20.4656C114.235 22.6107 114.348 24.915 115.205 26.9859C116.063 29.0569 117.613 30.7663 119.589 31.8231C121.566 32.8798 123.848 33.2184 126.047 32.7812C128.245 32.344 130.224 31.1581 131.646 29.4254C133.068 27.6927 133.846 25.5206 133.846 23.279C133.848 22.0062 133.598 20.7457 133.111 19.5698C132.624 18.3939 131.909 17.3258 131.008 16.427ZM127.924 27.678C127.348 28.2577 126.662 28.7174 125.907 29.0303C125.151 29.3432 124.342 29.5032 123.524 29.501H123.517V26.972H121.054V24.516H118.586V22.051H121.05V19.585H123.513V17.057H123.52C124.751 17.0566 125.954 17.4212 126.977 18.1047C128.001 18.7883 128.798 19.76 129.27 20.897C129.741 22.034 129.864 23.2852 129.624 24.4923C129.383 25.6993 128.79 26.808 127.92 27.678" fill="#004194"/>
</g>
</g>
</g>
</g>
<defs>
<clipPath id="clip0_3552_3746">
<rect width="219.523" height="52.75" fill="white"/>
</clipPath>
</defs>
</svg>
