<svg id="Icon_automate" xmlns="http://www.w3.org/2000/svg" xmlns:xlink="http://www.w3.org/1999/xlink" width="60" height="60" viewBox="0 0 60 60">
  <defs>
    <clipPath id="clip-path">
      <rect id="Rectangle_698" data-name="Rectangle 698" width="41.858" height="40.858" transform="translate(264.375 1419.661)"/>
    </clipPath>
  </defs>
  <path id="Path_273" data-name="Path 273" d="M114.521,230.126h-4.535a.892.892,0,0,1-.891-.892V180.027a1.79,1.79,0,0,0-1.784-1.791h-50.1a1.794,1.794,0,0,0-1.79,1.791v50.1a1.792,1.792,0,0,0,1.79,1.791h49.2a.894.894,0,0,1,.9.9v4.533a.886.886,0,0,0,.887.89h6.324a.892.892,0,0,0,.9-.89v-6.325a.9.9,0,0,0-.9-.9" transform="translate(-55.418 -178.236)" fill="#8fc740"/>
  <g id="Icon_6" transform="translate(-258.451 -1413.268)" clip-path="url(#clip-path)">
    <path id="Path_1504" data-name="Path 1504" d="M326.087,1470H330.8v2.067a.442.442,0,0,0,.316.428,9.129,9.129,0,0,1,1.767.73h.425l.041-.028c.017-.012.023-.024.027-.026s.024-.01.027-.016a.16.16,0,0,1,.014-.014c.016-.014.03-.043.055-.068.05-.05.122-.109.205-.192.167-.167.4-.4.616-.619.29-.292.411-.413.575-.579l3.317,3.348c-.167.167-.277.281-.562.565-.221.22-.45.439-.616.607-.084.083-.143.156-.191.206-.024.024-.054.04-.068.056s-.006.019-.014.026-.006.005-.014.014a.192.192,0,0,0-.027.028.491.491,0,0,0-.027.056l-.027.371a.271.271,0,0,0,.027.042,9.431,9.431,0,0,1,.727,1.777.439.439,0,0,0,.425.317h2.069v4.711h-2.069a.439.439,0,0,0-.425.3,9.471,9.471,0,0,1-.727,1.777v.427l.027.042a.126.126,0,0,0,.027.026c.008.01.01.024.014.028l.014.014c.014.016.044.03.068.056.05.05.109.125.191.206.166.167.4.387.616.607.283.282.4.4.562.565l-3.317,3.346c-.164-.165-.286-.286-.575-.577-.221-.22-.45-.44-.616-.607-.084-.081-.143-.157-.191-.206-.024-.024-.054-.042-.068-.055s-.007-.021-.014-.026-.009.005-.014,0a.046.046,0,0,0-.014-.016l-.027-.026-.261-.083a.426.426,0,0,0-.205.056,9.274,9.274,0,0,1-1.767.73.443.443,0,0,0-.316.428v2.067h-4.715v-2.067a.443.443,0,0,0-.316-.428,9.128,9.128,0,0,1-1.767-.73.439.439,0,0,0-.521.083l-1.453,1.46-3.33-3.334,1.453-1.46a.441.441,0,0,0,.068-.524,9.484,9.484,0,0,1-.727-1.777.438.438,0,0,0-.425-.3H317V1479.1h2.069a.439.439,0,0,0,.425-.317,9.444,9.444,0,0,1,.727-1.777.445.445,0,0,0-.068-.524l-1.453-1.46,3.317-3.334,1.466,1.472a.434.434,0,0,0,.521.069,9.274,9.274,0,0,1,1.767-.73.442.442,0,0,0,.316-.428Z" transform="translate(-42.792 -41.354)" fill="none" stroke="#fff" stroke-miterlimit="8" stroke-width="1.8" fill-rule="evenodd"/>
    <path id="Path_1505" data-name="Path 1505" d="M360.682,1509a4.682,4.682,0,1,0,4.682,4.687A4.7,4.7,0,0,0,360.682,1509Z" transform="translate(-75.029 -73.591)" fill="none" stroke="#fff" stroke-miterlimit="8" stroke-width="1.8" fill-rule="evenodd"/>
    <path id="Path_1506" data-name="Path 1506" d="M411,1436a17.937,17.937,0,0,1,13.178,17.255,17.751,17.751,0,0,1-2.395,8.928" transform="translate(-120.492 -13.249)" fill="none" stroke="#fff" stroke-miterlimit="8" stroke-width="1.5" fill-rule="evenodd"/>
    <path id="Path_1507" data-name="Path 1507" d="M409.272,1432.121l.359-.2-1.044-1.691,1.841-.87-.185-.357L408,1430.061Z" transform="translate(-118.013 -7.463)" fill="none" stroke="#fff" stroke-miterlimit="8" stroke-width="0.8" fill-rule="evenodd"/>
    <path id="Path_1508" data-name="Path 1508" d="M279.851,1454.582a18.2,18.2,0,0,1,7.209-20.632,17.691,17.691,0,0,1,8.76-2.949" transform="translate(-11.381 -9.116)" fill="none" stroke="#fff" stroke-miterlimit="8" stroke-width="1.5" fill-rule="evenodd"/>
    <path id="Path_1509" data-name="Path 1509" d="M276.121,1555.184l-.358-.184-.865,1.843-1.7-1.035-.2.361,2.068,1.259Z" transform="translate(-6.421 -111.615)" fill="none" stroke="#fff" stroke-miterlimit="8" stroke-width="0.8" fill-rule="evenodd"/>
    <path id="Path_1510" data-name="Path 1510" d="M322.09,1594.1a17.968,17.968,0,0,1-21.4,3.22A17.76,17.76,0,0,1,294,1591" transform="translate(-23.78 -141.373)" fill="none" stroke="#fff" stroke-miterlimit="8" stroke-width="1.5" fill-rule="evenodd"/>
    <path id="Path_1511" data-name="Path 1511" d="M444,1607.083l.014.4,1.992-.068-.077,1.994.405.014.093-2.428Z" transform="translate(-147.77 -154.599)" fill="none" stroke="#fff" stroke-miterlimit="8" stroke-width="0.8" fill-rule="evenodd"/>
  </g>
</svg>
