<svg xmlns="http://www.w3.org/2000/svg" width="60.234" height="60.234" viewBox="0 0 60.234 60.234">
  <g id="Icon_customise_form" transform="translate(-851.266 -2563.766)">
    <path id="Path_1004" data-name="Path 1004" d="M114.752,230.329H110.2a.9.9,0,0,1-.895-.9v-49.4a1.8,1.8,0,0,0-1.791-1.8h-50.3a1.8,1.8,0,0,0-1.8,1.8v50.294a1.8,1.8,0,0,0,1.8,1.8H106.61a.9.9,0,0,1,.9.9v4.551a.889.889,0,0,0,.891.893h6.348a.9.9,0,0,0,.9-.893v-6.349a.9.9,0,0,0-.9-.9" transform="translate(795.848 2385.53)" fill="#8fc740"/>
    <g id="Group_2637" data-name="Group 2637" transform="translate(869.191 2575.125)">
      <g id="Group_2500" data-name="Group 2500" transform="translate(-6.786 -3.155)">
        <path id="Path_1515" data-name="Path 1515" d="M0,0V6.35H6.421Z" transform="translate(20.387 0)" fill="none" stroke="#fff" stroke-linecap="round" stroke-linejoin="round" stroke-miterlimit="10" stroke-width="1.8"/>
        <g id="Group_2499" data-name="Group 2499" transform="translate(0 0)">
          <path id="Path_1925" data-name="Path 1925" d="M20.258-.155H3.688V28.4H26.427V6.258Z" transform="translate(-3.688 4.646)" fill="#8fc740" stroke="#fff" stroke-width="1.8"/>
          <path id="Path_1916" data-name="Path 1916" d="M20.258-.155H3.688V28.4H26.427V6.258Z" transform="translate(0.381 0.155)" fill="#8fc740" stroke="#fff" stroke-width="1.8"/>
          <path id="Path_1911" data-name="Path 1911" d="M0,0H11.23" transform="translate(9.824 22.263)" fill="none" stroke="#fff" stroke-linecap="square" stroke-linejoin="round" stroke-miterlimit="10" stroke-width="1.8"/>
          <path id="Path_1910" data-name="Path 1910" d="M0,0H11.23" transform="translate(9.824 18.271)" fill="none" stroke="#fff" stroke-linecap="square" stroke-linejoin="round" stroke-miterlimit="10" stroke-width="1.8"/>
          <path id="Path_1520" data-name="Path 1520" d="M0,0H11.23" transform="translate(9.824 14.279)" fill="none" stroke="#fff" stroke-linecap="square" stroke-linejoin="round" stroke-miterlimit="10" stroke-width="1.8"/>
          <path id="Path_1521" data-name="Path 1521" d="M0,0H8.056" transform="translate(9.824 10.288)" fill="none" stroke="#fff" stroke-linecap="square" stroke-linejoin="round" stroke-miterlimit="10" stroke-width="1.8"/>
          <path id="Path_1522" data-name="Path 1522" d="M0,0H5.3" transform="translate(9.824 6.295)" fill="none" stroke="#fff" stroke-linecap="square" stroke-linejoin="round" stroke-miterlimit="10" stroke-width="1.8"/>
          <g id="Ellipse_20" data-name="Ellipse 20" transform="translate(16.715 20.794)" fill="#8fc740" stroke="#fff" stroke-width="2">
            <circle cx="9" cy="9" r="9" stroke="none"/>
            <circle cx="9" cy="9" r="8" fill="none"/>
          </g>
          <path id="Path_1927" data-name="Path 1927" d="M227.23,388.87l2.72,2.686,5.469-5.456" transform="translate(-205.491 -359.056)" fill="none" stroke="#fff" stroke-miterlimit="10" stroke-width="2"/>
        </g>
      </g>
    </g>
  </g>
</svg>
