<svg xmlns="http://www.w3.org/2000/svg" width="60.234" height="60.234" viewBox="0 0 60.234 60.234">
  <g id="Icon_data_entry" transform="translate(-851.266 -2563.766)">
    <path id="Path_1004" data-name="Path 1004" d="M114.752,230.329H110.2a.9.9,0,0,1-.895-.9v-49.4a1.8,1.8,0,0,0-1.791-1.8h-50.3a1.8,1.8,0,0,0-1.8,1.8v50.294a1.8,1.8,0,0,0,1.8,1.8H106.61a.9.9,0,0,1,.9.9v4.551a.889.889,0,0,0,.891.893h6.348a.9.9,0,0,0,.9-.893v-6.349a.9.9,0,0,0-.9-.9" transform="translate(795.848 2385.53)" fill="#8fc740"/>
    <g id="Group_2504" data-name="Group 2504" transform="translate(865.234 2581.262)">
      <g id="Group_2502" data-name="Group 2502" transform="translate(0 0)">
        <rect id="Rectangle_700" data-name="Rectangle 700" width="33.963" height="20.183" transform="translate(-3.299)" fill="none" stroke="#fff" stroke-miterlimit="10" stroke-width="1.6"/>
        <path id="Path_1572" data-name="Path 1572" d="M0,0H14.668V3.811H0Z" transform="translate(6.348 22.724)" fill="none" stroke="#fff" stroke-width="1.6"/>
        <g id="Group_2066" data-name="Group 2066" transform="translate(10.428 20.128)">
          <line id="Line_191" data-name="Line 191" y2="2.595" transform="translate(0 0)" fill="none" stroke="#fff" stroke-miterlimit="10" stroke-width="1.6"/>
          <line id="Line_192" data-name="Line 192" y2="2.595" transform="translate(6.509 0)" fill="none" stroke="#fff" stroke-miterlimit="10" stroke-width="1.6"/>
        </g>
      </g>
    </g>
    <g id="Group_2498" data-name="Group 2498" transform="translate(873.763 2577.125)">
      <g id="Group_2500" data-name="Group 2500" transform="translate(-6.786 -3.155)">
        <path id="Path_1515" data-name="Path 1515" d="M0,0V4.911H4.966Z" transform="translate(15.767 0)" fill="none" stroke="#fff" stroke-linecap="round" stroke-linejoin="round" stroke-miterlimit="10" stroke-width="1.8"/>
        <g id="Group_2499" data-name="Group 2499" transform="translate(0 0)">
          <path id="Path_1916" data-name="Path 1916" d="M16.5-.155H3.688V21.931H21.274V4.8Z" transform="translate(-0.541 0.155)" fill="#8fc740" stroke="#fff" stroke-width="1.8"/>
          <path id="Path_1911" data-name="Path 1911" d="M0,0H8.685" transform="translate(7.598 17.218)" fill="none" stroke="#fff" stroke-linecap="square" stroke-linejoin="round" stroke-miterlimit="10" stroke-width="1.8"/>
          <path id="Path_1910" data-name="Path 1910" d="M0,0H8.685" transform="translate(7.598 14.131)" fill="none" stroke="#fff" stroke-linecap="square" stroke-linejoin="round" stroke-miterlimit="10" stroke-width="1.8"/>
          <path id="Path_1520" data-name="Path 1520" d="M0,0H8.685" transform="translate(7.598 11.043)" fill="none" stroke="#fff" stroke-linecap="square" stroke-linejoin="round" stroke-miterlimit="10" stroke-width="1.8"/>
          <path id="Path_1521" data-name="Path 1521" d="M0,0H6.23" transform="translate(7.598 7.956)" fill="none" stroke="#fff" stroke-linecap="square" stroke-linejoin="round" stroke-miterlimit="10" stroke-width="1.8"/>
          <path id="Path_1522" data-name="Path 1522" d="M0,0H4.1" transform="translate(7.598 4.869)" fill="none" stroke="#fff" stroke-linecap="square" stroke-linejoin="round" stroke-miterlimit="10" stroke-width="1.8"/>
        </g>
      </g>
    </g>
  </g>
</svg>
