<svg xmlns="http://www.w3.org/2000/svg" width="60.234" height="60.234" viewBox="0 0 60.234 60.234">
  <g id="Group_1448" data-name="Group 1448" transform="translate(-851.266 -2563.766)">
    <path id="Path_1004" data-name="Path 1004" d="M114.752,230.329H110.2a.9.9,0,0,1-.895-.9v-49.4a1.8,1.8,0,0,0-1.791-1.8h-50.3a1.8,1.8,0,0,0-1.8,1.8v50.294a1.8,1.8,0,0,0,1.8,1.8H106.61a.9.9,0,0,1,.9.9v4.551a.889.889,0,0,0,.891.893h6.348a.9.9,0,0,0,.9-.893v-6.349a.9.9,0,0,0-.9-.9" transform="translate(795.848 2385.53)" fill="#758cc5"></path>
    <g id="Group_2120" data-name="Group 2120" transform="translate(856.541 2582.223)">
      <g id="Group_2114" data-name="Group 2114" transform="translate(0 1.294)">
        <path id="Path_1571" data-name="Path 1571" d="M776.626,377.638h-10.5a1.975,1.975,0,0,1-1.974-1.976v-10.4a1.975,1.975,0,0,1,1.974-1.976h10.5" transform="translate(-764.153 -363.288)" fill="none" stroke="#fff" stroke-miterlimit="10" stroke-width="2"></path>
        <g id="Group_2113" data-name="Group 2113" transform="translate(6.236 3.353)">
          <rect id="Rectangle_720" data-name="Rectangle 720" width="2.117" height="2.117" fill="none" stroke="#fff" stroke-miterlimit="10" stroke-width="2"></rect>
          <rect id="Rectangle_721" data-name="Rectangle 721" width="2.117" height="2.117" transform="translate(0 5.528)" fill="none" stroke="#fff" stroke-miterlimit="10" stroke-width="2"></rect>
        </g>
      </g>
      <path id="Path_1572" data-name="Path 1572" d="M794.139,364.88v2.014a1.55,1.55,0,0,1-1.2,1.633A1.415,1.415,0,0,1,791.5,367V364.88a.025.025,0,0,0-.023-.025h-2.389l-2.36-2.542H775.948a.752.752,0,0,0-.69.8v15.335a.752.752,0,0,0,.69.8h10.781l2.36-2.544h2.389a.025.025,0,0,0,.023-.025v-2.014a1.548,1.548,0,0,1,1.2-1.631,1.413,1.413,0,0,1,1.438,1.523v2.123a.024.024,0,0,0,.021.025h2.9a.024.024,0,0,0,.021-.025v-11.8a.024.024,0,0,0-.021-.025h-2.9A.024.024,0,0,0,794.139,364.88Z" transform="translate(-760.553 -362.311)" fill="none" stroke="#fff" stroke-miterlimit="10" stroke-width="2"></path>
      <path id="Path_1573" data-name="Path 1573" d="M791.655,368.879h4.23c3.974,0,6.157,3.594,6.157,3.594" transform="translate(-755.239 -360.182)" fill="none" stroke="#fff" stroke-miterlimit="10" stroke-width="2"></path>
      <path id="Path_1574" data-name="Path 1574" d="M781.319,363.652l-2.258,7.319h3.511l-1.755,5.45" transform="translate(-759.321 -361.876)" fill="none" stroke="#fff" stroke-miterlimit="10" stroke-width="2"></path>
    </g>
  </g>
</svg>
