<svg id="Icon-Cancel" xmlns="http://www.w3.org/2000/svg" width="60" height="60" viewBox="0 0 60 60">
  <path id="Path_273" data-name="Path 273" d="M114.521,230.126h-4.535a.892.892,0,0,1-.891-.892V180.027a1.79,1.79,0,0,0-1.784-1.791h-50.1a1.794,1.794,0,0,0-1.79,1.791v50.1a1.792,1.792,0,0,0,1.79,1.791h49.2a.894.894,0,0,1,.9.9v4.533a.886.886,0,0,0,.887.89h6.324a.892.892,0,0,0,.9-.89v-6.325a.9.9,0,0,0-.9-.9" transform="translate(-55.418 -178.236)" fill="#768ec7"></path>
  <g id="Group_2091" data-name="Group 2091" transform="translate(-93 -476.562)">
    <g id="Group_2094" data-name="Group 2094" transform="translate(100.829 484.319)">
      <g id="Group_2070" data-name="Group 2070" transform="translate(17.354)">
        <path id="Path_1545" data-name="Path 1545" d="M695.15,210.312a10.245,10.245,0,0,1-.1-1.408,10.086,10.086,0,1,1,10.086,10.086" transform="translate(-695.052 -198.818)" fill="none" stroke="#fff" stroke-miterlimit="10" stroke-width="2"></path>
        <g id="Group_2069" data-name="Group 2069" transform="translate(0.001)">
          <line id="Line_174" data-name="Line 174" y2="3.085" transform="translate(10.086)" fill="none" stroke="#fff" stroke-miterlimit="10" stroke-width="2"></line>
          <g id="Group_2068" data-name="Group 2068" transform="translate(0 10.086)">
            <line id="Line_175" data-name="Line 175" x1="3.085" transform="translate(17.086)" fill="none" stroke="#fff" stroke-miterlimit="10" stroke-width="2"></line>
            <line id="Line_176" data-name="Line 176" x1="3.085" fill="none" stroke="#fff" stroke-miterlimit="10" stroke-width="2"></line>
          </g>
        </g>
        <path id="Path_1546" data-name="Path 1546" d="M700.24,208.286l2.737,2.559,5.636-5.636" transform="translate(-694.34 -197.941)" fill="none" stroke="#fff" stroke-miterlimit="10" stroke-width="2"></path>
      </g>
      <g id="Group_2071" data-name="Group 2071" transform="translate(0 4.212)">
        <path id="Path_1547" data-name="Path 1547" d="M680.3,224.967,684,221.261,694.74,232l-3.707,3.707" transform="translate(-679.725 -199.948)" fill="none" stroke="#fff" stroke-miterlimit="10" stroke-width="2"></path>
        <path id="Path_1548" data-name="Path 1548" d="M694.7,213.975l-2.928-2.926a6.214,6.214,0,0,0-8.677-7.8l3.635,3.635a1.825,1.825,0,0,1-2.581,2.58l-3.634-3.635a6.215,6.215,0,0,0,7.8,8.678l1.459,1.459" transform="translate(-679.794 -202.522)" fill="none" stroke="#fff" stroke-miterlimit="10" stroke-width="2"></path>
        <path id="Path_1549" data-name="Path 1549" d="M695.553,221.317l5.29,5.29a2.442,2.442,0,0,0,3.452-3.453l-1.407-1.407" transform="translate(-677.629 -199.94)" fill="none" stroke="#fff" stroke-miterlimit="10" stroke-width="2"></path>
        <rect id="Rectangle_712" data-name="Rectangle 712" width="3.66" height="6.313" rx="1.609" transform="translate(18.292 8.067) rotate(45)" fill="none" stroke="#fff" stroke-miterlimit="10" stroke-width="2"></rect>
        <rect id="Rectangle_713" data-name="Rectangle 713" width="3.66" height="7.947" rx="1.609" transform="translate(21.692 9.843) rotate(45)" fill="none" stroke="#fff" stroke-miterlimit="10" stroke-width="2"></rect>
        <rect id="Rectangle_714" data-name="Rectangle 714" width="3.66" height="7.683" rx="1.609" transform="translate(23.789 12.923) rotate(45)" fill="none" stroke="#fff" stroke-miterlimit="10" stroke-width="2"></rect>
        <rect id="Rectangle_715" data-name="Rectangle 715" width="3.66" height="6.833" rx="1.609" transform="translate(25.776 16.113) rotate(45)" fill="none" stroke="#fff" stroke-miterlimit="10" stroke-width="2"></rect>
        <path id="Path_1550" data-name="Path 1550" d="M697.645,217.966l-1.093,1.093a2.275,2.275,0,0,1-3.219,0l-2.6-2.6" transform="translate(-678.291 -200.608)" fill="none" stroke="#fff" stroke-miterlimit="10" stroke-width="2"></path>
        <path id="Path_1551" data-name="Path 1551" d="M691.515,217.242l1.093,1.093a2.275,2.275,0,0,1,0,3.219" transform="translate(-678.184 -200.5)" fill="none" stroke="#fff" stroke-miterlimit="10" stroke-width="2"></path>
        <path id="Path_1552" data-name="Path 1552" d="M692.346,211.3l-3.943,3.943a6.492,6.492,0,0,0-1.886,4.155l-.274,4.061" transform="translate(-678.908 -201.316)" fill="none" stroke="#fff" stroke-miterlimit="10" stroke-width="2"></path>
        <path id="Path_1553" data-name="Path 1553" d="M700,224.711l-2.934,2.936a3.87,3.87,0,0,1-2.683,1.132h-.123a3.869,3.869,0,0,0-2.683,1.132h0" transform="translate(-678.175 -199.474)" fill="none" stroke="#fff" stroke-miterlimit="10" stroke-width="2"></path>
      </g>
    </g>
  </g>
</svg>
