<svg id="Icon-Easy" xmlns="http://www.w3.org/2000/svg" width="60" height="60" viewBox="0 0 60 60">
  <path id="Path_273" data-name="Path 273" d="M114.521,230.126h-4.535a.892.892,0,0,1-.891-.892V180.027a1.79,1.79,0,0,0-1.784-1.791h-50.1a1.794,1.794,0,0,0-1.79,1.791v50.1a1.792,1.792,0,0,0,1.79,1.791h49.2a.894.894,0,0,1,.9.9v4.533a.886.886,0,0,0,.887.89h6.324a.892.892,0,0,0,.9-.89v-6.325a.9.9,0,0,0-.9-.9" transform="translate(-55.418 -178.236)" fill="#768ec7"></path>
  <g id="Group_2093" data-name="Group 2093" transform="translate(8.962 8.04)">
    <line id="Line_173" data-name="Line 173" x1="29.359" transform="translate(1.547 36.581)" fill="#fff" stroke="#fff" stroke-miterlimit="10" stroke-width="2"></line>
    <path id="Path_1535" data-name="Path 1535" d="M674.589,188.543v-1.863a1.1,1.1,0,0,1,1.1-1.1h5.393a1.1,1.1,0,0,1,1.1,1.1v1.863" transform="translate(-662.438 -151.962)" fill="none" stroke="#fff" stroke-miterlimit="10" stroke-width="2"></path>
    <path id="Path_1536" data-name="Path 1536" d="M682.347,164.749V154.026h12.89v16.961h-5.9" transform="translate(-661.931 -154.026)" fill="none" stroke="#fff" stroke-miterlimit="10" stroke-width="2"></path>
    <g id="Group_2066" data-name="Group 2066" transform="translate(22.757 2.537)">
      <rect id="Rectangle_703" data-name="Rectangle 703" width="5.208" height="1.252" transform="translate(1.495 1)" fill="none" stroke="#fff" stroke-miterlimit="10" stroke-width="2"></rect>
      <g id="Group_2065" data-name="Group 2065" transform="translate(0.495 5.596)">
        <rect id="Rectangle_704" data-name="Rectangle 704" width="1.11" height="1.11" transform="translate(1)" fill="none" stroke="#fff" stroke-miterlimit="10" stroke-width="2"></rect>
        <rect id="Rectangle_717" data-name="Rectangle 717" width="1.11" height="1.11" transform="translate(1 4)" fill="none" stroke="#fff" stroke-miterlimit="10" stroke-width="2"></rect>
        <rect id="Rectangle_716" data-name="Rectangle 716" width="1.11" height="1.11" transform="translate(5)" fill="none" stroke="#fff" stroke-miterlimit="10" stroke-width="2"></rect>
        <rect id="Rectangle_718" data-name="Rectangle 718" width="1.11" height="1.11" transform="translate(5 4)" fill="none" stroke="#fff" stroke-miterlimit="10" stroke-width="2"></rect>
      </g>
    </g>
    <path id="Path_1537" data-name="Path 1537" d="M678.332,171.178a9.57,9.57,0,0,1,3.72.749,4.149,4.149,0,1,0-5.86-.506A9.624,9.624,0,0,1,678.332,171.178Z" transform="translate(-662.397 -153.333)" fill="none" stroke="#fff" stroke-miterlimit="10" stroke-width="2"></path>
    <path id="Path_1538" data-name="Path 1538" d="M683.1,172.042a9.6,9.6,0,0,0-8.01-.7" transform="translate(-662.405 -152.93)" fill="none" stroke="#fff" stroke-miterlimit="10" stroke-width="2"></path>
    <path id="Path_1539" data-name="Path 1539" d="M690.37,178.408s5.6.059,5.452-3.639c-.124-3.186-5.134-1.854-2.725,1.82,1.616,2.464,5.5,2.375,5.5,2.375" transform="translate(-661.406 -152.787)" fill="none" stroke="#fff" stroke-miterlimit="10" stroke-width="2"></path>
    <path id="Path_1540" data-name="Path 1540" d="M668.339,172.5a11.163,11.163,0,0,0-1.618,4.136l-3.537,1.309s.665,4.806,4.372,5.3l-.016-.029a9.436,9.436,0,0,0,3.847,3.819l-.358,2.362" transform="translate(-663.184 -152.818)" fill="none" stroke="#fff" stroke-miterlimit="10" stroke-width="2"></path>
    <path id="Path_1541" data-name="Path 1541" d="M675.074,167.917a12.983,12.983,0,0,0-3.408,1.294" transform="translate(-662.629 -153.117)" fill="none" stroke="#fff" stroke-miterlimit="10" stroke-width="2"></path>
    <path id="Path_1542" data-name="Path 1542" d="M685.358,189.642c2.59-1.771,5.464-6.878,5.464-10.439,0-5.168-2.742-9.181-7.373-10.438" transform="translate(-661.859 -153.062)" fill="none" stroke="#fff" stroke-miterlimit="10" stroke-width="2"></path>
    <path id="Path_1543" data-name="Path 1543" d="M668.206,172.771a13.905,13.905,0,0,0-2.97-2.449,4.323,4.323,0,0,1,2.97-1.911,6.081,6.081,0,0,1,5.822,2.524" transform="translate(-663.05 -153.09)" fill="none" stroke="#fff" stroke-miterlimit="10" stroke-width="2"></path>
    <path id="Path_1544" data-name="Path 1544" d="M669.1,175.235a2.973,2.973,0,0,1,1.6.631" transform="translate(-662.797 -152.639)" fill="none" stroke="#fff" stroke-miterlimit="10" stroke-width="2"></path>
  </g>
</svg>
