<svg id="Icon-Surveys" xmlns="http://www.w3.org/2000/svg" width="60.146" height="60.146" viewBox="0 0 60.146 60.146">
  <g id="Group_1204" data-name="Group 1204">
    <path id="Path_273" data-name="Path 273" d="M114.664,230.252h-4.546a.894.894,0,0,1-.893-.894V180.032a1.794,1.794,0,0,0-1.789-1.8H57.213a1.8,1.8,0,0,0-1.795,1.8v50.22a1.8,1.8,0,0,0,1.795,1.8h49.322a.9.9,0,0,1,.9.9v4.544a.888.888,0,0,0,.889.892h6.339a.894.894,0,0,0,.9-.892v-6.34a.9.9,0,0,0-.9-.9" transform="translate(-55.418 -178.236)" fill="#768ec7"/>
    <g id="Group_2096" data-name="Group 2096" transform="translate(6.158 12.358)">
      <g id="Group_2087" data-name="Group 2087" transform="translate(17.03)">
        <circle id="Ellipse_30" data-name="Ellipse 30" cx="6.936" cy="6.936" r="6.936" transform="translate(4.305)" fill="none" stroke="#fff" stroke-miterlimit="10" stroke-width="2"/>
        <path id="Path_1555" data-name="Path 1555" d="M755.855,235.025v-4.606a8,8,0,0,1,8-8h6.489a8,8,0,0,1,8,8v4.606" transform="translate(-755.855 -206.901)" fill="none" stroke="#fff" stroke-miterlimit="10" stroke-width="2"/>
      </g>
      <g id="Group_2088" data-name="Group 2088" transform="translate(7.326 10.519)">
        <circle id="Ellipse_31" data-name="Ellipse 31" cx="2.856" cy="2.856" r="2.856" transform="translate(1.773)" fill="none" stroke="#fff" stroke-miterlimit="10" stroke-width="2"/>
        <path id="Path_1556" data-name="Path 1556" d="M746.617,228.095v-1.057a3.294,3.294,0,0,1,3.293-3.293h2.673a3.294,3.294,0,0,1,3.293,3.293" transform="translate(-746.617 -217.353)" fill="none" stroke="#fff" stroke-miterlimit="10" stroke-width="2"/>
      </g>
      <path id="Path_1557" data-name="Path 1557" d="M754.455,232.871H741.11a.825.825,0,0,1-.794-.6l-.643-2.3a.825.825,0,0,1,.8-1.047h13.986" transform="translate(-739.643 -206.573)" fill="none" stroke="#fff" stroke-miterlimit="10" stroke-width="2"/>
      <path id="Path_1558" data-name="Path 1558" d="M741.662,229.586V217.277a1.48,1.48,0,0,1,1.48-1.48h16.164" transform="translate(-739.541 -207.235)" fill="none" stroke="#fff" stroke-miterlimit="10" stroke-width="2"/>
    </g>
  </g>
</svg>
