<svg id="Icon_2" xmlns="http://www.w3.org/2000/svg" width="60" height="60" viewBox="0 0 60 60">
  <path id="Path_273" data-name="Path 273" d="M114.521,230.126h-4.535a.892.892,0,0,1-.891-.892V180.027a1.79,1.79,0,0,0-1.784-1.791h-50.1a1.794,1.794,0,0,0-1.79,1.791v50.1a1.792,1.792,0,0,0,1.79,1.791h49.2a.894.894,0,0,1,.9.9v4.533a.886.886,0,0,0,.887.89h6.324a.892.892,0,0,0,.9-.89v-6.325a.9.9,0,0,0-.9-.9" transform="translate(-55.418 -178.236)" fill="#768ec7"/>
  <g id="Group_2095" data-name="Group 2095" transform="translate(9.465 6.954)">
    <g id="Group_2073" data-name="Group 2073" transform="translate(8.358 10.564)">
      <circle id="Ellipse_23" data-name="Ellipse 23" cx="2.448" cy="2.448" r="2.448" transform="translate(6.346 6.346)" fill="none" stroke="#fff" stroke-miterlimit="10" stroke-width="2"/>
      <path id="Path_1554" data-name="Path 1554" d="M744.344,181.687v-2.659l-2.754-.827a6.093,6.093,0,0,0-.245-.592l1.363-2.53-1.881-1.881-2.53,1.362a6.111,6.111,0,0,0-.593-.244l-.825-2.754H734.22l-.827,2.752a6.105,6.105,0,0,0-.592.245l-2.53-1.362-1.881,1.881,1.362,2.53a6.108,6.108,0,0,0-.245.592l-2.752.827v2.659l2.752.827c.073.2.153.4.245.592l-1.362,2.53,1.881,1.881,2.53-1.362q.288.136.592.244l.827,2.754h2.659l.825-2.752c.2-.073.4-.155.593-.245l2.53,1.362,1.881-1.881-1.363-2.53c.092-.192.173-.391.246-.593Z" transform="translate(-726.755 -171.563)" fill="none" stroke="#fff" stroke-miterlimit="10" stroke-width="2"/>
    </g>
    <g id="Group_2076" data-name="Group 2076" transform="translate(14.703)">
      <g id="Group_2074" data-name="Group 2074">
        <circle id="Ellipse_24" data-name="Ellipse 24" cx="2.448" cy="2.448" r="2.448" fill="none" stroke="#fff" stroke-miterlimit="10" stroke-width="2"/>
        <line id="Line_177" data-name="Line 177" y2="4.205" transform="translate(2.448 4.896)" fill="none" stroke="#fff" stroke-miterlimit="10" stroke-width="2"/>
      </g>
      <g id="Group_2075" data-name="Group 2075" transform="translate(0 29.615)">
        <circle id="Ellipse_25" data-name="Ellipse 25" cx="2.448" cy="2.448" r="2.448" transform="translate(0 4.205)" fill="none" stroke="#fff" stroke-miterlimit="10" stroke-width="2"/>
        <line id="Line_178" data-name="Line 178" y1="4.205" transform="translate(2.448)" fill="none" stroke="#fff" stroke-miterlimit="10" stroke-width="2"/>
      </g>
    </g>
    <g id="Group_2079" data-name="Group 2079" transform="translate(0 8.558)">
      <g id="Group_2077" data-name="Group 2077" transform="translate(26.07)">
        <circle id="Ellipse_26" data-name="Ellipse 26" cx="2.448" cy="2.448" r="2.448" transform="translate(3.337)" fill="none" stroke="#fff" stroke-miterlimit="10" stroke-width="2"/>
        <line id="Line_179" data-name="Line 179" x1="3.656" y2="2.077" transform="translate(0 3.657)" fill="none" stroke="#fff" stroke-miterlimit="10" stroke-width="2"/>
      </g>
      <g id="Group_2078" data-name="Group 2078" transform="translate(0 15.865)">
        <circle id="Ellipse_27" data-name="Ellipse 27" cx="2.448" cy="2.448" r="2.448" transform="translate(0 0.838)" fill="none" stroke="#fff" stroke-miterlimit="10" stroke-width="2"/>
        <line id="Line_180" data-name="Line 180" y1="2.077" x2="3.656" transform="translate(4.577)" fill="none" stroke="#fff" stroke-miterlimit="10" stroke-width="2"/>
      </g>
    </g>
    <g id="Group_2082" data-name="Group 2082" transform="translate(0 8.558)">
      <g id="Group_2080" data-name="Group 2080" transform="translate(26.07 15.865)">
        <circle id="Ellipse_28" data-name="Ellipse 28" cx="2.448" cy="2.448" r="2.448" transform="translate(3.337 0.838)" fill="none" stroke="#fff" stroke-miterlimit="10" stroke-width="2"/>
        <line id="Line_181" data-name="Line 181" x1="3.656" y1="2.077" fill="none" stroke="#fff" stroke-miterlimit="10" stroke-width="2"/>
      </g>
      <g id="Group_2081" data-name="Group 2081">
        <circle id="Ellipse_29" data-name="Ellipse 29" cx="2.448" cy="2.448" r="2.448" fill="none" stroke="#fff" stroke-miterlimit="10" stroke-width="2"/>
        <line id="Line_182" data-name="Line 182" x2="3.656" y2="2.077" transform="translate(4.577 3.657)" fill="none" stroke="#fff" stroke-miterlimit="10" stroke-width="2"/>
      </g>
    </g>
    <g id="Group_2083" data-name="Group 2083" transform="translate(2.448 13.455)">
      <line id="Line_183" data-name="Line 183" y2="11.806" fill="none" stroke="#fff" stroke-miterlimit="10" stroke-width="2"/>
      <line id="Line_184" data-name="Line 184" y2="11.806" transform="translate(29.407)" fill="none" stroke="#fff" stroke-miterlimit="10" stroke-width="2"/>
    </g>
    <g id="Group_2084" data-name="Group 2084" transform="translate(4.653 3.681)">
      <line id="Line_185" data-name="Line 185" x1="10.204" y2="5.939" fill="none" stroke="#fff" stroke-miterlimit="10" stroke-width="2"/>
      <line id="Line_186" data-name="Line 186" x1="10.204" y2="5.939" transform="translate(14.792 25.416)" fill="none" stroke="#fff" stroke-miterlimit="10" stroke-width="2"/>
    </g>
    <g id="Group_2085" data-name="Group 2085" transform="translate(4.653 3.681)">
      <line id="Line_187" data-name="Line 187" x2="10.204" y2="5.939" transform="translate(14.792)" fill="none" stroke="#fff" stroke-miterlimit="10" stroke-width="2"/>
      <line id="Line_188" data-name="Line 188" x2="10.204" y2="5.939" transform="translate(0 25.416)" fill="none" stroke="#fff" stroke-miterlimit="10" stroke-width="2"/>
    </g>
  </g>
</svg>
