<svg id="Icon-Modern-Workplace" xmlns="http://www.w3.org/2000/svg" xmlns:xlink="http://www.w3.org/1999/xlink" width="60" height="60" viewBox="0 0 60 60">
  <defs>
    <clipPath id="clip-path">
      <rect id="Rectangle_654" data-name="Rectangle 654" width="38.912" height="32.686" transform="translate(320 1200)"></rect>
    </clipPath>
  </defs>
  <path id="Path_273" data-name="Path 273" d="M114.521,230.126h-4.535a.892.892,0,0,1-.891-.892V180.027a1.79,1.79,0,0,0-1.784-1.791h-50.1a1.794,1.794,0,0,0-1.79,1.791v50.1a1.792,1.792,0,0,0,1.79,1.791h49.2a.894.894,0,0,1,.9.9v4.533a.886.886,0,0,0,.887.89h6.324a.892.892,0,0,0,.9-.89v-6.325a.9.9,0,0,0-.9-.9" transform="translate(-55.418 -178.236)" fill="#768ec7"></path>
  <g id="Group_1538" data-name="Group 1538" transform="translate(7 6.711)">
    <g id="Icon_2" transform="translate(-320 -1195.7)" clip-path="url('#clip-path')">
      <path id="Path_1280" data-name="Path 1280" d="M344.154,1217.006H333V1207h14.9v8.967" transform="translate(-10.109 -5.444)" fill="none" stroke="#fff" stroke-miterlimit="8" stroke-width="2" fill-rule="evenodd"></path>
      <path id="Path_1281" data-name="Path 1281" d="M417,1215.967V1207h14.9v10.006H420.829" transform="translate(-75.432 -5.444)" fill="none" stroke="#fff" stroke-miterlimit="8" stroke-width="2" fill-rule="evenodd"></path>
      <path id="Path_1282" data-name="Path 1282" d="M367,1252v2.446" transform="translate(-36.549 -40.438)" fill="none" stroke="#fff" stroke-miterlimit="8" stroke-width="2" fill-rule="evenodd"></path>
      <path id="Path_1283" data-name="Path 1283" d="M450,1252v2.446" transform="translate(-101.094 -40.438)" fill="none" stroke="#fff" stroke-miterlimit="8" stroke-width="2" fill-rule="evenodd"></path>
      <path id="Path_1284" data-name="Path 1284" d="M354,1263h5.559" transform="translate(-26.44 -48.992)" fill="none" stroke="#fff" stroke-miterlimit="8" stroke-width="2" fill-rule="evenodd"></path>
      <path id="Path_1285" data-name="Path 1285" d="M438,1263h5.559" transform="translate(-91.763 -48.992)" fill="none" stroke="#fff" stroke-miterlimit="8" stroke-width="2" fill-rule="evenodd"></path>
      <path id="Path_1286" data-name="Path 1286" d="M324,1272h11.785" transform="translate(-3.111 -55.034)" fill="none" stroke="#fff" stroke-miterlimit="8" stroke-width="2" fill-rule="evenodd"></path>
      <path id="Path_1287" data-name="Path 1287" d="M336.446,1272,334,1287.342" transform="translate(-10.887 -55.034)" fill="none" stroke="#fff" stroke-miterlimit="8" stroke-width="2" fill-rule="evenodd"></path>
      <path id="Path_1288" data-name="Path 1288" d="M451.785,1272H440" transform="translate(-93.318 -55.034)" fill="none" stroke="#fff" stroke-miterlimit="8" stroke-width="2" fill-rule="evenodd"></path>
      <path id="Path_1289" data-name="Path 1289" d="M472,1272l2.446,15.342" transform="translate(-118.203 -55.034)" fill="none" stroke="#fff" stroke-miterlimit="8" stroke-width="2" fill-rule="evenodd"></path>
      <path id="Path_1290" data-name="Path 1290" d="M389.176,1263.563h-7.233A2.944,2.944,0,0,1,379,1260.62l1.3-7.753a3.433,3.433,0,0,1,3.386-2.866H387.5a3.434,3.434,0,0,1,3.39,2.893l1.231,7.727a2.944,2.944,0,0,1-2.943,2.944Z" transform="translate(-45.881 -38.882)" fill="none" stroke="#fff" stroke-miterlimit="8" stroke-width="2" fill-rule="evenodd"></path>
      <path id="Path_1291" data-name="Path 1291" d="M391.667,1311l-.667,6.671" transform="translate(-55.213 -86.319)" fill="none" stroke="#fff" stroke-miterlimit="8" stroke-width="2" fill-rule="evenodd"></path>
      <path id="Path_1292" data-name="Path 1292" d="M423,1311l.667,6.671" transform="translate(-80.098 -86.319)" fill="none" stroke="#fff" stroke-miterlimit="8" stroke-width="2" fill-rule="evenodd"></path>
    </g>
  </g>
</svg>
