<svg id="Icon-Instantly-View-Desks" xmlns="http://www.w3.org/2000/svg" width="60" height="60" viewBox="0 0 60 60">
  <path id="Path_273" data-name="Path 273" d="M114.521,230.126h-4.535a.892.892,0,0,1-.891-.892V180.027a1.79,1.79,0,0,0-1.784-1.791h-50.1a1.794,1.794,0,0,0-1.79,1.791v50.1a1.792,1.792,0,0,0,1.79,1.791h49.2a.894.894,0,0,1,.9.9v4.533a.886.886,0,0,0,.887.89h6.324a.892.892,0,0,0,.9-.89v-6.325a.9.9,0,0,0-.9-.9" transform="translate(-55.418 -178.236)" fill="#768ec7"></path>
  <g id="Group_2047" data-name="Group 2047" transform="translate(1.5 2.609)">
    <rect id="Rectangle_700" data-name="Rectangle 700" width="30.384" height="20.861" transform="translate(8.766 10.734)" fill="none" stroke="#fff" stroke-miterlimit="10" stroke-width="1.6"></rect>
    <path id="Path_1572" data-name="Path 1572" d="M0,0H14.535V3.776H0Z" transform="translate(16.691 34.112)" fill="none" stroke="#fff" stroke-width="1.6"></path>
    <g id="Group_2066" data-name="Group 2066" transform="translate(20.734 31.54)">
      <line id="Line_191" data-name="Line 191" y2="2.572" transform="translate(0 0)" fill="none" stroke="#fff" stroke-miterlimit="10" stroke-width="1.6"></line>
      <line id="Line_192" data-name="Line 192" y2="2.572" transform="translate(6.449 0)" fill="none" stroke="#fff" stroke-miterlimit="10" stroke-width="1.6"></line>
    </g>
    <path id="Path_1573" data-name="Path 1573" d="M135.551,497.141l-.386,3.561c-.061.582-.129,1.164-.189,1.747a8.141,8.141,0,0,1-.786,2.73,5.757,5.757,0,0,1-8.128,2.17,6.076,6.076,0,0,1-2.155-2.208l-2.336-3.765-1.5-2.419a1.735,1.735,0,0,1,2.313-2.487,1.835,1.835,0,0,1,.582.575l.938,1.513v-7.682a1.775,1.775,0,0,1,.249-.9,1.735,1.735,0,0,1,3.221.9v3.47a1.745,1.745,0,0,1,2.593.772,1.739,1.739,0,0,1,2.019-.166,1.687,1.687,0,0,1,.688.786,1.75,1.75,0,0,1,2.041-.182,1.482,1.482,0,0,1,.174.121A1.779,1.779,0,0,1,135.551,497.141Z" transform="translate(-92.339 -467.14)" fill="#768ec7" stroke="#fff" stroke-miterlimit="10" stroke-width="1.35"></path>
  </g>
</svg>
