<svg xmlns="http://www.w3.org/2000/svg" xmlns:xlink="http://www.w3.org/1999/xlink" width="60.234" height="60.234" viewBox="0 0 60.234 60.234">
  <defs>
    <clipPath id="clip-path">
      <rect id="Rectangle_1067" data-name="Rectangle 1067" width="32" height="35" transform="translate(1055 1978)" fill="#fff" stroke="#fff" stroke-width="1.4"/>
    </clipPath>
  </defs>
  <g id="Icon-Cloudstream-03" transform="translate(-983.89 -1968)">
    <path id="Path_1004" data-name="Path 1004" d="M114.752,230.329H110.2a.9.9,0,0,1-.895-.9v-49.4a1.8,1.8,0,0,0-1.791-1.8h-50.3a1.8,1.8,0,0,0-1.8,1.8v50.294a1.8,1.8,0,0,0,1.8,1.8H106.61a.9.9,0,0,1,.9.9v4.551a.889.889,0,0,0,.891.893h6.348a.9.9,0,0,0,.9-.893v-6.349a.9.9,0,0,0-.9-.9" transform="translate(928.472 1789.764)" fill="#cf142b"/>
    <g id="Mask_Group_72" data-name="Mask Group 72" transform="translate(-60 -1)" clip-path="url(#clip-path)">
      <g id="cost-savings_Icon" transform="translate(1053.131 1977.317)">
        <path id="Path_3064" data-name="Path 3064" d="M27.224,11.653A9.349,9.349,0,1,0,17.875,21,9.363,9.363,0,0,0,27.224,11.653Zm-9.349,8.459a8.459,8.459,0,1,1,8.459-8.459A8.466,8.466,0,0,1,17.875,20.112ZM18.32,11.3V7.439a3.413,3.413,0,0,1,2.066.95.445.445,0,1,0,.6-.659A4.314,4.314,0,0,0,18.32,6.548V5.569a.445.445,0,0,0-.89,0v.979c-1.241.113-2.915.748-2.956,2.588-.047,2.012,1.888,2.63,2.956,2.879V15.88a4.328,4.328,0,0,1-2.481-.974.438.438,0,0,0-.623.077.443.443,0,0,0,.077.623,5.208,5.208,0,0,0,3.033,1.163v.974a.445.445,0,0,0,.89,0v-.979c1.395-.119,2.879-.807,2.992-2.463.137-2.1-1.864-2.731-2.992-3ZM15.364,9.154c.03-1.324,1.324-1.644,2.066-1.721v3.657c-1.146-.3-2.089-.784-2.066-1.941Zm5.057,5.087c-.083,1.241-1.365,1.549-2.1,1.626V12.217C19.454,12.52,20.5,13.007,20.421,14.241Zm10.216-.065a1.933,1.933,0,0,0-1.929,1.929v3.087a1.971,1.971,0,0,0-.457-.107,1.916,1.916,0,0,0-1.413.439L23.449,22.35a5.187,5.187,0,0,0-1.87,3.989V29.61h-.742a.448.448,0,0,0-.445.445v3.562a.448.448,0,0,0,.445.445H30.928a.448.448,0,0,0,.445-.445V30.055a.448.448,0,0,0-.445-.445h-.742V27.953A3.728,3.728,0,0,1,31,25.638l.552-.689a4.639,4.639,0,0,0,1.009-2.873v-5.96a1.933,1.933,0,0,0-1.929-1.929Zm-.148,19h-9.2V30.5h9.2Zm1.187-11.106a3.728,3.728,0,0,1-.813,2.315l-.552.689A4.639,4.639,0,0,0,29.3,27.942V29.6H22.475V26.327a4.286,4.286,0,0,1,1.549-3.306L27.414,20.2a1.04,1.04,0,0,1,1.7.89,1.024,1.024,0,0,1-.368.706l-3.437,2.861a.45.45,0,0,0-.059.629.442.442,0,0,0,.344.16.464.464,0,0,0,.285-.1L29.32,22.48a1.919,1.919,0,0,0,.291-2.659V16.1a1.039,1.039,0,1,1,2.078,0v5.96ZM14.907,29.61h-.742V26.339A5.178,5.178,0,0,0,12.3,22.35L8.906,19.524a1.908,1.908,0,0,0-1.413-.439,1.71,1.71,0,0,0-.457.107V16.105a1.929,1.929,0,1,0-3.858,0v5.96a4.6,4.6,0,0,0,1.009,2.873l.552.695a3.728,3.728,0,0,1,.813,2.315V29.6H4.81a.448.448,0,0,0-.445.445V33.61a.448.448,0,0,0,.445.445H14.9a.448.448,0,0,0,.445-.445V30.049A.448.448,0,0,0,14.9,29.6ZM5.439,25.075l-.552-.695a3.728,3.728,0,0,1-.813-2.315v-5.96a1.039,1.039,0,1,1,2.078,0v3.722a1.88,1.88,0,0,0-.4,1.353,1.911,1.911,0,0,0,.689,1.306l3.437,2.861a.43.43,0,0,0,.285.1.45.45,0,0,0,.344-.16.445.445,0,0,0-.059-.629L7.012,21.8a1.024,1.024,0,0,1-.368-.706,1.036,1.036,0,0,1,.237-.76,1.024,1.024,0,0,1,.706-.368,1.036,1.036,0,0,1,.76.237l3.389,2.826a4.286,4.286,0,0,1,1.549,3.306V29.6H6.46V27.948a4.6,4.6,0,0,0-1.009-2.873Zm9.023,8.1h-9.2V30.5h9.2Z" transform="translate(0)" fill="#fff" stroke="#fff" stroke-width="0.6"/>
      </g>
    </g>
  </g>
</svg>
