<svg xmlns="http://www.w3.org/2000/svg" xmlns:xlink="http://www.w3.org/1999/xlink" width="60" height="60" viewBox="0 0 60 60">
  <defs>
    <clipPath id="clip-path">
      <rect id="Rectangle_459" data-name="Rectangle 459" width="21.029" height="22.084" transform="translate(-2 -1)" fill="none" stroke="#707070" stroke-width="1.2"/>
    </clipPath>
  </defs>
  <g id="Icon-Cloudstream-01" transform="translate(-980.89 -2056.234)">
    <path id="Path_273" data-name="Path 273" d="M114.521,230.126h-4.535a.892.892,0,0,1-.891-.892V180.027a1.79,1.79,0,0,0-1.784-1.791h-50.1a1.794,1.794,0,0,0-1.79,1.791v50.1a1.792,1.792,0,0,0,1.79,1.791h49.2a.894.894,0,0,1,.9.9v4.533a.886.886,0,0,0,.887.89h6.324a.892.892,0,0,0,.9-.89v-6.325a.9.9,0,0,0-.9-.9" transform="translate(925.472 1877.998)" fill="#cf142b"/>
    <path id="Path_984" data-name="Path 984" d="M.51,13.523H.543c0,2.449.029,4.9-.015,7.347a4.714,4.714,0,0,0,.591,2.5c.325.571.618,1.161.962,1.72a29.105,29.105,0,0,0,12.992,11.3.8.8,0,0,0,.765,0,30.632,30.632,0,0,0,14.4-14.064,1.7,1.7,0,0,0,.164-.741c.009-5.4,0-10.807.018-16.21a.591.591,0,0,0-.508-.691C25.24,3.314,20.575,1.925,15.9.561a1.751,1.751,0,0,0-.928,0C10.3,1.927,5.639,3.313.969,4.679A.535.535,0,0,0,.5,5.3C.52,8.042.51,10.782.51,13.523Z" transform="translate(992.89 2064.628)" fill="none" stroke="#fff" stroke-miterlimit="10" stroke-width="2"/>
    <g id="Group_2993" data-name="Group 2993" transform="translate(999.836 2071.124)">
      <g id="Group_2982" data-name="Group 2982" transform="translate(0 0)" clip-path="url(#clip-path)">
        <path id="Path_1088" data-name="Path 1088" d="M15.136,7.209V9.231a1.568,1.568,0,0,0-.267-.025H13.176v-2a4.749,4.749,0,0,0-9.494,0v2H1.9a1.24,1.24,0,0,0-.18.012V7.209a6.708,6.708,0,1,1,13.415,0Z" transform="translate(0.131 0.038)" fill="none" stroke="#fff" stroke-miterlimit="10" stroke-width="1.3"/>
        <path id="Path_1089" data-name="Path 1089" d="M16.453,10.084V17.4a1.493,1.493,0,0,1-1.494,1.492H1.995A1.5,1.5,0,0,1,.5,17.4V10.084A1.494,1.494,0,0,1,1.812,8.6a1.608,1.608,0,0,1,.18-.012H14.959a1.551,1.551,0,0,1,.268.024A1.5,1.5,0,0,1,16.453,10.084Z" transform="translate(0.038 0.655)" fill="none" stroke="#fff" stroke-miterlimit="10" stroke-width="1.4"/>
        <path id="Path_1090" data-name="Path 1090" d="M9.027,13.491v2.363a.6.6,0,0,1-.6.6H7.588a.6.6,0,0,1-.6-.6v-2.33a.485.485,0,0,1,0-.07,1.652,1.652,0,1,1,2.041.037Z" transform="translate(0.486 0.801)" fill="none" stroke="#fff" stroke-miterlimit="10" stroke-width="1.2"/>
      </g>
    </g>
  </g>
</svg>
