<svg id="Icon-Hybrid" xmlns="http://www.w3.org/2000/svg" xmlns:xlink="http://www.w3.org/1999/xlink" width="99.768" height="99.768" viewBox="0 0 99.768 99.768">
  <defs>
    <clipPath id="clip-path">
      <rect id="Rectangle_550" data-name="Rectangle 550" width="63.954" height="63.954" transform="translate(0 0)" fill="#fff"/>
    </clipPath>
  </defs>
  <path id="Ricoh_Ribbon_-_HW" data-name="Ricoh Ribbon - HW" d="M153.694,264.518h-7.541a1.483,1.483,0,0,1-1.482-1.483V181.215a2.976,2.976,0,0,0-2.967-2.979H58.4a2.982,2.982,0,0,0-2.977,2.979v83.3A2.98,2.98,0,0,0,58.4,267.5h81.813a1.487,1.487,0,0,1,1.5,1.489v7.538a1.473,1.473,0,0,0,1.475,1.48h10.515a1.483,1.483,0,0,0,1.492-1.48V266.008a1.491,1.491,0,0,0-1.492-1.489" transform="translate(-55.418 -178.236)" fill="#758cc5"/>
  <g id="hybrid-work" transform="translate(13.27 13.275)" clip-path="url(#clip-path)">
    <g id="Group_1745" data-name="Group 1745" transform="translate(2.303 5.637)">
      <path id="Path_1113" data-name="Path 1113" d="M909.082,374.244l2.042-1.752.876,1.022-2.042,1.751Z" transform="translate(-882.892 -356.203)" fill="#fff" stroke="#fff" stroke-width="0.66"/>
      <path id="Path_1114" data-name="Path 1114" d="M909.082,390.059l.876-1.021L912,390.789l-.876,1.021Z" transform="translate(-882.892 -356.313)" fill="#fff" stroke="#fff" stroke-width="0.66"/>
      <path id="Path_1115" data-name="Path 1115" d="M913.194,393.585l.876-1.021,2.041,1.751-.876,1.021Z" transform="translate(-882.921 -356.337)" fill="#fff" stroke="#fff" stroke-width="0.66"/>
      <path id="Path_1116" data-name="Path 1116" d="M911.153,381.484h2.69v1.345h-2.69Z" transform="translate(-882.907 -356.263)" fill="#fff" stroke="#fff" stroke-width="0.66"/>
      <path id="Path_1117" data-name="Path 1117" d="M921.986,381.484h2.691v1.345h-2.691Z" transform="translate(-882.98 -356.263)" fill="#fff" stroke="#fff" stroke-width="0.66"/>
      <path id="Path_1118" data-name="Path 1118" d="M916.57,381.484h2.69v1.345h-2.69Z" transform="translate(-882.942 -356.263)" fill="#fff" stroke="#fff" stroke-width="0.66"/>
      <path id="Path_1119" data-name="Path 1119" d="M913.194,370.717l2.041-1.751.876,1.021-2.041,1.752Z" transform="translate(-882.921 -356.179)" fill="#fff" stroke="#fff" stroke-width="0.66"/>
      <path id="Path_1120" data-name="Path 1120" d="M905.585,378.8l2.155-1.848-.877-1.021-1.278,1.1V366.9h-2.692v-3.366H886.752V366.9h-2.691V398.5h-1.345v1.346h24.212V398.5h-1.343V387.041l1.278,1.1.877-1.022-2.155-1.848v-2.559h2.688v-1.345h-2.688ZM888.1,364.882h13.45V366.9H888.1Zm8.07,33.615V392.46h-2.691V398.5h-8.071V368.248H904.24V398.5Z" transform="translate(-882.716 -356.143)" fill="#fff" stroke="#fff" stroke-width="0.66"/>
      <path id="Path_1121" data-name="Path 1121" d="M898.966,387.238h2.69v2.69h-2.69Z" transform="translate(-882.827 -356.302)" fill="#fff" stroke="#fff" stroke-width="0.66"/>
      <path id="Path_1122" data-name="Path 1122" d="M888.133,387.238h2.69v2.69h-2.69Z" transform="translate(-882.754 -356.302)" fill="#fff" stroke="#fff" stroke-width="0.66"/>
      <path id="Path_1123" data-name="Path 1123" d="M893.549,387.238h2.691v2.69h-2.691Z" transform="translate(-882.789 -356.302)" fill="#fff" stroke="#fff" stroke-width="0.66"/>
      <path id="Path_1124" data-name="Path 1124" d="M888.133,381.821h2.69v2.691h-2.69Z" transform="translate(-882.754 -356.265)" fill="#fff" stroke="#fff" stroke-width="0.66"/>
      <path id="Path_1125" data-name="Path 1125" d="M893.549,376.4h2.691v2.691h-2.691Z" transform="translate(-882.789 -356.229)" fill="#fff" stroke="#fff" stroke-width="0.66"/>
      <path id="Path_1126" data-name="Path 1126" d="M893.549,381.821h2.691v2.691h-2.691Z" transform="translate(-882.789 -356.265)" fill="#fff" stroke="#fff" stroke-width="0.66"/>
      <path id="Path_1127" data-name="Path 1127" d="M888.133,376.4h2.69v2.691h-2.69Z" transform="translate(-882.754 -356.229)" fill="#fff" stroke="#fff" stroke-width="0.66"/>
      <path id="Path_1128" data-name="Path 1128" d="M898.966,370.988h2.69v2.69h-2.69Z" transform="translate(-882.827 -356.193)" fill="#fff" stroke="#fff" stroke-width="0.66"/>
      <path id="Path_1129" data-name="Path 1129" d="M888.133,392.655h2.69v2.69h-2.69Z" transform="translate(-882.754 -356.338)" fill="#fff" stroke="#fff" stroke-width="0.66"/>
      <path id="Path_1130" data-name="Path 1130" d="M898.966,392.655h2.69v2.69h-2.69Z" transform="translate(-882.827 -356.338)" fill="#fff" stroke="#fff" stroke-width="0.66"/>
      <path id="Path_1131" data-name="Path 1131" d="M888.133,370.988h2.69v2.69h-2.69Z" transform="translate(-882.754 -356.193)" fill="#fff" stroke="#fff" stroke-width="0.66"/>
      <path id="Path_1132" data-name="Path 1132" d="M898.966,376.4h2.69v2.691h-2.69Z" transform="translate(-882.827 -356.229)" fill="#fff" stroke="#fff" stroke-width="0.66"/>
      <path id="Path_1133" data-name="Path 1133" d="M893.549,370.988h2.691v2.69h-2.691Z" transform="translate(-882.789 -356.193)" fill="#fff" stroke="#fff" stroke-width="0.66"/>
      <path id="Path_1134" data-name="Path 1134" d="M898.966,381.821h2.69v2.691h-2.69Z" transform="translate(-882.827 -356.265)" fill="#fff" stroke="#fff" stroke-width="0.66"/>
      <path id="Path_1135" data-name="Path 1135" d="M934.46,374.374a7.734,7.734,0,1,0,7.735,7.735A7.734,7.734,0,0,0,934.46,374.374Zm-3.652,12.969a3.672,3.672,0,0,1,7.306,0A6.353,6.353,0,0,1,930.807,387.344Zm2-6.291a1.649,1.649,0,1,1,1.65,1.65h0A1.652,1.652,0,0,1,932.811,381.053Zm6.459,5.248a5.035,5.035,0,0,0-2.7-3.126,2.995,2.995,0,1,0-4.235-.014l.014.014a5.033,5.033,0,0,0-2.7,3.127,6.39,6.39,0,1,1,9.62,0Z" transform="translate(-883.012 -356.215)" fill="#fff" stroke="#fff" stroke-width="0.66"/>
      <path id="Path_1136" data-name="Path 1136" d="M923.627,371.562a7.734,7.734,0,1,0-7.734-7.734A7.735,7.735,0,0,0,923.627,371.562Zm-3.652-2.5a3.672,3.672,0,0,1,7.306,0A6.353,6.353,0,0,1,919.974,369.062Zm2-6.29a1.649,1.649,0,1,1,1.65,1.649h0A1.65,1.65,0,0,1,921.978,362.772Zm1.649-5.334a6.38,6.38,0,0,1,4.811,10.582,5.034,5.034,0,0,0-2.7-3.126,2.995,2.995,0,1,0-4.234-.014l.013.014a5.035,5.035,0,0,0-2.7,3.126,6.38,6.38,0,0,1,4.81-10.582Z" transform="translate(-882.939 -356.093)" fill="#fff" stroke="#fff" stroke-width="0.66"/>
      <path id="Path_1137" data-name="Path 1137" d="M923.627,392.656a7.734,7.734,0,1,0,7.735,7.734A7.734,7.734,0,0,0,923.627,392.656Zm-3.652,12.969a3.672,3.672,0,0,1,7.306,0A6.353,6.353,0,0,1,919.974,405.625Zm2-6.29a1.649,1.649,0,1,1,1.65,1.649h0A1.651,1.651,0,0,1,921.978,399.335Zm6.459,5.247a5.037,5.037,0,0,0-2.7-3.126,2.995,2.995,0,1,0-4.234-.013l.013.013a5.035,5.035,0,0,0-2.7,3.127,6.389,6.389,0,1,1,9.62,0Z" transform="translate(-882.939 -356.338)" fill="#fff" stroke="#fff" stroke-width="0.66"/>
    </g>
  </g>
</svg>
