<svg id="Icon-Ways-of-Work" xmlns="http://www.w3.org/2000/svg" xmlns:xlink="http://www.w3.org/1999/xlink" width="99.947" height="99.947" viewBox="0 0 99.947 99.947">
  <defs>
    <clipPath id="clip-path">
      <rect id="Rectangle" width="65.278" height="64.07" transform="translate(0 0)" fill="#fff"/>
    </clipPath>
  </defs>
  <path id="Ricoh_Ribbon_-_HW" data-name="Ricoh Ribbon - HW" d="M153.871,264.674h-7.555a1.486,1.486,0,0,1-1.485-1.486V181.22a2.981,2.981,0,0,0-2.973-2.984H58.4a2.988,2.988,0,0,0-2.982,2.984v83.454a2.986,2.986,0,0,0,2.982,2.984h81.961a1.49,1.49,0,0,1,1.5,1.492V276.7a1.475,1.475,0,0,0,1.478,1.482h10.534a1.485,1.485,0,0,0,1.495-1.482V266.166a1.493,1.493,0,0,0-1.495-1.492" transform="translate(-55.418 -178.236)" fill="#758cc5"/>
  <g id="ways-of-working" transform="translate(13.297 12.09)" clip-path="url(#clip-path)">
    <g id="ways-of-working-2" data-name="ways-of-working" transform="translate(5.985 11.918)">
      <path id="Path_1100" data-name="Path 1100" d="M33.724,22.838c.2,0,.389.011.58.029V12.779H53.389v11.4H37.565a6.13,6.13,0,0,1,1.248,1.341h4.353V28.2H39.852l.292,1.341h7.791V28.2H44.528V25.521H54.07a.676.676,0,0,0,.682-.67h0V12.109a.676.676,0,0,0-.681-.671H33.623a.676.676,0,0,0-.682.67h0V22.838Z" transform="translate(-4.316 -11.438)" fill="#fff" stroke="#fff" stroke-width="0.641"/>
      <path id="Path_1101" data-name="Path 1101" d="M9.081,25.521h9.542V28.2H15.214v1.341h7.793L23.3,28.2H19.986V25.521h4.352a6.132,6.132,0,0,1,1.248-1.341H9.763v-11.4H28.847V22.867c.191-.018.384-.029.58-.029h.783V12.109a.676.676,0,0,0-.681-.671H9.081a.676.676,0,0,0-.682.67h0V24.85a.676.676,0,0,0,.681.671Z" transform="translate(-5.673 -11.438)" fill="#fff" stroke="#fff" stroke-width="0.641"/>
      <path id="Path_1102" data-name="Path 1102" d="M22.858,29.865H6.5a.671.671,0,1,0,0,1.341h5.338L8.58,51.707H9.959l3.256-20.5h9.351Z" transform="translate(-5.816 -10.418)" fill="#fff" stroke="#fff" stroke-width="0.641"/>
      <path id="Path_1103" data-name="Path 1103" d="M56.4,29.865H40.043l.292,1.341h9.351l3.256,20.5h1.379l-3.256-20.5H56.4a.671.671,0,1,0,0-1.341Z" transform="translate(-3.921 -10.418)" fill="#fff" stroke="#fff" stroke-width="0.641"/>
      <path id="Path_1104" data-name="Path 1104" d="M26.276,43.624l-1.115,8.435h1.375l1.114-8.43H35.4l1.114,8.43h1.375l-1.115-8.435a4.725,4.725,0,0,0,4.687-4.765,4.618,4.618,0,0,0-.106-.909L39.018,27.222a4.779,4.779,0,0,0-4.665-3.711H28.7a4.779,4.779,0,0,0-4.665,3.711L21.694,37.951a4.69,4.69,0,0,0,3.658,5.569A4.839,4.839,0,0,0,26.276,43.624Zm-3.248-5.392L25.365,27.5A3.412,3.412,0,0,1,28.7,24.852h5.656A3.413,3.413,0,0,1,37.685,27.5l2.337,10.729A3.353,3.353,0,0,1,37.4,42.213a3.462,3.462,0,0,1-.714.074H26.36a3.38,3.38,0,0,1-3.408-3.352A3.3,3.3,0,0,1,23.028,38.233Z" transform="translate(-4.945 -10.769)" fill="#fff" stroke="#fff" stroke-width="0.641"/>
    </g>
  </g>
</svg>
