<svg id="Icon_Battery-Life" xmlns="http://www.w3.org/2000/svg" width="60.146" height="60.146" viewBox="0 0 60.146 60.146">
  <path id="Path_273" data-name="Path 273" d="M114.664,230.252h-4.546a.894.894,0,0,1-.893-.894V180.032a1.794,1.794,0,0,0-1.789-1.8H57.213a1.8,1.8,0,0,0-1.795,1.8v50.22a1.8,1.8,0,0,0,1.795,1.8h49.322a.9.9,0,0,1,.9.9v4.544a.888.888,0,0,0,.889.892h6.339a.894.894,0,0,0,.9-.892v-6.34a.9.9,0,0,0-.9-.9" transform="translate(-55.418 -178.236)" fill="#768ec7"/>
  <g id="Group_2021" data-name="Group 2021" transform="translate(-157 -570.588)">
    <path id="Path_1541" data-name="Path 1541" d="M192.839,592.11l-9.485,9.491h9.53l-9.568,9.568" transform="translate(-3.953 -3.749)" fill="none" stroke="#fff" stroke-miterlimit="10" stroke-width="2"/>
    <path id="Path_1542" data-name="Path 1542" d="M194.238,615.64H179.447a1.4,1.4,0,0,1-1.4-1.4v-28a1.4,1.4,0,0,1,1.4-1.4h14.791a1.4,1.4,0,0,1,1.4,1.4v27.991A1.4,1.4,0,0,1,194.238,615.64Z" transform="translate(-2.696 -2.015)" fill="none" stroke="#fff" stroke-miterlimit="10" stroke-width="2"/>
    <path id="Path_1543" data-name="Path 1543" d="M193.341,583.956h-10.9v-1.373a1.463,1.463,0,0,1,1.463-1.463h8.047a1.391,1.391,0,0,1,1.392,1.392Z" transform="translate(-3.744 -1.126)" fill="none" stroke="#fff" stroke-miterlimit="10" stroke-width="2"/>
  </g>
</svg>
