<svg id="Icon_Low-Cost" xmlns="http://www.w3.org/2000/svg" width="60" height="60" viewBox="0 0 60 60">
  <path id="Path_273" data-name="Path 273" d="M114.521,230.126h-4.535a.892.892,0,0,1-.891-.892V180.027a1.79,1.79,0,0,0-1.784-1.791h-50.1a1.794,1.794,0,0,0-1.79,1.791v50.1a1.792,1.792,0,0,0,1.79,1.791h49.2a.894.894,0,0,1,.9.9v4.533a.886.886,0,0,0,.887.89h6.324a.892.892,0,0,0,.9-.89v-6.325a.9.9,0,0,0-.9-.9" transform="translate(-55.418 -178.236)" fill="#768ec7"></path>
  <g id="Group_1537" data-name="Group 1537" transform="translate(10.583 8.666)">
    <text id="_" data-name="$" transform="translate(6.916 30.334)" fill="#fff" font-size="36" font-family="Helvetica"><tspan x="0" y="0">$</tspan></text>
  </g>
</svg>
