<svg xmlns="http://www.w3.org/2000/svg" xmlns:xlink="http://www.w3.org/1999/xlink" width="60.23" height="60.23" viewBox="0 0 60.23 60.23">
  <defs>
    <clipPath id="clip-Icon_Dynamics-365_1">
      <rect width="60.23" height="60.23"/>
    </clipPath>
  </defs>
  <g id="Icon_Dynamics-365_1" data-name="Icon_Dynamics-365 – 1" clip-path="url(#clip-Icon_Dynamics-365_1)">
    <rect width="60.23" height="60.23" fill="#fff"/>
    <g id="Group_1967" data-name="Group 1967" transform="translate(-851.266 -2563.77)">
      <path id="Path_1004" data-name="Path 1004" d="M114.752,230.329H110.2a.9.9,0,0,1-.895-.9v-49.4a1.8,1.8,0,0,0-1.791-1.8h-50.3a1.8,1.8,0,0,0-1.8,1.8v50.294a1.8,1.8,0,0,0,1.8,1.8H106.61a.9.9,0,0,1,.9.9v4.551a.889.889,0,0,0,.891.893h6.348a.9.9,0,0,0,.9-.893v-6.349a.9.9,0,0,0-.9-.9" transform="translate(795.848 2385.53)" fill="#8fc740"/>
      <path id="Article_5_Icons_2" data-name="Article 5 Icons_2" d="M364.886,345.53v2.487l3.807,3.684m4.2-5.014v3.1l-4.186,4.605m-.01,5.393V341.294M384.626,354.3l-2.159-8.064c-.1-18.492-27.467-18.379-27.467.113,0,9.353,7.1,7.2,8.791,19.884a.565.565,0,0,0,.522.481h11.84a.5.5,0,0,0,.522-.532v-5.864h4.012a.526.526,0,0,0,.522-.532V355h3a.459.459,0,0,0,.42-.215A.531.531,0,0,0,384.626,354.3Zm-10.6-8.77a1.146,1.146,0,1,1-1.146-1.156,1.147,1.147,0,0,1,1.146,1.156m-7.992-1.156a1.146,1.146,0,1,1-1.146-1.156,1.153,1.153,0,0,1,1.146,1.156m3.807-4.247a1.146,1.146,0,1,1-1.146-1.156,1.147,1.147,0,0,1,1.146,1.156" transform="translate(508.519 2240.776)" fill="none" stroke="#fff" stroke-miterlimit="8" stroke-width="1.6"/>
    </g>
  </g>
</svg>
