<svg xmlns="http://www.w3.org/2000/svg" xmlns:xlink="http://www.w3.org/1999/xlink" width="60.23" height="60.23" viewBox="0 0 60.23 60.23"><defs><clipPath id="b"><rect width="60.23" height="60.23"/></clipPath></defs><g id="a" clip-path="url(#b)"><rect width="60.23" height="60.23" fill="#fff"/><g transform="translate(-851.266 -2563.77)"><path d="M114.752,230.329H110.2a.9.9,0,0,1-.895-.9v-49.4a1.8,1.8,0,0,0-1.791-1.8h-50.3a1.8,1.8,0,0,0-1.8,1.8v50.294a1.8,1.8,0,0,0,1.8,1.8H106.61a.9.9,0,0,1,.9.9v4.551a.889.889,0,0,0,.891.893h6.348a.9.9,0,0,0,.9-.893v-6.349a.9.9,0,0,0-.9-.9" transform="translate(795.848 2385.53)" fill="#8fc740"/><path d="M376.153,367.514h-11.84a1.36,1.36,0,0,1-1.307-1.13l-.007-.046c-.842-6.322-3.074-8.806-5.044-11-1.93-2.148-3.754-4.177-3.754-8.992a14.356,14.356,0,0,1,4.566-11.035,14.063,14.063,0,0,1,4.671-2.771,15.647,15.647,0,0,1,5.321-.919,14.8,14.8,0,0,1,9.932,3.654,14.307,14.307,0,0,1,4.576,10.85l2.127,7.943a1.286,1.286,0,0,1-.088,1.135,1.247,1.247,0,0,1-1.1.591h-2.2v3.989a1.329,1.329,0,0,1-1.322,1.332h-3.211v5.064A1.3,1.3,0,0,1,376.153,367.514Zm-11.6-1.6h11.32v-6.4h4.533V354.2h3.362l-2.1-7.852v-.1a12.78,12.78,0,0,0-4.045-9.772,13.2,13.2,0,0,0-8.864-3.245,14.052,14.052,0,0,0-4.779.824,12.471,12.471,0,0,0-4.143,2.455,12.8,12.8,0,0,0-4.036,9.846c0,4.2,1.476,5.844,3.344,7.922a21.216,21.216,0,0,1,3.167,4.256A21.661,21.661,0,0,1,364.554,365.914Zm4.74-10.983-1.184-1.076,4.186-4.605,1.184,1.076Zm-1.159-2.655-3.807-3.684,1.113-1.15,3.807,3.684Zm4.742-4.789a1.956,1.956,0,1,1,1.946-1.956A1.953,1.953,0,0,1,372.878,347.487Zm0-2.313a.357.357,0,0,0,0,.713.357.357,0,0,0,0-.713Zm-7.992,1.156a1.956,1.956,0,1,1,1.946-1.956A1.953,1.953,0,0,1,364.886,346.33Zm0-2.313a.348.348,0,0,0-.346.356.346.346,0,1,0,.346-.356Zm3.807-1.934a1.956,1.956,0,1,1,1.946-1.956A1.953,1.953,0,0,1,368.692,342.084Zm0-2.313a.348.348,0,0,0-.346.356.352.352,0,0,0,.346.356.348.348,0,0,0,.346-.356A.352.352,0,0,0,368.692,339.771Z" transform="translate(508.519 2240.776)" fill="#fff"/></g></g></svg>