<svg xmlns="http://www.w3.org/2000/svg" xmlns:xlink="http://www.w3.org/1999/xlink" width="60.23" height="60.23" viewBox="0 0 60.23 60.23"><defs><clipPath id="b"><rect width="60.23" height="60.23"/></clipPath></defs><g id="a" clip-path="url(#b)"><rect width="60.23" height="60.23" fill="#fff"/><g transform="translate(-851.27 -2563.766)"><path d="M114.752,230.329H110.2a.9.9,0,0,1-.895-.9v-49.4a1.8,1.8,0,0,0-1.791-1.8h-50.3a1.8,1.8,0,0,0-1.8,1.8v50.294a1.8,1.8,0,0,0,1.8,1.8H106.61a.9.9,0,0,1,.9.9v4.551a.889.889,0,0,0,.891.893h6.348a.9.9,0,0,0,.9-.893v-6.349a.9.9,0,0,0-.9-.9" transform="translate(795.848 2385.53)" fill="#8fc740"/><path d="M329.781,306.766l2.621,2.921-1.191,1.069-2.621-2.921Zm-14.29,5.577,4.091.15-.059,1.6-4.091-.15Zm26.62.764,1.6.07-.18,4.091-1.6-.07Zm-15.351,2.146h4.165l.649,2.5a8.7,8.7,0,0,1,1.624.67l2.187-1.365,2.946,2.96-1.31,2.226a9.384,9.384,0,0,1,.668,1.61l2.52.587V328.6l-2.49.66a9,9,0,0,1-.674,1.627l1.345,2.188-2.945,2.945-2.227-1.311a9.383,9.383,0,0,1-1.61.668l-.587,2.52h-4.165l-.649-2.5a9.057,9.057,0,0,1-1.614-.67l-2.187,1.355-2.947-2.947,1.311-2.227a9.384,9.384,0,0,1-.668-1.61l-2.52-.587v-4.185l2.5-.649a9.059,9.059,0,0,1,.67-1.614l-1.355-2.187,2.948-2.948,2.217,1.311a9.385,9.385,0,0,1,1.609-.667Zm2.927,1.6H328.03l-.516,2.215-.47.12a7.79,7.79,0,0,0-2.078.861l-.409.245-1.957-1.157-1.174,1.174,1.193,1.926-.251.418a7.466,7.466,0,0,0-.859,2.069l-.113.465-2.215.575v1.677l2.215.516.12.47a7.789,7.789,0,0,0,.861,2.078l.245.408-1.157,1.967,1.175,1.175,1.927-1.193.418.251a7.462,7.462,0,0,0,2.069.859l.465.113.575,2.215h1.657l.516-2.215.47-.12a7.785,7.785,0,0,0,2.077-.861l.408-.245,1.967,1.158,1.176-1.176-1.182-1.924.246-.415a7.494,7.494,0,0,0,.861-2.081l.112-.464,2.207-.585v-1.66l-2.215-.516-.12-.47a7.789,7.789,0,0,0-.861-2.078l-.245-.408,1.158-1.968-1.175-1.181-1.927,1.2-.421-.255a7.2,7.2,0,0,0-2.074-.857l-.466-.112Zm-.5,4.252A5.181,5.181,0,1,1,324,326.286,5.187,5.187,0,0,1,329.186,321.1Zm0,8.763a3.581,3.581,0,1,0-3.581-3.581A3.585,3.585,0,0,0,329.186,329.867Zm-16.6-6.808,1.069,1.191-2.921,2.621-1.069-1.191Zm35.019,2.951,1.131,1.131-2.921,2.921-1.131-1.131Zm-32.764,9.873,1.6.07-.18,4.091-1.6-.07Zm24.017,3.147,3.5.18-.082,1.6-3.5-.18Zm-11.7,3.366,2.621,2.921-1.191,1.069-2.621-2.921Z" transform="translate(549.205 2265.001)" fill="#fff"/></g></g></svg>