<svg xmlns="http://www.w3.org/2000/svg" xmlns:xlink="http://www.w3.org/1999/xlink" width="60.23" height="60.23" viewBox="0 0 60.23 60.23"><defs><clipPath id="b"><rect width="60.23" height="60.23"/></clipPath></defs><g id="a" clip-path="url(#b)"><rect width="60.23" height="60.23" fill="#fff"/><g transform="translate(-851.266 -2563.766)"><path d="M114.752,230.329H110.2a.9.9,0,0,1-.895-.9v-49.4a1.8,1.8,0,0,0-1.791-1.8h-50.3a1.8,1.8,0,0,0-1.8,1.8v50.294a1.8,1.8,0,0,0,1.8,1.8H106.61a.9.9,0,0,1,.9.9v4.551a.889.889,0,0,0,.891.893h6.348a.9.9,0,0,0,.9-.893v-6.349a.9.9,0,0,0-.9-.9" transform="translate(795.848 2385.53)" fill="#8fc740"/><path d="M363.735,369.283h0a1.53,1.53,0,0,1-.8-.226l-8.025-4.882a1.484,1.484,0,0,1-.73-1.278,1.5,1.5,0,0,1,.719-1.271l.011-.007,8.028-4.884a1.527,1.527,0,0,1,.76-.224,1.483,1.483,0,0,1,1.107.417,1.465,1.465,0,0,1,.473,1.074v9.778a1.479,1.479,0,0,1-.82,1.331A1.616,1.616,0,0,1,363.735,369.283Zm-7.851-6.386,7.789,4.739v-9.477Zm-23.49,5.8a6.119,6.119,0,1,1,4.312-1.791A6.1,6.1,0,0,1,332.394,368.7Zm0-10.589A4.484,4.484,0,1,0,336.9,362.6,4.5,4.5,0,0,0,332.394,358.111Zm13.031,3.35a.8.8,0,0,1-.734-.482c-.372-.859-.728-1.663-1.061-2.4a6.149,6.149,0,0,1-2.733-2.016,5.884,5.884,0,0,1-1.221-3.6,3.157,3.157,0,0,1,.085-.81,1.053,1.053,0,0,1,1.009-.862c.658,0,1.183.632,1.769,1.58a44.5,44.5,0,0,1,2.244,4.383,4.61,4.61,0,0,0,.987.106,4.541,4.541,0,0,0,2.14-.532.8.8,0,0,1,.968,1.246l-2.863,3.123A.8.8,0,0,1,345.425,361.46Zm.128-2.5.112.254.23-.251C345.782,358.965,345.667,358.964,345.553,358.96Zm-4.109-4.8a4.33,4.33,0,0,0,.725,1.433q.053.07.11.138C341.946,355.071,341.67,354.558,341.444,354.163Zm9.317.592c-.593,0-1.1-.469-1.821-1.673a45.8,45.8,0,0,1-2.281-4.663,4.27,4.27,0,0,0-.8-.076,4.215,4.215,0,0,0-2.175.591.8.8,0,0,1-1.008-1.217l2.82-3.209a.8.8,0,0,1,1.341.224c.345.838.676,1.627.988,2.35a6.238,6.238,0,0,1,4.064,5.9,3.445,3.445,0,0,1-.093.882A1.066,1.066,0,0,1,350.761,354.754ZM349,349.715c.51,1.085.9,1.835,1.2,2.354A4.722,4.722,0,0,0,349,349.715Zm1.361-6.666h-8.6a1.526,1.526,0,0,1-1.524-1.524v-8.6a1.526,1.526,0,0,1,1.524-1.524h8.6a1.526,1.526,0,0,1,1.524,1.524v8.6a1.544,1.544,0,0,1-1.5,1.524Zm-8.525-1.6h8.449V333h-8.449Z" transform="translate(531.333 2239.841)" fill="#fff"/></g></g></svg>