<svg xmlns="http://www.w3.org/2000/svg" xmlns:xlink="http://www.w3.org/1999/xlink" width="60.23" height="60.23" viewBox="0 0 60.23 60.23"><defs><clipPath id="b"><rect width="60.23" height="60.23"/></clipPath></defs><g id="a" clip-path="url(#b)"><rect width="60.23" height="60.23" fill="#fff"/><g transform="translate(-851.266 -2563.766)"><path d="M114.752,230.329H110.2a.9.9,0,0,1-.895-.9v-49.4a1.8,1.8,0,0,0-1.791-1.8h-50.3a1.8,1.8,0,0,0-1.8,1.8v50.294a1.8,1.8,0,0,0,1.8,1.8H106.61a.9.9,0,0,1,.9.9v4.551a.889.889,0,0,0,.891.893h6.348a.9.9,0,0,0,.9-.893v-6.349a.9.9,0,0,0-.9-.9" transform="translate(795.848 2385.53)" fill="#8fc740"/><path d="M362.535,377.619H338.264a.8.8,0,0,1-.8-.8,13,13,0,0,1,.543-3.672l0-.013a12.64,12.64,0,0,1,2.971-5.014c.25-.262.524-.524.794-.757a12.687,12.687,0,0,1,3.339-2.114,13.473,13.473,0,0,1,1.361-.511,8.346,8.346,0,0,1-1.357-.948c-.04-.032-.073-.062-.1-.086s-.032-.029-.05-.043l-.042-.036a8.125,8.125,0,0,1-2.625-5.96,8.04,8.04,0,0,1,1.292-4.383,8.126,8.126,0,0,1,3.355-2.931,8.231,8.231,0,0,1,2.553-.72,6.791,6.791,0,0,1,.9-.052,8.105,8.105,0,0,1,8.074,8.086,7.982,7.982,0,0,1-2.627,5.962l-.034.029-.018.017a1.475,1.475,0,0,1-.163.139l-.012.011a.8.8,0,0,1-.146.147,8.085,8.085,0,0,1-.852.578q-.159.1-.322.188a13.138,13.138,0,0,1,5.516,3.393l0,0a12.65,12.65,0,0,1,2.97,5.014l0,.01a12.831,12.831,0,0,1,.544,3.663A.8.8,0,0,1,362.535,377.619Zm-23.441-1.6H361.7a11.409,11.409,0,0,0-.446-2.4,11.064,11.064,0,0,0-2.6-4.378,11.522,11.522,0,0,0-3.612-2.515,11.39,11.39,0,0,0-4.641-.975H350.4c-.247,0-.5.011-.759.022H349.6c-.029,0-.069,0-.082,0a.73.73,0,0,1-.106.01q-.037.007-.076.009c-.062,0-.127.013-.2.021s-.117.014-.18.02c-.04.007-.073.011-.1.014h-.006a1.261,1.261,0,0,1-.138.022h0a1.408,1.408,0,0,1-.148.023c-.074.018-.159.039-.255.054a1.16,1.16,0,0,1-.169.037h0q-.035.008-.07.012a1.748,1.748,0,0,0-.2.04.8.8,0,0,1-.095.018,1.209,1.209,0,0,0-.121.027l-.051.013-.055.012a.8.8,0,0,1-.273.058,11.666,11.666,0,0,0-1.529.548l0,0a11.09,11.09,0,0,0-2.922,1.851l0,0c-.233.2-.47.427-.686.654l-.006.006a11.032,11.032,0,0,0-2.592,4.374A11.641,11.641,0,0,0,339.094,376.019Zm6.9-13.588c.034.028.064.055.088.077s.032.029.05.043l.022.018a6.378,6.378,0,0,0,3.525,1.54l.017,0a4.7,4.7,0,0,0,.558.038,7.238,7.238,0,0,0,3.534-.968,6.521,6.521,0,0,0,.834-.612.8.8,0,0,1,.063-.049l0,0c.024-.023.054-.052.093-.084a6.4,6.4,0,0,0,2.092-4.768,6.5,6.5,0,0,0-6.477-6.486,5.232,5.232,0,0,0-.695.04l-.013,0a6.63,6.63,0,0,0-2.061.579,6.525,6.525,0,0,0-2.693,2.353,6.443,6.443,0,0,0-1.034,3.513A6.521,6.521,0,0,0,345.993,362.431Zm-7.033,6.544H324.1a3.9,3.9,0,0,1-3.9-3.9V342.7a3.9,3.9,0,0,1,3.9-3.9h22.392a3.9,3.9,0,0,1,3.886,3.911v5.2a.8.8,0,0,1-.732.8,8.987,8.987,0,0,0-2.152.447.8.8,0,0,1-1.06-.757v-.407h-22.3v16.731h17.415a.8.8,0,0,1,.5,1.425,13.642,13.642,0,0,0-2.444,2.509A.8.8,0,0,1,338.96,368.975ZM324.1,340.4a2.3,2.3,0,0,0-2.3,2.3v22.38a2.3,2.3,0,0,0,2.3,2.3h14.467q.431-.545.92-1.057H323.332a.8.8,0,0,1-.8-.8V347.188a.8.8,0,0,1,.8-.8h23.9a.8.8,0,0,1,.8.8v.15q.367-.083.744-.141V342.7a2.3,2.3,0,0,0-2.286-2.3Zm12.542,22.647H326.395a.8.8,0,0,1-.8-.8v-2.692a.8.8,0,0,1,.8-.8h10.244a.8.8,0,0,1,.8.8v2.692A.8.8,0,0,1,336.639,363.047Zm-9.444-1.6h8.645v-1.092h-8.645Zm9.444-2.983H326.395a.8.8,0,0,1-.8-.8v-2.651a.8.8,0,0,1,.8-.8h10.244a.8.8,0,0,1,.8.8v2.651A.8.8,0,0,1,336.639,358.464Zm-9.444-1.6h8.645v-1.051h-8.645Zm9.444-2.971H326.395a.8.8,0,0,1-.8-.8v-2.7a.8.8,0,0,1,.8-.8h10.244a.8.8,0,0,1,.8.8v2.7A.8.8,0,0,1,336.639,353.893Zm-9.444-1.6h8.645v-1.1h-8.645Zm18.482-6.405a2.256,2.256,0,1,1,2.262-2.25A2.259,2.259,0,0,1,345.677,345.888Zm0-2.912a.656.656,0,1,0,.662.662A.655.655,0,0,0,345.677,342.976Zm-4.56,2.912a2.268,2.268,0,1,1,2.262-2.262A2.264,2.264,0,0,1,341.118,345.888Zm0-2.935a.677.677,0,0,0-.662.673.662.662,0,1,0,1.324,0A.677.677,0,0,0,341.118,342.952Z" transform="translate(536.266 2233.021)" fill="#fff"/></g></g></svg>