<?xml version="1.0" encoding="utf-8"?>
<!-- Generator: Adobe Illustrator 27.1.1, SVG Export Plug-In . SVG Version: 6.00 Build 0)  -->
<svg version="1.1" id="Layer_1" xmlns="http://www.w3.org/2000/svg" xmlns:xlink="http://www.w3.org/1999/xlink" x="0px" y="0px" viewBox="0 0 60.2 60.2" style="enable-background: new 0 0 60.2 60.2" xml:space="preserve">
<style>.st0 {
  clip-path: url("#SVGID_00000109028949557930660660000006062984345050937512_");
}

.st1 {
  fill: #8fc740;
}

.st2 {
  fill: #fff;
}

</style>
<g>
	<defs>
		<rect id="SVGID_1_" width="60.2" height="60.2"></rect>
	</defs>
	<clipPath id="SVGID_00000158716538356520295330000005508018125492609968_">
		<use xlink:href="#SVGID_1_" style="overflow: visible"></use>
	</clipPath>
	<g id="a" style="clip-path: url(&quot;#SVGID_00000158716538356520295330000005508018125492609968_&quot;)">
		<g transform="translate(-851.27)">
			<path class="st1" d="M910.6,52.1H906c-0.5,0-0.9-0.4-0.9-0.9V1.8c0-1-0.8-1.8-1.8-1.8h-50.3c-1,0-1.8,0.8-1.8,1.8l0,0v50.3
				c0,1,0.8,1.8,1.8,1.8c0,0,0,0,0,0h49.4c0.5,0,0.9,0.4,0.9,0.9v4.6c0,0.5,0.4,0.9,0.9,0.9c0,0,0,0,0,0h6.3c0.5,0,0.9-0.4,0.9-0.9
				V53C911.5,52.5,911.1,52.1,910.6,52.1"></path>
			<g transform="translate(861.923 7.551)">
				<path class="st2" d="M28.1,3.9H4v30.2h24.1V3.9z M26.9,32.9H5.2V5.1h21.7L26.9,32.9z"></path>
				<path class="st2" d="M3.8,3.7h24.6v30.7H3.8V3.7z M27.8,4.2H4.3v29.7h23.6V4.2z M5,4.9h22.2v28.3H5V4.9z M26.7,5.4H5.5v27.3
					h21.2V5.4z"></path>
				<path class="st2" d="M1.2,1.2h5.5V0H0v6.7h1.2V1.2z"></path>
				<path class="st2" d="M-0.3-0.2h7.2v1.7H1.4v5.5h-1.7V-0.2z M6.4,0.3H0.2v6.2h0.7V0.9h5.5L6.4,0.3z"></path>
				<path class="st2" d="M0,38.4h6.7v-1.2H1.2v-5.5H0V38.4z"></path>
				<path class="st2" d="M6.9,38.7h-7.2v-7.2h1.7V37h5.5L6.9,38.7z M0.2,38.2h6.2v-0.7H0.9V32H0.2L0.2,38.2z"></path>
				<path class="st2" d="M32.2,31.8H31v5.5h-5.5v1.2h6.7L32.2,31.8z"></path>
				<path class="st2" d="M30.7,31.5h1.7v7.2h-7.2V37h5.5L30.7,31.5z M31.9,32h-0.7v5.5h-5.5v0.7h6.2L31.9,32z"></path>
				<path class="st2" d="M32.2,0h-6.7v1.2H31v5.5h1.2L32.2,0z"></path>
				<path class="st2" d="M25.2-0.2h7.2v7.2h-1.7V1.4h-5.5V-0.2z M31.9,0.3h-6.2v0.7h5.5v5.5h0.7V0.3z"></path>
				<path class="st2" d="M15.5,13.3v15.3h1.2V13.3l5.8,5.8l0.8-0.8l-7.2-7.2l-7.2,7.2l0.8,0.8L15.5,13.3z"></path>
				<path class="st2" d="M16.1,10.7l7.5,7.5l-1.2,1.2L17,13.9v14.9h-1.7V13.9l-5.5,5.5l-1.2-1.2L16.1,10.7z M23,18.2l-6.8-6.8
					l-6.8,6.8l0.5,0.5l6-6v15.6h0.7V12.7l6,6L23,18.2z"></path>
			</g>
		</g>
	</g>
</g>
</svg>
