<?xml version="1.0" encoding="utf-8"?>
<!-- Generator: Adobe Illustrator 27.1.1, SVG Export Plug-In . SVG Version: 6.00 Build 0)  -->
<svg version="1.1" id="Layer_1" xmlns="http://www.w3.org/2000/svg" xmlns:xlink="http://www.w3.org/1999/xlink" x="0px" y="0px" viewBox="0 0 60.2 60.2" style="enable-background: new 0 0 60.2 60.2" xml:space="preserve">
<style>.st0 {
  clip-path: url("#SVGID_00000011000186750986657240000011907873055860490639_");
}

.st1 {
  fill: #8fc740;
}

.st2 {
  fill: #fff;
}

</style>
<g>
	<defs>
		<rect id="SVGID_1_" width="60.2" height="60.2"></rect>
	</defs>
	<clipPath id="SVGID_00000181784779609140245860000016124496827991186102_">
		<use xlink:href="#SVGID_1_" style="overflow: visible"></use>
	</clipPath>
	<g id="a" style="clip-path: url(&quot;#SVGID_00000181784779609140245860000016124496827991186102_&quot;)">
		<g transform="translate(-851.27 -0.004)">
			<path class="st1" d="M910.6,52.1H906c-0.5,0-0.9-0.4-0.9-0.9V1.8c0-1-0.8-1.8-1.8-1.8h-50.3c-1,0-1.8,0.8-1.8,1.8l0,0v50.3
				c0,1,0.8,1.8,1.8,1.8c0,0,0,0,0,0h49.4c0.5,0,0.9,0.4,0.9,0.9v4.6c0,0.5,0.4,0.9,0.9,0.9c0,0,0,0,0,0h6.3c0.5,0,0.9-0.4,0.9-0.9
				V53C911.5,52.5,911.1,52.1,910.6,52.1"></path>
			<g transform="translate(860.09 12.99)">
				<rect x="13.5" y="12.6" class="st2" width="5.3" height="1"></rect>
				<path class="st2" d="M13.2,12.4H19v1.5h-5.8V12.4z M18.5,12.9h-4.8v0.5h4.8V12.9z"></path>
				<rect x="20.4" y="12.6" class="st2" width="1" height="1"></rect>
				<path class="st2" d="M20.2,12.4h1.5v1.5h-1.5V12.4z M21.2,12.9h-0.5v0.5h0.5V12.9z"></path>
				<rect x="22.7" y="12.6" class="st2" width="1" height="1"></rect>
				<path class="st2" d="M22.5,12.4H24v1.5h-1.5V12.4z M23.5,12.9H23v0.5h0.5V12.9z"></path>
				<rect x="13.5" y="17.2" class="st2" width="5.3" height="1"></rect>
				<path class="st2" d="M13.2,17H19v1.5h-5.8V17z M18.5,17.5h-4.8V18h4.8V17.5z"></path>
				<rect x="20.4" y="17.2" class="st2" width="1" height="1"></rect>
				<path class="st2" d="M20.2,17h1.5v1.5h-1.5V17z M21.2,17.5h-0.5V18h0.5V17.5z"></path>
				<rect x="22.7" y="17.2" class="st2" width="1" height="1"></rect>
				<path class="st2" d="M22.5,17H24v1.5h-1.5V17z M23.5,17.5H23V18h0.5V17.5z"></path>
				<path class="st2" d="M26.8,25.2V10.3H10.5v14.8h7.9v1.4c-0.9,0.3-1.4,1.3-1.1,2.2s1.3,1.4,2.2,1.1s1.4-1.3,1.1-2.2
					c-0.2-0.5-0.6-1-1.1-1.1v-1.4H26.8z M18.9,28.9c-0.4,0-0.7-0.3-0.7-0.7s0.3-0.7,0.7-0.7s0.7,0.3,0.7,0.7l0,0
					C19.6,28.6,19.3,28.9,18.9,28.9 M11.5,11.4h14.3v3.6H11.5L11.5,11.4z M11.5,16h14.3v3.6H11.5L11.5,16z M11.5,20.6h14.3v3.6H11.5
					L11.5,20.6z"></path>
				<path class="st2" d="M18.9,30.2c-1.1,0-2-0.9-2-2c0-0.8,0.5-1.5,1.2-1.8v-1h-7.9V10.1h16.9v15.3h-7.4v1c1,0.4,1.5,1.6,1.1,2.6
					C20.4,29.7,19.7,30.2,18.9,30.2z M10.7,24.9h7.9v1.8l-0.2,0.1c-0.8,0.2-1.2,1.1-1,1.9c0.2,0.8,1.1,1.2,1.9,1s1.2-1.1,1-1.9
					c-0.1-0.5-0.5-0.8-1-1l-0.2-0.1v-1.8h7.4V10.6H10.7L10.7,24.9z M18.9,29.1c-0.5,0-0.9-0.4-0.9-0.9c0-0.5,0.4-0.9,0.9-0.9
					s0.9,0.4,0.9,0.9l0,0C19.8,28.7,19.4,29.1,18.9,29.1z M18.9,27.8c-0.2,0-0.4,0.2-0.4,0.4c0,0.2,0.2,0.4,0.4,0.4
					c0.2,0,0.4-0.2,0.4-0.4c0,0,0,0,0,0C19.3,28,19.2,27.8,18.9,27.8z M26.1,24.4H11.3v-4.1h14.8L26.1,24.4z M11.8,23.9h13.8v-3.1
					H11.8L11.8,23.9z M26.1,19.8H11.3v-4.1h14.8L26.1,19.8z M11.8,19.3h13.8v-3.1H11.8L11.8,19.3z M26.1,15.2H11.3v-4.1h14.8
					L26.1,15.2z M11.8,14.7h13.8v-3.1H11.8L11.8,14.7z"></path>
				<rect x="13.5" y="21.8" class="st2" width="5.3" height="1"></rect>
				<path class="st2" d="M13.2,21.6H19v1.5h-5.8V21.6z M18.5,22.1h-4.8v0.5h4.8V22.1z"></path>
				<rect x="20.4" y="21.8" class="st2" width="1" height="1"></rect>
				<path class="st2" d="M20.2,21.6h1.5v1.5h-1.5V21.6z M21.2,22.1h-0.5v0.5h0.5V22.1z"></path>
				<rect x="22.7" y="21.8" class="st2" width="1" height="1"></rect>
				<path class="st2" d="M22.5,21.6H24v1.5h-1.5V21.6z M23.5,22.1H23v0.5h0.5V22.1z"></path>
				<path class="st2" d="M7.7,21.9v-1C4,20.9,1,18.3,1,15.2s3-5.6,6.7-5.6c0.3,0,0.6,0,0.9,0.1l0.5,0.1l0.1-0.5
					C9.6,4.6,14.2,1,19.6,1c4.6,0,8.7,2.6,10,6.3l0.1,0.2L30,7.7c2.7,0.8,4.7,3.2,4.8,6c0,3.1-2.5,5.7-6,6.4l0.2,1
					c4-0.8,6.8-3.8,6.8-7.4c-0.1-3.2-2.2-6-5.3-6.9C29,2.7,24.6,0,19.6,0C13.9,0,9,3.7,8.2,8.6c-0.2,0-0.3,0-0.5,0
					c-4.3,0-7.7,3-7.7,6.7S3.5,21.9,7.7,21.9"></path>
				<path class="st2" d="M8,22.2H7.7c-4.4,0-8-3.1-8-6.9s3.6-6.9,8-6.9c0.1,0,0.2,0,0.3,0c0.5-2.4,1.9-4.6,3.9-6
					c2.2-1.6,4.9-2.5,7.7-2.5c2.4,0,4.8,0.6,6.9,1.9c1.9,1.2,3.4,2.9,4.2,4.9c1.5,0.6,2.9,1.5,3.9,2.8c1,1.2,1.5,2.8,1.5,4.3
					c0,3.7-2.9,6.8-7,7.6l-0.2,0l-0.3-1.5l0.2,0c3.4-0.7,5.8-3.2,5.8-6.1c-0.1-2.7-2-5.1-4.7-5.8l-0.4-0.1l-0.1-0.4
					c-1.3-3.6-5.3-6.2-9.8-6.2c-5.3,0-9.8,3.5-10.2,7.9L9.3,10L8.6,9.9c-0.3,0-0.6,0-0.8,0c-3.6,0-6.4,2.4-6.4,5.4s2.9,5.4,6.4,5.4
					H8L8,22.2z M7.7,8.8c-4.1,0-7.5,2.9-7.5,6.4c0,3.5,3.2,6.3,7.2,6.4v-0.5c-3.7-0.1-6.7-2.7-6.7-5.9c0-3.3,3.1-5.9,6.9-5.9
					c0.3,0,0.6,0,0.9,0.1l0.3,0l0-0.3c0.5-4.7,5.1-8.4,10.7-8.4c4.7,0,8.9,2.7,10.3,6.5l0,0.1l0.1,0c3,1,5,3.5,5,6.3
					c0,3.1-2.4,5.8-5.9,6.6l0.1,0.5c3.8-0.8,6.4-3.7,6.4-7.1c0-1.5-0.5-2.9-1.4-4c-1-1.2-2.3-2.2-3.7-2.7l-0.1,0l0-0.1
					c-0.8-2-2.2-3.7-4.1-4.8c-2-1.2-4.3-1.9-6.6-1.8c-2.7,0-5.3,0.8-7.4,2.4c-2,1.4-3.3,3.5-3.7,5.9l0,0.2l-0.2,0
					C8,8.8,7.9,8.8,7.7,8.8L7.7,8.8z"></path>
			</g>
		</g>
	</g>
</g>
</svg>
