<svg id="_3_organisation" data-name="3_organisation" xmlns="http://www.w3.org/2000/svg" width="171.228" height="171.228" viewBox="0 0 171.228 171.228">
  <path id="Path_1326" data-name="Path 1326" d="M224.085,326.319H211.142a2.545,2.545,0,0,1-2.543-2.545V183.348a5.108,5.108,0,0,0-5.092-5.112H60.527a5.119,5.119,0,0,0-5.109,5.112V326.319a5.115,5.115,0,0,0,5.109,5.112H200.94a2.553,2.553,0,0,1,2.566,2.556v12.937a2.528,2.528,0,0,0,2.532,2.539h18.046a2.544,2.544,0,0,0,2.56-2.539V328.875a2.559,2.559,0,0,0-2.56-2.556" transform="translate(-55.418 -178.236)" fill="#8fc740"></path>
  <g id="RICOH_organisation_001" transform="translate(-179.729 -72.198)">
    <path id="Path_1320" data-name="Path 1320" d="M377.9,115.3v66.319h23.356V140.8Z" transform="translate(-150.322)" fill="none" stroke="#fff" stroke-miterlimit="10" stroke-width="2"></path>
    <path id="Path_1321" data-name="Path 1321" d="M289.966,150.9H277.9v5.722" transform="translate(-65.871 -30.064)" fill="none" stroke="#fff" stroke-miterlimit="10" stroke-width="2"></path>
    <path id="Path_1322" data-name="Path 1322" d="M224.764,191.5H199.9v54.47h25.268" transform="translate(0 -64.351)" fill="none" stroke="#fff" stroke-miterlimit="10" stroke-width="2"></path>
    <rect id="Rectangle_706" data-name="Rectangle 706" width="5.038" height="8.148" transform="translate(216.725 133.446)" fill="none" stroke="#fff" stroke-miterlimit="10" stroke-width="2"></rect>
    <rect id="Rectangle_707" data-name="Rectangle 707" width="5.038" height="8.148" transform="translate(205.078 133.446)" fill="none" stroke="#fff" stroke-miterlimit="10" stroke-width="2"></rect>
    <rect id="Rectangle_708" data-name="Rectangle 708" width="5.038" height="8.148" transform="translate(216.725 147.348)" fill="none" stroke="#fff" stroke-miterlimit="10" stroke-width="2"></rect>
    <rect id="Rectangle_709" data-name="Rectangle 709" width="5.038" height="8.148" transform="translate(205.078 147.348)" fill="none" stroke="#fff" stroke-miterlimit="10" stroke-width="2"></rect>
    <rect id="Rectangle_710" data-name="Rectangle 710" width="5.038" height="8.148" transform="translate(216.725 161.529)" fill="none" stroke="#fff" stroke-miterlimit="10" stroke-width="2"></rect>
    <path id="Path_1323" data-name="Path 1323" d="M440.525,475H424.4v-4.8h16.125" transform="translate(-189.591 -299.714)" fill="none" stroke="#fff" stroke-miterlimit="10" stroke-width="2"></path>
    <path id="Path_1324" data-name="Path 1324" d="M440.525,409.5H424.4v-4.8h16.125" transform="translate(-189.591 -244.399)" fill="none" stroke="#fff" stroke-miterlimit="10" stroke-width="2"></path>
    <path id="Path_1325" data-name="Path 1325" d="M440.525,343.9H424.4v-4.8h16.125" transform="translate(-189.591 -189)" fill="none" stroke="#fff" stroke-miterlimit="10" stroke-width="2"></path>
    <line id="Line_187" data-name="Line 187" x1="16.125" transform="translate(234.809 144.72)" fill="none" stroke="#fff" stroke-miterlimit="10" stroke-width="2"></line>
    <rect id="Rectangle_711" data-name="Rectangle 711" width="5.038" height="8.148" transform="translate(205.078 161.529)" fill="none" stroke="#fff" stroke-miterlimit="10" stroke-width="2"></rect>
  </g>
  <g id="RICOH_organisation_001-2" data-name="RICOH_organisation_001" transform="translate(-119.286 -43.698)">
    <path id="Path_1320-2" data-name="Path 1320" d="M377.9,115.3v66.319h23.356V140.8Z" transform="translate(-150.322)" fill="none" stroke="#fff" stroke-miterlimit="10" stroke-width="2"></path>
    <path id="Path_1321-2" data-name="Path 1321" d="M289.966,150.9H277.9v5.722" transform="translate(-65.871 -30.064)" fill="none" stroke="#fff" stroke-miterlimit="10" stroke-width="2"></path>
    <path id="Path_1322-2" data-name="Path 1322" d="M224.764,191.5H199.9v54.47h25.268" transform="translate(0 -64.351)" fill="none" stroke="#fff" stroke-miterlimit="10" stroke-width="2"></path>
    <rect id="Rectangle_706-2" data-name="Rectangle 706" width="5.038" height="8.148" transform="translate(216.725 133.446)" fill="none" stroke="#fff" stroke-miterlimit="10" stroke-width="2"></rect>
    <rect id="Rectangle_707-2" data-name="Rectangle 707" width="5.038" height="8.148" transform="translate(205.078 133.446)" fill="none" stroke="#fff" stroke-miterlimit="10" stroke-width="2"></rect>
    <rect id="Rectangle_708-2" data-name="Rectangle 708" width="5.038" height="8.148" transform="translate(216.725 147.348)" fill="none" stroke="#fff" stroke-miterlimit="10" stroke-width="2"></rect>
    <rect id="Rectangle_709-2" data-name="Rectangle 709" width="5.038" height="8.148" transform="translate(205.078 147.348)" fill="none" stroke="#fff" stroke-miterlimit="10" stroke-width="2"></rect>
    <rect id="Rectangle_710-2" data-name="Rectangle 710" width="5.038" height="8.148" transform="translate(216.725 161.529)" fill="none" stroke="#fff" stroke-miterlimit="10" stroke-width="2"></rect>
    <path id="Path_1323-2" data-name="Path 1323" d="M440.525,475H424.4v-4.8h16.125" transform="translate(-189.591 -299.714)" fill="none" stroke="#fff" stroke-miterlimit="10" stroke-width="2"></path>
    <path id="Path_1324-2" data-name="Path 1324" d="M440.525,409.5H424.4v-4.8h16.125" transform="translate(-189.591 -244.399)" fill="none" stroke="#fff" stroke-miterlimit="10" stroke-width="2"></path>
    <path id="Path_1325-2" data-name="Path 1325" d="M440.525,343.9H424.4v-4.8h16.125" transform="translate(-189.591 -189)" fill="none" stroke="#fff" stroke-miterlimit="10" stroke-width="2"></path>
    <line id="Line_187-2" data-name="Line 187" x1="16.125" transform="translate(234.809 144.72)" fill="none" stroke="#fff" stroke-miterlimit="10" stroke-width="2"></line>
    <rect id="Rectangle_711-2" data-name="Rectangle 711" width="5.038" height="8.148" transform="translate(205.078 161.529)" fill="none" stroke="#fff" stroke-miterlimit="10" stroke-width="2"></rect>
  </g>
  <g id="RICOH_organisation_001-3" data-name="RICOH_organisation_001" transform="translate(-121.627 -104.879)" opacity="0.48">
    <path id="Path_1320-3" data-name="Path 1320" d="M377.9,115.3v55.659h19.6V136.7Z" transform="translate(-154.771)" fill="none" stroke="#fff" stroke-miterlimit="10" stroke-width="2"></path>
    <path id="Path_1321-3" data-name="Path 1321" d="M288.027,150.9H277.9v4.8" transform="translate(-67.821 -30.954)" fill="none" stroke="#fff" stroke-miterlimit="10" stroke-width="2"></path>
    <path id="Path_1322-3" data-name="Path 1322" d="M220.767,191.5H199.9v45.715h21.207" transform="translate(0 -66.256)" fill="none" stroke="#fff" stroke-miterlimit="10" stroke-width="2"></path>
    <rect id="Rectangle_706-3" data-name="Rectangle 706" width="4.228" height="6.838" transform="translate(214.02 130.53)" fill="none" stroke="#fff" stroke-miterlimit="10" stroke-width="2"></rect>
    <rect id="Rectangle_707-3" data-name="Rectangle 707" width="4.228" height="6.838" transform="translate(204.246 130.53)" fill="none" stroke="#fff" stroke-miterlimit="10" stroke-width="2"></rect>
    <rect id="Rectangle_708-3" data-name="Rectangle 708" width="4.228" height="6.838" transform="translate(214.02 142.197)" fill="none" stroke="#fff" stroke-miterlimit="10" stroke-width="2"></rect>
    <rect id="Rectangle_709-3" data-name="Rectangle 709" width="4.228" height="6.838" transform="translate(204.246 142.197)" fill="none" stroke="#fff" stroke-miterlimit="10" stroke-width="2"></rect>
    <rect id="Rectangle_710-3" data-name="Rectangle 710" width="4.228" height="6.838" transform="translate(214.02 154.098)" fill="none" stroke="#fff" stroke-miterlimit="10" stroke-width="2"></rect>
    <path id="Path_1323-3" data-name="Path 1323" d="M437.933,474.233H424.4V470.2h13.533" transform="translate(-195.202 -308.585)" fill="none" stroke="#fff" stroke-miterlimit="10" stroke-width="2"></path>
    <path id="Path_1324-3" data-name="Path 1324" d="M437.933,408.733H424.4V404.7h13.533" transform="translate(-195.202 -251.633)" fill="none" stroke="#fff" stroke-miterlimit="10" stroke-width="2"></path>
    <path id="Path_1325-3" data-name="Path 1325" d="M437.933,343.133H424.4V339.1h13.533" transform="translate(-195.202 -194.594)" fill="none" stroke="#fff" stroke-miterlimit="10" stroke-width="2"></path>
    <line id="Line_187-3" data-name="Line 187" x1="13.533" transform="translate(229.198 139.991)" fill="none" stroke="#fff" stroke-miterlimit="10" stroke-width="2"></line>
    <rect id="Rectangle_711-3" data-name="Rectangle 711" width="4.228" height="6.838" transform="translate(204.246 154.098)" fill="none" stroke="#fff" stroke-miterlimit="10" stroke-width="2"></rect>
  </g>
</svg>
