<svg width="60" height="60" viewBox="0 0 60 60" fill="none" xmlns="http://www.w3.org/2000/svg">
<path d="M59.0966 51.8896H54.5588C54.0651 51.8896 53.666 51.494 53.666 50.9943V1.79073C53.666 0.801666 52.8676 0 51.8803 0H1.78571C0.798319 0 0 0.801666 0 1.79073V51.8896C0 52.8787 0.798319 53.6804 1.78571 53.6804H50.9874C51.4811 53.6804 51.8803 54.076 51.8803 54.5757V59.1046C51.8803 59.6044 52.2794 60 52.7731 60H59.0966C59.5903 60 59.9895 59.6044 59.9895 59.1046V52.7746C59.9895 52.2853 59.5903 51.8792 59.0966 51.8792" fill="#CF122E"/>
<path d="M32.6994 38.8548C31.8591 39.7397 30.8402 40.4061 29.7267 40.8121C30.8507 39.3233 31.607 36.9079 31.691 34.1073H34.8003C34.6637 35.8772 33.9389 37.543 32.6994 38.8548ZM21.3339 38.8652C20.0944 37.5534 19.3591 35.8876 19.2225 34.1177H22.2477C22.3318 36.8975 23.0671 39.2816 24.1805 40.7809C23.1091 40.3748 22.1427 39.7293 21.3339 38.8652ZM14.5587 27.2671C13.9704 27.2671 13.4872 26.7986 13.4872 26.2155C13.4872 25.6325 13.9704 25.1536 14.5587 25.1536C15.1469 25.1536 15.6196 25.6325 15.6196 26.2155C15.6196 26.7986 15.1364 27.2671 14.5587 27.2671ZM38.3822 26.2051C38.3822 25.6221 38.8654 25.1432 39.4431 25.1432C40.0209 25.1432 40.504 25.6221 40.504 26.2051C40.504 26.7882 40.0209 27.2567 39.4431 27.2567C39.1385 27.2567 38.8549 27.1317 38.6658 26.9235C38.6448 26.8714 38.6028 26.809 38.5608 26.7673L38.5398 26.7465C38.4452 26.5903 38.3927 26.4029 38.3927 26.2155M27.5734 32.9933V25.9136C29.044 26.4654 30.441 29.1619 30.5671 32.9933H27.5734ZM27.5734 41.1869V34.1073H30.5671C30.441 37.9386 29.044 40.6247 27.5734 41.1869ZM26.4494 34.1073V41.2181C24.9473 40.7288 23.4977 38.0219 23.3717 34.1073H26.4494ZM26.4494 25.8928V33.0037H23.3717C23.4977 29.0994 24.9578 26.3821 26.4494 25.8928ZM19.2225 32.9933C19.254 32.6185 19.3066 32.2332 19.3906 31.8584C19.9578 29.3181 21.8066 27.2775 24.1595 26.3509C23.0566 27.8397 22.3318 30.2343 22.2477 32.9933H19.2225ZM31.7015 32.9933C31.6175 30.203 30.8717 27.798 29.7477 26.3092C32.1637 27.215 34.0545 29.2764 34.6322 31.8584C34.7162 32.2332 34.7688 32.6185 34.8003 32.9933H31.691H31.7015ZM8.06707 27.3295C8.06707 25.2056 9.81077 23.4774 11.9536 23.4774H12.6154C12.8255 23.4774 13.0251 23.3524 13.1196 23.1755C13.2141 22.988 13.1931 22.759 13.0671 22.5924C12.2477 21.5097 11.8171 20.2291 11.8171 18.8756C11.8171 15.4399 14.6322 12.6497 18.0986 12.6497C19.107 12.6497 20.0839 12.8891 20.9872 13.3472C21.1343 13.4201 21.3024 13.4305 21.4494 13.3785C21.5965 13.316 21.712 13.2015 21.7751 13.0453C22.6784 10.6091 25.0524 8.9641 27.6679 8.9641C31.1343 8.9641 33.9494 11.7543 33.9494 15.2004C33.9494 15.2213 33.9494 15.2525 33.9494 15.2733C33.9494 15.4399 34.023 15.5961 34.149 15.7106C34.2751 15.8147 34.4431 15.8668 34.6112 15.8355C34.9473 15.7731 35.2519 15.7522 35.5566 15.7522C38.5187 15.7522 40.9347 18.1468 40.9347 21.0828C40.9347 21.645 40.8402 22.2072 40.6616 22.7486C40.6091 22.9152 40.6406 23.1026 40.7351 23.2483C40.8402 23.3941 41.0082 23.4774 41.1868 23.4774C43.3297 23.4774 45.0629 25.2056 45.0629 27.3295C45.0629 29.4534 43.3192 31.1817 41.1763 31.1817H35.6301C35.6301 31.1817 35.6196 31.1296 35.6091 31.1088C35.6091 31.088 35.5986 31.0672 35.5881 31.0463C35.5776 31.0047 35.5671 30.9735 35.5566 30.9318C35.5566 30.911 35.5461 30.8902 35.5356 30.8694C35.5251 30.8277 35.504 30.7965 35.4935 30.7548C35.4935 30.734 35.483 30.7132 35.4725 30.6924C35.4725 30.6715 35.462 30.6507 35.4515 30.6299L38.1616 27.9646C38.5293 28.2249 38.9809 28.3915 39.4641 28.3915C40.6721 28.3915 41.6595 27.4128 41.6595 26.2155C41.6595 25.0182 40.6721 24.0396 39.4641 24.0396C38.2561 24.0396 37.2688 25.0182 37.2688 26.2155C37.2688 26.5279 37.3318 26.8194 37.4578 27.0901L34.9788 29.5367C34.9473 29.4743 34.9158 29.4118 34.8738 29.3389C34.8738 29.3285 34.8633 29.3181 34.8528 29.3077C34.8318 29.266 34.8003 29.2244 34.7793 29.1827C34.7793 29.1723 34.7582 29.1515 34.7477 29.1307C34.7267 29.089 34.7057 29.0578 34.6847 29.0266C34.6742 29.0057 34.6637 28.9849 34.6532 28.9745C34.6322 28.9433 34.6112 28.9016 34.5902 28.8704C34.5797 28.8496 34.5692 28.8288 34.5482 28.8079C34.5272 28.7767 34.5061 28.7455 34.4851 28.7142C34.4746 28.6934 34.4536 28.6726 34.4431 28.6518C34.4221 28.6205 34.4011 28.5893 34.3801 28.5581C34.3696 28.5372 34.3486 28.5164 34.3381 28.4956C34.3171 28.4644 34.2961 28.4331 34.2751 28.4123C34.2646 28.3915 34.2435 28.3707 34.233 28.3498C34.212 28.3186 34.191 28.2978 34.17 28.2665C34.1595 28.2457 34.1385 28.2249 34.1175 28.2041C34.0965 28.1833 34.0755 28.152 34.0545 28.1208C34.044 28.1 34.023 28.0791 34.0019 28.0583C33.9809 28.0375 33.9599 28.0063 33.9389 27.975C33.9284 27.9542 33.9074 27.9334 33.8864 27.9126C33.8654 27.8917 33.8444 27.8605 33.8234 27.8293C33.8024 27.8085 33.7919 27.7876 33.7709 27.7668C33.7498 27.7356 33.7288 27.7148 33.7078 27.6835C33.6868 27.6627 33.6658 27.6419 33.6553 27.6211C33.6343 27.6002 33.6133 27.569 33.5818 27.5482C33.5608 27.5273 33.5398 27.5065 33.5293 27.4857C33.5082 27.4649 33.4872 27.4336 33.4557 27.4128C33.4347 27.392 33.4137 27.3712 33.4032 27.3608L33.3297 27.2879C33.3297 27.2879 33.2877 27.2462 33.2772 27.2358C33.2561 27.215 33.2246 27.1838 33.2036 27.163C33.1826 27.1421 33.1616 27.1213 33.1511 27.1109C33.1301 27.0901 33.0986 27.0693 33.0776 27.038C33.0566 27.0172 33.0356 26.9964 33.0145 26.986C32.983 26.9651 32.962 26.9443 32.9305 26.9131C32.9095 26.8923 32.8885 26.8819 32.8675 26.861C32.836 26.8402 32.815 26.8194 32.7835 26.7986C32.7624 26.7777 32.7414 26.7673 32.7204 26.7465C32.6994 26.7257 32.6679 26.7049 32.6364 26.6736C32.6154 26.6632 32.5944 26.6424 32.5734 26.6216C32.5419 26.6007 32.5209 26.5799 32.4893 26.5487C32.4683 26.5383 32.4473 26.5175 32.4263 26.507C32.3948 26.4862 32.3633 26.4654 32.3318 26.4446C32.3108 26.4342 32.2898 26.4133 32.2793 26.4029C32.2477 26.3821 32.2162 26.3613 32.1847 26.3405C32.1637 26.3301 32.1532 26.3092 32.1322 26.2988C32.1007 26.278 32.0587 26.2468 32.0272 26.2259C32.0166 26.2155 31.9956 26.2051 31.9851 26.1947C31.9431 26.1635 31.9011 26.1427 31.8591 26.1114C31.8591 26.1114 31.8486 26.101 31.8381 26.101C31.733 26.0385 31.628 25.9761 31.523 25.9136C31.5124 25.9136 31.5019 25.9032 31.4809 25.8928C31.4389 25.872 31.4074 25.8511 31.3654 25.8199C31.3444 25.8095 31.3234 25.7991 31.3129 25.7887C31.2814 25.7678 31.2498 25.747 31.2078 25.7366C31.1868 25.7262 31.1658 25.7158 31.1448 25.7054C31.1133 25.6846 31.0713 25.6741 31.0503 25.6533C31.0293 25.6429 31.0082 25.6325 30.9767 25.6221C30.9452 25.6117 30.9137 25.5909 30.8822 25.57C30.8612 25.5596 30.8297 25.5492 30.8087 25.5388C30.7772 25.5284 30.7456 25.5076 30.7141 25.4972C30.6931 25.4867 30.6616 25.4763 30.6406 25.4659C30.6091 25.4451 30.5776 25.4451 30.5461 25.4243C30.5251 25.4139 30.4935 25.4035 30.4725 25.393C30.441 25.3826 30.4095 25.3618 30.378 25.3514C30.3465 25.341 30.3255 25.3306 30.3045 25.3202C30.273 25.3098 30.2414 25.2889 30.2099 25.2785C30.1784 25.2681 30.1574 25.2577 30.1259 25.2473C30.0944 25.2369 30.0629 25.2265 30.0314 25.2161C29.9998 25.2056 29.9788 25.1952 29.9473 25.1848C29.9158 25.1744 29.8843 25.164 29.8528 25.1536C29.8213 25.1536 29.8003 25.1328 29.7688 25.1224C29.7372 25.1119 29.7057 25.1015 29.6742 25.0911C29.6427 25.0911 29.6217 25.0703 29.5902 25.0599C29.5587 25.0495 29.5272 25.0391 29.4956 25.0287C29.4641 25.0287 29.4431 25.0182 29.4116 25.0078C29.3801 25.0078 29.3486 24.987 29.3171 24.987C29.2961 24.987 29.2645 24.9766 29.233 24.9662C29.2015 24.9662 29.17 24.9454 29.1385 24.9454C29.1175 24.9454 29.086 24.9245 29.0545 24.9245C29.023 24.9245 28.9914 24.9037 28.9599 24.9037C28.9284 24.9037 28.9074 24.8933 28.8759 24.8829C28.8444 24.8829 28.8129 24.8725 28.7814 24.8621C28.7498 24.8621 28.7288 24.8621 28.6973 24.8412C28.6658 24.8412 28.6343 24.8412 28.6028 24.8204C28.5818 24.8204 28.5503 24.81 28.5188 24.81C28.4872 24.81 28.4452 24.7996 28.4242 24.7996C28.3927 24.7996 28.3717 24.7996 28.3402 24.7892C28.3087 24.7892 28.2772 24.7788 28.2351 24.7788C28.2036 24.7788 28.1826 24.7788 28.1511 24.7684C28.1196 24.7684 28.0881 24.7684 28.0461 24.7684C28.0146 24.7684 27.9935 24.7684 27.962 24.758C27.9305 24.758 27.8885 24.758 27.857 24.7475C27.836 24.7475 27.8045 24.7475 27.773 24.7475C27.7309 24.7475 27.6994 24.7475 27.6679 24.7475C27.6469 24.7475 27.6154 24.7475 27.5944 24.7475C27.5524 24.7475 27.5209 24.7475 27.4788 24.7475C27.4578 24.7475 27.4263 24.7475 27.4053 24.7475C27.3633 24.7475 27.3213 24.7475 27.2793 24.7475C27.2582 24.7475 27.2372 24.7475 27.2162 24.7475C27.1532 24.7475 27.0902 24.7475 27.0272 24.7475H26.8381C26.8381 24.7475 26.7961 24.7475 26.7751 24.7475C26.733 24.7475 26.691 24.7475 26.649 24.7475C26.628 24.7475 26.5965 24.7475 26.5755 24.7475C26.5335 24.7475 26.5019 24.7475 26.4599 24.7475C26.4389 24.7475 26.4074 24.7475 26.3864 24.7475C26.3444 24.7475 26.3129 24.7475 26.2814 24.7475C26.2603 24.7475 26.2288 24.7475 26.1973 24.7475C26.1658 24.7475 26.1238 24.7475 26.0923 24.7475C26.0608 24.7475 26.0398 24.7475 26.0082 24.758C25.9767 24.758 25.9347 24.758 25.9032 24.7684C25.8822 24.7684 25.8507 24.7684 25.8192 24.7788C25.7877 24.7788 25.7456 24.7788 25.7141 24.7892C25.6826 24.7892 25.6616 24.7892 25.6301 24.7996C25.5986 24.7996 25.5566 24.81 25.5251 24.8204C25.504 24.8204 25.4725 24.8204 25.441 24.8308C25.4095 24.8308 25.3675 24.8413 25.3465 24.8517C25.315 24.8517 25.294 24.8621 25.2624 24.8725C25.2309 24.8725 25.1994 24.8829 25.1679 24.8933C25.1364 24.8933 25.1154 24.9037 25.0839 24.9141C25.0524 24.9141 25.0209 24.9245 24.9893 24.9349C24.9578 24.9349 24.9368 24.9454 24.9053 24.9558C24.8738 24.9558 24.8423 24.9662 24.8108 24.9766C24.7793 24.9766 24.7582 24.987 24.7267 24.9974C24.6952 24.9974 24.6637 25.0182 24.6322 25.0182C24.6112 25.0182 24.5797 25.0287 24.5482 25.0391C24.5167 25.0495 24.4851 25.0599 24.4536 25.0703C24.4221 25.0703 24.4011 25.0807 24.3696 25.0911C24.3381 25.1015 24.3066 25.1119 24.2751 25.1224C24.2435 25.1224 24.2225 25.1432 24.2015 25.1432C24.17 25.1536 24.1385 25.164 24.107 25.1744C24.086 25.1744 24.0545 25.1952 24.0335 25.1952C24.0019 25.2056 23.9704 25.2161 23.9389 25.2265C23.9074 25.2369 23.8864 25.2473 23.8654 25.2577C23.8339 25.2681 23.8024 25.2785 23.7709 25.2993C23.7393 25.3098 23.7183 25.3202 23.6973 25.3306C23.6658 25.341 23.6343 25.3618 23.6028 25.3722C23.5713 25.3826 23.5503 25.393 23.5293 25.4035C23.4977 25.4139 23.4662 25.4243 23.4347 25.4451C23.4137 25.4555 23.3822 25.4659 23.3612 25.4763C23.3297 25.4867 23.2982 25.5076 23.2666 25.518C23.2456 25.5284 23.2246 25.5388 23.1931 25.5492C23.1616 25.5596 23.1301 25.5804 23.0986 25.6013C23.0776 25.6013 23.0566 25.6221 23.0356 25.6325C23.004 25.6533 22.962 25.6637 22.9305 25.6846C22.9095 25.695 22.8885 25.7054 22.8675 25.7158C22.836 25.7366 22.794 25.7574 22.7624 25.7783C22.7414 25.7887 22.7204 25.7991 22.7099 25.8095C22.6679 25.8303 22.6364 25.8511 22.5944 25.872C22.5839 25.872 22.5629 25.8824 22.5524 25.8928C22.4473 25.9553 22.3423 26.0177 22.2372 26.0802H22.2267C22.1847 26.1114 22.1322 26.1427 22.0902 26.1739C22.0797 26.1843 22.0692 26.1947 22.0482 26.2051C22.0061 26.2259 21.9746 26.2572 21.9431 26.278C21.9221 26.2884 21.9116 26.2988 21.8906 26.3196C21.8591 26.3405 21.8276 26.3613 21.7961 26.3925C21.7751 26.4029 21.754 26.4133 21.7435 26.4342C21.712 26.455 21.6805 26.4758 21.649 26.507C21.628 26.5175 21.607 26.5383 21.5965 26.5487C21.565 26.5695 21.5335 26.5903 21.5124 26.6112C21.4914 26.6216 21.4704 26.6424 21.4599 26.6528C21.4389 26.6736 21.4074 26.6945 21.3759 26.7257C21.3549 26.7361 21.3339 26.7569 21.3234 26.7777C21.3024 26.7986 21.2709 26.8194 21.2393 26.8402C21.2183 26.861 21.1973 26.8714 21.1868 26.8923C21.1658 26.9131 21.1343 26.9339 21.1133 26.9651C21.0923 26.986 21.0713 26.9964 21.0608 27.0172C21.0398 27.038 21.0082 27.0693 20.9872 27.0901C20.9662 27.1109 20.9452 27.1213 20.9347 27.1421C20.9032 27.163 20.8822 27.1942 20.8612 27.215C20.8402 27.2358 20.8192 27.2567 20.8087 27.2671C20.7877 27.2983 20.7561 27.3191 20.7351 27.3399C20.7141 27.3608 20.6931 27.3816 20.6826 27.392C20.6616 27.4128 20.6301 27.4441 20.6091 27.4649C20.5881 27.4857 20.5776 27.5065 20.5566 27.5169C20.5356 27.5378 20.504 27.569 20.483 27.5898C20.462 27.6106 20.4515 27.6315 20.4305 27.6419C20.4095 27.6627 20.3885 27.6939 20.357 27.7148C20.336 27.7356 20.3255 27.7564 20.3045 27.7772C20.2835 27.798 20.2624 27.8293 20.2414 27.8605C20.2309 27.8813 20.2099 27.9022 20.1889 27.923C20.1679 27.9542 20.1469 27.975 20.1259 28.0063C20.1154 28.0271 20.0944 28.0479 20.0734 28.0687C20.0524 28.1 20.0314 28.1208 19.9998 28.152C19.9893 28.1728 19.9683 28.1937 19.9578 28.2145C19.9368 28.2457 19.9158 28.277 19.8948 28.2978C19.8843 28.3186 19.8633 28.3394 19.8528 28.3603C19.8318 28.3915 19.8108 28.4227 19.7898 28.454C19.7793 28.4748 19.7688 28.4956 19.7477 28.5164C19.7267 28.5477 19.7057 28.5789 19.6847 28.6101C19.6742 28.6309 19.6532 28.6518 19.6427 28.6622C19.6217 28.6934 19.6007 28.7246 19.5797 28.7559C19.5692 28.7767 19.5587 28.7975 19.5482 28.8079C19.5272 28.8392 19.5061 28.8808 19.4851 28.912C19.4746 28.9329 19.4641 28.9433 19.4536 28.9641C19.4326 29.0057 19.4116 29.037 19.3906 29.0786C19.3906 29.089 19.3696 29.1099 19.3591 29.1203C19.3381 29.1619 19.3066 29.214 19.2856 29.2556C19.2856 29.2556 19.2751 29.2764 19.2751 29.2868C19.1805 29.4534 19.0965 29.62 19.023 29.7866C19.023 29.7866 19.023 29.7866 19.023 29.797C19.0019 29.8491 18.9704 29.9011 18.9494 29.9532C18.9494 29.9532 18.9494 29.9532 18.9494 29.9636L16.4284 27.4649C16.7015 27.1005 16.8696 26.6528 16.8696 26.1635C16.8696 24.9662 15.8822 23.9875 14.6742 23.9875C13.4662 23.9875 12.4788 24.9662 12.4788 26.1635C12.4788 27.3608 13.4662 28.3394 14.6742 28.3394C14.9788 28.3394 15.273 28.277 15.5356 28.1624L18.5188 31.1192C18.5188 31.1192 18.5188 31.1296 18.5188 31.1401H12.0587C9.91581 31.1401 8.17211 29.4014 8.17211 27.2775M40.7351 44.1645C40.7351 44.7475 40.2519 45.2265 39.6742 45.2265C39.0965 45.2265 38.6028 44.7475 38.6028 44.1645C38.6028 43.5815 39.086 43.113 39.6742 43.113C40.2624 43.113 40.7351 43.5815 40.7351 44.1645ZM14.7793 45.2265C14.191 45.2265 13.7183 44.7475 13.7183 44.1645C13.7183 43.5815 14.2015 43.113 14.7793 43.113C15.357 43.113 15.8402 43.5815 15.8402 44.1645C15.8402 44.7475 15.357 45.2265 14.7793 45.2265ZM46.1868 27.3295C46.1868 24.8412 44.3276 22.7694 41.9011 22.4154C41.9956 21.9782 42.0482 21.5305 42.0482 21.0828C42.0482 17.5326 39.128 14.6382 35.5461 14.6382C35.3885 14.6382 35.2204 14.6382 35.0524 14.6591C34.7687 10.8589 31.565 7.8501 27.6574 7.8501C24.7793 7.8501 22.1532 9.53672 20.9452 12.0979C20.0314 11.7231 19.0755 11.5253 18.0881 11.5253C14.0019 11.5253 10.6826 14.8152 10.6826 18.8652C10.6826 20.1041 10.9872 21.291 11.586 22.3634C8.99144 22.5508 6.93262 24.6955 6.93262 27.3191C6.93262 29.9428 9.18052 32.2853 11.9431 32.2853H18.1616C18.0986 32.7017 18.0671 33.1182 18.0671 33.545C18.0671 35.2837 18.5713 36.9599 19.5272 38.3967L15.6931 42.1968C15.4095 42.0614 15.0944 41.9886 14.7582 41.9886C13.5503 41.9886 12.5629 42.9672 12.5629 44.1645C12.5629 45.3618 13.5503 46.3405 14.7582 46.3405C15.9662 46.3405 16.9536 45.3618 16.9536 44.1645C16.9536 43.696 16.8066 43.2692 16.5545 42.9152L20.2099 39.2921C20.3045 39.3962 20.399 39.5107 20.504 39.6148C22.1742 41.3639 24.4116 42.353 26.8276 42.3946C26.8591 42.3946 26.8906 42.3946 26.9221 42.3946H26.9956C29.4851 42.3946 31.7961 41.4055 33.4977 39.6044C33.7183 39.3753 33.9179 39.1359 34.107 38.886L37.983 42.7278C37.6469 43.113 37.4473 43.6023 37.4473 44.1437C37.4473 45.341 38.4347 46.3196 39.6427 46.3196C40.8507 46.3196 41.8381 45.341 41.8381 44.1437C41.8381 42.9464 40.8507 41.9677 39.6427 41.9677C39.3906 41.9677 39.1385 42.0094 38.9074 42.0927C38.8864 42.0406 38.8444 41.999 38.8129 41.9573L34.7477 37.9282C35.5251 36.5955 35.9347 35.0859 35.9347 33.5242C35.9347 33.1078 35.9032 32.6809 35.8402 32.2645H41.1553C43.9179 32.2645 46.1658 30.0365 46.1658 27.2983" fill="white"/>
</svg>
