<svg xmlns="http://www.w3.org/2000/svg" width="60" height="60" viewBox="0 0 60 60">
  <g id="Icon_fast_and_painless_setup" transform="translate(0.298 0.157)">
    <g id="Ricoh_Ribbon_-_HW" data-name="Ricoh Ribbon - HW" transform="translate(-0.298 -0.157)">
      <path id="Path_1004" data-name="Path 1004" d="M114.521,230.126h-4.535a.892.892,0,0,1-.891-.892V180.027a1.79,1.79,0,0,0-1.784-1.791h-50.1a1.794,1.794,0,0,0-1.79,1.791v50.1a1.792,1.792,0,0,0,1.79,1.791h49.2a.894.894,0,0,1,.9.9v4.533a.886.886,0,0,0,.887.89h6.324a.892.892,0,0,0,.9-.89v-6.325a.9.9,0,0,0-.9-.9" transform="translate(-55.418 -178.236)" fill="#606cbf"></path>
    </g>
    <g id="Group_2434" data-name="Group 2434" transform="translate(9.104 8.429)">
      <ellipse id="Ellipse_29" data-name="Ellipse 29" cx="3.905" cy="3.905" rx="3.905" ry="3.905" transform="translate(9.141 21.568)" fill="none" stroke="#fff" stroke-miterlimit="10" stroke-width="1.5"></ellipse>
      <path id="Path_1838" data-name="Path 1838" d="M-1967.242,1132.8v-2.6l-2.1-.494a7.457,7.457,0,0,0-.85-2.045l1.1-1.861-1.838-1.838-1.832,1.143a7.325,7.325,0,0,0-2.05-.845l-.54-2.094h-2.6l-.5,2.1a7.5,7.5,0,0,0-2.044.849l-1.861-1.1-1.838,1.838,1.138,1.832a7.251,7.251,0,0,0-.844,2.044l-2.094.54v2.6l2.1.5a7.451,7.451,0,0,0,.851,2.044l-1.1,1.861,1.838,1.838,1.832-1.137a7.29,7.29,0,0,0,2.045.845l.54,2.094h2.6l.494-2.1a7.506,7.506,0,0,0,2.045-.85l1.862,1.1,1.838-1.838-1.126-1.832a7.319,7.319,0,0,0,.845-2.049Z" transform="translate(1989.661 -1106.071)" fill="none" stroke="#fff" stroke-miterlimit="10" stroke-width="1.5"></path>
      <path id="Path_1839" data-name="Path 1839" d="M-1953.906,1139.1v-12.13a.066.066,0,0,1,.019-.048.067.067,0,0,1,.048-.02h1.986a.068.068,0,0,0,.057-.033.068.068,0,0,0,0-.066l-1.922-3.329-1.922-3.33a.068.068,0,0,0-.059-.034.068.068,0,0,0-.059.034l-1.923,3.33-1.922,3.329a.068.068,0,0,0,0,.066.068.068,0,0,0,.057.033h1.987a.068.068,0,0,1,.068.068v12.13" transform="translate(1983.909 -1105.621)" fill="none" stroke="#fff" stroke-miterlimit="10" stroke-width="1.5"></path>
      <path id="Path_1840" data-name="Path 1840" d="M-1964.806,1118.856v-3.439a.068.068,0,0,1,.068-.068h1.987a.069.069,0,0,0,.056-.034.069.069,0,0,0,0-.066l-1.922-3.329-1.922-3.329a.068.068,0,0,0-.059-.034.068.068,0,0,0-.059.034l-1.923,3.329-1.923,3.329a.068.068,0,0,0,0,.066.068.068,0,0,0,.057.033h1.988a.068.068,0,0,1,.068.068V1118" transform="translate(1986.284 -1103.102)" fill="none" stroke="#fff" stroke-miterlimit="10" stroke-width="1.5"></path>
      <path id="Path_1841" data-name="Path 1841" d="M-1954.887,1113.755v-5.314a.068.068,0,0,1,.067-.068h1.988a.068.068,0,0,0,.057-.033.068.068,0,0,0,0-.066l-1.922-3.329-1.923-3.329a.067.067,0,0,0-.059-.034.068.068,0,0,0-.059.034l-1.922,3.329-1.923,3.329a.068.068,0,0,0,0,.066.068.068,0,0,0,.057.033h1.988a.068.068,0,0,1,.068.068v4.886" transform="translate(1984.123 -1101.582)" fill="none" stroke="#fff" stroke-miterlimit="10" stroke-width="1.5"></path>
      <path id="Path_1842" data-name="Path 1842" d="M-1990.682,1127.207a12.018,12.018,0,0,1,12.019-12.018" transform="translate(1990.682 -1104.549)" fill="none" stroke="#fff" stroke-miterlimit="10" stroke-width="1.5"></path>
      <path id="Path_1843" data-name="Path 1843" d="M-1976.349,1113.282l1.7,1.619-1.534,1.534" transform="translate(1987.558 -1104.134)" fill="none" stroke="#fff" stroke-miterlimit="10" stroke-width="1.5"></path>
    </g>
  </g>
</svg>
