<svg xmlns="http://www.w3.org/2000/svg" width="60" height="60"><g id="Icon-Metrics" transform="translate(0 -1069)"><path id="Path_273" data-name="Path 273" d="M114.521 230.126h-4.535a.892.892 0 0 1-.891-.892v-49.207a1.79 1.79 0 0 0-1.784-1.791h-50.1a1.794 1.794 0 0 0-1.79 1.791v50.1a1.792 1.792 0 0 0 1.79 1.791h49.2a.894.894 0 0 1 .9.9v4.533a.886.886 0 0 0 .887.89h6.324a.892.892 0 0 0 .9-.89v-6.325a.9.9 0 0 0-.9-.9" transform="translate(-55.418 890.764)" fill="#cf142b"/><g id="Group_1446" data-name="Group 1446" transform="translate(-592 928.362)" fill="none" stroke="#fff" stroke-linecap="round" stroke-miterlimit="10" stroke-width="2"><path id="Line_149" data-name="Line 149" transform="translate(602.5 185.193)" d="M0 0h33.431"/><path id="Path_986" data-name="Path 986" d="M2.774 31.579V17.45h9.215v14.129" transform="translate(602.619 153.615)"/><path id="Path_987" data-name="Path 987" d="M10.017 32.726V13.237h9.215v19.489" transform="translate(604.591 152.468)"/><path id="Path_988" data-name="Path 988" d="M17.26 33.873V9.023h9.215v24.85" transform="translate(606.563 151.32)"/><path id="Path_989" data-name="Path 989" d="M23.22 6.966H13.4l2.545-3.233L13.4.5h9.82Z" transform="translate(605.512 149)"/><path id="Line_150" data-name="Line 150" transform="translate(628.733 155.966)" d="M0 0v4.378"/></g></g></svg>