<svg xmlns="http://www.w3.org/2000/svg" width="140" height="140"><defs><clipPath id="a"><path transform="translate(1226 6368)" fill="#fff" d="M0 0h140v140H0z"/></clipPath></defs><g transform="translate(-1226 -6368)" clip-path="url('#a')"><path d="M1234.089 6478.777h13.288a2.613 2.613 0 0 0 2.611-2.613v-144.173a5.244 5.244 0 0 1 5.228-5.249h146.796a5.255 5.255 0 0 1 5.246 5.249v146.786a5.251 5.251 0 0 1-5.246 5.249h-144.161a2.621 2.621 0 0 0-2.634 2.624v13.282a2.6 2.6 0 0 1-2.6 2.607h-18.528a2.612 2.612 0 0 1-2.629-2.607v-18.526a2.627 2.627 0 0 1 2.629-2.624" fill="none" stroke="#cf142b" stroke-width="2"/></g></svg>