<svg xmlns="http://www.w3.org/2000/svg" width="60.162" height="60.162" viewBox="0 0 60.162 60.162">
  <g id="Icon_time_location" transform="translate(-808.734 -1319.919)">
    <path id="Path_273" data-name="Path 273" d="M114.681,230.266h-4.548a.894.894,0,0,1-.894-.894v-49.34a1.8,1.8,0,0,0-1.789-1.8H57.213a1.8,1.8,0,0,0-1.8,1.8v50.234a1.8,1.8,0,0,0,1.8,1.8h49.335a.9.9,0,0,1,.9.9v4.545a.888.888,0,0,0,.89.892h6.341a.894.894,0,0,0,.9-.892v-6.342a.9.9,0,0,0-.9-.9" transform="translate(753.316 1141.683)" fill="#8fc740"/>
    <g id="Group_2676" data-name="Group 2676" transform="translate(3 0.727)">
      <g id="Group_2673" data-name="Group 2673" transform="translate(816.311 1332.168)">
        <g id="Group_2675" data-name="Group 2675" transform="translate(0)">
          <path id="Path_1933" data-name="Path 1933" d="M27.867,17.512a6.7,6.7,0,1,1,6.7-6.7,6.712,6.712,0,0,1-6.7,6.7m0-12.158a5.455,5.455,0,1,0,5.458,5.454,5.461,5.461,0,0,0-5.458-5.454" transform="translate(-2.478 -0.347)" fill="#fff" stroke="#fff" stroke-width="0.6"/>
          <path id="Path_1934" data-name="Path 1934" d="M27.52,28.465,19.212,16.821a10.835,10.835,0,0,1-2.153-6.359,10.463,10.463,0,0,1,20.925,0,10.961,10.961,0,0,1-2.154,6.358Zm0-27.218a9.226,9.226,0,0,0-9.215,9.215A9.607,9.607,0,0,0,20.227,16.1L27.52,26.318l7.3-10.222a9.6,9.6,0,0,0,1.921-5.634A9.226,9.226,0,0,0,27.52,1.247" transform="translate(-2.131)" fill="#fff" stroke="#fff" stroke-width="0.6"/>
          <path id="Path_1937" data-name="Path 1937" d="M20.136,28.887h1.229v1.247H20.136Zm-2.735,0h1.229v1.247H17.4Zm-2.735,0H15.9v1.247h-1.23Zm-2.734,0H13.16v1.247H11.931Zm-2.736,0h1.229v1.247H9.2Zm-2.734,0H7.69v1.247H6.461ZM4.955,30.134a4.2,4.2,0,0,1-1.427-.257l.449-1.163a2.972,2.972,0,0,0,.979.173Zm-2.9-1.173A4.222,4.222,0,0,1,1.2,27.787l1.126-.537a2.958,2.958,0,0,0,.586.8Zm-1.3-2.849c0-.067-.005-.135-.005-.2a4.257,4.257,0,0,1,.186-1.243l1.187.385A2.975,2.975,0,0,0,2,25.909c0,.041,0,.082,0,.124ZM1.78,23.152a4.213,4.213,0,0,1,1.126-.925l.6,1.1a2.981,2.981,0,0,0-.764.627Zm2.777-1.447a4.07,4.07,0,0,1,.424-.021h.876v1.246H4.981c-.094,0-.189,0-.28.013Zm8.276,1.225V21.685h.008a1.584,1.584,0,0,0,.816-.225l.687,1.041a2.824,2.824,0,0,1-1.5.43ZM10.1,21.685h1.229v1.246H10.1Zm-2.735,0H8.592v1.246H7.363Zm6.986-1.08a1.57,1.57,0,0,0,.085-.514,1.6,1.6,0,0,0-.032-.319l1.21-.3a2.837,2.837,0,0,1-.1,1.589Zm-.524-1.767a1.59,1.59,0,0,0-.767-.325l.114-1.243a2.823,2.823,0,0,1,1.466.623Zm-3.445-1.586H11.61V18.5H10.381Zm-2.734,0H8.876V18.5H7.647Zm-2.736,0H6.14V18.5H4.911Z" transform="translate(-0.756 -1.455)" fill="#fff" stroke="#fff" stroke-width="0.6"/>
        </g>
      </g>
      <g id="Group_2674" data-name="Group 2674" transform="translate(814.375 1331.252)">
        <g id="Ellipse_11" data-name="Ellipse 11" transform="translate(0 0)" fill="none" stroke="#fff" stroke-width="1.6">
          <ellipse cx="7.17" cy="7.17" rx="7.17" ry="7.17" stroke="none"/>
          <ellipse cx="7.17" cy="7.17" rx="6.37" ry="6.37" fill="none"/>
        </g>
        <path id="Path_1181" data-name="Path 1181" d="M-10667.5,7165.718v2.607l1.79,1.771" transform="translate(10674.804 -7160.737)" fill="none" stroke="#fff" stroke-width="1.6"/>
        <circle id="Ellipse_12" data-name="Ellipse 12" cx="0.458" cy="0.458" r="0.458" transform="translate(6.712 2.452)" fill="#fff"/>
        <circle id="Ellipse_15" data-name="Ellipse 15" cx="0.458" cy="0.458" r="0.458" transform="translate(10.972 6.712)" fill="#fff"/>
        <circle id="Ellipse_13" data-name="Ellipse 13" cx="0.458" cy="0.458" r="0.458" transform="translate(6.712 10.972)" fill="#fff"/>
        <circle id="Ellipse_14" data-name="Ellipse 14" cx="0.458" cy="0.458" r="0.458" transform="translate(2.147 6.712)" fill="#fff"/>
        <line id="Line_185" data-name="Line 185" y1="0.34" x2="0.34" transform="translate(11.356 1.289) rotate(-8)" fill="none" stroke="#fff" stroke-linecap="round" stroke-width="1.8"/>
      </g>
    </g>
  </g>
</svg>
