<svg id="Icon_track_signature" xmlns="http://www.w3.org/2000/svg" xmlns:xlink="http://www.w3.org/1999/xlink" width="60" height="60" viewBox="0 0 60 60">
  <defs>
    <clipPath id="clip-path">
      <rect id="Rectangle_968" data-name="Rectangle 968" width="25.067" height="10.277" fill="#fff" stroke="#fff" stroke-width="0.8"/>
    </clipPath>
  </defs>
  <path id="Path_273" data-name="Path 273" d="M114.521,230.126h-4.535a.892.892,0,0,1-.891-.892V180.027a1.79,1.79,0,0,0-1.784-1.791h-50.1a1.794,1.794,0,0,0-1.79,1.791v50.1a1.792,1.792,0,0,0,1.79,1.791h49.2a.894.894,0,0,1,.9.9v4.533a.886.886,0,0,0,.887.89h6.324a.892.892,0,0,0,.9-.89v-6.325a.9.9,0,0,0-.9-.9" transform="translate(-55.418 -178.236)" fill="#8fc740"/>
  <g id="Group_2677" data-name="Group 2677" transform="translate(-1020 -2334.619)">
    <rect id="Rectangle_970" data-name="Rectangle 970" width="34.224" height="21.399" rx="3" transform="translate(1029.421 2355.5)" fill="none" stroke="#fff" stroke-miterlimit="10" stroke-width="1.6"/>
    <g id="Group_2678" data-name="Group 2678" transform="translate(1034 2363)">
      <g id="Group_2677-2" data-name="Group 2677" transform="translate(0 0)" clip-path="url(#clip-path)">
        <path id="Path_1938" data-name="Path 1938" d="M23.572,8.761h1.495v1.517H23.572Zm-3.327,0H21.74v1.517H20.245Zm-3.327,0h1.5v1.517h-1.5Zm-3.327,0h1.495v1.517H13.592Zm-3.327,0H11.76v1.517H10.265Zm-3.326,0H8.434v1.517H6.94ZM5.108,10.277A5.111,5.111,0,0,1,3.37,9.964L3.916,8.55a3.621,3.621,0,0,0,1.192.21ZM1.586,8.851A5.092,5.092,0,0,1,.535,7.423L1.9,6.77a3.622,3.622,0,0,0,.713.968ZM.006,5.385C0,5.3,0,5.221,0,5.139A5.141,5.141,0,0,1,.226,3.626L1.668,4.1a3.617,3.617,0,0,0-.151,1.044c0,.05,0,.1,0,.15Zm1.238-3.6A5.147,5.147,0,0,1,2.615.66l.724,1.333a3.631,3.631,0,0,0-.93.763ZM4.622.026A4.986,4.986,0,0,1,5.139,0H6.2V1.516H5.139c-.115,0-.229.006-.341.016ZM8.036,0H9.53V1.516H8.036Z" transform="translate(0 0)" fill="#fff" stroke="#fff" stroke-width="0.8"/>
      </g>
    </g>
    <g id="Rectangle_969" data-name="Rectangle 969" transform="matrix(0.574, -0.819, 0.819, 0.574, 1047.986, 2360.706)" fill="#8fc740" stroke="#fff" stroke-width="2">
      <rect width="21" height="6" rx="1" stroke="none"/>
      <rect x="1" y="1" width="19" height="4" fill="none"/>
    </g>
    <path id="Path_1939" data-name="Path 1939" d="M4572.077,2252.437s-1.637,4.078-.765,4.671,4.045-2.534,4.045-2.534Z" transform="translate(-3523 108.402)" fill="none" stroke="#fff" stroke-width="1.4"/>
    <line id="Line_212" data-name="Line 212" x2="4" y2="3" transform="translate(1057.5 2347.5)" fill="none" stroke="#fff" stroke-width="2"/>
  </g>
</svg>
