<svg id="Icon_signing_across_borders" xmlns="http://www.w3.org/2000/svg" width="60" height="60" viewBox="0 0 60 60">
  <path id="Path_273" data-name="Path 273" d="M114.521,230.126h-4.535a.892.892,0,0,1-.891-.892V180.027a1.79,1.79,0,0,0-1.784-1.791h-50.1a1.794,1.794,0,0,0-1.79,1.791v50.1a1.792,1.792,0,0,0,1.79,1.791h49.2a.894.894,0,0,1,.9.9v4.533a.886.886,0,0,0,.887.89h6.324a.892.892,0,0,0,.9-.89v-6.325a.9.9,0,0,0-.9-.9" transform="translate(-55.418 -178.236)" fill="#8fc740"/>
  <g id="Group_2690" data-name="Group 2690" transform="translate(-2.461 0.443)">
    <g id="Group_2681" data-name="Group 2681" transform="translate(10.073 12.576)">
      <path id="Path_1944" data-name="Path 1944" d="M20.008.5H38.127c.24,0,.435.279.435.623v14.8c0,.345-.194.624-.435.624H.934c-.24,0-.434.279-.434.623V23.2c0,.345.194.624.434.624h17.4" transform="translate(-1.172 5.731)" fill="none" stroke="#fff" stroke-miterlimit="10" stroke-width="1.8"/>
      <ellipse id="Ellipse_22" data-name="Ellipse 22" cx="1.893" cy="1.893" rx="1.893" ry="1.893" transform="translate(6.492 20.249)" fill="#8fc740" stroke="#fff" stroke-miterlimit="10" stroke-width="2"/>
      <ellipse id="Ellipse_23" data-name="Ellipse 23" cx="1.893" cy="1.893" rx="1.893" ry="1.893" transform="translate(16.465 20.249)" fill="#8fc740" stroke="#fff" stroke-miterlimit="10" stroke-width="2"/>
      <ellipse id="Ellipse_24" data-name="Ellipse 24" cx="1.893" cy="1.893" rx="1.893" ry="1.893" transform="translate(26.439 20.249)" fill="#8fc740" stroke="#fff" stroke-miterlimit="10" stroke-width="2"/>
      <ellipse id="Ellipse_25" data-name="Ellipse 25" cx="1.893" cy="1.893" rx="1.893" ry="1.893" transform="translate(26.439 4.338)" fill="#8fc740" stroke="#fff" stroke-miterlimit="10" stroke-width="2"/>
      <path id="Path_1352" data-name="Path 1352" d="M442.438,2044h3.86v1.665a.354.354,0,0,0,.258.343,7.82,7.82,0,0,1,1.448.588h.347l.034-.021a.215.215,0,0,0,.023-.023c.007-.006.019-.008.022-.011l.011-.012c.012-.012.024-.035.045-.055.04-.04.1-.088.168-.156.137-.132.324-.322.505-.5.238-.233.336-.332.471-.466l2.715,2.7c-.137.135-.228.227-.46.456-.181.178-.369.355-.505.489-.068.067-.116.126-.157.166-.02.02-.044.032-.056.044s0,.017-.011.023a.092.092,0,0,0-.011.011.109.109,0,0,0-.023.023c-.006.008-.023.044-.023.044l-.023.3a.393.393,0,0,0,.023.033,7.55,7.55,0,0,1,.595,1.432.358.358,0,0,0,.348.254h1.694v3.795h-1.694a.359.359,0,0,0-.348.244,7.5,7.5,0,0,1-.595,1.432v.344l.023.034a.275.275,0,0,0,.023.023c.006.006.008.019.011.021a.046.046,0,0,0,.011.012c.012.012.036.024.056.044.04.04.089.1.157.166.136.134.323.311.505.489.232.229.323.32.46.455l-2.715,2.7c-.135-.134-.234-.233-.471-.466-.181-.178-.369-.355-.505-.489-.068-.067-.116-.126-.157-.166-.02-.02-.044-.033-.056-.046s-.007-.017-.011-.021-.007,0-.011,0l-.011-.012-.023-.021-.213-.067a.362.362,0,0,0-.168.045,7.854,7.854,0,0,1-1.448.588.354.354,0,0,0-.258.343v1.665h-3.86v-1.665a.353.353,0,0,0-.258-.343,7.855,7.855,0,0,1-1.448-.588.361.361,0,0,0-.426.066l-1.189,1.176-2.726-2.686,1.189-1.177a.349.349,0,0,0,.056-.42,7.538,7.538,0,0,1-.595-1.432.359.359,0,0,0-.348-.244H435v-3.794h1.694a.361.361,0,0,0,.348-.255,7.505,7.505,0,0,1,.595-1.432.353.353,0,0,0-.056-.422l-1.189-1.176,2.715-2.684,1.2,1.187a.361.361,0,0,0,.426.055,7.688,7.688,0,0,1,1.448-.588.357.357,0,0,0,.258-.344V2044Z" transform="translate(-435 -2047.393)" fill="none" stroke="#fff" stroke-miterlimit="8" stroke-width="1.8" fill-rule="evenodd"/>
      <path id="Path_1353" data-name="Path 1353" d="M474.885,2079a3.885,3.885,0,1,0,3.885,3.889A3.9,3.9,0,0,0,474.885,2079Z" transform="translate(-465.515 -2077.061)" fill="none" stroke="#fff" stroke-miterlimit="8" stroke-width="1.8" fill-rule="evenodd"/>
      <g id="Group_2682" data-name="Group 2682" transform="translate(17.223 26.762)">
        <g id="Rectangle_972" data-name="Rectangle 972" transform="translate(3.42 0)" fill="#8fc740" stroke="#fff" stroke-width="1.8">
          <rect width="18.153" height="5.187" rx="1" stroke="none"/>
          <rect x="0.9" y="0.9" width="16.353" height="3.387" rx="0.1" fill="none"/>
        </g>
        <path id="Path_1943" data-name="Path 1943" d="M.86,0S-.519,3.531.215,4.044,3.624,1.85,3.624,1.85Z" transform="translate(3.466 0.201) rotate(56)" fill="none" stroke="#fff" stroke-width="1.4"/>
        <line id="Line_213" data-name="Line 213" x2="3.458" y2="2.593" transform="matrix(0.574, 0.819, -0.819, 0.574, 17.488, 0.189)" fill="none" stroke="#fff" stroke-width="2"/>
      </g>
    </g>
  </g>
</svg>
