<svg xmlns="http://www.w3.org/2000/svg" width="60.162" height="60.162" viewBox="0 0 60.162 60.162"><path d="M114.681,230.266h-4.548a.894.894,0,0,1-.894-.894v-49.34a1.8,1.8,0,0,0-1.789-1.8H57.213a1.8,1.8,0,0,0-1.8,1.8v50.234a1.8,1.8,0,0,0,1.8,1.8h49.335a.9.9,0,0,1,.9.9v4.545a.888.888,0,0,0,.89.892h6.341a.894.894,0,0,0,.9-.892v-6.342a.9.9,0,0,0-.9-.9" transform="translate(-55.418 -178.236)" fill="#758cc5"></path><g transform="translate(1646.576 -1299.708)"><path d="M-1614.117,1336.356l6.515-1.388a1.465,1.465,0,0,1,1.666.79,1.422,1.422,0,0,1-.833,1.709l-11.37,4.784a17.9,17.9,0,0,1-6.035,1.005,14.266,14.266,0,0,1-3.708-.45l-1.289-.386" fill="none" stroke="#fff" stroke-linecap="round" stroke-miterlimit="10" stroke-width="2"></path><path d="M-1629.171,1343.256l-2.5,1.666-5.829-10.826,2.5-1.666Z" fill="none" stroke="#fff" stroke-linecap="round" stroke-miterlimit="10" stroke-width="2"></path><path d="M-1624.174,1338.26h7.911a2.082,2.082,0,0,0,2.081-2.082h0a2.082,2.082,0,0,0-2.081-2.082h-5.413l-.71-.533a9.837,9.837,0,0,0-5.9-1.965h0a9.829,9.829,0,0,0-3.9.808l-1.982.857" fill="none" stroke="#fff" stroke-linecap="round" stroke-miterlimit="10" stroke-width="2"></path><g transform="translate(-1 -1.452)"><path d="M-1611.321,1309.053s-5.374,6-10.665,6c0,14.167,10,18,10,18s11.332-3.831,11.332-18C-1605.947,1315.052-1611.321,1309.053-1611.321,1309.053Z" fill="none" stroke="#fff" stroke-linecap="round" stroke-miterlimit="10" stroke-width="2"></path><circle cx="5.999" cy="5.999" r="5.999" transform="translate(-1617.32 1315.719)" fill="none" stroke="#fff" stroke-linecap="round" stroke-miterlimit="10" stroke-width="2"></circle><path d="M-1613.321,1324.384h2.667a1.333,1.333,0,0,0,1.333-1.333h0a1.333,1.333,0,0,0-1.333-1.333h-1.333a1.334,1.334,0,0,1-1.334-1.333h0a1.334,1.334,0,0,1,1.334-1.333h2.666" fill="none" stroke="#fff" stroke-linecap="round" stroke-miterlimit="10" stroke-width="2"></path><line y2="1.333" transform="translate(-1611.321 1317.719)" fill="none" stroke="#fff" stroke-linecap="round" stroke-miterlimit="10" stroke-width="2"></line><line y2="1.333" transform="translate(-1611.321 1324.385)" fill="none" stroke="#fff" stroke-linecap="round" stroke-miterlimit="10" stroke-width="2"></line></g></g></svg>