<svg xmlns="http://www.w3.org/2000/svg" width="60.162" height="60.162" viewBox="0 0 60.162 60.162"><path d="M114.681,230.266h-4.548a.894.894,0,0,1-.894-.894v-49.34a1.8,1.8,0,0,0-1.789-1.8H57.213a1.8,1.8,0,0,0-1.8,1.8v50.234a1.8,1.8,0,0,0,1.8,1.8h49.335a.9.9,0,0,1,.9.9v4.545a.888.888,0,0,0,.89.892h6.341a.894.894,0,0,0,.9-.892v-6.342a.9.9,0,0,0-.9-.9" transform="translate(-55.418 -178.236)" fill="#758cc5"></path><g transform="translate(1699.576 -1300.708)"><path d="M-1686.271,1313.936l-4.2,7.8a.166.166,0,0,0,.165.236h35.331a.166.166,0,0,0,.166-.235l-4.114-7.889a.187.187,0,0,0-.167-.095l-27.012.085A.184.184,0,0,0-1686.271,1313.936Z" fill="none" stroke="#fff" stroke-linecap="round" stroke-miterlimit="10" stroke-width="2"></path><line x1="2.055" y2="2.996" transform="translate(-1683.121 1316.419)" fill="none" stroke="#fff" stroke-linecap="round" stroke-miterlimit="10" stroke-width="2"></line><line x1="1.883" y2="3.253" transform="translate(-1678.167 1316.156)" fill="none" stroke="#fff" stroke-linecap="round" stroke-miterlimit="10" stroke-width="2"></line><line x2="0.086" y2="3.082" transform="translate(-1672.432 1316.241)" fill="none" stroke="#fff" stroke-linecap="round" stroke-miterlimit="10" stroke-width="2"></line><line x2="2.14" y2="3.339" transform="translate(-1668.151 1316.241)" fill="none" stroke="#fff" stroke-linecap="round" stroke-miterlimit="10" stroke-width="2"></line><line x2="2.226" y2="3.167" transform="translate(-1663.536 1316.221)" fill="none" stroke="#fff" stroke-linecap="round" stroke-miterlimit="10" stroke-width="2"></line><path d="M-1680.189,1323.429a3.189,3.189,0,0,1-3.189,3.189,3.189,3.189,0,0,1-3.189-3.189" transform="translate(-0.355 -0.875)" fill="none" stroke="#fff" stroke-linecap="round" stroke-miterlimit="10" stroke-width="2"></path><path d="M-1672.1,1323.429a3.189,3.189,0,0,1-3.189,3.189,3.189,3.189,0,0,1-3.188-3.189" transform="translate(-1.087 -0.875)" fill="none" stroke="#fff" stroke-linecap="round" stroke-miterlimit="10" stroke-width="2"></path><path d="M-1663.842,1323.429a3.189,3.189,0,0,1-3.189,3.189,3.189,3.189,0,0,1-3.189-3.189" transform="translate(-1.834 -0.875)" fill="none" stroke="#fff" stroke-linecap="round" stroke-miterlimit="10" stroke-width="2"></path><path d="M-1656.185,1323.429a3.189,3.189,0,0,1-3.189,3.189,3.189,3.189,0,0,1-3.189-3.189" transform="translate(-2.526 -0.875)" fill="none" stroke="#fff" stroke-linecap="round" stroke-miterlimit="10" stroke-width="2"></path><line y2="16.436" transform="translate(-1687.156 1323.346)" fill="none" stroke="#fff" stroke-linecap="round" stroke-miterlimit="10" stroke-width="2"></line><line y2="16.779" transform="translate(-1658.136 1323.346)" fill="none" stroke="#fff" stroke-linecap="round" stroke-miterlimit="10" stroke-width="2"></line><line x2="35.355" transform="translate(-1690.323 1340.895)" fill="none" stroke="#fff" stroke-linecap="round" stroke-miterlimit="10" stroke-width="2"></line><line y2="14.125" transform="translate(-1675.085 1325.914)" fill="none" stroke="#fff" stroke-linecap="round" stroke-miterlimit="10" stroke-width="2"></line><line x1="5.393" y2="5.564" transform="translate(-1669.179 1329.852)" fill="none" stroke="#fff" stroke-linecap="round" stroke-miterlimit="10" stroke-width="2"></line><line x1="2.568" y2="2.825" transform="translate(-1665.498 1333.619)" fill="none" stroke="#fff" stroke-linecap="round" stroke-miterlimit="10" stroke-width="2"></line><circle cx="0.77" cy="0.77" r="0.77" transform="translate(-1678.46 1332.823)" fill="#fff"></circle></g></svg>