<svg xmlns="http://www.w3.org/2000/svg" width="60.162" height="60.162" viewBox="0 0 60.162 60.162"><path d="M114.681,230.266h-4.548a.894.894,0,0,1-.894-.894v-49.34a1.8,1.8,0,0,0-1.789-1.8H57.213a1.8,1.8,0,0,0-1.8,1.8v50.234a1.8,1.8,0,0,0,1.8,1.8h49.335a.9.9,0,0,1,.9.9v4.545a.888.888,0,0,0,.89.892h6.341a.894.894,0,0,0,.9-.892v-6.342a.9.9,0,0,0-.9-.9" transform="translate(-55.418 -178.236)" fill="#758cc5"></path><g transform="translate(1648.682 -1342.412)"><path d="M-1611.457,1365.739a9.591,9.591,0,0,1-3.26,8.487,4.763,4.763,0,0,0-1.651,2.922l-.32,2.262a1.208,1.208,0,0,1-1.2,1.038h-6.512a1.208,1.208,0,0,1-1.2-1.042l-.354-2.56a4.672,4.672,0,0,0-1.5-2.8,9.557,9.557,0,0,1-3.129-7.09,9.6,9.6,0,0,1,10.7-9.539A9.62,9.62,0,0,1-1611.457,1365.739Z" transform="translate(-0.103 -0.102)" fill="none" stroke="#fff" stroke-linecap="round" stroke-miterlimit="10" stroke-width="2"></path><path d="M0,0H6.991a0,0,0,0,1,0,0V2.139A2.983,2.983,0,0,1,4.008,5.121H2.983A2.983,2.983,0,0,1,0,2.139V0A0,0,0,0,1,0,0Z" transform="translate(-1624.823 1380.751)" fill="none" stroke="#fff" stroke-linecap="round" stroke-miterlimit="10" stroke-width="2"></path><line x2="4.129" transform="translate(-1622.303 1383.271)" fill="none" stroke="#fff" stroke-linecap="round" stroke-miterlimit="10" stroke-width="2"></line><line x2="2.72" y2="2.063" transform="translate(-1634.279 1359.133)" fill="none" stroke="#fff" stroke-linecap="round" stroke-miterlimit="10" stroke-width="2"></line><line x2="3.414" transform="translate(-1636.681 1368.324)" fill="none" stroke="#fff" stroke-linecap="round" stroke-miterlimit="10" stroke-width="2"></line><line x2="3.414" transform="translate(-1608.798 1368.324)" fill="none" stroke="#fff" stroke-linecap="round" stroke-miterlimit="10" stroke-width="2"></line><line y1="2.414" x2="2.414" transform="translate(-1632.88 1376.291)" fill="none" stroke="#fff" stroke-linecap="round" stroke-miterlimit="10" stroke-width="2"></line><line x1="2.778" y2="1.984" transform="translate(-1610.808 1359.352)" fill="none" stroke="#fff" stroke-linecap="round" stroke-miterlimit="10" stroke-width="2"></line><line x1="2.561" y1="2.258" transform="translate(-1611.953 1376.084)" fill="none" stroke="#fff" stroke-linecap="round" stroke-miterlimit="10" stroke-width="2"></line><line y2="3.877" transform="translate(-1620.933 1351.311)" fill="none" stroke="#fff" stroke-linecap="round" stroke-miterlimit="10" stroke-width="2"></line><path d="M-1626.578,1367.144a5.368,5.368,0,0,1,5.368-5.368" transform="translate(-0.17 -0.176)" fill="none" stroke="#fff" stroke-linecap="round" stroke-miterlimit="10" stroke-width="2"></path></g></svg>