<svg xmlns="http://www.w3.org/2000/svg" width="60.162" height="60.162" viewBox="0 0 60.162 60.162"><path d="M114.681,230.266h-4.548a.894.894,0,0,1-.894-.894v-49.34a1.8,1.8,0,0,0-1.789-1.8H57.213a1.8,1.8,0,0,0-1.8,1.8v50.234a1.8,1.8,0,0,0,1.8,1.8h49.335a.9.9,0,0,1,.9.9v4.545a.888.888,0,0,0,.89.892h6.341a.894.894,0,0,0,.9-.892v-6.342a.9.9,0,0,0-.9-.9" transform="translate(-55.418 -178.236)" fill="#758cc5"></path><g transform="translate(1552.061 -1373.352)"><line x2="37.548" transform="translate(-1543.718 1414.77)" fill="none" stroke="#fff" stroke-miterlimit="10" stroke-width="2"></line><path d="M-1540.624,1414V1392.8h17.172V1414" fill="none" stroke="#fff" stroke-linecap="round" stroke-miterlimit="10" stroke-width="2"></path><path d="M-1509.529,1413.687v-20.658h-8.818l-2.321,2.745v17.913" fill="none" stroke="#fff" stroke-linecap="round" stroke-miterlimit="10" stroke-width="2"></path><path d="M-1532.115,1392.648v-8.354h13.923v8.171" fill="none" stroke="#fff" stroke-linecap="round" stroke-miterlimit="10" stroke-width="2"></path><rect width="4.631" height="1.926" transform="translate(-1537.984 1396.671)" fill="#fff"></rect><rect width="4.631" height="1.926" transform="translate(-1530.713 1396.671)" fill="#fff"></rect><rect width="6.188" height="1.926" transform="translate(-1518.037 1396.671)" fill="#fff"></rect><rect width="9.36" height="1.546" transform="translate(-1529.853 1386.677)" fill="#fff"></rect><rect width="9.36" height="1.546" transform="translate(-1529.853 1389.052)" fill="#fff"></rect><rect width="6.188" height="1.926" transform="translate(-1518.037 1400.538)" fill="#fff"></rect><rect width="6.188" height="1.926" transform="translate(-1518.037 1405.644)" fill="#fff"></rect><rect width="6.188" height="1.926" transform="translate(-1518.037 1409.511)" fill="#fff"></rect><rect width="4.631" height="1.926" transform="translate(-1537.984 1400.693)" fill="#fff"></rect><rect width="4.631" height="1.926" transform="translate(-1530.713 1400.693)" fill="#fff"></rect><rect width="4.631" height="1.926" transform="translate(-1537.984 1405.489)" fill="#fff"></rect><rect width="4.631" height="1.926" transform="translate(-1530.713 1405.489)" fill="#fff"></rect><rect width="4.631" height="1.926" transform="translate(-1537.984 1409.821)" fill="#fff"></rect><rect width="4.631" height="1.926" transform="translate(-1530.713 1409.821)" fill="#fff"></rect></g></svg>