<svg xmlns="http://www.w3.org/2000/svg" width="60.162" height="60.162" viewBox="0 0 60.162 60.162"><path d="M114.681,230.266h-4.548a.894.894,0,0,1-.894-.894v-49.34a1.8,1.8,0,0,0-1.789-1.8H57.213a1.8,1.8,0,0,0-1.8,1.8v50.234a1.8,1.8,0,0,0,1.8,1.8h49.335a.9.9,0,0,1,.9.9v4.545a.888.888,0,0,0,.89.892h6.341a.894.894,0,0,0,.9-.892v-6.342a.9.9,0,0,0-.9-.9" transform="translate(-55.418 -178.236)" fill="#758cc5"></path><g transform="translate(-7829.822 -2248.09)"><path d="M-1553.01,1424.76v9.64l2.94,4.56h8.04v-14.2Zm8.85,8.34h-6.68v-5.8h6.68Z" transform="translate(9416.535 843.1)" fill="#fff"></path><rect width="13.623" height="4.544" transform="translate(7859.547 2279.388)" fill="#fff"></rect><rect width="22.101" height="7.233" rx="0.405" transform="translate(7853.612 2285.673)" fill="none" stroke="#fff" stroke-linecap="round" stroke-miterlimit="10" stroke-width="2"></rect><rect width="12.725" height="0.67" transform="translate(7837.825 2289.424)" fill="none" stroke="#fff" stroke-linecap="round" stroke-miterlimit="10" stroke-width="2"></rect><rect width="12.725" height="0.67" transform="translate(7837.825 2284.669)" fill="none" stroke="#fff" stroke-linecap="round" stroke-miterlimit="10" stroke-width="2"></rect><rect width="9.201" height="4.073" transform="translate(7839.677 2285.339)" fill="#fff"></rect><path d="M-1574.309,1413.909l12.858,24.779,3.081-.268,3.884-3.081-16.743-23.44Z" transform="translate(9416.535 843.1)" fill="none" stroke="#fff" stroke-linecap="round" stroke-miterlimit="10" stroke-width="2"></path><line y2="6.429" transform="translate(7845.843 2256.206)" fill="none" stroke="#fff" stroke-linecap="round" stroke-miterlimit="10" stroke-width="2"></line><line y1="2.411" x2="3.616" transform="translate(7846.111 2261.965)" fill="none" stroke="#fff" stroke-linecap="round" stroke-miterlimit="10" stroke-width="2"></line><line x1="0.536" y2="6.697" transform="translate(7849.191 2262.099)" fill="none" stroke="#fff" stroke-linecap="round" stroke-miterlimit="10" stroke-width="2"></line><line y1="2.411" x2="3.616" transform="translate(7849.325 2267.323)" fill="none" stroke="#fff" stroke-linecap="round" stroke-miterlimit="10" stroke-width="2"></line><line x1="0.938" y2="6.965" transform="translate(7851.87 2267.323)" fill="none" stroke="#fff" stroke-linecap="round" stroke-miterlimit="10" stroke-width="2"></line><line y1="2.411" x2="3.616" transform="translate(7852.406 2272.546)" fill="none" stroke="#fff" stroke-linecap="round" stroke-miterlimit="10" stroke-width="2"></line><line x1="0.938" y2="7.728" transform="translate(7855.835 2273.123)" fill="none" stroke="#fff" stroke-linecap="round" stroke-miterlimit="10" stroke-width="2"></line><line y2="10.581" transform="translate(7842.762 2258.616)" fill="none" stroke="#fff" stroke-linecap="round" stroke-miterlimit="10" stroke-width="1.5"></line><line y2="5.224" transform="translate(7845.441 2263.572)" fill="none" stroke="#fff" stroke-linecap="round" stroke-miterlimit="10" stroke-width="1.5"></line><path d="M-1571.5,1431.187h-2.009l-1.339-5.224h4.42Z" transform="translate(9416.535 843.1)" fill="none" stroke="#fff" stroke-linecap="round" stroke-linejoin="round" stroke-width="2"></path><path d="M-1570.692,1435.786a2.009,2.009,0,0,1-2.009,2.009,2.008,2.008,0,0,1-2.009-2.009,2.008,2.008,0,0,1,2.009-2.009v-2.233" transform="translate(9416.535 843.1)" fill="none" stroke="#fff" stroke-linecap="round" stroke-miterlimit="10" stroke-width="2"></path><line y1="3.549" x2="3.349" transform="translate(7838.744 2280.918)" fill="none" stroke="#fff" stroke-linecap="round" stroke-miterlimit="10" stroke-width="2"></line><line x1="3.237" y1="3.795" transform="translate(7845.776 2280.315)" fill="none" stroke="#fff" stroke-linecap="round" stroke-miterlimit="10" stroke-width="2"></line></g></svg>