<svg id="Icon-Migrate" xmlns="http://www.w3.org/2000/svg" width="60.234" height="60.234" viewBox="0 0 60.234 60.234">
  <path id="Path_1004" data-name="Path 1004" d="M114.752,230.329H110.2a.9.9,0,0,1-.895-.9v-49.4a1.8,1.8,0,0,0-1.791-1.8h-50.3a1.8,1.8,0,0,0-1.8,1.8v50.294a1.8,1.8,0,0,0,1.8,1.8H106.61a.9.9,0,0,1,.9.9v4.551a.889.889,0,0,0,.891.893h6.348a.9.9,0,0,0,.9-.893v-6.349a.9.9,0,0,0-.9-.9" transform="translate(-55.418 -178.236)" fill="#0f7ac9"/>
  <g id="Group_2693" data-name="Group 2693" transform="translate(0 1)">
    <path id="Path_1475" data-name="Path 1475" d="M425.9,1406.681a5.213,5.213,0,0,1-2.893-4.657,7.148,7.148,0,0,1,2.884-5.889,5.167,5.167,0,0,1,2.947-1.074,2.941,2.941,0,0,1,.892.135.659.659,0,0,0,.519,0,.693.693,0,0,0,.321-.4c0-.073,2.286-7.251,9.885-7.759s9.824,5.362,9.886,5.623h0a.653.653,0,0,0,.7.428s4.394-.483,7.1,1.932a7.2,7.2,0,0,1,2.171,5.639,6.546,6.546,0,0,1-1.884,4.934c-2.5,2.395-6.689,2.244-6.733,2.244H430.154a8.444,8.444,0,0,1-4.261-1.152Z" transform="translate(-414.588 -1377.861)" fill="none" stroke="#fff" stroke-miterlimit="8" stroke-width="1.8" fill-rule="evenodd"/>
    <rect id="Rectangle_975" data-name="Rectangle 975" width="18" height="5" transform="translate(18 27.322)" fill="#0f7ac9"/>
    <path id="Icon_awesome-long-arrow-alt-down" data-name="Icon awesome-long-arrow-alt-down" d="M7.249,14.779V2.729A.479.479,0,0,0,6.77,2.25H4.535a.479.479,0,0,0-.479.479v12.05H2.218a.958.958,0,0,0-.677,1.635l3.435,3.435a.958.958,0,0,0,1.355,0l3.435-3.435a.958.958,0,0,0-.677-1.635H7.249Z" transform="translate(37.618 40.467) rotate(180)" fill="#56a3da" stroke="#fff" stroke-width="1.5"/>
    <path id="Icon_awesome-long-arrow-alt-down-2" data-name="Icon awesome-long-arrow-alt-down" d="M7.249,14.779V2.729A.479.479,0,0,0,6.77,2.25H4.535a.479.479,0,0,0-.479.479v12.05H2.218a.958.958,0,0,0-.677,1.635l3.435,3.435a.958.958,0,0,0,1.355,0l3.435-3.435a.958.958,0,0,0-.677-1.635H7.249Z" transform="translate(16.525 23.768)" fill="#56a3da" stroke="#fff" stroke-width="1.5"/>
  </g>
</svg>
