<svg xmlns="http://www.w3.org/2000/svg" width="60" height="60" viewBox="0 0 60 60">
  <g id="Icon-Download" transform="translate(0 -1069)">
    <path id="Path_273" data-name="Path 273" d="M114.521,230.126h-4.535a.892.892,0,0,1-.891-.892V180.027a1.79,1.79,0,0,0-1.784-1.791h-50.1a1.794,1.794,0,0,0-1.79,1.791v50.1a1.792,1.792,0,0,0,1.79,1.791h49.2a.894.894,0,0,1,.9.9v4.533a.886.886,0,0,0,.887.89h6.324a.892.892,0,0,0,.9-.89v-6.325a.9.9,0,0,0-.9-.9" transform="translate(-55.418 890.764)" fill="#cf142b"></path>
    <path id="Path_269" data-name="Path 269" d="M18,35.675h0a.541.541,0,0,1-.38-.158l-6.871-6.932a.534.534,0,1,1,.76-.751l5.957,6.009V14.949a.534.534,0,1,1,1.069,0V33.842l5.958-6.01a.535.535,0,0,1,.76.752l-6.873,6.933a.542.542,0,0,1-.379.157M27.655,22.9H23.671a.534.534,0,0,1,0-1.069h3.983A7.281,7.281,0,1,0,26.182,7.419a.524.524,0,0,1-.606-.329A9.456,9.456,0,0,0,7.309,10.524l0,.137a.538.538,0,0,1-.166.394.526.526,0,0,1-.4.146c-.118-.007-.234-.013-.353-.013a5.322,5.322,0,0,0,0,10.644h5.351a.534.534,0,0,1,0,1.069H6.39a6.391,6.391,0,0,1-.141-12.78A10.524,10.524,0,0,1,26.4,6.3,8.35,8.35,0,1,1,27.655,22.9" transform="translate(8.981 1077.923)" fill="#fff" stroke="#fff" stroke-width="1"></path>
  </g>
</svg>
