<svg xmlns="http://www.w3.org/2000/svg" width="100" height="100" viewBox="0 0 100 100">
  <g id="Icon-Managed_Service" data-name="Icon-Managed Service" transform="translate(0 0)">
    <g id="Group_1204" data-name="Group 1204" transform="translate(0 0)">
      <path id="Path_273" data-name="Path 273" d="M153.923,264.719h-7.559a1.487,1.487,0,0,1-1.485-1.486V181.222a2.983,2.983,0,0,0-2.974-2.986H58.4a2.989,2.989,0,0,0-2.984,2.986v83.5a2.987,2.987,0,0,0,2.984,2.986h82a1.491,1.491,0,0,1,1.5,1.493v7.555a1.476,1.476,0,0,0,1.479,1.483h10.539a1.486,1.486,0,0,0,1.5-1.483V266.212a1.494,1.494,0,0,0-1.5-1.493" transform="translate(-55.418 -178.236)" fill="#cf142b"></path>
      <g id="RICOH_managed_services_001" data-name="RICOH_managed services_001" transform="translate(19.013 18.375)">
        <circle id="Ellipse_4" data-name="Ellipse 4" cx="10.632" cy="10.632" r="10.632" transform="translate(14.893 14.893)" fill="none" stroke="#fff" stroke-miterlimit="10" stroke-width="2"></circle>
        <path id="Path_994" data-name="Path 994" d="M164.049,138.453V131.38l-5.721-1.341A19.906,19.906,0,0,0,156,124.48l2.985-5.072-5-5.008-5,3.093a20.17,20.17,0,0,0-5.57-2.293l-1.471-5.7H134.88l-1.341,5.721a19.905,19.905,0,0,0-5.559,2.325l-5.072-2.985-5.008,5.008,3.093,5a20.034,20.034,0,0,0-2.293,5.57L113,131.6v7.073l5.721,1.341a20.207,20.207,0,0,0,2.315,5.559l-2.985,5.072,4.845,4.845a16.725,16.725,0,0,1,3.007-4.369,17.313,17.313,0,0,1,25.222,0,17.456,17.456,0,0,1,3.007,4.369h.011l5.008-5.008-3.1-4.975a20.17,20.17,0,0,0,2.293-5.57Z" transform="translate(-113 -109.5)" fill="none" stroke="#fff" stroke-miterlimit="10" stroke-width="2" fill-rule="evenodd"></path>
        <path id="Path_995" data-name="Path 995" d="M223.453,461.316H188.8a17.211,17.211,0,0,1,1.7-7.5,16.724,16.724,0,0,1,3.007-4.369,17.313,17.313,0,0,1,25.222,0,17.456,17.456,0,0,1,3.007,4.369,16.485,16.485,0,0,1,.973,2.488A17,17,0,0,1,223.453,461.316Z" transform="translate(-180.602 -407.822)" fill="none" stroke="#fff" stroke-linecap="round" stroke-linejoin="round" stroke-miterlimit="10" stroke-width="2"></path>
      </g>
    </g>
  </g>
</svg>
