<svg xmlns="http://www.w3.org/2000/svg" width="100" height="100" viewBox="0 0 100 100">
  <g id="Icon-Advisory" transform="translate(0 0)">
    <g id="Group_1204" data-name="Group 1204" transform="translate(0 0)">
      <path id="Path_273" data-name="Path 273" d="M153.923,264.719h-7.559a1.487,1.487,0,0,1-1.485-1.486V181.222a2.983,2.983,0,0,0-2.974-2.986H58.4a2.989,2.989,0,0,0-2.984,2.986v83.5a2.987,2.987,0,0,0,2.984,2.986h82a1.491,1.491,0,0,1,1.5,1.493v7.555a1.476,1.476,0,0,0,1.479,1.483h10.539a1.486,1.486,0,0,0,1.5-1.483V266.212a1.494,1.494,0,0,0-1.5-1.493" transform="translate(-55.418 -178.236)" fill="#768ec7"></path>
      <g id="RICOH_advisory_001" transform="translate(24.604 15.519)">
        <g id="Group_1433" data-name="Group 1433">
          <path id="Path_996" data-name="Path 996" d="M211.922,151.8v3.037a.643.643,0,0,1-.64.64H191.554a.643.643,0,0,1-.64-.64V151.8H181.1v50.236h40.623V151.8Z" transform="translate(-181.1 -144.408)" fill="none" stroke="#fff" stroke-miterlimit="10" stroke-width="2"></path>
          <path id="Path_997" data-name="Path 997" d="M280.458,100.53V97.079h-6.275a.728.728,0,0,1-.728-.728,3.476,3.476,0,0,0-6.952,0,.728.728,0,0,1-.728.728H259.5v6.275a.643.643,0,0,0,.64.64h19.69a.648.648,0,0,0,.653-.653Z" transform="translate(-249.661 -92.9)" fill="none" stroke="#fff" stroke-miterlimit="10" stroke-width="2"></path>
        </g>
        <g id="Group_1434" data-name="Group 1434" transform="translate(5.886 16.427)">
          <line id="Line_149" data-name="Line 149" x2="17.005" transform="translate(11.671 2.648)" fill="none" stroke="#fff" stroke-miterlimit="10" stroke-width="2"></line>
          <line id="Line_150" data-name="Line 150" x2="17.005" transform="translate(11.734 12.826)" fill="none" stroke="#fff" stroke-miterlimit="10" stroke-width="2"></line>
          <line id="Line_151" data-name="Line 151" x2="17.005" transform="translate(11.734 23.016)" fill="none" stroke="#fff" stroke-miterlimit="10" stroke-width="2"></line>
          <line id="Line_152" data-name="Line 152" x2="17.005" transform="translate(11.734 33.206)" fill="none" stroke="#fff" stroke-miterlimit="10" stroke-width="2"></line>
          <path id="Path_998" data-name="Path 998" d="M228,227.138l1.97,1.958,5.321-5.3" transform="translate(-228 -223.8)" fill="none" stroke="#fff" stroke-miterlimit="10" stroke-width="2"></path>
          <path id="Path_999" data-name="Path 999" d="M228,308.251l1.97,1.958,5.321-5.308" transform="translate(-228 -294.722)" fill="none" stroke="#fff" stroke-miterlimit="10" stroke-width="2"></path>
          <path id="Path_1000" data-name="Path 1000" d="M228,389.438l1.97,1.97,5.321-5.308" transform="translate(-228 -365.732)" fill="none" stroke="#fff" stroke-miterlimit="10" stroke-width="2"></path>
          <path id="Path_1001" data-name="Path 1001" d="M228,470.638l1.97,1.958,5.321-5.3" transform="translate(-228 -436.742)" fill="none" stroke="#fff" stroke-miterlimit="10" stroke-width="2"></path>
        </g>
      </g>
    </g>
  </g>
</svg>
