<svg xmlns="http://www.w3.org/2000/svg" width="100" height="100" viewBox="0 0 100 100">
  <g id="Icon-Development" transform="translate(0 0)">
    <g id="Group_1204" data-name="Group 1204" transform="translate(0 0)">
      <path id="Path_273" data-name="Path 273" d="M153.923,264.719h-7.559a1.487,1.487,0,0,1-1.485-1.486V181.222a2.983,2.983,0,0,0-2.974-2.986H58.4a2.989,2.989,0,0,0-2.984,2.986v83.5a2.987,2.987,0,0,0,2.984,2.986h82a1.491,1.491,0,0,1,1.5,1.493v7.555a1.476,1.476,0,0,0,1.479,1.483h10.539a1.486,1.486,0,0,0,1.5-1.483V266.212a1.494,1.494,0,0,0-1.5-1.493" transform="translate(-55.418 -178.236)" fill="#768ec7"></path>
      <g id="RICOH_deployment_001" transform="translate(14.465 16.538)">
        <circle id="Ellipse_3" data-name="Ellipse 3" cx="6.818" cy="6.818" r="6.818" transform="translate(23.05 23.05)" fill="none" stroke="#fef5f5" stroke-miterlimit="10" stroke-width="2"></circle>
        <path id="Path_985" data-name="Path 985" d="M218.345,204.268v-4.542l-3.67-.862a13.041,13.041,0,0,0-1.484-3.569l1.915-3.248-3.208-3.208-3.2,2a12.775,12.775,0,0,0-3.579-1.474l-.942-3.66h-4.542l-.862,3.67a13.04,13.04,0,0,0-3.569,1.484l-3.248-1.915-3.208,3.208,1.985,3.2a12.714,12.714,0,0,0-1.474,3.569l-3.66.942V204.4l3.67.862a13.041,13.041,0,0,0,1.484,3.569l-1.915,3.248,3.208,3.208,3.2-1.985a12.715,12.715,0,0,0,3.569,1.474l.942,3.66H204.3l.862-3.67a13.041,13.041,0,0,0,3.569-1.484l3.248,1.915,3.208-3.208-1.965-3.2a12.776,12.776,0,0,0,1.474-3.579Z" transform="translate(-172.115 -172.205)" fill="none" stroke="#fef5f5" stroke-miterlimit="10" stroke-width="2" fill-rule="evenodd"></path>
        <g id="Group_1425" data-name="Group 1425" transform="translate(25.817)">
          <line id="Line_141" data-name="Line 141" y1="10.427" transform="translate(4.191 0)" fill="none" stroke="#fef5f5" stroke-miterlimit="10" stroke-width="2"></line>
          <path id="Path_986" data-name="Path 986" d="M308.6,55.672l4.191-4.572,4.181,4.572" transform="translate(-308.6 -51.1)" fill="none" stroke="#fef5f5" stroke-miterlimit="10" stroke-width="2" fill-rule="evenodd"></path>
        </g>
        <g id="Group_1426" data-name="Group 1426" transform="translate(8.843 8.653)">
          <line id="Line_142" data-name="Line 142" x1="7.369" y1="7.369" transform="translate(0 0)" fill="none" stroke="#fef5f5" stroke-miterlimit="10" stroke-width="2"></line>
          <path id="Path_987" data-name="Path 987" d="M139.571,143.6l-.271-6.2,6.2.271" transform="translate(-139.3 -137.4)" fill="none" stroke="#fef5f5" stroke-miterlimit="10" stroke-width="2" fill-rule="evenodd"></path>
        </g>
        <g id="Group_1427" data-name="Group 1427" transform="translate(0 25.547)">
          <line id="Line_143" data-name="Line 143" x1="10.427" transform="translate(0 4.181)" fill="none" stroke="#fef5f5" stroke-miterlimit="10" stroke-width="2"></line>
          <path id="Path_988" data-name="Path 988" d="M55.672,314.272,51.1,310.081l4.572-4.181" transform="translate(-51.1 -305.9)" fill="none" stroke="#fef5f5" stroke-miterlimit="10" stroke-width="2" fill-rule="evenodd"></path>
        </g>
        <g id="Group_1428" data-name="Group 1428" transform="translate(8.653 43.523)">
          <line id="Line_144" data-name="Line 144" x1="7.369" y2="7.369" transform="translate(0)" fill="none" stroke="#fef5f5" stroke-miterlimit="10" stroke-width="2"></line>
          <path id="Path_989" data-name="Path 989" d="M143.6,502.825l-6.2.271.271-6.2" transform="translate(-137.4 -495.727)" fill="none" stroke="#fef5f5" stroke-miterlimit="10" stroke-width="2" fill-rule="evenodd"></path>
        </g>
        <g id="Group_1429" data-name="Group 1429" transform="translate(25.547 49.308)">
          <line id="Line_145" data-name="Line 145" y2="10.427" transform="translate(4.181 0)" fill="none" stroke="#fef5f5" stroke-miterlimit="10" stroke-width="2"></line>
          <path id="Path_990" data-name="Path 990" d="M314.272,601.3l-4.191,4.572L305.9,601.3" transform="translate(-305.9 -595.445)" fill="none" stroke="#fef5f5" stroke-miterlimit="10" stroke-width="2" fill-rule="evenodd"></path>
        </g>
        <g id="Group_1430" data-name="Group 1430" transform="translate(43.523 43.714)">
          <line id="Line_146" data-name="Line 146" x2="7.369" y2="7.369" transform="translate(0 0)" fill="none" stroke="#fef5f5" stroke-miterlimit="10" stroke-width="2"></line>
          <path id="Path_991" data-name="Path 991" d="M502.825,498.8l.271,6.2-6.2-.271" transform="translate(-495.727 -497.627)" fill="none" stroke="#fef5f5" stroke-miterlimit="10" stroke-width="2" fill-rule="evenodd"></path>
        </g>
        <g id="Group_1431" data-name="Group 1431" transform="translate(49.308 25.817)">
          <line id="Line_147" data-name="Line 147" x2="10.427" transform="translate(0 4.191)" fill="none" stroke="#fef5f5" stroke-miterlimit="10" stroke-width="2"></line>
          <path id="Path_992" data-name="Path 992" d="M601.3,308.6l4.572,4.191-4.572,4.181" transform="translate(-595.445 -308.6)" fill="none" stroke="#fef5f5" stroke-miterlimit="10" stroke-width="2" fill-rule="evenodd"></path>
        </g>
        <g id="Group_1432" data-name="Group 1432" transform="translate(43.714 8.843)">
          <line id="Line_148" data-name="Line 148" y1="7.369" x2="7.369" transform="translate(0)" fill="none" stroke="#fef5f5" stroke-miterlimit="10" stroke-width="2"></line>
          <path id="Path_993" data-name="Path 993" d="M498.8,139.571l6.2-.271-.271,6.2" transform="translate(-497.627 -139.3)" fill="none" stroke="#fef5f5" stroke-miterlimit="10" stroke-width="2" fill-rule="evenodd"></path>
        </g>
      </g>
    </g>
  </g>
</svg>
