<svg xmlns="http://www.w3.org/2000/svg" xmlns:xlink="http://www.w3.org/1999/xlink" width="210.641" height="59.07" viewBox="0 0 210.641 59.07"><defs><style>.a{fill:none;}.b{clip-path:url(#c);}.c{clip-path:url(#a);}.d{fill:#fff;}</style><clipPath id="a"><rect class="a" width="210.642" height="59.069"/></clipPath><clipPath id="c"><rect width="210.64" height="59.07"/></clipPath></defs><g id="b" class="b"><g class="c"><path class="d" d="M203.149,0H7.493A7.505,7.505,0,0,0,0,7.493V47.916a7.505,7.505,0,0,0,7.493,7.493H26.165V53.65H7.493a5.741,5.741,0,0,1-5.734-5.734V7.493A5.741,5.741,0,0,1,7.493,1.759H203.149a5.741,5.741,0,0,1,5.734,5.734V47.916a5.741,5.741,0,0,1-5.734,5.734H184.477v1.759h18.672a7.505,7.505,0,0,0,7.493-7.493V7.493A7.505,7.505,0,0,0,203.149,0"/><path class="d" d="M78.971,113.023h5.119v1.451H80.818v2.269h3.113v1.451H80.818v4.036H78.971Z" transform="translate(-44.243 -63.321)"/><path class="d" d="M98.662,112.664c2.889,0,4.512,1.952,4.512,4.736s-1.6,4.789-4.512,4.789c-2.955,0-4.511-1.966-4.511-4.789s1.583-4.736,4.511-4.736m0,8.073c1.887,0,2.586-1.676,2.586-3.338,0-1.623-.752-3.285-2.586-3.285s-2.586,1.662-2.586,3.285c0,1.662.7,3.338,2.586,3.338" transform="translate(-52.748 -63.12)"/><path class="d" d="M119.351,113.024h1.992c1.979,0,4.34-.066,4.34,2.493a2.107,2.107,0,0,1-1.9,2.138v.026c.5.04.792.541.976.95l1.478,3.6h-2.058l-1.108-2.876c-.264-.686-.5-.949-1.28-.949H121.2v3.825h-1.847Zm1.847,3.931h.607c.91,0,1.952-.132,1.952-1.28,0-1.109-1.029-1.2-1.952-1.2H121.2Z" transform="translate(-66.866 -63.321)"/><path class="d" d="M136.57,113.023h1.939l1.715,7.361h.026l1.57-7.361h2.507l1.622,7.361h.027l1.728-7.361H149.5l-2.4,9.208h-2.374l-1.662-7.361h-.026l-1.636,7.361h-2.388Z" transform="translate(-76.513 -63.321)"/><path class="d" d="M170.219,113.023H172.3l3.614,9.208h-2.044l-.792-2.111h-3.733l-.8,2.111h-1.913Zm1.016,1.847h-.026l-1.332,3.8h2.691Z" transform="translate(-93.354 -63.321)"/><path class="d" d="M191.291,113.024h1.992c1.979,0,4.34-.066,4.34,2.493a2.107,2.107,0,0,1-1.9,2.138v.026c.5.04.792.541.977.95l1.477,3.6h-2.058l-1.108-2.876c-.264-.686-.5-.949-1.28-.949h-.594v3.825h-1.847Zm1.847,3.931h.607c.91,0,1.952-.132,1.952-1.28,0-1.109-1.029-1.2-1.952-1.2h-.607Z" transform="translate(-107.17 -63.321)"/><path class="d" d="M211.181,113.023H213.7c2.823,0,5.317.95,5.317,4.6s-2.493,4.6-5.317,4.6h-2.519Zm1.847,7.757h1.029a3.155,3.155,0,0,0,0-6.306h-1.029Z" transform="translate(-118.313 -63.321)"/><path class="d" d="M244.029,114.474h-2.638v-1.451h7.124v1.451h-2.639v7.757h-1.847Z" transform="translate(-135.238 -63.321)"/><path class="d" d="M264.951,112.664c2.889,0,4.512,1.952,4.512,4.736s-1.6,4.789-4.512,4.789c-2.955,0-4.511-1.966-4.511-4.789s1.583-4.736,4.511-4.736m0,8.073c1.887,0,2.586-1.676,2.586-3.338,0-1.623-.752-3.285-2.586-3.285s-2.586,1.662-2.586,3.285c0,1.662.7,3.338,2.586,3.338" transform="translate(-145.91 -63.12)"/><path class="d" d="M292.619,114.6a6.026,6.026,0,0,0-2.375-.488,3.135,3.135,0,0,0-3.338,3.337,3.034,3.034,0,0,0,3.127,3.285,4.973,4.973,0,0,0,1.214-.132v-2.4h-1.953v-1.451h3.72v4.96a11.611,11.611,0,0,1-2.981.475c-2.982,0-5.052-1.491-5.052-4.6,0-3.153,1.926-4.92,5.052-4.92a9.091,9.091,0,0,1,2.7.383Z" transform="translate(-159.659 -63.12)"/><path class="d" d="M308.859,113.023h5.435v1.451h-3.588v2.269h3.285v1.451h-3.285v2.586h3.615v1.451h-5.462Z" transform="translate(-173.037 -63.321)"/><path class="d" d="M327.188,114.474H324.55v-1.451h7.124v1.451h-2.639v7.757h-1.846Z" transform="translate(-181.828 -63.321)"/><path class="d" d="M344.619,113.023h1.847v3.72h3.694v-3.72h1.847v9.208H350.16v-4.036h-3.694v4.036h-1.847Z" transform="translate(-193.071 -63.321)"/><path class="d" d="M367.478,113.023h5.435v1.451h-3.588v2.269h3.285v1.451h-3.285v2.586h3.615v1.451h-5.462Z" transform="translate(-205.878 -63.321)"/><path class="d" d="M385,113.024h1.992c1.979,0,4.34-.066,4.34,2.493a2.107,2.107,0,0,1-1.9,2.138v.026c.5.04.792.541.977.95l1.477,3.6h-2.058l-1.108-2.876c-.264-.686-.5-.949-1.28-.949h-.594v3.825H385Zm1.846,3.931h.607c.91,0,1.952-.132,1.952-1.28,0-1.109-1.029-1.2-1.952-1.2h-.607Z" transform="translate(-215.694 -63.321)"/><path class="d" d="M123.6,47.833c0,3.028,2.241,5.264,5.991,5.264a10.527,10.527,0,0,0,4.613-.967l1.406,1.911a13.123,13.123,0,0,1-6.675,1.565c-5.98,0-10.376-2.881-10.376-7.77v0c0-4.889,4.4-7.767,10.376-7.767a14.689,14.689,0,0,1,6.534,1.284l-1.438,2.2a8.719,8.719,0,0,0-4.44-.979c-3.749,0-5.991,2.233-5.991,5.261" transform="translate(-66.424 -22.447)"/><path class="d" d="M169.214,53.181c-3.184,0-4.942-2.392-4.942-5.356s1.758-5.356,4.942-5.356,4.945,2.394,4.945,5.356-1.76,5.356-4.945,5.356m0-13.126c-5.789,0-9.964,2.883-9.964,7.772s4.175,7.772,9.964,7.772,9.967-2.88,9.967-7.772-4.176-7.772-9.967-7.772" transform="translate(-89.219 -22.441)"/><path class="d" d="M223.4,49.45V55.7h4.785V40.943H223.4v5.63h-7.313v-5.63h-4.774V55.7h4.774V49.45Z" transform="translate(-118.386 -22.938)"/><rect class="d" width="5.039" height="14.76" transform="translate(44.216 18.005)"/><path class="d" d="M59.913,47.258v1.411a37.666,37.666,0,0,1,6.554,6.592h5.64a36.127,36.127,0,0,0-7.19-6.423c2.6-.106,5.5-1.161,5.5-4.149,0-3.831-4.1-4.535-8.237-4.535-3.383,0-6.5.156-8.371.31v14.8h4.706V42.692a29.477,29.477,0,0,1,3.686-.2c2.423,0,3.65.8,3.65,2.2,0,1.193-.508,2.622-5.94,2.569" transform="translate(-30.147 -22.496)"/><path class="d" d="M278.551,55.457a.88.88,0,0,1-.88-.88V39.752a.88.88,0,1,1,1.759,0V54.578a.88.88,0,0,1-.879.88" transform="translate(-155.564 -21.778)"/><rect class="d" width="1.525" height="6.114" transform="translate(143.323 14.286)"/><path class="d" d="M351.438,34.1a2.658,2.658,0,0,0-1.282-.326,1.632,1.632,0,1,0,0,3.263,2.661,2.661,0,0,0,1.282-.324v1.642a4.817,4.817,0,0,1-1.388.218,3.166,3.166,0,1,1,0-6.332,4.594,4.594,0,0,1,1.388.219Z" transform="translate(-194.311 -18.063)"/><path class="d" d="M315.3,34.1a2.622,2.622,0,0,0-1.279-.326,1.632,1.632,0,1,0,0,3.263,2.636,2.636,0,0,0,1.279-.324v1.642a4.789,4.789,0,0,1-1.391.218,3.166,3.166,0,1,1,0-6.332,4.546,4.546,0,0,1,1.391.219Z" transform="translate(-174.066 -18.063)"/><path class="d" d="M367.324,35.406a3.186,3.186,0,1,1-3.188-3.164,3.119,3.119,0,0,1,3.188,3.164M364.136,33.8a1.609,1.609,0,1,0,1.576,1.608,1.569,1.569,0,0,0-1.576-1.608" transform="translate(-202.222 -18.063)"/><path class="d" d="M337.757,33.736a5.3,5.3,0,0,0-1.19-.184c-.61,0-.942.206-.942.5,0,.372.446.5.7.582l.422.134a1.836,1.836,0,0,1,1.438,1.75c0,1.534-1.334,2.052-2.5,2.052a9.167,9.167,0,0,1-1.644-.167V37a5.688,5.688,0,0,0,1.438.228c.755,0,1.106-.224,1.106-.573,0-.309-.3-.487-.681-.607-.091-.031-.228-.076-.326-.106a1.875,1.875,0,0,1-1.553-1.788c0-1.145.844-1.912,2.249-1.912a6.378,6.378,0,0,1,1.483.194Z" transform="translate(-187.136 -18.061)"/><path class="d" d="M317.013,65.9l-4.707-11.777V65.9h-.989V52.8h1.492l4.761,12.014L322.061,52.8H323.5V65.9h-.971V54.218L318.091,65.9Z" transform="translate(-174.415 -29.58)"/><path class="d" d="M344.742,64.879h6.467c-.125-2.422-1.473-3.621-3.215-3.621-1.707,0-3.072,1.253-3.252,3.621m7.313,2.73a3.782,3.782,0,0,1-3.881,2.857c-2.533,0-4.438-1.764-4.438-5s1.85-5,4.259-5c2.39,0,4.223,1.638,4.223,5.242h-7.493c.091,2.692,1.6,3.931,3.467,3.931a2.792,2.792,0,0,0,2.839-2.021Z" transform="translate(-192.576 -33.871)"/><path class="d" d="M368.176,70.195V60.73h.791l.144,1.821a2.714,2.714,0,0,1,2.623-2.093,3.3,3.3,0,0,1,.97.146v.965a3.616,3.616,0,0,0-1.024-.165c-1.366,0-2.534,1.348-2.534,3.622v5.17Z" transform="translate(-206.269 -33.871)"/><path class="d" d="M387.032,66.828V65.062l-2.515.436c-2.229.383-2.875,1.093-2.875,2.223,0,1.272.97,1.91,2.372,1.91a2.955,2.955,0,0,0,3.018-2.8m-6.127-3.641c.142-1.618,1.563-2.73,3.63-2.73,2.084,0,3.467,1.183,3.467,3.113v6.625h-.791l-.143-1.564a3.666,3.666,0,0,1-3.306,1.836c-1.815,0-3.127-1-3.127-2.675,0-1.62.971-2.6,3.593-3.04l2.8-.473V63.46c0-1.365-.952-2.2-2.551-2.2a2.3,2.3,0,0,0-2.571,1.928Z" transform="translate(-213.249 -33.871)"/><path class="d" d="M403.041,65.9V52.8h.97v7.5l4.474-3.858H409.8L405,60.572l5.391,5.332h-1.31L404.011,60.9V65.9Z" transform="translate(-225.802 -29.58)"/><path class="d" d="M422.622,56.439h.97V65.9h-.97Zm-.089-3.641H423.7v1.346h-1.168Z" transform="translate(-236.722 -29.58)"/></g></g></svg>