<svg xmlns="http://www.w3.org/2000/svg" width="60" height="61" viewBox="0 0 60 61" fill="none">
<path d="M59.0966 52.7545H54.5588C54.0651 52.7545 53.666 52.3522 53.666 51.8442V1.82058C53.666 0.815027 52.8676 0 51.8803 0H1.78571C0.798319 0 0 0.815027 0 1.82058V52.7545C0 53.76 0.798319 54.575 1.78571 54.575H50.9874C51.4811 54.575 51.8803 54.9773 51.8803 55.4853V60.0897C51.8803 60.5978 52.2794 61 52.7731 61H59.0966C59.5903 61 59.9895 60.5978 59.9895 60.0897V53.6648C59.9895 53.1673 59.5903 52.7545 59.0966 52.7545Z" fill="#CF122E"/>
<path d="M33.9078 37.5336L35.62 39.259L40.4625 34.3794M19.0759 39.4071H21.1767V39.4177L19.0759 36.7821L15.3574 32.1142L9.53809 39.4071H11.5654V46.4248H19.0759M19.0759 39.4071V46.4248M19.0759 39.4071H19.1074V46.4248H19.0759M44.202 36.9515C44.202 40.8467 41.0717 44.0009 37.2062 44.0009C36.0927 44.0009 35.0423 43.7469 34.1074 43.2706C31.7965 42.1168 30.2104 39.7247 30.2104 36.9409C30.2104 34.1571 31.7965 31.7649 34.1074 30.6112C35.0423 30.1455 36.0927 29.8809 37.2062 29.8809C41.0717 29.8809 44.202 33.0457 44.202 36.9303V36.9515ZM36.1557 16.2053H34.1074V30.6324C31.7965 31.7861 30.2104 34.1783 30.2104 36.9621C30.2104 39.7459 31.7965 42.138 34.1074 43.2918V46.4354H26.6179V27.5416H28.6662L26.5654 24.906V16.2053H24.5171L30.3364 8.90186L36.1452 16.2159L36.1557 16.2053ZM28.6662 27.531H26.6179V46.4143H19.0969V39.3966H21.1767L19.0759 36.761V27.5205H17.0276L22.8469 20.217L26.5654 24.8849L28.6662 27.5205V27.531Z" stroke="white" stroke-width="0.99" stroke-linecap="round" stroke-linejoin="round"/>
</svg>