<svg xmlns="http://www.w3.org/2000/svg" width="59" height="60" viewBox="0 0 59 60" fill="none">
<path d="M58.1117 51.8896H53.6495C53.164 51.8896 52.7715 51.494 52.7715 50.9943V1.79073C52.7715 0.801666 51.9865 0 51.0156 0H1.75595C0.785014 0 0 0.801666 0 1.79073V51.8896C0 52.8787 0.785014 53.6804 1.75595 53.6804H50.1376C50.6231 53.6804 51.0156 54.076 51.0156 54.5757V59.1046C51.0156 59.594 51.4081 60 51.8936 60H58.1117C58.5972 60 58.9897 59.6044 58.9897 59.1046V52.7746C58.9897 52.2853 58.5972 51.8792 58.1117 51.8792" fill="#CF122E"/>
<path d="M14.6987 19.4898H22.5385M14.6987 23.8313H24.8833M14.6987 28.1728H29.8929M14.6987 32.5143H26.3913M14.6987 36.8662H28.736M14.6987 41.1973H26.3913M17.9421 8.65172C18.2313 8.12074 18.7891 7.75635 19.4295 7.75635H34.8509V7.79799L41.2343 14.2426H41.2653V36.7933C41.2653 37.3659 40.9967 37.8657 40.5629 38.178M15.587 11.0567C15.8763 10.5257 16.434 10.1613 17.0744 10.1613H32.5062V10.203L38.8896 16.6476H38.9206V39.1983C38.9206 39.7709 38.652 40.2707 38.2182 40.583M13.356 13.5346C13.6452 13.0036 14.2029 12.6392 14.8537 12.6392H30.2751V12.6809L36.6585 19.1254H36.6895V41.6762C36.6895 42.2488 36.4209 42.7485 35.9974 43.0609M33.8593 21.4263H27.4759V14.9818L33.8593 21.4263ZM33.8903 21.4263V43.9771C33.8903 44.9245 33.1259 45.6949 32.186 45.6949H12.0442C11.1042 45.6949 10.3398 44.9245 10.3398 43.9771V16.658C10.3398 15.7105 11.1042 14.9401 12.0442 14.9401H27.4655V14.9818L33.8489 21.4263H33.8799H33.8903Z" stroke="white" stroke-width="0.99" stroke-linecap="round" stroke-linejoin="round"/>
</svg>