<svg xmlns="http://www.w3.org/2000/svg" width="59" height="60" viewBox="0 0 59 60" fill="none">
<path d="M58.1117 51.8896H53.6495C53.164 51.8896 52.7715 51.494 52.7715 50.9943V1.79073C52.7715 0.801666 51.9865 0 51.0156 0H1.75595C0.785014 0 0 0.801666 0 1.79073V51.8896C0 52.8787 0.785014 53.6804 1.75595 53.6804H50.1376C50.6231 53.6804 51.0156 54.076 51.0156 54.5757V59.1046C51.0156 59.6044 51.4081 60 51.8936 60H58.1117C58.5972 60 58.9897 59.6044 58.9897 59.1046V52.785C58.9897 52.2957 58.5972 51.8896 58.1117 51.8896Z" fill="#CF122E"/>
<path d="M30.2123 33.0973C31.1109 32.1602 31.679 30.8693 31.679 29.4637C31.679 26.5798 29.3549 24.2373 26.4938 24.2373C25.5641 24.2373 24.6965 24.4768 23.9321 24.914L26.7313 21.8219M22.61 25.9656C21.7837 26.8922 21.2879 28.1207 21.2879 29.4637C21.2879 32.3476 23.6119 34.6902 26.4731 34.6902C27.3614 34.6902 28.2084 34.4611 28.9521 34.0551L26.1426 37.1993M20.2963 39.5835H33.311M13.8199 31.9416L19.9451 20.3955M39.1366 31.9416L33.0114 20.3955M30.5738 9.21387C30.9456 9.21387 31.2658 9.51579 31.2658 9.91142V18.1988C31.2658 18.5736 30.9663 18.8859 30.5738 18.8963H22.3518C21.9799 18.8963 21.6597 18.584 21.6597 18.1988V9.91142C21.6597 9.53662 21.9593 9.21387 22.3518 9.21387H30.5738ZM13.1072 34.0655C10.277 34.0655 7.97363 36.3976 7.97363 39.2399C7.97363 42.0822 10.2874 44.4143 13.1072 44.4143C15.9271 44.4143 18.2408 42.0926 18.2408 39.2399C18.2408 36.3872 15.9374 34.0655 13.1072 34.0655ZM43.5678 34.0655C43.4439 34.0655 43.3199 34.1072 43.227 34.18L35.697 39.0108C35.5008 39.1358 35.3768 39.3544 35.3768 39.5939C35.3768 39.8333 35.4904 40.052 35.697 40.1769L43.227 45.0077C43.4335 45.1431 43.7021 45.1535 43.919 45.0285C44.1359 44.914 44.2702 44.6746 44.2702 44.4247V34.7631C44.2702 34.5757 44.1876 34.3987 44.0533 34.2633C43.919 34.1384 43.7434 34.0655 43.5575 34.0759L43.5678 34.0655Z" stroke="white" stroke-width="0.99" stroke-linecap="round" stroke-linejoin="round"/>
</svg>