<svg xmlns="http://www.w3.org/2000/svg" xmlns:xlink="http://www.w3.org/1999/xlink" width="100" height="100" viewBox="0 0 100 100"><defs><style>.a{fill:none;}.b{clip-path:url(#c);}.c{fill:#8fc740;}.d{fill:#fff;}.e{clip-path:url(#a);}</style><clipPath id="a"><rect class="a" width="57.396" height="54.456" transform="translate(0 0)"/></clipPath><clipPath id="c"><rect width="100" height="100"/></clipPath></defs><g id="b" class="b"><g transform="translate(0 -1069)"><path class="c" d="M153.923,264.719h-7.559a1.487,1.487,0,0,1-1.485-1.486V181.222a2.983,2.983,0,0,0-2.974-2.986H58.4a2.989,2.989,0,0,0-2.984,2.986v83.5a2.987,2.987,0,0,0,2.984,2.986h82a1.491,1.491,0,0,1,1.5,1.493v7.555a1.476,1.476,0,0,0,1.479,1.483h10.539a1.486,1.486,0,0,0,1.5-1.483V266.212a1.494,1.494,0,0,0-1.5-1.493" transform="translate(-55.418 890.764)"/><g transform="translate(14.25 1084.898)"><path class="d" d="M0,6.929a1,1,0,0,1-1-1V0A1,1,0,0,1,0-1,1,1,0,0,1,1,0V5.929A1,1,0,0,1,0,6.929Z" transform="translate(43.535 31.214)"/><g class="e"><path class="d" d="M15.945,38.143a1,1,0,0,1-1-1V3a3,3,0,0,1,2.99-3h18.08a1,1,0,0,1,.869.5L44.04,7.661a1,1,0,0,1,.5.869v11.5a1,1,0,0,1-2,0V8.994L35.551,2H17.935a1,1,0,0,0-.99,1V37.143A1,1,0,0,1,15.945,38.143Z"/><path class="d" d="M43.495,9.53h-7.48a1,1,0,0,1-1-1V1.05A1,1,0,0,1,36.722.343l7.48,7.48a1,1,0,0,1-.707,1.707Zm-6.48-2h4.066L37.015,3.464Z"/><path class="d" d="M13.719,1H0A1,1,0,0,1-1,0,1,1,0,0,1,0-1H13.719a1,1,0,0,1,1,1A1,1,0,0,1,13.719,1Z" transform="translate(21.025 31.519)"/><path class="d" d="M16.456,1H0A1,1,0,0,1-1,0,1,1,0,0,1,0-1H16.456a1,1,0,0,1,1,1A1,1,0,0,1,16.456,1Z" transform="translate(21.025 26.478)"/><path class="d" d="M13.719,1H0A1,1,0,0,1-1,0,1,1,0,0,1,0-1H13.719a1,1,0,0,1,1,1A1,1,0,0,1,13.719,1Z" transform="translate(21.025 21.429)"/><path class="d" d="M17.812,1H0A1,1,0,0,1-1,0,1,1,0,0,1,0-1H17.812a1,1,0,0,1,1,1A1,1,0,0,1,17.812,1Z" transform="translate(21.025 16.379)"/><path class="d" d="M11.945,1H0A1,1,0,0,1-1,0,1,1,0,0,1,0-1H11.945a1,1,0,0,1,1,1A1,1,0,0,1,11.945,1Z" transform="translate(21.025 11.338)"/><path class="d" d="M5.139-1A6.139,6.139,0,1,1-1,5.139,6.146,6.146,0,0,1,5.139-1Zm0,10.278A4.139,4.139,0,1,0,1,5.139,4.144,4.144,0,0,0,5.139,9.278Z" transform="translate(37.93 20.285)"/><path class="d" d="M41.837,28.8l-2.169-2.156,1.41-1.419.757.752,3.233-3.227L46.48,24.17Z"/><path class="d" d="M9.055,39.58H0V11.86a5,5,0,0,1,4.99-4.99h10.95v2H4.995A2.993,2.993,0,0,0,2,11.86V37.58h7.05Z"/><path class="d" d="M57.395,39.58h-9.04v-2h7.04V11.79a2.928,2.928,0,0,0-2.93-2.92h-9.63v-2h9.63a4.931,4.931,0,0,1,4.93,4.92Z"/><path class="d" d="M0,37.606H57.4v4.977a4.447,4.447,0,0,1-4.442,4.442h-49A3.964,3.964,0,0,1,0,43.072Zm55.4,2H2v3.465a1.961,1.961,0,0,0,1.955,1.954h49A2.445,2.445,0,0,0,55.4,42.583Z"/><path class="d" d="M-1-1H17.908V8.419H-1ZM15.908,1H1V6.419H15.908Z" transform="translate(20.242 46.037)"/><path class="d" d="M23.816,1H0V-1H23.816Z" transform="translate(16.788 53.456)"/><path class="d" d="M7.629,1H0V-1H7.629Z" transform="translate(24.882 42.316)"/></g></g></g></g></svg>