<svg xmlns="http://www.w3.org/2000/svg" width="60.234" height="60.234" viewBox="0 0 60.234 60.234"><defs><style>.a {
  fill: #8fc740;
}

.b {
  fill: #fff;
}

</style></defs><g transform="translate(-851.266 -2563.766)"><path class="a" d="M114.752,230.329H110.2a.9.9,0,0,1-.895-.9v-49.4a1.8,1.8,0,0,0-1.791-1.8h-50.3a1.8,1.8,0,0,0-1.8,1.8v50.294a1.8,1.8,0,0,0,1.8,1.8H106.61a.9.9,0,0,1,.9.9v4.551a.889.889,0,0,0,.891.893h6.348a.9.9,0,0,0,.9-.893v-6.349a.9.9,0,0,0-.9-.9" transform="translate(795.848 2385.53)"></path><g transform="translate(861.875 2573.851)"><g transform="translate(1.137 0.534)"><path class="b" d="M43.04,52.048H8.526l1.363-1.639a22,22,0,0,0,5.118-13.08c0-1.023-.006-2.061-.017-3.084a11,11,0,0,1,22-.222c.015,1.373.022,2.575.022,3.675a19.7,19.7,0,0,0,1.519,6.837,24.385,24.385,0,0,0,3.237,5.894Zm-30.371-2H39.063a29.156,29.156,0,0,1-2.394-4.781A21.85,21.85,0,0,1,35.012,37.7c0-1.092-.007-2.288-.022-3.654a8.995,8.995,0,0,0-7.532-8.775,9.105,9.105,0,0,0-3.243.055,8.992,8.992,0,0,0-7.226,8.9c.012,1.029.017,2.074.017,3.1a20.836,20.836,0,0,1-1.567,7.526A26.018,26.018,0,0,1,12.67,50.048Z" transform="translate(-10.658 -21.375)"></path><path class="b" d="M86.649,208.8H96.885l-.158,1.138a5.008,5.008,0,0,1-9.919,0Zm7.69,2H89.2a3.008,3.008,0,0,0,5.144,0Z" transform="translate(-76.621 -180.127)"></path><path class="b" d="M101.879,9.189V6.8a2.8,2.8,0,1,1,5.6,0V9.088l-1.164-.194a8.944,8.944,0,0,0-1.466-.12,9.068,9.068,0,0,0-1.774.175ZM104.679,6a.8.8,0,0,0-.8.8v.017a11.145,11.145,0,0,1,1.6-.025A.8.8,0,0,0,104.679,6Z" transform="translate(-89.517 -5)"></path><path class="b" d="M186.42,30.819l-1.994-.16a9.253,9.253,0,0,0-1.871-6.588,8.871,8.871,0,0,0-2.292-2.121l.987-1.74a10.668,10.668,0,0,1,2.831,2.564A11.308,11.308,0,0,1,186.42,30.819Z" transform="translate(-156.113 -18.75)"></path><path class="b" d="M19.666,30.819a11.309,11.309,0,0,1,2.339-8.046,10.668,10.668,0,0,1,2.831-2.564l.983,1.742-.492-.871.495.869A8.871,8.871,0,0,0,23.53,24.07a9.253,9.253,0,0,0-1.871,6.588Z" transform="translate(-19.18 -18.75)"></path></g></g></g></svg>