<svg xmlns="http://www.w3.org/2000/svg" width="60.234" height="60.234" viewBox="0 0 60.234 60.234"><defs><style>.a {
  fill: #8fc740;
}

.b {
  fill: #fff;
}

</style></defs><g transform="translate(-851.266 -2563.766)"><path class="a" d="M114.752,230.329H110.2a.9.9,0,0,1-.895-.9v-49.4a1.8,1.8,0,0,0-1.791-1.8h-50.3a1.8,1.8,0,0,0-1.8,1.8v50.294a1.8,1.8,0,0,0,1.8,1.8H106.61a.9.9,0,0,1,.9.9v4.551a.889.889,0,0,0,.891.893h6.348a.9.9,0,0,0,.9-.893v-6.349a.9.9,0,0,0-.9-.9" transform="translate(795.848 2385.53)"></path><g transform="translate(889.153 2575.162)"><g transform="translate(-28 -4)"><path class="b" d="M20.421,134.568H8V105.13h7.641v2.445a.093.093,0,0,0,.093.093H26.491a.093.093,0,0,0,.093-.093V105.13H34.39v10.411h-2V107.13H28.584v.445a2.1,2.1,0,0,1-2.093,2.093H15.733a2.1,2.1,0,0,1-2.093-2.093v-.445H10v25.438H20.421Z" transform="translate(-8.494 -100.168)"></path><path class="b" d="M114.5,8h2.764a2.1,2.1,0,0,1,2.093,2.093v.86a.093.093,0,0,0,.093.093h3.9V15.9a2.1,2.1,0,0,1-2.093,2.093H110.5A2.1,2.1,0,0,1,108.41,15.9V11.045h3.9a.093.093,0,0,0,.093-.093v-.86A2.1,2.1,0,0,1,114.5,8Zm6.854,5.045h-1.9a2.1,2.1,0,0,1-2.093-2.093v-.86a.093.093,0,0,0-.093-.093H114.5a.093.093,0,0,0-.093.093v.86a2.1,2.1,0,0,1-2.093,2.093h-1.9V15.9a.093.093,0,0,0,.093.093h10.758a.093.093,0,0,0,.093-.093Z" transform="translate(-103.264 -8.494)"></path><path class="b" d="M248.164,339.978a11.564,11.564,0,1,1,0-23.128c.358,0,.72.017,1.075.049a11.564,11.564,0,0,1-1.075,23.079Zm0-21.128a9.539,9.539,0,1,0,.891.041C248.762,318.864,248.462,318.85,248.164,318.85Z" transform="translate(-224.252 -299.994)"></path><path class="b" d="M16.968,1H0V-1H16.968Z" transform="translate(3.894 12.814)"></path><path class="b" d="M11.167,1H0V-1H11.167Z" transform="translate(3.894 17.618)"></path><path class="b" d="M7.266,1H0V-1H7.266Z" transform="translate(3.894 22.421)"></path><path class="b" d="M324.746,442.126l-5.834-5.7,1.4-1.43,4.347,4.248,7.431-8.224,1.484,1.341Z" transform="translate(-302.331 -408.138)"></path></g></g></g></svg>