<svg xmlns="http://www.w3.org/2000/svg" width="60.234" height="60.234" viewBox="0 0 60.234 60.234"><defs><style>.a {
  fill: #8fc740;
}

.b {
  fill: #fff;
}

</style></defs><g transform="translate(-851.266 -2563.766)"><path class="a" d="M114.752,230.329H110.2a.9.9,0,0,1-.895-.9v-49.4a1.8,1.8,0,0,0-1.791-1.8h-50.3a1.8,1.8,0,0,0-1.8,1.8v50.294a1.8,1.8,0,0,0,1.8,1.8H106.61a.9.9,0,0,1,.9.9v4.551a.889.889,0,0,0,.891.893h6.348a.9.9,0,0,0,.9-.893v-6.349a.9.9,0,0,0-.9-.9" transform="translate(795.848 2385.53)"></path><g transform="translate(857.875 2569.042)"><path class="b" d="M6.586,102.531l-4.822-1.706.667-1.885L5.425,100l5-12.854L1.716,83.55,2.479,81.7,13,86.043Z" transform="translate(-1.762 -69.43)"></path><path class="b" d="M173.058,31.1,160.829,18.282l11.6-10.974L173.8,8.761l-10.138,9.594,9.5,9.964,2.366-2.12,1.335,1.489Z" transform="translate(-136.333 -3.28)"></path><path class="b" d="M57.5,161.376a2.714,2.714,0,0,1,2.283,4.179L56.287,171a2.714,2.714,0,1,1-4.569-2.929l3.493-5.448A2.7,2.7,0,0,1,57.5,161.376ZM54,170.252a.712.712,0,0,0,.6-.329l3.494-5.448a.714.714,0,1,0-1.2-.77L53.4,169.153a.714.714,0,0,0,.6,1.1Z" transform="translate(-43.938 -136.443)"></path><path class="b" d="M77.2,112.787A2.713,2.713,0,0,1,76.08,107.6l5.116-2.3a5.455,5.455,0,0,1,1.467-.382c.087,0,.166,0,.241.01l9.205.785-.17,1.993-9.222-.787c-.005,0-.021,0-.054,0a.7.7,0,0,0-.335.085l-.094.051-.1.03a.853.853,0,0,0-.114.04l-5.117,2.3a.713.713,0,1,0,.586,1.3l.035-.016,6-2.154.676,1.882-5.927,2.13A2.7,2.7,0,0,1,77.2,112.787Z" transform="translate(-63.423 -89.001)"></path><path class="b" d="M136.367,223.732a2.7,2.7,0,0,1-1.46-.428l-1.6-1.027,1.08-1.684,1.6,1.026a.714.714,0,0,0,.77-1.2l-1.566-1,1.08-1.684,1.566,1a2.713,2.713,0,0,1-1.469,5Z" transform="translate(-112.469 -183.664)"></path><path class="b" d="M154.469,205.3a2.7,2.7,0,0,1-1.46-.429l-1.6-1.026,1.079-1.684,1.6,1.026a.714.714,0,0,0,.777-1.2l-2.961-1.812,1.044-1.706,2.99,1.83a2.713,2.713,0,0,1-1.469,5Z" transform="translate(-127.68 -167.496)"></path><path class="b" d="M163.155,184.134a2.7,2.7,0,0,1-1.459-.43l-1.6-1.026,1.08-1.684,1.6,1.026a.714.714,0,0,0,.778-1.2l-4.988-3.038,1.04-1.708,5.02,3.058a2.714,2.714,0,0,1-.885,4.935A2.738,2.738,0,0,1,163.155,184.134Z" transform="translate(-133.677 -148.673)"></path><path class="b" d="M134.877,139.831a2.7,2.7,0,0,1-1.46-.43l-1.6-1.027,1.08-1.684,1.6,1.026a.714.714,0,0,0,.772-1.2l-13.161-8.341,1.071-1.689,13.169,8.346a2.715,2.715,0,0,1-1.47,5Z" transform="translate(-103.056 -106.995)"></path><path class="b" d="M75.482,179.182a2.714,2.714,0,0,1,2.283,4.179L75,187.678a2.714,2.714,0,0,1-4.569-2.929l2.769-4.318A2.7,2.7,0,0,1,75.482,179.182Zm-2.772,7.746a.712.712,0,0,0,.6-.329l2.769-4.318a.714.714,0,1,0-1.2-.77l-2.769,4.318a.714.714,0,0,0,.6,1.1Z" transform="translate(-59.659 -151.405)"></path><path class="b" d="M94.131,198.271a2.714,2.714,0,0,1,2.283,4.179l-1.755,2.737a2.714,2.714,0,0,1-4.569-2.929l1.755-2.738A2.7,2.7,0,0,1,94.131,198.271Zm-1.759,6.165a.712.712,0,0,0,.6-.329l1.755-2.737a.714.714,0,1,0-1.2-.77l-1.755,2.738a.714.714,0,0,0,.6,1.1Z" transform="translate(-76.18 -167.445)"></path><path class="b" d="M111.919,214.851a2.714,2.714,0,0,1,2.283,4.179l-1.24,1.934a2.714,2.714,0,1,1-4.569-2.93l1.24-1.934A2.7,2.7,0,0,1,111.919,214.851Zm-1.243,5.362a.712.712,0,0,0,.6-.329l1.24-1.934a.714.714,0,1,0-1.2-.77l-1.24,1.934a.714.714,0,0,0,.6,1.1Z" transform="translate(-91.561 -181.377)"></path><path class="b" d="M2.912,2.761-.486.874.486-.874l3.4,1.887Z" transform="translate(5.927 29.19)"></path><path class="b" d="M5.879,1.4-.067,1,.067-1l5.946.4Z" transform="translate(9.639 17.977)"></path><path class="b" d="M.725,3.738-.725,2.36l2.9-3.049L3.624.689Z" transform="translate(32.091 24.906)"></path></g></g></svg>