<svg xmlns="http://www.w3.org/2000/svg" width="60.234" height="60.234" viewBox="0 0 60.234 60.234"><defs><style>.a {
  fill: #8fc740;
}

.b {
  fill: #fff;
}

</style></defs><g transform="translate(-851.266)"><path class="a" d="M114.752,230.329H110.2a.9.9,0,0,1-.895-.9v-49.4a1.8,1.8,0,0,0-1.791-1.8h-50.3a1.8,1.8,0,0,0-1.8,1.8v50.294a1.8,1.8,0,0,0,1.8,1.8H106.61a.9.9,0,0,1,.9.9v4.551a.889.889,0,0,0,.891.893h6.348a.9.9,0,0,0,.9-.893v-6.349a.9.9,0,0,0-.9-.9" transform="translate(795.848 -178.236)"></path><g transform="translate(862.619 10.949)"><ellipse class="a" cx="14.289" cy="14.289" rx="14.289" ry="14.289" transform="matrix(1, 0, 0, 1, 0, 0)"></ellipse><path class="b" d="M14.289,2A12.289,12.289,0,0,0,5.6,22.979,12.289,12.289,0,0,0,22.978,5.6,12.208,12.208,0,0,0,14.289,2m0-2A14.289,14.289,0,1,1,0,14.289,14.289,14.289,0,0,1,14.289,0Z" transform="matrix(1, 0, 0, 1, 0, 0)"></path><path class="b" d="M7.437,11.215-.79.613.79-.613l8.227,10.6Z" transform="translate(22.931 23.577) rotate(-4)"></path><g transform="translate(6.114 8.551)"><path class="b" d="M9.675,18.891A9.324,9.324,0,0,1,2.907,15.6a15.052,15.052,0,0,1-2.3-3.21,1,1,0,0,1,0-.894,15.052,15.052,0,0,1,2.3-3.21A9.324,9.324,0,0,1,9.675,5a9.324,9.324,0,0,1,6.768,3.289,15.052,15.052,0,0,1,2.3,3.21,1,1,0,0,1,0,.894,15.052,15.052,0,0,1-2.3,3.21A9.324,9.324,0,0,1,9.675,18.891ZM2.647,11.946c.776,1.294,3.3,4.945,7.028,4.945s6.251-3.651,7.028-4.946C15.927,10.652,13.405,7,9.675,7S3.424,10.65,2.647,11.946Z" transform="translate(-1.5 -6)"></path><path class="b" d="M15.73,12.5a3.23,3.23,0,1,1-3.23,3.23A3.233,3.233,0,0,1,15.73,12.5Zm0,4.459a1.23,1.23,0,1,0-1.23-1.23A1.231,1.231,0,0,0,15.73,16.959Z" transform="translate(-7.554 -9.784)"></path></g></g></g></svg>