<svg xmlns="http://www.w3.org/2000/svg" width="60.234" height="60.234" viewBox="0 0 60.234 60.234"><defs><style>.a {
  fill: #8fc740;
}

.b {
  fill: #fff;
}

</style></defs><g transform="translate(-851.266)"><path class="a" d="M114.752,230.329H110.2a.9.9,0,0,1-.895-.9v-49.4a1.8,1.8,0,0,0-1.791-1.8h-50.3a1.8,1.8,0,0,0-1.8,1.8v50.294a1.8,1.8,0,0,0,1.8,1.8H106.61a.9.9,0,0,1,.9.9v4.551a.889.889,0,0,0,.891.893h6.348a.9.9,0,0,0,.9-.893v-6.349a.9.9,0,0,0-.9-.9" transform="translate(795.848 -178.236)"></path><g transform="translate(865.152 10.011)"><path class="b" d="M0-1a1,1,0,0,1,.7.289L7.161,5.675a1,1,0,0,1-.7,1.711H0a1,1,0,0,1-1-1V0A1,1,0,0,1-.385-.923,1,1,0,0,1,0-1ZM4.024,5.386,1,2.4V5.386Z" transform="translate(20.505 0)"></path><g transform="translate(0 0)"><path class="a" d="M20.353-.155H3.688V28.567h22.87V6.295Z" transform="translate(-3.688 4.672)"></path><path class="b" d="M2.688-1.155h18.09l6.779,7.047V29.567H2.688Zm17.239,2H4.688V27.567h20.87V6.7Z" transform="translate(-3.688 4.672)"></path><path class="a" d="M20.353-.155H3.688V28.567h22.87V6.295Z" transform="translate(0.404 0.155)"></path><path class="b" d="M2.688-1.155h18.09l6.779,7.047V29.567H2.688Zm17.239,2H4.688V27.567h20.87V6.7Z" transform="translate(0.404 0.155)"></path><path class="b" d="M13.467,1H-1V-1H13.467Z" transform="translate(9.294 23.31)"></path><path class="b" d="M13.467,1H-1V-1H13.467Z" transform="translate(9.294 18.878)"></path><path class="b" d="M13.467,1H-1V-1H13.467Z" transform="translate(9.294 14.446)"></path><path class="b" d="M9.943,1H-1V-1H9.943Z" transform="translate(9.294 10.014)"></path><path class="b" d="M6.882,1H-1V-1H6.882Z" transform="translate(9.294 5.583)"></path></g></g></g></svg>