<svg id="Group_1284" data-name="Group 1284" xmlns="http://www.w3.org/2000/svg" width="100" height="100" viewBox="0 0 100 100">
  <path id="Path_283" data-name="Path 283" d="M153.923,264.719h-7.559a1.487,1.487,0,0,1-1.485-1.486V181.222a2.983,2.983,0,0,0-2.974-2.986H58.4a2.989,2.989,0,0,0-2.984,2.986v83.5a2.987,2.987,0,0,0,2.984,2.986h82a1.491,1.491,0,0,1,1.5,1.493v7.555a1.476,1.476,0,0,0,1.479,1.483h10.539a1.486,1.486,0,0,0,1.5-1.483V266.212a1.494,1.494,0,0,0-1.5-1.493" transform="translate(-55.418 -178.236)" fill="#b1b1b1"/>
  <path id="bxs-quote-alt-left" d="M12.16,18.156a8.981,8.981,0,0,0-1.319.133,7.314,7.314,0,0,1,.515-1.379,8.534,8.534,0,0,1,.952-1.712A10.1,10.1,0,0,1,13.527,13.7a13.565,13.565,0,0,1,1.4-1.225,8.653,8.653,0,0,1,1.448-.94,7.653,7.653,0,0,1,1.319-.71l1.093-.45.962-.4-.985-3.931-1.21.292c-.387.1-.86.211-1.4.348a10.919,10.919,0,0,0-1.789.633,12.6,12.6,0,0,0-2.085.945,19.045,19.045,0,0,0-2.213,1.4,15.819,15.819,0,0,0-2.13,1.916A14.261,14.261,0,0,0,6.1,13.941a16.446,16.446,0,0,0-1.424,2.635,22.315,22.315,0,0,0-.949,2.71,24.489,24.489,0,0,0-.779,4.943A25.284,25.284,0,0,0,3,27.774c.03.414.088.816.128,1.093l.051.341.053-.012a9.129,9.129,0,1,0,8.925-11.04Zm22.315,0a8.981,8.981,0,0,0-1.319.133,7.313,7.313,0,0,1,.515-1.379,8.534,8.534,0,0,1,.952-1.712A10.1,10.1,0,0,1,35.842,13.7a13.566,13.566,0,0,1,1.4-1.225,8.653,8.653,0,0,1,1.448-.94,7.652,7.652,0,0,1,1.319-.71l1.093-.45.962-.4-.985-3.931-1.21.292c-.387.1-.86.211-1.4.348a10.919,10.919,0,0,0-1.789.633,12.561,12.561,0,0,0-2.085.948,19.044,19.044,0,0,0-2.213,1.4,15.9,15.9,0,0,0-2.13,1.915,14.261,14.261,0,0,0-1.845,2.357,16.446,16.446,0,0,0-1.424,2.635,22.315,22.315,0,0,0-.949,2.71,24.489,24.489,0,0,0-.779,4.943,25.284,25.284,0,0,0,.057,3.545c.03.414.088.816.128,1.093l.051.341.053-.012a9.129,9.129,0,1,0,8.925-11.041Z" transform="translate(21.244 24.77)" fill="#fff"/>
</svg>
