<svg xmlns="http://www.w3.org/2000/svg" width="111" height="111" viewBox="0 0 111 111"><g transform="translate(0 -1069)"><path d="M164.758,274.233h-8.39a1.65,1.65,0,0,1-1.649-1.65V181.55a3.311,3.311,0,0,0-3.3-3.314H58.73a3.318,3.318,0,0,0-3.312,3.314v92.683a3.316,3.316,0,0,0,3.312,3.314h91.024a1.655,1.655,0,0,1,1.663,1.657v8.386a1.639,1.639,0,0,0,1.642,1.646h11.7a1.649,1.649,0,0,0,1.66-1.646v-11.7a1.659,1.659,0,0,0-1.66-1.657" transform="translate(-55.418 890.764)" fill="#768ec7"></path><g transform="translate(202.132 843.093)"><g transform="translate(-170.602 255.524)"><path d="M4.684-1A5.684,5.684,0,1,1-1,4.684,5.69,5.69,0,0,1,4.684-1Zm0,9.367A3.684,3.684,0,1,0,1,4.684,3.688,3.688,0,0,0,4.684,8.367Z" transform="translate(15.458 32.276)" fill="#fff"></path><path d="M-111.656,293.483a1,1,0,0,1-1-1,35.733,35.733,0,0,0-2.825-14,35.841,35.841,0,0,0-7.707-11.43,35.84,35.84,0,0,0-11.43-7.707,35.733,35.733,0,0,0-14-2.826,35.823,35.823,0,0,0-19.6,5.8,1,1,0,0,1-1.384-.292,1,1,0,0,1,.292-1.384,37.819,37.819,0,0,1,20.687-6.127,37.723,37.723,0,0,1,14.776,2.983,37.832,37.832,0,0,1,12.065,8.135,37.832,37.832,0,0,1,8.134,12.066,37.723,37.723,0,0,1,2.983,14.776A1,1,0,0,1-111.656,293.483Z" transform="translate(168.756 -255.524)" fill="#fff"></path><path d="M-117.228,294a1,1,0,0,1-1-1,29.594,29.594,0,0,0-2.34-11.593,29.685,29.685,0,0,0-6.383-9.467,29.686,29.686,0,0,0-9.467-6.383,29.6,29.6,0,0,0-11.593-2.34,29.532,29.532,0,0,0-12.461,2.724,1,1,0,0,1-1.327-.489,1,1,0,0,1,.489-1.327,31.518,31.518,0,0,1,13.3-2.908,31.586,31.586,0,0,1,12.372,2.5,31.677,31.677,0,0,1,10.1,6.811,31.676,31.676,0,0,1,6.811,10.1,31.584,31.584,0,0,1,2.5,12.372A1,1,0,0,1-117.228,294Z" transform="translate(168.152 -256.037)" fill="#fff"></path><path d="M0,12.932a1,1,0,0,1-1-1V0A1,1,0,0,1,0-1,1,1,0,0,1,1,0V11.932A1,1,0,0,1,0,12.932Z" transform="translate(20.141 0)" fill="#fff"></path><path d="M11.932,1H0A1,1,0,0,1-1,0,1,1,0,0,1,0-1H11.932a1,1,0,0,1,1,1A1,1,0,0,1,11.932,1Z" transform="translate(44.958 36.96)" fill="#fff"></path><path d="M0,9.437a1,1,0,0,1-.707-.293,1,1,0,0,1,0-1.414L7.73-.707a1,1,0,0,1,1.414,0,1,1,0,0,1,0,1.414L.707,9.144A1,1,0,0,1,0,9.437Z" transform="translate(37.729 10.71)" fill="#fff"></path><path d="M0,12.309a1,1,0,0,1-.707-.293,1,1,0,0,1,0-1.414L10.6-.707a1,1,0,0,1,1.414,0,1,1,0,0,1,0,1.414L.707,12.016A1,1,0,0,1,0,12.309Z" transform="translate(23.294 22.288)" fill="#fff"></path></g><g transform="translate(-192.818 263.619)"><path d="M12.179-1A13.179,13.179,0,0,1,25.358,12.179,13.179,13.179,0,0,1,2.86,21.5a13.179,13.179,0,0,1,0-18.638A13.093,13.093,0,0,1,12.179-1Zm0,24.358a11.179,11.179,0,0,0,7.9-19.084,11.179,11.179,0,1,0-15.81,15.81A11.106,11.106,0,0,0,12.179,23.358Z" transform="translate(4.9 4.9)" fill="#fff"></path><path d="M17.079-1A18.074,18.074,0,0,1,29.863,29.863,18.079,18.079,0,1,1,10.042.421,17.967,17.967,0,0,1,17.079-1Zm0,34.158A16.079,16.079,0,0,0,28.449,5.709,16.079,16.079,0,1,0,5.709,28.449,15.974,15.974,0,0,0,17.079,33.158Z" fill="#fff"></path><g transform="translate(12.777 11.886)"><path d="M0,7.084a1,1,0,0,1-1-1V0A1,1,0,0,1,0-1,1,1,0,0,1,1,0V6.084A1,1,0,0,1,0,7.084Z" transform="translate(4.302)" fill="#fff"></path><path d="M0,5.3a1,1,0,0,1-.707-.293,1,1,0,0,1,0-1.414l4.3-4.3a1,1,0,0,1,1.414,0,1,1,0,0,1,0,1.414l-4.3,4.3A1,1,0,0,1,0,5.3Z" transform="translate(0 6.084)" fill="#fff"></path></g><g transform="translate(7.801 7.801)"><g transform="translate(9.278)"><path d="M0,1.987a1,1,0,0,1-1-1V0A1,1,0,0,1,0-1,1,1,0,0,1,1,0V.987A1,1,0,0,1,0,1.987Z" fill="#fff"></path><path d="M0,1.987a1,1,0,0,1-1-1V0A1,1,0,0,1,0-1,1,1,0,0,1,1,0V.987A1,1,0,0,1,0,1.987Z" transform="translate(0 17.569)" fill="#fff"></path></g><g transform="translate(0 9.278)"><path d="M.987,1H0A1,1,0,0,1-1,0,1,1,0,0,1,0-1H.987a1,1,0,0,1,1,1A1,1,0,0,1,.987,1Z" transform="translate(17.569)" fill="#fff"></path><path d="M.987,1H0A1,1,0,0,1-1,0,1,1,0,0,1,0-1H.987a1,1,0,0,1,1,1A1,1,0,0,1,.987,1Z" fill="#fff"></path></g></g></g></g></g></svg>