<svg xmlns="http://www.w3.org/2000/svg" width="111" height="111" viewBox="0 0 111 111"><g transform="translate(0 -1069)"><path d="M164.758,274.233h-8.39a1.65,1.65,0,0,1-1.649-1.65V181.55a3.311,3.311,0,0,0-3.3-3.314H58.73a3.318,3.318,0,0,0-3.312,3.314v92.683a3.316,3.316,0,0,0,3.312,3.314h91.024a1.655,1.655,0,0,1,1.663,1.657v8.386a1.639,1.639,0,0,0,1.642,1.646h11.7a1.649,1.649,0,0,0,1.66-1.646v-11.7a1.659,1.659,0,0,0-1.66-1.657" transform="translate(-55.418 890.764)" fill="#768ec7"></path><g transform="translate(6548.5 212.558)"><path d="M-1-1H16.5V62.269H-1ZM14.5,1H1V60.269H14.5Z" transform="translate(-6518.135 876)" fill="#fff"></path><path d="M-1-1H16.5V34.957H-1ZM14.5,1H1V32.957H14.5Z" transform="translate(-6533.637 903.313)" fill="#fff"></path><path d="M-139.12,238.311h-6.553V188.794h17.5v16.447a1,1,0,0,1-1,1,1,1,0,0,1-1-1V190.794h-13.5v45.517h4.553a1,1,0,0,1,1,1A1,1,0,0,1-139.12,238.311Z" transform="translate(-6357.96 699.958)" fill="#fff"></path><path d="M-102.72,238.311h-11.968a1,1,0,0,1-1-1,1,1,0,0,1,1-1h9.968V210.7h-13.5v11.6a1,1,0,0,1-1,1,1,1,0,0,1-1-1V208.7h17.5Z" transform="translate(-6357.96 699.958)" fill="#fff"></path><path d="M-119.222,238.311a1,1,0,0,1-1-1V232.25a8.959,8.959,0,0,0-8.949-8.949,8.959,8.959,0,0,0-8.949,8.949v5.061a1,1,0,0,1-1,1,1,1,0,0,1-1-1V232.25a10.877,10.877,0,0,1,3.207-7.742,10.877,10.877,0,0,1,7.742-3.207,10.877,10.877,0,0,1,7.742,3.207,10.877,10.877,0,0,1,3.207,7.742v5.061A1,1,0,0,1-119.222,238.311Z" transform="translate(-6357.96 699.958)" fill="#fff"></path><path d="M6.3-1A7.3,7.3,0,1,1-1,6.3,7.307,7.307,0,0,1,6.3-1Zm0,12.6A5.3,5.3,0,1,0,1,6.3,5.3,5.3,0,0,0,6.3,11.6Z" transform="translate(-6493.485 909.661)" fill="#fff"></path></g></g></svg>