<svg xmlns="http://www.w3.org/2000/svg" width="153" height="54" viewBox="0 0 153 54" fill="none">
                    <path
                        d="M57.4872 13.9755C57.4872 19.1605 61.3328 22.9891 67.7633 22.9891C70.4923 23.0413 73.1977 22.4749 75.6759 21.3326L78.0878 24.6055C74.5766 26.4955 70.6253 27.4202 66.6385 27.2848C56.3803 27.2848 48.8409 22.3524 48.8409 13.9786C48.8409 5.60596 56.3803 0.677696 66.6385 0.677696C70.4933 0.544318 74.3274 1.29607 77.8454 2.87505L75.3786 6.64255C73.0335 5.42088 70.4056 4.84238 67.7633 4.96612C61.3328 4.96612 57.4872 8.78939 57.4872 13.9744M96.6234 0.669277C86.6931 0.669277 79.5321 5.60596 79.5321 13.9786C79.5321 22.3513 86.6941 27.288 96.6234 27.288C106.553 27.288 113.721 22.3555 113.721 13.9786C113.721 5.60175 106.553 0.669277 96.6234 0.669277ZM96.6234 23.148C91.1617 23.148 88.1468 19.05 88.1468 13.9765C88.1468 8.90304 91.1617 4.8051 96.6234 4.8051C102.085 4.8051 105.106 8.90936 105.106 13.9765C105.106 19.0437 102.087 23.148 96.6234 23.148ZM139.536 15.9045V26.6113H147.743V1.33438H139.537V10.9762H126.992V1.33438H118.804V26.6103H126.992V15.9013H139.537L139.536 15.9045ZM35.2505 1.33438H43.8947V26.6103H35.2505V1.33438ZM10.4595 12.9042V15.3246C14.6605 18.6083 18.4375 22.3991 21.7044 26.6103H31.3796C27.7789 22.4103 23.6307 18.7109 19.0457 15.6109C23.5112 15.4288 28.4848 13.6229 28.4848 8.5063C28.4848 1.94581 21.4577 0.739786 14.3589 0.739786C8.56094 0.739786 3.20996 1.00709 0 1.26597V26.6103H8.07285V5.08609C10.172 4.84107 12.2845 4.72754 14.3979 4.74617C18.5534 4.74617 20.6565 6.11426 20.6565 8.5063C20.6565 10.549 19.7858 12.9947 10.4669 12.9052"
                        fill="#CF142B" />
                    <path
                        d="M0.648926 34.1927H2.713V36.1922H0.648926V34.1927ZM0.648926 38.3128H2.713V48.6166H0.648926V38.3128ZM18.1651 48.6176V42.0024C18.1651 40.7459 17.7729 39.7156 16.3276 39.7156C14.6357 39.7156 14.0369 41.4152 14.0369 43.0021V48.6176H11.9739V42.0024C11.9739 40.7469 11.5818 39.7166 10.1375 39.7166C8.44243 39.7166 7.82574 41.4162 7.82574 43.0032V48.6187H5.76166V40.6859C5.76688 39.895 5.73169 39.1043 5.65625 38.317H7.59382L7.65496 40.0892C7.9274 39.4861 8.37218 38.9769 8.9335 38.6253C9.49482 38.2736 10.1477 38.0954 10.8101 38.1128C11.4764 38.0749 12.136 38.2619 12.6829 38.6437C13.2298 39.0255 13.6321 39.5798 13.825 40.2176C14.0863 39.5951 14.5258 39.0634 15.0883 38.689C15.6508 38.3146 16.3115 38.1142 16.9876 38.1128C19.235 38.1128 20.246 39.6388 20.246 41.7603V48.6229L18.1651 48.6176ZM111.339 48.6176L111.277 46.9885C109.801 49.7415 104.611 49.4511 104.611 45.8972C104.611 43.2189 107.178 42.1203 111.215 42.3107C111.215 42.2971 111.436 40.3733 110.107 39.785C109.392 39.5782 108.641 39.5242 107.904 39.6264C107.166 39.7287 106.458 39.985 105.827 40.3786L105.704 38.7937C108.102 37.8045 113.239 37.1836 113.239 41.9561V46.334C113.234 47.0987 113.275 47.8631 113.362 48.6229L111.339 48.6176ZM109.317 47.3169C110.832 46.958 111.279 45.4321 111.215 43.5683C111.215 43.5683 106.528 43.1916 106.653 45.7846C106.728 47.3064 108.195 47.5852 109.317 47.3169ZM29.0452 48.6176L28.9819 46.9885C27.5061 49.7415 22.3153 49.4511 22.3153 45.8972C22.3153 43.2189 24.8812 42.1203 28.9187 42.3107C28.9187 42.2971 29.1401 40.3733 27.8107 39.785C27.0956 39.5782 26.3449 39.5242 25.6074 39.6264C24.87 39.7287 24.1624 39.985 23.5308 40.3786L23.4064 38.7937C25.8047 37.8045 30.9406 37.1836 30.9406 41.9561V46.334C30.9351 47.0987 30.9759 47.8631 31.0629 48.6229L29.0452 48.6176ZM27.0233 47.3169C28.5371 46.958 28.984 45.4321 28.9208 43.5683C28.9208 43.5683 24.2339 43.1916 24.3594 45.7846C24.4321 47.3064 25.8995 47.5852 27.0233 47.3169ZM127.793 52.7366L127.917 50.9854C128.866 51.4791 129.92 51.7338 130.99 51.7274C134.559 51.6716 134.353 48.7134 134.353 46.8233C134.008 47.3612 133.536 47.806 132.978 48.1181C132.42 48.4301 131.794 48.5999 131.154 48.6123C128.14 48.6218 126.964 45.994 126.964 43.4199C126.964 40.6838 128.141 38.1023 131.197 38.1023C131.865 38.07 132.529 38.2343 133.105 38.5747C133.681 38.9152 134.144 39.4169 134.437 40.0176V38.3075H136.419V48.0336C136.419 53.7711 131.307 53.8216 127.792 52.7303M131.798 39.6882C129.672 39.6882 129.198 41.7067 129.198 43.4378C129.198 45.0438 129.693 47.0243 131.777 47.0243C133.78 47.0243 134.419 45.0027 134.419 43.4378C134.419 41.7909 133.798 39.6882 131.798 39.6882ZM33.9566 52.7366L34.081 50.9854C35.0301 51.4792 36.0857 51.7339 37.156 51.7274C40.7286 51.6716 40.5209 48.7134 40.5209 46.8233C40.1766 47.3614 39.7045 47.8062 39.1465 48.1183C38.5885 48.4304 37.962 48.6001 37.3225 48.6123C34.3087 48.6218 33.1312 45.994 33.1312 43.4199C33.1312 40.6838 34.3087 38.1023 37.3626 38.1023C38.0315 38.0703 38.695 38.2346 39.2713 38.575C39.8476 38.9154 40.3114 39.417 40.6052 40.0176V38.3075H42.5839V48.0336C42.5839 53.7711 37.4743 53.8216 33.9587 52.7303M37.9645 39.6882C35.8383 39.6882 35.3618 41.7067 35.3618 43.4378C35.3618 45.0438 35.8562 47.0243 37.9424 47.0243C39.9453 47.0243 40.5842 45.0027 40.5842 43.4378C40.5842 41.7909 39.9654 39.6882 37.9645 39.6882ZM45.6379 34.1864H47.7009V36.1859H45.6379V34.1864ZM45.6379 38.3065H47.7009V48.6102H45.6379V38.3065ZM140.757 43.9893C140.877 47.5884 144.087 48.042 146.948 46.6676L147.072 48.2756C142.926 49.6163 138.631 48.826 138.631 43.4136C138.631 40.5901 140.423 38.0981 143.295 38.0981C148.159 38.0981 147.609 43.9914 147.609 43.9914L140.757 43.9893ZM143.318 39.5177C141.561 39.5177 140.736 41.3941 140.736 42.7128H145.627C145.627 41.2478 145.07 39.5177 143.315 39.5177M63.8519 43.9893C63.972 47.5884 67.182 48.042 70.0462 46.6676L70.1695 48.2756C66.0224 49.6163 61.7277 48.826 61.7277 43.4136C61.7277 40.5901 63.5261 38.0981 66.3924 38.0981C71.2564 38.0981 70.7071 43.9914 70.7071 43.9914L63.8519 43.9893ZM66.4114 39.5177C64.6562 39.5177 63.8329 41.3941 63.8329 42.7128H68.7242C68.7242 41.2478 68.1676 39.5177 66.4114 39.5177ZM73.2467 46.4824H75.4604V48.605H73.2467V46.4824ZM82.7458 43.4126C82.7458 38.7264 87.2724 37.2173 91.2129 38.5296L91.0896 40.1776C88.51 38.9737 84.9754 39.724 84.9754 43.4147C84.9754 46.9875 88.3487 48.0135 91.1107 46.7938L91.2161 48.4208C87.9481 49.5353 82.749 48.6818 82.749 43.4136M98.9927 38.097C98.3296 38.0645 97.6717 38.2291 97.1023 38.57C96.5329 38.911 96.0777 39.4129 95.7943 40.0124V34.1812H93.7303V48.6039H95.7943V43.2221C95.7943 41.6141 96.4142 39.7156 98.3128 39.7156C100.086 39.7156 100.358 41.0679 100.358 42.537V48.6144H102.441V42.1055C102.441 39.7566 101.472 38.1065 98.9959 38.1065M122.678 48.6155V42.536C122.678 41.0942 122.41 39.7145 120.633 39.7145C118.715 39.7145 118.118 41.4615 118.118 43.0821V48.6123H116.049V40.6785C116.056 39.8872 116.02 39.0962 115.944 38.3086H117.883L117.947 40.0808C118.256 39.4663 118.736 38.9534 119.328 38.6029C119.921 38.2524 120.602 38.079 121.291 38.1034C123.849 38.1034 124.759 39.7314 124.759 42.1024V48.6144L122.678 48.6155ZM57.4383 48.6155V42.536C57.4383 41.0942 57.1705 39.7145 55.3932 39.7145C53.4746 39.7145 52.8769 41.4615 52.8769 43.0821V48.6123H50.8075V40.6785C50.8138 39.8872 50.7786 39.0962 50.7021 38.3086H52.6439L52.705 40.0808C53.0147 39.4665 53.4942 38.9537 54.0869 38.6032C54.6796 38.2528 55.3605 38.0793 56.0489 38.1034C58.6095 38.1034 59.5171 39.7314 59.5171 42.1024V48.6144L57.4383 48.6155ZM150.155 46.4918H152.355V48.6166H150.148L150.155 46.4918Z"
                        fill="#6D6E71" />
                </svg>