<svg xmlns="http://www.w3.org/2000/svg" width="168" height="147" viewBox="0 0 168 147" fill="none">
            <mask id="mask0_5030_2421" style="mask-type:luminance" maskUnits="userSpaceOnUse" x="0" y="0" width="168"
                height="147">
                <path d="M168 0H0V147H168V0Z" fill="white" />
            </mask>
            <g mask="url(#mask0_5030_2421)">
                <path
                    d="M28.9431 116.579H42.9509C43.6811 116.578 44.3812 116.288 44.8973 115.773C45.4134 115.257 45.7033 114.558 45.7033 113.829V-37.8948C45.7019 -39.3564 46.2814 -40.7589 47.3147 -41.7945C48.3479 -42.8301 49.7504 -43.4142 51.2146 -43.4187H205.963C207.429 -43.4162 208.835 -42.8333 209.872 -41.7978C210.908 -40.7623 211.491 -39.3588 211.493 -37.8948V116.579C211.493 118.043 210.91 119.447 209.873 120.483C208.836 121.519 207.43 122.101 205.963 122.103H53.9923C53.628 122.101 53.267 122.171 52.93 122.309C52.593 122.447 52.2867 122.65 52.0286 122.907C51.7705 123.164 51.5659 123.469 51.4263 123.805C51.2868 124.14 51.2152 124.501 51.2156 124.864V138.842C51.2166 139.202 51.1464 139.558 51.0091 139.891C50.8718 140.224 50.6701 140.526 50.4155 140.781C50.1608 141.036 49.8584 141.238 49.5253 141.376C49.1923 141.514 48.8353 141.585 48.4748 141.585H28.9431C28.5804 141.588 28.2208 141.519 27.885 141.382C27.5493 141.245 27.2438 141.043 26.9863 140.788C26.7288 140.534 26.5243 140.23 26.3844 139.896C26.2446 139.562 26.1723 139.204 26.1716 138.842V119.346C26.1725 118.613 26.4649 117.91 26.9846 117.392C27.5043 116.874 28.2088 116.584 28.9431 116.584"
                    stroke="#B1B1B1" stroke-width="2" />
            </g>
        </svg>