 <svg xmlns="http://www.w3.org/2000/svg" width="43" height="43" viewBox="0 0 43 43" fill="none">
                            <path
                                d="M38.284 0.780518H4.55044C2.51273 0.780518 0.86084 2.42959 0.86084 4.46382V38.1398C0.86084 40.174 2.51273 41.8231 4.55044 41.8231H38.284C40.3217 41.8231 41.9736 40.174 41.9736 38.1398V4.46382C41.9736 2.42959 40.3217 0.780518 38.284 0.780518Z"
                                stroke="#B1B1B1" />
                            <path fill-rule="evenodd" clip-rule="evenodd"
                                d="M19.1138 24.3633V17.0482L26.1609 20.7189L19.1159 24.3633H19.1138ZM34.5859 15.7812C34.4624 14.8471 34.1057 13.9591 33.5486 13.1987C32.8567 12.5023 31.9177 12.1064 30.9353 12.0968C27.2868 11.8306 21.8125 11.8306 21.8125 11.8306H21.8019C21.8019 11.8306 16.3276 11.8306 12.6781 12.0937C11.6952 12.104 10.7561 12.5011 10.0648 13.1987C9.50753 13.9602 9.15085 14.8493 9.02747 15.7843C8.86543 17.1818 8.77851 18.587 8.76709 19.9938V21.9691C8.77855 23.3759 8.86547 24.7811 9.02747 26.1786C9.14891 27.117 9.50571 28.0097 10.0648 28.7738C10.8582 29.4778 11.8791 29.8727 12.9406 29.8861C15.0268 30.085 21.8072 30.1461 21.8072 30.1461C21.8072 30.1461 27.2889 30.1387 30.9363 29.8756C31.9192 29.8665 32.8587 29.4705 33.5507 28.7738C34.1079 28.0126 34.4645 27.1238 34.588 26.1891C34.75 24.7916 34.8369 23.3865 34.8484 21.9797V19.9949C34.837 18.5881 34.7501 17.1829 34.588 15.7854L34.5859 15.7812Z"
                                fill="#B1B1B1" />
                        </svg>