<svg xmlns="http://www.w3.org/2000/svg" width="43" height="43" viewBox="0 0 43 43" fill="none">
                            <path
                                d="M37.95 0.780518H4.21646C2.17875 0.780518 0.526855 2.42959 0.526855 4.46382V38.1398C0.526855 40.174 2.17875 41.8231 4.21646 41.8231H37.95C39.9877 41.8231 41.6396 40.174 41.6396 38.1398V4.46382C41.6396 2.42959 39.9877 0.780518 37.95 0.780518Z"
                                stroke="#B1B1B1" />
                            <path
                                d="M14.7518 16.9081V31.8307H9.77396V16.9081H14.7518ZM15.068 12.2997C15.0808 12.6426 15.0194 12.9841 14.8878 13.301C14.7563 13.618 14.5578 13.9028 14.3059 14.1361C13.7492 14.6417 13.0146 14.9065 12.2629 14.8728H12.2281C11.8636 14.8894 11.4996 14.8328 11.1575 14.7063C10.8154 14.5797 10.5023 14.3858 10.2367 14.1361C9.99147 13.8986 9.79823 13.6128 9.66922 13.2969C9.54021 12.981 9.47824 12.6418 9.48723 12.3008C9.47782 11.9558 9.54226 11.6128 9.67624 11.2947C9.81022 10.9766 10.0107 10.6906 10.2642 10.456C10.8176 9.95564 11.5464 9.69323 12.2924 9.72565C12.6581 9.70862 13.0235 9.76443 13.3674 9.88982C13.7113 10.0152 14.0267 10.2077 14.2953 10.456C14.5431 10.6946 14.7393 10.9814 14.8717 11.2988C15.004 11.6161 15.0698 11.9571 15.0649 12.3008L15.068 12.2997ZM32.6558 23.2771V31.8307H27.6928V23.8495C27.7414 22.9818 27.5288 22.1194 27.0824 21.3733C26.8685 21.0726 26.5805 20.8321 26.2463 20.6751C25.912 20.518 25.5428 20.4497 25.1744 20.4767C24.599 20.4573 24.0352 20.6414 23.5826 20.9966C23.1594 21.3377 22.83 21.7805 22.6254 22.2836C22.5008 22.6778 22.4445 23.0903 22.4588 23.5033V31.8307H17.4989C17.5193 27.8254 17.5295 24.5778 17.5295 22.0879C17.5295 19.598 17.5235 18.1124 17.5116 17.6311L17.4989 16.9081H22.462V19.076H22.4314C22.6151 18.7795 22.822 18.4979 23.0502 18.2341C23.3099 17.9479 23.595 17.6859 23.902 17.4511C24.2943 17.1522 24.7396 16.9298 25.2144 16.7955C25.7754 16.6336 26.3573 16.5553 26.9412 16.5629C27.7148 16.5315 28.4861 16.668 29.2019 16.9628C29.9177 17.2577 30.5609 17.704 31.0872 18.2709C32.2246 19.6824 32.785 21.4712 32.6558 23.2781V23.2771Z"
                                fill="#B1B1B1" />
                        </svg>