<svg xmlns="http://www.w3.org/2000/svg" width="43" height="43" viewBox="0 0 43 43" fill="none">
                            <path
                                d="M38.117 0.780518H4.38345C2.34574 0.780518 0.693848 2.42959 0.693848 4.46382V38.1398C0.693848 40.174 2.34574 41.8231 4.38345 41.8231H38.117C40.1547 41.8231 41.8066 40.174 41.8066 38.1398V4.46382C41.8066 2.42959 40.1547 0.780518 38.117 0.780518Z"
                                stroke="#B1B1B1" />
                            <path
                                d="M22.8641 32.2986V23.0016H26.1281L26.8051 18.8519H22.8641V17.384C22.8641 15.1908 23.6285 14.3477 25.6066 14.3477C26.2212 14.3477 26.7158 14.365 27 14.3985V10.6358C26.4603 10.4672 25.1419 10.2986 24.3775 10.2986C20.3462 10.2986 18.4881 12.441 18.4881 17.063V18.8508H16V23.0005H18.4881V32.2975H22.8641V32.2986Z"
                                fill="#B1B1B1" />
                        </svg>