<svg xmlns="http://www.w3.org/2000/svg" xmlns:xlink="http://www.w3.org/1999/xlink" width="60.23" height="60.23" viewBox="0 0 60.23 60.23"><defs><style>.a{fill:none;}.b{clip-path:url(#p);}.c{fill:#0f7ac9;}.d{clip-path:url(#a);}.e{fill:#fff;}.f{isolation:isolate;}.g{clip-path:url(#b);}.h{clip-path:url(#c);}.i{clip-path:url(#d);}.j{clip-path:url(#e);}.k{clip-path:url(#f);}.l{clip-path:url(#g);}.m{clip-path:url(#h);}.n{clip-path:url(#k);}</style><clipPath id="a"><rect class="a" width="39.149" height="31.008"/></clipPath><clipPath id="b"><rect class="a" width="19.562" height="18.672"/></clipPath><clipPath id="c"><rect class="a" width="8.677" height="14.684" rx="3"/></clipPath><clipPath id="d"><rect class="a" width="5.602" height="5.602" rx="2.801"/></clipPath><clipPath id="e"><rect class="a" width="3.373" height="3.388"/></clipPath><clipPath id="f"><rect class="a" width="3.681" height="3.698"/></clipPath><clipPath id="g"><rect class="a" width="34.701" height="30.118"/></clipPath><clipPath id="h"><rect class="a" width="0.789" height="0.813"/></clipPath><clipPath id="k"><rect class="a" width="7.381" height="7.381" rx="3.691"/></clipPath><clipPath id="p"><rect width="60.23" height="60.23"/></clipPath></defs><g id="o" class="b"><g transform="translate(-851.266 -2563.766)"><path class="c" d="M114.752,230.329H110.2a.9.9,0,0,1-.895-.9v-49.4a1.8,1.8,0,0,0-1.791-1.8h-50.3a1.8,1.8,0,0,0-1.8,1.8v50.294a1.8,1.8,0,0,0,1.8,1.8H106.61a.9.9,0,0,1,.9.9v4.551a.889.889,0,0,0,.891.893h6.348a.9.9,0,0,0,.9-.893v-6.349a.9.9,0,0,0-.9-.9" transform="translate(795.848 2385.53)"/><g transform="translate(861.167 2578.333)"><g transform="translate(-2 -2)"><g class="d"><path class="e" d="M19.717,27.083H0V3.433H19.717V5.311H1.879V25.2H19.717Z" transform="translate(1.349 -0.224)"/><path class="e" d="M57.923,27.083H49.8V25.205h6.244V5.312h-6.32V3.434h8.2Z" transform="translate(-21.013 -0.225)"/><g class="f" transform="translate(5.332 5.723)"><g transform="translate(0 0)"><g class="g"><path class="e" d="M17.7,10.565a7.891,7.891,0,1,1-7.852,7.891A7.881,7.881,0,0,1,17.7,10.565Zm0,14.324a6.434,6.434,0,1,0-6.4-6.434A6.422,6.422,0,0,0,17.7,24.89Z" transform="translate(-8.323 -9.12)"/></g></g></g><g class="f" transform="translate(7.771 8.185)"><g transform="translate(0 0)"><g class="h"><path class="e" d="M19.8,26.014a5.452,5.452,0,0,1,0-10.9v1.457a3.995,3.995,0,0,0,0,7.989Z" transform="translate(-12.901 -13.665)"/></g></g></g><g class="f" transform="translate(11.867 12.255)"><g class="i"><path class="e" d="M21.759,19.34a3.135,3.135,0,1,1-3.134,3.135A3.139,3.139,0,0,1,21.759,19.34Zm0,4.813a1.678,1.678,0,1,0-1.677-1.678A1.68,1.68,0,0,0,21.759,24.153Z" transform="translate(-18.958 -19.674)"/></g></g><g class="f" transform="translate(20.382 5.929)"><g class="j"><path class="e" d="M.517,3.345-.517,2.318,2.3-.513,3.331.513Z" transform="translate(0.28 0.278)"/></g></g><g class="f" transform="translate(16.195 9.833)"><g class="k"><path class="e" d="M.517,3.655-.517,2.628,2.6-.513,3.638.513Z" transform="translate(0.28 0.278)"/></g></g></g></g><path class="e" d="M3.081.753-.006.728.006-.728,3.093-.7Z" transform="translate(23.402 13.034)"/><path class="e" d="M.867.736-.006.728.006-.728l.873.007Z" transform="translate(21.806 13.021)"/><path class="e" d="M.837.736-.006.728.006-.728l.843.007Z" transform="translate(20.21 13.008)"/><path class="e" d="M.777.735-.006.728.006-.728l.783.006Z" transform="translate(18.644 12.996)"/><path class="e" d="M2.553.749-.006.728.006-.728l2.559.021Z" transform="translate(15.242 12.968)"/><path class="e" d="M2.349,3.361-.514.517.514-.517,3.376,2.327Z" transform="translate(18.613 19.067)"/><path class="e" d="M2.681,3.691-.513.517.513-.517,3.708,2.657Z" transform="translate(14.384 14.865)"/><g transform="translate(-0.22 -2)"><g class="l"><g class="f" transform="translate(12.468 14.624)"><g class="m"><path class="e" d="M.729.813H-.729V0H.729Z" transform="translate(0.394)"/></g></g><g class="f" transform="translate(20.551 1.78)"><g class="i"><path class="e" d="M41.077,0a3.135,3.135,0,1,1-3.134,3.135A3.139,3.139,0,0,1,41.077,0Zm0,4.813A1.678,1.678,0,1,0,39.4,3.135,1.68,1.68,0,0,0,41.077,4.813Z" transform="translate(-38.276 -0.334)"/></g></g><g class="f" transform="translate(22.932 4.149)"><g class="m"><path class="e" d="M.729.813H-.729V0H.729Z" transform="translate(0.395)"/></g></g><g class="f" transform="translate(25.322 11.369)"><g transform="translate(0 0)"><g class="n"><path class="e" d="M51.528,19.345a3.135,3.135,0,1,1-3.134,3.135A3.139,3.139,0,0,1,51.528,19.345Zm0,4.813A1.678,1.678,0,1,0,49.85,22.48,1.68,1.68,0,0,0,51.528,24.158Z" transform="translate(-47.838 -18.79)"/></g></g></g><g class="f" transform="translate(28.593 14.627)"><g class="m"><path class="e" d="M.729.813H-.729V0H.729Z" transform="translate(0.394)"/></g></g><g class="f" transform="translate(20.581 22.737)"><g transform="translate(0)"><g class="i"><path class="e" d="M41.133,38.692A3.135,3.135,0,1,1,38,41.826,3.139,3.139,0,0,1,41.133,38.692Zm0,4.813a1.678,1.678,0,1,0-1.677-1.678A1.68,1.68,0,0,0,41.133,43.5Z" transform="translate(-38.332 -39.026)"/></g></g></g><g class="f" transform="translate(22.962 25.106)"><g class="m"><path class="e" d="M.729.813H-.729V0H.729Z" transform="translate(0.394)"/></g></g></g></g></g></g></g></svg>