<svg xmlns="http://www.w3.org/2000/svg" xmlns:xlink="http://www.w3.org/1999/xlink" width="60.23" height="60.23" viewBox="0 0 60.23 60.23"><defs><style>.a{clip-path:url(#b);}.b{fill:#0f7ac9;}.c{fill:#fff;}</style><clipPath id="b"><rect width="60.23" height="60.23"/></clipPath></defs><g id="a" class="a"><path class="b" d="M114.752,230.329H110.2a.9.9,0,0,1-.895-.9v-49.4a1.8,1.8,0,0,0-1.791-1.8h-50.3a1.8,1.8,0,0,0-1.8,1.8v50.294a1.8,1.8,0,0,0,1.8,1.8H106.61a.9.9,0,0,1,.9.9v4.551a.889.889,0,0,0,.891.893h6.348a.9.9,0,0,0,.9-.893v-6.349a.9.9,0,0,0-.9-.9" transform="translate(-55.418 -178.236)"/><g transform="translate(0 1)"><path class="c" d="M451.849,1408.736l-.172,0H430.154a9.359,9.359,0,0,1-4.714-1.275l-.013-.007a6.1,6.1,0,0,1-.582-.34l-.2-.117.009-.015a6.114,6.114,0,0,1-2.553-4.947,8.059,8.059,0,0,1,3.241-6.617,6.037,6.037,0,0,1,3.454-1.255h.037a3.88,3.88,0,0,1,.952.117c.015-.042.032-.087.051-.137.075-.2.2-.517.394-.91a14,14,0,0,1,1.73-2.723,11.654,11.654,0,0,1,8.43-4.372c.33-.022.66-.033.981-.033a10.477,10.477,0,0,1,7.671,3,9.523,9.523,0,0,1,2.078,3.074c.177-.013.472-.029.848-.029a10.381,10.381,0,0,1,6.765,2.2l.028.026a8.094,8.094,0,0,1,2.445,6.292,7.469,7.469,0,0,1-2.146,5.56l-.017.017a8.951,8.951,0,0,1-4.237,2.147A13.561,13.561,0,0,1,451.849,1408.736Zm-24.677-2.415a7.563,7.563,0,0,0,2.983.613h21.695c.644,0,3.955-.1,5.939-1.987a5.664,5.664,0,0,0,1.617-4.248l0-.052,0-.052a6.3,6.3,0,0,0-1.886-4.922,8.134,8.134,0,0,0-5.552-1.73c-.479,0-.793.03-.833.034a1.551,1.551,0,0,1-1.646-1.019l-.022-.068c-.094-.26-1.917-4.99-8.1-4.99-.281,0-.57.01-.861.029a9.739,9.739,0,0,0-7.024,3.556,11.45,11.45,0,0,0-2.036,3.486l-.022.075a1.589,1.589,0,0,1-.733.926l-.046.027-.049.021a1.558,1.558,0,0,1-1.176.022,2.047,2.047,0,0,0-.573-.084,4.247,4.247,0,0,0-2.415.886l-.014.01A6.257,6.257,0,0,0,423.9,1402v.016a4.313,4.313,0,0,0,2.394,3.854l.881.438Z" transform="translate(-414.588 -1377.861)"/><rect class="b" width="18" height="5" transform="translate(18 27.322)"/><path class="b" d="M7.249,14.779V2.729A.479.479,0,0,0,6.77,2.25H4.535a.479.479,0,0,0-.479.479v12.05H2.218a.958.958,0,0,0-.677,1.635l3.435,3.435a.958.958,0,0,0,1.355,0l3.435-3.435a.958.958,0,0,0-.677-1.635H7.249Z" transform="translate(37.618 40.467) rotate(180)"/><path class="c" d="M5.652,20.88a1.7,1.7,0,0,1-1.208-.5L1.01,16.945a1.708,1.708,0,0,1,1.208-2.915H3.306V2.729A1.23,1.23,0,0,1,4.535,1.5H6.77A1.23,1.23,0,0,1,8,2.729v11.3H9.087a1.708,1.708,0,0,1,1.208,2.915L6.86,20.379A1.7,1.7,0,0,1,5.652,20.88Zm-3.435-5.35a.208.208,0,0,0-.147.355l3.435,3.435a.208.208,0,0,0,.294,0l3.435-3.435a.208.208,0,0,0-.147-.355H6.5V3H4.806V15.529Z" transform="translate(37.618 40.467) rotate(180)"/><path class="b" d="M7.249,14.779V2.729A.479.479,0,0,0,6.77,2.25H4.535a.479.479,0,0,0-.479.479v12.05H2.218a.958.958,0,0,0-.677,1.635l3.435,3.435a.958.958,0,0,0,1.355,0l3.435-3.435a.958.958,0,0,0-.677-1.635H7.249Z" transform="translate(16.525 23.768)"/><path class="c" d="M5.652,20.88a1.7,1.7,0,0,1-1.208-.5L1.01,16.945a1.708,1.708,0,0,1,1.208-2.915H3.306V2.729A1.23,1.23,0,0,1,4.535,1.5H6.77A1.23,1.23,0,0,1,8,2.729v11.3H9.087a1.708,1.708,0,0,1,1.208,2.915L6.86,20.379A1.7,1.7,0,0,1,5.652,20.88Zm-3.435-5.35a.208.208,0,0,0-.147.355l3.435,3.435a.208.208,0,0,0,.294,0l3.435-3.435a.208.208,0,0,0-.147-.355H6.5V3H4.806V15.529Z" transform="translate(16.525 23.768)"/></g></g></svg>