<?xml version="1.0" encoding="UTF-8"?>
<svg id="_07_E-Signature" xmlns="http://www.w3.org/2000/svg" xmlns:xlink="http://www.w3.org/1999/xlink" version="1.1" viewBox="0 0 600 200">
  <!-- Generator: Adobe Illustrator 30.3.0, SVG Export Plug-In . SVG Version: 2.1.3 Build 182)  -->
  <defs>
    <style>
      .st0, .st1 {
        fill: none;
      }

      .st2 {
        fill: #750a1a;
      }

      .st3 {
        fill: #69910c;
      }

      .st4 {
        fill-rule: evenodd;
      }

      .st4, .st5 {
        fill: #fff;
      }

      .st6 {
        fill: #94be21;
      }

      .st1 {
        opacity: .2;
        stroke: #64666a;
        stroke-miterlimit: 8;
        stroke-width: 2px;
      }

      .st1, .st7 {
        isolation: isolate;
      }

      .st8 {
        fill: #89a920;
      }

      .st9 {
        fill: #cf122e;
      }

      .st10 {
        fill: #596d16;
      }

      .st11 {
        clip-path: url(#clippath-1);
      }

      .st12 {
        fill: #688222;
      }

      .st13 {
        fill: #717171;
      }

      .st14 {
        fill: #6f8900;
      }

      .st15 {
        fill: #96c120;
      }

      .st16 {
        fill: #bae229;
      }

      .st17 {
        fill: #b8e12a;
      }

      .st18 {
        fill: #9b0e23;
      }

      .st19 {
        fill: #64666a;
      }

      .st20 {
        clip-path: url(#clippath);
      }
    </style>
    <clipPath id="clippath">
      <polygon class="st0" points="533.3 133.3 466.7 133.3 466.7 200 533.3 200 600 200 600 133.3 533.3 133.3"/>
    </clipPath>
    <clipPath id="clippath-1">
      <rect class="st0" x="400" width="66.7" height="66.7"/>
    </clipPath>
  </defs>
  <g>
    <g>
      <rect class="st18" x="533.3" y="66.7" width="66.7" height="66.7"/>
      <g>
        <path class="st5" d="M566.7,107.3h0c13.7,0,24.8,11.1,24.8,24.9v1.2h-49.7v-1.2c0-13.7,11.1-24.8,24.8-24.8h0Z"/>
        <path class="st5" d="M579,91.2c-.2,6.4-5.5,11.7-11.9,11.9-7.1.2-12.9-5.6-12.7-12.7.2-6.4,5.5-11.7,11.9-11.9,7.1-.2,12.9,5.6,12.7,12.7Z"/>
      </g>
    </g>
    <g>
      <rect class="st16" x="400" y="66.7" width="66.7" height="66.7"/>
      <g>
        <g>
          <path class="st15" d="M455.5,99c-2.5,6.3-7.5,10.5-12.5,15.2-2.2,2.1-6.1,4.8-8.8,7,0,0,0,0-.1,0-.2.2-.5.4-.7.6,0,0,0,0-.1,0h0s0,0-.1,0,0,0-.1,0c-.2-.2-.5-.4-.8-.7,0,0,0,0,0,0-.1,0-.2-.2-.3-.2-2.3-1.9-4.8-3.7-7.6-5.9-5.3-4.2-10.7-9.6-13.2-15.8-2.5-6.3-1.7-14.5,3.7-18.6,3.6-2.7,8.9-3.1,12.8-.9,2.5,1.4,4.4,3.8,5.4,6.6,0,.2.2.5.2.8.8-3,2.8-5.8,5.6-7.3,4-2.2,9.2-1.8,12.8.9,5.4,4.1,6.2,12.2,3.7,18.6h0Z"/>
          <path class="st14" d="M433.1,86.1v35.7c-.2-.2-.5-.4-.8-.7,0,0,0,0,0,0-.1,0-.2-.2-.3-.2-2.3-1.9-4.8-3.7-7.6-5.9-5.3-4.2-10.7-9.6-13.2-15.8-2.5-6.3-1.7-14.5,3.7-18.5,3.6-2.7,8.9-3.1,12.8-.9,2.5,1.4,4.4,3.8,5.4,6.6h0Z"/>
        </g>
        <g>
          <path class="st19" d="M434.2,113.5v7.7c-.3.2-.5.4-.8.7h0c0,0,0,.1,0,.1h0s0,0-.1-.1c0,0,0,0-.1-.1,0,0,0,0-.1,0-.2-.2-.5-.4-.7-.7,0,0,0,0,0,0v-7.4c0,0,.1,0,.2,0,0,0,.1,0,.2,0,0,0,.1,0,.2,0,.1,0,.2,0,.3,0h.4c0,0,.1,0,.2,0,0,0,0,0,.1,0,0,0,0,0,.1,0,0,0,.1,0,.2,0h0Z"/>
          <path class="st16" d="M440.8,106c0,3.8-2.8,7-6.5,7.5-.3,0-.7,0-1,0h-.2c-.3,0-.5,0-.8,0-3.7-.5-6.5-3.7-6.5-7.5s1-4.3,2.6-5.7c-.3-.7-.5-1.5-.5-2.4,0-2,1.1-3.8,2.7-4.7,0-.2-.1-.5-.1-.8,0-1.5,1.2-2.8,2.7-2.9h.2c1.6,0,2.9,1.3,2.9,2.9s0,.5-.1.8c1.6,1,2.7,2.7,2.7,4.7s-.2,1.6-.5,2.4c1.6,1.4,2.6,3.4,2.6,5.7h0Z"/>
        </g>
        <g>
          <path class="st17" d="M433,89.5v24c-.3,0-.5,0-.8,0-3.7-.5-6.5-3.7-6.5-7.5s1-4.3,2.6-5.7c-.3-.7-.5-1.5-.5-2.4,0-2,1.1-3.8,2.7-4.7,0-.2-.1-.5-.1-.8,0-1.5,1.2-2.8,2.7-2.9h0Z"/>
          <path d="M433,113.5v8.1c-.2-.2-.5-.4-.7-.7,0,0,0,0,0,0v-7.4c.2,0,.4,0,.6,0h.2Z"/>
        </g>
      </g>
    </g>
    <g>
      <rect class="st2" x="466.7" y="66.7" width="66.7" height="66.7"/>
      <g>
        <g>
          <g>
            <path class="st18" d="M497,117.2c-.2-.2-.4-.4-.7-.6-.4-.3-.8-.5-1.3-.6l-.3-2c-.3-2.1-2.1-3.6-4.2-3.6h-5.7c-2,0-3.8,1.4-4.1,3.4l-.3,1.4-2.7.7c-2,.5-3.4,2.3-3.4,4.4v.5c0,.3.3.6.6.6h3.2c.2-1.4,1.3-2.3,2.7-2.3s2.5,1,2.7,2.3h0c0,0,7.3,0,7.3,0h0c.2-1.4,1.3-2.3,2.7-2.3s2.5,1,2.7,2.3h0c0,0,1.4,0,1.4,0,.4,0,.6-.3.6-.6v-.5c0-1.2-.5-2.3-1.2-3.1h0ZM483.4,115.2c-.4,0-.6-.3-.5-.7l.2-.8c.4-1.2,1.5-2,2.7-2h1v3.6h-3.5ZM488.7,118.2l-.4.5-.5.6-.7.8-.5.6h0s0,0-.1,0,0,0,0,0c0,0,0-.1,0-.2h0l.5-1.7h-1.2c0,0-.1,0-.1,0s0-.1,0-.2t0,0l.2-.2.2-.3,1-1.4h.1c0-.1.3-.6.3-.6h0s0,0,.1,0c0,0,0,0,0,0,0,0,0,0,0,.1h0c0,0-.2,1-.2,1l-.2.7h.6s.7,0,.7,0h0c0,0,.1,0,.1,0h0c0,0,0,.1,0,.1h0ZM492,115.2h-3.8v-3.6h1.3c1.3,0,2.4.8,2.7,2.1l.2.8c.1.3-.1.7-.5.7Z"/>
            <path class="st18" d="M480.8,120.1c-.9,0-1.6.7-1.6,1.6s.7,1.6,1.6,1.6,1.6-.7,1.6-1.6-.7-1.6-1.6-1.6ZM480.8,122.2c-.2,0-.5-.2-.5-.4s.2-.4.5-.4.4.2.4.4-.2.4-.4.4Z"/>
            <path class="st18" d="M493.5,120.1c-.9,0-1.6.7-1.6,1.6s.7,1.6,1.6,1.6,1.6-.7,1.6-1.6-.7-1.6-1.6-1.6ZM493.5,122.2c-.2,0-.5-.2-.5-.4s.2-.4.5-.4.4.2.4.4-.2.4-.4.4Z"/>
          </g>
          <g>
            <path class="st18" d="M480.8,120.1c-.9,0-1.6.7-1.6,1.6s.7,1.6,1.6,1.6,1.6-.7,1.6-1.6-.7-1.6-1.6-1.6ZM480.8,122.2c-.2,0-.5-.2-.5-.4s.2-.4.5-.4.4.2.4.4-.2.4-.4.4Z"/>
            <path class="st18" d="M485.6,118.7l.2-.2.2-.3,1-1.4h.1v-6.4h-2.4c-2,0-3.8,1.4-4.1,3.4l-.3,1.4-2.7.7c-2,.5-3.4,2.3-3.4,4.4v.5c0,.3.3.6.6.6h3.2c.2-1.4,1.3-2.3,2.7-2.3s2.5,1,2.7,2.3h0c0,0,3.7,0,3.7,0v-1.3l-.5.6h0s0,0-.1,0,0,0,0,0c0,0,0-.1,0-.2h0l.5-1.7h-1.2c0,0-.1,0-.1,0s0-.1,0-.2t0,0h0ZM483.4,115.2c-.4,0-.6-.3-.5-.7l.2-.8c.4-1.2,1.5-2,2.7-2h1v3.6h-3.5Z"/>
          </g>
        </g>
        <g>
          <g>
            <path class="st18" d="M524.4,117.2c-.2-.2-.4-.4-.7-.6-.4-.3-.8-.5-1.3-.6l-.3-2c-.3-2.1-2.1-3.6-4.2-3.6h-5.7c-2,0-3.8,1.4-4.1,3.4l-.3,1.4-2.7.7c-2,.5-3.4,2.3-3.4,4.4v.5c0,.3.3.6.6.6h3.2c.2-1.4,1.3-2.3,2.7-2.3s2.5,1,2.7,2.3h0c0,0,7.3,0,7.3,0h0c.2-1.4,1.3-2.3,2.7-2.3s2.5,1,2.7,2.3h0c0,0,1.4,0,1.4,0,.3,0,.6-.3.6-.6v-.5c0-1.2-.5-2.3-1.2-3.1h0ZM510.8,115.2c-.4,0-.6-.3-.5-.7l.2-.8c.4-1.2,1.5-2,2.7-2h1v3.6h-3.5,0ZM516.2,118.2l-.4.5-.5.6-.7.8-.5.6h0s0,0-.1,0,0,0,0,0c0,0,0-.1,0-.2h0l.5-1.7h-1.2c0,0-.1,0-.2,0s0-.1,0-.2t0,0l.2-.2.2-.3,1-1.4h.1c0-.1.3-.6.3-.6h0s0,0,.1,0c0,0,0,0,0,0,0,0,0,0,0,.1h0c0,0-.2,1-.2,1l-.2.7h.6s.7,0,.7,0h0c0,0,.1,0,.1,0h0c0,0,0,.1,0,.1h0ZM519.4,115.2h-3.8v-3.6h1.3c1.3,0,2.4.8,2.7,2.1l.2.8c0,.3-.2.7-.5.7h0Z"/>
            <path class="st18" d="M508.2,120.1c-.9,0-1.6.7-1.6,1.6s.7,1.6,1.6,1.6,1.6-.7,1.6-1.6-.7-1.6-1.6-1.6ZM508.2,122.2c-.2,0-.5-.2-.5-.4s.2-.4.5-.4.4.2.4.4-.2.4-.4.4Z"/>
            <path class="st18" d="M520.9,120.1c-.9,0-1.6.7-1.6,1.6s.7,1.6,1.6,1.6,1.6-.7,1.6-1.6-.7-1.6-1.6-1.6ZM520.9,122.2c-.2,0-.5-.2-.5-.4s.2-.4.5-.4.4.2.4.4-.2.4-.4.4Z"/>
          </g>
          <g>
            <path class="st18" d="M508.2,120.1c-.9,0-1.6.7-1.6,1.6s.7,1.6,1.6,1.6,1.6-.7,1.6-1.6-.7-1.6-1.6-1.6ZM508.2,122.2c-.2,0-.5-.2-.5-.4s.2-.4.5-.4.4.2.4.4-.2.4-.4.4Z"/>
            <path class="st18" d="M513,118.7l.2-.2.2-.3,1-1.4h.1v-6.4h-2.4c-2,0-3.8,1.4-4.1,3.4l-.3,1.4-2.7.7c-2,.5-3.4,2.3-3.4,4.4v.5c0,.3.3.6.6.6h3.2c.2-1.4,1.3-2.3,2.7-2.3s2.5,1,2.7,2.3h0c0,0,3.7,0,3.7,0v-1.3l-.5.6h0s0,0-.1,0,0,0,0,0c0,0,0-.1,0-.2h0l.5-1.7h-1.2c0,0-.1,0-.2,0s0-.1,0-.2t0,0h0ZM510.8,115.2c-.4,0-.6-.3-.5-.7l.2-.8c.4-1.2,1.5-2,2.7-2h1v3.6h-3.5,0Z"/>
          </g>
        </g>
        <g>
          <g>
            <path class="st18" d="M497,100.4c-.2-.2-.4-.4-.7-.6-.4-.3-.8-.5-1.3-.6l-.3-2c-.3-2.1-2.1-3.6-4.2-3.6h-5.7c-2,0-3.8,1.4-4.1,3.4l-.3,1.4-2.7.7c-2,.5-3.4,2.3-3.4,4.4v.5c0,.3.3.6.6.6h3.2c.2-1.4,1.3-2.3,2.7-2.3s2.5,1,2.7,2.3h0c0,0,7.3,0,7.3,0h0c.2-1.4,1.3-2.3,2.7-2.3s2.5,1,2.7,2.3h0c0,0,1.4,0,1.4,0,.4,0,.6-.3.6-.6v-.5c0-1.2-.5-2.3-1.2-3.1h0ZM483.4,98.4c-.4,0-.6-.3-.5-.7l.2-.8c.4-1.2,1.5-2,2.7-2h1v3.6h-3.5ZM488.7,101.4l-.4.5-.5.6-.7.8-.5.6h0s0,0-.1,0,0,0,0,0c0,0,0-.1,0-.2h0l.5-1.7h-1.2c0,0-.1,0-.1,0s0-.1,0-.2t0,0l.2-.2.2-.3,1-1.4h.1c0-.1.3-.6.3-.6h0s0,0,.1,0c0,0,0,0,0,0,0,0,0,0,0,.1h0c0,0-.2,1-.2,1l-.2.7h.6s.7,0,.7,0h0c0,0,.1,0,.1,0h0c0,0,0,.1,0,.1h0ZM492,98.4h-3.8v-3.6h1.3c1.3,0,2.4.8,2.7,2.1l.2.8c.1.3-.1.7-.5.7Z"/>
            <path class="st18" d="M480.8,103.3c-.9,0-1.6.7-1.6,1.6s.7,1.6,1.6,1.6,1.6-.7,1.6-1.6-.7-1.6-1.6-1.6ZM480.8,105.4c-.2,0-.5-.2-.5-.4s.2-.4.5-.4.4.2.4.4-.2.4-.4.4Z"/>
            <path class="st18" d="M493.5,103.3c-.9,0-1.6.7-1.6,1.6s.7,1.6,1.6,1.6,1.6-.7,1.6-1.6-.7-1.6-1.6-1.6ZM493.5,105.4c-.2,0-.5-.2-.5-.4s.2-.4.5-.4.4.2.4.4-.2.4-.4.4Z"/>
          </g>
          <g>
            <path class="st18" d="M480.8,103.3c-.9,0-1.6.7-1.6,1.6s.7,1.6,1.6,1.6,1.6-.7,1.6-1.6-.7-1.6-1.6-1.6ZM480.8,105.4c-.2,0-.5-.2-.5-.4s.2-.4.5-.4.4.2.4.4-.2.4-.4.4Z"/>
            <path class="st18" d="M485.6,101.9l.2-.2.2-.3,1-1.4h.1v-6.4h-2.4c-2,0-3.8,1.4-4.1,3.4l-.3,1.4-2.7.7c-2,.5-3.4,2.3-3.4,4.4v.5c0,.3.3.6.6.6h3.2c.2-1.4,1.3-2.3,2.7-2.3s2.5,1,2.7,2.3h0c0,0,3.7,0,3.7,0v-1.3l-.5.6h0s0,0-.1,0,0,0,0,0c0,0,0-.1,0-.2h0l.5-1.7h-1.2c0,0-.1,0-.1,0s0-.1,0-.2t0,0h0ZM483.4,98.4c-.4,0-.6-.3-.5-.7l.2-.8c.4-1.2,1.5-2,2.7-2h1v3.6h-3.5Z"/>
          </g>
        </g>
        <g>
          <g>
            <path class="st18" d="M524.4,100.4c-.2-.2-.4-.4-.7-.6-.4-.3-.8-.5-1.3-.6l-.3-2c-.3-2.1-2.1-3.6-4.2-3.6h-5.7c-2,0-3.8,1.4-4.1,3.4l-.3,1.4-2.7.7c-2,.5-3.4,2.3-3.4,4.4v.5c0,.3.3.6.6.6h3.2c.2-1.4,1.3-2.3,2.7-2.3s2.5,1,2.7,2.3h0c0,0,7.3,0,7.3,0h0c.2-1.4,1.3-2.3,2.7-2.3s2.5,1,2.7,2.3h0c0,0,1.4,0,1.4,0,.3,0,.6-.3.6-.6v-.5c0-1.2-.5-2.3-1.2-3.1h0ZM510.8,98.4c-.4,0-.6-.3-.5-.7l.2-.8c.4-1.2,1.5-2,2.7-2h1v3.6h-3.5,0ZM516.2,101.4l-.4.5-.5.6-.7.8-.5.6h0s0,0-.1,0,0,0,0,0c0,0,0-.1,0-.2h0l.5-1.7h-1.2c0,0-.1,0-.2,0s0-.1,0-.2t0,0l.2-.2.2-.3,1-1.4h.1c0-.1.3-.6.3-.6h0s0,0,.1,0c0,0,0,0,0,0,0,0,0,0,0,.1h0c0,0-.2,1-.2,1l-.2.7h.6s.7,0,.7,0h0c0,0,.1,0,.1,0h0c0,0,0,.1,0,.1h0ZM519.4,98.4h-3.8v-3.6h1.3c1.3,0,2.4.8,2.7,2.1l.2.8c0,.3-.2.7-.5.7h0Z"/>
            <path class="st18" d="M508.2,103.3c-.9,0-1.6.7-1.6,1.6s.7,1.6,1.6,1.6,1.6-.7,1.6-1.6-.7-1.6-1.6-1.6ZM508.2,105.4c-.2,0-.5-.2-.5-.4s.2-.4.5-.4.4.2.4.4-.2.4-.4.4Z"/>
            <path class="st18" d="M520.9,103.3c-.9,0-1.6.7-1.6,1.6s.7,1.6,1.6,1.6,1.6-.7,1.6-1.6-.7-1.6-1.6-1.6ZM520.9,105.4c-.2,0-.5-.2-.5-.4s.2-.4.5-.4.4.2.4.4-.2.4-.4.4Z"/>
          </g>
          <g>
            <path class="st18" d="M508.2,103.3c-.9,0-1.6.7-1.6,1.6s.7,1.6,1.6,1.6,1.6-.7,1.6-1.6-.7-1.6-1.6-1.6ZM508.2,105.4c-.2,0-.5-.2-.5-.4s.2-.4.5-.4.4.2.4.4-.2.4-.4.4Z"/>
            <path class="st18" d="M513,101.9l.2-.2.2-.3,1-1.4h.1v-6.4h-2.4c-2,0-3.8,1.4-4.1,3.4l-.3,1.4-2.7.7c-2,.5-3.4,2.3-3.4,4.4v.5c0,.3.3.6.6.6h3.2c.2-1.4,1.3-2.3,2.7-2.3s2.5,1,2.7,2.3h0c0,0,3.7,0,3.7,0v-1.3l-.5.6h0s0,0-.1,0,0,0,0,0c0,0,0-.1,0-.2h0l.5-1.7h-1.2c0,0-.1,0-.2,0s0-.1,0-.2t0,0h0ZM510.8,98.4c-.4,0-.6-.3-.5-.7l.2-.8c.4-1.2,1.5-2,2.7-2h1v3.6h-3.5,0Z"/>
          </g>
        </g>
        <g>
          <g>
            <path class="st18" d="M497,83.6c-.2-.2-.4-.4-.7-.6-.4-.3-.8-.5-1.3-.6l-.3-2c-.3-2.1-2.1-3.6-4.2-3.6h-5.7c-2,0-3.8,1.4-4.1,3.4l-.3,1.4-2.7.7c-2,.5-3.4,2.3-3.4,4.4v.5c0,.3.3.6.6.6h3.2c.2-1.4,1.3-2.3,2.7-2.3s2.5,1,2.7,2.3h0c0,0,7.3,0,7.3,0h0c.2-1.4,1.3-2.3,2.7-2.3s2.5,1,2.7,2.3h0c0,0,1.4,0,1.4,0,.4,0,.6-.3.6-.6v-.5c0-1.2-.5-2.3-1.2-3.1h0ZM483.4,81.7c-.4,0-.6-.3-.5-.7l.2-.8c.4-1.2,1.5-2,2.7-2h1v3.6h-3.5ZM488.7,84.6l-.4.5-.5.6-.7.8-.5.6h0s0,0-.1,0,0,0,0,0c0,0,0-.1,0-.2h0l.5-1.7h-1.2c0,0-.1,0-.1,0s0-.1,0-.2t0,0l.2-.2.2-.3,1-1.4h.1c0-.1.3-.6.3-.6h0s0,0,.1,0c0,0,0,0,0,0,0,0,0,0,0,.1h0c0,0-.2,1-.2,1l-.2.7h.6s.7,0,.7,0h0c0,0,.1,0,.1,0h0c0,0,0,.1,0,.1h0ZM492,81.7h-3.8v-3.6h1.3c1.3,0,2.4.8,2.7,2.1l.2.8c.1.3-.1.7-.5.7Z"/>
            <path class="st18" d="M480.8,86.5c-.9,0-1.6.7-1.6,1.6s.7,1.6,1.6,1.6,1.6-.7,1.6-1.6-.7-1.6-1.6-1.6ZM480.8,88.6c-.2,0-.5-.2-.5-.4s.2-.4.5-.4.4.2.4.4-.2.4-.4.4Z"/>
            <path class="st18" d="M493.5,86.5c-.9,0-1.6.7-1.6,1.6s.7,1.6,1.6,1.6,1.6-.7,1.6-1.6-.7-1.6-1.6-1.6ZM493.5,88.6c-.2,0-.5-.2-.5-.4s.2-.4.5-.4.4.2.4.4-.2.4-.4.4Z"/>
          </g>
          <g>
            <path class="st18" d="M480.8,86.5c-.9,0-1.6.7-1.6,1.6s.7,1.6,1.6,1.6,1.6-.7,1.6-1.6-.7-1.6-1.6-1.6ZM480.8,88.6c-.2,0-.5-.2-.5-.4s.2-.4.5-.4.4.2.4.4-.2.4-.4.4Z"/>
            <path class="st18" d="M485.6,85.1l.2-.2.2-.3,1-1.4h.1v-6.4h-2.4c-2,0-3.8,1.4-4.1,3.4l-.3,1.4-2.7.7c-2,.5-3.4,2.3-3.4,4.4v.5c0,.3.3.6.6.6h3.2c.2-1.4,1.3-2.3,2.7-2.3s2.5,1,2.7,2.3h0c0,0,3.7,0,3.7,0v-1.3l-.5.6h0s0,0-.1,0,0,0,0,0c0,0,0-.1,0-.2h0l.5-1.7h-1.2c0,0-.1,0-.1,0s0-.1,0-.2t0,0h0ZM483.4,81.7c-.4,0-.6-.3-.5-.7l.2-.8c.4-1.2,1.5-2,2.7-2h1v3.6h-3.5Z"/>
          </g>
        </g>
        <g>
          <g>
            <path class="st18" d="M524.4,83.6c-.2-.2-.4-.4-.7-.6-.4-.3-.8-.5-1.3-.6l-.3-2c-.3-2.1-2.1-3.6-4.2-3.6h-5.7c-2,0-3.8,1.4-4.1,3.4l-.3,1.4-2.7.7c-2,.5-3.4,2.3-3.4,4.4v.5c0,.3.3.6.6.6h3.2c.2-1.4,1.3-2.3,2.7-2.3s2.5,1,2.7,2.3h0c0,0,7.3,0,7.3,0h0c.2-1.4,1.3-2.3,2.7-2.3s2.5,1,2.7,2.3h0c0,0,1.4,0,1.4,0,.3,0,.6-.3.6-.6v-.5c0-1.2-.5-2.3-1.2-3.1h0ZM510.8,81.7c-.4,0-.6-.3-.5-.7l.2-.8c.4-1.2,1.5-2,2.7-2h1v3.6h-3.5,0ZM516.2,84.6l-.4.5-.5.6-.7.8-.5.6h0s0,0-.1,0,0,0,0,0c0,0,0-.1,0-.2h0l.5-1.7h-1.2c0,0-.1,0-.2,0s0-.1,0-.2t0,0l.2-.2.2-.3,1-1.4h.1c0-.1.3-.6.3-.6h0s0,0,.1,0c0,0,0,0,0,0,0,0,0,0,0,.1h0c0,0-.2,1-.2,1l-.2.7h.6s.7,0,.7,0h0c0,0,.1,0,.1,0h0c0,0,0,.1,0,.1h0ZM519.4,81.7h-3.8v-3.6h1.3c1.3,0,2.4.8,2.7,2.1l.2.8c0,.3-.2.7-.5.7h0Z"/>
            <path class="st18" d="M508.2,86.5c-.9,0-1.6.7-1.6,1.6s.7,1.6,1.6,1.6,1.6-.7,1.6-1.6-.7-1.6-1.6-1.6ZM508.2,88.6c-.2,0-.5-.2-.5-.4s.2-.4.5-.4.4.2.4.4-.2.4-.4.4Z"/>
            <path class="st18" d="M520.9,86.5c-.9,0-1.6.7-1.6,1.6s.7,1.6,1.6,1.6,1.6-.7,1.6-1.6-.7-1.6-1.6-1.6ZM520.9,88.6c-.2,0-.5-.2-.5-.4s.2-.4.5-.4.4.2.4.4-.2.4-.4.4Z"/>
          </g>
          <g>
            <path class="st18" d="M508.2,86.5c-.9,0-1.6.7-1.6,1.6s.7,1.6,1.6,1.6,1.6-.7,1.6-1.6-.7-1.6-1.6-1.6ZM508.2,88.6c-.2,0-.5-.2-.5-.4s.2-.4.5-.4.4.2.4.4-.2.4-.4.4Z"/>
            <path class="st18" d="M513,85.1l.2-.2.2-.3,1-1.4h.1v-6.4h-2.4c-2,0-3.8,1.4-4.1,3.4l-.3,1.4-2.7.7c-2,.5-3.4,2.3-3.4,4.4v.5c0,.3.3.6.6.6h3.2c.2-1.4,1.3-2.3,2.7-2.3s2.5,1,2.7,2.3h0c0,0,3.7,0,3.7,0v-1.3l-.5.6h0s0,0-.1,0,0,0,0,0c0,0,0-.1,0-.2h0l.5-1.7h-1.2c0,0-.1,0-.2,0s0-.1,0-.2t0,0h0ZM510.8,81.7c-.4,0-.6-.3-.5-.7l.2-.8c.4-1.2,1.5-2,2.7-2h1v3.6h-3.5,0Z"/>
          </g>
        </g>
      </g>
    </g>
    <rect class="st14" x="466.7" y=".4" width="66.7" height="66.7"/>
    <g>
      <rect class="st9" x="533.3" width="66.7" height="66.7"/>
      <g>
        <g>
          <path class="st2" d="M585.1,33.2h0c0-.3,0-.5,0-.7,0-.5,0-.9-.1-1.4-.4-3.5-1.8-6.6-3.8-9.2-.5-.6-.9-1.1-1.5-1.6-.1-.1-.3-.3-.4-.4-.1-.1-.3-.2-.4-.4,0,0-.2-.2-.3-.3,0,0,0,0,0,0,0,0,0,0,0,0,0,0,0,0,0,0-.1-.1-.2-.2-.4-.3h0c-2.6-2-5.8-3.4-9.2-3.8-.7,0-1.4-.1-2.2-.1v4.8c.7,0,1.5,0,2.2.2,6.5,1,11.5,6.7,11.5,13.5s-5,12.4-11.5,13.5c-.7.1-1.4.2-2.2.2v4.8c.7,0,1.5,0,2.2-.1,3.5-.4,6.6-1.8,9.2-3.8.1-.1.3-.2.4-.3.1-.1.3-.2.4-.3.1-.1.3-.2.4-.4.1-.1.3-.2.4-.4.5-.5,1-1.1,1.5-1.6,2.1-2.6,3.4-5.8,3.8-9.2,0-.5,0-.9.1-1.3,0-.2,0-.5,0-.7h0v-.3h0Z"/>
          <path class="st2" d="M569,6.2v7.9c-.8,0-1.5-.1-2.3-.1s-1.5,0-2.3.1v-7.9c.8,0,1.5,0,2.3,0s1.5,0,2.3,0Z"/>
          <path class="st2" d="M569,52.5v7.9c-.8,0-1.5,0-2.3,0s-1.5,0-2.3,0v-7.9c.8,0,1.5.1,2.3.1s1.5,0,2.3-.1Z"/>
          <path class="st2" d="M593.9,33.3c0,.8,0,1.5,0,2.3h-7.9c0-.5,0-.9.1-1.4,0-.2,0-.5,0-.7h0v-.4c0-.2,0-.4,0-.6,0-.5,0-1-.1-1.4h7.9c0,.8,0,1.5,0,2.3Z"/>
          <path class="st2" d="M547.4,35.2c0,.2,0,.3,0,.4h-7.9c0-.8,0-1.5,0-2.3s0-1.5,0-2.3h7.9c0,.2,0,.3,0,.5,0,.1,0,.3,0,.4s0,.1,0,.2c0,.1,0,.2,0,.4,0,.3,0,.6,0,.9s0,.6,0,.9c0,.1,0,.2,0,.3,0,0,0,.1,0,.2,0,.1,0,.3,0,.4h0Z"/>
          <path class="st2" d="M587.5,15.8l-5.6,5.6c-.5-.6-1-1.2-1.5-1.7-.1-.1-.3-.3-.4-.4-.1-.1-.3-.3-.4-.4-.1-.1-.2-.2-.3-.3,0,0,0,0,0,0,0,0,0,0,0,0,0,0,0,0,0,0-.1-.1-.2-.2-.4-.3h0l5.6-5.6c1.2,1,2.2,2.1,3.2,3.2h0Z"/>
          <path class="st2" d="M554.7,48.5l-5.6,5.6c-1.2-1-2.2-2.1-3.2-3.2l5.6-5.6c.5.6,1,1.2,1.5,1.7.1.1.3.3.4.4.1.1.3.2.4.4,0,0,0,0,0,0,.1.1.3.2.4.3,0,0,0,0,0,0,.1.1.3.2.4.3Z"/>
          <path class="st2" d="M587.5,50.9c-1,1.2-2.1,2.2-3.2,3.2l-5.6-5.6c.2-.1.3-.2.4-.4s.3-.2.4-.4c.1-.1.3-.3.4-.4.1-.1.3-.3.4-.4.5-.5,1-1.1,1.5-1.7l5.6,5.6h0Z"/>
          <path class="st2" d="M554.7,18.1c-.1.1-.2.2-.4.3,0,0-.1,0-.2.1-.1.1-.2.2-.4.3-.1.1-.3.2-.4.4-.1.1-.3.3-.4.4-.2.1-.3.3-.5.5,0,0-.2.2-.2.3-.3.3-.6.6-.8,1l-5.6-5.6c1-1.2,2.1-2.2,3.2-3.2l5.6,5.6h0Z"/>
        </g>
        <path class="st2" d="M573.9,32l-1.8,2.3-2.2,2.8-3.2,3.9-2.2,2.8h0c-.2.2-.4.3-.6.3s-.2,0-.4,0c-.3-.2-.4-.5-.3-.8h0s2.6-7.7,2.6-7.7l-5.7.2c-.3,0-.5,0-.7-.3-.1-.2-.1-.5,0-.8.1-.2.1-.2,0,0l.8-1.1,1.1-1.5,4.8-6.5.5-.7h0s1.4-1.9,1.4-1.9h0c.2-.2.4-.3.6-.3,0,0,.2,0,.2,0,.2.1.4.3.4.5,0,0,0,.1,0,.2h0l-1,4.4-.8,3.4h.8s1.9,0,1.9,0h3.1c0-.1,0-.1,0-.1.3,0,.5.2.7.4,0,0,0,0,0,0,0,.2,0,.4-.1.6h0Z"/>
        <path class="st2" d="M553,33.4c0,6.8,5,12.4,11.5,13.5.7.1,1.4.2,2.2.2v4.8c-.7,0-1.5,0-2.2-.1-3.5-.4-6.6-1.8-9.2-3.8-.1,0-.3-.2-.4-.3,0,0,0,0,0,0-.1-.1-.3-.2-.4-.3,0,0,0,0,0,0-.1-.1-.3-.2-.4-.4-.1-.1-.3-.2-.4-.4-.5-.5-1-1.1-1.5-1.6-2.1-2.6-3.4-5.8-3.8-9.2,0-.1,0-.3,0-.4,0-.1,0-.3,0-.4,0,0,0-.1,0-.2,0,0,0-.2,0-.3,0-.3,0-.6,0-.9s0-.6,0-.9c0-.1,0-.2,0-.3,0,0,0,0,0-.2,0-.1,0-.2,0-.4,0-.1,0-.2,0-.3.4-3.5,1.8-6.7,3.8-9.3.2-.3.5-.6.8-.9,0,0,.2-.2.2-.2.1-.1.3-.3.4-.4.1-.1.3-.3.4-.4.1-.1.2-.2.4-.3.1-.1.2-.2.3-.3,0,0,.1,0,.2-.1.1-.1.2-.2.3-.3,2.6-2,5.8-3.4,9.2-3.8.7,0,1.4-.1,2.2-.1v4.8c-.7,0-1.5,0-2.2.2-6.5,1-11.5,6.7-11.5,13.5h0Z"/>
        <path class="st2" d="M547.5,35.6h-7.9c0-.8,0-1.5,0-2.3s0-1.5,0-2.3h7.9c0,.2,0,.3,0,.5,0,.1,0,.3,0,.4s0,0,0,.2c0,.1,0,.2,0,.4,0,.3,0,.6,0,.9s0,.6,0,.9c0,.1,0,.2,0,.3,0,0,0,.1,0,.2,0,.1,0,.3,0,.4,0,.2,0,.3,0,.4h0Z"/>
        <path class="st2" d="M554.3,48.2c.1.1.3.2.4.3l-5.6,5.6c-1.2-1-2.2-2.1-3.2-3.2l5.6-5.6c.5.6,1,1.2,1.5,1.7.1.1.3.3.4.4.1.1.3.2.4.4,0,0,0,0,0,0,.1.1.3.2.4.3,0,0,0,0,0,0Z"/>
        <path class="st2" d="M549.1,12.5l5.6,5.6c-.1.1-.2.2-.4.3,0,0-.1,0-.2.1-.1.1-.2.2-.4.3-.1.1-.3.2-.4.4-.1.1-.3.3-.4.4-.2.1-.3.3-.5.5,0,0-.2.2-.2.3-.3.3-.6.6-.8,1l-5.6-5.6c1-1.2,2.1-2.2,3.2-3.2h0Z"/>
        <path class="st2" d="M566.7,6.1v7.9c-.8,0-1.5,0-2.3.1v-7.9c.8,0,1.5,0,2.3,0h0Z"/>
        <path class="st2" d="M564.4,52.5c.8,0,1.5.1,2.3.1v7.9c-.8,0-1.5,0-2.3,0v-7.9h0Z"/>
        <path class="st18" d="M566.7,24.7h0s0,16.3,0,16.3l-2.2,2.8h0c-.2.2-.4.3-.6.3s-.2,0-.4,0c-.3-.2-.4-.5-.3-.8h0s2.6-7.7,2.6-7.7l-5.7.2c-.3,0-.5,0-.7-.3-.1-.2-.1-.5,0-.8,0-.2.1-.2,0,0l.8-1.1,1.1-1.5,4.8-6.5.5-.7h0Z"/>
      </g>
    </g>
    <g>
      <rect class="st15" x="400" y="133.3" width="66.7" height="66.7"/>
      <path class="st5" d="M433.6,142.5c3.4,0,8.1,8.1,8.7,21l-17.8-.2c.8-12.9,5.7-20.9,9.1-20.8h0ZM425.3,140.4c-4,4.8-6.7,12.9-7.3,22.8h-11.8c1.4-10.9,9-19.7,19.1-22.8h0ZM406.1,169.6h11.8c.4,10,2.9,18.2,6.8,23.1-10-3.3-17.5-12.3-18.7-23.1h0ZM433.1,190.9c-3.4,0-8.1-8.1-8.7-21l17.8.2c-.8,12.9-5.7,20.9-9.1,20.8h0ZM441.4,192.9c4-4.8,6.7-12.9,7.3-22.8h11.8c-1.4,10.9-9,19.7-19.1,22.8h0ZM448.8,163.6c-.4-9.9-2.9-18.1-6.8-23,10,3.3,17.5,12.3,18.7,23.1h-11.8c0-.1,0-.1,0-.1Z"/>
    </g>
    <g>
      <g>
        <rect class="st16" x="466.7" y="133.3" width="66.7" height="66.7"/>
        <rect class="st15" x="533.3" y="133.3" width="66.7" height="66.7"/>
      </g>
      <g class="st20">
        <g>
          <g>
            <g>
              <path class="st19" d="M500.7,190.2v10.9h-3.3v-10.9c0,0,.2,0,.2,0,0,0,0,0,.1,0,0,0,.1,0,.1,0s0,0,.1,0h0s.1,0,.2,0h1.3c.1,0,.2,0,.4,0,0,0,.1,0,.2,0,0,0,.1,0,.2,0,.1,0,.2,0,.3,0h0Z"/>
              <path class="st15" d="M511.1,178.3c0,6.1-4.5,11.1-10.4,11.9-.5,0-1.1.1-1.6.1h-.4c-.4,0-.9,0-1.3-.1-5.9-.8-10.4-5.8-10.4-11.9s1.6-6.9,4.1-9.1c-.5-1.1-.8-2.4-.8-3.7,0-3.2,1.7-6,4.2-7.5-.1-.4-.2-.8-.2-1.2,0-2.4,1.9-4.4,4.3-4.6.1,0,.2,0,.4,0,2.5,0,4.6,2.1,4.6,4.6s0,.8-.2,1.2c2.5,1.5,4.2,4.3,4.2,7.5s-.3,2.6-.8,3.7c2.5,2.2,4.1,5.4,4.1,9.1h0Z"/>
            </g>
            <g>
              <path class="st14" d="M498.8,152.2v38.1c-.4,0-.9,0-1.3-.1-5.9-.8-10.4-5.8-10.4-11.9s1.6-6.9,4.1-9.1c-.5-1.1-.8-2.4-.8-3.7,0-3.2,1.7-6,4.2-7.5-.1-.4-.2-.8-.2-1.2,0-2.4,1.9-4.4,4.3-4.6h0Z"/>
              <path d="M498.8,190.3v10.8h-1.3v-10.9c.3,0,.6.1,1,.1h.3Z"/>
            </g>
          </g>
          <g>
            <g>
              <path class="st12" d="M533.1,147.1v53.6h25.8v-53.6h-25.8ZM542.3,193h-4.5v-4.5h4.5v4.5ZM542.3,184.2h-4.5v-4.5h4.5v4.5ZM542.3,175.5h-4.5v-4.5h4.5v4.5ZM542.3,166.7h-4.5v-4.5h4.5v4.5ZM542.3,157.9h-4.5v-4.5h4.5v4.5ZM554.5,193h-8.4v-4.5h8.4v4.5ZM554.5,184.2h-8.4v-4.5h8.4v4.5ZM554.5,175.5h-8.4v-4.5h8.4v4.5ZM554.5,166.7h-8.4v-4.5h8.4v4.5ZM554.5,157.9h-8.4v-4.5h8.4v4.5Z"/>
              <path class="st10" d="M533.1,147.1v53.6h13v-53.6h-13ZM542.3,193h-4.4v-4.5h4.4v4.5ZM542.3,184.2h-4.4v-4.5h4.4v4.5ZM542.3,175.5h-4.4v-4.5h4.4v4.5ZM542.3,166.7h-4.4v-4.5h4.4v4.5ZM542.3,157.9h-4.4v-4.5h4.4v4.5Z"/>
            </g>
            <g>
              <path class="st8" d="M556.8,162.2v38.5h18.5v-38.5h-18.5ZM563.4,195.1h-3.2v-3.2h3.2v3.2ZM563.4,188.9h-3.2v-3.2h3.2v3.2ZM563.4,182.6h-3.2v-3.2h3.2v3.2ZM563.4,176.3h-3.2v-3.2h3.2v3.2ZM563.4,170h-3.2v-3.2h3.2v3.2ZM572.2,195.1h-6v-3.2h6v3.2ZM572.2,188.9h-6v-3.2h6v3.2ZM572.2,182.6h-6v-3.2h6v3.2ZM572.2,176.3h-6v-3.2h6v3.2ZM572.2,170h-6v-3.2h6v3.2Z"/>
              <path class="st3" d="M556.8,162.2v38.5h9.4v-38.5h-9.4ZM563.4,195.1h-3.2v-3.2h3.2v3.2ZM563.4,188.9h-3.2v-3.2h3.2v3.2ZM563.4,182.6h-3.2v-3.2h3.2v3.2ZM563.4,176.3h-3.2v-3.2h3.2v3.2ZM563.4,170h-3.2v-3.2h3.2v3.2Z"/>
            </g>
            <g>
              <path class="st6" d="M520.6,170v30.7h14.8v-30.7h-14.8ZM525.8,196.3h-2.6v-2.6h2.6v2.6ZM525.8,191.2h-2.6v-2.6h2.6v2.6ZM525.8,186.2h-2.6v-2.6h2.6v2.6ZM525.8,181.2h-2.6v-2.6h2.6v2.6ZM525.8,176.2h-2.6v-2.6h2.6v2.6ZM532.8,196.3h-4.8v-2.6h4.8v2.6ZM532.8,191.2h-4.8v-2.6h4.8v2.6ZM532.8,186.2h-4.8v-2.6h4.8v2.6ZM532.8,181.2h-4.8v-2.6h4.8v2.6ZM532.8,176.2h-4.8v-2.6h4.8v2.6Z"/>
              <path class="st6" d="M520.6,170v30.7h7.5v-30.7h-7.5ZM525.8,196.3h-2.5v-2.6h2.5v2.6ZM525.8,191.2h-2.5v-2.6h2.5v2.6ZM525.8,186.2h-2.5v-2.6h2.5v2.6ZM525.8,181.2h-2.5v-2.6h2.5v2.6ZM525.8,176.2h-2.5v-2.6h2.5v2.6Z"/>
            </g>
          </g>
          <g>
            <path class="st10" d="M578.5,180v20.6h10v-20.6h-10ZM582,197.7h-1.7v-1.7h1.7v1.7ZM582,194.3h-1.7v-1.7h1.7v1.7ZM582,190.9h-1.7v-1.7h1.7v1.7ZM582,187.6h-1.7v-1.7h1.7v1.7ZM582,184.2h-1.7v-1.7h1.7v1.7ZM586.7,197.7h-3.2v-1.7h3.2v1.7ZM586.7,194.3h-3.2v-1.7h3.2v1.7ZM586.7,190.9h-3.2v-1.7h3.2v1.7ZM586.7,187.6h-3.2v-1.7h3.2v1.7ZM586.7,184.2h-3.2v-1.7h3.2v1.7Z"/>
            <path class="st3" d="M578.5,180v20.6h5v-20.6h-5ZM582,197.7h-1.7v-1.7h1.7v1.7ZM582,194.3h-1.7v-1.7h1.7v1.7ZM582,190.9h-1.7v-1.7h1.7v1.7ZM582,187.6h-1.7v-1.7h1.7v1.7ZM582,184.2h-1.7v-1.7h1.7v1.7Z"/>
          </g>
        </g>
      </g>
    </g>
    <polyline class="st15" points="533.3 66.7 533.3 0 466.7 0"/>
    <g>
      <rect class="st9" x="400" width="66.7" height="66.7"/>
      <g class="st11">
        <path class="st4" d="M455.3,24.4c.8-.7,1,0,1,.3l-.5,43.5h-13.1c0-.1.3-31.3.3-31.3,0-.9.2-1.2.7-1.6l11.6-10.8h0ZM422.1,38.2c.8-.7,1,0,1,.3l-.3,29.3h-13.1c0-.1.2-17.1.2-17.1,0-.9.2-1.2.7-1.6l11.6-10.8h0ZM460.6,11.2h0c0,.1-2,9-2,9h0c0,.1,0,.2-.1.2-.1.1-.3.1-.5,0l-2.1-2.1-22.8,22.3c-.1,0-.3,0-.4,0l-2.5-2.5s0,0,0,0l-6.6-6.7-14.7,14.4c-.1,0-.3,0-.4,0l-2.5-2.5c-.1,0-.1-.3,0-.4l14.9-14.6h0l2.5-2.5c.1-.1.3-.1.4,0l9.1,9.3,20.1-19.7-2-2h-.1c-.1-.2-.1-.4,0-.6,0,0,.1,0,.2,0h.2s8.8-1.9,8.8-1.9h.1c0,0,.1,0,.2,0,0,0,.1.2,0,.2h0ZM438.6,40.3c.8-.8,1.1-.1,1.1.2l-.3,27.4h-13.1c0-.1.3-27.1.3-27.1,0-.4.2-1.1,1.1-.2l5.1,5.4,5.8-5.7h0Z"/>
      </g>
    </g>
  </g>
  <g>
    <line class="st1" x1="185.7" y1="59.4" x2="185.7" y2="113.1"/>
    <g>
      <g>
        <path class="st9" d="M247,59.7h3.9c3.8,0,5.6,1.3,5.6,4.1s-1.8,4-4.9,4h-1.3v4.3h-3.3v-12.4h0ZM250.3,65.4h.9c1.1,0,2-.4,2-1.7s-.9-1.7-2-1.7h-.9v3.4Z"/>
        <path class="st9" d="M259,59.7h8.7v2.3h-5.4v2.5h5.1v2.3h-5.1v2.8h5.6v2.3h-8.9v-12.4h0Z"/>
        <path class="st9" d="M276.7,59.5c4.1,0,6.2,2.4,6.2,6.4s-2.2,6.4-6.2,6.4-6.2-2.5-6.2-6.4,2.1-6.4,6.2-6.4ZM276.7,69.8c2,0,2.8-1.9,2.8-3.9s-.8-4-2.8-4-2.8,1.8-2.8,4,.8,3.9,2.8,3.9Z"/>
        <path class="st9" d="M285.7,59.7h3.9c3.8,0,5.5,1.3,5.5,4.1s-1.8,4-4.9,4h-1.3v4.3h-3.3v-12.4h0ZM289,65.4h.9c1.1,0,2-.4,2-1.7s-.9-1.7-2-1.7h-.9v3.4Z"/>
        <path class="st9" d="M297.7,59.7h3.3v9.9h5.1v2.4h-8.4s0-12.4,0-12.4Z"/>
        <path class="st9" d="M308.6,59.7h8.7v2.3h-5.4v2.5h5.1v2.3h-5.1v2.8h5.6v2.3h-8.9v-12.4h0Z"/>
      </g>
      <g>
        <rect class="st9" x="212.3" y="55.7" width="20.4" height="20.4"/>
        <path class="st5" d="M222,58.8c2-.3,3.7,1.4,3.4,3.4-.2,1.2-1.2,2.3-2.5,2.5-2,.3-3.7-1.4-3.4-3.4.2-1.2,1.2-2.3,2.5-2.5ZM227.8,73h-10.7c-.9-3.7,1.8-7,5.3-7s6.3,3.3,5.3,7h0Z"/>
      </g>
      <g>
        <path class="st18" d="M247,80.1h3.9c3.8,0,5.6,1.3,5.6,4.1s-1.8,4-4.9,4h-1.3v4.3h-3.3v-12.4h0ZM250.3,85.8h.9c1.1,0,2-.4,2-1.7s-.9-1.7-2-1.7h-.9s0,3.4,0,3.4Z"/>
        <path class="st18" d="M259.1,80.1h3.3v9.9h5.1v2.4h-8.4s0-12.4,0-12.4Z"/>
        <path class="st18" d="M273.7,80.1h4l4.8,12.4h-3.6l-.9-2.6h-4.6l-1,2.6h-3.4l4.7-12.4h0ZM275.7,82.6h0l-1.6,4.8h3.1l-1.5-4.8Z"/>
        <path class="st18" d="M284.9,80.1h4.2l4.2,8.4h0v-8.4s3,0,3,0v12.4h-4.1l-4.3-8.4h0v8.4c.1,0-2.9,0-2.9,0v-12.4h0Z"/>
        <path class="st18" d="M299.6,80.1h8.7v2.3h-5.4v2.6h5.1v2.3h-5.1v2.8h5.6v2.3h-8.9v-12.4h0Z"/>
        <path class="st18" d="M313.7,82.5h-3v-2.4h9.4v2.4h-3v9.9h-3.3v-9.9h0Z"/>
      </g>
      <g>
        <rect class="st18" x="212.3" y="76.1" width="20.4" height="20.4"/>
        <path class="st5" d="M222.5,81c.7,0,1.8,1.8,1.9,4.6h-3.9c.1-2.8,1.2-4.6,1.9-4.6ZM220.7,80.6c-.9,1.1-1.4,2.8-1.5,5h-2.6c.3-2.4,1.9-4.3,4.1-5ZM216.6,87h2.6c.1,2.2.7,3.9,1.5,5-2.2-.7-3.9-2.6-4.1-5ZM222.5,91.6c-.7,0-1.8-1.8-1.9-4.6h3.9c-.1,2.8-1.2,4.6-1.9,4.6ZM224.3,92c.9-1.1,1.4-2.8,1.5-5h2.6c-.3,2.4-1.9,4.3-4.1,5ZM225.9,85.6c-.1-2.2-.7-3.9-1.5-5,2.2.7,3.9,2.6,4.1,5h-2.6Z"/>
      </g>
      <g>
        <path class="st2" d="M247,100.5h3.9c3.8,0,5.6,1.3,5.6,4.1s-1.8,4-4.9,4h-1.3v4.3h-3.3v-12.4h0ZM250.3,106.2h.9c1.1,0,2-.4,2-1.7s-.9-1.7-2-1.7h-.9s0,3.4,0,3.4Z"/>
        <path class="st2" d="M259,100.5h5.9c2.2,0,4,1,4,3.1s-.8,2.8-2.4,3.1h0c1.1.3,1.1,1.3,1.8,2.8l1.2,3.4h-3.4l-.7-2.2c-.7-2.1-1.1-2.7-2.3-2.7h-.7v4.9h-3.3v-12.4h0ZM262.3,105.6h.9c1.1,0,2.4,0,2.4-1.4s-1.1-1.4-2.4-1.4h-.9v2.8Z"/>
        <path class="st2" d="M277.7,100.2c4.1,0,6.2,2.4,6.2,6.4s-2.2,6.4-6.2,6.4-6.2-2.5-6.2-6.4,2.1-6.4,6.2-6.4ZM277.7,110.6c2,0,2.8-1.9,2.8-3.9s-.8-3.9-2.8-3.9-2.8,1.8-2.8,3.9.8,3.9,2.8,3.9Z"/>
        <path class="st2" d="M286.9,109.8c.9.5,2,.8,3.4.8s2-.2,2-1.2c0-2.3-5.9-.8-5.9-5.3s2.9-3.8,5.4-3.8,2.4.2,3.2.5l-.2,2.6c-.9-.4-1.8-.6-2.8-.6s-2.2,0-2.2,1.2c0,2,5.9.7,5.9,5.1s-2.7,4.1-5.4,4.1-2.6-.2-3.7-.5l.3-2.7h0Z"/>
        <path class="st2" d="M298.6,100.5h3.9c3.8,0,5.5,1.3,5.5,4.1s-1.8,4-4.9,4h-1.3v4.3h-3.3v-12.4h0ZM301.9,106.2h.9c1.1,0,2-.4,2-1.7s-.9-1.7-2-1.7h-.9s0,3.4,0,3.4Z"/>
        <path class="st2" d="M310.5,100.5h8.7v2.3h-5.4v2.6h5.1v2.3h-5.1v2.8h5.6v2.3h-8.9v-12.4h0Z"/>
        <path class="st2" d="M322.4,100.5h5.9c2.2,0,4,1,4,3.1s-.8,2.8-2.4,3.1h0c1.1.3,1.1,1.3,1.8,2.8l1.2,3.4h-3.4l-.7-2.2c-.7-2.1-1.1-2.7-2.3-2.7h-.7v4.9h-3.3v-12.4h0ZM325.7,105.6h.9c1.1,0,2.4,0,2.4-1.4s-1.1-1.4-2.4-1.4h-.9v2.8Z"/>
        <path class="st2" d="M335.6,100.5h3.3v12.4h-3.3v-12.4Z"/>
        <path class="st2" d="M344.5,102.9h-3v-2.4h9.4v2.4h-3v9.9h-3.3v-9.9h0Z"/>
        <path class="st2" d="M356.9,108.2l-4.6-7.7h3.8l2.4,5,2.4-5h3.8l-4.5,7.7v4.7h-3.3v-4.7h0Z"/>
      </g>
      <g>
        <rect class="st2" x="212.3" y="96.5" width="20.4" height="20.4"/>
        <path class="st4" d="M227.3,103.3c.2-.2.2,0,.2,0v9.5h-2.9v-6.8c0-.2,0-.3.1-.4l2.5-2.4h0ZM220.1,106.5c.2-.2.2,0,.2,0v6.4h-2.9v-3.7c0-.2,0-.3.1-.4l2.5-2.4h0ZM228.4,100.4h0s-.4,2-.4,2h0s0,0,0,0c0,0,0,0-.1,0l-.5-.5-4.9,4.9s0,0,0,0l-.6-.6h0l-1.5-1.5-3.2,3.2s0,0,0,0l-.6-.6s0,0,0,0l3.2-3.2h0l.6-.6s0,0,0,0l2,2,4.4-4.4-.4-.4h0s0,0,0-.1c0,0,0,0,0,0h0l1.9-.4h0s0,0,0,0c0,0,0,0,0,0h0ZM223.7,106.9c.2-.2.2,0,.2,0v6h-2.9v-5.9c0,0,0-.2.2,0l1.1,1.2s1.2-1.3,1.2-1.3Z"/>
      </g>
    </g>
    <g>
      <g>
        <path class="st9" d="M83.1,75.6c0,4.3,3.2,7.4,8.5,7.4s4.3-.3,6.5-1.4l2,2.7c-2.7,1.4-5.4,2.2-9.4,2.2-8.4,0-14.7-4.1-14.7-11h0c0-6.9,6.2-11,14.7-11s6.4.6,9.2,1.8l-2,3.1c-2.2-1.2-4-1.4-6.3-1.4-5.3,0-8.5,3.2-8.5,7.4"/>
        <path class="st9" d="M115.3,83.1c-4.5,0-7-3.4-7-7.6s2.5-7.6,7-7.6,7,3.4,7,7.6-2.5,7.6-7,7.6M115.3,64.6c-8.2,0-14.1,4.1-14.1,11s5.9,11,14.1,11,14.1-4.1,14.1-11-5.9-11-14.1-11"/>
        <polygon class="st9" points="150.6 77.1 150.6 86 157.4 86 157.4 65.1 150.6 65.1 150.6 73.1 140.3 73.1 140.3 65.1 133.6 65.1 133.6 86 140.3 86 140.3 77.1 150.6 77.1"/>
        <rect class="st9" x="64.8" y="65.1" width="7.1" height="20.8"/>
        <path class="st9" d="M44.4,74.7v2c3.3,2.6,6.8,6,9.2,9.3h8c-2.8-3.2-7-7.1-10.2-9.1,3.7-.2,7.8-1.6,7.8-5.9s-5.8-6.4-11.6-6.4-9.2.2-11.8.4v20.9h6.7v-17.8c1.2-.1,2.5-.3,5.2-.3s5.2,1.1,5.2,3.1-.7,3.7-8.4,3.6"/>
      </g>
      <g>
        <path class="st13" d="M36.3,95.6h1.7v8.5h-1.7v-8.5ZM36.3,92.2h1.7v1.7h-1.7v-1.7Z"/>
        <path class="st13" d="M50.7,104.1v-5.4c0-1-.3-1.9-1.5-1.9s-1.9,1.4-1.9,2.7v4.6h-1.7v-5.4c0-1-.3-1.9-1.5-1.9s-1.9,1.4-1.9,2.7v4.6h-1.7v-6.5c0-.7,0-1.3,0-1.9h1.6v1.5c.6-1.1,1.5-1.6,2.6-1.6s2.2.8,2.5,1.7c.4-1.1,1.5-1.7,2.6-1.7,1.8,0,2.7,1.3,2.7,3v5.7h-1.7,0Z"/>
        <path class="st13" d="M125.8,103.1c1.2-.3,1.6-1.6,1.6-3.1,0,0-3.9-.3-3.8,1.8,0,1.2,1.3,1.5,2.2,1.3M127.4,104.1v-1.3c-1.3,2.3-5.5,2-5.5-.9s2.1-3.1,5.4-3c0,0,.2-1.6-.9-2.1-.7-.3-2.2-.3-3.5.5v-1.3c1.9-.8,6.1-1.3,6.1,2.6v3.6c0,.7,0,1.3.1,1.9h-1.7Z"/>
        <path class="st13" d="M58,103.1c1.2-.3,1.6-1.6,1.6-3.1,0,0-3.9-.3-3.8,1.8,0,1.2,1.3,1.5,2.2,1.3M59.7,104.1v-1.3c-1.3,2.3-5.5,2-5.5-.9s2.1-3.1,5.4-3c0,0,.2-1.6-.9-2.1-.7-.3-2.2-.3-3.5.5v-1.3c1.9-.8,6.1-1.3,6.1,2.6v3.6c0,.7,0,1.3,0,1.9h-1.7Z"/>
        <path class="st13" d="M144.3,96.8c-1.8,0-2.1,1.7-2.1,3.1s.4,3,2.1,3,2.2-1.7,2.2-3-.5-3.1-2.2-3.1M141,107.5v-1.4c.9.4,1.8.6,2.6.6,2.9,0,2.8-2.5,2.8-4,0,0-.9,1.5-2.6,1.5-2.5,0-3.4-2.2-3.4-4.3s1-4.4,3.5-4.4,2.1.5,2.7,1.6v-1.4h1.6v8c0,4.7-4.2,4.8-7.1,3.9"/>
        <path class="st13" d="M67,96.8c-1.8,0-2.1,1.7-2.1,3.1s.4,3,2.1,3,2.2-1.7,2.2-3-.5-3.1-2.2-3.1M63.7,107.5v-1.4c.9.4,1.7.6,2.6.6,2.9,0,2.8-2.5,2.8-4,0,0-.8,1.5-2.6,1.5-2.5,0-3.5-2.2-3.5-4.3s1-4.4,3.5-4.4,2.1.5,2.7,1.6v-1.4h1.6v8c0,4.7-4.2,4.8-7.1,3.9"/>
        <path class="st13" d="M73.3,95.6h1.7v8.5h-1.7v-8.5ZM73.3,92.2h1.7v1.7h-1.7v-1.7Z"/>
        <path class="st13" d="M153.8,96.6c-1.4,0-2.1,1.6-2.1,2.6h4c0-1.2-.5-2.6-1.9-2.6M151.6,100.3c.1,3,2.7,3.3,5.1,2.2v1.3c-3.3,1.1-6.8.4-6.8-4s1.5-4.4,3.8-4.4c4,0,3.6,4.9,3.6,4.9h-5.6Z"/>
        <path class="st13" d="M90.4,96.6c-1.4,0-2.1,1.6-2.1,2.6h4c0-1.2-.5-2.6-1.9-2.6M88.3,100.3c0,3,2.7,3.3,5.1,2.2v1.3c-3.3,1.1-6.8.4-6.8-4s1.5-4.4,3.8-4.4c4,0,3.6,4.9,3.6,4.9h-5.6Z"/>
        <rect class="st13" x="96.1" y="102.4" width="1.8" height="1.8"/>
        <path class="st13" d="M103.9,99.8c0-3.9,3.7-5.1,7-4v1.4c-2.2-1-5.1-.4-5.1,2.7s2.8,3.8,5.1,2.8v1.3c-2.6.9-6.9.2-6.9-4.1"/>
        <path class="st13" d="M117.3,95.4c-1.2,0-2.1.5-2.6,1.6v-4.8h-1.7v11.9h1.7v-4.4c0-1.3.5-2.9,2.1-2.9s1.7,1.1,1.7,2.3v5h1.7v-5.4c0-1.9-.8-3.3-2.8-3.3"/>
        <path class="st13" d="M136.8,104.1v-5c0-1.2-.2-2.3-1.7-2.3s-2.1,1.4-2.1,2.8v4.6h-1.7v-6.5c0-.7,0-1.3,0-1.9h1.6v1.5c.6-1.1,1.6-1.6,2.8-1.6,2.1,0,2.9,1.3,2.9,3.3v5.4h-1.7Z"/>
        <path class="st13" d="M83.1,104.1v-5c0-1.2-.2-2.3-1.7-2.3s-2.1,1.4-2.1,2.8v4.6h-1.7v-6.5c0-.7,0-1.3,0-1.9h1.6v1.5c.6-1.1,1.6-1.6,2.8-1.6,2.1,0,2.8,1.3,2.8,3.3v5.4h-1.7,0Z"/>
        <rect class="st13" x="159.4" y="102.4" width="1.8" height="1.8"/>
      </g>
    </g>
  </g>
  <g class="st7">
    <g class="st7">
      <path class="st19" d="M36.1,141.1v-10.5h2.7c2,0,3.1.9,3.1,2.7s-.2,1.2-.7,1.6c-.4.4-1,.7-1.7.8h0c.4,0,.7.2.9.4.1.1.3.4.5.9l1.8,4h-1.1l-1.5-3.5c-.3-.6-.6-1-.9-1.2-.2-.1-.6-.2-1.2-.2h-.9v4.9h-1ZM37.1,131.5v3.7h1.1c.7,0,1.3-.1,1.8-.4.6-.3.9-.8.9-1.5s-.3-1.3-.8-1.5c-.4-.2-1-.3-1.9-.3h-1.1Z"/>
      <path class="st19" d="M45.7,130.1v1.3h-.9v-1.3h.9ZM44.7,141.1v-7.7h.9v7.7h-.9Z"/>
      <path class="st19" d="M53.6,133.6v.9c-.7-.3-1.2-.4-1.7-.4-.9,0-1.6.3-2.1.9-.5.6-.8,1.4-.8,2.3s.2,1.7.7,2.2c.5.6,1.2.9,2,.9s1.1-.1,1.7-.3v.9c-.4.2-1.1.3-1.9.3-1.2,0-2.1-.4-2.7-1.2-.6-.7-.9-1.7-.9-2.8s.3-2.1,1-2.9c.7-.7,1.6-1.1,2.7-1.1s1.2.1,1.8.3Z"/>
      <path class="st19" d="M55,137.3c0-1.1.3-2.1.9-2.8.6-.8,1.5-1.2,2.7-1.2s2.1.4,2.7,1.2c.6.7.9,1.7.9,2.8s-.3,2.1-.9,2.8c-.6.8-1.5,1.2-2.7,1.2s-2.1-.4-2.7-1.2c-.6-.7-.9-1.7-.9-2.8ZM56.1,137.3c0,.9.2,1.7.6,2.3.5.6,1.1.9,1.9.9s1.4-.3,1.9-.9c.4-.6.6-1.3.6-2.3s-.2-1.7-.6-2.3c-.5-.6-1.1-.9-1.9-.9s-1.4.3-1.9.9c-.4.6-.7,1.4-.7,2.3Z"/>
      <path class="st19" d="M64.4,141.1v-11.2h.9v4.9c.5-1,1.3-1.5,2.4-1.5s1.7.3,2.1.9c.4.5.5,1.3.5,2.3v4.6h-.9v-4.6c0-.8-.1-1.4-.3-1.7-.3-.5-.8-.7-1.5-.7s-1.4.3-1.8,1c-.3.5-.5,1.2-.5,2v4.1h-.9Z"/>
      <path class="st19" d="M85.1,140v-3.7h-2.4v-.9h3.5v5.2c-1,.4-2.1.6-3.3.6s-2.9-.5-3.9-1.5c-.9-1-1.4-2.3-1.4-3.9s.5-2.9,1.4-3.9c1-1,2.2-1.5,3.8-1.5s2.2.2,2.8.5v1c-.8-.4-1.7-.6-2.8-.6s-2.4.4-3.1,1.3c-.7.8-1.1,1.9-1.1,3.2s.4,2.4,1.1,3.2c.8.9,1.8,1.3,3.1,1.3s1.8-.1,2.2-.4Z"/>
      <path class="st19" d="M89.1,141.1v-11.2h.9v11.2h-.9Z"/>
      <path class="st19" d="M92.3,137.3c0-1.1.3-2.1.9-2.8.6-.8,1.5-1.2,2.7-1.2s2.1.4,2.7,1.2c.6.7.9,1.7.9,2.8s-.3,2.1-.9,2.8c-.6.8-1.5,1.2-2.7,1.2s-2.1-.4-2.7-1.2c-.6-.7-.9-1.7-.9-2.8ZM93.3,137.3c0,.9.2,1.7.6,2.3.5.6,1.1.9,1.9.9s1.4-.3,1.9-.9c.4-.6.6-1.3.6-2.3s-.2-1.7-.6-2.3c-.5-.6-1.1-.9-1.9-.9s-1.4.3-1.9.9c-.4.6-.7,1.4-.7,2.3Z"/>
      <path class="st19" d="M101.6,141.1v-11.2h.9v4.9c.1-.3.3-.6.7-.9.5-.4,1.1-.6,1.7-.6,1.1,0,1.9.4,2.4,1.1.5.7.7,1.7.7,2.9s-.3,2.1-.8,2.9c-.6.8-1.4,1.2-2.4,1.2s-1.9-.5-2.4-1.4v1.2h-.9ZM107.1,137.3c0-.9-.1-1.6-.4-2.2-.4-.7-1-1-1.8-1s-1.4.4-1.8,1.1c-.3.6-.5,1.3-.5,2.1s.2,1.5.5,2.1c.4.7,1,1.1,1.8,1.1s1.4-.3,1.8-1c.3-.5.4-1.3.4-2.2Z"/>
      <path class="st19" d="M114.9,141.1v-1.2h0c-.2.4-.5.8-1,1.1-.4.2-.9.4-1.4.4-.9,0-1.6-.3-2.1-.8-.3-.4-.4-.8-.4-1.3,0-1.1.5-1.9,1.6-2.3.7-.2,1.7-.4,3.1-.4h.2v-.4c0-.7-.1-1.2-.4-1.5s-.7-.5-1.3-.5-1.6.2-2.2.6v-.9c.7-.4,1.5-.5,2.2-.5s1.6.2,2,.7c.4.5.6,1.2.6,2.2v3.4c0,.7,0,1.3,0,1.6h-.9ZM114.8,137.7v-.5h-.3c-1.1,0-1.9,0-2.4.3-.8.3-1.2.8-1.2,1.6s.5,1.4,1.6,1.4c1.5,0,2.3-.9,2.3-2.8Z"/>
      <path class="st19" d="M118.4,141.1v-11.2h.9v11.2h-.9Z"/>
      <path class="st19" d="M126.5,140.8v-1.1c.8.4,1.5.6,2.4.6s1.3-.2,1.7-.5c.5-.4.7-.9.7-1.6s-.4-1.1-1.2-1.6c-.8-.4-1.5-.9-2.3-1.4-.8-.6-1.2-1.3-1.2-2.1s.3-1.5.9-2c.6-.5,1.4-.8,2.4-.8s1.4.1,2.1.3l-.2.9c-.5-.3-1.1-.4-1.9-.4s-1.1.1-1.5.4c-.5.3-.7.8-.7,1.4s.4,1.1,1.2,1.6l2.3,1.4c.8.6,1.2,1.4,1.2,2.2s-.4,1.7-1.1,2.3c-.6.5-1.4.7-2.3.7s-1.7-.1-2.4-.4Z"/>
      <path class="st19" d="M134.8,141.1v-10.5h2.6c1.8,0,3.1.5,4,1.5.8.9,1.2,2.1,1.2,3.8s-.6,3.2-1.7,4c-1,.8-2.5,1.2-4.3,1.2h-1.8ZM135.8,131.5v8.7h.9c3.3,0,4.9-1.5,4.9-4.4s-1.4-4.3-4.2-4.3h-1.5Z"/>
      <path class="st19" d="M152.5,140v-3.7h-2.4v-.9h3.5v5.2c-1,.4-2.1.6-3.3.6s-2.9-.5-3.9-1.5c-.9-1-1.4-2.3-1.4-3.9s.5-2.9,1.4-3.9c1-1,2.2-1.5,3.8-1.5s2.2.2,2.8.5v1c-.8-.4-1.7-.6-2.8-.6s-2.4.4-3.1,1.3c-.7.8-1.1,1.9-1.1,3.2s.4,2.4,1.1,3.2c.8.9,1.8,1.3,3.1,1.3s1.8-.1,2.2-.4Z"/>
      <path class="st19" d="M155.8,140.9v-.9c.7.3,1.4.5,2.1.5s.9-.1,1.2-.4.5-.6.5-1-.3-.9-1-1.3c-.6-.3-1.2-.6-1.8-.9-.6-.4-1-.9-1-1.6s.3-1.2.8-1.6c.4-.3,1-.5,1.7-.5s1.3.1,1.9.3v.8c-.6-.2-1.2-.4-1.8-.4-1.1,0-1.6.4-1.6,1.3s.3.7,1,1c1.1.6,1.7.9,1.8.9.6.5,1,1,1,1.8s-.3,1.3-.9,1.7c-.5.3-1.1.5-1.8.5s-1.5-.1-2.1-.4Z"/>
      <path class="st19" d="M166.4,141.1l4.3-10.5h1.2l4.2,10.5h-1.1l-1.1-2.8h-5.3l-1.1,2.8h-1ZM173.5,137.4l-2.3-5.8-2.3,5.8h4.5Z"/>
      <path class="st19" d="M182.9,133.6v.9c-.7-.3-1.2-.4-1.7-.4-.9,0-1.6.3-2.1.9-.5.6-.8,1.4-.8,2.3s.2,1.7.7,2.2c.5.6,1.2.9,2,.9s1.1-.1,1.7-.3v.9c-.4.2-1.1.3-1.9.3-1.2,0-2.1-.4-2.7-1.2-.6-.7-.9-1.7-.9-2.8s.3-2.1,1-2.9c.7-.7,1.6-1.1,2.7-1.1s1.2.1,1.8.3Z"/>
      <path class="st19" d="M188.3,133.4v.8h-1.7v5c0,.8.3,1.3,1,1.3s.6,0,.9-.2v.8c-.3.1-.7.2-1.1.2-.8,0-1.3-.2-1.5-.8-.2-.3-.2-.9-.2-1.8v-4.5h-1.5v-.8h1.5v-1.8l.9-.3v2.2h1.7Z"/>
      <path class="st19" d="M191.4,130.1v1.3h-.9v-1.3h.9ZM190.4,141.1v-7.7h.9v7.7h-.9Z"/>
      <path class="st19" d="M193.6,137.3c0-1.1.3-2.1.9-2.8.6-.8,1.5-1.2,2.7-1.2s2.1.4,2.7,1.2c.6.7.9,1.7.9,2.8s-.3,2.1-.9,2.8c-.6.8-1.5,1.2-2.7,1.2s-2.1-.4-2.7-1.2c-.6-.7-.9-1.7-.9-2.8ZM194.7,137.3c0,.9.2,1.7.6,2.3.5.6,1.1.9,1.9.9s1.4-.3,1.9-.9c.4-.6.6-1.3.6-2.3s-.2-1.7-.6-2.3c-.5-.6-1.1-.9-1.9-.9s-1.4.3-1.9.9c-.4.6-.7,1.4-.7,2.3Z"/>
      <path class="st19" d="M203,141.1v-5.8c0-.8,0-1.4,0-1.8h.9v1.4h0c.5-1,1.3-1.5,2.5-1.5,1.7,0,2.6,1,2.6,2.9v4.9h-.9v-4.7c0-1.6-.6-2.4-1.8-2.4s-1.4.3-1.8.9c-.3.5-.5,1.1-.5,1.9v4.2h-.9Z"/>
      <path class="st19" d="M216.5,141.1v-10.5h1.6l3.8,9.2,3.8-9.2h1.5v10.5h-1v-9.4l-3.8,9.4h-.9l-4-9.4v9.4h-1Z"/>
      <path class="st19" d="M229.6,137.3c0-1.1.3-2.1.9-2.8.6-.8,1.5-1.2,2.7-1.2s2.1.4,2.7,1.2c.6.7.9,1.7.9,2.8s-.3,2.1-.9,2.8c-.6.8-1.5,1.2-2.7,1.2s-2.1-.4-2.7-1.2c-.6-.7-.9-1.7-.9-2.8ZM230.6,137.3c0,.9.2,1.7.6,2.3.5.6,1.1.9,1.9.9s1.4-.3,1.9-.9c.4-.6.6-1.3.6-2.3s-.2-1.7-.6-2.3c-.5-.6-1.1-.9-1.9-.9s-1.4.3-1.9.9c-.4.6-.7,1.4-.7,2.3Z"/>
      <path class="st19" d="M239,141.1v-5.8c0-.8,0-1.4,0-1.8h.9v1.4h0c.5-1,1.3-1.5,2.5-1.5,1.7,0,2.6,1,2.6,2.9v4.9h-.9v-4.7c0-1.6-.6-2.4-1.8-2.4s-1.4.3-1.8.9c-.3.5-.5,1.1-.5,1.9v4.2h-.9Z"/>
      <path class="st19" d="M251.1,133.4v.8h-1.7v5c0,.8.3,1.3,1,1.3s.6,0,.9-.2v.8c-.3.1-.7.2-1.1.2-.8,0-1.3-.2-1.5-.8-.2-.3-.2-.9-.2-1.8v-4.5h-1.5v-.8h1.5v-1.8l.9-.3v2.2h1.7Z"/>
      <path class="st19" d="M253.2,141.1v-11.2h.9v4.9c.5-1,1.3-1.5,2.4-1.5s1.7.3,2.1.9c.4.5.5,1.3.5,2.3v4.6h-.9v-4.6c0-.8-.1-1.4-.3-1.7-.3-.5-.8-.7-1.5-.7s-1.4.3-1.8,1c-.3.5-.5,1.2-.5,2v4.1h-.9Z"/>
    </g>
    <g class="st7">
      <path class="st19" d="M263.8,138.7c.3.2.8.3,1.3.3.8,0,1.4-.6,1.4-2.3v-6h2.8v6.9c0,2.2-.9,3.8-3.7,3.8s-1.2-.2-1.7-.3v-2.3Z"/>
      <path class="st19" d="M279.9,141.1h-2.5v-1.4h0c-.5,1.1-1.6,1.6-2.9,1.6-2.1,0-3-1.5-3-3.1v-4.9h2.7v3.8c0,1.5.5,2,1.2,2,1.1,0,1.7-.8,1.7-2.4v-3.3h2.7v7.8Z"/>
      <path class="st19" d="M282,133.3h2.5v1.4h0c.5-1.1,1.6-1.6,2.8-1.6,2.1,0,3,1.5,3,3.1v4.9h-2.7v-3.8c0-1.5-.5-2-1.2-2-1.1,0-1.7.8-1.7,2.4v3.3h-2.7v-7.8Z"/>
      <path class="st19" d="M294.8,138c.1,1.1,1,1.5,2.3,1.5s1.6-.2,2.4-.6v1.9c-.9.3-1.9.5-2.9.5-2.6,0-4.5-1.5-4.5-4.1s1.8-4.1,4.2-4.1,3.9,2.1,3.9,4.4v.5h-5.4ZM297.8,136.5c0-.9-.4-1.6-1.5-1.6s-1.4.7-1.5,1.6h3Z"/>
      <path class="st19" d="M306.9,139.1c2.1-1.8,4.6-3.9,4.6-5.3s-.6-1.3-1.5-1.3-2.1.3-2.7.7v-2.2c1.4-.5,2.4-.6,3-.6,2.3,0,4,1,4,3.1s-2.2,4.1-3.2,4.9l-.8.6h4.1v2h-7.6v-2Z"/>
      <path class="st19" d="M316.4,135.9c0-2.7.6-5.4,4.1-5.4s4.1,2.7,4.1,5.4-.6,5.4-4.1,5.4-4.1-2.7-4.1-5.4ZM321.9,135.9c0-1.7-.1-3.5-1.4-3.5s-1.4,1.9-1.4,3.5.1,3.5,1.4,3.5,1.4-1.9,1.4-3.5Z"/>
      <path class="st19" d="M326.2,139.1c2.1-1.8,4.6-3.9,4.6-5.3s-.6-1.3-1.5-1.3-2.1.3-2.7.7v-2.2c1.4-.5,2.4-.6,3-.6,2.3,0,4,1,4,3.1s-2.2,4.1-3.2,4.9l-.8.6h4.1v2h-7.6v-2Z"/>
      <path class="st19" d="M343,133c-.5-.3-1.2-.6-2.2-.6-1.9,0-2.4,1.2-2.4,3.1h0c.5-.7,1.2-1.1,2.3-1.1,1.9,0,3.1,1.4,3.1,3.3s-1.6,3.5-3.9,3.5-4-2.3-4-5,1.2-5.9,4.6-5.9,1.9.2,2.7.5l-.2,2.1ZM339.8,139.5c.9,0,1.3-.7,1.3-1.5s-.4-1.7-1.3-1.7-1.4.7-1.4,1.5.5,1.6,1.4,1.6Z"/>
    </g>
  </g>
</svg>