<?xml version="1.0" encoding="UTF-8"?>
<svg id="_07_E-Signature" data-name="07_E-Signature" xmlns="http://www.w3.org/2000/svg" xmlns:xlink="http://www.w3.org/1999/xlink" viewBox="0 0 600 200">
  <defs>
    <style>
      .cls-1 {
        fill: none;
      }

      .cls-2 {
        fill: #750a1a;
      }

      .cls-3 {
        fill-rule: evenodd;
      }

      .cls-3, .cls-4 {
        fill: #fff;
      }

      .cls-5 {
        fill: #94be21;
      }

      .cls-6 {
        fill: #89a920;
      }

      .cls-7 {
        fill: #cf122e;
      }

      .cls-8 {
        fill: #596d16;
      }

      .cls-9 {
        fill: #69910c;
      }

      .cls-9, .cls-10 {
        opacity: 1;
      }

      .cls-11 {
        clip-path: url(#clippath-1);
      }

      .cls-12 {
        fill: #688222;
      }

      .cls-13 {
        fill: #717171;
      }

      .cls-14 {
        fill: #6f8900;
      }

      .cls-15 {
        fill: #96c120;
      }

      .cls-16 {
        fill: #bae229;
      }

      .cls-17 {
        fill: #b8e12a;
      }

      .cls-18 {
        fill: #9b0e23;
      }

      .cls-19 {
        fill: #64666a;
      }

      .cls-20 {
        clip-path: url(#clippath);
      }
    </style>
    <clipPath id="clippath">
      <polygon class="cls-1" points="133.33 133.33 66.67 133.33 66.67 200 133.33 200 200 200 200 133.33 133.33 133.33"/>
    </clipPath>
    <clipPath id="clippath-1">
      <rect class="cls-1" width="66.67" height="66.67"/>
    </clipPath>
  </defs>
  <g>
    <g>
      <path class="cls-7" d="M532.61,32.67c0,2.46,1.82,4.28,4.87,4.28,1.29,0,2.5-.2,3.75-.79l1.14,1.56c-1.58.83-3.1,1.27-5.43,1.27-4.87,0-8.44-2.34-8.44-6.32h0c0-3.98,3.58-6.32,8.44-6.32,2.33,0,3.67.34,5.32,1.04l-1.17,1.79c-1.24-.66-2.32-.8-3.61-.8-3.05,0-4.87,1.82-4.87,4.28"/>
      <path class="cls-7" d="M551.18,37.02c-2.59,0-4.02-1.95-4.02-4.36s1.43-4.36,4.02-4.36,4.02,1.95,4.02,4.36-1.43,4.36-4.02,4.36M551.18,26.34c-4.71,0-8.11,2.35-8.11,6.32s3.4,6.32,8.11,6.32,8.11-2.34,8.11-6.32-3.4-6.32-8.11-6.32"/>
      <polygon class="cls-7" points="571.53 33.58 571.53 38.67 575.42 38.67 575.42 26.66 571.53 26.66 571.53 31.24 565.58 31.24 565.58 26.66 561.7 26.66 561.7 38.67 565.58 38.67 565.58 33.58 571.53 33.58"/>
      <rect class="cls-7" x="522.07" y="26.66" width="4.1" height="12.01"/>
      <path class="cls-7" d="M510.31,32.16v1.15c1.93,1.49,3.89,3.47,5.33,5.36h4.59c-1.6-1.88-4.05-4.1-5.85-5.23,2.12-.09,4.48-.94,4.48-3.38,0-3.12-3.33-3.69-6.7-3.69-2.75,0-5.29.13-6.81.25v12.04h3.83v-10.23c.71-.08,1.47-.16,3-.16,1.97,0,2.97.65,2.97,1.79,0,.97-.41,2.13-4.83,2.09"/>
    </g>
    <g>
      <path class="cls-13" d="M505.66,44.23h.98v4.9h-.98v-4.9ZM505.66,42.27h.98v.95h-.98v-.95Z"/>
      <path class="cls-13" d="M513.96,49.13v-3.14c0-.6-.19-1.09-.87-1.09-.8,0-1.09.81-1.09,1.56v2.67h-.98v-3.14c0-.6-.19-1.09-.87-1.09-.8,0-1.1.81-1.1,1.56v2.67h-.98v-3.77c0-.37,0-.75-.05-1.13h.92l.03.84c.32-.63.83-.94,1.5-.94.77,0,1.28.46,1.43,1,.23-.61.87-1,1.5-1,1.07,0,1.55.72,1.55,1.73v3.26h-.99,0Z"/>
      <path class="cls-13" d="M557.2,48.51c.72-.17.93-.9.9-1.78,0,0-2.22-.18-2.16,1.05.04.72.73.86,1.26.73M558.16,49.13l-.03-.77c-.7,1.31-3.16,1.17-3.16-.52,0-1.27,1.22-1.79,3.13-1.7,0,0,.1-.92-.53-1.2-.41-.18-1.29-.16-2.03.28l-.06-.75c1.14-.47,3.57-.76,3.57,1.5v2.08c0,.42.02.75.06,1.09h-.96Z"/>
      <path class="cls-13" d="M518.17,48.51c.72-.17.93-.9.9-1.78,0,0-2.22-.18-2.16,1.05.03.72.73.86,1.26.73M519.12,49.13l-.03-.77c-.7,1.31-3.16,1.17-3.16-.52,0-1.27,1.22-1.79,3.13-1.7,0,0,.1-.92-.53-1.2-.41-.18-1.29-.16-2.03.28l-.06-.75c1.14-.47,3.57-.76,3.57,1.5v2.08c0,.42.02.75.06,1.09h-.96Z"/>
      <path class="cls-13" d="M567.86,44.89c-1.01,0-1.23.96-1.23,1.78,0,.76.23,1.7,1.22,1.7s1.25-.96,1.25-1.7c0-.78-.29-1.78-1.24-1.78M565.96,51.08l.06-.83c.43.23.95.36,1.46.35,1.69-.03,1.6-1.43,1.6-2.33,0,0-.49.85-1.52.85-1.43,0-1.99-1.24-1.99-2.47,0-1.3.56-2.53,2.01-2.53.68,0,1.22.29,1.54.91v-.81h.94v4.62c0,2.73-2.42,2.75-4.09,2.23"/>
      <path class="cls-13" d="M523.35,44.89c-1.01,0-1.23.96-1.23,1.78,0,.76.24,1.7,1.22,1.7s1.25-.96,1.25-1.7c0-.78-.29-1.78-1.24-1.78M521.45,51.08l.06-.83c.43.23.95.36,1.46.35,1.69-.03,1.6-1.43,1.6-2.33,0,0-.49.85-1.52.85-1.43,0-1.99-1.24-1.99-2.47,0-1.3.56-2.53,2.01-2.53.68,0,1.22.29,1.54.91v-.81h.94v4.62c0,2.73-2.42,2.75-4.09,2.23"/>
      <path class="cls-13" d="M526.99,44.23h.98v4.9h-.98v-4.9ZM526.99,42.27h.98v.95h-.98v-.95Z"/>
      <path class="cls-13" d="M573.32,44.81c-.83,0-1.22.89-1.22,1.52h2.32c0-.7-.26-1.52-1.1-1.52M572.11,46.93c.06,1.71,1.58,1.93,2.94,1.27l.06.76c-1.97.64-4,.26-4-2.31,0-1.34.85-2.53,2.21-2.53,2.31,0,2.05,2.8,2.05,2.8h-3.25Z"/>
      <path class="cls-13" d="M536.85,44.81c-.83,0-1.22.89-1.22,1.52h2.32c0-.7-.26-1.52-1.1-1.52M535.63,46.93c.06,1.71,1.58,1.93,2.94,1.27l.06.76c-1.97.64-4,.26-4-2.31,0-1.34.85-2.53,2.21-2.53,2.31,0,2.05,2.8,2.05,2.8h-3.25Z"/>
      <rect class="cls-13" x="540.09" y="48.12" width="1.05" height="1.01"/>
      <path class="cls-13" d="M544.59,46.66c0-2.23,2.15-2.94,4.02-2.32l-.06.78c-1.22-.57-2.9-.22-2.9,1.54s1.6,2.18,2.91,1.61l.05.77c-1.55.53-4.02.12-4.02-2.38"/>
      <path class="cls-13" d="M552.3,44.13c-.68,0-1.21.3-1.52.91v-2.77h-.98v6.85h.98v-2.56c0-.76.29-1.67,1.19-1.67.84,0,.97.64.97,1.34v2.89h.99v-3.09c0-1.12-.46-1.9-1.63-1.9"/>
      <path class="cls-13" d="M563.53,49.13v-2.89c0-.68-.13-1.34-.97-1.34-.91,0-1.19.83-1.19,1.6v2.63h-.98v-3.77c0-.37,0-.75-.05-1.13h.92l.03.84c.33-.62.88-.94,1.59-.94,1.21,0,1.65.77,1.65,1.9v3.09h-.99Z"/>
      <path class="cls-13" d="M532.59,49.13v-2.89c0-.68-.13-1.34-.97-1.34-.91,0-1.19.83-1.19,1.6v2.63h-.98v-3.77c0-.37-.01-.75-.05-1.13h.92l.03.84c.33-.62.88-.94,1.59-.94,1.21,0,1.64.77,1.64,1.9v3.09h-.99,0Z"/>
      <rect class="cls-13" x="576.56" y="48.12" width="1.05" height="1.01"/>
    </g>
  </g>
  <g>
    <g>
      <rect class="cls-18" x="133.33" y="66.67" width="66.67" height="66.67"/>
      <g>
        <path class="cls-4" d="M166.67,107.31h0c13.72,0,24.85,11.12,24.85,24.85v1.18h-49.69v-1.18c0-13.72,11.12-24.85,24.85-24.85Z"/>
        <path class="cls-4" d="M178.96,91.21c-.21,6.44-5.45,11.69-11.89,11.89-7.11.23-12.92-5.59-12.7-12.7.2-6.44,5.45-11.69,11.89-11.89,7.11-.23,12.93,5.59,12.7,12.7Z"/>
      </g>
    </g>
    <g>
      <rect class="cls-16" y="66.67" width="66.67" height="66.67"/>
      <g>
        <g>
          <path class="cls-15" d="M55.46,98.96c-2.49,6.3-7.54,10.48-12.46,15.15-2.21,2.12-6.13,4.79-8.77,7.02-.03.03-.07.06-.1.08-.24.2-.47.4-.69.6-.03.04-.07.07-.11.1h0s-.08-.07-.12-.1c-.04-.03-.07-.07-.11-.1-.25-.23-.51-.45-.77-.67-.02-.02-.04-.04-.06-.05-.1-.08-.19-.16-.29-.25-2.28-1.91-4.83-3.68-7.63-5.94-5.27-4.25-10.66-9.55-13.16-15.85-2.49-6.3-1.67-14.46,3.73-18.55,3.6-2.73,8.85-3.1,12.8-.9,2.52,1.41,4.43,3.82,5.37,6.55.08.25.16.5.23.75.82-3.03,2.84-5.76,5.6-7.3,3.96-2.2,9.2-1.83,12.8.9,5.41,4.09,6.22,12.25,3.72,18.55Z"/>
          <path class="cls-14" d="M33.11,86.05v35.66c-.25-.23-.51-.45-.77-.67-.02-.02-.04-.04-.06-.05-.1-.08-.19-.16-.29-.25-2.28-1.91-4.83-3.68-7.63-5.94-5.27-4.25-10.66-9.55-13.16-15.85-2.49-6.3-1.67-14.46,3.73-18.55,3.6-2.73,8.85-3.1,12.8-.9,2.52,1.41,4.43,3.82,5.37,6.55Z"/>
        </g>
        <g>
          <path class="cls-19" d="M34.23,113.46v7.68c-.27.23-.52.45-.76.67-.03.03-.06.06-.09.09,0,.01-.02.02-.03.03h0s-.09-.07-.13-.11c-.04-.03-.08-.07-.12-.11-.04-.03-.08-.07-.11-.1-.24-.22-.49-.44-.74-.65-.02-.02-.05-.04-.07-.06v-7.43c.08.01.15.02.23.03.06,0,.12.01.18.02.07,0,.14.01.2.01.1,0,.2.01.31.01.04,0,.08,0,.12,0,.07,0,.14,0,.21,0,.04,0,.08,0,.12,0,.07,0,.14,0,.21-.01.05,0,.09,0,.13-.01.05,0,.09,0,.14-.01.07,0,.14-.02.21-.03Z"/>
          <path class="cls-16" d="M40.76,105.97c0,3.82-2.84,6.98-6.53,7.48-.34.05-.68.07-1.03.07-.07,0-.15,0-.22,0-.27,0-.55-.03-.81-.07-3.69-.5-6.53-3.66-6.53-7.48,0-2.28,1.01-4.32,2.61-5.71-.34-.71-.53-1.51-.53-2.36,0-2,1.07-3.75,2.67-4.71-.07-.24-.1-.5-.1-.78,0-1.53,1.19-2.79,2.69-2.9.07,0,.15,0,.22,0,1.61,0,2.91,1.3,2.91,2.91,0,.27-.04.53-.1.78,1.6.96,2.67,2.71,2.67,4.71,0,.84-.19,1.64-.53,2.36,1.6,1.39,2.61,3.43,2.61,5.71Z"/>
        </g>
        <g>
          <path class="cls-17" d="M32.98,89.53v24c-.27,0-.55-.03-.81-.07-3.69-.5-6.53-3.66-6.53-7.48,0-2.28,1.01-4.32,2.61-5.71-.34-.71-.53-1.51-.53-2.36,0-2,1.07-3.75,2.67-4.71-.07-.24-.1-.5-.1-.78,0-1.53,1.19-2.79,2.69-2.9Z"/>
          <path d="M32.98,113.53v8.06c-.24-.22-.49-.44-.74-.65-.02-.02-.05-.04-.07-.06v-7.43c.2.05.41.07.62.07.02,0,.05,0,.07,0,.04,0,.08,0,.12,0Z"/>
        </g>
      </g>
    </g>
    <g>
      <rect class="cls-2" x="66.67" y="66.67" width="66.67" height="66.67"/>
      <g>
        <g>
          <g>
            <path class="cls-18" d="M96.99,117.18c-.21-.22-.44-.42-.69-.6-.39-.27-.83-.49-1.3-.63l-.29-2.04c-.3-2.08-2.08-3.61-4.17-3.61h-5.71c-2.04,0-3.78,1.45-4.15,3.45l-.26,1.44-2.71.73c-1.99.54-3.37,2.34-3.37,4.4v.51c0,.34.28.62.62.62h3.17s0-.05,0-.08c.22-1.29,1.34-2.27,2.69-2.27s2.47.98,2.69,2.27c0,.02,0,.04,0,.07h0s7.29.01,7.29.01c0-.03,0-.05,0-.08.22-1.29,1.34-2.27,2.69-2.27s2.47.98,2.69,2.27c0,.02,0,.04,0,.07h0s1.42.01,1.42.01c.35,0,.62-.28.62-.62v-.52c0-1.2-.47-2.31-1.25-3.14ZM83.39,115.24c-.35,0-.61-.34-.5-.68l.24-.85c.37-1.2,1.48-2.01,2.73-2.01h.98v3.55h-3.45ZM88.74,118.19l-.39.49-.48.6-.68.85-.48.6h0s-.08.05-.12.05c-.02,0-.05,0-.08-.02-.06-.03-.09-.11-.07-.17h0s.55-1.66.55-1.66l-1.22.04c-.06,0-.12-.02-.15-.07-.03-.05-.03-.11,0-.16t0,0l.18-.25.23-.32,1.03-1.4.11-.14h0s.3-.42.3-.42c0,0,0,0,0,0,.03-.04.09-.06.14-.05.02,0,.04,0,.05.01.05.02.08.06.08.12,0,.01,0,.03,0,.05h0l-.22.95-.18.73h.18s.4-.02.4-.02l.66-.03h0c.06,0,.12.04.14.09,0,0,0,.01,0,.02.02.05,0,.09-.02.13ZM92,115.24h-3.77v-3.55h1.32c1.27,0,2.38.84,2.74,2.05l.22.82c.1.34-.15.68-.51.68Z"/>
            <path class="cls-18" d="M80.81,120.12c-.88,0-1.59.71-1.59,1.59s.71,1.58,1.59,1.58,1.58-.71,1.58-1.58-.71-1.59-1.58-1.59ZM80.81,122.15c-.25,0-.45-.2-.45-.44s.2-.44.45-.44.44.2.44.44-.2.44-.44.44Z"/>
            <path class="cls-18" d="M93.49,120.12c-.88,0-1.59.71-1.59,1.59s.71,1.58,1.59,1.58,1.58-.71,1.58-1.58-.71-1.59-1.58-1.59ZM93.49,122.15c-.25,0-.45-.2-.45-.44s.2-.44.45-.44.44.2.44.44-.2.44-.44.44Z"/>
          </g>
          <g>
            <path class="cls-18" d="M80.81,120.12c-.88,0-1.59.71-1.59,1.59s.71,1.58,1.59,1.58,1.58-.71,1.58-1.58-.71-1.59-1.58-1.59ZM80.81,122.15c-.25,0-.45-.2-.45-.44s.2-.44.45-.44.44.2.44.44-.2.44-.44.44Z"/>
            <path class="cls-18" d="M85.64,118.72l.18-.25.23-.32,1.03-1.4.11-.14h0v-6.31h-2.36c-2.04,0-3.78,1.45-4.15,3.45l-.26,1.44-2.71.73c-1.99.54-3.37,2.34-3.37,4.4v.51c0,.34.28.62.62.62h3.17s0-.05,0-.08c.22-1.29,1.34-2.27,2.69-2.27s2.47.98,2.69,2.27c0,.02,0,.04,0,.07h0s3.67.01,3.67.01v-1.34l-.48.6h0s-.08.05-.12.05c-.02,0-.05,0-.08-.02-.06-.03-.09-.11-.07-.17h0s.55-1.66.55-1.66l-1.22.04c-.06,0-.12-.02-.15-.07-.03-.05-.03-.11,0-.16t0,0ZM83.39,115.24c-.35,0-.61-.34-.5-.68l.24-.85c.37-1.2,1.48-2.01,2.73-2.01h.98v3.55h-3.45Z"/>
          </g>
        </g>
        <g>
          <g>
            <path class="cls-18" d="M124.4,117.18c-.21-.22-.44-.42-.69-.6-.39-.27-.83-.49-1.3-.63l-.29-2.04c-.3-2.08-2.08-3.61-4.17-3.61h-5.71c-2.04,0-3.78,1.45-4.15,3.45l-.26,1.44-2.71.73c-1.99.54-3.37,2.34-3.37,4.4v.51c0,.34.28.62.62.62h3.17s0-.05,0-.08c.22-1.29,1.34-2.27,2.69-2.27s2.47.98,2.69,2.27c0,.02,0,.04,0,.07h0s7.29.01,7.29.01c0-.03,0-.05,0-.08.22-1.29,1.34-2.27,2.69-2.27s2.47.98,2.69,2.27c0,.02,0,.04,0,.07h0s1.42.01,1.42.01c.35,0,.62-.28.62-.62v-.52c0-1.2-.47-2.31-1.25-3.14ZM110.8,115.24c-.35,0-.61-.34-.5-.68l.24-.85c.37-1.2,1.48-2.01,2.73-2.01h.98v3.55h-3.45ZM116.15,118.19l-.39.49-.48.6-.68.85-.48.6h0s-.08.05-.12.05c-.02,0-.05,0-.08-.02-.06-.03-.09-.11-.07-.17h0s.55-1.66.55-1.66l-1.22.04c-.06,0-.12-.02-.15-.07-.03-.05-.03-.11,0-.16t0,0l.18-.25.23-.32,1.03-1.4.11-.14h0s.3-.42.3-.42c0,0,0,0,0,0,.03-.04.09-.06.14-.05.02,0,.04,0,.05.01.05.02.08.06.08.12,0,.01,0,.03,0,.05h0l-.22.95-.18.73h.18s.4-.02.4-.02l.66-.03h0c.06,0,.12.04.14.09,0,0,0,.01,0,.02.02.05,0,.09-.02.13ZM119.41,115.24h-3.77v-3.55h1.32c1.27,0,2.38.84,2.74,2.05l.22.82c.1.34-.15.68-.51.68Z"/>
            <path class="cls-18" d="M108.22,120.12c-.88,0-1.59.71-1.59,1.59s.71,1.58,1.59,1.58,1.58-.71,1.58-1.58-.71-1.59-1.58-1.59ZM108.22,122.15c-.25,0-.45-.2-.45-.44s.2-.44.45-.44.44.2.44.44-.2.44-.44.44Z"/>
            <path class="cls-18" d="M120.9,120.12c-.88,0-1.59.71-1.59,1.59s.71,1.58,1.59,1.58,1.58-.71,1.58-1.58-.71-1.59-1.58-1.59ZM120.9,122.15c-.25,0-.45-.2-.45-.44s.2-.44.45-.44.44.2.44.44-.2.44-.44.44Z"/>
          </g>
          <g>
            <path class="cls-18" d="M108.22,120.12c-.88,0-1.59.71-1.59,1.59s.71,1.58,1.59,1.58,1.58-.71,1.58-1.58-.71-1.59-1.58-1.59ZM108.22,122.15c-.25,0-.45-.2-.45-.44s.2-.44.45-.44.44.2.44.44-.2.44-.44.44Z"/>
            <path class="cls-18" d="M113.05,118.72l.18-.25.23-.32,1.03-1.4.11-.14h0v-6.31h-2.36c-2.04,0-3.78,1.45-4.15,3.45l-.26,1.44-2.71.73c-1.99.54-3.37,2.34-3.37,4.4v.51c0,.34.28.62.62.62h3.17s0-.05,0-.08c.22-1.29,1.34-2.27,2.69-2.27s2.47.98,2.69,2.27c0,.02,0,.04,0,.07h0s3.67.01,3.67.01v-1.34l-.48.6h0s-.08.05-.12.05c-.02,0-.05,0-.08-.02-.06-.03-.09-.11-.07-.17h0s.55-1.66.55-1.66l-1.22.04c-.06,0-.12-.02-.15-.07-.03-.05-.03-.11,0-.16t0,0ZM110.8,115.24c-.35,0-.61-.34-.5-.68l.24-.85c.37-1.2,1.48-2.01,2.73-2.01h.98v3.55h-3.45Z"/>
          </g>
        </g>
        <g>
          <g>
            <path class="cls-18" d="M96.99,100.38c-.21-.22-.44-.42-.69-.6-.39-.27-.83-.49-1.3-.63l-.29-2.04c-.3-2.08-2.08-3.61-4.17-3.61h-5.71c-2.04,0-3.78,1.45-4.15,3.45l-.26,1.44-2.71.73c-1.99.54-3.37,2.34-3.37,4.4v.51c0,.34.28.62.62.62h3.17s0-.05,0-.08c.22-1.29,1.34-2.27,2.69-2.27s2.47.98,2.69,2.27c0,.02,0,.04,0,.07h0s7.29.01,7.29.01c0-.03,0-.05,0-.08.22-1.29,1.34-2.27,2.69-2.27s2.47.98,2.69,2.27c0,.02,0,.04,0,.07h0s1.42.01,1.42.01c.35,0,.62-.28.62-.62v-.52c0-1.2-.47-2.31-1.25-3.14ZM83.39,98.45c-.35,0-.61-.34-.5-.68l.24-.85c.37-1.2,1.48-2.01,2.73-2.01h.98v3.55h-3.45ZM88.74,101.39l-.39.49-.48.6-.68.85-.48.6h0s-.08.05-.12.05c-.02,0-.05,0-.08-.02-.06-.03-.09-.11-.07-.17h0s.55-1.66.55-1.66l-1.22.04c-.06,0-.12-.02-.15-.07-.03-.05-.03-.11,0-.16t0,0l.18-.25.23-.32,1.03-1.4.11-.14h0s.3-.42.3-.42c0,0,0,0,0,0,.03-.04.09-.06.14-.05.02,0,.04,0,.05.01.05.02.08.06.08.12,0,.01,0,.03,0,.05h0l-.22.95-.18.73h.18s.4-.02.4-.02l.66-.03h0c.06,0,.12.04.14.09,0,0,0,.01,0,.02.02.05,0,.09-.02.13ZM92,98.45h-3.77v-3.55h1.32c1.27,0,2.38.84,2.74,2.05l.22.82c.1.34-.15.68-.51.68Z"/>
            <path class="cls-18" d="M80.81,103.33c-.88,0-1.59.71-1.59,1.59s.71,1.58,1.59,1.58,1.58-.71,1.58-1.58-.71-1.59-1.58-1.59ZM80.81,105.36c-.25,0-.45-.2-.45-.44s.2-.44.45-.44.44.2.44.44-.2.44-.44.44Z"/>
            <path class="cls-18" d="M93.49,103.33c-.88,0-1.59.71-1.59,1.59s.71,1.58,1.59,1.58,1.58-.71,1.58-1.58-.71-1.59-1.58-1.59ZM93.49,105.36c-.25,0-.45-.2-.45-.44s.2-.44.45-.44.44.2.44.44-.2.44-.44.44Z"/>
          </g>
          <g>
            <path class="cls-18" d="M80.81,103.33c-.88,0-1.59.71-1.59,1.59s.71,1.58,1.59,1.58,1.58-.71,1.58-1.58-.71-1.59-1.58-1.59ZM80.81,105.36c-.25,0-.45-.2-.45-.44s.2-.44.45-.44.44.2.44.44-.2.44-.44.44Z"/>
            <path class="cls-18" d="M85.64,101.92l.18-.25.23-.32,1.03-1.4.11-.14h0v-6.31h-2.36c-2.04,0-3.78,1.45-4.15,3.45l-.26,1.44-2.71.73c-1.99.54-3.37,2.34-3.37,4.4v.51c0,.34.28.62.62.62h3.17s0-.05,0-.08c.22-1.29,1.34-2.27,2.69-2.27s2.47.98,2.69,2.27c0,.02,0,.04,0,.07h0s3.67.01,3.67.01v-1.34l-.48.6h0s-.08.05-.12.05c-.02,0-.05,0-.08-.02-.06-.03-.09-.11-.07-.17h0s.55-1.66.55-1.66l-1.22.04c-.06,0-.12-.02-.15-.07-.03-.05-.03-.11,0-.16t0,0ZM83.39,98.45c-.35,0-.61-.34-.5-.68l.24-.85c.37-1.2,1.48-2.01,2.73-2.01h.98v3.55h-3.45Z"/>
          </g>
        </g>
        <g>
          <g>
            <path class="cls-18" d="M124.4,100.38c-.21-.22-.44-.42-.69-.6-.39-.27-.83-.49-1.3-.63l-.29-2.04c-.3-2.08-2.08-3.61-4.17-3.61h-5.71c-2.04,0-3.78,1.45-4.15,3.45l-.26,1.44-2.71.73c-1.99.54-3.37,2.34-3.37,4.4v.51c0,.34.28.62.62.62h3.17s0-.05,0-.08c.22-1.29,1.34-2.27,2.69-2.27s2.47.98,2.69,2.27c0,.02,0,.04,0,.07h0s7.29.01,7.29.01c0-.03,0-.05,0-.08.22-1.29,1.34-2.27,2.69-2.27s2.47.98,2.69,2.27c0,.02,0,.04,0,.07h0s1.42.01,1.42.01c.35,0,.62-.28.62-.62v-.52c0-1.2-.47-2.31-1.25-3.14ZM110.8,98.45c-.35,0-.61-.34-.5-.68l.24-.85c.37-1.2,1.48-2.01,2.73-2.01h.98v3.55h-3.45ZM116.15,101.39l-.39.49-.48.6-.68.85-.48.6h0s-.08.05-.12.05c-.02,0-.05,0-.08-.02-.06-.03-.09-.11-.07-.17h0s.55-1.66.55-1.66l-1.22.04c-.06,0-.12-.02-.15-.07-.03-.05-.03-.11,0-.16t0,0l.18-.25.23-.32,1.03-1.4.11-.14h0s.3-.42.3-.42c0,0,0,0,0,0,.03-.04.09-.06.14-.05.02,0,.04,0,.05.01.05.02.08.06.08.12,0,.01,0,.03,0,.05h0l-.22.95-.18.73h.18s.4-.02.4-.02l.66-.03h0c.06,0,.12.04.14.09,0,0,0,.01,0,.02.02.05,0,.09-.02.13ZM119.41,98.45h-3.77v-3.55h1.32c1.27,0,2.38.84,2.74,2.05l.22.82c.1.34-.15.68-.51.68Z"/>
            <path class="cls-18" d="M108.22,103.33c-.88,0-1.59.71-1.59,1.59s.71,1.58,1.59,1.58,1.58-.71,1.58-1.58-.71-1.59-1.58-1.59ZM108.22,105.36c-.25,0-.45-.2-.45-.44s.2-.44.45-.44.44.2.44.44-.2.44-.44.44Z"/>
            <path class="cls-18" d="M120.9,103.33c-.88,0-1.59.71-1.59,1.59s.71,1.58,1.59,1.58,1.58-.71,1.58-1.58-.71-1.59-1.58-1.59ZM120.9,105.36c-.25,0-.45-.2-.45-.44s.2-.44.45-.44.44.2.44.44-.2.44-.44.44Z"/>
          </g>
          <g>
            <path class="cls-18" d="M108.22,103.33c-.88,0-1.59.71-1.59,1.59s.71,1.58,1.59,1.58,1.58-.71,1.58-1.58-.71-1.59-1.58-1.59ZM108.22,105.36c-.25,0-.45-.2-.45-.44s.2-.44.45-.44.44.2.44.44-.2.44-.44.44Z"/>
            <path class="cls-18" d="M113.05,101.92l.18-.25.23-.32,1.03-1.4.11-.14h0v-6.31h-2.36c-2.04,0-3.78,1.45-4.15,3.45l-.26,1.44-2.71.73c-1.99.54-3.37,2.34-3.37,4.4v.51c0,.34.28.62.62.62h3.17s0-.05,0-.08c.22-1.29,1.34-2.27,2.69-2.27s2.47.98,2.69,2.27c0,.02,0,.04,0,.07h0s3.67.01,3.67.01v-1.34l-.48.6h0s-.08.05-.12.05c-.02,0-.05,0-.08-.02-.06-.03-.09-.11-.07-.17h0s.55-1.66.55-1.66l-1.22.04c-.06,0-.12-.02-.15-.07-.03-.05-.03-.11,0-.16t0,0ZM110.8,98.45c-.35,0-.61-.34-.5-.68l.24-.85c.37-1.2,1.48-2.01,2.73-2.01h.98v3.55h-3.45Z"/>
          </g>
        </g>
        <g>
          <g>
            <path class="cls-18" d="M96.99,83.58c-.21-.22-.44-.42-.69-.6-.39-.27-.83-.49-1.3-.63l-.29-2.04c-.3-2.08-2.08-3.61-4.17-3.61h-5.71c-2.04,0-3.78,1.45-4.15,3.45l-.26,1.44-2.71.73c-1.99.54-3.37,2.34-3.37,4.4v.51c0,.34.28.62.62.62h3.17s0-.05,0-.08c.22-1.29,1.34-2.27,2.69-2.27s2.47.98,2.69,2.27c0,.02,0,.04,0,.07h0s7.29.01,7.29.01c0-.03,0-.05,0-.08.22-1.29,1.34-2.27,2.69-2.27s2.47.98,2.69,2.27c0,.02,0,.04,0,.07h0s1.42.01,1.42.01c.35,0,.62-.28.62-.62v-.52c0-1.2-.47-2.31-1.25-3.14ZM83.39,81.65c-.35,0-.61-.34-.5-.68l.24-.85c.37-1.2,1.48-2.01,2.73-2.01h.98v3.55h-3.45ZM88.74,84.6l-.39.49-.48.6-.68.85-.48.6h0s-.08.05-.12.05c-.02,0-.05,0-.08-.02-.06-.03-.09-.11-.07-.17h0s.55-1.66.55-1.66l-1.22.04c-.06,0-.12-.02-.15-.07-.03-.05-.03-.11,0-.16t0,0l.18-.25.23-.32,1.03-1.4.11-.14h0s.3-.42.3-.42c0,0,0,0,0,0,.03-.04.09-.06.14-.05.02,0,.04,0,.05.01.05.02.08.06.08.12,0,.01,0,.03,0,.05h0l-.22.95-.18.73h.18s.4-.02.4-.02l.66-.03h0c.06,0,.12.04.14.09,0,0,0,.01,0,.02.02.05,0,.09-.02.13ZM92,81.65h-3.77v-3.55h1.32c1.27,0,2.38.84,2.74,2.05l.22.82c.1.34-.15.68-.51.68Z"/>
            <path class="cls-18" d="M80.81,86.53c-.88,0-1.59.71-1.59,1.59s.71,1.58,1.59,1.58,1.58-.71,1.58-1.58-.71-1.59-1.58-1.59ZM80.81,88.56c-.25,0-.45-.2-.45-.44s.2-.44.45-.44.44.2.44.44-.2.44-.44.44Z"/>
            <path class="cls-18" d="M93.49,86.53c-.88,0-1.59.71-1.59,1.59s.71,1.58,1.59,1.58,1.58-.71,1.58-1.58-.71-1.59-1.58-1.59ZM93.49,88.56c-.25,0-.45-.2-.45-.44s.2-.44.45-.44.44.2.44.44-.2.44-.44.44Z"/>
          </g>
          <g>
            <path class="cls-18" d="M80.81,86.53c-.88,0-1.59.71-1.59,1.59s.71,1.58,1.59,1.58,1.58-.71,1.58-1.58-.71-1.59-1.58-1.59ZM80.81,88.56c-.25,0-.45-.2-.45-.44s.2-.44.45-.44.44.2.44.44-.2.44-.44.44Z"/>
            <path class="cls-18" d="M85.64,85.13l.18-.25.23-.32,1.03-1.4.11-.14h0v-6.31h-2.36c-2.04,0-3.78,1.45-4.15,3.45l-.26,1.44-2.71.73c-1.99.54-3.37,2.34-3.37,4.4v.51c0,.34.28.62.62.62h3.17s0-.05,0-.08c.22-1.29,1.34-2.27,2.69-2.27s2.47.98,2.69,2.27c0,.02,0,.04,0,.07h0s3.67.01,3.67.01v-1.34l-.48.6h0s-.08.05-.12.05c-.02,0-.05,0-.08-.02-.06-.03-.09-.11-.07-.17h0s.55-1.66.55-1.66l-1.22.04c-.06,0-.12-.02-.15-.07-.03-.05-.03-.11,0-.16t0,0ZM83.39,81.65c-.35,0-.61-.34-.5-.68l.24-.85c.37-1.2,1.48-2.01,2.73-2.01h.98v3.55h-3.45Z"/>
          </g>
        </g>
        <g>
          <g>
            <path class="cls-18" d="M124.4,83.58c-.21-.22-.44-.42-.69-.6-.39-.27-.83-.49-1.3-.63l-.29-2.04c-.3-2.08-2.08-3.61-4.17-3.61h-5.71c-2.04,0-3.78,1.45-4.15,3.45l-.26,1.44-2.71.73c-1.99.54-3.37,2.34-3.37,4.4v.51c0,.34.28.62.62.62h3.17s0-.05,0-.08c.22-1.29,1.34-2.27,2.69-2.27s2.47.98,2.69,2.27c0,.02,0,.04,0,.07h0s7.29.01,7.29.01c0-.03,0-.05,0-.08.22-1.29,1.34-2.27,2.69-2.27s2.47.98,2.69,2.27c0,.02,0,.04,0,.07h0s1.42.01,1.42.01c.35,0,.62-.28.62-.62v-.52c0-1.2-.47-2.31-1.25-3.14ZM110.8,81.65c-.35,0-.61-.34-.5-.68l.24-.85c.37-1.2,1.48-2.01,2.73-2.01h.98v3.55h-3.45ZM116.15,84.6l-.39.49-.48.6-.68.85-.48.6h0s-.08.05-.12.05c-.02,0-.05,0-.08-.02-.06-.03-.09-.11-.07-.17h0s.55-1.66.55-1.66l-1.22.04c-.06,0-.12-.02-.15-.07-.03-.05-.03-.11,0-.16t0,0l.18-.25.23-.32,1.03-1.4.11-.14h0s.3-.42.3-.42c0,0,0,0,0,0,.03-.04.09-.06.14-.05.02,0,.04,0,.05.01.05.02.08.06.08.12,0,.01,0,.03,0,.05h0l-.22.95-.18.73h.18s.4-.02.4-.02l.66-.03h0c.06,0,.12.04.14.09,0,0,0,.01,0,.02.02.05,0,.09-.02.13ZM119.41,81.65h-3.77v-3.55h1.32c1.27,0,2.38.84,2.74,2.05l.22.82c.1.34-.15.68-.51.68Z"/>
            <path class="cls-18" d="M108.22,86.53c-.88,0-1.59.71-1.59,1.59s.71,1.58,1.59,1.58,1.58-.71,1.58-1.58-.71-1.59-1.58-1.59ZM108.22,88.56c-.25,0-.45-.2-.45-.44s.2-.44.45-.44.44.2.44.44-.2.44-.44.44Z"/>
            <path class="cls-18" d="M120.9,86.53c-.88,0-1.59.71-1.59,1.59s.71,1.58,1.59,1.58,1.58-.71,1.58-1.58-.71-1.59-1.58-1.59ZM120.9,88.56c-.25,0-.45-.2-.45-.44s.2-.44.45-.44.44.2.44.44-.2.44-.44.44Z"/>
          </g>
          <g>
            <path class="cls-18" d="M108.22,86.53c-.88,0-1.59.71-1.59,1.59s.71,1.58,1.59,1.58,1.58-.71,1.58-1.58-.71-1.59-1.58-1.59ZM108.22,88.56c-.25,0-.45-.2-.45-.44s.2-.44.45-.44.44.2.44.44-.2.44-.44.44Z"/>
            <path class="cls-18" d="M113.05,85.13l.18-.25.23-.32,1.03-1.4.11-.14h0v-6.31h-2.36c-2.04,0-3.78,1.45-4.15,3.45l-.26,1.44-2.71.73c-1.99.54-3.37,2.34-3.37,4.4v.51c0,.34.28.62.62.62h3.17s0-.05,0-.08c.22-1.29,1.34-2.27,2.69-2.27s2.47.98,2.69,2.27c0,.02,0,.04,0,.07h0s3.67.01,3.67.01v-1.34l-.48.6h0s-.08.05-.12.05c-.02,0-.05,0-.08-.02-.06-.03-.09-.11-.07-.17h0s.55-1.66.55-1.66l-1.22.04c-.06,0-.12-.02-.15-.07-.03-.05-.03-.11,0-.16t0,0ZM110.8,81.65c-.35,0-.61-.34-.5-.68l.24-.85c.37-1.2,1.48-2.01,2.73-2.01h.98v3.55h-3.45Z"/>
          </g>
        </g>
      </g>
    </g>
    <rect class="cls-14" x="66.67" y=".44" width="66.67" height="66.67"/>
    <g>
      <rect class="cls-7" x="133.33" width="66.67" height="66.67"/>
      <g>
        <g>
          <path class="cls-2" d="M185.13,33.22s0-.09,0-.14c0-.18-.01-.37-.02-.55-.02-.46-.05-.91-.11-1.35-.41-3.47-1.78-6.65-3.83-9.25-.45-.56-.93-1.11-1.45-1.63-.13-.13-.26-.26-.4-.38-.13-.13-.27-.25-.4-.37-.1-.09-.21-.18-.31-.27-.02-.02-.05-.04-.08-.07-.01-.01-.02-.02-.04-.03-.01-.01-.02-.02-.04-.03-.12-.1-.24-.2-.36-.29,0,0,0,0,0,0-2.6-2.05-5.78-3.42-9.25-3.83-.72-.09-1.44-.13-2.18-.13v4.82c.74,0,1.47.06,2.18.17,6.5,1.04,11.47,6.68,11.47,13.48s-4.97,12.43-11.47,13.48c-.71.11-1.44.17-2.18.17v4.82c.74,0,1.46-.04,2.18-.13,3.47-.41,6.64-1.78,9.25-3.83.14-.11.28-.23.42-.34.14-.12.28-.23.41-.35.14-.12.27-.24.4-.37.13-.13.27-.25.4-.38.52-.52,1-1.07,1.45-1.63,2.06-2.61,3.43-5.78,3.83-9.25.05-.45.09-.9.11-1.35.01-.23.02-.46.02-.68,0-.05,0-.09,0-.14s0-.09,0-.14Z"/>
          <path class="cls-2" d="M168.95,6.19v7.94c-.75-.09-1.51-.13-2.28-.13s-1.53.04-2.28.13v-7.94c.75-.06,1.51-.1,2.28-.1s1.53.03,2.28.1Z"/>
          <path class="cls-2" d="M168.95,52.54v7.94c-.75.06-1.51.1-2.28.1s-1.53-.03-2.28-.1v-7.94c.75.09,1.51.13,2.28.13s1.53-.04,2.28-.13Z"/>
          <path class="cls-2" d="M193.91,33.33c0,.77-.03,1.53-.09,2.28h-7.94c.06-.47.09-.94.12-1.42.01-.24.02-.48.02-.72v-.14c0-.1,0-.19,0-.29,0-.19,0-.38-.02-.57-.02-.48-.06-.95-.12-1.42h7.94c.06.75.09,1.51.09,2.28Z"/>
          <path class="cls-2" d="M147.41,35.17c.01.15.03.3.04.44h-7.94c-.06-.75-.09-1.51-.09-2.28s.03-1.53.09-2.28h7.94s0,.06,0,.09c-.01.12-.03.24-.04.36-.01.13-.03.27-.03.4,0,.05,0,.1-.01.15,0,.12-.02.24-.02.36-.01.31-.02.61-.02.92s0,.62.02.92c0,.11.01.22.02.33,0,.06,0,.12.01.18,0,.14.02.27.03.4Z"/>
          <path class="cls-2" d="M187.48,15.75l-5.61,5.61c-.47-.59-.97-1.16-1.52-1.71-.14-.14-.27-.27-.41-.4-.14-.13-.28-.26-.42-.39-.11-.1-.22-.19-.33-.28-.03-.02-.05-.05-.08-.07-.01-.01-.02-.02-.04-.03-.01-.01-.03-.02-.04-.03-.12-.11-.25-.21-.38-.31,0,0,0,0,0,0l5.61-5.61c1.16.98,2.24,2.06,3.23,3.22Z"/>
          <path class="cls-2" d="M154.7,48.53l-5.61,5.61c-1.16-.98-2.24-2.06-3.23-3.22l5.61-5.61c.47.59.97,1.16,1.52,1.71.14.14.27.27.42.4.14.13.27.25.41.38.01,0,.02.02.03.03.14.12.27.24.41.35.01.01.02.02.04.03.13.11.27.22.4.32Z"/>
          <path class="cls-2" d="M187.48,50.92c-.98,1.16-2.06,2.24-3.23,3.22l-5.61-5.61c.15-.12.29-.24.44-.36.15-.12.29-.25.43-.37.14-.13.28-.26.42-.39.14-.13.28-.26.41-.4.55-.54,1.05-1.12,1.52-1.71l5.61,5.61Z"/>
          <path class="cls-2" d="M154.7,18.14c-.13.1-.25.2-.37.3-.06.04-.11.09-.17.14-.12.1-.25.21-.37.32-.13.12-.26.24-.39.36-.14.13-.28.27-.42.4-.15.15-.3.3-.45.46-.08.09-.16.18-.24.27-.29.32-.56.65-.83.98l-5.61-5.61c.98-1.16,2.06-2.24,3.23-3.22l5.61,5.61Z"/>
        </g>
        <path class="cls-2" d="M173.88,32.05l-1.81,2.27-2.25,2.77-3.15,3.92-2.24,2.79h0c-.15.16-.36.26-.57.26-.12,0-.25-.03-.36-.1-.29-.15-.42-.49-.33-.8v-.02l2.58-7.7-5.68.18c-.28.03-.54-.1-.67-.33-.13-.23-.13-.52.02-.75t.03-.03l.85-1.14,1.06-1.48,4.8-6.53.49-.67.02-.02,1.4-1.92s.03-.02.03-.02c.15-.2.41-.29.64-.24.1,0,.16.03.24.07.23.1.36.29.39.54.02.06.02.13,0,.21h-.02l-1.01,4.44-.82,3.41.82-.03,1.86-.05,3.07-.11h.02c.29,0,.54.16.67.41.02.03.03.05.03.08.06.21.03.42-.12.6Z"/>
        <path class="cls-2" d="M153.02,33.36c0,6.8,4.97,12.43,11.47,13.48.71.11,1.44.17,2.18.17v4.82c-.74,0-1.46-.04-2.18-.13-3.47-.41-6.64-1.78-9.25-3.83-.13-.1-.26-.21-.38-.31-.01-.01-.02-.02-.04-.03-.13-.11-.26-.22-.39-.34-.01,0-.02-.02-.03-.02-.13-.12-.26-.24-.39-.36-.13-.13-.27-.25-.4-.38-.52-.52-1-1.07-1.45-1.63-2.06-2.61-3.43-5.78-3.83-9.25-.02-.14-.03-.28-.04-.42-.01-.13-.02-.26-.03-.39,0-.06-.01-.11-.01-.17,0-.1-.01-.21-.02-.31-.01-.29-.02-.59-.02-.88s0-.59.02-.88c0-.11.01-.23.02-.34,0-.05,0-.1.01-.15,0-.13.02-.25.03-.38,0-.11.02-.23.03-.34.39-3.5,1.77-6.71,3.84-9.34.25-.32.51-.63.79-.93.08-.09.16-.17.23-.25.14-.15.28-.3.43-.44.13-.13.26-.26.4-.38.12-.12.25-.23.37-.34.12-.1.23-.2.35-.3.05-.04.11-.09.16-.13.12-.1.23-.19.35-.29,2.61-2.05,5.78-3.42,9.25-3.83.71-.09,1.44-.13,2.18-.13v4.82c-.74,0-1.47.06-2.18.17-6.5,1.04-11.47,6.68-11.47,13.48Z"/>
        <path class="cls-2" d="M147.46,35.61h-7.94c-.06-.75-.09-1.51-.09-2.28s.03-1.53.09-2.28h7.94s0,.06,0,.09c-.01.12-.03.24-.04.36-.01.13-.03.27-.03.4,0,.05,0,.1-.01.15,0,.12-.01.24-.02.36-.01.31-.02.62-.02.92s0,.62.02.92c0,.11.01.22.02.33,0,.06,0,.12.01.18,0,.14.02.27.03.4.01.15.03.3.04.44Z"/>
        <path class="cls-2" d="M154.3,48.2c.13.11.27.22.4.32l-5.61,5.61c-1.16-.98-2.24-2.06-3.23-3.22l5.61-5.61c.47.59.97,1.16,1.52,1.71.14.14.27.27.42.4.14.13.27.25.41.38.01,0,.02.02.03.03.14.12.27.24.41.35.01.01.02.02.04.03Z"/>
        <path class="cls-2" d="M149.08,12.53l5.61,5.61c-.13.1-.25.2-.37.3-.06.04-.11.09-.17.14-.12.1-.25.21-.37.32-.13.12-.26.24-.39.36-.14.13-.28.27-.42.4-.15.15-.3.3-.45.46-.08.09-.16.18-.24.27-.29.32-.56.65-.83.98l-5.61-5.61c.98-1.16,2.06-2.24,3.23-3.22Z"/>
        <path class="cls-2" d="M166.67,6.09v7.9c-.77,0-1.53.04-2.28.13v-7.94c.75-.06,1.51-.1,2.28-.1Z"/>
        <path class="cls-2" d="M164.39,52.54c.75.09,1.51.13,2.28.13v7.9c-.77,0-1.53-.03-2.28-.1v-7.94Z"/>
        <path class="cls-18" d="M166.65,24.69l.02-.02v16.34l-2.24,2.79h0c-.15.16-.36.26-.57.26-.12,0-.25-.03-.36-.1-.29-.15-.42-.49-.33-.8v-.02l2.58-7.7-5.68.18c-.28.03-.54-.1-.67-.33-.13-.23-.13-.52.02-.75t.03-.03l.85-1.14,1.06-1.48,4.8-6.53.49-.67Z"/>
      </g>
    </g>
    <g>
      <rect class="cls-15" y="133.33" width="66.67" height="66.67"/>
      <path class="cls-4" d="M33.59,142.48c3.38.04,8.09,8.14,8.66,21.02l-17.77-.19c.84-12.87,5.72-20.87,9.1-20.84ZM25.27,140.44c-3.98,4.75-6.72,12.94-7.31,22.81l-11.83-.12c1.39-10.79,9.03-19.58,19.14-22.69ZM6.06,169.63l11.83.12c.38,9.89,2.94,18.13,6.83,22.96-10.05-3.32-17.5-12.27-18.66-23.09ZM33.08,190.85c-3.38-.04-8.09-8.14-8.66-21.02l17.77.19c-.84,12.87-5.72,20.87-9.1,20.83ZM41.4,192.9c3.98-4.75,6.72-12.94,7.31-22.81l11.83.12c-1.39,10.79-9.03,19.58-19.14,22.69ZM48.77,163.57c-.38-9.89-2.94-18.13-6.83-22.96,10.05,3.32,17.5,12.27,18.66,23.09l-11.83-.12Z"/>
    </g>
    <g>
      <g>
        <rect class="cls-16" x="66.67" y="133.33" width="66.67" height="66.67"/>
        <rect class="cls-15" x="133.33" y="133.33" width="66.67" height="66.67"/>
      </g>
      <g class="cls-20">
        <g>
          <g>
            <g>
              <path class="cls-19" d="M100.74,190.18v10.92h-3.28v-10.92c.08.01.16.02.24.03.04,0,.08,0,.12.01.05,0,.1.01.14.01.05,0,.09,0,.14.01.03,0,.05,0,.08,0,.05,0,.11,0,.16.01.03,0,.06,0,.08,0,.04,0,.08,0,.12,0,.09,0,.19,0,.28,0,.03,0,.07,0,.1,0,.06,0,.11,0,.17,0,.09,0,.17,0,.26,0,.08,0,.17,0,.25,0,.12,0,.24,0,.36-.02.07,0,.14,0,.21-.02.08,0,.15-.01.23-.02.11,0,.22-.03.33-.04Z"/>
              <path class="cls-15" d="M111.11,178.29c0,6.07-4.51,11.09-10.36,11.89-.53.08-1.08.12-1.64.12-.12,0-.23,0-.35,0-.44,0-.87-.05-1.29-.11-5.85-.79-10.36-5.82-10.36-11.89,0-3.62,1.61-6.87,4.14-9.07-.54-1.13-.84-2.4-.84-3.74,0-3.18,1.7-5.96,4.25-7.47-.11-.39-.16-.8-.16-1.23,0-2.43,1.88-4.43,4.27-4.6.12,0,.23-.01.35-.01,2.55,0,4.62,2.07,4.62,4.62,0,.43-.06.84-.16,1.23,2.54,1.52,4.24,4.3,4.24,7.47,0,1.34-.3,2.61-.84,3.74,2.54,2.2,4.14,5.45,4.14,9.07Z"/>
            </g>
            <g>
              <path class="cls-14" d="M98.75,152.18v38.11c-.44,0-.87-.05-1.29-.11-5.85-.79-10.36-5.82-10.36-11.89,0-3.62,1.61-6.87,4.14-9.07-.54-1.13-.84-2.4-.84-3.74,0-3.18,1.7-5.96,4.25-7.47-.11-.39-.16-.8-.16-1.23,0-2.43,1.88-4.43,4.27-4.6Z"/>
              <path d="M98.75,190.29v10.81h-1.29v-10.92c.32.07.65.11.99.11.03,0,.07,0,.11,0,.06,0,.12,0,.19,0Z"/>
            </g>
          </g>
          <g>
            <g>
              <path class="cls-12" d="M133.14,147.09v53.56h25.82v-53.56h-25.82ZM142.34,192.98h-4.47v-4.51h4.47v4.51ZM142.34,184.22h-4.47v-4.51h4.47v4.51ZM142.34,175.46h-4.47v-4.51h4.47v4.51ZM142.34,166.7h-4.47v-4.51h4.47v4.51ZM142.34,157.94h-4.47v-4.51h4.47v4.51ZM154.52,192.98h-8.36v-4.51h8.36v4.51ZM154.52,184.22h-8.36v-4.51h8.36v4.51ZM154.52,175.46h-8.36v-4.51h8.36v4.51ZM154.52,166.7h-8.36v-4.51h8.36v4.51ZM154.52,157.94h-8.36v-4.51h8.36v4.51Z"/>
              <path class="cls-8" d="M133.14,147.09v53.56h13.03v-53.56h-13.03ZM142.34,192.98h-4.38v-4.51h4.38v4.51ZM142.34,184.22h-4.38v-4.51h4.38v4.51ZM142.34,175.46h-4.38v-4.51h4.38v4.51ZM142.34,166.7h-4.38v-4.51h4.38v4.51ZM142.34,157.94h-4.38v-4.51h4.38v4.51Z"/>
            </g>
            <g>
              <g class="cls-10">
                <path class="cls-6" d="M156.82,162.18v38.46h18.54v-38.46h-18.54ZM163.43,195.14h-3.21v-3.24h3.21v3.24ZM163.43,188.85h-3.21v-3.24h3.21v3.24ZM163.43,182.56h-3.21v-3.24h3.21v3.24ZM163.43,176.27h-3.21v-3.24h3.21v3.24ZM163.43,169.97h-3.21v-3.24h3.21v3.24ZM172.18,195.14h-6v-3.24h6v3.24ZM172.18,188.85h-6v-3.24h6v3.24ZM172.18,182.56h-6v-3.24h6v3.24ZM172.18,176.27h-6v-3.24h6v3.24ZM172.18,169.97h-6v-3.24h6v3.24Z"/>
              </g>
              <path class="cls-9" d="M156.82,162.18v38.46h9.36v-38.46h-9.36ZM163.43,195.14h-3.15v-3.24h3.15v3.24ZM163.43,188.85h-3.15v-3.24h3.15v3.24ZM163.43,182.56h-3.15v-3.24h3.15v3.24ZM163.43,176.27h-3.15v-3.24h3.15v3.24ZM163.43,169.97h-3.15v-3.24h3.15v3.24Z"/>
            </g>
            <g>
              <g class="cls-10">
                <path class="cls-5" d="M120.56,169.97v30.67h14.79v-30.67h-14.79ZM125.83,196.26h-2.56v-2.59h2.56v2.59ZM125.83,191.24h-2.56v-2.59h2.56v2.59ZM125.83,186.22h-2.56v-2.59h2.56v2.59ZM125.83,181.2h-2.56v-2.59h2.56v2.59ZM125.83,176.19h-2.56v-2.59h2.56v2.59ZM132.81,196.26h-4.79v-2.59h4.79v2.59ZM132.81,191.24h-4.79v-2.59h4.79v2.59ZM132.81,186.22h-4.79v-2.59h4.79v2.59ZM132.81,181.2h-4.79v-2.59h4.79v2.59ZM132.81,176.19h-4.79v-2.59h4.79v2.59Z"/>
              </g>
              <path class="cls-5" d="M120.56,169.97v30.67h7.46v-30.67h-7.46ZM125.83,196.26h-2.51v-2.59h2.51v2.59ZM125.83,191.24h-2.51v-2.59h2.51v2.59ZM125.83,186.22h-2.51v-2.59h2.51v2.59ZM125.83,181.2h-2.51v-2.59h2.51v2.59ZM125.83,176.19h-2.51v-2.59h2.51v2.59Z"/>
            </g>
          </g>
          <g>
            <path class="cls-8" d="M178.5,180.01v20.64h9.95v-20.64h-9.95ZM182.05,197.69h-1.72v-1.74h1.72v1.74ZM182.05,194.32h-1.72v-1.74h1.72v1.74ZM182.05,190.94h-1.72v-1.74h1.72v1.74ZM182.05,187.56h-1.72v-1.74h1.72v1.74ZM182.05,184.19h-1.72v-1.74h1.72v1.74ZM186.74,197.69h-3.22v-1.74h3.22v1.74ZM186.74,194.32h-3.22v-1.74h3.22v1.74ZM186.74,190.94h-3.22v-1.74h3.22v1.74ZM186.74,187.56h-3.22v-1.74h3.22v1.74ZM186.74,184.19h-3.22v-1.74h3.22v1.74Z"/>
            <path class="cls-9" d="M178.5,180.01v20.64h5.02v-20.64h-5.02ZM182.05,197.69h-1.69v-1.74h1.69v1.74ZM182.05,194.32h-1.69v-1.74h1.69v1.74ZM182.05,190.94h-1.69v-1.74h1.69v1.74ZM182.05,187.56h-1.69v-1.74h1.69v1.74ZM182.05,184.19h-1.69v-1.74h1.69v1.74Z"/>
          </g>
        </g>
      </g>
    </g>
    <polyline class="cls-15" points="133.33 66.67 133.33 0 66.67 0"/>
    <g>
      <rect class="cls-7" width="66.67" height="66.67"/>
      <g class="cls-11">
        <path class="cls-3" d="M55.26,24.35c.76-.74,1.03-.07,1.03.29l-.46,43.47-13.14-.14.33-31.21c0-.89.23-1.2.67-1.63l11.57-10.78h0ZM22.09,38.21c.75-.74,1.03-.08,1.03.28l-.31,29.27-13.14-.14.18-17c0-.89.23-1.2.67-1.63l11.58-10.78ZM60.6,11.18v.1s-2.03,8.94-2.03,8.94v.03c0,.08-.04.15-.1.21-.13.13-.34.13-.47,0l-2.08-2.12-22.8,22.33c-.11.1-.27.1-.37,0l-2.47-2.52s-.01-.02-.02-.03l-6.59-6.73-14.69,14.38c-.1.1-.27.1-.37,0l-2.47-2.52c-.1-.1-.1-.27,0-.37l14.88-14.56s0,0,0,0l2.52-2.47c.11-.1.27-.1.37,0l9.09,9.28,20.09-19.68-1.98-2.02-.1-.1c-.13-.13-.12-.34,0-.47.05-.05.11-.08.17-.09l.16-.02,8.8-1.89h.09s.06,0,.06,0c.07,0,.15.04.21.09.07.07.1.16.09.25ZM38.64,40.29c.82-.81,1.1-.14,1.1.22l-.29,27.42-13.14-.14.28-26.98c0-.36.21-1.1,1.12-.17l5.15,5.36,5.78-5.71Z"/>
      </g>
    </g>
  </g>
  <g>
    <g>
      <path class="cls-19" d="M282.38,146.94v-10.47h2.7c2.05,0,3.07.9,3.07,2.71,0,.65-.22,1.19-.66,1.63-.44.44-1,.7-1.67.79v.03c.38.05.67.18.87.4.13.14.29.43.48.86l1.78,4.05h-1.14l-1.51-3.54c-.27-.63-.56-1.03-.87-1.2-.22-.13-.61-.19-1.17-.19h-.85v4.93h-1.03ZM283.42,137.37v3.74h1.09c.71,0,1.29-.14,1.76-.42.57-.33.85-.83.85-1.5,0-.77-.26-1.29-.78-1.54-.36-.18-.98-.27-1.86-.27h-1.06Z"/>
      <path class="cls-19" d="M291.91,135.99v1.26h-.94v-1.26h.94ZM290.96,146.94v-7.65h.94v7.65h-.94Z"/>
      <path class="cls-19" d="M299.72,139.42l-.07.88c-.59-.26-1.14-.39-1.64-.39-.9,0-1.6.29-2.11.88s-.77,1.36-.77,2.31c0,.9.25,1.65.74,2.25.52.63,1.2.95,2.04.95.53,0,1.1-.12,1.72-.35l.09.88c-.52.18-1.18.27-1.97.27-1.17,0-2.08-.4-2.74-1.2-.61-.73-.92-1.66-.92-2.8s.35-2.14,1.04-2.89c.7-.74,1.61-1.12,2.74-1.12.63,0,1.24.11,1.84.32Z"/>
      <path class="cls-19" d="M301.12,143.11c0-1.13.28-2.06.85-2.79.64-.81,1.54-1.21,2.71-1.21s2.07.41,2.72,1.21c.57.73.85,1.66.85,2.79s-.28,2.06-.85,2.79c-.64.81-1.54,1.21-2.72,1.21s-2.08-.4-2.71-1.21c-.57-.73-.85-1.66-.85-2.79ZM302.15,143.11c0,.92.21,1.67.65,2.27.46.62,1.09.93,1.89.93s1.43-.31,1.89-.93c.43-.59.65-1.35.65-2.27s-.22-1.68-.65-2.27c-.46-.62-1.09-.93-1.89-.93s-1.42.3-1.87.91c-.45.6-.67,1.37-.67,2.29Z"/>
      <path class="cls-19" d="M310.42,146.94v-11.25h.94v4.89c.47-.98,1.27-1.47,2.4-1.47.97,0,1.66.31,2.08.92.36.52.54,1.3.54,2.34v4.57h-.95v-4.56c0-.78-.1-1.36-.31-1.73-.29-.49-.79-.73-1.5-.73-.77,0-1.36.32-1.76.96-.34.53-.51,1.18-.51,1.96v4.09h-.94Z"/>
      <path class="cls-19" d="M330.97,145.84v-3.68h-2.43v-.9h3.47v5.21c-.98.43-2.07.64-3.26.64-1.63,0-2.92-.5-3.87-1.5-.94-.97-1.41-2.27-1.41-3.91s.48-2.92,1.44-3.92c.96-1,2.24-1.5,3.84-1.5,1.22,0,2.16.17,2.81.5l-.12.96c-.67-.37-1.57-.55-2.69-.55-1.33,0-2.38.43-3.13,1.29-.74.82-1.11,1.89-1.11,3.22s.36,2.44,1.09,3.24c.75.85,1.8,1.28,3.15,1.28,1.07,0,1.81-.12,2.22-.38Z"/>
      <path class="cls-19" d="M334.88,146.94v-11.25h.94v11.25h-.94Z"/>
      <path class="cls-19" d="M338,143.11c0-1.13.28-2.06.85-2.79.64-.81,1.54-1.21,2.71-1.21s2.07.41,2.72,1.21c.57.73.85,1.66.85,2.79s-.28,2.06-.85,2.79c-.64.81-1.54,1.21-2.72,1.21s-2.08-.4-2.71-1.21c-.57-.73-.85-1.66-.85-2.79ZM339.04,143.11c0,.92.21,1.67.65,2.27.46.62,1.09.93,1.89.93s1.43-.31,1.89-.93c.43-.59.65-1.35.65-2.27s-.22-1.68-.65-2.27c-.46-.62-1.09-.93-1.89-.93s-1.42.3-1.87.91c-.45.6-.67,1.37-.67,2.29Z"/>
      <path class="cls-19" d="M347.21,146.94v-11.25h.95v4.89c.11-.3.34-.59.68-.87.49-.4,1.07-.6,1.72-.6,1.09,0,1.9.38,2.43,1.12.49.69.74,1.65.74,2.88s-.26,2.13-.78,2.85c-.57.77-1.37,1.15-2.38,1.15-1.11,0-1.91-.46-2.4-1.39v1.21h-.95ZM352.69,143.11c0-.89-.15-1.61-.45-2.16-.39-.69-1-1.04-1.82-1.04s-1.38.36-1.78,1.08c-.32.57-.48,1.28-.48,2.12s.17,1.54.51,2.12c.4.72.98,1.08,1.75,1.08.82,0,1.43-.35,1.82-1.04.3-.55.45-1.27.45-2.16Z"/>
      <path class="cls-19" d="M360.43,146.94v-1.23h-.03c-.2.44-.54.79-1.02,1.05-.44.24-.91.36-1.41.36-.95,0-1.64-.27-2.07-.82-.3-.37-.45-.81-.45-1.34,0-1.13.54-1.9,1.62-2.31.67-.25,1.7-.38,3.09-.38h.18v-.39c0-.67-.13-1.16-.4-1.48s-.72-.48-1.34-.48c-.84,0-1.59.21-2.25.63v-.92c.72-.35,1.47-.53,2.25-.53.94,0,1.62.22,2.05.68.42.45.64,1.18.64,2.17v3.38c0,.72.02,1.26.07,1.61h-.93ZM360.34,143.55v-.47h-.27c-1.07,0-1.87.1-2.4.29-.79.29-1.19.81-1.19,1.56,0,.92.53,1.38,1.59,1.38,1.51,0,2.26-.92,2.26-2.76Z"/>
      <path class="cls-19" d="M363.89,146.94v-11.25h.94v11.25h-.94Z"/>
      <path class="cls-19" d="M371.83,146.67l.11-1.06c.65.41,1.43.62,2.32.62.69,0,1.25-.17,1.68-.51.46-.38.69-.92.69-1.63,0-.56-.42-1.1-1.24-1.62-.77-.45-1.54-.9-2.31-1.37-.83-.6-1.24-1.29-1.24-2.07,0-.82.31-1.48.94-1.98.63-.5,1.42-.75,2.37-.75.76,0,1.44.12,2.05.35l-.17.95c-.47-.26-1.1-.39-1.91-.39-.62,0-1.13.13-1.53.39-.49.32-.73.79-.73,1.41,0,.57.41,1.1,1.24,1.59.77.45,1.54.9,2.31,1.35.83.62,1.25,1.37,1.25,2.23,0,.98-.37,1.74-1.12,2.27-.63.46-1.41.69-2.34.69s-1.69-.15-2.38-.45Z"/>
      <path class="cls-19" d="M380.03,146.94v-10.47h2.59c1.79,0,3.13.48,4.02,1.46.81.89,1.22,2.14,1.22,3.76,0,1.81-.57,3.16-1.7,4.05-1.02.8-2.46,1.2-4.3,1.2h-1.83ZM381.07,137.37v8.67h.85c3.27,0,4.91-1.47,4.91-4.41s-1.42-4.26-4.25-4.26h-1.51Z"/>
      <path class="cls-19" d="M397.69,145.84v-3.68h-2.43v-.9h3.47v5.21c-.98.43-2.07.64-3.26.64-1.63,0-2.92-.5-3.87-1.5-.94-.97-1.41-2.27-1.41-3.91s.48-2.92,1.44-3.92c.96-1,2.24-1.5,3.84-1.5,1.22,0,2.16.17,2.81.5l-.12.96c-.67-.37-1.57-.55-2.69-.55-1.33,0-2.38.43-3.13,1.29-.74.82-1.11,1.89-1.11,3.22s.36,2.44,1.09,3.24c.75.85,1.8,1.28,3.15,1.28,1.07,0,1.81-.12,2.22-.38Z"/>
      <path class="cls-19" d="M400.93,146.76l.09-.93c.64.32,1.3.48,1.99.48.47,0,.87-.12,1.2-.37.33-.25.5-.58.5-1,0-.5-.32-.93-.96-1.29-.58-.3-1.17-.6-1.76-.9-.64-.42-.96-.94-.96-1.56,0-.71.26-1.25.78-1.61.44-.32,1.01-.48,1.71-.48.65,0,1.28.12,1.89.35l-.09.82c-.53-.24-1.09-.36-1.7-.36-1.1,0-1.65.43-1.65,1.28,0,.38.32.73.97,1.05,1.11.55,1.72.86,1.82.93.65.46.97,1.05.97,1.77s-.3,1.3-.9,1.7c-.49.32-1.08.48-1.77.48-.83,0-1.54-.12-2.15-.36Z"/>
      <path class="cls-19" d="M281.26,165.94l4.29-10.47h1.17l4.16,10.47h-1.08l-1.12-2.8h-5.28l-1.12,2.8h-1ZM288.32,162.23l-2.26-5.78-2.28,5.78h4.54Z"/>
      <path class="cls-19" d="M297.68,158.42l-.07.88c-.59-.26-1.14-.39-1.64-.39-.9,0-1.6.29-2.11.88s-.77,1.36-.77,2.31c0,.9.25,1.65.74,2.25.52.63,1.2.95,2.04.95.53,0,1.1-.12,1.72-.35l.09.88c-.52.18-1.18.27-1.97.27-1.17,0-2.08-.4-2.74-1.2-.61-.73-.92-1.66-.92-2.8s.35-2.14,1.04-2.89c.7-.74,1.61-1.12,2.74-1.12.63,0,1.24.11,1.84.32Z"/>
      <path class="cls-19" d="M302.96,158.29v.81h-1.74v4.95c0,.84.34,1.26,1.02,1.26.27,0,.56-.06.87-.18l.06.78c-.35.14-.74.21-1.16.21-.76,0-1.26-.25-1.5-.75-.16-.33-.24-.93-.24-1.8v-4.47h-1.5v-.81h1.5v-1.84l.95-.33v2.17h1.74Z"/>
      <path class="cls-19" d="M305.98,154.99v1.26h-.94v-1.26h.94ZM305.03,165.94v-7.65h.94v7.65h-.94Z"/>
      <path class="cls-19" d="M308.15,162.11c0-1.13.28-2.06.85-2.79.64-.81,1.54-1.21,2.71-1.21s2.07.41,2.72,1.21c.57.73.85,1.66.85,2.79s-.28,2.06-.85,2.79c-.64.81-1.54,1.21-2.72,1.21s-2.08-.4-2.71-1.21c-.57-.73-.85-1.66-.85-2.79ZM309.19,162.11c0,.92.21,1.67.65,2.27.46.62,1.09.93,1.89.93s1.43-.31,1.89-.93c.43-.59.65-1.35.65-2.27s-.22-1.68-.65-2.27c-.46-.62-1.09-.93-1.89-.93s-1.42.3-1.87.91c-.45.6-.67,1.37-.67,2.29Z"/>
      <path class="cls-19" d="M317.47,165.94v-5.85c0-.79-.02-1.39-.06-1.8h.92v1.37h.03c.47-1.03,1.29-1.54,2.48-1.54,1.74,0,2.61.98,2.61,2.94v4.89h-.94v-4.65c0-1.58-.61-2.37-1.82-2.37-.79,0-1.39.3-1.78.91-.32.5-.48,1.12-.48,1.88v4.23h-.95Z"/>
      <path class="cls-19" d="M330.82,165.94v-10.47h1.6l3.82,9.21,3.84-9.21h1.48v10.47h-1.03v-9.43l-3.84,9.43h-.89l-3.96-9.43v9.43h-1.03Z"/>
      <path class="cls-19" d="M343.84,162.11c0-1.13.28-2.06.85-2.79.64-.81,1.54-1.21,2.71-1.21s2.07.41,2.72,1.21c.57.73.85,1.66.85,2.79s-.28,2.06-.85,2.79c-.64.81-1.54,1.21-2.72,1.21s-2.08-.4-2.71-1.21c-.57-.73-.85-1.66-.85-2.79ZM344.87,162.11c0,.92.21,1.67.65,2.27.46.62,1.09.93,1.89.93s1.43-.31,1.89-.93c.43-.59.65-1.35.65-2.27s-.22-1.68-.65-2.27c-.46-.62-1.09-.93-1.89-.93s-1.42.3-1.87.91c-.45.6-.67,1.37-.67,2.29Z"/>
      <path class="cls-19" d="M353.15,165.94v-5.85c0-.79-.02-1.39-.06-1.8h.92v1.37h.03c.47-1.03,1.29-1.54,2.48-1.54,1.74,0,2.61.98,2.61,2.94v4.89h-.94v-4.65c0-1.58-.61-2.37-1.82-2.37-.79,0-1.39.3-1.78.91-.32.5-.48,1.12-.48,1.88v4.23h-.95Z"/>
      <path class="cls-19" d="M365.15,158.29v.81h-1.74v4.95c0,.84.34,1.26,1.02,1.26.27,0,.56-.06.87-.18l.06.78c-.35.14-.74.21-1.16.21-.76,0-1.26-.25-1.5-.75-.16-.33-.24-.93-.24-1.8v-4.47h-1.5v-.81h1.5v-1.84l.95-.33v2.17h1.74Z"/>
      <path class="cls-19" d="M367.22,165.94v-11.25h.94v4.89c.47-.98,1.27-1.47,2.4-1.47.97,0,1.66.31,2.08.92.36.52.54,1.3.54,2.34v4.57h-.95v-4.56c0-.78-.1-1.36-.31-1.73-.29-.49-.79-.73-1.5-.73-.77,0-1.36.32-1.76.96-.34.53-.51,1.18-.51,1.96v4.09h-.94Z"/>
      <path class="cls-19" d="M379.93,163.52c.34.16.78.25,1.26.25.82,0,1.42-.58,1.42-2.29v-6.01h2.79v6.85c0,2.25-.92,3.79-3.75,3.79-.61,0-1.24-.16-1.72-.29v-2.31Z"/>
      <path class="cls-19" d="M395.92,165.94h-2.46v-1.44h-.03c-.54,1.12-1.62,1.62-2.85,1.62-2.13,0-2.99-1.5-2.99-3.12v-4.88h2.7v3.78c0,1.47.51,1.96,1.25,1.96,1.11,0,1.68-.76,1.68-2.44v-3.3h2.7v7.81Z"/>
      <path class="cls-19" d="M397.97,158.12h2.46v1.44h.03c.54-1.12,1.62-1.62,2.85-1.62,2.13,0,2.98,1.5,2.98,3.12v4.88h-2.7v-3.78c0-1.47-.51-1.96-1.25-1.96-1.11,0-1.68.77-1.68,2.45v3.3h-2.7v-7.81Z"/>
      <path class="cls-19" d="M410.71,162.82c.15,1.08.98,1.5,2.29,1.5.74,0,1.57-.17,2.39-.6v1.9c-.87.35-1.86.49-2.86.49-2.58,0-4.54-1.51-4.54-4.09s1.75-4.08,4.18-4.08c2.89,0,3.94,2.05,3.94,4.38v.5h-5.4ZM413.68,161.29c0-.9-.42-1.64-1.5-1.64-.97,0-1.44.74-1.5,1.64h3Z"/>
      <path class="cls-19" d="M422.65,163.94c2.13-1.85,4.59-3.86,4.59-5.27,0-.93-.65-1.32-1.48-1.32-.9,0-2.1.35-2.74.72l-.1-2.17c1.5-.54,2.49-.62,3.1-.62,2.34,0,4.02.99,4.02,3.07s-2.21,4.1-3.2,4.95l-.75.65h4.14v1.98h-7.57v-1.99Z"/>
      <path class="cls-19" d="M432.1,160.7c0-2.71.6-5.41,4.06-5.41s4.06,2.7,4.06,5.41-.6,5.41-4.06,5.41-4.06-2.7-4.06-5.41ZM437.53,160.7c0-1.66-.1-3.53-1.36-3.53s-1.36,1.86-1.36,3.53.1,3.53,1.36,3.53,1.36-1.86,1.36-3.53Z"/>
      <path class="cls-19" d="M441.76,163.94c2.13-1.85,4.59-3.86,4.59-5.27,0-.93-.65-1.32-1.48-1.32-.9,0-2.1.35-2.74.72l-.1-2.17c1.5-.54,2.49-.62,3.1-.62,2.34,0,4.02.99,4.02,3.07s-2.21,4.1-3.2,4.95l-.75.65h4.14v1.98h-7.57v-1.99Z"/>
      <path class="cls-19" d="M458.46,157.82c-.45-.3-1.19-.56-2.2-.56-1.86,0-2.43,1.23-2.45,3.08h.03c.5-.71,1.22-1.07,2.26-1.07,1.92,0,3.14,1.43,3.14,3.3s-1.62,3.54-3.93,3.54c-2.98,0-4.02-2.34-4.02-4.96,0-3.21,1.16-5.86,4.62-5.86,1.06,0,1.92.16,2.71.48l-.17,2.06ZM455.3,164.32c.87,0,1.33-.68,1.33-1.48,0-.87-.36-1.67-1.33-1.67-.92,0-1.36.73-1.36,1.54,0,.86.46,1.61,1.36,1.61Z"/>
    </g>
    <g>
      <path class="cls-7" d="M281.06,31.47h6.35c6.1,0,8.96,2.06,8.96,6.55,0,4.03-2.95,6.44-7.93,6.44h-2.06v6.98h-5.32v-19.98ZM286.38,40.68h1.37c1.83,0,3.29-.66,3.29-2.75s-1.46-2.69-3.29-2.69h-1.37v5.44Z"/>
      <path class="cls-7" d="M300.41,31.47h14.08v3.78h-8.76v4.12h8.27v3.78h-8.27v4.52h9.07v3.78h-14.39v-19.98Z"/>
      <path class="cls-7" d="M329.03,31.12c6.58,0,10.02,3.92,10.02,10.33s-3.49,10.33-10.02,10.33-10.02-3.98-10.02-10.33,3.43-10.33,10.02-10.33ZM329.03,47.84c3.23,0,4.52-3.09,4.52-6.38,0-3.46-1.29-6.38-4.52-6.38s-4.52,2.92-4.52,6.38,1.29,6.38,4.52,6.38Z"/>
      <path class="cls-7" d="M343.45,31.47h6.35c6.1,0,8.96,2.06,8.96,6.55,0,4.03-2.95,6.44-7.93,6.44h-2.06v6.98h-5.32v-19.98ZM348.77,40.68h1.37c1.83,0,3.29-.66,3.29-2.75s-1.46-2.69-3.29-2.69h-1.37v5.44Z"/>
      <path class="cls-7" d="M362.94,31.47h5.32v16.03h8.24v3.95h-13.56v-19.98Z"/>
      <path class="cls-7" d="M380.43,31.47h14.08v3.78h-8.76v4.12h8.27v3.78h-8.27v4.52h9.07v3.78h-14.39v-19.98Z"/>
    </g>
    <g>
      <rect class="cls-7" x="224.97" y="25" width="32.91" height="32.91"/>
      <path class="cls-4" d="M240.67,30.08c3.25-.5,6,2.26,5.51,5.51-.31,2.02-1.96,3.68-3.99,3.99-3.25.5-6-2.26-5.5-5.5.31-2.02,1.96-3.68,3.99-3.99ZM250.04,52.88h-17.23c-1.51-5.93,2.93-11.25,8.61-11.25s10.12,5.32,8.61,11.25Z"/>
    </g>
    <g>
      <path class="cls-18" d="M281.06,64.37h6.35c6.1,0,8.96,2.06,8.96,6.55,0,4.03-2.95,6.44-7.93,6.44h-2.06v6.98h-5.32v-19.98ZM286.38,73.59h1.37c1.83,0,3.29-.66,3.29-2.75s-1.46-2.69-3.29-2.69h-1.37v5.44Z"/>
      <path class="cls-18" d="M300.55,64.37h5.32v16.03h8.24v3.95h-13.56v-19.98Z"/>
      <path class="cls-18" d="M324.13,64.37h6.52l7.7,19.98h-5.84l-1.49-4.26h-7.5l-1.57,4.26h-5.41l7.58-19.98ZM327.4,68.49h-.06l-2.58,7.81h5.01l-2.38-7.81Z"/>
      <path class="cls-18" d="M342.25,64.37h6.78l6.75,13.56h.06l-.09-13.56h4.86v19.98h-6.61l-6.98-13.65h-.06l.17,13.65h-4.89v-19.98Z"/>
      <path class="cls-18" d="M366,64.37h14.08v3.78h-8.76v4.12h8.27v3.78h-8.27v4.52h9.07v3.78h-14.39v-19.98Z"/>
      <path class="cls-18" d="M388.78,68.32h-4.92v-3.95h15.17v3.95h-4.92v16.03h-5.32v-16.03Z"/>
    </g>
    <g>
      <rect class="cls-18" x="224.97" y="57.91" width="32.91" height="32.91"/>
      <path class="cls-4" d="M241.43,65.84c1.19,0,2.88,2.84,3.13,7.37h-6.26c.25-4.54,1.94-7.37,3.13-7.37ZM238.49,65.15c-1.39,1.69-2.32,4.58-2.49,8.07h-4.17c.45-3.81,3.11-6.93,6.66-8.07ZM231.83,75.51h4.17c.17,3.48,1.1,6.38,2.49,8.07-3.55-1.13-6.21-4.26-6.66-8.07ZM241.43,82.88c-1.19,0-2.88-2.84-3.13-7.37h6.26c-.25,4.54-1.94,7.37-3.13,7.37ZM244.36,83.57c1.39-1.69,2.32-4.58,2.49-8.07h4.17c-.45,3.81-3.11,6.93-6.66,8.07ZM246.85,73.21c-.17-3.48-1.1-6.38-2.49-8.07,3.55,1.13,6.21,4.26,6.66,8.07h-4.17Z"/>
    </g>
    <g>
      <path class="cls-2" d="M281.06,97.28h6.35c6.1,0,8.96,2.06,8.96,6.55,0,4.03-2.95,6.44-7.93,6.44h-2.06v6.98h-5.32v-19.98ZM286.38,106.49h1.37c1.83,0,3.29-.66,3.29-2.75s-1.46-2.69-3.29-2.69h-1.37v5.44Z"/>
      <path class="cls-2" d="M300.41,97.28h9.5c3.55,0,6.44,1.6,6.44,5.04,0,2.66-1.26,4.44-3.83,5.04v.06c1.72.46,1.83,1.97,2.83,4.41l1.95,5.44h-5.55l-1.14-3.61c-1.09-3.43-1.77-4.29-3.75-4.29h-1.12v7.9h-5.32v-19.98ZM305.73,105.58h1.4c1.72,0,3.89-.06,3.89-2.32,0-1.86-1.86-2.2-3.89-2.2h-1.4v4.52Z"/>
      <path class="cls-2" d="M330.63,96.94c6.58,0,10.02,3.92,10.02,10.33s-3.49,10.33-10.02,10.33-10.02-3.98-10.02-10.33,3.43-10.33,10.02-10.33ZM330.63,113.65c3.23,0,4.52-3.09,4.52-6.38,0-3.46-1.29-6.38-4.52-6.38s-4.52,2.92-4.52,6.38,1.29,6.38,4.52,6.38Z"/>
      <path class="cls-2" d="M345.4,112.33c1.37.74,3.29,1.32,5.49,1.32,1.69,0,3.29-.34,3.29-1.95,0-3.72-9.44-1.37-9.44-8.64,0-4.81,4.69-6.12,8.7-6.12,1.92,0,3.81.29,5.15.74l-.34,4.12c-1.37-.63-2.92-.92-4.44-.92-1.34,0-3.58.11-3.58,1.86,0,3.23,9.44,1.06,9.44,8.27,0,5.18-4.35,6.58-8.79,6.58-1.86,0-4.18-.29-5.95-.86l.46-4.41Z"/>
      <path class="cls-2" d="M364.26,97.28h6.35c6.1,0,8.96,2.06,8.96,6.55,0,4.03-2.95,6.44-7.93,6.44h-2.06v6.98h-5.32v-19.98ZM369.58,106.49h1.37c1.83,0,3.29-.66,3.29-2.75s-1.46-2.69-3.29-2.69h-1.37v5.44Z"/>
      <path class="cls-2" d="M383.6,97.28h14.08v3.78h-8.76v4.12h8.27v3.78h-8.27v4.52h9.07v3.78h-14.39v-19.98Z"/>
      <path class="cls-2" d="M402.81,97.28h9.5c3.55,0,6.44,1.6,6.44,5.04,0,2.66-1.26,4.44-3.83,5.04v.06c1.72.46,1.83,1.97,2.83,4.41l1.95,5.44h-5.55l-1.14-3.61c-1.09-3.43-1.77-4.29-3.75-4.29h-1.12v7.9h-5.32v-19.98ZM408.13,105.58h1.4c1.72,0,3.89-.06,3.89-2.32,0-1.86-1.86-2.2-3.89-2.2h-1.4v4.52Z"/>
      <path class="cls-2" d="M424.01,97.28h5.32v19.98h-5.32v-19.98Z"/>
      <path class="cls-2" d="M438.46,101.23h-4.92v-3.95h15.17v3.95h-4.92v16.03h-5.32v-16.03Z"/>
      <path class="cls-2" d="M458.5,109.73l-7.38-12.45h6.12l3.92,8.01,3.86-8.01h6.12l-7.33,12.45v7.53h-5.32v-7.53Z"/>
    </g>
    <g>
      <rect class="cls-2" x="224.97" y="90.81" width="32.91" height="32.91"/>
      <path class="cls-3" d="M249.18,101.92c.27-.26.36-.03.36.1v15.39h-4.65v-11.05c0-.31.08-.43.23-.58l4.06-3.86h0ZM237.49,106.95c.26-.26.36-.03.36.1v10.36h-4.65v-6.02c0-.31.08-.43.23-.58l4.06-3.86ZM251.02,97.24v.03s-.68,3.17-.68,3.17h0s-.01.06-.03.09c-.05.05-.12.05-.17,0l-.75-.74-7.99,7.99s-.1.04-.13,0l-.88-.88s0,0,0-.01l-2.36-2.36-5.15,5.15s-.1.04-.13,0l-.88-.88s-.04-.1,0-.13l5.21-5.21s0,0,0,0l.88-.88s.1-.04.13,0l3.25,3.25,7.04-7.04-.71-.71-.04-.04s-.05-.12,0-.17c.02-.02.04-.03.06-.03h.06s3.11-.71,3.11-.71h.03s.02,0,.02,0c.03,0,.05.01.07.03.02.02.04.06.03.09ZM243.36,107.63c.29-.29.39-.05.39.07v9.71h-4.65v-9.56c0-.13.07-.39.4-.07l1.84,1.88,2.02-2.04Z"/>
    </g>
  </g>
</svg>