<svg width="45" height="53" viewBox="0 0 45 53" fill="none" xmlns="http://www.w3.org/2000/svg">
<path d="M31.2995 1.55947C34.4782 2.91509 37.1714 5.20233 39.024 8.11955C40.8765 11.0368 41.8013 14.447 41.6765 17.9004" stroke="#CF142B" stroke-width="2" stroke-miterlimit="10"/>
<path d="M29.907 6.32495C32.0678 7.37527 33.8926 9.0079 35.176 11.0391C36.4593 13.0702 37.1503 15.4193 37.171 17.8218" stroke="#CF142B" stroke-width="2" stroke-miterlimit="10"/>
<path d="M28.1754 10.545C29.4793 11.2781 30.5786 12.3263 31.3728 13.5938C32.1671 14.8613 32.6309 16.3077 32.722 17.8007" stroke="#CF142B" stroke-width="2" stroke-miterlimit="10"/>
<path fill-rule="evenodd" clip-rule="evenodd" d="M15.376 10.0151C11.5768 10.0819 7.94408 11.5863 5.20999 14.2251C2.51438 16.9212 1.00004 20.5776 1 24.3901C1 38.0751 15.377 48.4261 15.377 48.4261C15.377 48.4261 29.754 38.8091 29.754 24.4131C29.758 21.8868 29.0963 19.404 27.8354 17.2149C26.5746 15.0257 24.7592 13.2074 22.572 11.9431C20.4343 10.5629 17.9174 9.88859 15.376 10.0151Z" stroke="#CF142B" stroke-width="2" stroke-miterlimit="8"/>
<path fill-rule="evenodd" clip-rule="evenodd" d="M19.886 20.1362C19.886 21.0064 19.628 21.8571 19.1445 22.5806C18.661 23.3042 17.9738 23.8682 17.1698 24.2012C16.3658 24.5343 15.4811 24.6214 14.6276 24.4516C13.7741 24.2818 12.9901 23.8628 12.3747 23.2474C11.7594 22.6321 11.3403 21.8481 11.1705 20.9946C11.0008 20.1411 11.0879 19.2563 11.4209 18.4523C11.754 17.6483 12.3179 16.9611 13.0415 16.4777C13.7651 15.9942 14.6158 15.7361 15.486 15.7361C16.653 15.7361 17.7721 16.1997 18.5973 17.0249C19.4224 17.8501 19.886 18.9692 19.886 20.1362Z" stroke="#CF142B" stroke-width="2" stroke-miterlimit="8"/>
<path d="M8.08103 33.3361C8.04862 32.3577 8.21336 31.3827 8.56543 30.4692C8.9175 29.5557 9.44971 28.7224 10.1304 28.0188C10.8111 27.3152 11.6264 26.7557 12.5277 26.3735C13.429 25.9914 14.398 25.7945 15.377 25.7945C16.356 25.7945 17.325 25.9914 18.2264 26.3735C19.1277 26.7557 19.9429 27.3152 20.6236 28.0188C21.3043 28.7224 21.8366 29.5557 22.1886 30.4692C22.5407 31.3827 22.7054 32.3577 22.673 33.3361" stroke="#CF142B" stroke-width="2" stroke-miterlimit="8"/>
<path d="M36.6729 33.6583L37.8507 37.6828C38.0455 38.3396 38.2327 38.9995 38.429 39.657C38.746 40.7282 38.8722 41.8468 38.8019 42.9618C38.7116 43.8809 38.4333 44.7716 37.9845 45.5787C37.5356 46.3857 36.9256 47.092 36.1924 47.6535C35.4593 48.215 34.6185 48.6198 33.7223 48.8429C32.8262 49.0659 31.8937 49.1025 30.9829 48.9501C29.7723 48.7695 28.6287 48.2794 27.6629 47.5274L23.4496 44.5018L20.7436 42.5574C20.3491 42.3085 20.0523 41.9315 19.9031 41.4896C19.7539 41.0477 19.7612 40.5679 19.924 40.1308C20.0868 39.6937 20.395 39.326 20.7969 39.0893C21.1988 38.8527 21.6699 38.7616 22.1311 38.8313C22.4502 38.8834 22.7535 39.0069 23.0182 39.1925L24.7105 40.4087L21.269 32.1C21.1284 31.7568 21.0822 31.3821 21.1352 31.015C21.2014 30.5757 21.4099 30.1702 21.7287 29.8607C22.0475 29.5512 22.4589 29.3547 22.9 29.3014C23.3411 29.2481 23.7875 29.341 24.1708 29.5657C24.5541 29.7904 24.8532 30.1345 25.0221 30.5455L26.5767 34.2986C26.743 34.045 26.9636 33.8316 27.2227 33.6739C27.4817 33.5162 27.7726 33.4181 28.0743 33.3868C28.3759 33.3556 28.6807 33.3919 28.9666 33.4931C29.2525 33.5942 29.5123 33.7578 29.7271 33.9719C29.9213 33.5935 30.2293 33.2854 30.6076 33.091C30.9859 32.8966 31.4156 32.8255 31.8364 32.8878C32.25 32.9479 32.6338 33.1377 32.9327 33.4298C33.1253 33.0446 33.4344 32.7299 33.816 32.5305C34.1977 32.331 34.6325 32.2568 35.0586 32.3185C35.1406 32.3304 35.2216 32.3481 35.3011 32.3715C35.6147 32.4633 35.9022 32.6277 36.1405 32.8512C36.3789 33.0748 36.5612 33.3512 36.6729 33.6583Z" fill="white" stroke="#CF142B" stroke-width="2" stroke-miterlimit="10"/>
</svg>
