<svg id="Icon-2" xmlns="http://www.w3.org/2000/svg" xmlns:xlink="http://www.w3.org/1999/xlink" width="60.234" height="60.234" viewBox="0 0 60.234 60.234">
  <defs>
    <clipPath id="clip-path">
      <rect id="Rectangle_698" data-name="Rectangle 698" width="40.172" height="39.212" transform="translate(264.375 1419.661)"></rect>
    </clipPath>
  </defs>
  <path id="Path_1004" data-name="Path 1004" d="M114.752,230.329H110.2a.9.9,0,0,1-.895-.9v-49.4a1.8,1.8,0,0,0-1.791-1.8h-50.3a1.8,1.8,0,0,0-1.8,1.8v50.294a1.8,1.8,0,0,0,1.8,1.8H106.61a.9.9,0,0,1,.9.9v4.551a.889.889,0,0,0,.891.893h6.348a.9.9,0,0,0,.9-.893v-6.349a.9.9,0,0,0-.9-.9" transform="translate(-55.418 -178.236)" fill="#cf142b"></path>
  <g id="Icon_6" transform="translate(-257.733 -1412.436)" clip-path="url('#clip-path')">
    <path id="Path_1504" data-name="Path 1504" d="M325.721,1470h4.525v1.984a.425.425,0,0,0,.3.411,8.762,8.762,0,0,1,1.7.7h.408l.039-.027c.016-.011.022-.023.026-.025s.023-.01.026-.015a.143.143,0,0,1,.013-.013c.015-.013.029-.042.053-.065.048-.048.117-.1.2-.185.16-.16.379-.383.591-.594.279-.28.394-.4.552-.556l3.183,3.214c-.16.16-.266.269-.54.542-.212.211-.432.421-.591.583-.08.08-.137.15-.184.2-.023.023-.052.038-.065.053s-.005.018-.014.025l-.013.013a.19.19,0,0,0-.026.026.473.473,0,0,0-.026.053l-.026.356a.261.261,0,0,0,.026.04,9.051,9.051,0,0,1,.7,1.706.422.422,0,0,0,.408.3h1.986v4.521H336.98a.421.421,0,0,0-.408.291,9.087,9.087,0,0,1-.7,1.706v.409l.026.04a.121.121,0,0,0,.026.025c.008.01.009.023.013.027l.014.013c.014.015.042.029.065.053.048.048.1.12.184.2.159.16.379.371.591.583.272.271.379.383.54.542l-3.183,3.212c-.158-.158-.275-.274-.552-.554-.212-.211-.432-.423-.591-.582-.08-.078-.137-.151-.183-.2-.023-.023-.052-.04-.065-.053s-.007-.02-.014-.025-.008,0-.014,0a.044.044,0,0,0-.014-.015l-.026-.025-.25-.08a.408.408,0,0,0-.2.053,8.906,8.906,0,0,1-1.7.7.425.425,0,0,0-.3.411v1.984h-4.525v-1.984a.425.425,0,0,0-.3-.411,8.761,8.761,0,0,1-1.7-.7.421.421,0,0,0-.5.08l-1.395,1.4-3.2-3.2,1.395-1.4a.423.423,0,0,0,.065-.5,9.1,9.1,0,0,1-.7-1.706.421.421,0,0,0-.408-.291H317v-4.521h1.986a.422.422,0,0,0,.408-.3,9.061,9.061,0,0,1,.7-1.706.427.427,0,0,0-.065-.5l-1.395-1.4,3.183-3.2,1.407,1.413a.417.417,0,0,0,.5.067,8.9,8.9,0,0,1,1.7-.7.425.425,0,0,0,.3-.411Z" transform="translate(-43.188 -41.716)" fill="none" stroke="#fff" stroke-miterlimit="8" stroke-width="1.8" fill-rule="evenodd"></path>
    <path id="Path_1505" data-name="Path 1505" d="M360.493,1509a4.493,4.493,0,1,0,4.493,4.5A4.506,4.506,0,0,0,360.493,1509Z" transform="translate(-75.698 -74.226)" fill="none" stroke="#fff" stroke-miterlimit="8" stroke-width="1.8" fill-rule="evenodd"></path>
    <path id="Path_1506" data-name="Path 1506" d="M411,1436a17.214,17.214,0,0,1,12.647,16.559,17.036,17.036,0,0,1-2.3,8.569" transform="translate(-121.545 -13.374)" fill="none" stroke="#fff" stroke-miterlimit="8" stroke-width="1.5" fill-rule="evenodd"></path>
    <path id="Path_1507" data-name="Path 1507" d="M409.221,1432l.344-.195-1-1.623,1.767-.835-.178-.343L408,1430.018Z" transform="translate(-119.044 -7.539)" fill="none" stroke="#fff" stroke-miterlimit="8" stroke-width="0.8" fill-rule="evenodd"></path>
    <path id="Path_1508" data-name="Path 1508" d="M279.817,1453.632a17.468,17.468,0,0,1,6.918-19.8,16.979,16.979,0,0,1,8.407-2.831" transform="translate(-11.511 -9.206)" fill="none" stroke="#fff" stroke-miterlimit="8" stroke-width="1.5" fill-rule="evenodd"></path>
    <path id="Path_1509" data-name="Path 1509" d="M276,1555.176l-.344-.176-.83,1.769-1.629-.993-.193.346,1.985,1.208Z" transform="translate(-6.51 -112.571)" fill="none" stroke="#fff" stroke-miterlimit="8" stroke-width="0.8" fill-rule="evenodd"></path>
    <path id="Path_1510" data-name="Path 1510" d="M320.958,1593.977a17.244,17.244,0,0,1-20.535,3.09A17.044,17.044,0,0,1,294,1591" transform="translate(-24.015 -142.58)" fill="none" stroke="#fff" stroke-miterlimit="8" stroke-width="1.5" fill-rule="evenodd"></path>
    <path id="Path_1511" data-name="Path 1511" d="M444,1607.08l.014.388,1.912-.065-.074,1.914.389.013.089-2.33Z" transform="translate(-149.054 -155.918)" fill="none" stroke="#fff" stroke-miterlimit="8" stroke-width="0.8" fill-rule="evenodd"></path>
  </g>
</svg>
