<svg xmlns="http://www.w3.org/2000/svg" width="60.234" height="60.234" viewBox="0 0 60.234 60.234">
  <g id="Icon_1" transform="translate(-851.266 -2563.766)">
    <path id="Path_1004" data-name="Path 1004" d="M114.752,230.329H110.2a.9.9,0,0,1-.895-.9v-49.4a1.8,1.8,0,0,0-1.791-1.8h-50.3a1.8,1.8,0,0,0-1.8,1.8v50.294a1.8,1.8,0,0,0,1.8,1.8H106.61a.9.9,0,0,1,.9.9v4.551a.889.889,0,0,0,.891.893h6.348a.9.9,0,0,0,.9-.893v-6.349a.9.9,0,0,0-.9-.9" transform="translate(795.848 2385.53)" fill="#cf142b"></path>
    <g id="Group_2139" data-name="Group 2139" transform="translate(889.153 2575.162)">
      <g id="Group_2138" data-name="Group 2138" transform="translate(-28 -4)">
        <path id="Path_1544" data-name="Path 1544" d="M20.421,133.568H9V106.13h5.641v1.445a1.093,1.093,0,0,0,1.093,1.093H26.491a1.093,1.093,0,0,0,1.093-1.093V106.13H33.39v9.411" transform="translate(-8.494 -100.168)" fill="none" stroke="#fff" stroke-miterlimit="10" stroke-width="2"></path>
        <path id="Path_1545" data-name="Path 1545" d="M122.353,12.045V15.9a1.093,1.093,0,0,1-1.093,1.093H110.5A1.093,1.093,0,0,1,109.41,15.9V12.045h2.9a1.093,1.093,0,0,0,1.093-1.093v-.86A1.093,1.093,0,0,1,114.5,9h2.764a1.093,1.093,0,0,1,1.093,1.093v.86a1.093,1.093,0,0,0,1.093,1.093Z" transform="translate(-103.264 -8.494)" fill="none" stroke="#fff" stroke-miterlimit="10" stroke-width="2"></path>
        <path id="Path_1546" data-name="Path 1546" d="M258.728,328.414a10.564,10.564,0,1,1-10.564-10.564q.5,0,.983.045A10.565,10.565,0,0,1,258.728,328.414Z" transform="translate(-224.252 -299.994)" fill="none" stroke="#fff" stroke-miterlimit="10" stroke-width="2"></path>
        <line id="Line_198" data-name="Line 198" x2="16.968" transform="translate(3.894 12.814)" fill="none" stroke="#fff" stroke-miterlimit="10" stroke-width="2"></line>
        <line id="Line_199" data-name="Line 199" x2="11.167" transform="translate(3.894 17.618)" fill="none" stroke="#fff" stroke-miterlimit="10" stroke-width="2"></line>
        <line id="Line_200" data-name="Line 200" x2="7.266" transform="translate(3.894 22.421)" fill="none" stroke="#fff" stroke-miterlimit="10" stroke-width="2"></line>
        <path id="Path_1547" data-name="Path 1547" d="M320.326,436.408l4.375,4.276,7.458-8.254" transform="translate(-302.331 -408.138)" fill="none" stroke="#fff" stroke-linecap="square" stroke-miterlimit="10" stroke-width="2"></path>
      </g>
    </g>
  </g>
</svg>
