<svg id="Artwork" xmlns="http://www.w3.org/2000/svg" viewBox="0 0 825.7 304.19">
  <defs>
    <style>
      .cls-1{fill:#e03a3e;}.cls-2{fill:#6d6e71;}
    </style>
  </defs>
  <title>
    Artboard 1
  </title>
  <path class="cls-1" d="M315 83.94c0 27.18 20.13 47.25 53.78 47.25 14.21 0 27.57-2.22 41.41-8.68l12.62 17.16c-17.44 9.2-34.19 14-59.92 14-53.68 0-93.14-25.86-93.14-69.75s39.46-69.73 93.14-69.73c25.73 0 40.54 3.75 58.65 11.52l-12.86 19.77C395 38.2 383 36.7 368.82 36.7c-33.65 0-53.78 20-53.78 47.23m204.82-69.76c-52 0-89.45 25.88-89.45 69.77s37.48 69.77 89.45 69.77 89.48-25.86 89.48-69.77-37.49-69.77-89.48-69.77m0 117.84c-28.58 0-44.36-21.48-44.36-48.08s15.78-48.08 44.36-48.08 44.39 21.49 44.39 48.08S548.45 132 519.86 132m224.57-38v56.14h43V17.67h-43v50.55h-65.65V17.67h-42.85v132.51h42.85V94h65.65zM198.67 17.67h45.23v132.5h-45.23zM68.95 78.33V91a337.92 337.92 0 0 1 58.83 59.18h50.63c-17.61-20.69-44.64-45.28-64.55-57.66 23.37-1 49.4-10.42 49.4-37.24 0-34.39-36.78-40.71-73.95-40.71C59 14.56 31 16 14.17 17.34v132.84h42.25V37.34a264.9 264.9 0 0 1 33.09-1.78c21.75 0 32.76 7.19 32.76 19.71 0 10.71-4.56 23.53-53.32 23.06"/>
  <path class="cls-2" d="M17.59 189.93h10.8v10.49h-10.8zm0 21.6h10.8v54h-10.8zm91.67 54v-34.66c0-6.59-2.05-12-9.62-12-8.86 0-12 8.91-12 17.23v29.44H76.86v-34.67c0-6.58-2.05-12-9.61-12-8.87 0-12.1 8.91-12.1 17.23v29.44h-10.8V224a122 122 0 0 0-.54-12.42h10.14l.32 9.29c3.56-6.9 9.18-10.36 16.51-10.36 8.54 0 14.15 5.08 15.78 11 2.59-6.7 9.61-11 16.53-11 11.76 0 17.05 8 17.05 19.12v36zm487.61 0l-.33-8.54c-7.73 14.43-34.89 12.91-34.89-5.72 0-14 13.44-19.8 34.56-18.8 0-.07 1.16-10.15-5.8-13.27-4.54-2-14.22-1.72-22.4 3.11l-.65-8.31c12.55-5.18 39.43-8.44 39.43 16.58v22.95a99.79 99.79 0 0 0 .64 12zm-10.58-6.82c7.93-1.88 10.27-9.88 9.93-19.65 0 0-24.53-2-23.87 11.62.39 8 8.07 9.44 13.94 8m-420.09 6.87l-.33-8.54c-7.73 14.43-34.89 12.91-34.89-5.72 0-14 13.43-19.8 34.56-18.8 0-.07 1.16-10.15-5.8-13.27-4.54-2-14.22-1.72-22.4 3.11l-.65-8.31c12.55-5.18 39.43-8.44 39.43 16.58v22.95a99.41 99.41 0 0 0 .64 12zm-10.58-6.82c7.92-1.88 10.26-9.88 9.92-19.65 0 0-24.53-2-23.87 11.62.38 8 8.06 9.44 13.94 8M683 287.14l.65-9.18a34.33 34.33 0 0 0 16.08 3.89c18.68-.29 17.6-15.8 17.6-25.71 0 0-5.4 9.35-16.74 9.4-15.78 0-21.93-13.73-21.93-27.22 0-14.37 6.16-27.87 22.15-27.87 7.45 0 13.5 3.24 17 10v-9h10.37v51c0 30.08-26.75 30.32-45.15 24.62m21-68.37c-11.12 0-13.6 10.58-13.6 19.66 0 8.42 2.59 18.8 13.5 18.8 10.47 0 13.83-10.6 13.83-18.8 0-8.64-3.25-19.66-13.72-19.66m-512 68.37l.65-9.18a34.37 34.37 0 0 0 16.09 3.89c18.69-.29 17.61-15.8 17.61-25.71 0 0-5.4 9.35-16.74 9.4-15.77 0-21.93-13.73-21.93-27.22 0-14.37 6.16-27.87 22.15-27.87 7.45 0 13.5 3.24 17 10v-9h10.36v51c0 30.08-26.74 30.32-45.14 24.62m21-68.37c-11.13 0-13.62 10.58-13.62 19.66 0 8.42 2.59 18.8 13.51 18.8 10.48 0 13.82-10.6 13.82-18.8 0-8.64-3.24-19.66-13.71-19.66m39.91-28.7h10.8v10.49H253zm0 21.6h10.8v54H253zm497.79 29.82c.63 18.87 17.43 21.25 32.4 14l.65 8.43c-21.7 7-44.18 2.89-44.18-25.49 0-14.8 9.4-27.87 24.41-27.87 25.46 0 22.58 30.89 22.58 30.89zm13.4-23.44c-9.19 0-13.51 9.83-13.51 16.75h25.6c0-7.68-2.92-16.75-12.1-16.75m-415.83 23.43c.63 18.87 17.43 21.25 32.42 14l.65 8.43c-21.7 7-44.18 2.89-44.18-25.49 0-14.8 9.41-27.87 24.41-27.87 25.46 0 22.58 30.89 22.58 30.89zm13.39-23.44c-9.18 0-13.49 9.83-13.49 16.75h25.6c0-7.68-2.91-16.75-12.1-16.75m35.77 36.51h11.56v11.13H397.5zm49.71-16.09c0-24.56 23.69-32.48 44.31-25.6l-.64 8.64c-13.5-6.31-32-2.38-32 17 0 18.73 17.63 24.11 32.11 17.71l.53 8.53c-17.1 5.84-44.31 1.37-44.31-26.25m85-27.87c-7.56 0-13.39 3.35-16.74 10v-30.56h-10.8v75.61h10.8v-28.28c0-8.43 3.24-18.38 13.18-18.38 9.28 0 10.7 7.09 10.7 14.79v31.86h10.9V231.4c0-12.32-5.07-21-18-21m123.93 55.09v-31.82c0-7.56-1.4-14.79-10.7-14.79-10 0-13.16 9.16-13.16 17.68v29h-10.8V224a118.88 118.88 0 0 0-.54-12.43h10.15l.33 9.29c3.68-6.81 9.72-10.37 17.5-10.37 13.39 0 18.15 8.54 18.15 21v34.14zm-341.42 0v-31.82c0-7.56-1.4-14.79-10.7-14.79-10 0-13.17 9.16-13.17 17.68v29h-10.8V224a118.89 118.89 0 0 0-.55-12.43h10.14l.32 9.29c3.68-6.81 9.73-10.37 17.5-10.37 13.4 0 18.15 8.54 18.15 21v34.14zM800 254.4h11.55v11.14H800z"/>
</svg>
