<svg xmlns="http://www.w3.org/2000/svg" width="60.162" height="60.162" viewBox="0 0 60.162 60.162"><path d="M114.681,230.266h-4.548a.894.894,0,0,1-.894-.894v-49.34a1.8,1.8,0,0,0-1.789-1.8H57.213a1.8,1.8,0,0,0-1.8,1.8v50.234a1.8,1.8,0,0,0,1.8,1.8h49.335a.9.9,0,0,1,.9.9v4.545a.888.888,0,0,0,.89.892h6.341a.894.894,0,0,0,.9-.892v-6.342a.9.9,0,0,0-.9-.9" transform="translate(-55.418 -178.236)" fill="#758cc5"/><g transform="translate(1699.576 -1343.498)"><path d="M-1683.327,1381.27h-3.2a1.166,1.166,0,0,1-1.166-1.166v-15.656a1.166,1.166,0,0,1,1.166-1.165h14.1" transform="translate(-0.204 -0.695)" fill="none" stroke="#fff" stroke-linecap="round" stroke-miterlimit="10" stroke-width="2"/><path d="M-1659.081,1369.277v11.251a1.171,1.171,0,0,1-1.166,1.166h-12.25" transform="translate(-1.277 -1.119)" fill="none" stroke="#fff" stroke-linecap="round" stroke-miterlimit="10" stroke-width="2"/><line x1="4.47" y1="3.21" transform="translate(-1657.415 1363.947)" fill="none" stroke="#fff" stroke-linecap="round" stroke-miterlimit="10" stroke-width="2"/><line x1="7.465" y1="5.363" transform="translate(-1672.049 1353.445)" fill="none" stroke="#fff" stroke-linecap="round" stroke-miterlimit="10" stroke-width="2"/><g transform="translate(-1672.848 1356.115)"><path d="M-1656.067,1364.151l-4.355,6.233-.951-.662a8.87,8.87,0,0,1-5.643-1.836,8.888,8.888,0,0,1-3.664-4.671l-.821-.576,1.109-1.576,3.311-4.744,3.844,2.692Z" transform="translate(1671.5 -1356.318)" fill="none" stroke="#fff" stroke-linecap="round" stroke-miterlimit="10" stroke-width="2"/><path d="M-1655.374,1364.268l-.065.086-7.17-5.14Z" transform="translate(1670.872 -1356.523)" fill="none" stroke="#fff" stroke-linecap="round" stroke-miterlimit="10" stroke-width="2"/></g><g transform="translate(-1659.413 1366.369)"><line x1="2.001" y2="2.691" transform="translate(3.182)" fill="none" stroke="#fff" stroke-linecap="round" stroke-miterlimit="10" stroke-width="2"/><rect width="2.541" height="3.15" transform="matrix(0.803, 0.597, -0.597, 0.803, 1.88, 2.229)" fill="none" stroke="#fff" stroke-linecap="round" stroke-miterlimit="10" stroke-width="2"/></g><line x2="5.691" transform="translate(-1681.634 1381.151)" fill="none" stroke="#fff" stroke-linecap="round" stroke-miterlimit="10" stroke-width="2"/><line x2="33.603" transform="translate(-1690.576 1382.506)" fill="none" stroke="#fff" stroke-linecap="round" stroke-miterlimit="10" stroke-width="2"/><g transform="translate(-1681.206 1370.298)"><path d="M-1680.493,1371.663h.667a.726.726,0,0,1,.647.4l1.518,2.979h.013v-3.376h.867v4.515h-.661a.725.725,0,0,1-.647-.4l-1.524-2.98h-.013v3.376h-.867Z" transform="translate(1680.493 -1371.586)" fill="#fff"/><path d="M-1671.706,1372.531a2.946,2.946,0,0,0-1.163-.239,1.537,1.537,0,0,0-1.637,1.636,1.487,1.487,0,0,0,1.533,1.611,2.487,2.487,0,0,0,.595-.064V1374.3h-.957v-.712h1.1a.726.726,0,0,1,.726.727v1.128a.725.725,0,0,1-.582.714,4.576,4.576,0,0,1-.879.095,2.167,2.167,0,0,1-2.477-2.256,2.239,2.239,0,0,1,2.477-2.412,4.432,4.432,0,0,1,1.325.188Z" transform="translate(1680.137 -1371.58)" fill="#fff"/><path d="M-1668.006,1371.58a2.111,2.111,0,0,1,2.212,2.321,2.125,2.125,0,0,1-2.212,2.348,2.107,2.107,0,0,1-2.213-2.348A2.093,2.093,0,0,1-1668.006,1371.58Zm0,3.958c.925,0,1.268-.822,1.268-1.637,0-.8-.369-1.61-1.268-1.61s-1.268.814-1.268,1.61C-1669.274,1374.717-1668.932,1375.538-1668.006,1375.538Z" transform="translate(1679.767 -1371.58)" fill="#fff"/></g></g></svg>