<svg xmlns="http://www.w3.org/2000/svg" width="60.162" height="60.162" viewBox="0 0 60.162 60.162"><path d="M114.681,230.266h-4.548a.894.894,0,0,1-.894-.894v-49.34a1.8,1.8,0,0,0-1.789-1.8H57.213a1.8,1.8,0,0,0-1.8,1.8v50.234a1.8,1.8,0,0,0,1.8,1.8h49.335a.9.9,0,0,1,.9.9v4.545a.888.888,0,0,0,.89.892h6.341a.894.894,0,0,0,.9-.892v-6.342a.9.9,0,0,0-.9-.9" transform="translate(-55.418 -178.236)" fill="#758cc5"/><g transform="translate(1704.906 -1389.612)"><g transform="translate(-1695.583 1407.677)"><path d="M-1662.1,1425.779h1.8a1.8,1.8,0,0,0,1.8-1.8v-6.855a1.82,1.82,0,0,0-.136-.686l-3.113-7.567a1.8,1.8,0,0,0-1.667-1.117h-7.7a1.8,1.8,0,0,0-1.8,1.8v16.225" transform="translate(1694.555 -1407.751)" fill="none" stroke="#fff" stroke-linecap="round" stroke-miterlimit="10" stroke-width="2"/><path d="M-1662,1416.4l-2-5.374h-5.531v6.352h6.853A.725.725,0,0,0-1662,1416.4Z" transform="translate(1694.406 -1407.895)" fill="none" stroke="#fff" stroke-linecap="round" stroke-miterlimit="10" stroke-width="2"/><path d="M-1684.236,1426.609h13.521" transform="translate(1695.053 -1408.581)" fill="none" stroke="#fff" stroke-linecap="round" stroke-miterlimit="10" stroke-width="2"/><line x2="9.014" transform="translate(11.718 14.422)" fill="none" stroke="#fff" stroke-linecap="round" stroke-miterlimit="10" stroke-width="2"/><path d="M-1691.945,1426.443h-3.606v-3.606h2.7" transform="translate(1695.551 -1408.415)" fill="none" stroke="#fff" stroke-linecap="round" stroke-miterlimit="10" stroke-width="2"/><circle cx="3.606" cy="3.606" r="3.606" transform="translate(3.606 14.422)" fill="none" stroke="#fff" stroke-linecap="round" stroke-miterlimit="10" stroke-width="2"/><circle cx="3.606" cy="3.606" r="3.606" transform="translate(25.239 14.422)" fill="none" stroke="#fff" stroke-linecap="round" stroke-miterlimit="10" stroke-width="2"/></g><rect width="18.929" height="14.609" rx="0.402" transform="translate(-1696.29 1404.076)" fill="none" stroke="#fff" stroke-linecap="round" stroke-miterlimit="10" stroke-width="2"/><g transform="translate(-1691.045 1409.026)"><line x2="7.254" transform="translate(0 2.482)" fill="none" stroke="#fff" stroke-linecap="round" stroke-miterlimit="10" stroke-width="2"/><line x2="2.1" y2="2.291" transform="translate(5.727)" fill="none" stroke="#fff" stroke-linecap="round" stroke-miterlimit="10" stroke-width="2"/><line y1="2.291" x2="1.654" transform="translate(6.045 2.418)" fill="none" stroke="#fff" stroke-linecap="round" stroke-miterlimit="10" stroke-width="2"/></g></g></svg>