<svg xmlns="http://www.w3.org/2000/svg" width="60.162" height="60.162" viewBox="0 0 60.162 60.162"><path d="M114.681,230.266h-4.548a.894.894,0,0,1-.894-.894v-49.34a1.8,1.8,0,0,0-1.789-1.8H57.213a1.8,1.8,0,0,0-1.8,1.8v50.234a1.8,1.8,0,0,0,1.8,1.8h49.335a.9.9,0,0,1,.9.9v4.545a.888.888,0,0,0,.89.892h6.341a.894.894,0,0,0,.9-.892v-6.342a.9.9,0,0,0-.9-.9" transform="translate(-55.418 -178.236)" fill="#758cc5"/><g transform="translate(1646.572 -1392.872)"><path d="M-1624.428,1425.534v-26.058" transform="translate(0.963)" fill="none" stroke="#fff" stroke-linecap="round" stroke-miterlimit="10" stroke-width="2"/><circle cx="2.497" cy="2.497" r="2.497" transform="translate(-1626.039 1425.606)" fill="none" stroke="#fff" stroke-linecap="round" stroke-miterlimit="10" stroke-width="2"/><circle cx="2.239" cy="2.239" r="2.239" transform="translate(-1617.263 1428.254)" fill="none" stroke="#fff" stroke-linecap="round" stroke-miterlimit="10" stroke-width="2"/><path d="M-1617.045,1428.212v-20.846l-7.383-4.452" transform="translate(1.344)" fill="none" stroke="#fff" stroke-linecap="round" stroke-miterlimit="10" stroke-width="2"/><circle cx="2.239" cy="2.239" r="2.239" transform="translate(-1634.158 1430.534)" fill="none" stroke="#fff" stroke-linecap="round" stroke-miterlimit="10" stroke-width="2"/><path d="M-1631.7,1430.275v-17.7l7.383-4.452" fill="none" stroke="#fff" stroke-linecap="round" stroke-miterlimit="10" stroke-width="2"/><circle cx="2.239" cy="2.239" r="2.239" transform="translate(-1610.045 1434.117)" fill="none" stroke="#fff" stroke-linecap="round" stroke-miterlimit="10" stroke-width="2"/><path d="M-1610.38,1433.967v-17.7l-7.072-5.666" transform="translate(2.574)" fill="none" stroke="#fff" stroke-linecap="round" stroke-miterlimit="10" stroke-width="2"/><rect width="1.303" height="1.357" transform="translate(-1629.409 1414.07)" fill="#fff"/><rect width="1.303" height="1.357" transform="translate(-1621.196 1409.076)" fill="#fff"/><rect width="1.303" height="1.357" transform="translate(-1621.196 1416.568)" fill="#fff"/><rect width="1.303" height="1.357" transform="translate(-1612.265 1416.025)" fill="#fff"/><rect width="1.303" height="1.357" transform="translate(-1618.739 1412.876)" fill="#fff"/><rect width="1.303" height="1.357" transform="translate(-1618.739 1420.802)" fill="#fff"/><rect width="1.303" height="1.357" transform="translate(-1618.739 1424.005)" fill="#fff"/><rect width="1.303" height="1.357" transform="translate(-1612.205 1420.802)" fill="#fff"/><rect width="1.303" height="1.357" transform="translate(-1612.205 1424.005)" fill="#fff"/><rect width="1.303" height="1.357" transform="translate(-1629.409 1417.49)" fill="#fff"/><rect width="1.303" height="1.357" transform="translate(-1626.951 1421.128)" fill="#fff"/><rect width="1.303" height="1.357" transform="translate(-1629.409 1424.494)" fill="#fff"/></g></svg>