<svg id="Icon-data_insights" xmlns="http://www.w3.org/2000/svg" width="60.234" height="60.234" viewBox="0 0 60.234 60.234">
  <path id="Path_1004" data-name="Path 1004" d="M114.752,230.329H110.2a.9.9,0,0,1-.895-.9v-49.4a1.8,1.8,0,0,0-1.791-1.8h-50.3a1.8,1.8,0,0,0-1.8,1.8v50.294a1.8,1.8,0,0,0,1.8,1.8H106.61a.9.9,0,0,1,.9.9v4.551a.889.889,0,0,0,.891.893h6.348a.9.9,0,0,0,.9-.893v-6.349a.9.9,0,0,0-.9-.9" transform="translate(-55.418 -178.236)" fill="#56a3da"></path>
  <g id="Group_2660" data-name="Group 2660" transform="translate(2 2)">
    <g id="Group_2424" data-name="Group 2424" transform="translate(4.583 7.142)">
      <path id="Path_1797" data-name="Path 1797" d="M-1885.552,480.748h5.118a1.418,1.418,0,0,1,1,.415,1.418,1.418,0,0,1,.415,1v20.338a1.418,1.418,0,0,1-.415,1,1.418,1.418,0,0,1-1,.415h-31.685a1.418,1.418,0,0,1-1.418-1.419V482.167a1.418,1.418,0,0,1,1.418-1.419h15.078" transform="translate(1913.537 -475.462)" fill="none" stroke="#fff" stroke-miterlimit="10" stroke-width="2"></path>
      <line id="Line_303" data-name="Line 303" y2="3.103" transform="translate(13.855 28.626)" fill="none" stroke="#fff" stroke-miterlimit="10" stroke-width="2"></line>
      <line id="Line_304" data-name="Line 304" y2="3.103" transform="translate(20.604 28.626)" fill="none" stroke="#fff" stroke-miterlimit="10" stroke-width="2"></line>
      <line id="Line_305" data-name="Line 305" x2="11.601" transform="translate(11.454 32.059)" fill="none" stroke="#fff" stroke-miterlimit="10" stroke-width="2"></line>
      <line id="Line_306" data-name="Line 306" x2="33.807" transform="translate(0.319 24.665)" fill="none" stroke="#fff" stroke-miterlimit="10" stroke-width="2"></line>
      <line id="Line_308" data-name="Line 308" x2="3.912" transform="translate(27.985 11.823)" fill="none" stroke="#fff" stroke-miterlimit="10" stroke-width="2"></line>
      <line id="Line_309" data-name="Line 309" x2="3.912" transform="translate(27.985 14.447)" fill="none" stroke="#fff" stroke-miterlimit="10" stroke-width="2"></line>
      <line id="Line_310" data-name="Line 310" x2="3.912" transform="translate(27.985 16.923)" fill="none" stroke="#fff" stroke-miterlimit="10" stroke-width="2"></line>
      <path id="Path_1800" data-name="Path 1800" d="M-1881.478,495.285v-14.1a.079.079,0,0,1,.079-.079h2.309a.079.079,0,0,0,.068-.04.079.079,0,0,0,0-.079l-2.234-3.869-2.234-3.868a.079.079,0,0,0-.068-.04.079.079,0,0,0-.068.04l-2.234,3.868-2.234,3.869a.079.079,0,0,0,0,.08.079.079,0,0,0,.069.039h2.309a.078.078,0,0,1,.056.023.078.078,0,0,1,.023.056v14.1" transform="translate(1905.947 -473.212)" fill="none" stroke="#fff" stroke-miterlimit="10" stroke-width="2"></path>
    </g>
    <path id="Path_1868" data-name="Path 1868" d="M-1614.591,1309.053s-3.726,4.16-7.395,4.16c0,9.822,6.934,12.48,6.934,12.48s7.857-2.656,7.857-12.48C-1610.865,1313.212-1614.591,1309.053-1614.591,1309.053Z" transform="translate(1653.455 -1285.096)" fill="#56a3da" stroke="#fff" stroke-linecap="round" stroke-miterlimit="10" stroke-width="2"></path>
    <path id="Path_1352" data-name="Path 1352" d="M440.494,2044h2.851v1.23a.261.261,0,0,0,.191.253,5.813,5.813,0,0,1,1.069.435h.257l.025-.016a.142.142,0,0,0,.017-.017c.005,0,.014-.006.017-.008l.008-.009c.009-.009.018-.026.033-.041s.074-.065.124-.115c.1-.1.239-.237.373-.369.176-.172.248-.245.348-.344l2.005,1.992c-.1.1-.168.168-.34.336-.134.132-.272.262-.373.361-.05.05-.086.094-.116.123-.015.014-.032.023-.041.032s0,.012-.008.017l-.008.008s-.009.006-.017.017-.017.033-.017.033l-.017.221a.216.216,0,0,0,.017.025,5.6,5.6,0,0,1,.439,1.058.264.264,0,0,0,.257.188h1.251v2.8h-1.251a.265.265,0,0,0-.257.18,5.563,5.563,0,0,1-.439,1.058v.254l.017.025a.154.154,0,0,0,.017.017s.006.014.008.016a.039.039,0,0,0,.008.009c.009.009.027.018.041.032.03.029.066.073.116.123.1.1.239.23.373.361l.34.336-2.005,1.992c-.1-.1-.172-.172-.348-.344-.134-.132-.272-.262-.373-.361-.05-.049-.086-.094-.116-.123s-.033-.025-.041-.034,0-.012-.008-.016,0,0-.008,0l-.008-.009-.017-.016-.158-.05a.271.271,0,0,0-.124.034,5.776,5.776,0,0,1-1.069.434.262.262,0,0,0-.19.253v1.229h-2.851v-1.229a.262.262,0,0,0-.191-.253,5.777,5.777,0,0,1-1.069-.434.266.266,0,0,0-.315.048l-.878.869-2.014-1.984.878-.868a.258.258,0,0,0,.041-.311,5.592,5.592,0,0,1-.439-1.057.264.264,0,0,0-.257-.18H435v-2.8h1.251a.265.265,0,0,0,.257-.188,5.554,5.554,0,0,1,.439-1.058.26.26,0,0,0-.041-.311l-.878-.869,2.005-1.983.887.876a.267.267,0,0,0,.315.041,5.711,5.711,0,0,1,1.069-.434.263.263,0,0,0,.191-.254V2044Z" transform="translate(-427.223 -2029.131)" fill="none" stroke="#fff" stroke-miterlimit="8" stroke-width="1.4" fill-rule="evenodd"></path>
    <path id="Path_1353" data-name="Path 1353" d="M473.869,2079a2.869,2.869,0,1,0,2.869,2.873A2.876,2.876,0,0,0,473.869,2079Z" transform="translate(-459.173 -2060.192)" fill="none" stroke="#fff" stroke-miterlimit="8" stroke-width="1.4" fill-rule="evenodd"></path>
    <path id="Path_1321" data-name="Path 1321" d="M20.046,26.124l2.265,2.369,3.957-3.9" transform="translate(15.948 5.735)" fill="rgba(0,0,0,0)" stroke="#fff" stroke-miterlimit="10" stroke-width="2"></path>
  </g>
</svg>
