<svg id="Icon-data_insights" xmlns="http://www.w3.org/2000/svg" width="60.234" height="60.234" viewBox="0 0 60.234 60.234">
  <path id="Path_1004" data-name="Path 1004" d="M114.752,230.329H110.2a.9.9,0,0,1-.895-.9v-49.4a1.8,1.8,0,0,0-1.791-1.8h-50.3a1.8,1.8,0,0,0-1.8,1.8v50.294a1.8,1.8,0,0,0,1.8,1.8H106.61a.9.9,0,0,1,.9.9v4.551a.889.889,0,0,0,.891.893h6.348a.9.9,0,0,0,.9-.893v-6.349a.9.9,0,0,0-.9-.9" transform="translate(-55.418 -178.236)" fill="#0F7AC9"></path>
  <g id="Group_2417" data-name="Group 2417" transform="translate(9 8.816)">
    <path id="Path_1751" data-name="Path 1751" d="M-1-1H15.848V15.752H-1ZM14.668.18H.18V14.572H14.668Z" transform="translate(10.522 10.338)" fill="#fff"></path>
    <path id="Path_1752" data-name="Path 1752" d="M2-1A3,3,0,1,1-1,2,3,3,0,0,1,2-1ZM2,3.818A1.819,1.819,0,1,0,.18,2,1.819,1.819,0,0,0,2,3.818Z" transform="translate(18.496 1)" fill="#fff"></path>
    <path id="Path_1753" data-name="Path 1753" d="M2-1A3,3,0,1,1-1,2,3,3,0,0,1,2-1ZM2,3.818A1.819,1.819,0,1,0,.18,2,1.819,1.819,0,0,0,2,3.818Z" transform="translate(21.25 30.772)" fill="#fff"></path>
    <path id="Path_1754" data-name="Path 1754" d="M2-1A3,3,0,1,1-1,2,3,3,0,0,1,2-1ZM2,3.818A1.819,1.819,0,1,0,.18,2,1.819,1.819,0,0,0,2,3.818Z" transform="translate(1.803 4.843)" fill="#fff"></path>
    <path id="Path_1755" data-name="Path 1755" d="M.834-1A1.834,1.834,0,1,1-1,.834,1.834,1.834,0,0,1,.834-1Zm0,2.489A.654.654,0,1,0,.18.834.654.654,0,0,0,.834,1.489Z" transform="translate(12.548 3.599)" fill="#fff"></path>
    <path id="Path_1756" data-name="Path 1756" d="M.834-1A1.834,1.834,0,1,1-1,.834,1.834,1.834,0,0,1,.834-1Zm0,2.489A.654.654,0,1,0,.18.834.654.654,0,0,0,.834,1.489Z" transform="translate(29.929 12.777)" fill="#fff"></path>
    <path id="Path_1941" data-name="Path 1941" d="M.834-1A1.834,1.834,0,1,1-1,.834,1.834,1.834,0,0,1,.834-1Zm0,2.489A.654.654,0,1,0,.18.834.654.654,0,0,0,.834,1.489Z" transform="translate(32.758 18.169)" fill="#fff"></path>
    <path id="Path_1757" data-name="Path 1757" d="M.834-1A1.834,1.834,0,1,1-1,.834,1.834,1.834,0,0,1,.834-1Zm0,2.489A.654.654,0,1,0,.18.834.654.654,0,0,0,.834,1.489Z" transform="translate(14.584 30.044)" fill="#fff"></path>
    <path id="Path_1758" data-name="Path 1758" d="M.834-1A1.834,1.834,0,1,1-1,.834,1.834,1.834,0,0,1,.834-1Zm0,2.489A.654.654,0,1,0,.18.834.654.654,0,0,0,.834,1.489Z" transform="translate(2.28 12.892)" fill="#fff"></path>
    <path id="Path_1759" data-name="Path 1759" d="M.834-1A1.834,1.834,0,1,1-1,.834,1.834,1.834,0,0,1,.834-1Zm0,2.489A.654.654,0,1,0,.18.834.654.654,0,0,0,.834,1.489Z" transform="translate(5.262 18.399)" fill="#fff"></path>
    <path id="Path_1762" data-name="Path 1762" d="M2-1A3,3,0,1,1-1,2,3,3,0,0,1,2-1ZM2,3.818A1.819,1.819,0,1,0,.18,2,1.819,1.819,0,0,0,2,3.818Z" transform="translate(1 22.683)" fill="#fff"></path>
    <path id="Path_1763" data-name="Path 1763" d="M2-1A3,3,0,1,1-1,2,3,3,0,0,1,2-1ZM2,3.818A1.819,1.819,0,1,0,.18,2,1.819,1.819,0,0,0,2,3.818Z" transform="translate(28.879 4.097)" fill="#fff"></path>
    <path id="Path_1764" data-name="Path 1764" d="M2-1A3,3,0,1,1-1,2,3,3,0,0,1,2-1ZM2,3.818A1.819,1.819,0,1,0,.18,2,1.819,1.819,0,0,0,2,3.818Z" transform="translate(30.428 26.814)" fill="#fff"></path>
    <path id="Path_1765" data-name="Path 1765" d="M-1646.933,97.195l-.679-.966.409-.287a5.076,5.076,0,0,1,2.866-.929l1.394-.019a7.968,7.968,0,0,0,2.534-.45l8.782-3.078a.944.944,0,0,0,.63-.889V86.2h7.893v1.18h-6.713v3.2a2.125,2.125,0,0,1-1.421,2l-8.782,3.078a9.149,9.149,0,0,1-2.908.516l-1.394.019a3.9,3.9,0,0,0-2.2.714Z" transform="translate(1652.623 -73.176)" fill="#fff"></path>
    <path id="Path_1766" data-name="Path 1766" d="M-1617.3,78.415h-1.18V77.2a3.347,3.347,0,0,1,1.063-2.439,3.323,3.323,0,0,1,2.271-.894h2.361v1.18h-2.361a2.146,2.146,0,0,0-1.467.577,2.162,2.162,0,0,0-.686,1.576Z" transform="translate(1641.257 -68.36)" fill="#fff"></path>
    <path id="Path_1767" data-name="Path 1767" d="M-1640.264,88.213l-3.524-.059.02-1.18,3.166.054,9.388-6.039V73.738h1.18v7.894Z" transform="translate(1651.119 -68.329)" fill="#fff"></path>
    <path id="Path_1768" data-name="Path 1768" d="M-1621.175,85.22h-6.649l-2.543-6.2-.076-2.612a2.006,2.006,0,0,0-.949-1.653l-1.4-.869.624-1,1.4.869a3.187,3.187,0,0,1,1.505,2.618l.07,2.4,2.161,5.271h5.857Z" transform="translate(1646.834 -67.978)" fill="#fff"></path>
    <path id="Path_1769" data-name="Path 1769" d="M-1636.978,100.219l-1.18-.008.111-16.681-5.576-.079a4.116,4.116,0,0,1-3.442-1.937l-1.1-1.752,1-.627,1.1,1.752a2.94,2.94,0,0,0,2.459,1.384l6.747.1Z" transform="translate(1652.844 -70.427)" fill="#fff"></path>
    <path id="Path_1770" data-name="Path 1770" d="M-1632.05,105.125l-2.479-2.357.045-4.882a2.31,2.31,0,0,0-.971-1.9l-8.135-5.784h-3.113a2.75,2.75,0,0,1-1.742-.623l-1.01-.83.75-.912,1.01.83a1.567,1.567,0,0,0,.993.354h3.49l8.44,6a3.491,3.491,0,0,1,1.467,2.877l-.041,4.368,2.109,2Z" transform="translate(1653.344 -73.818)" fill="#fff"></path>
    <path id="Path_1773" data-name="Path 1773" d="M-1608.545,106.2l-1.165-2.583-3.927-.053.016-1.18,4.678.063,1.476,3.268Z" transform="translate(1639.345 -79.496)" fill="#fff"></path>
    <g id="Rectangle_970" data-name="Rectangle 970" transform="translate(10 10.145)" fill="#0F7AC9" stroke="#fff" stroke-width="1">
      <rect width="16" height="15" stroke="none"></rect>
      <rect x="0.5" y="0.5" width="15" height="14" fill="none"></rect>
    </g>
    <line id="Line_257" data-name="Line 257" x2="6.879" transform="translate(25.621 19.003)" fill="none" stroke="#fff" stroke-width="1.2"></line>
  </g>
</svg>