<svg xmlns="http://www.w3.org/2000/svg" xmlns:xlink="http://www.w3.org/1999/xlink" width="60.234" height="60.234"
    viewBox="0 0 60.234 60.234">
    <defs>
        <style>
            .a {
                fill: none;
                stroke: #707070;
                stroke-width: 2px;
            }

            .b {
                fill: #00328F;
            }

            .c {
                clip-path: url(#a);
            }

            .d {
                fill: #fff;
            }
        </style>
        <clipPath id="a">
            <rect class="a" width="37.887" height="36.737" />
        </clipPath>
    </defs>
    <path class="b"
        d="M114.752,230.329H110.2a.9.9,0,0,1-.895-.9v-49.4a1.8,1.8,0,0,0-1.791-1.8h-50.3a1.8,1.8,0,0,0-1.8,1.8v50.294a1.8,1.8,0,0,0,1.8,1.8H106.61a.9.9,0,0,1,.9.9v4.551a.889.889,0,0,0,.891.893h6.348a.9.9,0,0,0,.9-.893v-6.349a.9.9,0,0,0-.9-.9"
        transform="translate(-55.418 -178.236)" />
    <g transform="translate(7.456 8.67)">
        <g class="c">
            <path class="d"
                d="M22.2-.783h0A1.584,1.584,0,0,1,23.589,1.55L18.533,10.9l5.55,1.344a1.582,1.582,0,0,1,.642,2.743L5.1,31.67a1.575,1.575,0,0,1-1.375.341,1.546,1.546,0,0,1-.671-.334A1.579,1.579,0,0,1,2.7,29.683L9.565,17.734,5.6,16.826a1.585,1.585,0,0,1-1.179-1.149A1.566,1.566,0,0,1,4.9,14.1L21.143-.381A1.576,1.576,0,0,1,22.2-.783Zm.611,14.771-7.269-1.76L20.693,2.7,6.838,15.057l5.808,1.331-7.013,12.2Z"
                transform="translate(10.42 2.508)" />
            <path class="d"
                d="M.623,32.174A1.545,1.545,0,0,1,.3,32.14a1.507,1.507,0,0,1-.673-.319,1.585,1.585,0,0,1-.392-2L5.889,17.765l-3.978-.838A1.576,1.576,0,0,1,.71,15.8l0-.013a1.6,1.6,0,0,1,.441-1.56l.015-.014,16-14.767a1.577,1.577,0,0,1,2.026-.089,1.578,1.578,0,0,1,.448,1.987l-4.9,9.429,1.788.4-.436,1.952-4.325-.966,5-9.621L3.113,15.136l5.833,1.23-6.8,12.326L16.166,16.339l1.322,1.5L1.661,31.78A1.565,1.565,0,0,1,.623,32.174Z"
                transform="translate(3.147 2.122)" />
        </g>
    </g>
</svg>