<svg width="61" height="61" viewBox="0 0 61 61" fill="none" xmlns="http://www.w3.org/2000/svg">
<path d="M59.721 52.0927H55.1683C54.6763 52.0927 54.2737 51.6933 54.2737 51.1974V1.79834C54.2737 0.808685 53.4722 0 52.4824 0H2.18886C1.197 0 0.391602 0.808685 0.391602 1.79834V52.0927C0.391602 53.0843 1.197 53.891 2.18886 53.891H51.5798C52.0777 53.891 52.4824 54.2884 52.4824 54.7902V59.3411C52.4824 59.8369 52.8791 60.2344 53.373 60.2344H59.721C60.2189 60.2344 60.6216 59.8369 60.6216 59.3411V52.9918C60.6216 52.496 60.2189 52.0927 59.721 52.0927Z" fill="#CF142B"/>
<path d="M34.284 38.2715H19.436V34.5275C21.516 32.5115 29.1 26.1755 29.1 22.0795C29.1 20.0315 27.276 19.0715 25.452 19.0715C23.564 19.0715 21.772 19.9035 20.3 20.8635L19.948 17.1515C21.964 16.1275 24.3 15.5515 26.572 15.5515C30.828 15.5515 33.58 17.6955 33.58 22.0795C33.58 26.8155 28.812 31.1675 25.164 34.7515H34.284V38.2715Z" fill="white"/>
</svg>
