<svg width="61" height="61" viewBox="0 0 61 61" fill="none" xmlns="http://www.w3.org/2000/svg">
<path d="M59.7874 52.0927H55.2347C54.7428 52.0927 54.3401 51.6933 54.3401 51.1974V1.79834C54.3401 0.808685 53.5386 0 52.5488 0H2.25527C1.26341 0 0.458008 0.808685 0.458008 1.79834V52.0927C0.458008 53.0843 1.26341 53.891 2.25527 53.891H51.6462C52.1441 53.891 52.5488 54.2884 52.5488 54.7902V59.3411C52.5488 59.8369 52.9455 60.2344 53.4394 60.2344H59.7874C60.2853 60.2344 60.688 59.8369 60.688 59.3411V52.9918C60.688 52.496 60.2853 52.0927 59.7874 52.0927Z" fill="#CF142B"/>
<path d="M19.6314 37.9195L19.8874 34.1115C21.4234 34.7195 23.0874 35.1355 24.8474 35.1355C26.7034 35.1355 29.5514 34.2395 29.5514 31.9675C29.5514 29.3435 27.4714 28.4795 24.6234 28.4795H22.4474V24.9595H24.4954C27.5034 24.9595 29.4554 23.9675 29.4554 22.0155C29.4554 19.7755 27.6314 19.0715 25.6154 19.0715C23.8554 19.0715 22.1594 19.4875 20.5914 20.2555L20.3354 16.6715C22.1274 15.9675 24.2714 15.5515 26.5754 15.5515C29.3274 15.5515 33.9354 16.5115 33.9354 21.2795C33.9354 24.3195 32.0474 25.7595 29.7754 26.6235V26.6875C32.6234 27.0715 34.0314 29.2795 34.0314 31.9995C34.0314 37.3115 29.1994 38.6555 25.4874 38.6555C23.5354 38.6555 21.2954 38.3995 19.6314 37.9195Z" fill="white"/>
</svg>
