<svg width="61" height="61" viewBox="0 0 61 61" fill="none" xmlns="http://www.w3.org/2000/svg">
<path d="M59.8157 52.0922H55.263C54.7711 52.0922 54.3684 51.6928 54.3684 51.197V1.79785C54.3684 0.808197 53.567 -0.000488281 52.5771 -0.000488281H2.28359C1.29173 -0.000488281 0.486328 0.808197 0.486328 1.79785V52.0922C0.486328 53.0838 1.29173 53.8905 2.28359 53.8905H51.6745C52.1724 53.8905 52.5771 54.2879 52.5771 54.7897V59.3406C52.5771 59.8365 52.9738 60.2339 53.4678 60.2339H59.8157C60.3136 60.2339 60.7163 59.8365 60.7163 59.3406V52.9913C60.7163 52.4955 60.3136 52.0922 59.8157 52.0922Z" fill="#CF142B"/>
<path d="M28.0015 44C27.8662 44 27.7381 43.945 27.6422 43.8492L21.1534 37.2426C20.9566 37.0439 20.9586 36.721 21.1565 36.5224C21.3543 36.3238 21.6732 36.3279 21.871 36.5265L27.4968 42.2531V24.2472C27.4968 23.9651 27.7219 23.7379 28.0015 23.7379C28.28 23.7379 28.5061 23.9651 28.5061 24.2472V42.2531L34.1329 36.5255C34.3297 36.3289 34.6487 36.3238 34.8475 36.5224C35.0443 36.7221 35.0463 37.0439 34.8505 37.2426L28.3598 43.8503C28.2639 43.945 28.1367 44 28.0015 44ZM37.1164 31.8267H33.3548C33.0762 31.8267 32.8501 31.5985 32.8501 31.3174C32.8501 31.0362 33.0762 30.808 33.3548 30.808H37.1164C40.9083 30.808 43.9917 27.6952 43.9917 23.8693C43.9917 20.0424 40.9083 16.9296 37.1164 16.9296C36.644 16.9296 36.1757 16.9774 35.7256 17.0712C35.4803 17.1282 35.2431 16.9897 35.1533 16.7574C33.8059 13.2707 30.5398 11.0186 26.8327 11.0186C21.9094 11.0186 17.9035 15.0614 17.9035 20.0302L17.9055 20.1606C17.9076 20.3022 17.85 20.4387 17.7491 20.5364C17.6462 20.6352 17.5079 20.6872 17.3686 20.676C17.2576 20.6689 17.1476 20.6638 17.0355 20.6638C14.264 20.6638 12.0103 22.9383 12.0103 25.7364C12.0103 28.5335 14.264 30.808 17.0355 30.808H22.0891C22.3686 30.808 22.5937 31.0362 22.5937 31.3174C22.5937 31.5985 22.3686 31.8267 22.0891 31.8267H17.0355C13.7079 31.8267 11.001 29.0937 11.001 25.7364C11.001 22.4229 13.6352 19.7185 16.9023 19.6462C17.1052 14.2893 21.4825 10 26.8327 10C30.8194 10 34.3479 12.3408 35.9345 15.9996C36.3221 15.9405 36.7177 15.911 37.1164 15.911C41.4644 15.911 45.001 19.4812 45.001 23.8693C45.001 28.2564 41.4644 31.8267 37.1164 31.8267Z" fill="white" stroke="white"/>
</svg>
