<svg xmlns="http://www.w3.org/2000/svg" width="60.234" height="60.234" viewBox="0 0 60.234 60.234">
  <g id="Icon-Audit-Compliance" transform="translate(-0.25 -1068.899)">
    <path id="Path_273" data-name="Path 273" d="M114.751,230.329H110.2a.9.9,0,0,1-.895-.9v-49.4a1.8,1.8,0,0,0-1.791-1.8h-50.3a1.8,1.8,0,0,0-1.8,1.8v50.294a1.8,1.8,0,0,0,1.8,1.8H106.61a.9.9,0,0,1,.9.9v4.551a.889.889,0,0,0,.891.893h6.348a.9.9,0,0,0,.9-.893v-6.349a.9.9,0,0,0-.9-.9" transform="translate(-55.168 890.663)" fill="#303ab2"/>
    <g id="Group_2657" data-name="Group 2657" transform="translate(-1.031 1068.82)">
      <g id="Group_2637" data-name="Group 2637" transform="translate(20.09 14.143)">
        <g id="Group_2500" data-name="Group 2500" transform="translate(-6.786 -3.155)">
          <path id="Path_1515" data-name="Path 1515" d="M0,0V5.785H5.85Z" transform="translate(18.574 0)" fill="none" stroke="#fff" stroke-linecap="round" stroke-linejoin="round" stroke-miterlimit="10" stroke-width="1.8"/>
          <g id="Group_2499" data-name="Group 2499" transform="translate(0 0)">
            <path id="Path_1925" data-name="Path 1925" d="M18.784-.155H3.688V25.862H24.4V5.687Z" transform="translate(-3.688 4.246)" fill="#303ab2" stroke="#fff" stroke-width="1.8"/>
            <path id="Path_1916" data-name="Path 1916" d="M18.784-.155H3.688V25.862H24.4V5.687Z" transform="translate(0.019 0.155)" fill="#303ab2" stroke="#fff" stroke-width="1.8"/>
            <path id="Path_1911" data-name="Path 1911" d="M0,0H10.23" transform="translate(8.95 20.282)" fill="none" stroke="#fff" stroke-linecap="square" stroke-linejoin="round" stroke-miterlimit="10" stroke-width="1.8"/>
            <path id="Path_1910" data-name="Path 1910" d="M0,0H10.23" transform="translate(8.95 16.645)" fill="none" stroke="#fff" stroke-linecap="square" stroke-linejoin="round" stroke-miterlimit="10" stroke-width="1.8"/>
            <path id="Path_1520" data-name="Path 1520" d="M0,0H10.23" transform="translate(8.95 13.009)" fill="none" stroke="#fff" stroke-linecap="square" stroke-linejoin="round" stroke-miterlimit="10" stroke-width="1.8"/>
            <path id="Path_1521" data-name="Path 1521" d="M0,0H7.339" transform="translate(8.95 9.372)" fill="none" stroke="#fff" stroke-linecap="square" stroke-linejoin="round" stroke-miterlimit="10" stroke-width="1.8"/>
            <path id="Path_1522" data-name="Path 1522" d="M0,0H4.827" transform="translate(8.95 5.735)" fill="none" stroke="#fff" stroke-linecap="square" stroke-linejoin="round" stroke-miterlimit="10" stroke-width="1.8"/>
            <path id="Path_2424" data-name="Path 2424" d="M-1614.591,1309.053s-3.726,4.16-7.395,4.16c0,9.822,6.934,12.48,6.934,12.48s7.857-2.656,7.857-12.48C-1610.865,1313.212-1614.591,1309.053-1614.591,1309.053Z" transform="translate(1639.013 -1293.084)" fill="#303ab2" stroke="#fff" stroke-linecap="round" stroke-miterlimit="10" stroke-width="2"/>
            <path id="Path_2425" data-name="Path 2425" d="M20.046,26.124l2.265,2.369,3.957-3.9" transform="translate(1.505 -2.253)" fill="rgba(0,0,0,0)" stroke="#fff" stroke-miterlimit="10" stroke-width="2"/>
          </g>
        </g>
      </g>
    </g>
  </g>
</svg>
