<svg xmlns="http://www.w3.org/2000/svg" width="60.234" height="60.234" viewBox="0 0 60.234 60.234">
  <g id="Icon-Centralised" transform="translate(0 0)">
    <path id="Path_273" data-name="Path 273" d="M114.752,230.329H110.2a.9.9,0,0,1-.895-.9v-49.4a1.8,1.8,0,0,0-1.791-1.8h-50.3a1.8,1.8,0,0,0-1.8,1.8v50.294a1.8,1.8,0,0,0,1.8,1.8H106.61a.9.9,0,0,1,.9.9v4.551a.889.889,0,0,0,.891.893h6.348a.9.9,0,0,0,.9-.893v-6.349a.9.9,0,0,0-.9-.9" transform="translate(-55.418 -178.236)" fill="#303ab2"/>
    <g id="RICOH_deployment_001" transform="translate(-44.316 -44.297)">
      <circle id="Ellipse_3" data-name="Ellipse 3" cx="3.937" cy="3.937" r="3.937" transform="translate(67.361 67.245)" fill="none" stroke="#fff" stroke-miterlimit="10" stroke-width="1.5"/>
      <path id="Path_985" data-name="Path 985" d="M204.274,196.254v-2.582l-2.093-.49a7.4,7.4,0,0,0-.846-2.029l1.092-1.846-1.83-1.824-1.824,1.134a7.3,7.3,0,0,0-2.041-.838l-.537-2.08H193.6l-.492,2.086a7.449,7.449,0,0,0-2.035.843l-1.853-1.088-1.83,1.824,1.132,1.818a7.214,7.214,0,0,0-.84,2.029l-2.087.536v2.582l2.093.49a7.4,7.4,0,0,0,.846,2.029l-1.092,1.846,1.83,1.824,1.824-1.128a7.264,7.264,0,0,0,2.035.838l.537,2.08h2.59l.492-2.086a7.45,7.45,0,0,0,2.035-.843l1.853,1.088,1.83-1.824-1.121-1.818a7.249,7.249,0,0,0,.84-2.034Z" transform="translate(-123.73 -123.822)" fill="none" stroke="#fff" stroke-miterlimit="10" stroke-width="1.5" fill-rule="evenodd"/>
      <g id="Group_1425" data-name="Group 1425" transform="translate(67.953 49.1)">
        <line id="Line_141" data-name="Line 141" y2="8.328" transform="translate(3.339)" fill="none" stroke="#fff" stroke-miterlimit="10" stroke-width="1.5"/>
        <path id="Path_986" data-name="Path 986" d="M315.287,51.1l-3.347,3.652L308.6,51.1" transform="translate(-308.6 -46.423)" fill="none" stroke="#fff" stroke-miterlimit="10" stroke-width="1.5" fill-rule="evenodd"/>
      </g>
      <g id="Group_1426" data-name="Group 1426" transform="translate(55.985 55.993)">
        <line id="Line_142" data-name="Line 142" x2="5.885" y2="5.886" transform="translate(0 0)" fill="none" stroke="#fff" stroke-miterlimit="10" stroke-width="1.5"/>
        <path id="Path_987" data-name="Path 987" d="M144.032,137.4l.216,4.949-4.948-.216" transform="translate(-138.363 -136.463)" fill="none" stroke="#fff" stroke-miterlimit="10" stroke-width="1.5" fill-rule="evenodd"/>
      </g>
      <g id="Group_1427" data-name="Group 1427" transform="translate(49.877 67.729)">
        <line id="Line_143" data-name="Line 143" x2="8.328" transform="translate(0 3.339)" fill="none" stroke="#fff" stroke-miterlimit="10" stroke-width="1.5"/>
        <path id="Path_988" data-name="Path 988" d="M51.1,312.586l3.651-3.347L51.1,305.9" transform="translate(-46.424 -305.9)" fill="none" stroke="#fff" stroke-miterlimit="10" stroke-width="1.5" fill-rule="evenodd"/>
      </g>
      <g id="Group_1428" data-name="Group 1428" transform="translate(55.261 80.191)">
        <line id="Line_144" data-name="Line 144" y1="5.886" x2="5.885" transform="translate(0)" fill="none" stroke="#fff" stroke-miterlimit="10" stroke-width="1.5"/>
        <path id="Path_989" data-name="Path 989" d="M137.4,497.116l4.948-.216-.216,4.949" transform="translate(-136.463 -496.9)" fill="none" stroke="#fff" stroke-miterlimit="10" stroke-width="1.5" fill-rule="evenodd"/>
      </g>
      <g id="Group_1429" data-name="Group 1429" transform="translate(67.776 84.208)">
        <line id="Line_145" data-name="Line 145" y1="8.328" transform="translate(3.339 0)" fill="none" stroke="#fff" stroke-miterlimit="10" stroke-width="1.5"/>
        <path id="Path_990" data-name="Path 990" d="M312.587,604.952l-3.347-3.652-3.339,3.652" transform="translate(-305.9 -601.3)" fill="none" stroke="#fff" stroke-miterlimit="10" stroke-width="1.5" fill-rule="evenodd"/>
      </g>
      <g id="Group_1430" data-name="Group 1430" transform="translate(80.754 80.191)">
        <line id="Line_146" data-name="Line 146" x1="5.885" y1="5.886" fill="none" stroke="#fff" stroke-miterlimit="10" stroke-width="1.5"/>
        <path id="Path_991" data-name="Path 991" d="M497.116,503.749,496.9,498.8l4.948.216" transform="translate(-496.9 -498.8)" fill="none" stroke="#fff" stroke-miterlimit="10" stroke-width="1.5" fill-rule="evenodd"/>
      </g>
      <g id="Group_1431" data-name="Group 1431" transform="translate(84.003 67.907)">
        <line id="Line_147" data-name="Line 147" x1="8.328" transform="translate(0 3.339)" fill="none" stroke="#fff" stroke-miterlimit="10" stroke-width="1.5"/>
        <path id="Path_992" data-name="Path 992" d="M604.951,315.287l-3.651-3.347,3.651-3.339" transform="translate(-601.3 -308.6)" fill="none" stroke="#fff" stroke-miterlimit="10" stroke-width="1.5" fill-rule="evenodd"/>
      </g>
      <g id="Group_1432" data-name="Group 1432" transform="translate(80.753 56.486)">
        <line id="Line_148" data-name="Line 148" x1="5.885" y2="5.886" transform="translate(0 0)" fill="none" stroke="#fff" stroke-miterlimit="10" stroke-width="1.5"/>
        <path id="Path_993" data-name="Path 993" d="M503.748,144.033l-4.948.216.216-4.949" transform="translate(-498.8 -138.363)" fill="none" stroke="#fff" stroke-miterlimit="10" stroke-width="1.5" fill-rule="evenodd"/>
      </g>
    </g>
  </g>
</svg>
