<svg id="Component_142_1" data-name="Component 142 – 1" xmlns="http://www.w3.org/2000/svg" width="60.162" height="60.162" viewBox="0 0 60.162 60.162">
  <path id="Path_273" data-name="Path 273" d="M114.681,230.266h-4.548a.894.894,0,0,1-.894-.894v-49.34a1.8,1.8,0,0,0-1.789-1.8H57.213a1.8,1.8,0,0,0-1.8,1.8v50.234a1.8,1.8,0,0,0,1.8,1.8h49.335a.9.9,0,0,1,.9.9v4.545a.888.888,0,0,0,.89.892h6.341a.894.894,0,0,0,.9-.892v-6.342a.9.9,0,0,0-.9-.9" transform="translate(-55.418 -178.236)" fill="#758cc5"/>
  <g id="Group_1870" data-name="Group 1870" transform="translate(11.948 9.009)">
    <path id="Path_1195" data-name="Path 1195" d="M2009.066,528.339l-3.06-5.324v-.222a13.333,13.333,0,1,0-21.43,10.737v11.225H1998.6V539.43h2.174a5.264,5.264,0,0,0,3.726-1.553,5.411,5.411,0,0,0,1.51-3.771v-2.662h1.951C2009.111,531.311,2010.131,529.98,2009.066,528.339Z" transform="translate(-1979.333 -508.95)" fill="none" stroke="#fff" stroke-width="2"/>
    <g id="Group_1868" data-name="Group 1868" transform="translate(6.609 12.114)">
      <path id="Path_1196" data-name="Path 1196" d="M15.59,14.545a1.045,1.045,0,1,0-1.045,1.045A1.045,1.045,0,0,0,15.59,14.545Z" transform="translate(-11.919 -9.919)" fill="none" stroke="#fff" stroke-linecap="round" stroke-linejoin="round" stroke-width="0.9"/>
      <path id="Path_1197" data-name="Path 1197" d="M7.564,4.137a.544.544,0,0,1,.109-.6l.02-.02a.66.66,0,1,0-.933-.933l-.02.02a.548.548,0,0,1-.929-.389V2.159a.659.659,0,1,0-1.318,0v.03a.571.571,0,0,1-.956.389l-.02-.02a.66.66,0,1,0-.933.933l.02.02a.548.548,0,0,1-.389.929H2.159a.659.659,0,1,0,0,1.318h.03a.571.571,0,0,1,.389.956l-.02.02a.66.66,0,1,0,.933.933l.02-.02a.544.544,0,0,1,.6-.109h.026a.544.544,0,0,1,.33.5v.056a.659.659,0,0,0,1.318,0v-.03a.548.548,0,0,1,.929-.389l.02.02a.66.66,0,1,0,.933-.933l-.02-.02a.544.544,0,0,1-.109-.6V6.114a.544.544,0,0,1,.5-.33h.056a.659.659,0,0,0,0-1.318h-.03a.544.544,0,0,1-.5-.33Z" transform="translate(-2.5 -0.5)" fill="none" stroke="#fff" stroke-linecap="round" stroke-linejoin="round" stroke-width="0.9"/>
    </g>
    <g id="Group_1869" data-name="Group 1869" transform="translate(11.084 3.457)">
      <path id="Path_1196-2" data-name="Path 1196" d="M3.225,1.613A1.613,1.613,0,1,0,1.613,3.225,1.613,1.613,0,0,0,3.225,1.613Z" transform="matrix(0.921, -0.391, 0.391, 0.921, 2.507, 5.767)" fill="none" stroke="#fff" stroke-linecap="round" stroke-linejoin="round" stroke-width="1"/>
      <path id="Path_1197-2" data-name="Path 1197" d="M7.171,3.118A.643.643,0,0,1,7.3,2.409l.023-.023a.78.78,0,1,0-1.1-1.1L6.2,1.306A.648.648,0,0,1,5.1.846V.779a.779.779,0,0,0-1.559,0V.815a.643.643,0,0,1-.421.588.643.643,0,0,1-.709-.129l-.023-.023a.78.78,0,1,0-1.1,1.1l.023.023a.648.648,0,0,1-.46,1.1H.779a.779.779,0,0,0,0,1.559H.815a.643.643,0,0,1,.588.421.643.643,0,0,1-.129.709l-.023.023a.78.78,0,1,0,1.1,1.1l.023-.023a.643.643,0,0,1,.709-.129h.031a.643.643,0,0,1,.39.588v.066a.779.779,0,1,0,1.559,0V7.76a.648.648,0,0,1,1.1-.46l.023.023a.78.78,0,1,0,1.1-1.1L7.268,6.2a.643.643,0,0,1-.129-.709V5.456a.643.643,0,0,1,.588-.39h.066a.779.779,0,1,0,0-1.559H7.76a.643.643,0,0,1-.588-.39Z" transform="matrix(0.921, -0.391, 0.391, 0.921, -1, 4.35)" fill="none" stroke="#fff" stroke-linecap="round" stroke-linejoin="round" stroke-width="1"/>
    </g>
  </g>
</svg>
