<svg id="Icon-Time" xmlns="http://www.w3.org/2000/svg" width="60.234" height="60.234" viewBox="0 0 60.234 60.234">
  <path id="Path_1004" data-name="Path 1004" d="M114.752,230.329H110.2a.9.9,0,0,1-.895-.9v-49.4a1.8,1.8,0,0,0-1.791-1.8h-50.3a1.8,1.8,0,0,0-1.8,1.8v50.294a1.8,1.8,0,0,0,1.8,1.8H106.61a.9.9,0,0,1,.9.9v4.551a.889.889,0,0,0,.891.893h6.348a.9.9,0,0,0,.9-.893v-6.349a.9.9,0,0,0-.9-.9" transform="translate(-55.418 -178.236)" fill="#0f7ac9"></path>
  <g id="Group_1848" data-name="Group 1848" transform="translate(11.017 9.682)">
    <g id="Ellipse_11" data-name="Ellipse 11" transform="translate(0 2.497)" fill="none" stroke="#fff" stroke-width="2">
      <ellipse cx="16.08" cy="16.08" rx="16.08" ry="16.08" stroke="none"></ellipse>
      <ellipse cx="16.08" cy="16.08" rx="15.08" ry="15.08" fill="none"></ellipse>
    </g>
    <line id="Line_183" data-name="Line 183" y1="2.285" transform="translate(16.376 0.762)" fill="none" stroke="#fff" stroke-width="2"></line>
    <line id="Line_184" data-name="Line 184" x2="9.902" transform="translate(11.426)" fill="none" stroke="#fff" stroke-width="2"></line>
    <path id="Path_1181" data-name="Path 1181" d="M-10667.5,7165.719v7.628l5.233,5.179" transform="translate(10683.878 -7154.186)" fill="none" stroke="#fff" stroke-width="2"></path>
    <circle id="Ellipse_12" data-name="Ellipse 12" cx="1.026" cy="1.026" r="1.026" transform="translate(15.053 6.603)" fill="#fff"></circle>
    <circle id="Ellipse_15" data-name="Ellipse 15" cx="1.026" cy="1.026" r="1.026" transform="translate(26.001 17.551)" fill="#fff"></circle>
    <circle id="Ellipse_13" data-name="Ellipse 13" cx="1.026" cy="1.026" r="1.026" transform="translate(15.053 28.499)" fill="#fff"></circle>
    <circle id="Ellipse_14" data-name="Ellipse 14" cx="1.026" cy="1.026" r="1.026" transform="translate(3.421 17.551)" fill="#fff"></circle>
    <line id="Line_185" data-name="Line 185" y1="0.762" x2="0.762" transform="translate(25.467 5.388) rotate(-8)" fill="none" stroke="#fff" stroke-linecap="round" stroke-width="2"></line>
  </g>
</svg>
