<svg id="Icon_automatic" xmlns="http://www.w3.org/2000/svg" width="60" height="60" viewBox="0 0 60 60">
  <path id="Path_273" data-name="Path 273" d="M114.521,230.126h-4.535a.892.892,0,0,1-.891-.892V180.027a1.79,1.79,0,0,0-1.784-1.791h-50.1a1.794,1.794,0,0,0-1.79,1.791v50.1a1.792,1.792,0,0,0,1.79,1.791h49.2a.894.894,0,0,1,.9.9v4.533a.886.886,0,0,0,.887.89h6.324a.892.892,0,0,0,.9-.89v-6.325a.9.9,0,0,0-.9-.9" transform="translate(-55.418 -178.236)" fill="#768ec7"/>
  <g id="Group_1964" data-name="Group 1964" transform="translate(-6.979 -16.545)">
    <path id="Path_1526" data-name="Path 1526" d="M26.4,55.466H23.362a.827.827,0,0,1-.823-.728l-.2-1.692a7.26,7.26,0,0,1-2.111-1.226l-1.572.671a.825.825,0,0,1-1.043-.346c-.508-.875-1.011-1.755-1.519-2.63a.824.824,0,0,1,.22-1.074l1.362-1.022a7.344,7.344,0,0,1,0-2.442L16.31,43.956a.825.825,0,0,1-.22-1.074c.508-.875,1.011-1.755,1.519-2.63a.82.82,0,0,1,1.043-.346l1.572.671a7.273,7.273,0,0,1,2.117-1.221l.2-1.692a.827.827,0,0,1,.823-.728h3.039a.827.827,0,0,1,.823.728l.2,1.692a7.342,7.342,0,0,1,2.117,1.221l1.572-.671a.825.825,0,0,1,1.043.346c.508.875,1.011,1.755,1.519,2.63a.824.824,0,0,1-.22,1.074L32.1,44.977a7.344,7.344,0,0,1,0,2.442l1.362,1.022a.825.825,0,0,1,.22,1.074c-.508.875-1.011,1.755-1.519,2.63a.82.82,0,0,1-1.043.346L29.55,51.82a7.273,7.273,0,0,1-2.117,1.221l-.2,1.692a.837.837,0,0,1-.828.734Zm-1.519-13.46a4.186,4.186,0,1,0,4.186,4.186,4.188,4.188,0,0,0-4.186-4.186Zm17.473,19.04-2.457-.66a.692.692,0,0,1-.508-.765l.2-1.409a6.112,6.112,0,0,1-1.446-1.446l-1.415.2a.689.689,0,0,1-.765-.508c-.22-.817-.44-1.635-.66-2.457a.693.693,0,0,1,.409-.823l1.326-.534a6.17,6.17,0,0,1,.529-1.975l-.88-1.121a.69.69,0,0,1,.058-.917l1.8-1.8a.69.69,0,0,1,.917-.058l1.121.88a6.063,6.063,0,0,1,1.975-.529l.529-1.32a.688.688,0,0,1,.823-.409l2.457.66a.692.692,0,0,1,.508.765l-.2,1.409a6.112,6.112,0,0,1,1.446,1.446l1.415-.2a.689.689,0,0,1,.765.508c.22.817.44,1.635.66,2.457a.693.693,0,0,1-.409.823l-1.326.534a6.17,6.17,0,0,1-.529,1.975l.88,1.121a.69.69,0,0,1-.058.917l-1.8,1.8a.69.69,0,0,1-.917.058l-1.121-.885a6.063,6.063,0,0,1-1.975.529l-.529,1.32a.686.686,0,0,1-.823.414Zm1.687-11.2a3.5,3.5,0,1,0,2.473,4.286,3.5,3.5,0,0,0-2.473-4.286Zm-4.265-6.916a.693.693,0,0,0,.823-.409l.529-1.32a6.063,6.063,0,0,0,1.975-.529l1.121.88a.69.69,0,0,0,.917-.058l1.8-1.8A.69.69,0,0,0,47,38.779l-.88-1.121a6.309,6.309,0,0,0,.529-1.975l1.326-.534a.688.688,0,0,0,.409-.823c-.22-.817-.44-1.635-.66-2.457a.692.692,0,0,0-.765-.508l-1.415.2a6.112,6.112,0,0,0-1.446-1.446l.2-1.409a.689.689,0,0,0-.508-.765l-2.457-.66a.693.693,0,0,0-.823.409l-.529,1.32A6.063,6.063,0,0,0,38,29.537l-1.121-.88a.69.69,0,0,0-.917.058l-1.8,1.8a.69.69,0,0,0-.058.917l.88,1.121a6.309,6.309,0,0,0-.529,1.975l-1.326.534a.688.688,0,0,0-.409.823c.22.817.44,1.635.66,2.457a.692.692,0,0,0,.765.508l1.415-.2a6.112,6.112,0,0,0,1.446,1.446l-.2,1.409a.689.689,0,0,0,.508.765l2.457.66Zm1.687-11.207a3.5,3.5,0,1,1-4.286,2.473A3.5,3.5,0,0,1,41.464,31.722Z" transform="translate(0 0)" fill="none" stroke="#fff" stroke-linecap="round" stroke-linejoin="round" stroke-miterlimit="10" stroke-width="1.2" fill-rule="evenodd"/>
  </g>
</svg>
