<svg xmlns="http://www.w3.org/2000/svg" width="201.859" height="173.47" viewBox="0 0 201.859 173.47">
  <g id="Group_1552" data-name="Group 1552" transform="translate(-278.141 -1232.623)">
    <text id="_74_" data-name="74%" transform="translate(298 1344)" fill="#768ec7" font-size="100" font-family="FrutigerLTStd-Bold, Frutiger LT Std" font-weight="700"><tspan x="0" y="0">74</tspan><tspan y="0" font-size="70">%</tspan></text>
    <path id="Ricoh_Ribbon_-_WM" data-name="Ricoh Ribbon - WM" d="M152.688,48.578V6.589A5.063,5.063,0,0,0,147.662,1.5H6.543A5.074,5.074,0,0,0,1.5,6.589v142.34a5.07,5.07,0,0,0,5.043,5.089H145.127a2.53,2.53,0,0,1,2.533,2.528v12.9a2.51,2.51,0,0,0,2.492,2.528h17.819a2.522,2.522,0,0,0,2.527-2.518V151.473a2.536,2.536,0,0,0-2.527-2.545H155.2a2.522,2.522,0,0,1-2.51-2.534V124.9" transform="translate(278.141 1232.623)" fill="none" stroke="#768ec7" stroke-width="3"/>
  </g>
</svg>
