<svg xmlns="http://www.w3.org/2000/svg" width="100" height="100" viewBox="0 0 100 100">
  <g id="Icon_cost_reduction" transform="translate(-0.25 -1068.899)">
    <path id="Path_273" data-name="Path 273" d="M153.923,264.719h-7.559a1.487,1.487,0,0,1-1.485-1.486V181.222a2.983,2.983,0,0,0-2.974-2.986H58.4a2.989,2.989,0,0,0-2.984,2.986v83.5a2.987,2.987,0,0,0,2.984,2.986h82a1.491,1.491,0,0,1,1.5,1.493v7.555a1.476,1.476,0,0,0,1.479,1.483h10.539a1.486,1.486,0,0,0,1.5-1.483V266.212a1.494,1.494,0,0,0-1.5-1.493" transform="translate(-55.168 890.663)" fill="#8fc740"></path>
    <g id="Group_2711" data-name="Group 2711" transform="translate(4908.55 2036.044)">
      <g id="RICOH_ecpectations_001" transform="translate(-4838.3 -895.126) rotate(180)">
        <rect id="Rectangle_1028" data-name="Rectangle 1028" width="0.043" height="10.445" transform="translate(14.308 45.418)" fill="none" stroke="#fff" stroke-miterlimit="10" stroke-width="2"></rect>
        <path id="Path_2100" data-name="Path 2100" d="M17.465,10.873H14.394V38.987H3.114V28.542H6.228L3.071,24.625V10.873H0L8.733,0l5.576,6.945Z" transform="translate(11.237 16.877)" fill="none" stroke="#fff" stroke-miterlimit="10" stroke-width="2"></path>
        <path id="Path_2101" data-name="Path 2101" d="M17.455,10.884H14.383V32.362a10.5,10.5,0,0,0,0,18.835v4.677H3.146V27.75H6.218L3.071,23.822V10.873H0L8.733,0Z" transform="translate(22.484 0)" fill="none" stroke="#fff" stroke-miterlimit="10" stroke-width="2"></path>
        <path id="Path_2102" data-name="Path 2102" d="M17.465,10.862H14.308V21.307H3.039V10.862H0L8.733,0l5.576,6.945Z" transform="translate(0 34.556)" fill="none" stroke="#fff" stroke-miterlimit="10" stroke-width="2"></path>
        <path id="Path_2103" data-name="Path 2103" d="M21,10.5A10.5,10.5,0,1,1,10.5,0,10.5,10.5,0,0,1,21,10.5Z" transform="translate(31.003 31.271)" fill="none" stroke="#fff" stroke-miterlimit="10" stroke-width="2"></path>
      </g>
      <path id="Path_2109" data-name="Path 2109" d="M17.455,10.884H14.383V32.362a10.5,10.5,0,0,0,0,18.835v4.677H3.146V27.75H6.218L3.071,23.822V10.873H0L8.733,0Z" transform="translate(-4860.785 -895.126) rotate(180)" fill="none" stroke="#fff" stroke-miterlimit="10" stroke-width="2"></path>
      <g id="Group_2711-2" data-name="Group 2711" transform="translate(-4884.092 -944.632)">
        <path id="Path_2091" data-name="Path 2091" d="M486.131,468.737a3.7,3.7,0,0,0-2.868-1.98,3.434,3.434,0,0,0-2.932,1.017,2.914,2.914,0,0,0-.589,3,4.073,4.073,0,0,0,2.012,1.958c1.241.653,2.868,1.06,3.724,2.258a3.05,3.05,0,0,1,.235,3.007,3.627,3.627,0,0,1-2.386,1.916,4.038,4.038,0,0,1-4.527-1.948" transform="translate(-478.8 -465.366)" fill="none" stroke="#fff" stroke-miterlimit="10" stroke-width="2"></path>
        <line id="Line_404" data-name="Line 404" y1="16.031" transform="translate(4.045 0)" fill="none" stroke="#fff" stroke-miterlimit="10" stroke-width="2"></line>
      </g>
    </g>
  </g>
</svg>
