<svg xmlns="http://www.w3.org/2000/svg" width="60.234" height="60.234" viewBox="0 0 60.234 60.234">
  <g id="Icon_labour_process" transform="translate(-851.266 -2563.766)">
    <path id="Path_1004" data-name="Path 1004" d="M114.752,230.329H110.2a.9.9,0,0,1-.895-.9v-49.4a1.8,1.8,0,0,0-1.791-1.8h-50.3a1.8,1.8,0,0,0-1.8,1.8v50.294a1.8,1.8,0,0,0,1.8,1.8H106.61a.9.9,0,0,1,.9.9v4.551a.889.889,0,0,0,.891.893h6.348a.9.9,0,0,0,.9-.893v-6.349a.9.9,0,0,0-.9-.9" transform="translate(795.848 2385.53)" fill="#8fc740"></path>
    <g id="Group_2702" data-name="Group 2702" transform="translate(7324.214 3249.115)">
      <g id="RICOH_User_First_001" data-name="RICOH_User First_001" transform="translate(-6464 -676.05)">
        <g id="Group_2684" data-name="Group 2684" transform="translate(3.88 4.064)">
          <g id="Group_2681" data-name="Group 2681" transform="translate(3.699)">
            <path id="Path_2029" data-name="Path 2029" d="M200.04,154.082a14.3,14.3,0,0,1,2.068-1.584,14.173,14.173,0,0,1,19.217,20.03" transform="translate(-198.94 -150.33)" fill="none" stroke="#fff" stroke-miterlimit="10" stroke-width="1.5"></path>
            <g id="Group_2680" data-name="Group 2680" transform="translate(0 2.571)">
              <path id="Path_2030" data-name="Path 2030" d="M191.6,180.571a1.012,1.012,0,1,1,.012-1.43A1.013,1.013,0,0,1,191.6,180.571Z" transform="translate(-189.743 -178.703)" fill="#fff"></path>
              <path id="Path_2031" data-name="Path 2031" d="M190.4,179.376a1.146,1.146,0,1,0-1.621-.014,1.148,1.148,0,0,0,1.621.014Zm-1.418-1.444a.877.877,0,1,1-.011,1.241.878.878,0,0,1,.011-1.241Z" transform="translate(-188.452 -177.412)" fill="#fff"></path>
            </g>
          </g>
          <g id="Group_2683" data-name="Group 2683" transform="translate(0 6.217)">
            <path id="Path_2032" data-name="Path 2032" d="M173.257,234.266a14.3,14.3,0,0,1-2.068,1.584,14.173,14.173,0,0,1-19.217-20.03" transform="translate(-149.48 -215.82)" fill="none" stroke="#fff" stroke-miterlimit="10" stroke-width="1.5"></path>
            <g id="Group_2682" data-name="Group 2682" transform="translate(22.584 17.335)">
              <path id="Path_2033" data-name="Path 2033" d="M389.111,400.148a1.011,1.011,0,1,1-.013,1.431,1.013,1.013,0,0,1,.013-1.431Z" transform="translate(-388.675 -399.724)" fill="#fff"></path>
              <path id="Path_2034" data-name="Path 2034" d="M387.745,398.77a1.147,1.147,0,1,0,1.621.014,1.148,1.148,0,0,0-1.621-.014Zm1.418,1.444a.877.877,0,1,1,.011-1.241.878.878,0,0,1-.011,1.241Z" transform="translate(-387.402 -398.442)" fill="#fff"></path>
            </g>
          </g>
        </g>
        <g id="Group_2689" data-name="Group 2689" transform="translate(0 0)">
          <g id="Group_2686" data-name="Group 2686" transform="translate(7.951 4.813)">
            <path id="Path_2035" data-name="Path 2035" d="M215.748,169.85a18.122,18.122,0,0,1-23.378,27.441" transform="translate(-192.37 -168.746)" fill="none" stroke="#fff" stroke-miterlimit="10" stroke-width="1.5"></path>
            <g id="Group_2685" data-name="Group 2685" transform="translate(22.271)">
              <path id="Path_2036" data-name="Path 2036" d="M428.7,161.369a1.012,1.012,0,1,1,1.431-.006A1.012,1.012,0,0,1,428.7,161.369Z" transform="translate(-428.266 -159.505)" fill="#fff"></path>
              <path id="Path_2037" data-name="Path 2037" d="M427.329,160.18a1.146,1.146,0,1,0-.006-1.621,1.148,1.148,0,0,0,.006,1.621Zm1.426-1.436a.877.877,0,1,1-1.241,0,.878.878,0,0,1,1.241,0Z" transform="translate(-426.991 -158.221)" fill="#fff"></path>
            </g>
          </g>
          <g id="Group_2688" data-name="Group 2688">
            <path id="Path_2038" data-name="Path 2038" d="M113.616,138.145A18.122,18.122,0,0,1,136.994,110.7" transform="translate(-108.61 -107.52)" fill="none" stroke="#fff" stroke-miterlimit="10" stroke-width="1.5"></path>
            <g id="Group_2687" data-name="Group 2687" transform="translate(3.822 29.438)">
              <path id="Path_2039" data-name="Path 2039" d="M152.014,419.347a1.012,1.012,0,1,1-1.43.006,1.012,1.012,0,0,1,1.43-.006Z" transform="translate(-150.155 -418.92)" fill="#fff"></path>
              <path id="Path_2040" data-name="Path 2040" d="M150.825,417.973a1.146,1.146,0,1,0,.006,1.621,1.148,1.148,0,0,0-.006-1.621ZM149.4,419.41a.877.877,0,1,1,1.241,0,.878.878,0,0,1-1.241,0Z" transform="translate(-148.871 -417.641)" fill="#fff"></path>
            </g>
          </g>
        </g>
        <path id="Path_2041" data-name="Path 2041" d="M191.91,221.258l.678-.664a1.429,1.429,0,0,1,.5-.316l5.4-2.01a1.418,1.418,0,0,0,.924-1.329h0a1.421,1.421,0,0,0-.288-.855c-.648-.861-2.171-3.084-2.171-5a7.279,7.279,0,0,1,.332-2.156,5.351,5.351,0,0,1,4.7-3.723c.1-.008.2-.011.3-.011a4.659,4.659,0,0,1,.484.028,5.371,5.371,0,0,1,4.554,3.709,7.263,7.263,0,0,1,.332,2.154c0,1.92-1.522,4.143-2.171,5a1.421,1.421,0,0,0-.288.855h0a1.418,1.418,0,0,0,.924,1.329l5.4,2.01a1.407,1.407,0,0,1,.5.316l.678.664" transform="translate(-184.003 -195.919)" fill="none" stroke="#fff" stroke-miterlimit="10" stroke-width="1.5"></path>
      </g>
    </g>
  </g>
</svg>
