<svg xmlns="http://www.w3.org/2000/svg" width="100" height="100" viewBox="0 0 100 100">
  <g id="Icon_increased_productivity" transform="translate(-0.25 -1068.899)">
    <path id="Path_273" data-name="Path 273" d="M153.923,264.719h-7.559a1.487,1.487,0,0,1-1.485-1.486V181.222a2.983,2.983,0,0,0-2.974-2.986H58.4a2.989,2.989,0,0,0-2.984,2.986v83.5a2.987,2.987,0,0,0,2.984,2.986h82a1.491,1.491,0,0,1,1.5,1.493v7.555a1.476,1.476,0,0,0,1.479,1.483h10.539a1.486,1.486,0,0,0,1.5-1.483V266.212a1.494,1.494,0,0,0-1.5-1.493" transform="translate(-55.168 890.663)" fill="#8fc740"></path>
    <g id="RICOH_ecpectations_001" transform="translate(-117.976 1029.398)">
      <rect id="Rectangle_1028" data-name="Rectangle 1028" width="0.049" height="11.853" transform="translate(156.037 102.642)" fill="none" stroke="#fff" stroke-miterlimit="10" stroke-width="2"></rect>
      <path id="Path_2100" data-name="Path 2100" d="M264.62,221.139h-3.486v31.9h-12.8V241.19h3.534l-3.583-4.445V221.139H244.8l9.91-12.339,6.327,7.882Z" transform="translate(-92.248 -138.548)" fill="none" stroke="#fff" stroke-miterlimit="10" stroke-width="2"></path>
      <path id="Path_2101" data-name="Path 2101" d="M369.708,63.451h-3.486V87.826c.024,6.963,0,7.061,0,11.749s-.059.3,0,9.626v5.307H353.47V82.591h3.486l-3.571-4.457v-14.7H349.9L359.81,51.1Z" transform="translate(-184.584 0)" fill="none" stroke="#fff" stroke-miterlimit="10" stroke-width="2"></path>
      <path id="Path_2102" data-name="Path 2102" d="M159.62,386.327h-3.583V398.18H143.249V386.327H139.8L149.71,374l6.327,7.882Z" transform="translate(0 -283.685)" fill="none" stroke="#fff" stroke-miterlimit="10" stroke-width="2"></path>
    </g>
  </g>
</svg>
