<svg xmlns="http://www.w3.org/2000/svg" width="60.234" height="60.234" viewBox="0 0 60.234 60.234">
  <g id="Icon_human_resources" transform="translate(-851.266 -2563.766)">
    <path id="Path_1004" data-name="Path 1004" d="M114.752,230.329H110.2a.9.9,0,0,1-.895-.9v-49.4a1.8,1.8,0,0,0-1.791-1.8h-50.3a1.8,1.8,0,0,0-1.8,1.8v50.294a1.8,1.8,0,0,0,1.8,1.8H106.61a.9.9,0,0,1,.9.9v4.551a.889.889,0,0,0,.891.893h6.348a.9.9,0,0,0,.9-.893v-6.349a.9.9,0,0,0-.9-.9" transform="translate(795.848 2385.53)" fill="#8fc740"></path>
    <g id="Group_2706" data-name="Group 2706" transform="translate(827.066 2406.011)">
      <path id="Path_2048" data-name="Path 2048" d="M273.248,179.721a5.624,5.624,0,1,1-5.621-5.621A5.612,5.612,0,0,1,273.248,179.721Z" transform="translate(-216.724)" fill="none" stroke="#fff" stroke-linecap="round" stroke-linejoin="round" stroke-miterlimit="10" stroke-width="1.5" fill-rule="evenodd"></path>
      <circle id="Ellipse_18" data-name="Ellipse 18" cx="4.087" cy="4.087" r="4.087" transform="translate(59.123 177.024)" fill="none" stroke="#fff" stroke-linecap="round" stroke-linejoin="round" stroke-miterlimit="10" stroke-width="1.5"></circle>
      <path id="Path_2049" data-name="Path 2049" d="M509.47,371.685h-7.987a11.258,11.258,0,0,0-2.883-5.22,6.692,6.692,0,0,1,10.87,5.22Z" transform="translate(-439.57 -179.803)" fill="none" stroke="#fff" stroke-linecap="round" stroke-linejoin="round" stroke-miterlimit="10" stroke-width="1.5" fill-rule="evenodd"></path>
      <circle id="Ellipse_19" data-name="Ellipse 19" cx="4.087" cy="4.087" r="4.087" transform="translate(34.504 177.024)" fill="none" stroke="#fff" stroke-linecap="round" stroke-linejoin="round" stroke-miterlimit="10" stroke-width="1.5"></circle>
      <path id="Path_2050" data-name="Path 2050" d="M42.765,366.465a11.339,11.339,0,0,0-2.883,5.22H31.9a6.688,6.688,0,0,1,10.865-5.22Z" transform="translate(0 -179.803)" fill="none" stroke="#fff" stroke-linecap="round" stroke-linejoin="round" stroke-miterlimit="10" stroke-width="1.5" fill-rule="evenodd"></path>
      <path id="Path_2051" data-name="Path 2051" d="M218.81,376.8H200.4a9.432,9.432,0,0,1,.389-2.668A9.209,9.209,0,0,1,218.81,376.8Z" transform="translate(-158.705 -182.252)" fill="none" stroke="#fff" stroke-linecap="round" stroke-linejoin="round" stroke-miterlimit="10" stroke-width="1.5" fill-rule="evenodd"></path>
    </g>
  </g>
</svg>
