<svg id="Icon-Confirm" xmlns="http://www.w3.org/2000/svg" xmlns:xlink="http://www.w3.org/1999/xlink" width="60" height="60" viewBox="0 0 60 60">
  <defs>
    <clipPath id="clip-path">
      <rect id="Rectangle_675" data-name="Rectangle 675" width="47.808" height="46.851" transform="translate(85 337)"/>
    </clipPath>
    <clipPath id="clip-path-2">
      <rect id="Rectangle_674" data-name="Rectangle 674" width="46.851" height="45.895" transform="translate(0 0)"/>
    </clipPath>
    <clipPath id="clip-path-4">
      <rect id="Rectangle_672" data-name="Rectangle 672" width="46.851" height="45.895"/>
    </clipPath>
  </defs>
  <path id="Path_273" data-name="Path 273" d="M114.521,230.126h-4.535a.892.892,0,0,1-.891-.892V180.027a1.79,1.79,0,0,0-1.784-1.791h-50.1a1.794,1.794,0,0,0-1.79,1.791v50.1a1.792,1.792,0,0,0,1.79,1.791h49.2a.894.894,0,0,1,.9.9v4.533a.886.886,0,0,0,.887.89h6.324a.892.892,0,0,0,.9-.89v-6.325a.9.9,0,0,0-.9-.9" transform="translate(-55.418 -178.236)" fill="#768ec7"/>
  <g id="Group_1538" data-name="Group 1538" transform="translate(7 6.712)">
    <g id="Icon_6" transform="translate(-89.808 -340.709)" clip-path="url(#clip-path)">
      <g id="Group_1943" data-name="Group 1943" transform="translate(85.956 337.956)" clip-path="url(#clip-path-2)">
        <g id="Group_1942" data-name="Group 1942" transform="translate(0 0)" clip-path="url(#clip-path-2)">
          <g id="Group_1941" data-name="Group 1941" transform="translate(0 0)" clip-path="url(#clip-path-4)">
            <path id="Path_1320" data-name="Path 1320" d="M44.9,26.044a18.487,18.487,0,0,1-36.97,0,18.487,18.487,0,0,1,36.97,0Z" transform="translate(-2.899 -2.862)" fill="rgba(0,0,0,0)" stroke="#fff" stroke-miterlimit="10" stroke-width="2"/>
            <path id="Path_1321" data-name="Path 1321" d="M21.026,33.367l5.257,5.183L40.436,24.59" transform="translate(-7.214 -8.388)" fill="rgba(0,0,0,0)" stroke="#fff" stroke-miterlimit="10" stroke-width="2"/>
          </g>
        </g>
      </g>
    </g>
  </g>
</svg>
