<svg xmlns="http://www.w3.org/2000/svg" xmlns:xlink="http://www.w3.org/1999/xlink" width="60.234" height="60.234" viewBox="0 0 60.234 60.234"><defs><style>.a {
  fill: none;
  stroke: #fff;
  stroke-width: 2px;
}

.b {
  fill: #1859a9;
}

.c {
  clip-path: url("#a");
}

.d {
  fill: #fff;
}

</style><clipPath id="a"><rect class="a" width="37.422" height="42.584"></rect></clipPath></defs><path class="b" d="M114.752,230.329H110.2a.9.9,0,0,1-.895-.9v-49.4a1.8,1.8,0,0,0-1.791-1.8h-50.3a1.8,1.8,0,0,0-1.8,1.8v50.294a1.8,1.8,0,0,0,1.8,1.8H106.61a.9.9,0,0,1,.9.9v4.551a.889.889,0,0,0,.891.893h6.348a.9.9,0,0,0,.9-.893v-6.349a.9.9,0,0,0-.9-.9" transform="translate(-55.418 -178.236)"></path><g transform="translate(8.563 5.169)"><g class="c"><path class="d" d="M67.259,16.434l-1.17-.2a1.663,1.663,0,0,0-.283-.027H61.947V11.844a7.02,7.02,0,0,0-14.035,0v4.362H43.9a.986.986,0,0,0-.148.008L42.6,16.4V11.832a12.329,12.329,0,1,1,24.659,0Zm-3.312-2.228h1.312V11.832a10.329,10.329,0,1,0-20.659,0v2.374h1.312v-2.4a9.02,9.02,0,0,1,18.034,0v2.4Z" transform="translate(-36.141 4.739)"></path><path class="d" d="M3.019,285h21.9a3.6,3.6,0,0,1,.629.057h0a3.524,3.524,0,0,1,2.89,3.466v12.357a3.525,3.525,0,0,1-3.524,3.519H3.024A3.525,3.525,0,0,1-.5,300.881V288.524a3.52,3.52,0,0,1,3.1-3.5l.014,0A3.805,3.805,0,0,1,3.019,285ZM25.2,287.025a1.612,1.612,0,0,0-.275-.025H3.019c-.05,0-.116.006-.191.014a1.519,1.519,0,0,0-1.328,1.51v12.357A1.523,1.523,0,0,0,3.024,302.4h21.9a1.523,1.523,0,0,0,1.524-1.519V288.524A1.525,1.525,0,0,0,25.2,287.025Z" transform="translate(4.739 -266.055)"></path><path class="d" d="M211.167,364.844h-1.411a2.022,2.022,0,0,1-2.02-2.02V359.2a3.791,3.791,0,1,1,5.451.087v3.539A2.022,2.022,0,0,1,211.167,364.844Zm-1.431-5.966s0,.007,0,.011v3.935a.019.019,0,0,0,.02.02h1.411a.019.019,0,0,0,.02-.02v-4.49l.4-.3a1.768,1.768,0,0,0,.71-1.432V356.6a1.8,1.8,0,1,0-2.923,1.4l.439.357Z" transform="translate(-191.788 -330.363)"></path></g></g></svg>