<svg xmlns="http://www.w3.org/2000/svg" xmlns:xlink="http://www.w3.org/1999/xlink" width="60.234" height="60.234" viewBox="0 0 60.234 60.234">
    <defs>
        <style>.a, .e {
  fill: none;
}

.a {
  stroke: #707070;
  stroke-width: 2px;
}

.b {
  fill: #00328f;
}

.c {
  clip-path: url("#a");
}

.d {
  fill: #fff;
}

</style>
        <clipPath id="a">
            <rect class="a" width="40.569" height="41.601"></rect>
        </clipPath>
    </defs>
    <path class="b" d="M114.752,230.329H110.2a.9.9,0,0,1-.895-.9v-49.4a1.8,1.8,0,0,0-1.791-1.8h-50.3a1.8,1.8,0,0,0-1.8,1.8v50.294a1.8,1.8,0,0,0,1.8,1.8H106.61a.9.9,0,0,1,.9.9v4.551a.889.889,0,0,0,.891.893h6.348a.9.9,0,0,0,.9-.893v-6.349a.9.9,0,0,0-.9-.9" transform="translate(-55.418 -178.236)"></path>
    <g transform="translate(6.304 6.255)">
        <g class="c" transform="translate(0 0)">
            <path class="d" d="M15.725,31.949A16.224,16.224,0,0,1,4.252,4.252a16.225,16.225,0,0,1,27.7,11.472,16.534,16.534,0,0,1-.083,1.659,17.433,17.433,0,0,1-.352,2.106l-1.948-.453a15.409,15.409,0,0,0,.311-1.859,14.507,14.507,0,0,0,.072-1.453A14.224,14.224,0,0,0,5.667,5.667,14.225,14.225,0,0,0,15.725,29.949a14.454,14.454,0,0,0,2.125-.158l.295,1.978A16.46,16.46,0,0,1,15.725,31.949Z" transform="translate(3.544 3.544)"></path>
            <path class="d" d="M238.708,58.717,234,54.009V41h2V53.181l4.122,4.122Z" transform="translate(-215.732 -34.327)"></path>
            <path class="d" d="M6.674-1A7.674,7.674,0,1,1-1,6.674,7.683,7.683,0,0,1,6.674-1Zm0,13.348A5.674,5.674,0,1,0,1,6.674,5.681,5.681,0,0,0,6.674,12.348Z" transform="translate(23.177 24.209)"></path>
            <path class="e" d="M.958,0A.958.958,0,1,1,0,.958.958.958,0,0,1,.958,0Z" transform="translate(29.152 30.161)"></path>
            <path class="d" d="M345.08,393.956a6.293,6.293,0,0,1-4.932-2.448l-.123-.155.123-.155a6.191,6.191,0,0,1,9.864,0l.123.155-.123.155A6.292,6.292,0,0,1,345.08,393.956Zm-4.413-2.6a5.684,5.684,0,0,0,8.826,0,5.68,5.68,0,0,0-8.826,0Z" transform="translate(-315.052 -360.235)"></path>
            <path class="d" d="M381.439,398.855a1.887,1.887,0,1,1,0-3.775v.5a1.387,1.387,0,1,0,1.387,1.387h.5A1.89,1.89,0,0,1,381.439,398.855Z" transform="translate(-351.329 -365.848)"></path>
            <path class="d" d="M394.4,410.784v-.5a.355.355,0,1,0-.355-.355h-.5a.855.855,0,1,1,.855.855Z" transform="translate(-364.29 -378.809)"></path>
        </g>
    </g>
</svg>