<svg xmlns="http://www.w3.org/2000/svg" width="60.234" height="60.234" viewBox="0 0 60.234 60.234">
  <g id="Icon-Data-Security" transform="translate(0 0)">
    <path id="Path_273" data-name="Path 273" d="M114.752,230.329H110.2a.9.9,0,0,1-.895-.9v-49.4a1.8,1.8,0,0,0-1.791-1.8h-50.3a1.8,1.8,0,0,0-1.8,1.8v50.294a1.8,1.8,0,0,0,1.8,1.8H106.61a.9.9,0,0,1,.9.9v4.551a.889.889,0,0,0,.891.893h6.348a.9.9,0,0,0,.9-.893v-6.349a.9.9,0,0,0-.9-.9" transform="translate(-55.418 -178.236)" fill="#303ab2"/>
    <g id="Group_1445" data-name="Group 1445" transform="translate(11.327 8.029)">
      <path id="Path_984" data-name="Path 984" d="M.51,13.523H.543c0,2.449.029,4.9-.015,7.347a4.714,4.714,0,0,0,.591,2.5c.325.571.618,1.161.962,1.72a29.105,29.105,0,0,0,12.992,11.3.8.8,0,0,0,.765,0,30.632,30.632,0,0,0,14.4-14.064,1.7,1.7,0,0,0,.164-.741c.009-5.4,0-10.807.018-16.21a.591.591,0,0,0-.508-.691C25.24,3.314,20.575,1.925,15.9.561a1.751,1.751,0,0,0-.928,0C10.3,1.927,5.639,3.313.969,4.679A.535.535,0,0,0,.5,5.3C.52,8.042.51,10.782.51,13.523Zm24.031,3.814a8.883,8.883,0,1,1-8.883-8.883A8.884,8.884,0,0,1,24.541,17.336Z" transform="translate(0)" fill="none" stroke="#fff" stroke-miterlimit="10" stroke-width="2"/>
      <path id="Path_985" data-name="Path 985" d="M13.021,19.662l2.529,2.787a.48.48,0,0,0,.7.01l10.654-11.07" transform="translate(-1.848 -1.607)" fill="none" stroke="#fff" stroke-linecap="round" stroke-miterlimit="10" stroke-width="2"/>
    </g>
  </g>
</svg>
