<svg xmlns="http://www.w3.org/2000/svg" width="60.234" height="60.234" viewBox="0 0 60.234 60.234">
  <g id="Icon-Powerful-Search-Capabilities" transform="translate(0 0)">
    <path id="Path_273" data-name="Path 273" d="M114.752,230.329H110.2a.9.9,0,0,1-.895-.9v-49.4a1.8,1.8,0,0,0-1.791-1.8h-50.3a1.8,1.8,0,0,0-1.8,1.8v50.294a1.8,1.8,0,0,0,1.8,1.8H106.61a.9.9,0,0,1,.9.9v4.551a.889.889,0,0,0,.891.893h6.348a.9.9,0,0,0,.9-.893v-6.349a.9.9,0,0,0-.9-.9" transform="translate(-55.418 -178.236)" fill="#303ab2"/>
    <g id="Group_2406" data-name="Group 2406" transform="translate(5.56 14.967)">
      <g id="Group_2400" data-name="Group 2400" transform="translate(11.592)">
        <path id="Path_1666" data-name="Path 1666" d="M1.968-1A2.968,2.968,0,1,1-1,1.968,2.968,2.968,0,0,1,1.968-1Zm0,4.891A1.924,1.924,0,1,0,.044,1.968,1.924,1.924,0,0,0,1.968,3.891Z" transform="translate(9.076 17.858)" fill="#fff" stroke="#fff" stroke-width="0.5"/>
        <path id="Path_1667" data-name="Path 1667" d="M-139.421,274.865a.522.522,0,0,1-.522-.522,18.659,18.659,0,0,0-1.475-7.311,18.716,18.716,0,0,0-4.025-5.969,18.715,18.715,0,0,0-5.969-4.025,18.66,18.66,0,0,0-7.311-1.476,18.706,18.706,0,0,0-10.235,3.029.522.522,0,0,1-.723-.152.522.522,0,0,1,.152-.723,19.749,19.749,0,0,1,10.8-3.2,19.7,19.7,0,0,1,7.716,1.558,19.756,19.756,0,0,1,6.3,4.248,19.756,19.756,0,0,1,4.247,6.3,19.7,19.7,0,0,1,1.558,7.716A.522.522,0,0,1-139.421,274.865Z" transform="translate(169.764 -254.517)" fill="#fff" stroke="#fff" stroke-width="0.5"/>
        <path id="Path_1668" data-name="Path 1668" d="M-138.569,278.336a.522.522,0,0,1-.522-.522,15.454,15.454,0,0,0-1.222-6.054,15.5,15.5,0,0,0-3.333-4.944,15.5,15.5,0,0,0-4.944-3.333,15.456,15.456,0,0,0-6.054-1.222,15.421,15.421,0,0,0-6.507,1.422.522.522,0,0,1-.693-.255.522.522,0,0,1,.255-.693,16.458,16.458,0,0,1,6.945-1.518,16.494,16.494,0,0,1,6.461,1.305,16.542,16.542,0,0,1,5.274,3.557,16.541,16.541,0,0,1,3.557,5.274,16.493,16.493,0,0,1,1.305,6.461.522.522,0,0,1-.523.522Z" transform="translate(165.687 -257.986)" fill="#fff" stroke="#fff" stroke-width="0.5"/>
        <path id="Path_1669" data-name="Path 1669" d="M-.478,6.275A.522.522,0,0,1-1,5.753V-.478A.522.522,0,0,1-.478-1a.522.522,0,0,1,.522.522V5.753A.522.522,0,0,1-.478,6.275Z" transform="translate(11.522 1.004)" fill="#fff" stroke="#fff" stroke-width="0.5"/>
        <path id="Path_1670" data-name="Path 1670" d="M5.753.044H-.478A.522.522,0,0,1-1-.478.522.522,0,0,1-.478-1H5.753a.522.522,0,0,1,.522.522A.522.522,0,0,1,5.753.044Z" transform="translate(24.481 20.304)" fill="#fff" stroke="#fff" stroke-width="0.5"/>
        <path id="Path_1671" data-name="Path 1671" d="M-.478,4.45A.522.522,0,0,1-.847,4.3a.522.522,0,0,1,0-.738L3.559-.847a.522.522,0,0,1,.738,0,.522.522,0,0,1,0,.738L-.109,4.3a.522.522,0,0,1-.369.153Z" transform="translate(20.706 6.596)" fill="#fff" stroke="#fff" stroke-width="0.5"/>
        <path id="Path_1672" data-name="Path 1672" d="M-.478,5.95A.522.522,0,0,1-.847,5.8a.522.522,0,0,1,0-.738l5.9-5.905a.522.522,0,0,1,.738,0,.522.522,0,0,1,0,.738L-.109,5.8A.522.522,0,0,1-.478,5.95Z" transform="translate(13.168 12.642)" fill="#fff" stroke="#fff" stroke-width="0.5"/>
      </g>
      <g id="Group_2405" data-name="Group 2405" transform="translate(0 4.231)">
        <path id="Path_1673" data-name="Path 1673" d="M5.882-1A6.883,6.883,0,1,1,1.016,1.017,6.882,6.882,0,0,1,5.882-1Zm0,12.72a5.838,5.838,0,1,0-4.131-1.71,5.838,5.838,0,0,0,4.131,1.71Z" transform="translate(3.554 3.559)" fill="#fff" stroke="#fff" stroke-width="0.5"/>
        <path id="Path_1674" data-name="Path 1674" d="M8.445-1A9.428,9.428,0,1,1,4.77-.258,9.438,9.438,0,0,1,8.445-1Zm0,17.837a8.4,8.4,0,1,0-5.937-2.459,8.4,8.4,0,0,0,5.937,2.459Z" transform="translate(0.991 1)" fill="#fff" stroke="#fff" stroke-width="0.5"/>
        <g id="Group_2401" data-name="Group 2401" transform="translate(6.667 6.207)">
          <path id="Path_1675" data-name="Path 1675" d="M-.478,3.221A.522.522,0,0,1-1,2.7V-.478A.522.522,0,0,1-.478-1a.522.522,0,0,1,.522.522V2.7A.522.522,0,0,1-.478,3.221Z" transform="translate(3.246 1)" fill="#fff" stroke="#fff" stroke-width="0.5"/>
          <path id="Path_1676" data-name="Path 1676" d="M-.478,2.29a.522.522,0,0,1-.369-.153.522.522,0,0,1,0-.738L1.4-.847a.522.522,0,0,1,.738,0,.522.522,0,0,1,0,.738L-.109,2.137A.522.522,0,0,1-.478,2.29Z" transform="translate(1 4.177)" fill="#fff" stroke="#fff" stroke-width="0.5"/>
        </g>
        <g id="Group_2404" data-name="Group 2404" transform="translate(4.069 4.074)">
          <g id="Group_2402" data-name="Group 2402" transform="translate(4.845)">
            <path id="Path_1677" data-name="Path 1677" d="M-.478.56A.522.522,0,0,1-1,.038V-.478A.522.522,0,0,1-.478-1a.522.522,0,0,1,.522.522V.038A.522.522,0,0,1-.478.56Z" transform="translate(1 1)" fill="#fff" stroke="#fff" stroke-width="0.5"/>
            <path id="Path_1678" data-name="Path 1678" d="M-.478.56A.522.522,0,0,1-1,.038V-.478A.522.522,0,0,1-.478-1a.522.522,0,0,1,.522.522V.038A.522.522,0,0,1-.478.56Z" transform="translate(1 10.174)" fill="#fff" stroke="#fff" stroke-width="0.5"/>
          </g>
          <g id="Group_2403" data-name="Group 2403" transform="translate(0 4.845)">
            <path id="Path_1679" data-name="Path 1679" d="M.038.044H-.478A.522.522,0,0,1-1-.478.522.522,0,0,1-.478-1H.038A.522.522,0,0,1,.56-.478.522.522,0,0,1,.038.044Z" transform="translate(10.174 1)" fill="#fff" stroke="#fff" stroke-width="0.5"/>
            <path id="Path_1680" data-name="Path 1680" d="M.038.044H-.478A.522.522,0,0,1-1-.478.522.522,0,0,1-.478-1H.038A.522.522,0,0,1,.56-.478.522.522,0,0,1,.038.044Z" transform="translate(1 1)" fill="#fff" stroke="#fff" stroke-width="0.5"/>
          </g>
        </g>
      </g>
    </g>
  </g>
</svg>
