<svg xmlns="http://www.w3.org/2000/svg" width="60.162" height="60.162" viewBox="0 0 60.162 60.162"><path d="M114.681,230.266h-4.548a.894.894,0,0,1-.894-.894v-49.34a1.8,1.8,0,0,0-1.789-1.8H57.213a1.8,1.8,0,0,0-1.8,1.8v50.234a1.8,1.8,0,0,0,1.8,1.8h49.335a.9.9,0,0,1,.9.9v4.545a.888.888,0,0,0,.89.892h6.341a.894.894,0,0,0,.9-.892v-6.342a.9.9,0,0,0-.9-.9" transform="translate(-55.418 -178.236)" fill="#758cc5"/><g transform="translate(11.132 8.5)"><path d="M-1705.845,1118.064a10.027,10.027,0,0,1-3.408,8.872,4.975,4.975,0,0,0-1.725,3.055l-.336,2.364a1.265,1.265,0,0,1-1.251,1.086h-6.808a1.264,1.264,0,0,1-1.252-1.091l-.37-2.675a4.883,4.883,0,0,0-1.57-2.933,9.993,9.993,0,0,1-3.272-7.413,10.036,10.036,0,0,1,11.182-9.972A10.058,10.058,0,0,1-1705.845,1118.064Z" transform="translate(1731.921 -1103.522)" fill="none" stroke="#fff" stroke-miterlimit="10" stroke-width="1.5"/><path d="M0,0H7.309a0,0,0,0,1,0,0V2.371A2.983,2.983,0,0,1,4.326,5.354H2.983A2.983,2.983,0,0,1,0,2.371V0A0,0,0,0,1,0,0Z" transform="translate(12.209 30.341)" fill="none" stroke="#fff" stroke-miterlimit="10" stroke-width="1.5"/><line x2="4.504" transform="translate(14.844 32.976)" fill="none" stroke="#fff" stroke-miterlimit="10" stroke-width="1.5"/><line y2="3.57" transform="translate(15.779 0)" fill="none" stroke="#fff" stroke-miterlimit="10" stroke-width="1.5"/><line x2="1.588" y2="3.197" transform="translate(8.013 2.236)" fill="none" stroke="#fff" stroke-miterlimit="10" stroke-width="1.5"/><line x2="2.844" y2="2.157" transform="translate(2.324 7.74)" fill="none" stroke="#fff" stroke-miterlimit="10" stroke-width="1.5"/><line x2="3.507" y2="0.667" transform="translate(0 14.833)" fill="none" stroke="#fff" stroke-miterlimit="10" stroke-width="1.5"/><line y1="0.962" x2="3.437" transform="translate(1.615 22.562)" fill="none" stroke="#fff" stroke-miterlimit="10" stroke-width="1.5"/><line x1="1.633" y2="3.174" transform="translate(22.288 2.23)" fill="none" stroke="#fff" stroke-miterlimit="10" stroke-width="1.5"/><line x1="2.905" y2="2.075" transform="translate(26.862 7.969)" fill="none" stroke="#fff" stroke-miterlimit="10" stroke-width="1.5"/><line x1="3.532" y2="0.515" transform="translate(28.423 15.407)" fill="none" stroke="#fff" stroke-miterlimit="10" stroke-width="1.5"/><line x1="3.376" y1="1.158" transform="translate(26.719 22.322)" fill="none" stroke="#fff" stroke-miterlimit="10" stroke-width="1.5"/><line y2="19.298" transform="translate(15.949 10.114)" fill="none" stroke="#fff" stroke-miterlimit="10" stroke-width="1.5"/><path d="M-1711.374,1120.11s-.213-2.613-2.51-2.82a3.45,3.45,0,0,0-3.807,3.305c-.042,1.616.877,3.557,4.191,3.557a2.639,2.639,0,0,1,2.508,2.822c0,1.125-1.084,2.187-3.187,2.187,0,0-2.975.255-3.145-2.38" transform="translate(1730.127 -1105.28)" fill="none" stroke="#fff" stroke-miterlimit="10" stroke-width="1.5"/></g></svg>