<svg xmlns="http://www.w3.org/2000/svg" width="111" height="111" viewBox="0 0 111 111"><g transform="translate(0 -1069)"><path d="M164.758,274.233h-8.39a1.65,1.65,0,0,1-1.649-1.65V181.55a3.311,3.311,0,0,0-3.3-3.314H58.73a3.318,3.318,0,0,0-3.312,3.314v92.683a3.316,3.316,0,0,0,3.312,3.314h91.024a1.655,1.655,0,0,1,1.663,1.657v8.386a1.639,1.639,0,0,0,1.642,1.646h11.7a1.649,1.649,0,0,0,1.66-1.646v-11.7a1.659,1.659,0,0,0-1.66-1.657" transform="translate(-55.418 890.764)" fill="#768ec7"/><g transform="translate(11.54 1096.741) rotate(-19)"><path d="M1.413-1h53.7a2.416,2.416,0,0,1,2.413,2.413V26.954a2.416,2.416,0,0,1-2.413,2.413H1.413A2.416,2.416,0,0,1-1,26.954V1.413A2.416,2.416,0,0,1,1.413-1Zm53.7,28.367a.413.413,0,0,0,.413-.413V1.413A.413.413,0,0,0,55.112,1H1.413A.413.413,0,0,0,1,1.413V26.954a.413.413,0,0,0,.413.413Z" transform="translate(0 25.005)" fill="#fff"/><path d="M5.673-1A6.673,6.673,0,1,1-1,5.673,6.681,6.681,0,0,1,5.673-1Zm0,11.347A4.673,4.673,0,1,0,1,5.673,4.679,4.679,0,0,0,5.673,10.347Z" transform="translate(22.589)" fill="#fff"/><path d="M0,15.394a1,1,0,0,1-.618-.215,1,1,0,0,1-.166-1.4L10.562-.619a1,1,0,0,1,1.4-.166,1,1,0,0,1,.166,1.4L.785,15.013A1,1,0,0,1,0,15.394Z" transform="translate(12.765 10.191)" fill="#fff"/><path d="M9.772,15.6a1,1,0,0,1-.832-.444L-.831.556A1,1,0,0,1-.556-.831,1,1,0,0,1,.831-.556l9.771,14.6a1,1,0,0,1-.83,1.556Z" transform="translate(32.412 10.086)" fill="#fff"/><g transform="translate(6.356 32.921)"><path d="M5.6,0c3.585,0,5.6,2.425,5.6,5.879s-1.981,5.943-5.6,5.943c-3.667,0-5.6-2.44-5.6-5.943S1.965,0,5.6,0Zm0,10.022c2.343,0,3.21-2.079,3.21-4.142C8.81,3.864,7.876,1.8,5.6,1.8S2.39,3.864,2.39,5.879C2.39,7.942,3.258,10.022,5.6,10.022Z" fill="#fff"/><path d="M0,.537A.537.537,0,0,1,.537,0H2.9C5.386,0,7.662.72,7.662,3.456c0,2.669-1.948,3.635-4.4,3.635H2.292v3.8a.537.537,0,0,1-.537.537H.537A.536.536,0,0,1,0,10.892ZM2.292,5.288h.8c1.146,0,2.177-.377,2.177-1.7S4.273,1.8,3.094,1.8h-.8Z" transform="translate(13.589 0.196)" fill="#fff"/><path d="M0,.537A.537.537,0,0,1,.536,0h6.21V1.8H2.828a.537.537,0,0,0-.536.537V4.08a.537.537,0,0,0,.536.537H6.369v1.8H2.828a.536.536,0,0,0-.536.537V9.091a.536.536,0,0,0,.536.537h3.95v1.8H.536A.536.536,0,0,1,0,10.892Z" transform="translate(23.38 0.196)" fill="#fff"/><path d="M.537,0H2.489a.538.538,0,0,1,.478.293L7.173,8.548h.033V.537A.538.538,0,0,1,7.743,0H8.862A.537.537,0,0,1,9.4.537V10.892a.536.536,0,0,1-.538.537H6.929a.54.54,0,0,1-.479-.292L2.228,2.882H2.194v8.011a.536.536,0,0,1-.536.537H.537A.537.537,0,0,1,0,10.892V.537A.538.538,0,0,1,.537,0Z" transform="translate(32.858 0.196)" fill="#fff"/></g></g></g></svg>