<svg xmlns="http://www.w3.org/2000/svg" width="60.162" height="60.162" viewBox="0 0 60.162 60.162"><path d="M114.681,230.266h-4.548a.894.894,0,0,1-.894-.894v-49.34a1.8,1.8,0,0,0-1.789-1.8H57.213a1.8,1.8,0,0,0-1.8,1.8v50.234a1.8,1.8,0,0,0,1.8,1.8h49.335a.9.9,0,0,1,.9.9v4.545a.888.888,0,0,0,.89.892h6.341a.894.894,0,0,0,.9-.892v-6.342a.9.9,0,0,0-.9-.9" transform="translate(-55.418 -178.236)" fill="#758cc5"/><g transform="translate(9.129 8.448)"><circle cx="3.916" cy="3.916" r="3.916" transform="translate(9.166 21.634)" fill="none" stroke="#fff" stroke-miterlimit="10" stroke-width="1.5"/><path d="M-1967.19,1132.831v-2.609l-2.108-.495a7.48,7.48,0,0,0-.852-2.051l1.1-1.866-1.843-1.843-1.837,1.146a7.338,7.338,0,0,0-2.056-.847l-.541-2.1h-2.607l-.5,2.107a7.517,7.517,0,0,0-2.05.852l-1.866-1.1-1.843,1.843,1.141,1.837a7.276,7.276,0,0,0-.846,2.05l-2.1.541v2.609l2.108.5a7.477,7.477,0,0,0,.853,2.05l-1.1,1.866,1.843,1.843,1.837-1.14a7.307,7.307,0,0,0,2.05.847l.542,2.1h2.609l.495-2.107a7.52,7.52,0,0,0,2.051-.853l1.867,1.1,1.843-1.843-1.129-1.837a7.337,7.337,0,0,0,.847-2.055Z" transform="translate(1989.671 -1106.02)" fill="none" stroke="#fff" stroke-miterlimit="10" stroke-width="1.5"/><path d="M-1953.89,1139.155V1126.99a.067.067,0,0,1,.068-.068l1.992,0a.068.068,0,0,0,.059-.1l-1.927-3.339-1.927-3.339a.068.068,0,0,0-.118,0l-1.928,3.339-1.927,3.339a.068.068,0,0,0,.059.1l1.993,0a.068.068,0,0,1,.068.068v12.165" transform="translate(1983.976 -1105.575)" fill="none" stroke="#fff" stroke-miterlimit="10" stroke-width="1.5"/><path d="M-1964.79,1118.885v-3.449a.068.068,0,0,1,.068-.068l1.993,0a.069.069,0,0,0,.059-.1l-1.927-3.338-1.927-3.339a.068.068,0,0,0-.118,0l-1.928,3.339-1.928,3.338a.068.068,0,0,0,.059.1l1.993,0a.068.068,0,0,1,.068.068v2.594" transform="translate(1986.328 -1103.082)" fill="none" stroke="#fff" stroke-miterlimit="10" stroke-width="1.5"/><path d="M-1954.871,1113.79v-5.329a.068.068,0,0,1,.067-.068l1.993,0a.068.068,0,0,0,.059-.1l-1.927-3.339-1.928-3.338a.068.068,0,0,0-.118,0l-1.927,3.338-1.928,3.339a.068.068,0,0,0,.059.1l1.993,0a.068.068,0,0,1,.068.068v4.9" transform="translate(1984.188 -1101.577)" fill="none" stroke="#fff" stroke-miterlimit="10" stroke-width="1.5"/><path d="M-1990.682,1127.241a12.052,12.052,0,0,1,12.052-12.052" transform="translate(1990.682 -1104.514)" fill="none" stroke="#fff" stroke-miterlimit="10" stroke-width="1.5"/><path d="M-1976.349,1113.282l1.709,1.624-1.538,1.538" transform="translate(1987.589 -1104.103)" fill="none" stroke="#fff" stroke-miterlimit="10" stroke-width="1.5"/></g></svg>