<svg xmlns="http://www.w3.org/2000/svg" width="60.234" height="60.234" viewBox="0 0 60.234 60.234">
  <g id="Icon_less_paper_usage" transform="translate(-851.266 -2563.766)">
    <path id="Path_1004" data-name="Path 1004" d="M114.752,230.329H110.2a.9.9,0,0,1-.895-.9v-49.4a1.8,1.8,0,0,0-1.791-1.8h-50.3a1.8,1.8,0,0,0-1.8,1.8v50.294a1.8,1.8,0,0,0,1.8,1.8H106.61a.9.9,0,0,1,.9.9v4.551a.889.889,0,0,0,.891.893h6.348a.9.9,0,0,0,.9-.893v-6.349a.9.9,0,0,0-.9-.9" transform="translate(795.848 2385.53)" fill="#8fc740"></path>
    <g id="Group_2637" data-name="Group 2637" transform="translate(870.191 2577.125)">
      <g id="Group_2500" data-name="Group 2500" transform="translate(-6.786 -3.155)">
        <path id="Path_1515" data-name="Path 1515" d="M0,0V5.785H5.85Z" transform="translate(18.574 0)" fill="none" stroke="#fff" stroke-linecap="round" stroke-linejoin="round" stroke-miterlimit="10" stroke-width="1.8"></path>
        <g id="Group_2499" data-name="Group 2499" transform="translate(0 0)">
          <path id="Path_1925" data-name="Path 1925" d="M18.784-.155H3.688V25.862H24.4V5.687Z" transform="translate(-3.688 4.246)" fill="#8fc740" stroke="#fff" stroke-width="1.8"></path>
          <path id="Path_1916" data-name="Path 1916" d="M18.784-.155H3.688V25.862H24.4V5.687Z" transform="translate(0.019 0.155)" fill="#8fc740" stroke="#fff" stroke-width="1.8"></path>
          <path id="Path_1911" data-name="Path 1911" d="M0,0H10.23" transform="translate(8.95 20.282)" fill="none" stroke="#fff" stroke-linecap="square" stroke-linejoin="round" stroke-miterlimit="10" stroke-width="1.8"></path>
          <path id="Path_1910" data-name="Path 1910" d="M0,0H10.23" transform="translate(8.95 16.645)" fill="none" stroke="#fff" stroke-linecap="square" stroke-linejoin="round" stroke-miterlimit="10" stroke-width="1.8"></path>
          <path id="Path_1520" data-name="Path 1520" d="M0,0H10.23" transform="translate(8.95 13.009)" fill="none" stroke="#fff" stroke-linecap="square" stroke-linejoin="round" stroke-miterlimit="10" stroke-width="1.8"></path>
          <path id="Path_1521" data-name="Path 1521" d="M0,0H7.339" transform="translate(8.95 9.372)" fill="none" stroke="#fff" stroke-linecap="square" stroke-linejoin="round" stroke-miterlimit="10" stroke-width="1.8"></path>
          <path id="Path_1522" data-name="Path 1522" d="M0,0H4.827" transform="translate(8.95 5.735)" fill="none" stroke="#fff" stroke-linecap="square" stroke-linejoin="round" stroke-miterlimit="10" stroke-width="1.8"></path>
          <g id="Ellipse_20" data-name="Ellipse 20" transform="translate(15.228 18.944)" fill="#8fc740" stroke="#fff" stroke-width="2">
            <circle cx="8.199" cy="8.199" r="8.199" stroke="none"></circle>
            <circle cx="8.199" cy="8.199" r="7.199" fill="none"></circle>
          </g>
          <path id="Path_1927" data-name="Path 1927" d="M229.95,396.945,239.3,386.1" transform="translate(-211.197 -364.38)" fill="none" stroke="#fff" stroke-miterlimit="10" stroke-width="2"></path>
        </g>
      </g>
    </g>
  </g>
</svg>
