<svg xmlns="http://www.w3.org/2000/svg" xmlns:xlink="http://www.w3.org/1999/xlink" width="60" height="60" viewBox="0 0 60 60">
  <defs>
    <clipPath id="clip-path">
      <rect id="Rectangle_1034" data-name="Rectangle 1034" width="39.006" height="29.894" fill="none" stroke="#707070" stroke-width="1.5"></rect>
    </clipPath>
  </defs>
  <g id="Customer-Survey_Stat_guest" transform="translate(0.213 -0.242)">
    <g id="Ricoh_Ribbon_-_Digital_WF" data-name="Ricoh Ribbon - Digital WF" transform="translate(-0.213 0.242)">
      <path id="Path_1007" data-name="Path 1007" d="M114.521,230.126h-4.535a.892.892,0,0,1-.891-.892V180.027a1.79,1.79,0,0,0-1.784-1.791h-50.1a1.794,1.794,0,0,0-1.79,1.791v50.1a1.792,1.792,0,0,0,1.79,1.791h49.2a.9.9,0,0,1,.9.9v4.533a.886.886,0,0,0,.887.89h6.324a.892.892,0,0,0,.9-.89v-6.325a.9.9,0,0,0-.9-.9" transform="translate(-55.418 -178.236)" fill="#606cbf"></path>
    </g>
    <g id="Group_2668" data-name="Group 2668" transform="translate(7.337 11.573)">
      <g id="Group_2667" data-name="Group 2667" clip-path="url('#clip-path')">
        <path id="Path_2069" data-name="Path 2069" d="M10.193,26.062c0,1.83-1.484,3.742-3.314,3.742s-3.314-1.912-3.314-3.742a3.314,3.314,0,1,1,6.628,0Z" transform="translate(-1.034 -6.6)" fill="none" stroke="#fff" stroke-linecap="round" stroke-miterlimit="10" stroke-width="1.5"></path>
        <path id="Path_2070" data-name="Path 2070" d="M.939,39.23v-2.2a2.8,2.8,0,0,1,3-2.557H8.565a2.8,2.8,0,0,1,3,2.557v2.2" transform="translate(-0.272 -10.002)" fill="none" stroke="#fff" stroke-linecap="round" stroke-miterlimit="10" stroke-width="1.5"></path>
        <path id="Path_2071" data-name="Path 2071" d="M29.534,26.062c0,1.83-1.484,3.742-3.314,3.742s-3.314-1.912-3.314-3.742a3.314,3.314,0,1,1,6.628,0Z" transform="translate(-6.646 -6.6)" fill="none" stroke="#fff" stroke-linecap="round" stroke-miterlimit="10" stroke-width="1.5"></path>
        <path id="Path_2072" data-name="Path 2072" d="M20.28,39.23v-2.2a2.8,2.8,0,0,1,3-2.557h4.628a2.8,2.8,0,0,1,3,2.557v2.2" transform="translate(-5.884 -10.002)" fill="none" stroke="#fff" stroke-linecap="round" stroke-miterlimit="10" stroke-width="1.5"></path>
        <path id="Path_2073" data-name="Path 2073" d="M18.792,4.253C18.792,6.083,17.308,8,15.478,8s-3.314-1.912-3.314-3.742a3.314,3.314,0,1,1,6.628,0Z" transform="translate(-3.529 -0.273)" fill="none" stroke="#fff" stroke-linecap="round" stroke-miterlimit="10" stroke-width="1.5"></path>
        <path id="Path_2074" data-name="Path 2074" d="M9.539,17.421v-2.2a2.8,2.8,0,0,1,3-2.557h4.628a2.8,2.8,0,0,1,3,2.557v2.2" transform="translate(-2.767 -3.675)" fill="none" stroke="#fff" stroke-linecap="round" stroke-miterlimit="10" stroke-width="1.5"></path>
        <path id="Path_2075" data-name="Path 2075" d="M38.133,4.253C38.133,6.083,36.649,8,34.819,8S31.5,6.083,31.5,4.253a3.314,3.314,0,1,1,6.628,0Z" transform="translate(-9.14 -0.273)" fill="none" stroke="#fff" stroke-linecap="round" stroke-miterlimit="10" stroke-width="1.5"></path>
        <path id="Path_2076" data-name="Path 2076" d="M28.88,17.421v-2.2a2.8,2.8,0,0,1,3-2.557h4.628a2.8,2.8,0,0,1,3,2.557v2.2" transform="translate(-8.379 -3.675)" fill="none" stroke="#fff" stroke-linecap="round" stroke-miterlimit="10" stroke-width="1.5"></path>
        <path id="Path_2077" data-name="Path 2077" d="M48.3,26.062c0,1.83-1.484,3.742-3.314,3.742s-3.314-1.912-3.314-3.742a3.314,3.314,0,1,1,6.628,0Z" transform="translate(-12.089 -6.6)" fill="none" stroke="#fff" stroke-linecap="round" stroke-miterlimit="10" stroke-width="1.5"></path>
        <path id="Path_2078" data-name="Path 2078" d="M39.044,39.23v-2.2a2.8,2.8,0,0,1,3-2.557H46.67a2.8,2.8,0,0,1,3,2.557v2.2" transform="translate(-11.328 -10.002)" fill="none" stroke="#fff" stroke-linecap="round" stroke-miterlimit="10" stroke-width="1.5"></path>
      </g>
    </g>
  </g>
</svg>
