<svg xmlns="http://www.w3.org/2000/svg" width="60.234" height="60.234" viewBox="0 0 60.234 60.234"><defs><style>.a{fill:#8fc740;}.b{fill:#fff;}.c,.d{fill:#9bc556;}.d{fill-rule:evenodd;}</style></defs><g transform="translate(-851.266)"><path class="a" d="M114.752,230.329H110.2a.9.9,0,0,1-.895-.9v-49.4a1.8,1.8,0,0,0-1.791-1.8h-50.3a1.8,1.8,0,0,0-1.8,1.8v50.294a1.8,1.8,0,0,0,1.8,1.8H106.61a.9.9,0,0,1,.9.9v4.551a.889.889,0,0,0,.891.893h6.348a.9.9,0,0,0,.9-.893v-6.349a.9.9,0,0,0-.9-.9" transform="translate(795.848 -178.236)"/><g transform="translate(860.5 12.639)"><path class="b" d="M-.8-.8H36.082V25.023H-.8ZM34.482.8H.8V23.423H34.482Z"/><path class="b" d="M-.8-.8H17.677V5.185H-.8ZM16.077.8H.8V3.585H16.077Z" transform="translate(9.202 27.146)"/><g transform="translate(13.897 24.16)"><path class="b" d="M.8,2.986H-.8V0H.8Z"/><path class="b" d="M.8,2.986H-.8V0H.8Z" transform="translate(7.489)"/></g></g><g transform="translate(865.588 9.129)"><ellipse class="c" cx="2.707" cy="2.707" rx="2.707" ry="2.707" transform="translate(15.072 2.568)"/><path class="d" d="M23.454,47.49h-2.18a.593.593,0,0,1-.59-.522l-.147-1.214a5.207,5.207,0,0,1-1.514-.879l-1.127.481a.592.592,0,0,1-.748-.248c-.365-.628-.725-1.259-1.09-1.886a.591.591,0,0,1,.158-.77l.977-.733a5.268,5.268,0,0,1,0-1.751l-.977-.733a.592.592,0,0,1-.158-.77c.365-.628.725-1.259,1.09-1.886a.588.588,0,0,1,.748-.248l1.127.481a5.216,5.216,0,0,1,1.518-.876l.147-1.214a.593.593,0,0,1,.59-.522h2.18a.593.593,0,0,1,.59.522l.147,1.214a5.266,5.266,0,0,1,1.518.876l1.127-.481a.592.592,0,0,1,.748.248c.365.628.725,1.259,1.09,1.886a.591.591,0,0,1-.158.77l-.977.733a5.268,5.268,0,0,1,0,1.751l.977.733a.592.592,0,0,1,.158.77c-.365.628-.725,1.259-1.09,1.886a.588.588,0,0,1-.748.248l-1.127-.481a5.216,5.216,0,0,1-1.518.876l-.147,1.214a.6.6,0,0,1-.594.526Zm-1.09-9.654a3,3,0,1,0,3,3,3,3,0,0,0-3-3ZM34.9,51.492l-1.762-.473a.5.5,0,0,1-.365-.549l.143-1.011a4.384,4.384,0,0,1-1.037-1.037l-1.015.143a.494.494,0,0,1-.549-.365c-.158-.586-.316-1.172-.473-1.762a.5.5,0,0,1,.293-.59l.951-.383a4.426,4.426,0,0,1,.38-1.417l-.631-.8a.5.5,0,0,1,.041-.658L32.161,41.3a.5.5,0,0,1,.658-.041l.8.631a4.349,4.349,0,0,1,1.417-.38l.38-.947a.493.493,0,0,1,.59-.293l1.762.473a.5.5,0,0,1,.365.549L37.993,42.3a4.384,4.384,0,0,1,1.037,1.037l1.015-.143a.494.494,0,0,1,.549.365c.158.586.316,1.172.473,1.762a.5.5,0,0,1-.293.59l-.951.383a4.426,4.426,0,0,1-.38,1.417l.631.8a.5.5,0,0,1-.041.658l-1.289,1.289a.5.5,0,0,1-.658.041l-.8-.635a4.349,4.349,0,0,1-1.417.38l-.38.947a.492.492,0,0,1-.59.3Zm1.21-8.034a2.51,2.51,0,1,0,1.774,3.074,2.508,2.508,0,0,0-1.774-3.074ZM33.048,38.5a.5.5,0,0,0,.59-.293l.38-.947a4.349,4.349,0,0,0,1.417-.38l.8.631a.5.5,0,0,0,.658-.041l1.289-1.289a.5.5,0,0,0,.041-.658l-.631-.8a4.525,4.525,0,0,0,.38-1.417l.951-.383a.493.493,0,0,0,.293-.59c-.158-.586-.316-1.172-.473-1.762A.5.5,0,0,0,38.2,30.2l-1.015.143a4.384,4.384,0,0,0-1.037-1.037l.143-1.011a.494.494,0,0,0-.365-.549l-1.762-.473a.5.5,0,0,0-.59.293l-.38.947a4.349,4.349,0,0,0-1.417.38l-.8-.631a.5.5,0,0,0-.658.041l-1.289,1.289a.5.5,0,0,0-.041.658l.631.8a4.525,4.525,0,0,0-.38,1.417l-.951.383a.493.493,0,0,0-.293.59c.158.586.316,1.172.473,1.762a.5.5,0,0,0,.549.365l1.015-.143a4.384,4.384,0,0,0,1.037,1.037l-.143,1.011a.494.494,0,0,0,.365.549l1.762.474Zm1.21-8.038a2.509,2.509,0,1,1-3.074,1.774A2.51,2.51,0,0,1,34.258,30.459Z" transform="translate(-15.979 -27.256)"/><path class="b" d="M35.029,52.11a1.094,1.094,0,0,1-.292-.04L32.979,51.6a1.1,1.1,0,0,1-.8-1.209l.094-.667a4.978,4.978,0,0,1-.656-.657l-.669.094a1.135,1.135,0,0,1-.153.01,1.1,1.1,0,0,1-1.06-.817c-.158-.586-.315-1.17-.473-1.759a1.1,1.1,0,0,1,.648-1.3l.626-.253a5,5,0,0,1,.241-.9l-.415-.529a1.1,1.1,0,0,1,.091-1.455l1.287-1.287a1.09,1.09,0,0,1,.776-.323,1.107,1.107,0,0,1,.673.231l.532.418a4.933,4.933,0,0,1,.9-.24l.249-.621a1.092,1.092,0,0,1,1.307-.648l1.757.472a1.1,1.1,0,0,1,.8,1.209l-.094.667a4.978,4.978,0,0,1,.656.657l.669-.094a1.135,1.135,0,0,1,.153-.011,1.1,1.1,0,0,1,1.06.817q.235.873.473,1.759a1.1,1.1,0,0,1-.648,1.3l-.626.253a5,5,0,0,1-.241.9l.416.529a1.1,1.1,0,0,1-.09,1.454l-1.288,1.287a1.09,1.09,0,0,1-.776.323,1.107,1.107,0,0,1-.673-.231l0,0-.528-.417a4.934,4.934,0,0,1-.894.24l-.249.621A1.088,1.088,0,0,1,35.029,52.11Zm-1.652-1.648,1.586.426.346-.864a.6.6,0,0,1,.5-.374,3.744,3.744,0,0,0,1.221-.328.6.6,0,0,1,.622.075l.73.576,1.161-1.161-.574-.731a.6.6,0,0,1-.074-.618,3.8,3.8,0,0,0,.328-1.224.6.6,0,0,1,.373-.5l.865-.349q-.213-.794-.427-1.588l-.924.13a.6.6,0,0,1-.571-.245,3.785,3.785,0,0,0-.895-.9.6.6,0,0,1-.249-.575l.13-.919-1.588-.427-.345.86a.6.6,0,0,1-.5.374,3.744,3.744,0,0,0-1.221.328.6.6,0,0,1-.62-.074l-.731-.574L31.36,42.946l.574.731a.6.6,0,0,1,.074.618,3.8,3.8,0,0,0-.328,1.224.6.6,0,0,1-.373.5l-.865.349q.213.794.427,1.588l.924-.13a.6.6,0,0,1,.571.245,3.785,3.785,0,0,0,.895.9.6.6,0,0,1,.249.575Zm2.082-1.47h0a3.11,3.11,0,1,1,3-2.3A3.107,3.107,0,0,1,35.459,48.992Zm0-5.021a1.913,1.913,0,1,0,.5.066A1.909,1.909,0,0,0,35.454,43.971Zm-12,4.119h-2.18a1.2,1.2,0,0,1-1.185-1.048l-.1-.867a5.781,5.781,0,0,1-1.051-.61l-.8.342a1.181,1.181,0,0,1-.47.1,1.2,1.2,0,0,1-1.032-.6q-.274-.471-.546-.946t-.543-.94a1.2,1.2,0,0,1,.317-1.552l.7-.521a5.837,5.837,0,0,1,0-1.214l-.7-.521a1.193,1.193,0,0,1-.317-1.551q.273-.471.544-.942t.546-.945a1.189,1.189,0,0,1,1.5-.5l.8.341a5.786,5.786,0,0,1,1.054-.607l.1-.864a1.2,1.2,0,0,1,1.186-1.05h2.18a1.2,1.2,0,0,1,1.185,1.048l.1.866a5.85,5.85,0,0,1,1.053.607l.8-.343a1.181,1.181,0,0,1,.47-.1,1.2,1.2,0,0,1,1.032.6q.273.471.545.944t.544.942a1.2,1.2,0,0,1-.317,1.552l-.7.521a5.837,5.837,0,0,1,0,1.214l.7.521a1.193,1.193,0,0,1,.317,1.551q-.273.47-.544.941t-.546.946a1.189,1.189,0,0,1-1.5.5l-.8-.341a5.786,5.786,0,0,1-1.054.607l-.1.864v.01A1.194,1.194,0,0,1,23.454,48.09Zm-2.175-1.2h2.172a.024.024,0,0,0,0-.006l.146-1.206a.6.6,0,0,1,.387-.49,4.6,4.6,0,0,0,1.343-.774.6.6,0,0,1,.619-.091l1.123.479c.183-.315.362-.626.542-.938s.36-.625.541-.937l-.972-.729a.6.6,0,0,1-.232-.58,4.648,4.648,0,0,0,0-1.551.6.6,0,0,1,.232-.58l.972-.729c-.18-.311-.361-.625-.542-.938s-.36-.626-.542-.938l-1.123.48a.6.6,0,0,1-.617-.089,4.661,4.661,0,0,0-1.345-.776.6.6,0,0,1-.387-.49L23.453,34.8H21.283l-.146,1.208a.6.6,0,0,1-.387.49,4.6,4.6,0,0,0-1.343.774.6.6,0,0,1-.619.091l-1.123-.479c-.182.314-.362.625-.541.937s-.361.626-.542.938l.972.729a.6.6,0,0,1,.232.58,4.648,4.648,0,0,0,0,1.551.6.6,0,0,1-.232.58l-.972.729c.18.311.361.624.541.937s.361.627.542.939l1.123-.48a.6.6,0,0,1,.619.091,4.593,4.593,0,0,0,1.34.778.6.6,0,0,1,.387.49Zm1.085-2.449a3.6,3.6,0,1,1,3.6-3.6A3.607,3.607,0,0,1,22.364,44.441Zm0-6.005a2.4,2.4,0,1,0,2.4,2.4A2.405,2.405,0,0,0,22.364,38.436Zm10.813.678h0a1.111,1.111,0,0,1-.281-.036l-.009,0L31.131,38.6a1.1,1.1,0,0,1-.8-1.208l.094-.669a4.972,4.972,0,0,1-.657-.656l-.668.094a1.118,1.118,0,0,1-.152.01,1.1,1.1,0,0,1-1.061-.817q-.235-.877-.471-1.754a1.094,1.094,0,0,1,.647-1.307l.628-.253a5.1,5.1,0,0,1,.239-.894l-.416-.53a1.1,1.1,0,0,1,.089-1.452l1.287-1.287a1.082,1.082,0,0,1,.776-.324,1.108,1.108,0,0,1,.675.231l.532.418a4.933,4.933,0,0,1,.9-.24l.249-.621a1.092,1.092,0,0,1,1.018-.687,1.111,1.111,0,0,1,.281.036l1.767.475a1.1,1.1,0,0,1,.8,1.208l-.095.669a4.972,4.972,0,0,1,.657.656l.668-.094a1.116,1.116,0,0,1,.152-.01,1.1,1.1,0,0,1,1.061.817q.235.88.472,1.758a1.093,1.093,0,0,1-.648,1.3l-.628.253a5.1,5.1,0,0,1-.239.894l.416.53a1.1,1.1,0,0,1-.089,1.452l-1.287,1.287a1.082,1.082,0,0,1-.777.325,1.108,1.108,0,0,1-.675-.231l-.532-.418a4.934,4.934,0,0,1-.9.24l-.249.621A1.092,1.092,0,0,1,33.177,39.114Zm-1.649-1.646,1.588.427.345-.86a.6.6,0,0,1,.5-.374,3.744,3.744,0,0,0,1.221-.328.6.6,0,0,1,.62.074l.731.574L37.7,35.818l-.574-.731a.6.6,0,0,1-.074-.618,3.907,3.907,0,0,0,.329-1.229.6.6,0,0,1,.373-.5l.865-.349c-.143-.53-.285-1.058-.427-1.588l-.923.13a.6.6,0,0,1-.573-.248,3.782,3.782,0,0,0-.9-.9.6.6,0,0,1-.246-.572l.13-.92-1.588-.427-.345.86a.6.6,0,0,1-.5.374,3.744,3.744,0,0,0-1.221.328.6.6,0,0,1-.62-.074l-.731-.574-1.161,1.161.574.731a.6.6,0,0,1,.074.618,3.907,3.907,0,0,0-.329,1.228.6.6,0,0,1-.373.5l-.865.349q.213.792.427,1.588l.923-.13a.6.6,0,0,1,.573.248,3.782,3.782,0,0,0,.9.9.6.6,0,0,1,.246.572Zm2.082-1.474a3.11,3.11,0,1,1,3-2.3A3.107,3.107,0,0,1,33.61,35.993Zm0-5.02a1.909,1.909,0,1,0,.493.065A1.91,1.91,0,0,0,33.609,30.973Z" transform="translate(-15.979 -27.256)"/></g></g></svg>