<svg xmlns="http://www.w3.org/2000/svg" xmlns:xlink="http://www.w3.org/1999/xlink" width="60.234" height="60.234" viewBox="0 0 60.234 60.234"><defs><style>.a{fill:#8fc740;}.b{clip-path:url(#a);}.c{fill:#fff;}</style><clipPath id="a"><rect width="41.858" height="40.858"/></clipPath></defs><g transform="translate(-851.266)"><path class="a" d="M114.752,230.329H110.2a.9.9,0,0,1-.895-.9v-49.4a1.8,1.8,0,0,0-1.791-1.8h-50.3a1.8,1.8,0,0,0-1.8,1.8v50.294a1.8,1.8,0,0,0,1.8,1.8H106.61a.9.9,0,0,1,.9.9v4.551a.889.889,0,0,0,.891.893h6.348a.9.9,0,0,0,.9-.893v-6.349a.9.9,0,0,0-.9-.9" transform="translate(795.848 -178.236)"/><g class="b" transform="translate(857.517 6.893)"><path class="c" d="M325.187,1469.1H331.7v2.635a10.012,10.012,0,0,1,1.31.541l.033-.032.263-.265.353-.355c.286-.287.406-.408.569-.574l.639-.648,4.589,4.633-.635.633-.208.209-.354.355c-.1.1-.208.205-.307.3s-.219.214-.3.3l-.006.006-.03.031a10.309,10.309,0,0,1,.54,1.324h2.634v6.511h-2.639a10.332,10.332,0,0,1-.536,1.31l.028.029.006.005c.082.083.181.179.286.282s.217.213.327.322c.158.158.263.264.354.356l.207.209.636.634-4.586,4.627-.745-.747-.469-.471c-.107-.106-.216-.213-.318-.313s-.209-.2-.294-.29l-.044-.044a10.154,10.154,0,0,1-1.3.536v2.636h-6.515v-2.635a10.015,10.015,0,0,1-1.3-.537l-1.856,1.865-4.6-4.608,1.846-1.855a10.348,10.348,0,0,1-.536-1.311H316.1V1478.2h2.634a10.322,10.322,0,0,1,.541-1.324l-1.845-1.854,4.586-4.61,1.861,1.869a10.162,10.162,0,0,1,1.31-.541Zm4.715,1.8h-2.915v1.164a1.348,1.348,0,0,1-.962,1.295,8.339,8.339,0,0,0-1.586.654,1.334,1.334,0,0,1-1.589-.217l-.005-.005-.828-.831-2.048,2.058.834.838a1.337,1.337,0,0,1,.208,1.578,8.5,8.5,0,0,0-.653,1.6,1.347,1.347,0,0,1-1.284.963H317.9v2.911h1.177a1.335,1.335,0,0,1,1.273.926l.006.019a8.527,8.527,0,0,0,.653,1.6,1.348,1.348,0,0,1-.211,1.583l-.008.008-.82.824,2.058,2.061.814-.817a1.338,1.338,0,0,1,1.585-.245l.006,0a8.2,8.2,0,0,0,1.592.657,1.349,1.349,0,0,1,.962,1.295v1.164H329.9v-1.164a1.349,1.349,0,0,1,.961-1.294,8.345,8.345,0,0,0,1.589-.656,1.327,1.327,0,0,1,.638-.167h.14l.6.192.109.108a.9.9,0,0,1,.138.126c.016.014.032.029.049.046.04.04.072.077.1.109s.055.062.081.087l.01.01c.081.082.178.176.282.278l.27.265,2.05-2.068-.244-.24c-.111-.108-.215-.21-.3-.3-.068-.067-.121-.128-.161-.172l-.009-.011a1,1,0,0,1-.085-.075.9.9,0,0,1-.12-.138l-.03-.04-.028-.04-.172-.266v-.92l.108-.2a8.509,8.509,0,0,0,.656-1.607l.006-.019a1.335,1.335,0,0,1,1.273-.926h1.177V1480h-1.173a1.347,1.347,0,0,1-1.285-.964,8.5,8.5,0,0,0-.632-1.56c-.019-.03-.034-.056-.046-.077l-.129-.234.057-.787.059-.138a1.106,1.106,0,0,1,.139-.248q.024-.031.05-.061a.913.913,0,0,1,.072-.084,1,1,0,0,1,.1-.092l0-.005c.04-.045.1-.107.165-.176.1-.1.207-.206.326-.321l.222-.218-2.049-2.069-.284.286-.271.272c-.06.06-.115.11-.155.146l-.02.018a1.018,1.018,0,0,1-.09.1.907.907,0,0,1-.124.106l-.017.013-.05.045-.037.017-.231.159h-.934l-.2-.109a8.2,8.2,0,0,0-1.592-.657,1.348,1.348,0,0,1-.961-1.294Z" transform="translate(-307.167 -1461.015)"/><path class="c" d="M360.682,1508.1a5.582,5.582,0,1,1-5.582,5.587A5.591,5.591,0,0,1,360.682,1508.1Zm0,9.363a3.782,3.782,0,1,0-3.782-3.777A3.783,3.783,0,0,0,360.682,1517.463Z" transform="translate(-339.404 -1493.253)"/><path class="c" d="M422.432,1462.559l-1.3-.752a17.08,17.08,0,0,0-1.288-19.014,17.3,17.3,0,0,0-9.046-6.069l.4-1.446a18.752,18.752,0,0,1,12.7,11.861,18.608,18.608,0,0,1-1.464,15.42Z" transform="translate(-384.868 -1432.91)"/><path class="c" d="M409.134,1432.659l-1.709-2.768,3-1.417.554,1.068-1.812.857,1.027,1.664Z" transform="translate(-382.388 -1427.124)"/><path class="c" d="M279.136,1454.809a19.029,19.029,0,0,1,2.968-17.223,18.652,18.652,0,0,1,13.671-7.334l.09,1.5a17.176,17.176,0,0,0-15.171,11.644,17.549,17.549,0,0,0-.128,10.962Z" transform="translate(-275.756 -1428.777)"/><path class="c" d="M275.576,1554.455l1.071.549-1.406,3-2.778-1.691.591-1.06,1.671,1.019Z" transform="translate(-270.796 -1531.276)"/><path class="c" d="M309.24,1600.247a18.695,18.695,0,0,1-15.879-8.854l1.278-.786a17.188,17.188,0,0,0,17.295,7.927,17.273,17.273,0,0,0,5.184-1.688,17.03,17.03,0,0,0,4.436-3.268l1.073,1.048a18.526,18.526,0,0,1-4.825,3.555,18.812,18.812,0,0,1-8.561,2.065Z" transform="translate(-288.155 -1561.034)"/><path class="c" d="M446.844,1606.586l-.124,3.255-1.2-.041.076-1.966-1.962.067-.042-1.2Z" transform="translate(-412.146 -1574.26)"/></g></g></svg>