<svg id="Icon_Interactive_Map" xmlns="http://www.w3.org/2000/svg" width="60" height="60" viewBox="0 0 60 60">
  <path id="Path_273" data-name="Path 273" d="M114.521,230.126h-4.535a.892.892,0,0,1-.891-.892V180.027a1.79,1.79,0,0,0-1.784-1.791h-50.1a1.794,1.794,0,0,0-1.79,1.791v50.1a1.792,1.792,0,0,0,1.79,1.791h49.2a.894.894,0,0,1,.9.9v4.533a.886.886,0,0,0,.887.89h6.324a.892.892,0,0,0,.9-.89v-6.325a.9.9,0,0,0-.9-.9" transform="translate(-55.418 -178.236)" fill="#768ec7"></path>
  <g id="Group_1962" data-name="Group 1962" transform="translate(7557.297 -3356.657)">
    <path id="Subtraction_1" data-name="Subtraction 1" d="M0,28.606V3.656L9.771.005,9.788,0,20.324,3.656,29.174,0V19.736a2.062,2.062,0,0,0-1.756,1.313,1.973,1.973,0,0,0-1.149-.437l-.1,0a2.04,2.04,0,0,0-1.9,1.291,2.041,2.041,0,0,0-1.194-.463l-.109,0a2.053,2.053,0,0,0-1.82,1.1L19.22,18.923a2.065,2.065,0,0,0-1.7-1.084l-.11,0a2.051,2.051,0,0,0-2.04,1.933,2.087,2.087,0,0,0,.239,1.074l3.9,7.327-9.72-3.736L0,28.606Z" transform="translate(-7547 3366.043)" fill="none" stroke="#fff" stroke-width="1.8"></path>
    <path id="Path_1328" data-name="Path 1328" d="M18.6,9.426l-.454,4.194c-.071.686-.152,1.371-.223,2.057A9.587,9.587,0,0,1,17,18.891a6.779,6.779,0,0,1-9.571,2.555,7.155,7.155,0,0,1-2.537-2.6L2.139,14.412.376,11.563A2.044,2.044,0,0,1,3.1,8.634a2.162,2.162,0,0,1,.686.677l1.1,1.781V2.045A2.091,2.091,0,0,1,5.184.986a2.043,2.043,0,0,1,3.793,1.06V6.132a2.055,2.055,0,0,1,3.054.909,2.047,2.047,0,0,1,2.377-.2,1.987,1.987,0,0,1,.81.926,2.061,2.061,0,0,1,2.4-.214,1.752,1.752,0,0,1,.2.143A2.094,2.094,0,0,1,18.6,9.426Z" transform="translate(-7536.761 3387.611) rotate(-29)" fill="none" stroke="#fff" stroke-miterlimit="10" stroke-width="1.8"></path>
    <line id="Line_189" data-name="Line 189" y2="23.552" transform="translate(-7536.99 3366.581)" fill="none" stroke="#fff" stroke-width="1.8"></line>
    <line id="Line_190" data-name="Line 190" y2="16.486" transform="translate(-7526.393 3370.114)" fill="none" stroke="#fff" stroke-width="1.8"></line>
  </g>
</svg>
