<svg id="Icon-Desk" xmlns="http://www.w3.org/2000/svg" width="60" height="60" viewBox="0 0 60 60">
  <path id="Path_273" data-name="Path 273" d="M114.521,230.126h-4.535a.892.892,0,0,1-.891-.892V180.027a1.79,1.79,0,0,0-1.784-1.791h-50.1a1.794,1.794,0,0,0-1.79,1.791v50.1a1.792,1.792,0,0,0,1.79,1.791h49.2a.894.894,0,0,1,.9.9v4.533a.886.886,0,0,0,.887.89h6.324a.892.892,0,0,0,.9-.89v-6.325a.9.9,0,0,0-.9-.9" transform="translate(-55.418 -178.236)" fill="#768ec7"></path>
  <g id="Group_1537" data-name="Group 1537" transform="translate(10.583 8.666)">
    <g id="Group_1927" data-name="Group 1927" transform="translate(7017.702 -2286.933)">
      <path id="Path_1271" data-name="Path 1271" d="M-6742.286,2341.392h27.187" transform="translate(-280 -39.402)" fill="none" stroke="#fff" stroke-width="2"></path>
      <path id="Path_1272" data-name="Path 1272" d="M-6718.714,2359.368V2341.9" transform="translate(-298.516 -39.801)" fill="none" stroke="#fff" stroke-width="2"></path>
      <path id="Path_1273" data-name="Path 1273" d="M-6718.714,2359.368V2341.9" transform="translate(-281.573 -39.801)" fill="none" stroke="#fff" stroke-width="2"></path>
      <path id="Path_1274" data-name="Path 1274" d="M0,16.943V0" transform="translate(-7000.288 2309.782) rotate(90)" fill="none" stroke="#fff" stroke-width="2"></path>
      <path id="Path_1275" data-name="Path 1275" d="M-6695.026,2291.233l4.847,7.544h10.432" transform="translate(-317.124)" fill="none" stroke="#fff" stroke-width="2"></path>
      <path id="Path_1276" data-name="Path 1276" d="M-6618.6,2314.691h12.733v-14.669" transform="translate(-377.16 -6.904)" fill="none" stroke="#fff" stroke-width="2"></path>
      <path id="Path_1277" data-name="Path 1277" d="M-6611.8,2380.761l2.194-12.039" transform="translate(-382.498 -60.87)" fill="none" stroke="#fff" stroke-width="2"></path>
      <path id="Path_1278" data-name="Path 1278" d="M-6572.45,2368.722l2.192,11.947" transform="translate(-413.412 -60.87)" fill="none" stroke="#fff" stroke-width="2"></path>
      <path id="Path_1279" data-name="Path 1279" d="M-6607.713,2400.373h8.884" transform="translate(-385.711 -85.734)" fill="none" stroke="#fff" stroke-width="2"></path>
    </g>
  </g>
</svg>
