<svg id="Icon-Flexibility" xmlns="http://www.w3.org/2000/svg" width="60" height="60" viewBox="0 0 60 60">
  <path id="Path_273" data-name="Path 273" d="M114.521,230.126h-4.535a.892.892,0,0,1-.891-.892V180.027a1.79,1.79,0,0,0-1.784-1.791h-50.1a1.794,1.794,0,0,0-1.79,1.791v50.1a1.792,1.792,0,0,0,1.79,1.791h49.2a.894.894,0,0,1,.9.9v4.533a.886.886,0,0,0,.887.89h6.324a.892.892,0,0,0,.9-.89v-6.325a.9.9,0,0,0-.9-.9" transform="translate(-55.418 -178.236)" fill="#768ec7"></path>
  <g id="Ricoh_flexibility_-01" transform="translate(8.191 8)">
    <line id="Line_177" data-name="Line 177" y1="38" transform="translate(19.366)" fill="none" stroke="#fff" stroke-miterlimit="10" stroke-width="2"></line>
    <path id="Path_1046" data-name="Path 1046" d="M368.939,331.7H355.3A5.3,5.3,0,0,0,350,337v14.635" transform="translate(-330.634 -314.631)" fill="none" stroke="#fff" stroke-miterlimit="10" stroke-width="2"></path>
    <path id="Path_1047" data-name="Path 1047" d="M98.2,426.3h13.376a5.821,5.821,0,0,1,5.822,5.822v5.25" transform="translate(-98.047 -402.012)" fill="none" stroke="#fff" stroke-miterlimit="10" stroke-width="2"></path>
    <path id="Path_1048" data-name="Path 1048" d="M102.4,357.415,96.2,351.2l6.2-6.2" transform="translate(-96.2 -326.916)" fill="none" stroke="#fff" stroke-miterlimit="10" stroke-width="2"></path>
    <path id="Path_1049" data-name="Path 1049" d="M268.6,114.211,274.811,108l6.211,6.211" transform="translate(-255.445 -108)" fill="none" stroke="#fff" stroke-miterlimit="10" stroke-width="2"></path>
    <path id="Path_1050" data-name="Path 1050" d="M516.8,250.3l6.211,6.211-6.211,6.2" transform="translate(-484.706 -239.442)" fill="none" stroke="#fff" stroke-miterlimit="10" stroke-width="2"></path>
  </g>
</svg>
