<svg xmlns="http://www.w3.org/2000/svg" width="111" height="111" viewBox="0 0 111 111"><g transform="translate(0 -1069)"><path d="M164.758,274.233h-8.39a1.65,1.65,0,0,1-1.649-1.65V181.55a3.311,3.311,0,0,0-3.3-3.314H58.73a3.318,3.318,0,0,0-3.312,3.314v92.683a3.316,3.316,0,0,0,3.312,3.314h91.024a1.655,1.655,0,0,1,1.663,1.657v8.386a1.639,1.639,0,0,0,1.642,1.646h11.7a1.649,1.649,0,0,0,1.66-1.646v-11.7a1.659,1.659,0,0,0-1.66-1.657" transform="translate(-55.418 890.764)" fill="#768ec7"/><g transform="translate(1675.098 882.055)"><path d="M-1652.276,253.131l-2-.016.224-28.418a5.357,5.357,0,0,1,2.715-4.611l13.25-7.455.981,1.743-13.248,7.455a3.351,3.351,0,0,0-1.7,2.884Z" transform="translate(0 0.375)" fill="#fff"/><path d="M-1627.112,266.837a5.351,5.351,0,0,1-2.7-.731l-13.8-8.091,1.011-1.725,13.8,8.091a3.357,3.357,0,0,0,3.338.026l24.808-14.022.984,1.741-24.807,14.022A5.34,5.34,0,0,1-1627.112,266.837Z" transform="translate(0.617 2.667)" fill="#fff"/><path d="M-1600.01,241.838l-2-.016.127-16.325a3.355,3.355,0,0,0-1.655-2.913l-24.573-14.406,1.011-1.725,24.573,14.406a5.361,5.361,0,0,1,2.643,4.654Z" transform="translate(1.558 0)" fill="#fff"/><path d="M-1609.731,228.309l-15.674-9.189a3.358,3.358,0,0,0-3.339-.026l-8.744,4.911-.979-1.744,8.742-4.91a5.364,5.364,0,0,1,5.331.043l15.674,9.189Z" transform="translate(0.929 0.628)" fill="#fff"/><path d="M-1634.6,254.382l-8.534-5a5.361,5.361,0,0,1-2.643-4.654l.143-18.113,2,.016-.143,18.112a3.355,3.355,0,0,0,1.654,2.913l8.535,5Z" transform="translate(0.516 1.172)" fill="#fff"/><path d="M-1627.5,258.1l-.984-1.741,16.112-9.107a2.745,2.745,0,0,0,1.392-2.363l.094-10.6,2,.018-.094,10.6a4.75,4.75,0,0,1-2.408,4.087Z" transform="translate(1.535 1.638)" fill="#fff"/><path d="M-1636.071,242.517l-2-.016.069-8.716a5.364,5.364,0,0,1,2.715-4.612l3.087-1.744.984,1.741-3.087,1.744a3.358,3.358,0,0,0-1.7,2.887Z" transform="translate(0.983 1.274)" fill="#fff"/><path d="M-1627.6,247.707a5.344,5.344,0,0,1-2.7-.732L-1633,245.4l1.011-1.725,2.694,1.579a3.355,3.355,0,0,0,3.339.026l7.618-4.306.984,1.741-7.618,4.305A5.343,5.343,0,0,1-1627.6,247.707Z" transform="translate(1.261 2.095)" fill="#fff"/><path d="M-1617.091,237.517l-2-.016.028-3.415a3.356,3.356,0,0,0-1.654-2.913l-7.54-4.42,1.011-1.725,7.54,4.42a5.362,5.362,0,0,1,2.642,4.654Z" transform="translate(1.549 1.127)" fill="#fff"/><path d="M3.694-1A4.694,4.694,0,1,1-1,3.694,4.7,4.7,0,0,1,3.694-1Zm0,7.387A2.694,2.694,0,1,0,1,3.694,2.7,2.7,0,0,0,3.694,6.387Z" transform="translate(-1637.772 207.987)" fill="#fff"/><path d="M2.38-1A3.38,3.38,0,1,1-1,2.38,3.383,3.383,0,0,1,2.38-1Zm0,4.759A1.38,1.38,0,1,0,1,2.38,1.381,1.381,0,0,0,2.38,3.759Z" transform="translate(-1641.849 222.679)" fill="#fff"/><circle cx="1.931" cy="1.931" r="1.931" transform="translate(-1631.102 226.87)" fill="#fff"/><path d="M1.931-.5A2.431,2.431,0,1,1-.5,1.931,2.434,2.434,0,0,1,1.931-.5Zm0,3.863A1.431,1.431,0,1,0,.5,1.931,1.433,1.433,0,0,0,1.931,3.363Z" transform="translate(-1631.102 226.87)" fill="#fff"/><circle cx="1.931" cy="1.931" r="1.931" transform="translate(-1634.646 243.642)" fill="#fff"/><path d="M1.931-.5A2.431,2.431,0,1,1-.5,1.931,2.434,2.434,0,0,1,1.931-.5Zm0,3.863A1.431,1.431,0,1,0,.5,1.931,1.433,1.433,0,0,0,1.931,3.363Z" transform="translate(-1634.646 243.642)" fill="#fff"/><circle cx="1.931" cy="1.931" r="1.931" transform="translate(-1618.523 238.251)" fill="#fff"/><path d="M1.931-.5A2.431,2.431,0,1,1-.5,1.931,2.434,2.434,0,0,1,1.931-.5Zm0,3.863A1.431,1.431,0,1,0,.5,1.931,1.433,1.433,0,0,0,1.931,3.363Z" transform="translate(-1618.523 238.251)" fill="#fff"/><path d="M2.38-1A3.38,3.38,0,1,1-1,2.38,3.383,3.383,0,0,1,2.38-1Zm0,4.759A1.38,1.38,0,1,0,1,2.38,1.381,1.381,0,0,0,2.38,3.759Z" transform="translate(-1633.563 253.759)" fill="#fff"/><path d="M2.38-1A3.38,3.38,0,1,1-1,2.38,3.383,3.383,0,0,1,2.38-1Zm0,4.759A1.38,1.38,0,1,0,1,2.38,1.381,1.381,0,0,0,2.38,3.759Z" transform="translate(-1610.702 230.749)" fill="#fff"/><path d="M3.694-1A4.694,4.694,0,1,1-1,3.694,4.7,4.7,0,0,1,3.694-1Zm0,7.387A2.694,2.694,0,1,0,1,3.694,2.7,2.7,0,0,0,3.694,6.387Z" transform="translate(-1649.327 253.684)" fill="#fff"/><path d="M3.694-1A4.694,4.694,0,1,1-1,3.694,4.7,4.7,0,0,1,3.694-1Zm0,7.387A2.694,2.694,0,1,0,1,3.694,2.7,2.7,0,0,0,3.694,6.387Z" transform="translate(-1603.031 242.129)" fill="#fff"/></g></g></svg>