<svg xmlns="http://www.w3.org/2000/svg" width="111" height="111" viewBox="0 0 111 111"><g transform="translate(0 -1069)"><path d="M164.758,274.233h-8.39a1.65,1.65,0,0,1-1.649-1.65V181.55a3.311,3.311,0,0,0-3.3-3.314H58.73a3.318,3.318,0,0,0-3.312,3.314v92.683a3.316,3.316,0,0,0,3.312,3.314h91.024a1.655,1.655,0,0,1,1.663,1.657v8.386a1.639,1.639,0,0,0,1.642,1.646h11.7a1.649,1.649,0,0,0,1.66-1.646v-11.7a1.659,1.659,0,0,0-1.66-1.657" transform="translate(-55.418 890.764)" fill="#768ec7"/><g transform="translate(1673.002 1148.347)"><path d="M4.709-1A5.709,5.709,0,1,1-1,4.709,5.715,5.715,0,0,1,4.709-1Zm0,9.417A3.709,3.709,0,1,0,1,4.709,3.713,3.713,0,0,0,4.709,8.417Z" transform="translate(-1627.647 -56.671)" fill="#fff"/><path d="M-1612.92-23.5h-2V-42.448a2.987,2.987,0,0,0-2.984-2.984h-15.17a2.988,2.988,0,0,0-2.985,2.984V-23.5h-2V-42.448a4.99,4.99,0,0,1,4.985-4.984h15.17a4.989,4.989,0,0,1,4.984,4.984Z" transform="translate(2.241 1.415)" fill="#fff"/><path d="M1,38.566H-1V0H1Z" transform="translate(-1628.498 -39.36)" fill="#fff"/><path d="M1,23.3H-1V0H1Z" transform="translate(-1623.249 -24.092)" fill="#fff"/><path d="M1,38.566H-1V0H1Z" transform="translate(-1617.892 -39.36)" fill="#fff"/><g transform="translate(-1651.664 -54.224)"><path d="M-1640.308-31.149h-2v-17.6a1.22,1.22,0,0,0-1.219-1.218h-7.745v-2h7.745a3.222,3.222,0,0,1,3.219,3.218Z" transform="translate(1651.94 55.012)" fill="#fff"/><path d="M0,1.016,0-.984,3.828-1l.008,2Z" transform="translate(10.067 23.943)" fill="#fff"/><path d="M-1648.469-45.619l-4.8-4.8,4.8-4.8,1.414,1.414-3.39,3.39,3.39,3.39Z" transform="translate(1651.859 54.521)" fill="#fff"/></g><g transform="translate(-1608.76 -54.224)"><path d="M-1610.294-31.149h-2v-17.6a3.222,3.222,0,0,1,3.218-3.218h7.745v2h-7.745a1.22,1.22,0,0,0-1.218,1.218Z" transform="translate(1614.562 55.012)" fill="#fff"/><path d="M3.848,1H0V-1H3.848Z" transform="translate(0 23.943)" fill="#fff"/><path d="M-1604.846-45.619l-1.414-1.414,3.391-3.39-3.391-3.39,1.414-1.414,4.8,4.8Z" transform="translate(1615.355 54.521)" fill="#fff"/></g><g transform="translate(-1651.664 -25.3)"><path d="M-1643.527-8.22h-7.745v-2h7.745a1.22,1.22,0,0,0,1.219-1.218v-17.6h2v17.6A3.222,3.222,0,0,1-1643.527-8.22Z" transform="translate(1651.94 29.119)" fill="#fff"/><path d="M3.848,1H0V-1H3.848Z" transform="translate(10.051)" fill="#fff"/><path d="M-1648.469-6.372l-4.8-4.8,4.8-4.8,1.414,1.414-3.39,3.391,3.39,3.391Z" transform="translate(1651.859 31.022)" fill="#fff"/></g><g transform="translate(-1608.76 -25.3)"><path d="M-1601.331-8.22h-7.745a3.222,3.222,0,0,1-3.218-3.218v-17.6h2v17.6a1.22,1.22,0,0,0,1.218,1.218h7.745Z" transform="translate(1614.562 29.119)" fill="#fff"/><path d="M3.848,1H0V-1H3.848Z" fill="#fff"/><path d="M-1604.846-6.372l-1.414-1.414,3.391-3.39-3.391-3.39,1.414-1.414,4.8,4.8Z" transform="translate(1615.355 31.022)" fill="#fff"/></g><g transform="translate(-1653.271 -32.45)"><path d="M-1649.88-26.489l-4.8-4.8,4.8-4.8,1.414,1.414-3.391,3.39,3.391,3.39Z" transform="translate(1653.271 35.392)" fill="#fff"/><path d="M8.6,1H0V-1H8.6Z" transform="translate(0.241 4.178)" fill="#fff"/></g><g transform="translate(-1601.85 -32.45)"><path d="M-1603.223-26.489l-1.414-1.414,3.391-3.39-3.391-3.39,1.414-1.414,4.8,4.8Z" transform="translate(1608.67 35.392)" fill="#fff"/><path d="M8.6,1H0V-1H8.6Z" transform="translate(0 4.178)" fill="#fff"/></g></g></g></svg>