<svg id="Icon-data_insights" xmlns="http://www.w3.org/2000/svg" width="60.234" height="60.234"
  viewBox="0 0 60.234 60.234">
  <path id="Path_1004" data-name="Path 1004"
    d="M114.752,230.329H110.2a.9.9,0,0,1-.895-.9v-49.4a1.8,1.8,0,0,0-1.791-1.8h-50.3a1.8,1.8,0,0,0-1.8,1.8v50.294a1.8,1.8,0,0,0,1.8,1.8H106.61a.9.9,0,0,1,.9.9v4.551a.889.889,0,0,0,.891.893h6.348a.9.9,0,0,0,.9-.893v-6.349a.9.9,0,0,0-.9-.9"
    transform="translate(-55.418 -178.236)" fill="#0F7AC9" />
  <g id="Group_2659" data-name="Group 2659" transform="translate(0 -2)">
    <path id="Path_1865" data-name="Path 1865"
      d="M-1614.09,1336.358l6.527-1.39a1.467,1.467,0,0,1,1.669.791,1.425,1.425,0,0,1-.834,1.712l-11.391,4.792a17.926,17.926,0,0,1-6.046,1.007,14.309,14.309,0,0,1-3.715-.451l-1.292-.386"
      transform="translate(1647.733 -1299.678)" fill="none" stroke="#fff" stroke-linecap="round" stroke-miterlimit="10"
      stroke-width="2" />
    <path id="Path_1866" data-name="Path 1866" d="M-1629.156,1343.275l-2.5,1.669-5.84-10.845,2.5-1.669Z"
      transform="translate(1647.718 -1299.682)" fill="none" stroke="#fff" stroke-linecap="round" stroke-miterlimit="10"
      stroke-width="2" />
    <path id="Path_1867" data-name="Path 1867"
      d="M-1624.156,1338.271h7.925a2.086,2.086,0,0,0,2.085-2.086h0a2.086,2.086,0,0,0-2.085-2.086h-5.423l-.711-.534a9.855,9.855,0,0,0-5.911-1.968h0a9.848,9.848,0,0,0-3.907.809l-1.986.859"
      transform="translate(1647.724 -1299.684)" fill="none" stroke="#fff" stroke-linecap="round" stroke-miterlimit="10"
      stroke-width="2" />
    <ellipse id="Ellipse_20" data-name="Ellipse 20" cx="3.615" cy="3.615" rx="3.615" ry="3.615"
      transform="translate(16.847 15.756)" fill="none" stroke="#fff" stroke-miterlimit="10" stroke-width="1.8" />
    <ellipse id="Ellipse_21" data-name="Ellipse 21" cx="2.837" cy="2.837" rx="2.837" ry="2.837"
      transform="translate(33.977 21.322)" fill="none" stroke="#fff" stroke-miterlimit="10" stroke-width="1.5" />
    <path id="Path_1802" data-name="Path 1802"
      d="M-1881.792,571.627v-2.407l-1.945-.457a6.906,6.906,0,0,0-.787-1.891l1.014-1.723-1.7-1.7-1.7,1.057a6.775,6.775,0,0,0-1.9-.781l-.5-1.94h-2.407l-.457,1.945a6.938,6.938,0,0,0-1.892.787l-1.723-1.014-1.7,1.7,1.052,1.7a6.741,6.741,0,0,0-.781,1.892l-1.94.5V571.7l1.945.457a6.953,6.953,0,0,0,.787,1.891l-1.014,1.723,1.7,1.7,1.695-1.052a6.733,6.733,0,0,0,1.892.781l.5,1.94h2.409l.457-1.945a6.921,6.921,0,0,0,1.891-.787l1.724,1.014,1.7-1.7-1.042-1.7a6.781,6.781,0,0,0,.782-1.9Z"
      transform="translate(1910.927 -551.093)" fill="none" stroke="#fff" stroke-miterlimit="10" stroke-width="1.8" />
    <path id="Path_1940" data-name="Path 1940"
      d="M-1885.526,569.509v-1.889l-1.527-.359a5.406,5.406,0,0,0-.617-1.484l.8-1.353-1.334-1.335-1.331.83a5.318,5.318,0,0,0-1.489-.613l-.391-1.523h-1.889l-.359,1.527a5.442,5.442,0,0,0-1.485.617l-1.353-.8-1.335,1.335.826,1.331a5.285,5.285,0,0,0-.613,1.485l-1.523.392v1.89l1.527.359a5.45,5.45,0,0,0,.617,1.484l-.8,1.353,1.335,1.334,1.33-.826a5.284,5.284,0,0,0,1.485.614l.392,1.523h1.89l.359-1.527a5.432,5.432,0,0,0,1.485-.617l1.353.8,1.334-1.335-.818-1.331a5.319,5.319,0,0,0,.613-1.489Z"
      transform="translate(1929.148 -544.436)" fill="none" stroke="#fff" stroke-miterlimit="10" stroke-width="1.5" />
  </g>
</svg>