<svg id="Icon-data_insights" xmlns="http://www.w3.org/2000/svg" width="60.234" height="60.234" viewBox="0 0 60.234 60.234">
  <path id="Path_1004" data-name="Path 1004" d="M114.752,230.329H110.2a.9.9,0,0,1-.895-.9v-49.4a1.8,1.8,0,0,0-1.791-1.8h-50.3a1.8,1.8,0,0,0-1.8,1.8v50.294a1.8,1.8,0,0,0,1.8,1.8H106.61a.9.9,0,0,1,.9.9v4.551a.889.889,0,0,0,.891.893h6.348a.9.9,0,0,0,.9-.893v-6.349a.9.9,0,0,0-.9-.9" transform="translate(-55.418 -178.236)" fill="#56a3da"/>
  <g id="Group_2661" data-name="Group 2661" transform="translate(9.477 8.54)">
    <path id="Path_1475" data-name="Path 1475" d="M425.557,1404.385a4.6,4.6,0,0,1-2.556-4.114,6.314,6.314,0,0,1,2.548-5.2,4.565,4.565,0,0,1,2.6-.949,2.6,2.6,0,0,1,.788.119.58.58,0,0,0,.458,0,.611.611,0,0,0,.283-.356c0-.065,2.02-6.405,8.732-6.854s8.678,4.736,8.733,4.967h0a.576.576,0,0,0,.616.378s3.882-.427,6.272,1.707a6.363,6.363,0,0,1,1.917,4.981,5.782,5.782,0,0,1-1.665,4.358c-2.209,2.115-5.909,1.982-5.947,1.982H429.32a7.457,7.457,0,0,1-3.764-1.017Z" transform="translate(-421.787 -1385.42)" fill="none" stroke="#fff" stroke-miterlimit="8" stroke-width="2" fill-rule="evenodd"/>
    <path id="Path_1476" data-name="Path 1476" d="M501.82,1450.91a.91.91,0,1,1-.91-.91A.909.909,0,0,1,501.82,1450.91Z" transform="translate(-483.214 -1435.676)" fill="none" stroke="#fff" stroke-miterlimit="8" stroke-width="2" fill-rule="evenodd"/>
    <path id="Path_1477" data-name="Path 1477" d="M494.079,1436.618a4.68,4.68,0,0,0-7.079,0" transform="translate(-472.843 -1423.71)" fill="none" stroke="#fff" stroke-miterlimit="8" stroke-width="2" fill-rule="evenodd"/>
    <path id="Path_1478" data-name="Path 1478" d="M488.719,1420.629a6.777,6.777,0,0,0-10.719,0" transform="translate(-465.663 -1410.148)" fill="none" stroke="#fff" stroke-miterlimit="8" stroke-width="2" fill-rule="evenodd"/>
    <path id="Path_1479" data-name="Path 1479" d="M423.933,1511.067a2.885,2.885,0,0,1-2.073-.888,3.109,3.109,0,0,1,0-4.292,2.865,2.865,0,0,1,4.147,0,3.109,3.109,0,0,1,0,4.292,2.884,2.884,0,0,1-2.073.888Z" transform="translate(-420.191 -1479.553)" fill="none" stroke="#fff" stroke-miterlimit="8" stroke-width="2" fill-rule="evenodd"/>
    <path id="Path_1480" data-name="Path 1480" d="M495.066,1527.032a3.032,3.032,0,1,1-.871-2.13,3.043,3.043,0,0,1,.871,2.13h0Z" transform="translate(-474.439 -1494.709)" fill="none" stroke="#fff" stroke-miterlimit="8" stroke-width="2" fill-rule="evenodd"/>
    <path id="Path_1481" data-name="Path 1481" d="M561.135,1511.067a3.19,3.19,0,0,1-2.217-.888,2.966,2.966,0,0,1,0-4.292,3.211,3.211,0,0,1,4.433,0,2.959,2.959,0,0,1,0,4.287,3.19,3.19,0,0,1-2.214.892Z" transform="translate(-529.484 -1479.553)" fill="none" stroke="#fff" stroke-miterlimit="8" stroke-width="2" fill-rule="evenodd"/>
    <path id="Path_1482" data-name="Path 1482" d="M454.247,1478v6.549a1.943,1.943,0,0,1-1.94,1.946H450" transform="translate(-443.326 -1458.014)" fill="none" stroke="#fff" stroke-miterlimit="8" stroke-width="2" fill-rule="evenodd"/>
    <path id="Path_1483" data-name="Path 1483" d="M537,1478v6.549a1.943,1.943,0,0,0,1.94,1.946h2.307" transform="translate(-512.731 -1458.014)" fill="none" stroke="#fff" stroke-miterlimit="8" stroke-width="2" fill-rule="evenodd"/>
    <path id="Path_1484" data-name="Path 1484" d="M504,1487.3V1478" transform="translate(-486.405 -1458.014)" fill="none" stroke="#fff" stroke-miterlimit="8" stroke-width="2" fill-rule="evenodd"/>
  </g>
</svg>
