<svg xmlns="http://www.w3.org/2000/svg" width="172.754" height="172.754" viewBox="0 0 172.754 172.754"><defs><style>.a {
  fill: #0f7ac9;
}

.b, .d {
  fill: #fff;
}

.c {
  fill: #69a1d5;
}

.d {
  fill-rule: evenodd;
}

</style></defs><g transform="translate(1.5 1.5)"><path class="a" d="M222.634,325.045H209.8a2.524,2.524,0,0,1-2.522-2.523V183.3a5.064,5.064,0,0,0-5.049-5.068H60.483a5.075,5.075,0,0,0-5.065,5.068V325.045a5.071,5.071,0,0,0,5.065,5.068h139.2a2.531,2.531,0,0,1,2.544,2.534v12.826a2.506,2.506,0,0,0,2.51,2.518h17.891a2.523,2.523,0,0,0,2.538-2.518V327.579a2.537,2.537,0,0,0-2.538-2.534" transform="translate(-55.418 -178.236)"></path><path class="a" d="M222.634,349.49H204.743a4.006,4.006,0,0,1-4.01-4.018V332.647a1.028,1.028,0,0,0-1.044-1.034H60.483a6.574,6.574,0,0,1-6.565-6.568V183.3a6.574,6.574,0,0,1,6.565-6.568H202.232a6.566,6.566,0,0,1,6.549,6.568V322.522a1.023,1.023,0,0,0,1.022,1.023h12.831a4.041,4.041,0,0,1,4.038,4.034v17.894A4.033,4.033,0,0,1,222.634,349.49ZM60.483,179.736a3.571,3.571,0,0,0-3.565,3.568V325.045a3.571,3.571,0,0,0,3.565,3.568h139.2a4.031,4.031,0,0,1,4.044,4.034v12.826a1,1,0,0,0,1.01,1.018h17.891a1.017,1.017,0,0,0,1.038-1.018V327.579a1.037,1.037,0,0,0-1.038-1.034H209.8a4.027,4.027,0,0,1-4.022-4.023V183.3a3.562,3.562,0,0,0-3.549-3.568Z" transform="translate(-55.418 -178.236)"></path><g transform="translate(21.341 17.948)"><path class="b" d="M18.359,15A3.359,3.359,0,0,0,15,18.359V36.411a1.679,1.679,0,0,0,3.359,0V18.359H36.411a1.679,1.679,0,0,0,0-3.359Z" transform="translate(-1.172 0)"></path><path class="c" d="M18.359,14.5H36.411a2.179,2.179,0,1,1,0,4.359H18.859V36.411a2.179,2.179,0,1,1-4.359,0V18.359A3.863,3.863,0,0,1,18.359,14.5Zm18.052,3.359a1.179,1.179,0,1,0,0-2.359H18.359A2.862,2.862,0,0,0,15.5,18.359V36.411a1.179,1.179,0,1,0,2.359,0V17.859Z" transform="translate(-1.172 0)"></path><path class="b" d="M87.179,15a1.679,1.679,0,0,0,0,3.359h18.052V36.411a1.679,1.679,0,0,0,3.359,0V18.359A3.359,3.359,0,0,0,105.232,15Z" transform="translate(-12.478 0)"></path><path class="c" d="M87.179,14.5h18.052a3.863,3.863,0,0,1,3.859,3.859V36.411a2.179,2.179,0,1,1-4.359,0V18.859H87.179a2.179,2.179,0,1,1,0-4.359Zm19.732,23.09a1.181,1.181,0,0,0,1.179-1.179V18.359a2.862,2.862,0,0,0-2.859-2.859H87.179a1.179,1.179,0,1,0,0,2.359h18.552V36.411A1.181,1.181,0,0,0,106.911,37.59Z" transform="translate(-12.478 0)"></path><path class="b" d="M18.359,87.179a1.679,1.679,0,0,0-3.359,0v18.052a3.359,3.359,0,0,0,3.359,3.359H36.411a1.679,1.679,0,0,0,0-3.359H18.359Z" transform="translate(-1.172 -11.305)"></path><path class="c" d="M16.679,85a2.182,2.182,0,0,1,2.179,2.179v17.552H36.411a2.179,2.179,0,1,1,0,4.359H18.359a3.863,3.863,0,0,1-3.859-3.859V87.179A2.182,2.182,0,0,1,16.679,85Zm19.732,23.09a1.179,1.179,0,1,0,0-2.359H17.859V87.179a1.179,1.179,0,1,0-2.359,0v18.052a2.862,2.862,0,0,0,2.859,2.859Z" transform="translate(-1.172 -11.305)"></path><path class="b" d="M108.59,87.179a1.679,1.679,0,0,0-3.359,0v18.052H87.179a1.679,1.679,0,0,0,0,3.359h18.052a3.359,3.359,0,0,0,3.359-3.359Z" transform="translate(-12.478 -11.305)"></path><path class="c" d="M106.911,85a2.182,2.182,0,0,1,2.179,2.179v18.052a3.863,3.863,0,0,1-3.859,3.859H87.179a2.179,2.179,0,1,1,0-4.359h17.552V87.179A2.182,2.182,0,0,1,106.911,85Zm-1.679,23.09a2.862,2.862,0,0,0,2.859-2.859V87.179a1.179,1.179,0,1,0-2.359,0v18.552H87.179a1.179,1.179,0,1,0,0,2.359Z" transform="translate(-12.478 -11.305)"></path><path class="d" d="M60.854,49a13.8,13.8,0,0,0-6.222,1.473,1.679,1.679,0,0,0-.034,2.982,2.887,2.887,0,1,1-3.748,4.163,1.679,1.679,0,0,0-2.963.347A13.856,13.856,0,1,0,60.854,49ZM59.49,56.006a6.215,6.215,0,0,0-.994-3.382,10.485,10.485,0,1,1-8.061,8.959,6.247,6.247,0,0,0,9.055-5.578Z" transform="translate(-6.304 -5.452)"></path><path class="c" d="M60.854,48.5A14.343,14.343,0,1,1,47.42,57.789a2.179,2.179,0,0,1,3.845-.451,2.387,2.387,0,1,0,3.1-3.442,2.179,2.179,0,0,1,.044-3.87A14.209,14.209,0,0,1,60.854,48.5Zm0,27.708a13.354,13.354,0,1,0-6-25.289,1.179,1.179,0,0,0-.024,2.094,3.387,3.387,0,1,1-4.4,4.884,1.178,1.178,0,0,0-.977-.519,1.19,1.19,0,0,0-.138.008,1.175,1.175,0,0,0-.966.755,13.358,13.358,0,0,0,12.5,18.066Zm0-24.35a11,11,0,1,1-11,11,11.165,11.165,0,0,1,.08-1.33l.085-.708.636.321a5.683,5.683,0,0,0,2.585.613A5.745,5.745,0,0,0,58.075,52.9l-.387-.6.695-.159A11.061,11.061,0,0,1,60.854,51.859Zm0,20.991a10,10,0,0,0,0-19.991,10.112,10.112,0,0,0-1.579.124,6.749,6.749,0,0,1-8.4,9.34c-.009.177-.014.355-.014.532A10.007,10.007,0,0,0,60.854,72.85Z" transform="translate(-6.304 -5.452)"></path><path class="b" d="M37.332,48.358a1.679,1.679,0,0,1,.284,2.358,18.977,18.977,0,0,0,0,23.955,1.679,1.679,0,1,1-2.642,2.074,22.333,22.333,0,0,1,0-28.1,1.679,1.679,0,0,1,2.358-.284Z" transform="translate(-3.578 -5.292)"></path><path class="c" d="M36.3,47.5a2.158,2.158,0,0,1,1.344.465,2.182,2.182,0,0,1,.369,3.06,18.477,18.477,0,0,0,0,23.338,2.179,2.179,0,1,1-3.428,2.691,22.833,22.833,0,0,1,0-28.72A2.167,2.167,0,0,1,36.3,47.5Zm0,29.388a1.179,1.179,0,0,0,.927-1.908,19.476,19.476,0,0,1,0-24.573,1.179,1.179,0,1,0-1.855-1.456,21.833,21.833,0,0,0,0,27.485A1.173,1.173,0,0,0,36.3,76.888Z" transform="translate(-3.578 -5.292)"></path><path class="b" d="M89.145,48.358a1.679,1.679,0,0,1,2.358.284,22.333,22.333,0,0,1,0,28.1,1.679,1.679,0,0,1-2.642-2.074,18.976,18.976,0,0,0,0-23.955,1.679,1.679,0,0,1,.284-2.358Z" transform="translate(-12.959 -5.292)"></path><path class="c" d="M90.181,47.5a2.167,2.167,0,0,1,1.715.834,22.833,22.833,0,0,1,0,28.72,2.179,2.179,0,0,1-3.429-2.691,18.477,18.477,0,0,0,0-23.338,2.182,2.182,0,0,1,.369-3.06A2.158,2.158,0,0,1,90.181,47.5Zm0,29.388a1.173,1.173,0,0,0,.929-.451,21.833,21.833,0,0,0,0-27.485,1.179,1.179,0,0,0-1.855,1.456,19.476,19.476,0,0,1,0,24.573,1.181,1.181,0,0,0,.2,1.656A1.167,1.167,0,0,0,90.181,76.888Z" transform="translate(-12.959 -5.292)"></path><path class="d" d="M54.97,34c-20.352,0-38.1,10.176-46.794,25.187l-.488.842.488.842c8.7,15.011,26.441,25.187,46.794,25.187s38.1-10.176,46.793-25.187l.488-.842-.488-.842C93.065,44.176,75.322,34,54.97,34Zm0,48.7c-18.875,0-35.169-9.244-43.386-22.67C19.8,46.6,36.095,37.359,54.97,37.359S90.139,46.6,98.356,60.029C90.139,73.455,73.845,82.7,54.97,82.7Z" transform="translate(0 -3.047)"></path><path class="c" d="M54.97,33.5a58.39,58.39,0,0,1,28.007,7.026A49.539,49.539,0,0,1,102.2,58.936l.633,1.093-.633,1.093A49.539,49.539,0,0,1,82.977,79.532a59.337,59.337,0,0,1-56.015,0A49.54,49.54,0,0,1,7.744,61.121l-.633-1.093.633-1.093A49.54,49.54,0,0,1,26.963,40.526,58.391,58.391,0,0,1,54.97,33.5Zm46.7,26.529-.343-.591A48.54,48.54,0,0,0,82.5,41.4a58.337,58.337,0,0,0-55.054,0A48.541,48.541,0,0,0,8.609,59.438l-.343.591.343.591A48.541,48.541,0,0,0,27.443,78.655a58.337,58.337,0,0,0,55.054,0A48.54,48.54,0,0,0,101.331,60.62Zm-46.7-23.17A55.115,55.115,0,0,1,80.9,43.218a46.561,46.561,0,0,1,17.887,16.55l.16.261-.16.261A46.561,46.561,0,0,1,80.9,76.84a56.027,56.027,0,0,1-51.851,0A46.563,46.563,0,0,1,11.157,60.29L11,60.029l.16-.261a46.563,46.563,0,0,1,17.887-16.55A55.115,55.115,0,0,1,54.97,36.859Zm42.8,23.17A45.63,45.63,0,0,0,80.424,44.1a55.027,55.027,0,0,0-50.908,0A45.632,45.632,0,0,0,12.171,60.029,45.632,45.632,0,0,0,29.516,75.958a55.027,55.027,0,0,0,50.908,0A45.63,45.63,0,0,0,97.768,60.029Z" transform="translate(0 -3.047)"></path></g></g></svg>