<svg xmlns="http://www.w3.org/2000/svg" width="60.234" height="60.234" viewBox="0 0 60.234 60.234"><defs><style>.a {
  fill: #0f7ac9;
}

.b {
  fill: #fff;
}

</style></defs><g transform="translate(-851.266 -2563.766)"><path class="a" d="M114.752,230.329H110.2a.9.9,0,0,1-.895-.9v-49.4a1.8,1.8,0,0,0-1.791-1.8h-50.3a1.8,1.8,0,0,0-1.8,1.8v50.294a1.8,1.8,0,0,0,1.8,1.8H106.61a.9.9,0,0,1,.9.9v4.551a.889.889,0,0,0,.891.893h6.348a.9.9,0,0,0,.9-.893v-6.349a.9.9,0,0,0-.9-.9" transform="translate(795.848 2385.53)"></path><g transform="translate(859.411 2575.145)"><path class="b" d="M-.75-.75h15.4V10.044H-.75Zm13.9,1.5H.75V8.544h12.4Z" transform="translate(11.674)"></path><g transform="translate(14.997 3.678)"><path class="b" d="M-1895.973,406.64l-1.564-1.564,1.564-1.564,1.061,1.061-.5.5.5.5Z" transform="translate(1896.476 -404.043)"></path><path class="b" d="M-1885.817,406.64l-1.061-1.061.5-.5-.5-.5,1.061-1.061,1.564,1.564Z" transform="translate(1892.58 -404.043)"></path><path class="b" d="M7.13.75H0V-.75H7.13Z" transform="translate(0.061 1.053)"></path></g><path class="b" d="M-1887.224,417.1H-1898.2l2.339-2.049a.059.059,0,0,0,.02-.044V412.49h6.187l.006,2.5a.059.059,0,0,0,.02.047Zm-7.235-1.5h3.429a1.555,1.555,0,0,1-.12-.6l0-1h-3.19V415A1.557,1.557,0,0,1-1894.46,415.6Z" transform="translate(1911.369 -403.903)"></path><path class="b" d="M-.75-.75h15.4V10.044H-.75Zm13.9,1.5H.75V8.544h12.4Z" transform="translate(0 16.606)"></path><g transform="translate(3.324 20.284)"><path class="b" d="M-1914.943,433.631l-1.564-1.564,1.564-1.564,1.061,1.061-.5.5.5.5Z" transform="translate(1915.446 -431.034)"></path><path class="b" d="M-1904.786,433.631l-1.061-1.061.5-.5-.5-.5,1.061-1.061,1.564,1.564Z" transform="translate(1911.55 -431.034)"></path><path class="b" d="M7.13.75H0V-.75H7.13Z" transform="translate(0.061 1.053)"></path></g><path class="b" d="M-1906.195,444.086h-10.974l2.336-2.05a.058.058,0,0,0,.02-.044v-2.511h6.187l.006,2.5a.058.058,0,0,0,.02.045Zm-7.235-1.5h3.43a1.555,1.555,0,0,1-.12-.6l0-1h-3.19v1.011A1.559,1.559,0,0,1-1913.43,442.586Z" transform="translate(1918.666 -414.287)"></path><path class="b" d="M-.75-.75h15.4V10.044H-.75Zm13.9,1.5H.75V8.544h12.4Z" transform="translate(23.572 16.606)"></path><g transform="translate(26.9 20.284)"><path class="b" d="M-1876.633,433.631l-1.564-1.564,1.564-1.564,1.061,1.061-.5.5.5.5Z" transform="translate(1877.136 -431.034)"></path><path class="b" d="M-1866.48,433.631l-1.061-1.061.5-.5-.5-.5,1.061-1.061,1.564,1.564Z" transform="translate(1873.24 -431.034)"></path><path class="b" d="M7.13.75H0V-.75H7.13Z" transform="translate(0.057 1.053)"></path></g><path class="b" d="M-1867.889,444.086h-10.974l2.336-2.05a.057.057,0,0,0,.02-.043v-2.512h6.187l.006,2.5a.058.058,0,0,0,.02.045Zm-7.235-1.5h3.429a1.556,1.556,0,0,1-.12-.6l0-1.005h-3.19v1.011A1.552,1.552,0,0,1-1875.124,442.586Z" transform="translate(1903.932 -414.287)"></path><path class="b" d="M9.6.75H0V-.75H9.6Z" transform="translate(14.019 21.106)"></path><path class="b" d="M.75,8.685H-.75V0H.75Z" transform="translate(18.58 12.421)"></path></g></g></svg>