<svg xmlns="http://www.w3.org/2000/svg" width="60.234" height="60.234" viewBox="0 0 60.234 60.234"><defs><style>.a {
  fill: #0f7ac9;
}

.b {
  fill: #fff;
}

</style></defs><g transform="translate(-851.266 -2563.766)"><path class="a" d="M114.752,230.329H110.2a.9.9,0,0,1-.895-.9v-49.4a1.8,1.8,0,0,0-1.791-1.8h-50.3a1.8,1.8,0,0,0-1.8,1.8v50.294a1.8,1.8,0,0,0,1.8,1.8H106.61a.9.9,0,0,1,.9.9v4.551a.889.889,0,0,0,.891.893h6.348a.9.9,0,0,0,.9-.893v-6.349a.9.9,0,0,0-.9-.9" transform="translate(795.848 2385.53)"></path><g transform="translate(859.725 2571.605)"><path class="b" d="M-1-1H16.671V16.571H-1ZM15.433.238H.238V15.333H15.433Z" transform="translate(10.988 10.794)"></path><path class="b" d="M2.146-1A3.146,3.146,0,1,1-1,2.146,3.146,3.146,0,0,1,2.146-1Zm0,5.054A1.908,1.908,0,1,0,.238,2.146,1.908,1.908,0,0,0,2.146,4.054Z" transform="translate(19.351 1)"></path><path class="b" d="M2.146-1A3.146,3.146,0,1,1-1,2.146,3.146,3.146,0,0,1,2.146-1Zm0,5.054A1.908,1.908,0,1,0,.238,2.146,1.908,1.908,0,0,0,2.146,4.054Z" transform="translate(22.239 32.227)"></path><path class="b" d="M2.146-1A3.146,3.146,0,1,1-1,2.146,3.146,3.146,0,0,1,2.146-1Zm0,5.054A1.908,1.908,0,1,0,.238,2.146,1.908,1.908,0,0,0,2.146,4.054Z" transform="translate(1.842 5.031)"></path><path class="b" d="M.924-1A1.924,1.924,0,1,1-1,.924,1.924,1.924,0,0,1,.924-1Zm0,2.61A.686.686,0,1,0,.238.924.686.686,0,0,0,.924,1.61Z" transform="translate(13.112 3.726)"></path><path class="b" d="M.924-1A1.924,1.924,0,1,1-1,.924,1.924,1.924,0,0,1,.924-1Zm0,2.61A.686.686,0,1,0,.238.924.686.686,0,0,0,.924,1.61Z" transform="translate(31.343 13.353)"></path><path class="b" d="M.924-1A1.924,1.924,0,1,1-1,.924,1.924,1.924,0,0,1,.924-1Zm0,2.61A.686.686,0,1,0,.238.924.686.686,0,0,0,.924,1.61Z" transform="translate(15.248 31.463)"></path><path class="b" d="M.924-1A1.924,1.924,0,1,1-1,.924,1.924,1.924,0,0,1,.924-1Zm0,2.61A.686.686,0,1,0,.238.924.686.686,0,0,0,.924,1.61Z" transform="translate(2.342 13.473)"></path><path class="b" d="M.924-1A1.924,1.924,0,1,1-1,.924,1.924,1.924,0,0,1,.924-1Zm0,2.61A.686.686,0,1,0,.238.924.686.686,0,0,0,.924,1.61Z" transform="translate(5.471 19.249)"></path><path class="b" d="M.924-1A1.924,1.924,0,1,1-1,.924,1.924,1.924,0,0,1,.924-1Zm0,2.61A.686.686,0,1,0,.238.924.686.686,0,0,0,.924,1.61Z" transform="translate(33.088 20.031)"></path><path class="b" d="M.924-1A1.924,1.924,0,1,1-1,.924,1.924,1.924,0,0,1,.924-1Zm0,2.61A.686.686,0,1,0,.238.924.686.686,0,0,0,.924,1.61Z" transform="translate(6.373 31.523)"></path><path class="b" d="M2.146-1A3.146,3.146,0,1,1-1,2.146,3.146,3.146,0,0,1,2.146-1Zm0,5.054A1.908,1.908,0,1,0,.238,2.146,1.908,1.908,0,0,0,2.146,4.054Z" transform="translate(1 23.743)"></path><path class="b" d="M2.146-1A3.146,3.146,0,1,1-1,2.146,3.146,3.146,0,0,1,2.146-1Zm0,5.054A1.908,1.908,0,1,0,.238,2.146,1.908,1.908,0,0,0,2.146,4.054Z" transform="translate(30.241 4.249)"></path><path class="b" d="M2.146-1A3.146,3.146,0,1,1-1,2.146,3.146,3.146,0,0,1,2.146-1Zm0,5.054A1.908,1.908,0,1,0,.238,2.146,1.908,1.908,0,0,0,2.146,4.054Z" transform="translate(31.866 28.075)"></path><path class="b" d="M-1646.9,97.732l-.713-1.013.429-.3a5.324,5.324,0,0,1,3.006-.974l1.462-.02a8.357,8.357,0,0,0,2.657-.472l9.211-3.228a.99.99,0,0,0,.661-.932V86.2h8.279v1.238h-7.041v3.356a2.229,2.229,0,0,1-1.49,2.1l-9.211,3.228a9.6,9.6,0,0,1-3.051.541l-1.462.02a4.093,4.093,0,0,0-2.31.749Z" transform="translate(1652.868 -72.54)"></path><path class="b" d="M-1617.245,78.637h-1.238V77.363a3.51,3.51,0,0,1,1.114-2.558,3.485,3.485,0,0,1,2.382-.937h2.476v1.238h-2.476a2.251,2.251,0,0,0-1.538.605,2.267,2.267,0,0,0-.719,1.653Z" transform="translate(1642.369 -68.091)"></path><path class="b" d="M-1640.091,88.92l-3.7-.062.021-1.238,3.321.057,9.846-6.334V73.738h1.238v8.28Z" transform="translate(1651.477 -68.065)"></path><path class="b" d="M-1620.608,85.823h-6.973l-2.667-6.505-.08-2.74a2.1,2.1,0,0,0-1-1.733l-1.464-.911.654-1.052,1.464.911a3.343,3.343,0,0,1,1.579,2.745l.073,2.515,2.267,5.529h6.143Z" transform="translate(1647.52 -67.739)"></path><path class="b" d="M-1636.431,101.249l-1.238-.008.116-17.5-5.848-.083a4.317,4.317,0,0,1-3.61-2.032l-1.153-1.837,1.049-.658,1.153,1.837a3.083,3.083,0,0,0,2.579,1.452l7.077.1Z" transform="translate(1653.072 -70.001)"></path><path class="b" d="M-1631.2,105.97l-2.6-2.472.048-5.12a2.423,2.423,0,0,0-1.018-2l-8.533-6.067h-3.265a2.886,2.886,0,0,1-1.827-.654l-1.06-.871.786-.956,1.06.871a1.645,1.645,0,0,0,1.041.371h3.66l8.852,6.294a3.662,3.662,0,0,1,1.539,3.017l-.043,4.581,2.212,2.1Z" transform="translate(1653.534 -73.134)"></path><path class="b" d="M-1642.5,112.123l-.592-1.088,3.759-2.043-.051-2.209,1.238-.028.069,2.965Z" transform="translate(1651.235 -79.974)"></path><path class="b" d="M-1619.5,102.737h-1.238a6.271,6.271,0,0,1,4.643-6.05l.164-.045h5.456v1.238h-5.3A5.032,5.032,0,0,0-1619.5,102.737Z" transform="translate(1643.184 -76.307)"></path><path class="b" d="M-1608.3,106.387l-1.222-2.71-4.118-.055.017-1.238,4.906.066,1.548,3.428Z" transform="translate(1640.601 -78.378)"></path></g></g></svg>