<svg xmlns="http://www.w3.org/2000/svg" width="60.234" height="60.234" viewBox="0 0 60.234 60.234"><defs><style>.a {
  fill: #0f7ac9;
}

.b {
  fill: #fff;
}

</style></defs><g transform="translate(-851.266 -2563.766)"><path class="a" d="M114.752,230.329H110.2a.9.9,0,0,1-.895-.9v-49.4a1.8,1.8,0,0,0-1.791-1.8h-50.3a1.8,1.8,0,0,0-1.8,1.8v50.294a1.8,1.8,0,0,0,1.8,1.8H106.61a.9.9,0,0,1,.9.9v4.551a.889.889,0,0,0,.891.893h6.348a.9.9,0,0,0,.9-.893v-6.349a.9.9,0,0,0-.9-.9" transform="translate(795.848 2385.53)"></path><g transform="translate(862.363 2575.23)"><path class="b" d="M-241.309,224.532a.463.463,0,0,1-.463-.463v-7.317c0-2.767-2.993-5.019-6.672-5.019s-6.672,2.252-6.672,5.019v7.317a.463.463,0,0,1-.462.463.463.463,0,0,1-.463-.463v-7.317a4.84,4.84,0,0,1,.618-2.359,6.1,6.1,0,0,1,1.652-1.886,8.756,8.756,0,0,1,5.326-1.7,8.756,8.756,0,0,1,5.326,1.7,6.1,6.1,0,0,1,1.652,1.886,4.841,4.841,0,0,1,.618,2.359v7.317A.463.463,0,0,1-241.309,224.532Z" transform="translate(256.04 -194.263)"></path><path class="b" d="M-241.308,224.782h0a.713.713,0,0,1-.713-.713v-7.317c0-2.63-2.881-4.769-6.422-4.769s-6.422,2.139-6.422,4.769v7.317a.713.713,0,0,1-.712.713.713.713,0,0,1-.713-.713v-7.317a5.1,5.1,0,0,1,.65-2.481,6.309,6.309,0,0,1,1.72-1.964,8.954,8.954,0,0,1,5.477-1.751,8.951,8.951,0,0,1,5.475,1.75,6.313,6.313,0,0,1,1.722,1.965,5.1,5.1,0,0,1,.65,2.481v7.317A.714.714,0,0,1-241.308,224.782Zm-7.274-13.726a8.449,8.449,0,0,0-5.039,1.654,5.809,5.809,0,0,0-1.582,1.807,4.6,4.6,0,0,0-.586,2.237v7.316a.213.213,0,0,0,.213.213.213.213,0,0,0,.212-.213v-7.317c0-2.905,3.105-5.269,6.922-5.269s6.922,2.364,6.922,5.269v7.317a.213.213,0,0,0,.212.213.213.213,0,0,0,.212-.213v-7.317a4.6,4.6,0,0,0-.586-2.237,5.812,5.812,0,0,0-1.584-1.809,8.447,8.447,0,0,0-5.037-1.652h-.278Z" transform="translate(256.04 -194.263)"></path><path class="b" d="M2.931-1A3.931,3.931,0,1,1-1,2.931,3.931,3.931,0,0,1,2.931-1Zm0,6.941A3.006,3.006,0,1,0-.075,2.931a3.006,3.006,0,0,0,3.006,3.01Z" transform="translate(4.633 10.605)"></path><path class="b" d="M2.931-1.25h0A4.181,4.181,0,1,1-1.25,2.931,4.186,4.186,0,0,1,2.931-1.25Zm0,7.863A3.681,3.681,0,1,0-.75,2.932,3.686,3.686,0,0,0,2.931,6.613Zm0-6.935h0a3.256,3.256,0,1,1,0,6.513h0a3.256,3.256,0,0,1,0-6.513Zm0,6.013A2.756,2.756,0,1,0,.175,2.932,2.76,2.76,0,0,0,2.932,5.691Z" transform="translate(4.633 10.605)"></path><path class="b" d="M2.931-1A3.931,3.931,0,1,1-1,2.931,3.931,3.931,0,0,1,2.931-1Zm0,6.941A3.006,3.006,0,1,0-.075,2.931a3.006,3.006,0,0,0,3.006,3.01Z" transform="translate(13.816 12.202)"></path><path class="b" d="M2.931-1.25h0A4.181,4.181,0,1,1-1.25,2.931,4.186,4.186,0,0,1,2.931-1.25Zm0,7.863A3.681,3.681,0,1,0-.75,2.932,3.686,3.686,0,0,0,2.931,6.613Zm0-6.935h0a3.256,3.256,0,1,1,0,6.513h0a3.256,3.256,0,0,1,0-6.513Zm0,6.013A2.756,2.756,0,1,0,.175,2.932,2.76,2.76,0,0,0,2.932,5.691Z" transform="translate(13.816 12.202)"></path><path class="b" d="M-227.1,206.52h-.036c-.063,0-.127-.011-.19-.017a.462.462,0,0,1-.312-.168.463.463,0,0,1-.1-.34.463.463,0,0,1,.168-.312.462.462,0,0,1,.34-.1l.167.015a.462.462,0,0,1,.426.5A.462.462,0,0,1-227.1,206.52Zm2.294-.19a.463.463,0,0,1-.449-.351.463.463,0,0,1,.338-.56,6.693,6.693,0,0,0,.824-.262.463.463,0,0,1,.355.006.462.462,0,0,1,.246.256.463.463,0,0,1-.006.355.462.462,0,0,1-.256.246,7.619,7.619,0,0,1-.938.3A.462.462,0,0,1-224.805,206.331Zm2.863-1.453a.462.462,0,0,1-.356-.167.463.463,0,0,1,.059-.651,6.8,6.8,0,0,0,.628-.6.463.463,0,0,1,.654-.024.463.463,0,0,1,.025.654,7.726,7.726,0,0,1-.714.677A.462.462,0,0,1-221.942,204.878Zm1.948-2.552a.463.463,0,0,1-.191-.042.463.463,0,0,1-.243-.258.463.463,0,0,1,.011-.354,6.71,6.71,0,0,0,.307-.808.462.462,0,0,1,.578-.307.463.463,0,0,1,.307.578,7.635,7.635,0,0,1-.349.92.463.463,0,0,1-.419.272Zm.641-3.145a.463.463,0,0,1-.463-.452,6.8,6.8,0,0,0-.075-.862.462.462,0,0,1,.388-.527.463.463,0,0,1,.527.388,7.733,7.733,0,0,1,.085.98.463.463,0,0,1-.452.473Zm-.786-3.112a.462.462,0,0,1-.412-.251,6.747,6.747,0,0,0-.444-.742.463.463,0,0,1,.118-.643.463.463,0,0,1,.643.118,7.685,7.685,0,0,1,.5.845.463.463,0,0,1-.2.623.463.463,0,0,1-.212.051Zm-11.719-1.563a.463.463,0,0,1-.311-.121.463.463,0,0,1-.03-.654,7.718,7.718,0,0,1,.708-.683.463.463,0,0,1,.652.053.462.462,0,0,1-.053.652,6.786,6.786,0,0,0-.622.6.463.463,0,0,1-.343.15Zm9.652-.895a.462.462,0,0,1-.277-.092,6.765,6.765,0,0,0-.722-.477.462.462,0,0,1-.172-.631.463.463,0,0,1,.631-.172,7.7,7.7,0,0,1,.821.542.463.463,0,0,1,.09.648.462.462,0,0,1-.371.182Zm-7.016-.938a.462.462,0,0,1-.429-.29.463.463,0,0,1,.257-.6,7.624,7.624,0,0,1,.935-.307.463.463,0,0,1,.563.333.463.463,0,0,1-.333.563,6.7,6.7,0,0,0-.821.27.463.463,0,0,1-.173.032Zm4.088-.378a.464.464,0,0,1-.093-.009,6.749,6.749,0,0,0-.857-.113.463.463,0,0,1-.43-.493.463.463,0,0,1,.493-.43,7.688,7.688,0,0,1,.975.129.463.463,0,0,1,.364.544.463.463,0,0,1-.452.371Z" transform="translate(243.291 -183.752)"></path><path class="b" d="M-227.1,206.77h-.056c-.065,0-.132-.011-.2-.018a.717.717,0,0,1-.481-.259.717.717,0,0,1-.156-.524.717.717,0,0,1,.259-.48.718.718,0,0,1,.524-.156l.16.014a.708.708,0,0,1,.487.247.708.708,0,0,1,.169.518A.715.715,0,0,1-227.1,206.77Zm-.028-.5h.028a.213.213,0,0,0,.212-.2.211.211,0,0,0-.05-.155.211.211,0,0,0-.145-.074l-.173-.015h-.024a.213.213,0,0,0-.134.048.211.211,0,0,0-.077.144.215.215,0,0,0,.046.158.214.214,0,0,0,.143.077Zm2.331.311h-.011a.711.711,0,0,1-.691-.541.714.714,0,0,1,.52-.863,6.463,6.463,0,0,0,.793-.252.717.717,0,0,1,.546.01.717.717,0,0,1,.379.395.717.717,0,0,1-.01.546.717.717,0,0,1-.395.379,7.9,7.9,0,0,1-.968.308A.722.722,0,0,1-224.795,206.581Zm.873-1.206a.211.211,0,0,0-.078.015,6.975,6.975,0,0,1-.856.272.213.213,0,0,0-.155.257.212.212,0,0,0,.206.161h.01a.213.213,0,0,0,.047-.005,7.389,7.389,0,0,0,.9-.288.214.214,0,0,0,.118-.113.211.211,0,0,0,0-.163.212.212,0,0,0-.114-.119A.211.211,0,0,0-223.922,205.375Zm1.981-.247h0a.711.711,0,0,1-.548-.257.713.713,0,0,1,.091-1,6.572,6.572,0,0,0,.605-.573.715.715,0,0,1,.522-.228.71.71,0,0,1,.485.19.713.713,0,0,1,.038,1.007,8,8,0,0,1-.737.7A.714.714,0,0,1-221.941,205.128Zm.67-1.561a.211.211,0,0,0-.156.068,7.07,7.07,0,0,1-.651.617.213.213,0,0,0-.027.3.212.212,0,0,0,.163.076h0a.213.213,0,0,0,.136-.049,7.5,7.5,0,0,0,.69-.655.213.213,0,0,0-.011-.3A.212.212,0,0,0-221.271,203.567Zm1.027-.989v-.048l-.045-.019a.707.707,0,0,1-.373-.4.708.708,0,0,1,.017-.546,6.488,6.488,0,0,0,.3-.779.709.709,0,0,1,.681-.5.712.712,0,0,1,.209.031.713.713,0,0,1,.472.89,7.911,7.911,0,0,1-.361.951.714.714,0,0,1-.645.418Zm.576-1.792a.214.214,0,0,0-.2.15,6.987,6.987,0,0,1-.318.839.214.214,0,0,0-.005.162.211.211,0,0,0,.112.119.215.215,0,0,0,.089.019h.017a.213.213,0,0,0,.174-.124,7.415,7.415,0,0,0,.338-.891.213.213,0,0,0-.141-.265A.213.213,0,0,0-219.668,200.787Zm.321-1.356h-.006a.717.717,0,0,1-.713-.7,6.571,6.571,0,0,0-.072-.83.713.713,0,0,1,.6-.811.718.718,0,0,1,.108-.008.717.717,0,0,1,.7.605,8.014,8.014,0,0,1,.088,1.012.708.708,0,0,1-.2.509.708.708,0,0,1-.5.22Zm-.086-1.846-.033,0a.213.213,0,0,0-.178.242,7.073,7.073,0,0,1,.078.894.214.214,0,0,0,.208.208h.009a.211.211,0,0,0,.149-.066.211.211,0,0,0,.059-.152,7.513,7.513,0,0,0-.082-.948A.214.214,0,0,0-219.433,197.585Zm-.706-1.266h0a.71.71,0,0,1-.634-.387,6.519,6.519,0,0,0-.428-.715.708.708,0,0,1-.114-.533.708.708,0,0,1,.3-.458.709.709,0,0,1,.4-.126.713.713,0,0,1,.587.308,7.964,7.964,0,0,1,.521.872.713.713,0,0,1-.308.959.716.716,0,0,1-.324.078Zm-.475-1.719a.211.211,0,0,0-.12.038.211.211,0,0,0-.089.137.211.211,0,0,0,.034.159,7.026,7.026,0,0,1,.461.77.212.212,0,0,0,.188.115h0a.214.214,0,0,0,.1-.023.213.213,0,0,0,.092-.286,7.457,7.457,0,0,0-.488-.817A.213.213,0,0,0-220.615,194.6Zm-11.244.155a.711.711,0,0,1-.48-.186.708.708,0,0,1-.232-.494.708.708,0,0,1,.185-.513,8,8,0,0,1,.731-.705.713.713,0,0,1,.461-.17.712.712,0,0,1,.544.252.708.708,0,0,1,.167.519.708.708,0,0,1-.249.485,6.555,6.555,0,0,0-.6.579.715.715,0,0,1-.526.232v0Zm.665-1.567a.21.21,0,0,0-.137.051,7.5,7.5,0,0,0-.685.661.211.211,0,0,0-.055.153.211.211,0,0,0,.069.147.212.212,0,0,0,.143.056h0a.214.214,0,0,0,.158-.069,7.062,7.062,0,0,1,.645-.623.211.211,0,0,0,.074-.145.211.211,0,0,0-.05-.155A.213.213,0,0,0-231.193,193.189Zm8.987.673a.717.717,0,0,1-.427-.142,6.547,6.547,0,0,0-.7-.46.713.713,0,0,1-.265-.972.714.714,0,0,1,.619-.359.713.713,0,0,1,.353.094,7.974,7.974,0,0,1,.848.56.714.714,0,0,1,.138,1,.717.717,0,0,1-.567.282v-.008Zm-.77-1.433a.213.213,0,0,0-.185.107.213.213,0,0,0,.079.29,7.044,7.044,0,0,1,.749.495.213.213,0,0,0,.127.042v0a.214.214,0,0,0,.17-.084.213.213,0,0,0-.042-.3,7.475,7.475,0,0,0-.794-.524A.209.209,0,0,0-222.976,192.428Zm-6.246.5a.709.709,0,0,1-.661-.447.714.714,0,0,1,.4-.926,7.9,7.9,0,0,1,.966-.317.715.715,0,0,1,.178-.023.712.712,0,0,1,.69.535.708.708,0,0,1-.076.54.708.708,0,0,1-.436.328c-.2.051-.393.111-.585.181l.127.128Zm-.022-.5h.023a.214.214,0,0,0,.079-.015,6.967,6.967,0,0,1,.85-.279.211.211,0,0,0,.13-.1.211.211,0,0,0,.023-.161.212.212,0,0,0-.206-.16.213.213,0,0,0-.053.007,7.4,7.4,0,0,0-.9.3.213.213,0,0,0-.118.276A.211.211,0,0,0-229.244,192.423Zm4.108.123a.716.716,0,0,1-.138-.014,6.522,6.522,0,0,0-.826-.109.713.713,0,0,1-.663-.759A.714.714,0,0,1-226,191a7.968,7.968,0,0,1,1.007.133.708.708,0,0,1,.454.3.708.708,0,0,1,.106.535.715.715,0,0,1-.7.573h0Zm-.916-1.046a.213.213,0,0,0-.212.2.213.213,0,0,0,.2.226,7.024,7.024,0,0,1,.889.118.214.214,0,0,0,.041,0v0a.213.213,0,0,0,.208-.171.211.211,0,0,0-.032-.159.211.211,0,0,0-.135-.09,7.468,7.468,0,0,0-.944-.125Z" transform="translate(243.291 -183.752)"></path><path class="b" d="M-.537,6.15A.463.463,0,0,1-1,5.688V-.537A.463.463,0,0,1-.537-1a.463.463,0,0,1,.463.463V5.688A.463.463,0,0,1-.537,6.15Z" transform="translate(4.633 24.119)"></path><path class="b" d="M-.537,6.4a.713.713,0,0,1-.713-.713V-.537A.713.713,0,0,1-.537-1.25a.713.713,0,0,1,.713.713V5.688A.713.713,0,0,1-.537,6.4Zm0-7.15A.213.213,0,0,0-.75-.537V5.688A.213.213,0,0,0-.537,5.9a.213.213,0,0,0,.213-.213V-.537A.213.213,0,0,0-.537-.75Z" transform="translate(4.633 24.119)"></path><path class="b" d="M-.537,6.15A.463.463,0,0,1-1,5.688V-.537A.463.463,0,0,1-.537-1a.463.463,0,0,1,.463.463V5.688A.463.463,0,0,1-.537,6.15Z" transform="translate(11.574 24.119)"></path><path class="b" d="M-.537,6.4a.713.713,0,0,1-.713-.713V-.537A.713.713,0,0,1-.537-1.25a.713.713,0,0,1,.713.713V5.688A.713.713,0,0,1-.537,6.4Zm0-7.15A.213.213,0,0,0-.75-.537V5.688A.213.213,0,0,0-.537,5.9a.213.213,0,0,0,.213-.213V-.537A.213.213,0,0,0-.537-.75Z" transform="translate(11.574 24.119)"></path><path class="b" d="M-220.835,180.322a.463.463,0,0,1-.453-.37l-.819-3.987h-3.209l-.819,3.987a.463.463,0,0,1-.546.36.463.463,0,0,1-.36-.546l.971-4.726h4.718l.971,4.726a.463.463,0,0,1-.36.546A.463.463,0,0,1-220.835,180.322Z" transform="translate(240.459 -175.04)"></path><path class="b" d="M-220.834,180.572h0a.715.715,0,0,1-.7-.57l-.778-3.787h-2.8L-225.89,180a.715.715,0,0,1-.7.569.716.716,0,0,1-.144-.015.708.708,0,0,1-.451-.306.708.708,0,0,1-.1-.536l1.012-4.926h5.125l1.012,4.926a.713.713,0,0,1-.554.841A.708.708,0,0,1-220.834,180.572Zm-4.686-4.857h3.617l.86,4.187a.213.213,0,0,0,.207.17.213.213,0,0,0,.043,0,.213.213,0,0,0,.167-.251l-.93-4.526h-4.31l-.93,4.526a.211.211,0,0,0,.031.16.211.211,0,0,0,.135.091.215.215,0,0,0,.251-.165Z" transform="translate(240.459 -175.04)"></path><path class="b" d="M-218.731,234.346h-2.98a.463.463,0,0,1-.463-.463.463.463,0,0,1,.463-.463h2.226l.819-3.987a.463.463,0,0,1,.546-.36.463.463,0,0,1,.36.546Z" transform="translate(237.838 -204.077)"></path><path class="b" d="M-218.527,234.6h-3.184a.713.713,0,0,1-.713-.713.713.713,0,0,1,.713-.713h2.022l.778-3.787a.715.715,0,0,1,.7-.569.717.717,0,0,1,.144.015.708.708,0,0,1,.451.306.708.708,0,0,1,.1.536Zm-3.184-.925a.213.213,0,0,0-.213.213.213.213,0,0,0,.213.213h2.777l.93-4.526a.211.211,0,0,0-.031-.16.211.211,0,0,0-.135-.091.214.214,0,0,0-.251.165l-.86,4.187Z" transform="translate(237.838 -204.077)"></path><path class="b" d="M-198.066,207.22a.463.463,0,0,1-.453-.37.463.463,0,0,1,.36-.546l3.987-.819v-3.208l-3.987-.819a.463.463,0,0,1-.36-.546.462.462,0,0,1,.546-.36l4.726.971v4.718l-4.726.971a.464.464,0,0,1-.093.008Z" transform="translate(225.129 -188.747)"></path><path class="b" d="M-198.061,207.471h-.008a.714.714,0,0,1-.695-.57.708.708,0,0,1,.1-.535.708.708,0,0,1,.451-.306l3.788-.778v-2.8l-3.788-.778a.713.713,0,0,1-.554-.842.715.715,0,0,1,.7-.569.716.716,0,0,1,.144.015l4.926,1.012v5.125l-4.926,1.012A.72.72,0,0,1-198.061,207.471Zm-.006-6.678a.213.213,0,0,0-.208.17.213.213,0,0,0,.165.251l4.187.86v3.616l-4.187.86a.211.211,0,0,0-.135.091.211.211,0,0,0-.031.16.213.213,0,0,0,.208.17h.005a.213.213,0,0,0,.04,0l4.523-.93v-4.31l-4.526-.93A.216.216,0,0,0-198.067,200.792Z" transform="translate(225.129 -188.747)"></path><path class="b" d="M-205.223,225.7l-4.028-2.655a.463.463,0,0,1-.132-.641.463.463,0,0,1,.641-.132l3.4,2.24,2.266-2.266-2.24-3.4a.462.462,0,0,1,.132-.641.462.462,0,0,1,.641.132l2.655,4.028Z" transform="translate(231.004 -198.203)"></path><path class="b" d="M-205.19,226.025l-4.2-2.768a.713.713,0,0,1-.2-.987.711.711,0,0,1,.6-.321.71.71,0,0,1,.391.117l3.229,2.128,1.978-1.978-2.128-3.228a.713.713,0,0,1,.2-.987.71.71,0,0,1,.392-.118.711.711,0,0,1,.6.321l2.767,4.2ZM-209,222.45a.212.212,0,0,0-.178.1.213.213,0,0,0,.061.294l3.858,2.543,3.045-3.045-2.543-3.858a.212.212,0,0,0-.178-.1.211.211,0,0,0-.116.035.213.213,0,0,0-.061.294l2.353,3.569-2.555,2.555-3.569-2.353A.211.211,0,0,0-209,222.45Z" transform="translate(231.004 -198.203)"></path><path class="b" d="M-243.529,188.591a.462.462,0,0,1-.387-.208l-2.655-4.028,3.335-3.335,4.028,2.655a.463.463,0,0,1,.132.641.463.463,0,0,1-.641.132l-3.4-2.24-2.266,2.266,2.24,3.4a.463.463,0,0,1-.132.641A.462.462,0,0,1-243.529,188.591Z" transform="translate(250.951 -178.254)"></path><path class="b" d="M-243.528,188.841h0a.71.71,0,0,1-.595-.321l-2.767-4.2,3.624-3.624,4.2,2.768a.713.713,0,0,1,.2.987.711.711,0,0,1-.6.321.71.71,0,0,1-.391-.118l-3.228-2.128-1.978,1.978,2.128,3.228a.713.713,0,0,1-.2.987A.709.709,0,0,1-243.528,188.841Zm-2.722-4.454,2.543,3.858a.212.212,0,0,0,.177.1v0a.211.211,0,0,0,.117-.036.213.213,0,0,0,.062-.3l-2.352-3.569,2.555-2.555,3.569,2.352a.211.211,0,0,0,.116.035.212.212,0,0,0,.178-.1.213.213,0,0,0-.061-.294l-3.858-2.543Z" transform="translate(250.951 -178.254)"></path><path class="b" d="M-204.925,188.594a.463.463,0,0,1-.254-.076.463.463,0,0,1-.132-.641l2.24-3.4-2.266-2.266-3.4,2.24a.463.463,0,0,1-.641-.132.463.463,0,0,1,.132-.641l4.028-2.655,3.335,3.335-2.655,4.028A.463.463,0,0,1-204.925,188.594Z" transform="translate(231 -178.256)"></path><path class="b" d="M-204.921,188.844h-.006a.709.709,0,0,1-.389-.118.713.713,0,0,1-.2-.987l2.128-3.228-1.978-1.978-3.228,2.128a.71.71,0,0,1-.392.118.711.711,0,0,1-.6-.321.713.713,0,0,1,.2-.987l4.2-2.768,3.624,3.624-2.768,4.2A.712.712,0,0,1-204.921,188.844Zm-.383-6.953,2.555,2.555-2.353,3.569a.213.213,0,0,0,.061.294.212.212,0,0,0,.117.035l0,.25v-.25a.212.212,0,0,0,.177-.095l2.543-3.857-3.047-3.047-3.858,2.543a.213.213,0,0,0-.061.294.212.212,0,0,0,.178.1.211.211,0,0,0,.116-.035Z" transform="translate(231 -178.256)"></path><path class="b" d="M-211.946,186.086a.462.462,0,0,1-.387-.209l-.007-.011a10.223,10.223,0,0,0-1.881-.78l-.015,0a.463.463,0,0,1-.547-.359l-.167-.807.728.2a11.148,11.148,0,0,1,2.561,1.064l.657.374-.689.451A.462.462,0,0,1-211.946,186.086Z" transform="translate(233.955 -179.814)"></path><path class="b" d="M-211.943,186.336h0a.709.709,0,0,1-.563-.278,10,10,0,0,0-1.726-.716.714.714,0,0,1-.791-.562l-.25-1.207,1.122.309a11.407,11.407,0,0,1,2.618,1.088l1.012.576-1.031.676A.712.712,0,0,1-211.943,186.336Zm-.18-.594a.212.212,0,0,0,.177.094h0a.212.212,0,0,0,.115-.034l.345-.226-.3-.172a10.907,10.907,0,0,0-2.5-1.04l-.334-.092.084.407a.215.215,0,0,0,.251.165l.076-.016.062.019a10.494,10.494,0,0,1,1.927.8l.058.031Z" transform="translate(233.955 -179.814)"></path><path class="b" d="M-198.5,198.3l-.807-.167a.463.463,0,0,1-.359-.547l0-.015a10.25,10.25,0,0,0-.78-1.881l-.014-.009a.462.462,0,0,1-.129-.641l.453-.683.37.654a11.172,11.172,0,0,1,1.061,2.56Z" transform="translate(226.277 -185.425)"></path><path class="b" d="M-198.15,198.631l-1.208-.25a.708.708,0,0,1-.451-.306.707.707,0,0,1-.111-.485,10.025,10.025,0,0,0-.715-1.725.713.713,0,0,1-.159-.959l.678-1.022.571,1.008a11.431,11.431,0,0,1,1.085,2.617Zm-2.171-3.156.067.042.031.058a10.524,10.524,0,0,1,.8,1.927l.019.062-.017.078a.209.209,0,0,0,.031.157.211.211,0,0,0,.135.091l.406.084-.093-.334a10.932,10.932,0,0,0-1.037-2.5l-.17-.3-.228.343A.213.213,0,0,0-200.321,195.475Z" transform="translate(226.277 -185.425)"></path><path class="b" d="M-200.131,216.586l-.454-.678a.463.463,0,0,1,.127-.642l.015-.01a10.248,10.248,0,0,0,.78-1.882.044.044,0,0,0,0-.018.463.463,0,0,1,.363-.544l.8-.16-.2.723a11.171,11.171,0,0,1-1.061,2.56Z" transform="translate(226.276 -195.256)"></path><path class="b" d="M-200.114,217.061l-.679-1.014a.714.714,0,0,1,.157-.96,10.021,10.021,0,0,0,.716-1.726.707.707,0,0,1,.114-.49.708.708,0,0,1,.453-.3l1.2-.24-.306,1.114a11.43,11.43,0,0,1-1.085,2.617Zm.69-3.766a.289.289,0,0,1,.011.08v.037l-.011.035a10.521,10.521,0,0,1-.8,1.927l-.03.056-.068.045a.212.212,0,0,0-.057.294l.229.342.17-.3a10.931,10.931,0,0,0,1.037-2.5l.091-.332-.4.081a.211.211,0,0,0-.135.091A.211.211,0,0,0-199.424,213.3Z" transform="translate(226.276 -195.256)"></path><path class="b" d="M-214.952,229.092l.167-.808a.463.463,0,0,1,.547-.359l.015,0a10.268,10.268,0,0,0,1.882-.78l.007-.011a.463.463,0,0,1,.641-.133l.689.452-.658.374a11.189,11.189,0,0,1-2.56,1.061Z" transform="translate(233.956 -202.929)"></path><path class="b" d="M-215.28,229.442l.25-1.208a.715.715,0,0,1,.7-.568.714.714,0,0,1,.094.006,10.039,10.039,0,0,0,1.726-.716.711.711,0,0,1,.565-.278.71.71,0,0,1,.39.117l1.031.676-1.013.576a11.448,11.448,0,0,1-2.617,1.085Zm.947-1.276a.213.213,0,0,0-.208.17l-.084.407.335-.092a10.948,10.948,0,0,0,2.5-1.038l.3-.172-.347-.228a.211.211,0,0,0-.116-.035.212.212,0,0,0-.177.094l-.04.065-.059.031a10.54,10.54,0,0,1-1.927.8l-.062.019-.078-.017A.211.211,0,0,0-214.333,228.166Z" transform="translate(233.956 -202.929)"></path><path class="b" d="M-232.291,186.084a.463.463,0,0,1-.255-.077l-.684-.452.654-.372a11.145,11.145,0,0,1,2.56-1.064l.728-.2-.167.807a.463.463,0,0,1-.547.359l-.015,0a10.226,10.226,0,0,0-1.882.781l-.008.012a.463.463,0,0,1-.386.21Z" transform="translate(243.78 -179.812)"></path><path class="b" d="M-232.29,186.334h0a.71.71,0,0,1-.393-.118l-1.024-.677,1.008-.574a11.4,11.4,0,0,1,2.618-1.088l1.123-.309-.25,1.207a.715.715,0,0,1-.7.568.715.715,0,0,1-.094-.006,10,10,0,0,0-1.727.716A.71.71,0,0,1-232.29,186.334Zm-.462-.763.345.228a.212.212,0,0,0,.117.035.212.212,0,0,0,.177-.1l.043-.066.056-.03a10.5,10.5,0,0,1,1.928-.8l.062-.019.078.017a.21.21,0,0,0,.041,0,.213.213,0,0,0,.208-.17l.084-.407-.335.092a10.9,10.9,0,0,0-2.5,1.04Z" transform="translate(243.78 -179.812)"></path></g></g></svg>