<svg xmlns="http://www.w3.org/2000/svg" viewBox="0 0 592 592"><g><path d="M234.6 254.4c0 19.5 14.4 33.8 38.5 33.8 10.2 0 19.7-1.6 29.6-6.2l9 12.3c-12.5 6.6-24.5 10.1-42.9 10.1-38.4 0-66.7-18.5-66.7-49.9s28.2-49.9 66.7-49.9c18.4 0 29 2.7 42 8.2l-9.2 14.1c-9.8-5.2-18.4-6.3-28.5-6.3-24.1 0-38.5 14.3-38.5 33.8m146.6-49.9c-37.2 0-64 18.5-64 49.9s26.8 49.9 64 49.9 64-18.5 64-49.9-26.8-49.9-64-49.9m0 84.3c-20.5 0-31.7-15.4-31.7-34.4s11.3-34.4 31.7-34.4c20.5 0 31.8 15.4 31.8 34.4-.1 19-11.4 34.4-31.8 34.4m160.7-27.2v40.2h30.7V207h-30.7v36.1h-47V207h-30.7v94.8h30.7v-40.2M151.3 207h32.4v94.8h-32.4zm-92.9 43.4v9.1c15.2 11.8 30.7 27.4 42.1 42.4h36.2c-12.6-14.8-31.9-32.4-46.2-41.3 16.7-.7 35.4-7.5 35.4-26.7 0-24.6-26.3-29.1-52.9-29.1-21.7 0-41.8 1-53.8 2v95.1h30.2v-80.8c5.6-.6 11.6-1.3 23.7-1.3 15.6 0 23.4 5.1 23.4 14.1.1 7.7-3.2 16.8-38.1 16.5m-36.7 79.9h7.7v7.5h-7.7v-7.5zm0 15.4h7.7v38.7h-7.7v-38.7zm65.6 38.7v-24.8c0-4.7-1.5-8.6-6.9-8.6-6.3 0-8.6 6.4-8.6 12.3v21.1h-7.7v-24.8c0-4.7-1.5-8.6-6.9-8.6-6.3 0-8.7 6.4-8.7 12.3v21.1h-7.7v-29.8c0-2.9-.1-5.9-.4-8.9h7.3l.2 6.6c2.5-4.9 6.6-7.4 11.8-7.4 6.1 0 10.1 3.6 11.3 7.9 1.9-4.8 6.9-7.9 11.8-7.9 8.4 0 12.2 5.7 12.2 13.7v25.7h-7.7zm349 0l-.2-6.1c-5.5 10.3-25 9.2-25-4.1 0-10 9.6-14.2 24.7-13.5 0-.1.8-7.3-4.1-9.5-3.2-1.4-10.2-1.2-16 2.2l-.5-5.9c9-3.7 28.2-6 28.2 11.9v16.4c0 3.3.2 6 .5 8.6h-7.6zm-7.6-4.9c5.7-1.3 7.3-7.1 7.1-14.1 0 0-17.6-1.4-17.1 8.3.3 5.8 5.8 6.8 10 5.8M128 384.4l-.2-6.1c-5.5 10.3-25 9.2-25-4.1 0-10 9.6-14.2 24.7-13.5 0-.1.8-7.3-4.2-9.5-3.2-1.4-10.2-1.2-16 2.2l-.5-5.9c9-3.7 28.2-6 28.2 11.9v16.4c0 3.3.2 6 .5 8.6H128zm-7.5-4.9c5.7-1.3 7.3-7.1 7.1-14.1 0 0-17.6-1.4-17.1 8.3.3 5.8 5.8 6.8 10 5.8m377.4 20.3l.5-6.6c3.4 1.8 7.5 2.8 11.5 2.8 13.4-.2 12.6-11.3 12.6-18.4 0 0-3.9 6.7-12 6.7-11.3 0-15.7-9.8-15.7-19.5 0-10.3 4.4-19.9 15.9-19.9 5.3 0 9.7 2.3 12.1 7.2v-6.4h7.4v36.5c0 21.5-19.1 21.7-32.3 17.6m15-48.9c-8 0-9.7 7.6-9.7 14.1 0 6 1.9 13.5 9.7 13.5 7.5 0 9.9-7.6 9.9-13.5-.1-6.2-2.4-14.1-9.9-14.1m-366.5 48.9l.5-6.6c3.4 1.8 7.5 2.8 11.5 2.8 13.4-.2 12.6-11.3 12.6-18.4 0 0-3.9 6.7-12 6.7-11.3 0-15.7-9.8-15.7-19.5 0-10.3 4.4-19.9 15.9-19.9 5.3 0 9.7 2.3 12.1 7.2v-6.4h7.4v36.5c.1 21.5-19.1 21.7-32.3 17.6m15.1-48.9c-8 0-9.7 7.6-9.7 14.1 0 6 1.9 13.5 9.7 13.5 7.5 0 9.9-7.6 9.9-13.5-.1-6.2-2.5-14.1-9.9-14.1m28.7-20.6h7.7v7.5h-7.7v-7.5zm0 15.4h7.7v38.7h-7.7v-38.7zm356.3 21.4c.5 13.5 12.5 15.2 23.2 10l.5 6c-15.5 5-31.6 2.1-31.6-18.2 0-10.6 6.7-19.9 17.5-19.9 18.2 0 16.2 22.1 16.2 22.1h-25.8zm9.6-16.8c-6.6 0-9.7 7-9.7 12h18.3c0-5.5-2.1-12-8.6-12m-297.7 16.8c.4 13.5 12.5 15.2 23.2 10l.5 6c-15.5 5-31.6 2.1-31.6-18.2 0-10.6 6.7-19.9 17.5-19.9 18.2 0 16.2 22.1 16.2 22.1h-25.8zm9.6-16.8c-6.6 0-9.7 7-9.7 12h18.3c.1-5.5-2-12-8.6-12m61.2 14.6c0-17.6 17-23.2 31.7-18.3l-.5 6.2c-9.7-4.5-22.9-1.7-22.9 12.1 0 13.4 12.6 17.3 23 12.7l.4 6.1c-12.2 4.2-31.7 1-31.7-18.8m60.8-20c-5.4 0-9.6 2.4-12 7.2v-21.9h-7.7v54.1h7.7v-20.2c0-6 2.3-13.2 9.4-13.2 6.6 0 7.7 5.1 7.7 10.6v22.8h7.8v-24.4c0-8.8-3.6-15-12.9-15m88.7 39.5v-22.8c0-5.4-1-10.6-7.7-10.6-7.2 0-9.4 6.6-9.4 12.7v20.7h-7.7v-29.8c0-2.9-.1-5.9-.4-8.9h7.3l.2 6.6c2.6-4.9 7-7.4 12.5-7.4 9.6 0 13 6.1 13 15v24.4h-7.8zm-244.3 0v-22.8c0-5.4-1-10.6-7.7-10.6-7.2 0-9.4 6.6-9.4 12.7v20.7h-7.7v-29.8c0-2.9-.1-5.9-.4-8.9h7.3l.2 6.6c2.6-4.9 7-7.4 12.5-7.4 9.6 0 13 6.1 13 15v24.4h-7.8zm347.2-8h8.3v8h-8.3zm-288 0h8.3v8h-8.3z"/></g></svg>
