<svg xmlns="http://www.w3.org/2000/svg" width="201.859" height="173.47" viewBox="0 0 201.859 173.47">
  <g id="Group_1487" data-name="Group 1487" transform="translate(-278.141 -1232.623)">
    <text id="_54_" data-name="54%" transform="translate(298 1344)" fill="#768ec7" font-size="100" font-family="FrutigerLTStd-Bold, Frutiger LT Std" font-weight="700"><tspan x="0" y="0">54</tspan><tspan y="0" font-size="70">%</tspan></text>
    <path id="Path_984" data-name="Path 984" d="M152.115,48.578V6.589A5.054,5.054,0,0,0,147.108,1.5H6.524A5.065,5.065,0,0,0,1.5,6.589v142.34a5.061,5.061,0,0,0,5.024,5.089H144.583a2.525,2.525,0,0,1,2.523,2.528v12.9a2.505,2.505,0,0,0,2.483,2.528H167.34a2.518,2.518,0,0,0,2.517-2.518V151.473a2.531,2.531,0,0,0-2.517-2.545H154.615a2.518,2.518,0,0,1-2.5-2.534V124.9" transform="translate(278.141 1232.623)" fill="none" stroke="#768ec7" stroke-width="3"/>
  </g>
</svg>
