<svg id="Icon-Streamline-Workflows" xmlns="http://www.w3.org/2000/svg" width="60.234" height="60.234" viewBox="0 0 60.234 60.234">
  <path id="Path_1004" data-name="Path 1004" d="M114.752,230.329H110.2a.9.9,0,0,1-.895-.9v-49.4a1.8,1.8,0,0,0-1.791-1.8h-50.3a1.8,1.8,0,0,0-1.8,1.8v50.294a1.8,1.8,0,0,0,1.8,1.8H106.61a.9.9,0,0,1,.9.9v4.551a.889.889,0,0,0,.891.893h6.348a.9.9,0,0,0,.9-.893v-6.349a.9.9,0,0,0-.9-.9" transform="translate(-55.418 -178.236)" fill="#303ab2"/>
  <g id="Group_1998" data-name="Group 1998" transform="translate(6.266 12.946)">
    <rect id="Rectangle_682" data-name="Rectangle 682" width="30.986" height="21.399" transform="translate(2 0)" fill="none" stroke="#fff" stroke-miterlimit="10" stroke-width="1.6"/>
    <path id="Path_1323" data-name="Path 1323" d="M0,0H14.535V3.776H0Z" transform="translate(10.226 23.916)" fill="none" stroke="#fff" stroke-width="1.6"/>
    <g id="Group_1999" data-name="Group 1999" transform="translate(14.269 21.345)">
      <line id="Line_191" data-name="Line 191" y2="2.572" transform="translate(0 0)" fill="none" stroke="#fff" stroke-miterlimit="10" stroke-width="1.6"/>
      <line id="Line_192" data-name="Line 192" y2="2.572" transform="translate(6.449 0)" fill="none" stroke="#fff" stroke-miterlimit="10" stroke-width="1.6"/>
    </g>
    <g id="Group_3006" data-name="Group 3006" transform="translate(5.717 -2.568)">
      <ellipse id="Ellipse_19" data-name="Ellipse 19" cx="2.707" cy="2.707" rx="2.707" ry="2.707" transform="translate(11.913 2.568)" fill="#303ab2"/>
      <path id="Path_1908" data-name="Path 1908" d="M22.225,44.164H20.4a.5.5,0,0,1-.493-.436l-.122-1.014a4.351,4.351,0,0,1-1.265-.735l-.942.4a.494.494,0,0,1-.625-.207c-.3-.524-.606-1.052-.911-1.576a.494.494,0,0,1,.132-.644l.816-.612a4.4,4.4,0,0,1,0-1.463l-.816-.612a.494.494,0,0,1-.132-.644c.3-.524.606-1.052.911-1.576a.491.491,0,0,1,.625-.207l.942.4a4.359,4.359,0,0,1,1.269-.732l.122-1.014a.5.5,0,0,1,.493-.436h1.821a.5.5,0,0,1,.493.436l.122,1.014a4.4,4.4,0,0,1,1.269.732l.942-.4a.5.5,0,0,1,.625.207c.3.524.606,1.052.911,1.576a.494.494,0,0,1-.132.644l-.816.612a4.4,4.4,0,0,1,0,1.463l.816.612a.494.494,0,0,1,.132.644c-.3.524-.606,1.052-.911,1.576a.491.491,0,0,1-.625.207l-.942-.4a4.359,4.359,0,0,1-1.269.732l-.122,1.014a.5.5,0,0,1-.5.44ZM21.315,36.1a2.509,2.509,0,1,0,2.509,2.509A2.51,2.51,0,0,0,21.315,36.1ZM31.787,47.508l-1.473-.4a.415.415,0,0,1-.3-.458l.119-.845a3.663,3.663,0,0,1-.867-.867l-.848.119a.413.413,0,0,1-.458-.3c-.132-.49-.264-.98-.4-1.473a.415.415,0,0,1,.245-.493l.794-.32a3.7,3.7,0,0,1,.317-1.184l-.528-.672a.413.413,0,0,1,.035-.55L29.5,38.989a.414.414,0,0,1,.55-.035l.672.528a3.634,3.634,0,0,1,1.184-.317l.317-.791a.412.412,0,0,1,.493-.245l1.473.4a.415.415,0,0,1,.3.458l-.119.845a3.663,3.663,0,0,1,.867.867l.848-.119a.413.413,0,0,1,.458.3c.132.49.264.98.4,1.473a.415.415,0,0,1-.245.493l-.794.32a3.7,3.7,0,0,1-.317,1.184l.528.672a.413.413,0,0,1-.035.55L35,46.648a.414.414,0,0,1-.55.035l-.672-.531a3.634,3.634,0,0,1-1.184.317l-.317.791a.411.411,0,0,1-.493.248ZM32.8,40.794a2.1,2.1,0,1,0,1.482,2.569A2.1,2.1,0,0,0,32.8,40.794Zm-2.556-4.145a.415.415,0,0,0,.493-.245l.317-.791a3.634,3.634,0,0,0,1.184-.317l.672.528a.413.413,0,0,0,.55-.035l1.077-1.077a.414.414,0,0,0,.035-.55l-.528-.672a3.781,3.781,0,0,0,.317-1.184l.794-.32a.412.412,0,0,0,.245-.493c-.132-.49-.264-.98-.4-1.473a.415.415,0,0,0-.458-.3l-.848.119a3.663,3.663,0,0,0-.867-.867l.119-.845a.413.413,0,0,0-.3-.458l-1.473-.4a.415.415,0,0,0-.493.245l-.317.791a3.634,3.634,0,0,0-1.184.317l-.672-.528a.413.413,0,0,0-.55.035l-1.077,1.077a.414.414,0,0,0-.035.55l.528.672a3.781,3.781,0,0,0-.317,1.184l-.794.32a.412.412,0,0,0-.245.493c.132.49.264.98.4,1.473a.415.415,0,0,0,.458.3l.848-.119a3.663,3.663,0,0,0,.867.867l-.119.845a.413.413,0,0,0,.3.458l1.473.4Zm1.011-6.717a2.1,2.1,0,1,1-2.569,1.482A2.1,2.1,0,0,1,31.254,29.932Z" transform="translate(-15.979 -27.256)" fill="#303ab2" stroke="#fff" stroke-linecap="round" stroke-linejoin="round" stroke-miterlimit="10" stroke-width="1.2" fill-rule="evenodd"/>
    </g>
  </g>
  <g id="Group_2000" data-name="Group 2000" transform="translate(35.113 19.377)">
    <rect id="Rectangle_688" data-name="Rectangle 688" width="11.904" height="21.007" transform="translate(0 0)" fill="#303ab2" stroke="#fff" stroke-miterlimit="10" stroke-width="1.6"/>
    <rect id="Rectangle_689" data-name="Rectangle 689" width="5.567" height="1.3" transform="translate(3.169)" fill="#fff" stroke="#fff" stroke-miterlimit="10" stroke-width="1.6"/>
  </g>
</svg>
