<svg id="Icon-Secure-Centralised" xmlns="http://www.w3.org/2000/svg" xmlns:xlink="http://www.w3.org/1999/xlink" width="60.234" height="60.234" viewBox="0 0 60.234 60.234">
  <defs>
    <clipPath id="clip-path">
      <rect id="Rectangle_1055" data-name="Rectangle 1055" width="39.246" height="39.249" fill="#fff" stroke="#fff" stroke-width="0.8"/>
    </clipPath>
  </defs>
  <path id="Path_1004" data-name="Path 1004" d="M114.752,230.329H110.2a.9.9,0,0,1-.895-.9v-49.4a1.8,1.8,0,0,0-1.791-1.8h-50.3a1.8,1.8,0,0,0-1.8,1.8v50.294a1.8,1.8,0,0,0,1.8,1.8H106.61a.9.9,0,0,1,.9.9v4.551a.889.889,0,0,0,.891.893h6.348a.9.9,0,0,0,.9-.893v-6.349a.9.9,0,0,0-.9-.9" transform="translate(-55.418 -178.236)" fill="#303ab2"/>
  <g id="Group_2940" data-name="Group 2940" transform="translate(6.141 5.515)">
    <g id="Group_2953" data-name="Group 2953" transform="translate(0.977 0.971)">
      <g id="Group_2952" data-name="Group 2952" transform="translate(0 0)" clip-path="url(#clip-path)">
        <path id="Path_2152" data-name="Path 2152" d="M393.553,156.855a.272.272,0,0,0-.528.128A16.94,16.94,0,0,1,391.97,168a.273.273,0,0,0,.5.227,17.485,17.485,0,0,0,1.087-11.371" transform="translate(-357.026 -141.354)" fill="#fff" stroke="#fff" stroke-width="0.8"/>
        <path id="Path_2153" data-name="Path 2153" d="M307.3,374.887a12.746,12.746,0,0,1-1.223.754.272.272,0,1,0,.257.479,13.331,13.331,0,0,0,1.275-.786l.011-.007a.272.272,0,1,0-.32-.439" transform="translate(-278.183 -341.343)" fill="#fff" stroke="#fff" stroke-width="0.8"/>
        <path id="Path_2154" data-name="Path 2154" d="M77.61,354.655a16.794,16.794,0,0,1-16.5-3.688h3.7a.272.272,0,0,0,0-.544H60.471a.27.27,0,0,0-.309.3v4.339a.272.272,0,1,0,.543,0v-3.733a17.344,17.344,0,0,0,17.067,3.839.272.272,0,1,0-.163-.518" transform="translate(-52.914 -318.964)" fill="#fff" stroke="#fff" stroke-width="0.8"/>
        <path id="Path_2155" data-name="Path 2155" d="M355.331,332.418a.272.272,0,0,0-.38.055,12.794,12.794,0,0,1-1.026,1.184.271.271,0,1,0,.391.376,13.374,13.374,0,0,0,1.069-1.234h0a.272.272,0,0,0-.055-.38" transform="translate(-322.106 -302.414)" fill="#fff" stroke="#fff" stroke-width="0.8"/>
        <path id="Path_2156" data-name="Path 2156" d="M29.7,5.482a.27.27,0,0,0,.073-.22V.919a.272.272,0,1,0-.543,0V4.653A17.391,17.391,0,0,0,.307,20.627a.272.272,0,0,0,.266.222.264.264,0,0,0,.05,0h0a.272.272,0,0,0,.217-.317A16.847,16.847,0,0,1,28.829,5.019h-3.7a.272.272,0,1,0,0,.543h4.341a.271.271,0,0,0,.229-.08" transform="translate(2.228 2.227)" fill="#fff" stroke="#fff" stroke-width="0.8"/>
        <path id="Path_2157" data-name="Path 2157" d="M82.016,70.475A11.518,11.518,0,1,0,93.534,81.993h0A11.518,11.518,0,0,0,82.016,70.475M92.957,81.994a10.941,10.941,0,1,1-10.94-10.941,10.941,10.941,0,0,1,10.94,10.941Z" transform="translate(-62.399 -62.368)" fill="#fff" stroke="#fff" stroke-width="0.8"/>
        <path id="Path_2158" data-name="Path 2158" d="M149.576,140.31c-.107.077-.216.151-.323.22l-1.7,1.1-1.724-1.1a7.13,7.13,0,0,1-3.3-6.033l0-4.438a18.815,18.815,0,0,0,5.006-1.947,19,19,0,0,0,1.9.936.271.271,0,0,0,.211-.5,18.44,18.44,0,0,1-1.85-.909.54.54,0,0,0-.526,0,18.385,18.385,0,0,1-4.869,1.891.534.534,0,0,0-.415.522v4.444a7.67,7.67,0,0,0,3.552,6.489l1.725,1.1a.538.538,0,0,0,.578,0l1.7-1.1c.115-.074.232-.153.347-.236a.271.271,0,0,0-.317-.44" transform="translate(-127.917 -114.697)" fill="#fff" stroke="#fff" stroke-width="0.8"/>
        <path id="Path_2159" data-name="Path 2159" d="M247.349,145.789c-.558-.13-1.114-.286-1.653-.465a.271.271,0,0,0-.171.514,17.349,17.349,0,0,0,1.7.473v4.461a7.129,7.129,0,0,1-1.866,4.824.271.271,0,1,0,.4.366,7.671,7.671,0,0,0,2.008-5.19v-4.461a.534.534,0,0,0-.416-.522" transform="translate(-222.6 -130.962)" fill="#fff" stroke="#fff" stroke-width="0.8"/>
        <path id="Path_2160" data-name="Path 2160" d="M178.178,159.608H174.63v-1.036a1.538,1.538,0,0,1,3.076,0,.271.271,0,1,0,.542,0,2.08,2.08,0,0,0-4.161,0v1.039a.933.933,0,0,0-.862.928v.962a.271.271,0,0,0,.542,0v-.962a.39.39,0,0,1,.39-.39h4.02a.39.39,0,0,1,.39.39v3.4a.39.39,0,0,1-.39.39h-4.02a.39.39,0,0,1-.39-.39v-.962a.271.271,0,0,0-.542,0v.962a.933.933,0,0,0,.932.932h4.02a.933.933,0,0,0,.932-.932v-3.4a.933.933,0,0,0-.932-.932" transform="translate(-156.55 -141.212)" fill="#fff" stroke="#fff" stroke-width="0.3"/>
        <path id="Path_2161" data-name="Path 2161" d="M198.5,216.632a.271.271,0,0,0,.271-.271v-.316a.91.91,0,1,0-.542,0v.316a.271.271,0,0,0,.271.271m0-1.824a.368.368,0,1,1-.368.368.368.368,0,0,1,.368-.368" transform="translate(-178.878 -194.167)" fill="#fff" stroke="#fff" stroke-width="0.3"/>
      </g>
    </g>
  </g>
</svg>
