<svg id="Icon-support" xmlns="http://www.w3.org/2000/svg" xmlns:xlink="http://www.w3.org/1999/xlink" width="60.234" height="60.234" viewBox="0 0 60.234 60.234">
  <defs>
    <clipPath id="clip-path">
      <rect id="Rectangle_976" data-name="Rectangle 976" width="31.937" height="34.858" fill="#fff"></rect>
    </clipPath>
  </defs>
  <path id="Path_1004" data-name="Path 1004" d="M114.752,230.329H110.2a.9.9,0,0,1-.895-.9v-49.4a1.8,1.8,0,0,0-1.791-1.8h-50.3a1.8,1.8,0,0,0-1.8,1.8v50.294a1.8,1.8,0,0,0,1.8,1.8H106.61a.9.9,0,0,1,.9.9v4.551a.889.889,0,0,0,.891.893h6.348a.9.9,0,0,0,.9-.893v-6.349a.9.9,0,0,0-.9-.9" transform="translate(-55.418 -178.236)" fill="#0f7ac9"></path>
  <g id="Group_2714" data-name="Group 2714" transform="translate(10.752 8.799)">
    <g id="Group_2714-2" data-name="Group 2714" clip-path="url('#clip-path')">
      <path id="Path_1577" data-name="Path 1577" d="M21.245,29.771a6.909,6.909,0,0,0,5.571-2.853c-.355,0-.621,0-.887,0a.82.82,0,0,1-.9-.908q0-5.224,0-10.448a1.871,1.871,0,0,1,.113-.628.714.714,0,0,1,.753-.516c.269.012.539,0,.853,0,0-.7,0-1.369,0-2.035A10.554,10.554,0,0,0,5.763,10.676c-.175,1.215-.138,2.461-.2,3.743h.818a.852.852,0,0,1,.944.845,3.731,3.731,0,0,1,.013.408q0,5.139,0,10.278c0,.67-.282.966-.941.967-1.078,0-2.157.028-3.232-.02A3.294,3.294,0,0,1,.034,23.749c-.05-2-.04-3.993,0-5.988a3.428,3.428,0,0,1,3.5-3.342c.1,0,.2,0,.356,0,0-.171,0-.314,0-.456A19.631,19.631,0,0,1,4.112,10,11.922,11.922,0,0,1,11.585.918,12.234,12.234,0,0,1,27.9,8.585a12.991,12.991,0,0,1,.581,4.157c-.005.543,0,1.086,0,1.54a8.347,8.347,0,0,1,1.52.573,3.843,3.843,0,0,1,1.874,3.19c.09,2.049.061,4.105.015,6.157a2.685,2.685,0,0,1-2.359,2.528,1.4,1.4,0,0,0-1.045.711,8.343,8.343,0,0,1-5.578,3.84c-.541.11-1.1.143-1.68.215a3.918,3.918,0,0,1-1.946,2.737,4.267,4.267,0,0,1-3.009.551,4.346,4.346,0,0,1-3.5-4.266,4.279,4.279,0,0,1,8.469-.748M5.6,25.181V16.139H3.621A1.758,1.758,0,0,0,1.742,18c-.012,1.847-.009,3.694,0,5.541A1.612,1.612,0,0,0,3.18,25.168c.8.059,1.6.013,2.42.013m21.175-9.039v9.04c.7,0,1.385.037,2.06-.009.863-.059,1.356-.538,1.36-1.273.01-1.847.015-3.694,0-5.541a2.449,2.449,0,0,0-.741-1.774,1.516,1.516,0,0,0-.815-.423,17.866,17.866,0,0,0-1.86-.02m-7.189,14.5a2.539,2.539,0,1,0-5.078-.078,2.636,2.636,0,0,0,2.6,2.57,2.5,2.5,0,0,0,2.479-2.493" transform="translate(0 0.001)" fill="#fff"></path>
    </g>
  </g>
</svg>
