<svg id="Icon-24-7" xmlns="http://www.w3.org/2000/svg" width="60.234" height="60.234" viewBox="0 0 60.234 60.234">
  <path id="Path_1004" data-name="Path 1004" d="M114.752,230.329H110.2a.9.9,0,0,1-.895-.9v-49.4a1.8,1.8,0,0,0-1.791-1.8h-50.3a1.8,1.8,0,0,0-1.8,1.8v50.294a1.8,1.8,0,0,0,1.8,1.8H106.61a.9.9,0,0,1,.9.9v4.551a.889.889,0,0,0,.891.893h6.348a.9.9,0,0,0,.9-.893v-6.349a.9.9,0,0,0-.9-.9" transform="translate(-55.418 -178.236)" fill="#0f7ac9"></path>
  <g id="Ellipse_37" data-name="Ellipse 37" transform="translate(10.42 9.835)" fill="none" stroke="#fff" stroke-width="2">
    <ellipse cx="16.08" cy="16.08" rx="16.08" ry="16.08" stroke="none"></ellipse>
    <ellipse cx="16.08" cy="16.08" rx="15.08" ry="15.08" fill="none"></ellipse>
  </g>
  <path id="Path_1580" data-name="Path 1580" d="M-10662.269,7165.719v7.628l-5.233,5.179" transform="translate(10688.769 -7146.848)" fill="none" stroke="#fff" stroke-width="2"></path>
  <path id="Path_1581" data-name="Path 1581" d="M-10662.269,7165.719v4.306" transform="translate(10688.769 -7155.848)" fill="none" stroke="#fff" stroke-width="2"></path>
  <path id="Path_1582" data-name="Path 1582" d="M-10662.269,7165.719v4.306" transform="translate(10688.769 -7128.03)" fill="none" stroke="#fff" stroke-width="2"></path>
  <path id="Path_1583" data-name="Path 1583" d="M0,4.062V0" transform="translate(42.336 25.915) rotate(90)" fill="none" stroke="#fff" stroke-width="2"></path>
  <path id="Path_1584" data-name="Path 1584" d="M0,4.06V0" transform="translate(14.727 25.915) rotate(90)" fill="none" stroke="#fff" stroke-width="2"></path>
</svg>
