<svg id="Icon-real-time-monitoring" xmlns="http://www.w3.org/2000/svg" width="60.234" height="60.234" viewBox="0 0 60.234 60.234">
  <path id="Path_1004" data-name="Path 1004" d="M114.752,230.329H110.2a.9.9,0,0,1-.895-.9v-49.4a1.8,1.8,0,0,0-1.791-1.8h-50.3a1.8,1.8,0,0,0-1.8,1.8v50.294a1.8,1.8,0,0,0,1.8,1.8H106.61a.9.9,0,0,1,.9.9v4.551a.889.889,0,0,0,.891.893h6.348a.9.9,0,0,0,.9-.893v-6.349a.9.9,0,0,0-.9-.9" transform="translate(-55.418 -178.236)" fill="#0f7ac9"></path>
  <g id="Group_2713" data-name="Group 2713" transform="translate(8.193 8.807)">
    <g id="Group_2712" data-name="Group 2712">
      <g id="Ellipse_11" data-name="Ellipse 11" transform="translate(0 2.497)" fill="none" stroke="#fff" stroke-width="2">
        <ellipse cx="16.08" cy="16.08" rx="16.08" ry="16.08" stroke="none"></ellipse>
        <ellipse cx="16.08" cy="16.08" rx="15.08" ry="15.08" fill="none"></ellipse>
      </g>
      <line id="Line_183" data-name="Line 183" y1="2.285" transform="translate(16.376 0.762)" fill="none" stroke="#fff" stroke-width="2"></line>
      <line id="Line_184" data-name="Line 184" x2="9.902" transform="translate(11.426)" fill="none" stroke="#fff" stroke-width="2"></line>
      <path id="Path_1181" data-name="Path 1181" d="M-10662.269,7165.719v7.628l-5.233,5.179" transform="translate(10678.349 -7154.186)" fill="none" stroke="#fff" stroke-width="2"></path>
      <line id="Line_185" data-name="Line 185" y1="0.762" x2="0.762" transform="translate(25.467 5.388) rotate(-8)" fill="none" stroke="#fff" stroke-linecap="round" stroke-width="2"></line>
    </g>
    <path id="Path_1575" data-name="Path 1575" d="M6.46,0H9.811V1.469a.314.314,0,0,0,.225.3,6.5,6.5,0,0,1,1.256.519h.3l.029-.02c.012-.008.016-.017.019-.018s.017-.008.019-.011l.01-.01c.011-.01.021-.031.039-.048.035-.036.087-.078.146-.137.119-.118.281-.284.438-.44L12.7,1.2l2.358,2.38c-.119.118-.2.2-.4.4-.157.157-.32.312-.438.432-.059.059-.1.111-.136.147-.017.017-.038.028-.048.04s0,.014-.01.018l-.01.01a.148.148,0,0,0-.019.02.346.346,0,0,0-.019.04l-.019.264a.187.187,0,0,0,.019.03A6.706,6.706,0,0,1,14.5,6.241a.313.313,0,0,0,.3.226h1.471V9.816H14.8a.312.312,0,0,0-.3.216,6.731,6.731,0,0,1-.516,1.263v.3l.019.03a.091.091,0,0,0,.019.018c.006.008.007.017.01.02l.01.01c.01.011.031.021.048.04.035.036.078.089.136.147.118.118.281.275.438.432.2.2.281.284.4.4L12.7,15.074c-.117-.117-.2-.2-.409-.411-.157-.156-.32-.313-.438-.431-.059-.058-.1-.112-.136-.147-.017-.017-.038-.03-.048-.039s-.005-.015-.01-.018-.006,0-.01,0a.033.033,0,0,0-.01-.011L11.624,14l-.185-.059a.3.3,0,0,0-.146.04,6.591,6.591,0,0,1-1.256.519.315.315,0,0,0-.225.3v1.469H6.46V14.8a.315.315,0,0,0-.225-.3,6.487,6.487,0,0,1-1.256-.519.312.312,0,0,0-.371.059L3.575,15.075l-2.367-2.37,1.033-1.038a.313.313,0,0,0,.048-.372,6.74,6.74,0,0,1-.517-1.263.312.312,0,0,0-.3-.216H0V6.467H1.471a.312.312,0,0,0,.3-.226A6.714,6.714,0,0,1,2.29,4.978a.316.316,0,0,0-.048-.372L1.208,3.567,3.566,1.2,4.608,2.244a.309.309,0,0,0,.371.049,6.6,6.6,0,0,1,1.256-.519.315.315,0,0,0,.225-.3Z" transform="matrix(0.951, 0.309, -0.309, 0.951, 22.836, 17.213)" fill="#0f7ac9" stroke="#fff" stroke-miterlimit="8" stroke-width="1.8" fill-rule="evenodd"></path>
    <path id="Path_1576" data-name="Path 1576" d="M359.328,1509a3.328,3.328,0,1,0,3.328,3.332A3.338,3.338,0,0,0,359.328,1509Z" transform="translate(-331.269 -1484.864)" fill="none" stroke="#fff" stroke-miterlimit="8" stroke-width="1.8" fill-rule="evenodd"></path>
  </g>
</svg>
