<svg id="Icon-Multiday-Booking" xmlns="http://www.w3.org/2000/svg" width="60" height="60" viewBox="0 0 60 60">
  <path id="Path_273" data-name="Path 273" d="M114.521,230.126h-4.535a.892.892,0,0,1-.891-.892V180.027a1.79,1.79,0,0,0-1.784-1.791h-50.1a1.794,1.794,0,0,0-1.79,1.791v50.1a1.792,1.792,0,0,0,1.79,1.791h49.2a.894.894,0,0,1,.9.9v4.533a.886.886,0,0,0,.887.89h6.324a.892.892,0,0,0,.9-.89v-6.325a.9.9,0,0,0-.9-.9" transform="translate(-55.418 -178.236)" fill="#768ec7"/>
  <g id="Group_2033" data-name="Group 2033" transform="translate(-105.718 -600.42)">
    <path id="Path_1514" data-name="Path 1514" d="M48.064,43.849l-7.294,7.2V51.1H23.158a1.929,1.929,0,0,1-1.943-1.919V18.617A1.929,1.929,0,0,1,23.158,16.7h23A1.929,1.929,0,0,1,48.1,18.617V43.849Z" transform="translate(98 593)" fill="none" stroke="#fff" stroke-linecap="round" stroke-linejoin="round" stroke-miterlimit="10" stroke-width="1.5"/>
    <path id="Path_1515" data-name="Path 1515" d="M50,63.847v-7.2h7.286Z" transform="translate(88.782 580.207)" fill="none" stroke="#fff" stroke-linecap="round" stroke-linejoin="round" stroke-miterlimit="10" stroke-width="1.5"/>
    <path id="Path_1516" data-name="Path 1516" d="M42.984,29.17a3.708,3.708,0,0,1-1.218,2.745,3.8,3.8,0,0,1-5.08,0,3.689,3.689,0,0,1-1.226-2.745,3.763,3.763,0,0,1,7.525,0Z" transform="translate(93.438 590.195)" fill="none" stroke="#fff" stroke-linecap="round" stroke-linejoin="round" stroke-miterlimit="10" stroke-width="1.5"/>
    <path id="Path_1517" data-name="Path 1517" d="M31.945,42.461a6.128,6.128,0,0,1,.263-1.762,6.038,6.038,0,0,1,1.409-2.407,6.213,6.213,0,0,1,8.966,0A6.038,6.038,0,0,1,43.992,40.7a6.128,6.128,0,0,1,.263,1.762" transform="translate(94.563 586.696)" fill="none" stroke="#fff" stroke-linecap="round" stroke-linejoin="round" stroke-miterlimit="10" stroke-width="1.5"/>
    <path id="Path_1518" data-name="Path 1518" d="M35.963,43.8l2.4,2.367,4.451-4.4" transform="translate(93.277 584.969)" fill="none" stroke="#fff" stroke-linecap="round" stroke-linejoin="round" stroke-miterlimit="10" stroke-width="1.5"/>
    <path id="Path_1519" data-name="Path 1519" d="M30.484,37.655a9.158,9.158,0,0,1-3.2-6.945,9.325,9.325,0,0,1,18.648,0,9.158,9.158,0,0,1-3.2,6.945" transform="translate(96.057 591.462)" fill="none" stroke="#fff" stroke-linecap="round" stroke-linejoin="round" stroke-miterlimit="10" stroke-width="1.5"/>
    <path id="Path_1520" data-name="Path 1520" d="M27.634,51.771H38.949" transform="translate(95.944 581.767)" fill="none" stroke="#fff" stroke-linecap="round" stroke-linejoin="round" stroke-miterlimit="10" stroke-width="1.5"/>
    <path id="Path_1521" data-name="Path 1521" d="M27.634,57.082H38.949" transform="translate(95.944 580.066)" fill="none" stroke="#fff" stroke-linecap="round" stroke-linejoin="round" stroke-miterlimit="10" stroke-width="1.5"/>
    <path id="Path_1522" data-name="Path 1522" d="M27.634,61.734H38.949" transform="translate(95.944 578.576)" fill="none" stroke="#fff" stroke-linecap="round" stroke-linejoin="round" stroke-miterlimit="10" stroke-width="1.5"/>
  </g>
</svg>
