<svg id="Icon-Live-View" xmlns="http://www.w3.org/2000/svg" xmlns:xlink="http://www.w3.org/1999/xlink" width="60.146" height="60.146" viewBox="0 0 60.146 60.146">
  <defs>
    <clipPath id="clip-path">
      <rect id="Rectangle_710" data-name="Rectangle 710" width="48" height="48" transform="translate(88 473)" fill="none"/>
    </clipPath>
    <clipPath id="clip-path-2">
      <rect id="Rectangle_709" data-name="Rectangle 709" width="47" height="47" transform="translate(0.051 0.052)" fill="none"/>
    </clipPath>
  </defs>
  <g id="Group_1204" data-name="Group 1204">
    <path id="Path_273" data-name="Path 273" d="M114.664,230.252h-4.546a.894.894,0,0,1-.893-.894V180.032a1.794,1.794,0,0,0-1.789-1.8H57.213a1.8,1.8,0,0,0-1.795,1.8v50.22a1.8,1.8,0,0,0,1.795,1.8h49.322a.9.9,0,0,1,.9.9v4.544a.888.888,0,0,0,.889.892h6.339a.894.894,0,0,0,.9-.892v-6.34a.9.9,0,0,0-.9-.9" transform="translate(-55.418 -178.236)" fill="#768ec7"/>
    <g id="Icon_Multi-day_Booking" transform="translate(-85 -470.346)" clip-path="url(#clip-path)">
      <g id="Group_2025" data-name="Group 2025" transform="translate(88.949 473.949)" clip-path="url(#clip-path-2)">
        <g id="Group_2024" data-name="Group 2024" transform="translate(0 0)" clip-path="url(#clip-path-2)">
          <g id="Group_2023" data-name="Group 2023" clip-path="url(#clip-path-2)">
            <path id="Path_1523" data-name="Path 1523" d="M204.124,531.574a6.582,6.582,0,0,0,4.331-1.61" transform="translate(-123.158 -490.73)" fill="none" stroke="#fff" stroke-linecap="round" stroke-linejoin="round" stroke-miterlimit="10" stroke-width="1.4"/>
            <path id="Path_1524" data-name="Path 1524" d="M200.093,532.771l-.068.021" transform="translate(-121.95 -491.556)" fill="none" stroke="#fff" stroke-linecap="round" stroke-linejoin="round" stroke-miterlimit="10" stroke-width="1.4"/>
            <path id="Path_1525" data-name="Path 1525" d="M203.094,532.25v-.061a6.419,6.419,0,0,0,.72.041" transform="translate(-122.854 -491.385)" fill="none" stroke="#fff" stroke-linecap="round" stroke-linejoin="round" stroke-miterlimit="10" stroke-width="1.4"/>
            <path id="Path_1526" data-name="Path 1526" d="M204.124,531.574a6.582,6.582,0,0,0,4.331-1.61" transform="translate(-123.158 -490.73)" fill="none" stroke="#fff" stroke-linecap="round" stroke-linejoin="round" stroke-miterlimit="10" stroke-width="1.4"/>
            <path id="Path_1527" data-name="Path 1527" d="M200.093,532.771l-.068.021" transform="translate(-121.95 -491.556)" fill="none" stroke="#fff" stroke-linecap="round" stroke-linejoin="round" stroke-miterlimit="10" stroke-width="1.4"/>
            <path id="Path_1528" data-name="Path 1528" d="M203.094,532.25v-.061a6.419,6.419,0,0,0,.72.041" transform="translate(-122.854 -491.385)" fill="none" stroke="#fff" stroke-linecap="round" stroke-linejoin="round" stroke-miterlimit="10" stroke-width="1.4"/>
            <path id="Path_1529" data-name="Path 1529" d="M200.093,532.771v.021h-.068A.254.254,0,0,1,200.093,532.771Z" transform="translate(-121.95 -491.556)" fill="none" stroke="#fff" stroke-linecap="round" stroke-linejoin="round" stroke-miterlimit="10" stroke-width="1.4"/>
            <path id="Path_1530" data-name="Path 1530" d="M126.445,488.542v12.1a9.022,9.022,0,0,0-10.614,8.408H96.684v-20.5Z" transform="translate(-91.507 -478.527)" fill="none" stroke="#fff" stroke-linecap="round" stroke-linejoin="round" stroke-miterlimit="10" stroke-width="1.4"/>
            <path id="Path_1531" data-name="Path 1531" d="M96.684,488.542h29.754v6.832H96.684Z" transform="translate(-91.507 -478.527)" fill="none" stroke="#fff" stroke-linecap="round" stroke-linejoin="round" stroke-miterlimit="10" stroke-width="1.4"/>
            <path id="Path_1532" data-name="Path 1532" d="M141.8,514.484a8.99,8.99,0,1,1-17.981,0c0-.151,0-.295.013-.439a9,9,0,0,1,8.984-8.552,9.136,9.136,0,0,1,1.631.144A8.988,8.988,0,0,1,141.8,514.484Z" transform="translate(-99.5 -483.521)" fill="none" stroke="#fff" stroke-linecap="round" stroke-linejoin="round" stroke-miterlimit="10" stroke-width="1.4"/>
            <path id="Path_1533" data-name="Path 1533" d="M130.839,518.681l2.132,2.138,5.126-5.126" transform="translate(-101.569 -486.526)" fill="none" stroke="#fff" stroke-linecap="round" stroke-linejoin="round" stroke-miterlimit="10" stroke-width="1.4"/>
            <path id="Path_1534" data-name="Path 1534" d="M104.98,485.016v4.365" transform="translate(-93.951 -477.488)" fill="none" stroke="#fff" stroke-linecap="round" stroke-linejoin="round" stroke-miterlimit="10" stroke-width="1.4"/>
            <path id="Path_1535" data-name="Path 1535" d="M129.79,485.016v4.365" transform="translate(-101.26 -477.488)" fill="none" stroke="#fff" stroke-linecap="round" stroke-linejoin="round" stroke-miterlimit="10" stroke-width="1.4"/>
            <path id="Path_1536" data-name="Path 1536" d="M99.87,501.423h3.611v3.612H99.87Z" transform="translate(-92.446 -482.322)" fill="none" stroke="#fff" stroke-linecap="round" stroke-linejoin="round" stroke-miterlimit="10" stroke-width="1.2"/>
            <path id="Path_1537" data-name="Path 1537" d="M107.923,501.423h3.612v3.612h-3.612Z" transform="translate(-94.818 -482.322)" fill="none" stroke="#fff" stroke-linecap="round" stroke-linejoin="round" stroke-miterlimit="10" stroke-width="1.2"/>
            <path id="Path_1538" data-name="Path 1538" d="M115.841,501.423h3.611v3.612h-3.611Z" transform="translate(-97.15 -482.322)" fill="none" stroke="#fff" stroke-linecap="round" stroke-linejoin="round" stroke-miterlimit="10" stroke-width="1.2"/>
            <path id="Path_1539" data-name="Path 1539" d="M123.894,501.423H127.5v3.612h-3.611Z" transform="translate(-99.523 -482.322)" fill="none" stroke="#fff" stroke-linecap="round" stroke-linejoin="round" stroke-miterlimit="10" stroke-width="1.2"/>
            <path id="Path_1540" data-name="Path 1540" d="M99.87,508.826h3.611v3.611H99.87Z" transform="translate(-92.446 -484.503)" fill="none" stroke="#fff" stroke-linecap="round" stroke-linejoin="round" stroke-miterlimit="10" stroke-width="1.2"/>
            <path id="Path_1541" data-name="Path 1541" d="M107.923,508.826h3.612v3.611h-3.612Z" transform="translate(-94.818 -484.503)" fill="none" stroke="#fff" stroke-linecap="round" stroke-linejoin="round" stroke-miterlimit="10" stroke-width="1.2"/>
            <path id="Path_1542" data-name="Path 1542" d="M115.841,508.826h3.611v3.611h-3.611Z" transform="translate(-97.15 -484.503)" fill="none" stroke="#fff" stroke-linecap="round" stroke-linejoin="round" stroke-miterlimit="10" stroke-width="1.2"/>
          </g>
        </g>
      </g>
    </g>
  </g>
</svg>
