<svg xmlns="http://www.w3.org/2000/svg" xmlns:xlink="http://www.w3.org/1999/xlink" width="60.234" height="60.234" viewBox="0 0 60.234 60.234"><defs><style>.a{fill:none;}.b{fill:#56a3da;}.c{clip-path:url(#a);}.d{fill:#fff;}</style><clipPath id="a"><rect class="a" width="25.257" height="32.267"/></clipPath></defs><g transform="translate(-851.266 -2563.766)"><path class="b" d="M114.752,230.329H110.2a.9.9,0,0,1-.895-.9v-49.4a1.8,1.8,0,0,0-1.791-1.8h-50.3a1.8,1.8,0,0,0-1.8,1.8v50.294a1.8,1.8,0,0,0,1.8,1.8H106.61a.9.9,0,0,1,.9.9v4.551a.889.889,0,0,0,.891.893h6.348a.9.9,0,0,0,.9-.893v-6.349a.9.9,0,0,0-.9-.9" transform="translate(795.848 2385.53)"/><g transform="translate(859.544 2574.56)"><g transform="translate(6.919 0)"><g class="c" transform="translate(0 0)"><path class="d" d="M17.765,31.749H2.215A2.217,2.217,0,0,1,0,29.534V2.215A2.217,2.217,0,0,1,2.215,0H22.524a2.217,2.217,0,0,1,2.215,2.215V24.767a.5.5,0,0,1-.274.446l-6.247,6.247A.5.5,0,0,1,17.765,31.749ZM2.215,1A1.216,1.216,0,0,0,1,2.215V29.534a1.216,1.216,0,0,0,1.215,1.215h15.3l6.224-6.224V2.215A1.216,1.216,0,0,0,22.524,1Z" transform="translate(0.259 0.259)"/><path class="d" d="M11.881,23.429a.5.5,0,0,1-.5-.5V16.49a.5.5,0,0,1,.5-.5h6.432a.5.5,0,0,1,.354.853l-6.432,6.439A.5.5,0,0,1,11.881,23.429Zm.5-6.439v4.731l4.726-4.731Z" transform="translate(6.15 8.537)"/><path class="d" d="M9.458,3.507A3.819,3.819,0,1,1,5.633,7.325,3.822,3.822,0,0,1,9.458,3.507Zm0,6.643a2.826,2.826,0,1,0-1.905-.74A2.814,2.814,0,0,0,9.458,10.15Z" transform="translate(3.175 2.075)"/><path class="d" d="M15.611,14.314a.5.5,0,0,1-.5-.5,5.017,5.017,0,0,0-.211-1.433A4.936,4.936,0,0,0,6.584,10.43a4.945,4.945,0,0,0-1.13,1.953,5.067,5.067,0,0,0-.211,1.431.5.5,0,0,1-1,0A6.072,6.072,0,0,1,4.5,12.1a5.952,5.952,0,0,1,1.36-2.352,5.936,5.936,0,0,1,8.643,0,5.932,5.932,0,0,1,1.359,2.348,6.019,6.019,0,0,1,.254,1.72A.5.5,0,0,1,15.611,14.314Z" transform="translate(2.455 4.338)"/><path class="d" d="M8.447,14.967a.5.5,0,0,1-.354-.146L5.978,12.7A.5.5,0,1,1,6.685,12L8.447,13.76l3.577-3.576a.5.5,0,0,1,.707.707L8.8,14.821A.5.5,0,0,1,8.447,14.967Z" transform="translate(3.278 5.455)"/><path class="d" d="M5.725,17.362a.5.5,0,0,1-.329-.124,8.732,8.732,0,1,1,11.47,0,.5.5,0,0,1-.658-.753,7.732,7.732,0,1,0-10.154,0,.5.5,0,0,1-.329.876Z" transform="translate(1.501 1.255)"/><path class="d" d="M9.989.5H0A.5.5,0,0,1-.5,0,.5.5,0,0,1,0-.5H9.989a.5.5,0,0,1,.5.5A.5.5,0,0,1,9.989.5Z" transform="translate(4.611 22.067)"/><path class="d" d="M9.989.5H0A.5.5,0,0,1-.5,0,.5.5,0,0,1,0-.5H9.989a.5.5,0,0,1,.5.5A.5.5,0,0,1,9.989.5Z" transform="translate(4.611 25.294)"/><path class="d" d="M9.989.5H0A.5.5,0,0,1-.5,0,.5.5,0,0,1,0-.5H9.989a.5.5,0,0,1,.5.5A.5.5,0,0,1,9.989.5Z" transform="translate(4.611 28.12)"/></g></g></g></g></svg>