<svg xmlns="http://www.w3.org/2000/svg" xmlns:xlink="http://www.w3.org/1999/xlink" width="60.234" height="60.234" viewBox="0 0 60.234 60.234"><defs><style>.a{fill:none;}.b{fill:#56a3da;}.c{clip-path:url(#a);}.d{fill:#fff;}</style><clipPath id="a"><rect class="a" width="33.862" height="27.362"/></clipPath></defs><g transform="translate(-851.266 -2563.766)"><path class="b" d="M114.752,230.329H110.2a.9.9,0,0,1-.895-.9v-49.4a1.8,1.8,0,0,0-1.791-1.8h-50.3a1.8,1.8,0,0,0-1.8,1.8v50.294a1.8,1.8,0,0,0,1.8,1.8H106.61a.9.9,0,0,1,.9.9v4.551a.889.889,0,0,0,.891.893h6.348a.9.9,0,0,0,.9-.893v-6.349a.9.9,0,0,0-.9-.9" transform="translate(795.848 2385.53)"/><g transform="translate(861.464 2578.013)"><g class="c" transform="translate(0 0)"><path class="d" d="M17.284,14.848,9.659,7.214,5.324,11.548l-.707-.707L9.659,5.8l7.625,7.634L30.58.146l.707.707Z" transform="translate(2.206 0.222)"/><path class="d" d="M27.4,13.34h-1V1H14.052V0H27.4Z" transform="translate(6.238 0.221)"/><path class="d" d="M8.2,7.279a8.2,8.2,0,1,1-8.2,8.2A8.214,8.214,0,0,1,8.2,7.279Zm0,15.408a7.2,7.2,0,1,0-7.2-7.2A7.212,7.212,0,0,0,8.2,22.687Z" transform="translate(0.222 3.453)"/><path class="d" d="M6.542,19.706a3.4,3.4,0,0,1-1.326-.268,3.223,3.223,0,0,1-1.589-1.445l.883-.469a2.327,2.327,0,0,0,2.6,1.113,2.053,2.053,0,0,0,1.341-1.071l0-.007a1.608,1.608,0,0,0-.122-1.594,3.831,3.831,0,0,0-1.662-1.071c-.259-.113-.527-.23-.777-.361A3.276,3.276,0,0,1,4.255,12.9a2.575,2.575,0,0,1,.507-2.621,2.874,2.874,0,0,1,2.485-.872,3.08,3.08,0,0,1,2.4,1.689l-.92.391A2.109,2.109,0,0,0,7.117,10.4a1.888,1.888,0,0,0-1.613.551,1.578,1.578,0,0,0-.32,1.582,2.332,2.332,0,0,0,1.173,1.114c.219.115.459.22.713.33a4.683,4.683,0,0,1,2.074,1.4,2.6,2.6,0,0,1,.214,2.607A3.063,3.063,0,0,1,7.365,19.6l-.009,0A3.386,3.386,0,0,1,6.542,19.706Z" transform="translate(1.806 4.387)"/><path class="d" d="M.5,11.231h-1V0h1Z" transform="translate(8.699 13.316)"/></g></g></g></svg>