<svg width="61" height="61" viewBox="0 0 61 61" fill="none" xmlns="http://www.w3.org/2000/svg">
<path d="M59.8157 52.0922H55.263C54.7711 52.0922 54.3684 51.6928 54.3684 51.197V1.79785C54.3684 0.808197 53.567 -0.000488281 52.5771 -0.000488281H2.28359C1.29173 -0.000488281 0.486328 0.808197 0.486328 1.79785V52.0922C0.486328 53.0838 1.29173 53.8905 2.28359 53.8905H51.6745C52.1724 53.8905 52.5771 54.2879 52.5771 54.7897V59.3406C52.5771 59.8365 52.9738 60.2339 53.4678 60.2339H59.8157C60.3136 60.2339 60.7163 59.8365 60.7163 59.3406V52.9913C60.7163 52.4955 60.3136 52.0922 59.8157 52.0922Z" fill="#CF142B"></path>
<path fill-rule="evenodd" clip-rule="evenodd" d="M20.4034 38.2108H17.3675C16.9488 38.2108 16.598 37.9017 16.5457 37.4826L16.3416 35.7903C15.5669 35.5021 14.855 35.083 14.2321 34.5643L12.6618 35.2349C12.2745 35.4025 11.8296 35.2506 11.6202 34.8891C11.1125 34.0141 10.61 33.1339 10.1022 32.259C9.89286 31.8922 9.98708 31.4364 10.3221 31.1849L11.683 30.1632C11.5469 29.3564 11.5469 28.5286 11.683 27.7217L10.3221 26.7C9.98708 26.4486 9.89286 25.9875 10.1022 25.626C10.61 24.751 11.1125 23.8708 11.6202 22.9958C11.8296 22.6291 12.2745 22.4824 12.6618 22.65L14.2321 23.3207C14.855 22.802 15.5721 22.3881 16.3468 22.0999L16.5509 20.4076C16.6033 19.9885 16.954 19.6793 17.3727 19.6793H20.4087C20.8274 19.6793 21.1781 19.9885 21.2304 20.4076L21.4346 22.0999C22.2093 22.3881 22.9211 22.802 23.5493 23.3207L25.1196 22.65C25.5069 22.4824 25.9518 22.6343 26.1612 22.9958C26.6689 23.8708 27.1714 24.751 27.6792 25.626C27.8885 25.9927 27.7943 26.4486 27.4593 26.7L26.0984 27.7217C26.2345 28.5286 26.2345 29.3564 26.0984 30.1632L27.4593 31.1849C27.7943 31.4364 27.8885 31.8974 27.6792 32.259C27.1714 33.1339 26.6689 34.0141 26.1612 34.8891C25.9518 35.2558 25.5069 35.4025 25.1196 35.2349L23.5493 34.5643C22.9264 35.083 22.2093 35.4969 21.4346 35.785L21.2304 37.4773C21.1729 37.8965 20.8274 38.2108 20.4034 38.2108ZM18.8855 24.751C16.5771 24.751 14.7032 26.6267 14.7032 28.9372C14.7032 31.2478 16.5771 33.1234 18.8855 33.1234C21.1938 33.1234 23.0677 31.2478 23.0677 28.9372C23.0677 26.6215 21.1938 24.751 18.8855 24.751ZM36.342 43.7907C35.5254 43.5706 34.7089 43.3506 33.8871 43.1305C33.5469 43.0415 33.3322 42.7114 33.3794 42.3656L33.5783 40.9562C33.013 40.558 32.5314 40.0655 32.1336 39.5102L30.7203 39.7093C30.3696 39.7564 30.0451 39.5416 29.9561 39.2011C29.7363 38.3837 29.5164 37.5664 29.2966 36.7438C29.2076 36.4033 29.3803 36.0522 29.7048 35.9212L31.0291 35.3868C31.0919 34.7057 31.2752 34.0351 31.5578 33.4116L30.6784 32.2904C30.4638 32.0127 30.4848 31.6198 30.736 31.3735C31.3327 30.7762 31.9347 30.1737 32.5314 29.5764C32.7826 29.3249 33.17 29.304 33.4474 29.5188L34.5675 30.399C35.1852 30.1161 35.85 29.9327 36.5409 29.8698L37.0696 28.5495C37.2004 28.2247 37.5511 28.0465 37.8914 28.1409C38.7079 28.3609 39.5245 28.581 40.3463 28.801C40.6865 28.8901 40.9011 29.2201 40.854 29.5659L40.6551 30.9753C41.2204 31.3735 41.702 31.866 42.0998 32.4214L43.513 32.2223C43.8637 32.1751 44.1883 32.3899 44.2773 32.7305C44.4971 33.5478 44.7169 34.3652 44.9368 35.1877C45.0258 35.5283 44.853 35.8793 44.5285 36.0103L43.2042 36.5447C43.1414 37.2258 42.9582 37.8965 42.6755 38.5199L43.5549 39.6412C43.7695 39.9188 43.7486 40.3118 43.4973 40.558L41.702 42.3551C41.4507 42.6066 41.0634 42.6276 40.7859 42.4128L39.6658 41.5273C39.0482 41.8102 38.3834 41.9936 37.6925 42.0565L37.1638 43.3768C37.0329 43.7069 36.6822 43.885 36.342 43.7907ZM38.0275 32.589C36.164 32.0861 34.243 33.1968 33.7458 35.062C33.2433 36.9272 34.3529 38.85 36.2164 39.3478C38.0798 39.8507 40.0008 38.74 40.4981 36.8748C41.0006 35.0096 39.8909 33.092 38.0275 32.589ZM33.7667 25.6731C34.1069 25.7622 34.4576 25.5893 34.5885 25.2645L35.1172 23.9442C35.8081 23.8813 36.4729 23.6979 37.0905 23.415L38.2106 24.2952C38.4881 24.51 38.8807 24.489 39.1267 24.2376C39.7234 23.6403 40.3253 23.0378 40.922 22.4405C41.1733 22.189 41.1942 21.8013 40.9796 21.5236L40.1003 20.4024C40.3829 19.7789 40.5609 19.1083 40.6289 18.4272L41.9532 17.8927C42.2777 17.7618 42.4557 17.4107 42.3615 17.0702C42.1416 16.2528 41.9218 15.4355 41.702 14.6129C41.613 14.2724 41.2832 14.0576 40.9377 14.1047L39.5245 14.3038C39.1319 13.7484 38.6451 13.2612 38.0798 12.8578L38.2787 11.4484C38.3258 11.0973 38.1112 10.7725 37.771 10.6834C36.9544 10.4634 36.1379 10.2433 35.3161 10.0233C34.9758 9.93421 34.6251 10.1071 34.4943 10.4319L33.9656 11.7523C33.2747 11.8151 32.6099 11.9985 31.9923 12.2814L30.8721 11.4012C30.5947 11.1864 30.2021 11.2074 29.9561 11.4589C29.3594 12.0561 28.7574 12.6587 28.1607 13.2559C27.9095 13.5074 27.8885 13.8951 28.1031 14.1728L28.9825 15.294C28.6999 15.9175 28.5219 16.5882 28.4538 17.2693L27.1296 17.8037C26.805 17.9347 26.6271 18.2857 26.7213 18.6262C26.9411 19.4436 27.161 20.2609 27.3808 21.0835C27.4698 21.424 27.7995 21.6389 28.145 21.5917L29.5583 21.3926C29.9509 21.948 30.4377 22.4352 31.003 22.8387L30.8041 24.248C30.757 24.5991 30.9716 24.9239 31.3118 25.013C32.1336 25.233 32.9501 25.4531 33.7667 25.6731ZM35.4522 14.4662C37.3156 14.9692 38.4253 16.8868 37.9228 18.752C37.4203 20.6172 35.5045 21.7279 33.6411 21.2249C31.7776 20.722 30.668 18.8044 31.1705 16.9392C31.6677 15.074 33.5887 13.9685 35.4522 14.4662Z" stroke="white" stroke-width="1.2" stroke-linecap="round" stroke-linejoin="round"></path>
</svg>
