<svg width="61" height="61" viewBox="0 0 61 61" fill="none" xmlns="http://www.w3.org/2000/svg">
<path d="M59.7874 52.8212H55.2347C54.7428 52.8212 54.3401 52.4218 54.3401 51.926V2.52686C54.3401 1.5372 53.5386 0.728516 52.5488 0.728516H2.25527C1.26341 0.728516 0.458008 1.5372 0.458008 2.52686V52.8212C0.458008 53.8129 1.26341 54.6195 2.25527 54.6195H51.6462C52.1441 54.6195 52.5488 55.017 52.5488 55.5187V60.0696C52.5488 60.5655 52.9455 60.9629 53.4394 60.9629H59.7874C60.2853 60.9629 60.688 60.5655 60.688 60.0696V53.7204C60.688 53.2245 60.2853 52.8212 59.7874 52.8212Z" fill="#CF142B"></path>
<path d="M20.7194 21.912L27.2474 16.664H31.2154V39H26.7354V21.752L22.9594 24.824L20.7194 21.912Z" fill="white"></path>
</svg>
