<svg width="61" height="61" viewBox="0 0 61 61" fill="none" xmlns="http://www.w3.org/2000/svg">
<path d="M59.8157 52.0922H55.263C54.7711 52.0922 54.3684 51.6928 54.3684 51.197V1.79785C54.3684 0.808197 53.567 -0.000488281 52.5771 -0.000488281H2.28359C1.29173 -0.000488281 0.486328 0.808197 0.486328 1.79785V52.0922C0.486328 53.0838 1.29173 53.8905 2.28359 53.8905H51.6745C52.1724 53.8905 52.5771 54.2879 52.5771 54.7897V59.3406C52.5771 59.8365 52.9738 60.2339 53.4678 60.2339H59.8157C60.3136 60.2339 60.7163 59.8365 60.7163 59.3406V52.9913C60.7163 52.4955 60.3136 52.0922 59.8157 52.0922Z" fill="#CF142B"></path>
<rect x="10.9912" y="14" width="30.3555" height="20.8607" stroke="white" stroke-width="1.6"></rect>
<path d="M18.9082 37.3782H33.4289V41.1544H18.9082V37.3782Z" stroke="white" stroke-width="1.6"></path>
<line x1="23.7473" y1="34.8062" x2="23.7473" y2="37.3777" stroke="white" stroke-width="1.6"></line>
<line x1="30.1906" y1="34.8062" x2="30.1906" y2="37.3777" stroke="white" stroke-width="1.6"></line>
<path d="M45.4038 33.2668L45.0184 36.8281C44.9579 37.4103 44.8897 37.9925 44.8292 38.5747C44.7388 39.3839 44.4521 40.5935 44.0437 41.3045C42.3594 44.253 38.8473 45.2356 35.9238 43.4744C34.9944 42.9145 34.2694 42.1437 33.7713 41.2662L31.4371 37.5008L29.9413 35.0816C29.5559 34.5371 29.503 33.789 29.8731 33.1839C30.3643 32.36 31.4371 32.1025 32.2525 32.5941C32.4946 32.7452 32.6908 32.9423 32.8341 33.1686L33.7713 34.6811V26.9993C33.7713 26.6893 33.8541 26.3865 34.0203 26.0995C34.5185 25.2827 35.5837 25.018 36.3997 25.5097C36.9361 25.8349 37.2381 26.4094 37.2381 26.9993V30.4694C37.7821 30.0989 38.5147 30.0536 39.1187 30.4165C39.4512 30.6205 39.6933 30.9081 39.829 31.241C40.3807 30.7723 41.1885 30.6811 41.8459 31.0745C42.1631 31.2633 42.3969 31.5432 42.5333 31.8608C43.0843 31.3768 43.9081 31.2862 44.5725 31.679C44.633 31.7173 44.6935 31.7549 44.7464 31.8002C45.1923 32.163 45.4338 32.7153 45.4038 33.2668Z" fill="#CF142B" stroke="white" stroke-width="1.34959"></path>
</svg>
