<svg width="61" height="61" viewBox="0 0 61 61" fill="none" xmlns="http://www.w3.org/2000/svg">
<path d="M59.7874 52.0927H55.2347C54.7428 52.0927 54.3401 51.6933 54.3401 51.1974V1.79834C54.3401 0.808685 53.5386 0 52.5488 0H2.25527C1.26341 0 0.458008 0.808685 0.458008 1.79834V52.0927C0.458008 53.0843 1.26341 53.891 2.25527 53.891H51.6462C52.1441 53.891 52.5488 54.2884 52.5488 54.7902V59.3411C52.5488 59.8369 52.9455 60.2344 53.4394 60.2344H59.7874C60.2853 60.2344 60.688 59.8369 60.688 59.3411V52.9918C60.688 52.496 60.2853 52.0927 59.7874 52.0927Z" fill="#CF142B"></path>
<path d="M33.8714 15.9355V19.2635H25.2634L25.1674 24.0315C25.6794 23.9355 26.3514 23.8075 27.2154 23.8075C30.3514 23.8075 34.4154 25.2795 34.4154 31.0715C34.4154 35.2635 31.4714 38.6555 25.7114 38.6555C23.9834 38.6555 21.9674 38.3675 20.4954 38.0155L20.5914 34.0155C21.6794 34.4635 23.2154 35.1355 25.1674 35.1355C27.5034 35.1355 29.9354 34.0475 29.9354 31.1995C29.9354 28.3195 27.3754 27.3275 24.8154 27.3275C23.4394 27.3275 22.1274 27.5195 20.8154 27.9355L21.0394 15.9355H33.8714Z" fill="white"></path>
</svg>
