<svg width="61" height="61" viewBox="0 0 61 61" fill="none" xmlns="http://www.w3.org/2000/svg">
<path d="M59.8157 52.0922H55.263C54.7711 52.0922 54.3684 51.6928 54.3684 51.197V1.79785C54.3684 0.808197 53.567 -0.000488281 52.5771 -0.000488281H2.28359C1.29173 -0.000488281 0.486328 0.808197 0.486328 1.79785V52.0922C0.486328 53.0838 1.29173 53.8905 2.28359 53.8905H51.6745C52.1724 53.8905 52.5771 54.2879 52.5771 54.7897V59.3406C52.5771 59.8365 52.9738 60.2339 53.4678 60.2339H59.8157C60.3136 60.2339 60.7163 59.8365 60.7163 59.3406V52.9913C60.7163 52.4955 60.3136 52.0922 59.8157 52.0922Z" fill="#CF142B"></path>
<path d="M22.2979 40.7952H10.8779V13.3574H16.5183V14.8023C16.5183 15.4057 17.0076 15.895 17.6109 15.895H28.3681C28.9714 15.895 29.4607 15.4057 29.4607 14.8023V13.3574H35.2657V22.7684" stroke="white" stroke-width="2"></path>
<path d="M29.46 10.9463V14.8023C29.46 15.4057 28.9707 15.895 28.3674 15.895H17.6102C17.0069 15.895 16.5176 15.4057 16.5176 14.8023V10.9463H19.4218C20.0251 10.9463 20.5143 10.457 20.5143 9.85362V8.99354C20.5143 8.39019 21.0036 7.90088 21.6069 7.90088H24.3706C24.9739 7.90088 25.4632 8.39019 25.4632 8.99354V9.85362C25.4632 10.457 25.9525 10.9463 26.5558 10.9463H29.46Z" stroke="white" stroke-width="2"></path>
<path d="M44.8451 35.8157C44.8451 41.6497 40.1158 46.3793 34.2822 46.3793C30.2489 46.3793 26.7431 44.1187 24.9641 40.7953C24.1693 39.3116 23.7188 37.6167 23.7188 35.8157C23.7188 29.9811 28.448 25.2515 34.2822 25.2515C34.6136 25.2515 34.9417 25.2667 35.2652 25.2964C40.6382 25.7924 44.8451 30.3125 44.8451 35.8157Z" stroke="white" stroke-width="2"></path>
<line x1="14.2666" y1="19.2095" x2="31.2336" y2="19.2095" stroke="white" stroke-width="2"></line>
<line x1="14.2666" y1="24.0132" x2="25.4326" y2="24.0132" stroke="white" stroke-width="2"></line>
<line x1="14.2666" y1="28.8164" x2="21.5323" y2="28.8164" stroke="white" stroke-width="2"></line>
<path d="M28.3662 35.6661L32.7413 39.9421L40.1988 31.6885" stroke="white" stroke-width="2" stroke-linecap="square"></path>
</svg>
