<svg width="61" height="61" viewBox="0 0 61 61" fill="none" xmlns="http://www.w3.org/2000/svg">
<path d="M59.7874 52.0927H55.2347C54.7428 52.0927 54.3401 51.6933 54.3401 51.1974V1.79834C54.3401 0.808685 53.5386 0 52.5488 0H2.25527C1.26341 0 0.458008 0.808685 0.458008 1.79834V52.0927C0.458008 53.0843 1.26341 53.891 2.25527 53.891H51.6462C52.1441 53.891 52.5488 54.2884 52.5488 54.7902V59.3411C52.5488 59.8369 52.9455 60.2344 53.4394 60.2344H59.7874C60.2853 60.2344 60.688 59.8369 60.688 59.3411V52.9918C60.688 52.496 60.2853 52.0927 59.7874 52.0927Z" fill="#CF142B"></path>
<path d="M22.7354 30.3035H28.3354V20.6075H28.2714L22.7354 30.3035ZM18.7034 33.6315V30.0155L27.0554 15.9355H32.6234V30.3035H35.4714V33.6315H32.6234V38.2715H28.3354V33.6315H18.7034Z" fill="white"></path>
</svg>
