<svg id="Icon-improved-user-friendliness" xmlns="http://www.w3.org/2000/svg" width="60" height="60" viewBox="0 0 60 60">
  <path id="Path_273" data-name="Path 273" d="M114.521,230.117h-4.535a.892.892,0,0,1-.891-.892v-49.2a1.79,1.79,0,0,0-1.785-1.8h-50.1a1.8,1.8,0,0,0-1.791,1.8v50.09a1.8,1.8,0,0,0,1.791,1.8h49.2a.9.9,0,0,1,.9.9v4.532a.886.886,0,0,0,.887.89h6.324a.892.892,0,0,0,.9-.89v-6.324a.9.9,0,0,0-.9-.9" transform="translate(-55.418 -178.232)" fill="#cf142b"></path>
  <g id="Group_2096" data-name="Group 2096" transform="translate(6.143 12.33)">
    <g id="Group_2087" data-name="Group 2087" transform="translate(16.989)">
      <ellipse id="Ellipse_30" data-name="Ellipse 30" cx="6.919" cy="6.918" rx="6.919" ry="6.918" transform="translate(4.295)" fill="none" stroke="#fff" stroke-miterlimit="10" stroke-width="2"></ellipse>
      <path id="Path_1555" data-name="Path 1555" d="M755.855,234.992V230.4a7.98,7.98,0,0,1,7.981-7.979h6.473a7.98,7.98,0,0,1,7.981,7.979v4.594" transform="translate(-755.855 -206.941)" fill="none" stroke="#fff" stroke-miterlimit="10" stroke-width="2"></path>
    </g>
    <g id="Group_2088" data-name="Group 2088" transform="translate(7.309 10.492)">
      <ellipse id="Ellipse_31" data-name="Ellipse 31" cx="2.849" cy="2.849" rx="2.849" ry="2.849" transform="translate(1.769)" fill="none" stroke="#fff" stroke-miterlimit="10" stroke-width="2"></ellipse>
      <path id="Path_1556" data-name="Path 1556" d="M746.617,228.084v-1.054a3.286,3.286,0,0,1,3.285-3.284h2.667a3.286,3.286,0,0,1,3.285,3.284" transform="translate(-746.617 -217.37)" fill="none" stroke="#fff" stroke-miterlimit="10" stroke-width="2"></path>
    </g>
    <path id="Path_1557" data-name="Path 1557" d="M754.419,232.861H741.106a.823.823,0,0,1-.792-.6l-.641-2.294a.823.823,0,0,1,.8-1.044h13.952" transform="translate(-739.643 -206.631)" fill="none" stroke="#fff" stroke-miterlimit="10" stroke-width="2"></path>
    <path id="Path_1558" data-name="Path 1558" d="M741.662,229.55V217.273a1.476,1.476,0,0,1,1.476-1.476h16.125" transform="translate(-739.546 -207.257)" fill="none" stroke="#fff" stroke-miterlimit="10" stroke-width="2"></path>
  </g>
</svg>
