<svg id="Iocn-optimised-project-management" xmlns="http://www.w3.org/2000/svg" width="60" height="60" viewBox="0 0 60 60">
  <g id="Ricoh_Ribbon_-_Digital_WF" data-name="Ricoh Ribbon - Digital WF">
    <path id="Path_1007" data-name="Path 1007" d="M114.521,230.126h-4.535a.892.892,0,0,1-.891-.892V180.027a1.79,1.79,0,0,0-1.784-1.791h-50.1a1.794,1.794,0,0,0-1.79,1.791v50.1a1.792,1.792,0,0,0,1.79,1.791h49.2a.894.894,0,0,1,.9.9v4.533a.886.886,0,0,0,.887.89h6.324a.892.892,0,0,0,.9-.89v-6.325a.9.9,0,0,0-.9-.9" transform="translate(-55.418 -178.236)" fill="#cf142b"></path>
  </g>
  <g id="Group_2496" data-name="Group 2496" transform="translate(8.875 12.167)">
    <rect id="Rectangle_700" data-name="Rectangle 700" width="35.282" height="24.223" rx="1" fill="none" stroke="#fff" stroke-miterlimit="10" stroke-width="1.6"></rect>
    <g id="Group_2066" data-name="Group 2066" transform="translate(13.897 24.16)">
      <line id="Line_191" data-name="Line 191" y2="2.986" fill="none" stroke="#fff" stroke-miterlimit="10" stroke-width="1.6"></line>
      <line id="Line_192" data-name="Line 192" y2="2.986" transform="translate(7.489)" fill="none" stroke="#fff" stroke-miterlimit="10" stroke-width="1.6"></line>
    </g>
    <rect id="Rectangle_701" data-name="Rectangle 701" width="16.877" height="4.385" rx="1" transform="translate(9.202 27.146)" fill="none" stroke="#fff" stroke-miterlimit="10" stroke-width="1.6"></rect>
  </g>
  <g id="Group_2497" data-name="Group 2497" transform="translate(13.963 8.657)">
    <ellipse id="Ellipse_19" data-name="Ellipse 19" cx="2.707" cy="2.707" rx="2.707" ry="2.707" transform="translate(15.072 2.568)" fill="#cf142b"></ellipse>
    <path id="Path_1908" data-name="Path 1908" d="M23.454,47.49h-2.18a.593.593,0,0,1-.59-.522l-.147-1.214a5.207,5.207,0,0,1-1.514-.879l-1.127.481a.592.592,0,0,1-.748-.248c-.365-.628-.725-1.259-1.09-1.886a.591.591,0,0,1,.158-.77l.977-.733a5.268,5.268,0,0,1,0-1.751l-.977-.733a.592.592,0,0,1-.158-.77c.365-.628.725-1.259,1.09-1.886a.588.588,0,0,1,.748-.248l1.127.481a5.216,5.216,0,0,1,1.518-.876l.147-1.214a.593.593,0,0,1,.59-.522h2.18a.593.593,0,0,1,.59.522l.147,1.214a5.266,5.266,0,0,1,1.518.876l1.127-.481a.592.592,0,0,1,.748.248c.365.628.725,1.259,1.09,1.886a.591.591,0,0,1-.158.77l-.977.733a5.268,5.268,0,0,1,0,1.751l.977.733a.592.592,0,0,1,.158.77c-.365.628-.725,1.259-1.09,1.886a.588.588,0,0,1-.748.248l-1.127-.481a5.216,5.216,0,0,1-1.518.876l-.147,1.214a.6.6,0,0,1-.594.526Zm-1.09-9.654a3,3,0,1,0,3,3,3,3,0,0,0-3-3ZM34.9,51.492l-1.762-.473a.5.5,0,0,1-.365-.549l.143-1.011a4.384,4.384,0,0,1-1.037-1.037l-1.015.143a.494.494,0,0,1-.549-.365c-.158-.586-.316-1.172-.473-1.762a.5.5,0,0,1,.293-.59l.951-.383a4.426,4.426,0,0,1,.38-1.417l-.631-.8a.5.5,0,0,1,.041-.658L32.161,41.3a.5.5,0,0,1,.658-.041l.8.631a4.349,4.349,0,0,1,1.417-.38l.38-.947a.493.493,0,0,1,.59-.293l1.762.473a.5.5,0,0,1,.365.549L37.993,42.3a4.384,4.384,0,0,1,1.037,1.037l1.015-.143a.494.494,0,0,1,.549.365c.158.586.316,1.172.473,1.762a.5.5,0,0,1-.293.59l-.951.383a4.426,4.426,0,0,1-.38,1.417l.631.8a.5.5,0,0,1-.041.658l-1.289,1.289a.5.5,0,0,1-.658.041l-.8-.635a4.349,4.349,0,0,1-1.417.38l-.38.947a.492.492,0,0,1-.59.3Zm1.21-8.034a2.51,2.51,0,1,0,1.774,3.074,2.508,2.508,0,0,0-1.774-3.074ZM33.048,38.5a.5.5,0,0,0,.59-.293l.38-.947a4.349,4.349,0,0,0,1.417-.38l.8.631a.5.5,0,0,0,.658-.041l1.289-1.289a.5.5,0,0,0,.041-.658l-.631-.8a4.525,4.525,0,0,0,.38-1.417l.951-.383a.493.493,0,0,0,.293-.59c-.158-.586-.316-1.172-.473-1.762A.5.5,0,0,0,38.2,30.2l-1.015.143a4.384,4.384,0,0,0-1.037-1.037l.143-1.011a.494.494,0,0,0-.365-.549l-1.762-.473a.5.5,0,0,0-.59.293l-.38.947a4.349,4.349,0,0,0-1.417.38l-.8-.631a.5.5,0,0,0-.658.041l-1.289,1.289a.5.5,0,0,0-.041.658l.631.8a4.525,4.525,0,0,0-.38,1.417l-.951.383a.493.493,0,0,0-.293.59c.158.586.316,1.172.473,1.762a.5.5,0,0,0,.549.365l1.015-.143a4.384,4.384,0,0,0,1.037,1.037l-.143,1.011a.494.494,0,0,0,.365.549l1.762.474Zm1.21-8.038a2.509,2.509,0,1,1-3.074,1.774A2.51,2.51,0,0,1,34.258,30.459Z" transform="translate(-15.979 -27.256)" fill="#cf142b" stroke="#fff" stroke-linecap="round" stroke-linejoin="round" stroke-miterlimit="10" stroke-width="1.2" fill-rule="evenodd"></path>
  </g>
</svg>
