<svg id="Icon-Dissolving-Issues" xmlns="http://www.w3.org/2000/svg" xmlns:xlink="http://www.w3.org/1999/xlink" width="111" height="111" viewBox="0 0 111 111">
  <defs>
    <clipPath id="clip-path">
      <rect id="Rectangle_696" data-name="Rectangle 696" width="66" height="69" transform="translate(462 1855.113)"/>
    </clipPath>
  </defs>
  <path id="Path_273" data-name="Path 273" d="M164.758,274.233h-8.39a1.65,1.65,0,0,1-1.649-1.65V181.55a3.311,3.311,0,0,0-3.3-3.314H58.73a3.318,3.318,0,0,0-3.312,3.314v92.683a3.316,3.316,0,0,0,3.312,3.314h91.024a1.655,1.655,0,0,1,1.663,1.657v8.386a1.639,1.639,0,0,0,1.642,1.646h11.7a1.649,1.649,0,0,0,1.66-1.646v-11.7a1.659,1.659,0,0,0-1.66-1.657" transform="translate(-55.418 -178.236)" fill="#768ec7"/>
  <g id="Icon_10" transform="translate(-444.5 -1840.474)" clip-path="url(#clip-path)">
    <path id="Path_1485" data-name="Path 1485" d="M562.788,1867.388a5.4,5.4,0,0,1-5.394,5.4,5.394,5.394,0,1,1,0-10.788A5.4,5.4,0,0,1,562.788,1867.388Z" transform="translate(-62.259 -4.264)" fill="none" stroke="#fff" stroke-linecap="round" stroke-linejoin="round" stroke-miterlimit="10" stroke-width="2" fill-rule="evenodd"/>
    <path id="Path_1486" data-name="Path 1486" d="M558.57,1905.939H541a9.182,9.182,0,0,1,.373-2.589,8.909,8.909,0,0,1,2.018-3.536,8.68,8.68,0,0,1,12.8,0,9.091,9.091,0,0,1,2.018,3.545A9.318,9.318,0,0,1,558.57,1905.939Z" transform="translate(-54.649 -28.476)" fill="none" stroke="#fff" stroke-linecap="round" stroke-linejoin="round" stroke-miterlimit="10" stroke-width="2" fill-rule="evenodd"/>
    <path id="Path_1487" data-name="Path 1487" d="M562.788,2009.388a5.4,5.4,0,0,1-5.394,5.4,5.394,5.394,0,1,1,0-10.788A5.4,5.4,0,0,1,562.788,2009.388Z" transform="translate(-62.259 -102.495)" fill="none" stroke="#fff" stroke-linecap="round" stroke-linejoin="round" stroke-miterlimit="10" stroke-width="2" fill-rule="evenodd"/>
    <path id="Path_1488" data-name="Path 1488" d="M558.57,2047.939H541a9.182,9.182,0,0,1,.373-2.589,8.91,8.91,0,0,1,2.018-3.536,8.68,8.68,0,0,1,12.8,0,9.093,9.093,0,0,1,2.018,3.545A9.435,9.435,0,0,1,558.57,2047.939Z" transform="translate(-54.649 -126.706)" fill="none" stroke="#fff" stroke-linecap="round" stroke-linejoin="round" stroke-miterlimit="10" stroke-width="2" fill-rule="evenodd"/>
    <path id="Path_1489" data-name="Path 1489" d="M633.788,1938.388a5.394,5.394,0,1,1-5.394-5.388A5.4,5.4,0,0,1,633.788,1938.388Z" transform="translate(-111.374 -53.379)" fill="none" stroke="#fff" stroke-linecap="round" stroke-linejoin="round" stroke-miterlimit="10" stroke-width="2" fill-rule="evenodd"/>
    <path id="Path_1490" data-name="Path 1490" d="M629.569,1976.939H612a9.17,9.17,0,0,1,.373-2.589,8.9,8.9,0,0,1,2.017-3.536,8.672,8.672,0,0,1,12.789,0,9.089,9.089,0,0,1,2.017,3.545A8.951,8.951,0,0,1,629.569,1976.939Z" transform="translate(-103.764 -77.591)" fill="none" stroke="#fff" stroke-linecap="round" stroke-linejoin="round" stroke-miterlimit="10" stroke-width="2" fill-rule="evenodd"/>
    <path id="Path_1491" data-name="Path 1491" d="M491.788,1938.388a5.4,5.4,0,0,1-5.389,5.4,5.329,5.329,0,0,1-3.637-1.418,5.39,5.39,0,1,1,9.026-3.982Z" transform="translate(-13.143 -53.379)" fill="none" stroke="#fff" stroke-linecap="round" stroke-linejoin="round" stroke-miterlimit="10" stroke-width="2" fill-rule="evenodd"/>
    <path id="Path_1492" data-name="Path 1492" d="M487.878,1976.939H470a9.034,9.034,0,0,1,.38-2.589,8.938,8.938,0,0,1,15.066-3.536,9.051,9.051,0,0,1,2.053,3.545A9.168,9.168,0,0,1,487.878,1976.939Z" transform="translate(-5.534 -77.591)" fill="none" stroke="#fff" stroke-linecap="round" stroke-linejoin="round" stroke-miterlimit="10" stroke-width="2" fill-rule="evenodd"/>
    <path id="Path_1493" data-name="Path 1493" d="M570,1933v4.315" transform="translate(-74.71 -53.379)" fill="none" stroke="#fff" stroke-linecap="round" stroke-linejoin="round" stroke-miterlimit="10" stroke-width="2" fill-rule="evenodd"/>
    <path id="Path_1494" data-name="Path 1494" d="M570,1982v4.623" transform="translate(-74.71 -87.276)" fill="none" stroke="#fff" stroke-linecap="round" stroke-linejoin="round" stroke-miterlimit="10" stroke-width="2" fill-rule="evenodd"/>
    <path id="Path_1495" data-name="Path 1495" d="M528,1965h7.4" transform="translate(-45.656 -75.516)" fill="none" stroke="#fff" stroke-linecap="round" stroke-linejoin="round" stroke-miterlimit="10" stroke-width="2" fill-rule="evenodd"/>
    <path id="Path_1496" data-name="Path 1496" d="M594.706,1965H587" transform="translate(-86.47 -75.516)" fill="none" stroke="#fff" stroke-linecap="round" stroke-linejoin="round" stroke-miterlimit="10" stroke-width="2" fill-rule="evenodd"/>
    <path id="Path_1497" data-name="Path 1497" d="M565.014,1956.007a4.007,4.007,0,1,1-4.007-4.007A4.007,4.007,0,0,1,565.014,1956.007Z" transform="translate(-65.717 -66.523)" fill="none" stroke="#fff" stroke-linecap="round" stroke-linejoin="round" stroke-miterlimit="10" stroke-width="2" fill-rule="evenodd"/>
  </g>
</svg>
