<svg id="Icon-Redesigning-Workspaces" xmlns="http://www.w3.org/2000/svg" xmlns:xlink="http://www.w3.org/1999/xlink" width="111" height="111" viewBox="0 0 111 111">
  <defs>
    <clipPath id="clip-path">
      <rect id="Rectangle_694" data-name="Rectangle 694" width="63" height="73" transform="translate(371.067 834.205)"/>
    </clipPath>
  </defs>
  <path id="Path_273" data-name="Path 273" d="M164.758,274.233h-8.39a1.65,1.65,0,0,1-1.649-1.65V181.55a3.311,3.311,0,0,0-3.3-3.314H58.73a3.318,3.318,0,0,0-3.312,3.314v92.683a3.316,3.316,0,0,0,3.312,3.314h91.024a1.655,1.655,0,0,1,1.663,1.657v8.386a1.639,1.639,0,0,0,1.642,1.646h11.7a1.649,1.649,0,0,0,1.66-1.646v-11.7a1.659,1.659,0,0,0-1.66-1.657" transform="translate(-55.418 -178.236)" fill="#768ec7"/>
  <g id="Icon_8" transform="translate(-352.567 -821.566)" clip-path="url(#clip-path)">
    <path id="Path_1456" data-name="Path 1456" d="M439.262,967.816,419.5,932h-6.74L393,967.816" transform="translate(-13.789 -61.427)" fill="none" stroke="#fff" stroke-miterlimit="8" stroke-width="2" fill-rule="evenodd"/>
    <path id="Path_1457" data-name="Path 1457" d="M440,976.593,444.409,946h2.374l4.409,30.593" transform="translate(-43.254 -70.204)" fill="none" stroke="#fff" stroke-miterlimit="8" stroke-width="2" fill-rule="evenodd"/>
    <path id="Path_1458" data-name="Path 1458" d="M419.581,937H411v2.363a2.073,2.073,0,0,0,2.026,2.114h4.052" transform="translate(-25.073 -64.562)" fill="none" stroke="#fff" stroke-miterlimit="8" stroke-width="2" fill-rule="evenodd"/>
    <path id="Path_1459" data-name="Path 1459" d="M406.462,961H399v2.363a2.1,2.1,0,0,0,2.08,2.114h4.159" transform="translate(-17.55 -79.608)" fill="none" stroke="#fff" stroke-miterlimit="8" stroke-width="2" fill-rule="evenodd"/>
    <path id="Path_1460" data-name="Path 1460" d="M403.477,929.443V925.5a.526.526,0,0,0-.953-.278l-3.073,4.3a2.393,2.393,0,0,0-.451,1.4v7.514" transform="translate(-17.55 -57.039)" fill="none" stroke="#fff" stroke-miterlimit="8" stroke-width="2" fill-rule="evenodd"/>
    <path id="Path_1461" data-name="Path 1461" d="M395.581,985H387v2.166a1.985,1.985,0,0,0,2.026,1.938h4.052" transform="translate(-10.027 -94.654)" fill="none" stroke="#fff" stroke-miterlimit="8" stroke-width="2" fill-rule="evenodd"/>
    <path id="Path_1462" data-name="Path 1462" d="M383.089,1009H376v2.168a1.958,1.958,0,0,0,1.975,1.936h3.951" transform="translate(-3.131 -109.7)" fill="none" stroke="#fff" stroke-miterlimit="8" stroke-width="2" fill-rule="evenodd"/>
    <path id="Path_1463" data-name="Path 1463" d="M380.1,969.807v-8.3a.475.475,0,0,0-.874-.282l-2.817,4.356a2.6,2.6,0,0,0-.413,1.412v11.918" transform="translate(-3.131 -79.608)" fill="none" stroke="#fff" stroke-miterlimit="8" stroke-width="2" fill-rule="evenodd"/>
    <path id="Path_1464" data-name="Path 1464" d="M476,937h8.581v2.363a2.072,2.072,0,0,1-2.026,2.114H478.5" transform="translate(-65.823 -64.562)" fill="none" stroke="#fff" stroke-miterlimit="8" stroke-width="2" fill-rule="evenodd"/>
    <path id="Path_1465" data-name="Path 1465" d="M491,961h7.462v2.363a2.1,2.1,0,0,1-2.079,2.114h-4.159" transform="translate(-75.227 -79.608)" fill="none" stroke="#fff" stroke-miterlimit="8" stroke-width="2" fill-rule="evenodd"/>
    <path id="Path_1466" data-name="Path 1466" d="M499,929.443V925.5a.526.526,0,0,1,.953-.278l3.073,4.3a2.393,2.393,0,0,1,.451,1.4v7.514" transform="translate(-80.242 -57.039)" fill="none" stroke="#fff" stroke-miterlimit="8" stroke-width="2" fill-rule="evenodd"/>
    <path id="Path_1467" data-name="Path 1467" d="M500,985h8.581v2.166a1.985,1.985,0,0,1-2.026,1.938H502.5" transform="translate(-80.869 -94.654)" fill="none" stroke="#fff" stroke-miterlimit="8" stroke-width="2" fill-rule="evenodd"/>
    <path id="Path_1468" data-name="Path 1468" d="M515,1009h7.089v2.168a1.958,1.958,0,0,1-1.975,1.936h-3.951" transform="translate(-90.273 -109.7)" fill="none" stroke="#fff" stroke-miterlimit="8" stroke-width="2" fill-rule="evenodd"/>
    <path id="Path_1469" data-name="Path 1469" d="M523,969.807v-8.3a.475.475,0,0,1,.874-.282l2.817,4.356a2.6,2.6,0,0,1,.413,1.412v11.918" transform="translate(-95.288 -79.608)" fill="none" stroke="#fff" stroke-miterlimit="8" stroke-width="2" fill-rule="evenodd"/>
    <path id="Path_1470" data-name="Path 1470" d="M431,861.618h0a1.714,1.714,0,0,0,1.717,1.709h14.473a1.714,1.714,0,0,0,1.717-1.709A7.638,7.638,0,0,0,441.252,854H438.66A7.638,7.638,0,0,0,431,861.618Z" transform="translate(-37.612 -12.528)" fill="none" stroke="#fff" stroke-miterlimit="8" stroke-width="2" fill-rule="evenodd"/>
    <path id="Path_1471" data-name="Path 1471" d="M455,845.223V840" transform="translate(-52.658 -3.751)" fill="none" stroke="#fff" stroke-miterlimit="8" stroke-width="2" fill-rule="evenodd"/>
    <path id="Path_1472" data-name="Path 1472" d="M455,887v6.342" transform="translate(-52.658 -33.216)" fill="none" stroke="#fff" stroke-miterlimit="8" stroke-width="2" fill-rule="evenodd"/>
    <path id="Path_1473" data-name="Path 1473" d="M429.477,886,425,890.477" transform="translate(-33.85 -32.589)" fill="none" stroke="#fff" stroke-miterlimit="8" stroke-width="2" fill-rule="evenodd"/>
    <path id="Path_1474" data-name="Path 1474" d="M473,886l4.477,4.477" transform="translate(-63.942 -32.589)" fill="none" stroke="#fff" stroke-miterlimit="8" stroke-width="2" fill-rule="evenodd"/>
  </g>
</svg>
