<svg id="Icon-Any-Place-Any-Device" xmlns="http://www.w3.org/2000/svg" xmlns:xlink="http://www.w3.org/1999/xlink" width="60" height="60" viewBox="0 0 60 60">
  <defs>
    <clipPath id="clip-path">
      <rect id="Rectangle_684" data-name="Rectangle 684" width="33" height="43" transform="translate(338 777.82)"/>
    </clipPath>
  </defs>
  <path id="Path_273" data-name="Path 273" d="M114.521,230.126h-4.535a.892.892,0,0,1-.891-.892V180.027a1.79,1.79,0,0,0-1.784-1.791h-50.1a1.794,1.794,0,0,0-1.79,1.791v50.1a1.792,1.792,0,0,0,1.79,1.791h49.2a.894.894,0,0,1,.9.9v4.533a.886.886,0,0,0,.887.89h6.324a.892.892,0,0,0,.9-.89v-6.325a.9.9,0,0,0-.9-.9" transform="translate(-55.418 -178.236)" fill="#768ec7"/>
  <g id="Icon_1" transform="translate(-328 -772.82)" clip-path="url(#clip-path)">
    <path id="Path_1355" data-name="Path 1355" d="M358.376,785a15.019,15.019,0,0,0-10.166,4.21A14.377,14.377,0,0,0,344,799.375c0,13.685,14.377,24.036,14.377,24.036s14.377-9.617,14.377-24.013a14.377,14.377,0,0,0-7.182-12.47A12.153,12.153,0,0,0,358.376,785Z" transform="translate(-3.927 -4.718)" fill="none" stroke="#fff" stroke-miterlimit="8" stroke-width="2" fill-rule="evenodd"/>
    <path id="Path_1356" data-name="Path 1356" d="M399.8,811.4a4.4,4.4,0,1,1-4.4-4.4A4.4,4.4,0,0,1,399.8,811.4Z" transform="translate(-40.841 -21.997)" fill="none" stroke="#fff" stroke-miterlimit="8" stroke-width="2" fill-rule="evenodd"/>
    <path id="Path_1357" data-name="Path 1357" d="M377,862.3a7.3,7.3,0,1,1,14.592,0" transform="translate(-29.846 -59.697)" fill="none" stroke="#fff" stroke-miterlimit="8" stroke-width="2" fill-rule="evenodd"/>
  </g>
</svg>
