<svg id="Icon-Zones" xmlns="http://www.w3.org/2000/svg" xmlns:xlink="http://www.w3.org/1999/xlink" width="60" height="60" viewBox="0 0 60 60">
  <defs>
    <clipPath id="clip-path">
      <rect id="Rectangle_655" data-name="Rectangle 655" width="37.902" height="37.902" transform="translate(339 2053)"/>
    </clipPath>
  </defs>
  <path id="Path_273" data-name="Path 273" d="M114.521,230.126h-4.535a.892.892,0,0,1-.891-.892V180.027a1.79,1.79,0,0,0-1.784-1.791h-50.1a1.794,1.794,0,0,0-1.79,1.791v50.1a1.792,1.792,0,0,0,1.79,1.791h49.2a.894.894,0,0,1,.9.9v4.533a.886.886,0,0,0,.887.89h6.324a.892.892,0,0,0,.9-.89v-6.325a.9.9,0,0,0-.9-.9" transform="translate(-55.418 -178.236)" fill="#768ec7"/>
  <g id="Icon_4" transform="translate(-331 -2045.033)" clip-path="url(#clip-path)">
    <path id="Path_1293" data-name="Path 1293" d="M365.694,2059H343v35.643h35.392V2059H374.41l-7.483,6.361" transform="translate(-2.996 -4.494)" fill="none" stroke="#fff" stroke-linejoin="round" stroke-miterlimit="10" stroke-width="2" fill-rule="evenodd"/>
    <path id="Path_1294" data-name="Path 1294" d="M343,2059h16.315v16.566H343Z" transform="translate(-2.996 -4.494)" fill="none" stroke="#fff" stroke-linejoin="round" stroke-miterlimit="10" stroke-width="2" fill-rule="evenodd"/>
    <path id="Path_1295" data-name="Path 1295" d="M343,2171h19.829v7.53H343Z" transform="translate(-2.996 -88.381)" fill="none" stroke="#fff" stroke-linejoin="round" stroke-miterlimit="10" stroke-width="2" fill-rule="evenodd"/>
    <path id="Path_1296" data-name="Path 1296" d="M422,2138h15.562v15.813H422Z" transform="translate(-62.167 -63.665)" fill="none" stroke="#fff" stroke-linejoin="round" stroke-miterlimit="10" stroke-width="2" fill-rule="evenodd"/>
  </g>
</svg>
