<svg xmlns="http://www.w3.org/2000/svg" width="60.234" height="60.234" viewBox="0 0 60.234 60.234">
  <g id="Icon-Better_Cost_Management" transform="translate(-851.266 -2563.766)">
    <path id="Path_1004" data-name="Path 1004" d="M114.752,230.329H110.2a.9.9,0,0,1-.895-.9v-49.4a1.8,1.8,0,0,0-1.791-1.8h-50.3a1.8,1.8,0,0,0-1.8,1.8v50.294a1.8,1.8,0,0,0,1.8,1.8H106.61a.9.9,0,0,1,.9.9v4.551a.889.889,0,0,0,.891.893h6.348a.9.9,0,0,0,.9-.893v-6.349a.9.9,0,0,0-.9-.9" transform="translate(795.848 2385.53)" fill="#0f7ac9"/>
    <g id="Group_2453" data-name="Group 2453" transform="translate(860.887 2572.541)">
      <path id="Path_1865" data-name="Path 1865" d="M-1614.158,1336.352l6.5-1.384a1.461,1.461,0,0,1,1.661.788,1.418,1.418,0,0,1-.831,1.7l-11.339,4.77a17.844,17.844,0,0,1-6.018,1,14.238,14.238,0,0,1-3.7-.449l-1.286-.385" transform="translate(1637.477 -1307.679)" fill="none" stroke="#fff" stroke-linecap="round" stroke-miterlimit="10" stroke-width="2"/>
      <path id="Path_1866" data-name="Path 1866" d="M-1629.194,1343.225l-2.493,1.661-5.813-10.8,2.493-1.661Z" transform="translate(1637.5 -1307.672)" fill="none" stroke="#fff" stroke-linecap="round" stroke-miterlimit="10" stroke-width="2"/>
      <path id="Path_1867" data-name="Path 1867" d="M-1624.2,1338.241h7.889a2.076,2.076,0,0,0,2.075-2.076h0a2.076,2.076,0,0,0-2.075-2.076h-5.4l-.708-.531a9.811,9.811,0,0,0-5.884-1.959h0a9.8,9.8,0,0,0-3.889.806l-1.977.855" transform="translate(1637.491 -1307.669)" fill="none" stroke="#fff" stroke-linecap="round" stroke-miterlimit="10" stroke-width="2"/>
      <g id="Group_2452" data-name="Group 2452" transform="translate(14.474 0)">
        <path id="Path_1868" data-name="Path 1868" d="M-1611.35,1309.053s-5.359,5.983-10.636,5.983c0,14.127,9.972,17.949,9.972,17.949s11.3-3.82,11.3-17.949C-1605.991,1315.035-1611.35,1309.053-1611.35,1309.053Z" transform="matrix(0.999, -0.035, 0.035, 0.999, 1569.902, -1366.484)" fill="none" stroke="#fff" stroke-linecap="round" stroke-miterlimit="10" stroke-width="2"/>
        <ellipse id="Ellipse_37" data-name="Ellipse 37" cx="5.982" cy="5.982" rx="5.982" ry="5.982" transform="translate(-0.347 4.647)" fill="none" stroke="#fff" stroke-linecap="round" stroke-miterlimit="10" stroke-width="2"/>
        <path id="Path_1869" data-name="Path 1869" d="M-1613.321,1324.369h2.66a1.329,1.329,0,0,0,1.329-1.329h0a1.329,1.329,0,0,0-1.329-1.329h-1.329a1.33,1.33,0,0,1-1.33-1.329h0a1.33,1.33,0,0,1,1.33-1.329h2.659" transform="translate(1616.962 -1311.081)" fill="none" stroke="#fff" stroke-linecap="round" stroke-miterlimit="10" stroke-width="2"/>
        <line id="Line_348" data-name="Line 348" y2="1.329" transform="translate(5.636 6.641)" fill="none" stroke="#fff" stroke-linecap="round" stroke-miterlimit="10" stroke-width="2"/>
        <line id="Line_349" data-name="Line 349" y2="1.329" transform="translate(5.636 13.288)" fill="none" stroke="#fff" stroke-linecap="round" stroke-miterlimit="10" stroke-width="2"/>
      </g>
    </g>
  </g>
</svg>
