<svg xmlns="http://www.w3.org/2000/svg" xmlns:xlink="http://www.w3.org/1999/xlink" width="60.234" height="60.234" viewBox="0 0 60.234 60.234">
  <defs>
    <clipPath id="clip-path">
      <rect id="Rectangle_683" data-name="Rectangle 683" width="39.987" height="39.987" transform="translate(393 2001)"/>
    </clipPath>
  </defs>
  <g id="Icon-Enhanced_Efficiency" transform="translate(-851.266 -2563.766)">
    <path id="Path_1004" data-name="Path 1004" d="M114.752,230.329H110.2a.9.9,0,0,1-.895-.9v-49.4a1.8,1.8,0,0,0-1.791-1.8h-50.3a1.8,1.8,0,0,0-1.8,1.8v50.294a1.8,1.8,0,0,0,1.8,1.8H106.61a.9.9,0,0,1,.9.9v4.551a.889.889,0,0,0,.891.893h6.348a.9.9,0,0,0,.9-.893v-6.349a.9.9,0,0,0-.9-.9" transform="translate(795.848 2385.53)" fill="#0f7ac9"/>
    <g id="Icon_4" transform="translate(464.989 569.683)" clip-path="url(#clip-path)">
      <path id="Path_1352" data-name="Path 1352" d="M444.067,2044h4.7v2.03a.432.432,0,0,0,.314.418,9.529,9.529,0,0,1,1.765.717h.424l.041-.026a.271.271,0,0,0,.028-.028c.009-.007.024-.009.027-.013a.094.094,0,0,0,.014-.015c.015-.015.03-.043.055-.067.049-.048.122-.108.2-.189.167-.162.4-.392.616-.609.29-.284.41-.4.574-.568l3.31,3.287c-.167.165-.278.277-.561.555-.221.217-.449.433-.616.6-.083.082-.142.154-.191.2-.025.024-.053.039-.068.053s-.006.021-.014.028l-.014.013a.173.173,0,0,0-.028.028c-.007.009-.027.054-.027.054l-.028.366a.475.475,0,0,0,.028.041,9.2,9.2,0,0,1,.725,1.746.436.436,0,0,0,.424.31h2.065v4.626h-2.065a.436.436,0,0,0-.424.3,9.161,9.161,0,0,1-.725,1.746v.419s.021.032.027.041a.252.252,0,0,0,.028.028c.008.008.01.022.014.026a.064.064,0,0,0,.014.015c.015.015.044.03.068.054.049.048.108.121.191.2.165.164.394.379.616.6.283.279.394.39.561.555l-3.31,3.287c-.165-.164-.285-.284-.574-.568-.221-.217-.449-.433-.616-.6-.083-.082-.142-.155-.191-.2-.025-.024-.054-.041-.068-.055s-.008-.021-.014-.026-.008,0-.014,0a.1.1,0,0,0-.014-.015l-.028-.026-.26-.082a.444.444,0,0,0-.2.056,9.51,9.51,0,0,1-1.765.717.432.432,0,0,0-.314.418v2.03h-4.7v-2.03a.432.432,0,0,0-.314-.418,9.511,9.511,0,0,1-1.765-.717.441.441,0,0,0-.519.08l-1.45,1.434-3.323-3.274,1.449-1.434a.425.425,0,0,0,.068-.512,9.21,9.21,0,0,1-.725-1.745.437.437,0,0,0-.424-.3H435v-4.625h2.065a.438.438,0,0,0,.424-.31,9.162,9.162,0,0,1,.725-1.746.43.43,0,0,0-.068-.514l-1.449-1.434,3.31-3.272,1.463,1.447a.44.44,0,0,0,.519.067,9.4,9.4,0,0,1,1.765-.717.435.435,0,0,0,.314-.42V2044Z" transform="translate(-33.515 -34.329)" fill="none" stroke="#fff" stroke-miterlimit="8" stroke-width="1.8" fill-rule="evenodd"/>
      <path id="Path_1353" data-name="Path 1353" d="M475.735,2079a4.735,4.735,0,1,0,4.735,4.741A4.748,4.748,0,0,0,475.735,2079Z" transform="translate(-62.83 -62.83)" fill="none" stroke="#fff" stroke-miterlimit="8" stroke-width="1.8" fill-rule="evenodd"/>
      <path id="Path_1354" data-name="Path 1354" d="M415.557,2042.033l-1.859-.093-1.832-.281-1.769-.455-1.7-.62-1.613-.778-1.521-.923-1.42-1.062-1.31-1.192-1.191-1.309-1.062-1.42-.924-1.521-.777-1.614-.621-1.7-.455-1.77-.28-1.831-.1-1.887.1-1.887.28-1.831.455-1.77.621-1.7.777-1.614.924-1.521,1.062-1.42,1.191-1.309,1.31-1.192,1.42-1.062,1.521-.923,1.613-.778,1.7-.62,1.769-.455,1.832-.28,1.886-.095,1.886.095,1.832.28,1.769.455,1.7.62,1.613.778,1.521.923,1.42,1.062,1.31,1.192,1.191,1.309,1.062,1.42.924,1.521.777,1.614.621,1.7.455,1.77.279,1.831.1,1.889-.109,2.013-.319,1.953-.518,1.879-.706,1.794-.882,1.7-1.046,1.586-1.2,1.469-.7.332c-.208.208-.419.448-.626.24a.534.534,0,0,1,0-.754l.557-.553-.036.041,1.165-1.426-.032.045,1.016-1.542-.028.047.856-1.645-.023.05.685-1.742-.018.054.5-1.823-.012.056.31-1.9-.006.058.106-1.957v.054l-.092-1.831.005.054-.271-1.781.011.054-.442-1.718.016.05-.6-1.647.02.048-.755-1.565.025.045-.9-1.478.029.043-1.032-1.38.032.039-1.156-1.272.036.035-1.273-1.155.039.032-1.38-1.032.042.03-1.478-.9.045.024-1.566-.756.048.021-1.646-.6.05.015-1.717-.442.052.011-1.779-.271.053.005-1.832-.093h.054l-1.832.093.053-.005-1.779.271.052-.011-1.717.442.05-.015-1.646.6.048-.021-1.566.756.045-.024-1.478.9.042-.03-1.379,1.032.039-.032-1.273,1.155.036-.035-1.156,1.272.032-.039-1.032,1.38.029-.043-.9,1.478.025-.045-.755,1.565.02-.048-.6,1.647.016-.05-.442,1.718.011-.054-.271,1.781.005-.054-.093,1.831v-.052l.093,1.831-.005-.054.271,1.781-.011-.054.442,1.718-.016-.05.6,1.647-.02-.048.755,1.566-.025-.045.9,1.478-.029-.043,1.032,1.38-.032-.039,1.156,1.272-.036-.035,1.273,1.155-.039-.032,1.379,1.032-.042-.03,1.478.9-.045-.026,1.566.756-.048-.021,1.646.6-.05-.015,1.717.442-.052-.011,1.779.271-.053-.005,1.832.093c.293.015.28.239.265.532S415.851,2042.048,415.557,2042.033Zm18.271-7.268-6.316,2.276,1.043-6.735c.075-.284.418-.2.7-.128s.685.075.61.359l-.969,5.617-.727-.5,5.109-2.164c.284-.074.44.328.547.582S434.112,2034.692,433.828,2034.766Z" transform="translate(-2.679 -2.677)" fill="#fff" stroke="#fff" stroke-width="0.6"/>
    </g>
  </g>
</svg>
