<svg xmlns="http://www.w3.org/2000/svg" xmlns:xlink="http://www.w3.org/1999/xlink" width="60.234" height="60.234" viewBox="0 0 60.234 60.234">
  <defs>
    <clipPath id="clip-path">
      <rect id="Rectangle_526" data-name="Rectangle 526" width="28.447" height="27.557" transform="translate(0)" fill="#fff"/>
    </clipPath>
    <clipPath id="clip-path-2">
      <rect id="Rectangle_530" data-name="Rectangle 530" width="28.447" height="28.446" transform="translate(0 0)" fill="#fff"/>
    </clipPath>
  </defs>
  <g id="Icon-Exceptional_Support" transform="translate(-851.266 -2563.766)">
    <path id="Path_1004" data-name="Path 1004" d="M114.752,230.329H110.2a.9.9,0,0,1-.895-.9v-49.4a1.8,1.8,0,0,0-1.791-1.8h-50.3a1.8,1.8,0,0,0-1.8,1.8v50.294a1.8,1.8,0,0,0,1.8,1.8H106.61a.9.9,0,0,1,.9.9v4.551a.889.889,0,0,0,.891.893h6.348a.9.9,0,0,0,.9-.893v-6.349a.9.9,0,0,0-.9-.9" transform="translate(795.848 2385.53)" fill="#0f7ac9"/>
    <g id="employee-experience" transform="translate(860.843 2572.45)">
      <g id="employee1" transform="translate(-5.578 -1.684)" clip-path="url(#clip-path)">
        <path id="employee1-2" data-name="employee1" d="M401.7,377.435a2.727,2.727,0,0,0-1.01-1.991,12.16,12.16,0,0,0-3.388-1.9,5.553,5.553,0,0,0,1.575-.683.346.346,0,0,0,.149-.208.336.336,0,0,0-.09-.238,3.589,3.589,0,0,1-1.01-1.842,10.087,10.087,0,0,1,.3-2.05,19.7,19.7,0,0,0,.446-3.357,2.834,2.834,0,0,0-1.337-2.823,2.575,2.575,0,0,0-1.486-.089,4.757,4.757,0,0,0-2.407-1.545,6.162,6.162,0,0,0-4.634.594c-1.278.832-1.813,2.139-1.813,4.487,0,1.159.059,2.168.119,3.06a12.662,12.662,0,0,1,.03,2.347,2.9,2.9,0,0,1-.654,1.4.322.322,0,0,0-.059.238c0,.09.059.149.148.208a6.315,6.315,0,0,0,1.545.565,11.518,11.518,0,0,0-3.3,1.842,2.885,2.885,0,0,0-.951,1.991v5.051l.119.089c1.4.921,5.14,1.4,8.884,1.4s7.457-.475,8.706-1.4l.119-.089Zm-12.241-3.744.505-.208c.03,0,.059-.03.089-.03s.03,0,.059-.03a1.14,1.14,0,0,0,.595-1.04v-.535a4.532,4.532,0,0,0,4.159,0v.535a1.167,1.167,0,0,0,.624,1.04h.03c.03.03.059.03.089.06l.505.208-.06.238a5.732,5.732,0,0,1-3.268.832,5.663,5.663,0,0,1-3.268-.832Zm3.328-1.9a3.855,3.855,0,0,1-3.863-3.862v-1.188a13.056,13.056,0,0,0,3.744-.892l.3-.149a8.007,8.007,0,0,0,2.228-1.455,8.677,8.677,0,0,0,.505,2.02,2.7,2.7,0,0,0,.832.892c.029.03.059.03.089.06v.713A3.811,3.811,0,0,1,392.788,371.79Zm4.456-4.754a.319.319,0,0,0-.089-.208.917.917,0,0,0-.267-.208,1.613,1.613,0,0,1-.654-.684,6.377,6.377,0,0,1-.445-1.813,1.1,1.1,0,0,0-.149-.327.587.587,0,0,0-.416-.178h0a.565.565,0,0,0-.386.148,7.908,7.908,0,0,1-2.109,1.337l-.3.149a11.307,11.307,0,0,1-3.8.862.28.28,0,0,0-.3.3h0V367.9a4.516,4.516,0,0,0,1.782,3.565v.921a.588.588,0,0,1-.356.535,3.578,3.578,0,0,1-2.526-.3,3.333,3.333,0,0,0,.564-1.367,13.91,13.91,0,0,0-.03-2.466c-.059-.891-.119-1.872-.119-3.03,0-2.109.445-3.269,1.516-3.952a5.492,5.492,0,0,1,4.16-.534,3.794,3.794,0,0,1,2.168,1.425.3.3,0,0,0,.327.149,2.319,2.319,0,0,1,1.278,0c.653.357,1.04.862,1.04,2.288a18.8,18.8,0,0,1-.446,3.239,11.423,11.423,0,0,0-.3,2.228,3.673,3.673,0,0,0,.922,1.961,3.147,3.147,0,0,1-2.467.386.561.561,0,0,1-.327-.534v-.921a4.475,4.475,0,0,0,1.783-3.565Zm-12.776,10.4a2.173,2.173,0,0,1,.773-1.575A12.418,12.418,0,0,1,388.9,373.9l2.615,9.478c-3-.09-5.823-.505-7.042-1.188Zm7.666,5.942-2.377-8.617a8.024,8.024,0,0,0,6.06,0l-2.377,8.617C393,383.407,392.581,383.378,392.135,383.378Zm1.931,0,2.615-9.449a12.4,12.4,0,0,1,3.654,1.961,2.062,2.062,0,0,1,.773,1.545v4.754C399.978,382.9,397.127,383.288,394.066,383.378Z" transform="translate(-378.718 -358.154)" fill="#fff" stroke="#fff" stroke-width="0.66"/>
      </g>
      <g id="employee2" transform="translate(10.647 8.317)" clip-path="url(#clip-path-2)">
        <g id="employee2-2" data-name="employee2" transform="translate(4.899 2.294)">
          <path id="Path_1098" data-name="Path 1098" d="M421.86,401.57a2.608,2.608,0,0,0-1-2.006,12.181,12.181,0,0,0-3.7-1.912l-1.461-.6a.592.592,0,0,1-.368-.55v-.875a4.448,4.448,0,0,0,1.784-3.558v-.2l.651-.837a1.62,1.62,0,0,0,.33-1.175,5.423,5.423,0,0,0-3.016-4.38.694.694,0,0,0-.7.059l-.037.026-.132-.182a.915.915,0,0,0-.583-.367,5.387,5.387,0,0,0-6.215,4.32l-.011.06a5.013,5.013,0,0,1-.761,1.869.3.3,0,0,0,.247.462H408.2v.341a4.451,4.451,0,0,0,1.78,3.556v.877a.593.593,0,0,1-.368.55l-1.47.6a12.192,12.192,0,0,0-3.69,1.906,2.62,2.62,0,0,0-1.005,2.016v5.062l.132.089c1.389.926,5.3,1.389,9.173,1.389,3.892,0,7.753-.467,8.994-1.4l.118-.091ZM407.981,389.5l.01-.059a4.793,4.793,0,0,1,5.531-3.843.331.331,0,0,1,.2.133l.3.416a.3.3,0,0,0,.41.069l.274-.191a.1.1,0,0,1,.1-.013,4.826,4.826,0,0,1,2.685,3.9,1.027,1.027,0,0,1-.208.761l-.212.272a2.233,2.233,0,0,0-.521-1.106l-1.009-1.157a.3.3,0,0,0-.3-.092,2.523,2.523,0,0,0-1.262,1.034,3.208,3.208,0,0,1-2.823,1.507h-3.759A5.585,5.585,0,0,0,407.981,389.5Zm.809,2.564v-.342h2.377A3.793,3.793,0,0,0,414.454,390a2.676,2.676,0,0,1,.782-.767l.875,1a1.645,1.645,0,0,1,.4,1.078v.76a3.863,3.863,0,0,1-7.726,0Zm1.044,5.533a1.185,1.185,0,0,0,.737-1.1v-.5a4.437,4.437,0,0,0,4.161,0v.494a1.185,1.185,0,0,0,.737,1.1l.538.221-1.364,9.677c-.524.02-1.056.032-1.591.035l1.049-1.091-.37-6.18.655-2.251H410.92l.649,2.23-.362,6.2,1.046,1.088c-.534-.005-1.07-.02-1.595-.043l-1.362-9.665Zm3.415,2.191h-1.19l-.346-1.188h1.883Zm-1.093.595h.987l.348,5.83-.837.871-.838-.872Zm-3.425-2.312,1.323,9.38c-2.632-.153-4.96-.535-6.016-1.142v-4.731a2.028,2.028,0,0,1,.782-1.559,11.594,11.594,0,0,1,3.489-1.8Zm8.264.149a11.582,11.582,0,0,1,3.495,1.8,2.023,2.023,0,0,1,.777,1.549v4.747c-.978.622-3.333,1-6.021,1.146l1.326-9.394Z" transform="translate(-403.442 -384.937)" fill="#fff" stroke="#fff" stroke-width="0.66"/>
          <path id="Path_1099" data-name="Path 1099" d="M423.565,410.75h2.674v.594h-2.674Z" transform="translate(-409.899 -393.22)" fill="#fff" stroke="#fff" stroke-width="0.66"/>
        </g>
      </g>
    </g>
  </g>
</svg>
