<svg id="Icon_Backup_Recovery" xmlns="http://www.w3.org/2000/svg" width="60.146" height="60.146" viewBox="0 0 60.146 60.146">
  <path id="Path_273" data-name="Path 273" d="M114.664,230.252h-4.546a.894.894,0,0,1-.893-.894V180.032a1.794,1.794,0,0,0-1.789-1.8H57.213a1.8,1.8,0,0,0-1.795,1.8v50.22a1.8,1.8,0,0,0,1.795,1.8h49.322a.9.9,0,0,1,.9.9v4.544a.888.888,0,0,0,.889.892h6.339a.894.894,0,0,0,.9-.892v-6.34a.9.9,0,0,0-.9-.9" transform="translate(-55.418 -178.236)" fill="#0f7ac9"></path>
  <g id="Group_2772" data-name="Group 2772" transform="translate(-387.854 -1997)">
    <path id="Path_1354" data-name="Path 1354" d="M17.481,0,15.717.089,13.979.355,12.3.786l-1.609.589-1.53.738-1.443.876L6.371,4,5.127,5.128,4,6.37,2.99,7.717,2.113,9.16l-.737,1.531L.787,12.3.356,13.979.09,15.716,0,17.506.09,19.3l.265,1.737.431,1.679.589,1.609.737,1.531.877,1.443L4,28.642l1.13,1.242,1.243,1.131,1.348,1.008,1.443.876,1.53.738,1.609.588,1.678.432,1.738.266,1.789.09,1.789-.09,1.738-.266,1.678-.432,1.609-.588,1.531-.738,1.443-.876,1.348-1.008,1.243-1.131,1.13-1.242,1.008-1.348.877-1.443.737-1.531.589-1.609.431-1.679.265-1.737.09-1.792-.1-1.91-.3-1.853-.491-1.783-.669-1.7L32.61,8.648l-.993-1.5L30.479,5.75l-.666-.315c-.2-.2-.4-.425-.594-.227a.507.507,0,0,0,0,.715l.528.525-.035-.039L30.82,7.761l-.031-.042.964,1.462-.026-.044.812,1.561-.022-.048.65,1.653-.017-.051.477,1.73-.011-.053.294,1.8-.006-.055.1,1.857v-.051l-.088,1.737.005-.051-.258,1.69.01-.051-.419,1.63.015-.047L32.7,23.951l.019-.046L32,25.39l.023-.042-.852,1.4.027-.041-.979,1.309.031-.037-1.1,1.207.034-.033-1.207,1.1.037-.03-1.309.98.04-.028-1.4.851L25.392,32l-1.486.717.046-.019-1.562.571.048-.014-1.629.419.049-.011-1.688.257.051-.005L17.481,34h.051l-1.738-.088.051.005-1.688-.257.05.011-1.629-.419.048.014L11.062,32.7l.046.019L9.622,32l.043.023-1.4-.851.04.028-1.309-.98.037.03-1.207-1.1.034.033-1.1-1.207.031.037-.979-1.309.027.041-.852-1.4.023.042L2.3,23.9l.019.046-.572-1.563.015.047-.419-1.63.01.051-.258-1.69.005.051-.088-1.737v.049L1.1,15.793l-.005.051.258-1.69-.01.051.419-1.63-.015.047.572-1.563-.019.046.716-1.485-.023.042.852-1.4L3.813,8.3l.979-1.309-.031.037,1.1-1.207-.034.033,1.207-1.1-.037.03L8.3,3.811l-.04.028,1.4-.853-.043.025,1.486-.717-.046.019,1.562-.571-.048.014,1.629-.419-.05.011,1.688-.257-.051.005,1.738-.088c.278-.014.265-.226.251-.5S17.76-.013,17.481,0ZM34.815,6.9l-5.992-2.16L29.608,9.8l.206,1.328c.072.27.4.192.666.122s.65-.071.579-.34l-.919-5.329-.69.475L34.3,8.105c.27.071.417-.311.519-.552S35.085,6.966,34.815,6.9Z" transform="translate(420.958 1999.098) rotate(60)" fill="#fff" stroke="#fff" stroke-linecap="round" stroke-linejoin="round" stroke-width="1"></path>
    <path id="Path_1947" data-name="Path 1947" d="M19.345,30.7l6.278,6.494L37.058,26.206" transform="translate(386.239 1991.725)" fill="none" stroke="#fff" stroke-miterlimit="10" stroke-width="2"></path>
  </g>
</svg>
