<svg xmlns="http://www.w3.org/2000/svg" width="173.081" height="172.551" viewBox="0 0 173.081 172.551">
  <g id="Group_2701" data-name="Group 2701" transform="translate(-278.146 -1252.25)">
    <g id="Icon_quotes" transform="translate(279.641 1253.438)">
      <path id="Path_283" data-name="Path 283" d="M222.956,324.87H210.1a2.524,2.524,0,0,1-2.526-2.52V183.3a5.066,5.066,0,0,0-5.058-5.062H60.493a5.076,5.076,0,0,0-5.075,5.062V324.87a5.073,5.073,0,0,0,5.075,5.062H199.966a2.532,2.532,0,0,1,2.549,2.531v12.81a2.507,2.507,0,0,0,2.515,2.515h17.926a2.524,2.524,0,0,0,2.543-2.515V327.4a2.538,2.538,0,0,0-2.543-2.531" transform="translate(-55.413 -177.925)" fill="none" stroke="#0f7ac9" stroke-width="3"></path>
      <path id="bxs-quote-alt-left" d="M18.612,26.6a15.245,15.245,0,0,0-2.238.225,12.415,12.415,0,0,1,.875-2.342,14.487,14.487,0,0,1,1.616-2.906,17.141,17.141,0,0,1,2.069-2.537,23.027,23.027,0,0,1,2.383-2.08,14.689,14.689,0,0,1,2.459-1.6,12.991,12.991,0,0,1,2.238-1.205l1.855-.764L31.5,12.72,29.829,6.046l-2.055.5c-.657.165-1.46.358-2.372.59a18.535,18.535,0,0,0-3.037,1.074,21.387,21.387,0,0,0-3.54,1.6,32.33,32.33,0,0,0-3.756,2.383,26.854,26.854,0,0,0-3.616,3.253,24.209,24.209,0,0,0-3.131,4A27.917,27.917,0,0,0,5.9,23.921a37.88,37.88,0,0,0-1.612,4.6A41.572,41.572,0,0,0,2.97,36.913a42.921,42.921,0,0,0,.1,6.017c.051.7.149,1.384.218,1.855l.087.579.09-.021A15.5,15.5,0,1,0,18.612,26.6Zm37.881,0a15.245,15.245,0,0,0-2.238.225,12.415,12.415,0,0,1,.875-2.342,14.486,14.486,0,0,1,1.616-2.906,17.141,17.141,0,0,1,2.068-2.537,23.03,23.03,0,0,1,2.383-2.08,14.689,14.689,0,0,1,2.459-1.6,12.99,12.99,0,0,1,2.238-1.205l1.855-.764,1.632-.677L67.709,6.046l-2.055.5c-.657.165-1.46.358-2.372.59a18.535,18.535,0,0,0-3.037,1.074,21.323,21.323,0,0,0-3.54,1.609A32.329,32.329,0,0,0,52.95,12.2a26.99,26.99,0,0,0-3.616,3.251,24.209,24.209,0,0,0-3.131,4,27.917,27.917,0,0,0-2.417,4.472,37.881,37.881,0,0,0-1.612,4.6,41.572,41.572,0,0,0-1.322,8.391,42.921,42.921,0,0,0,.1,6.017c.051.7.149,1.384.218,1.855l.087.579.09-.021A15.5,15.5,0,1,0,56.492,26.6Z" transform="translate(38.094 46.265)" fill="#0f7ac9"></path>
    </g>
  </g>
</svg>
