<svg xmlns="http://www.w3.org/2000/svg" width="60.162" height="60.162" viewBox="0 0 60.162 60.162">
  <g id="Icon_ReduceRrisks" transform="translate(-728.572 -1319.919)">
    <path id="Path_1198" data-name="Path 1198" d="M114.681,230.266h-4.548a.894.894,0,0,1-.894-.894v-49.34a1.8,1.8,0,0,0-1.789-1.8H57.213a1.8,1.8,0,0,0-1.8,1.8v50.234a1.8,1.8,0,0,0,1.8,1.8h49.335a.9.9,0,0,1,.9.9v4.545a.888.888,0,0,0,.89.892h6.341a.894.894,0,0,0,.9-.892v-6.342a.9.9,0,0,0-.9-.9" transform="translate(673.154 1141.683)" fill="#0f7ac9"></path>
    <g id="Group_2770" data-name="Group 2770" transform="translate(730.998 1324.136)">
      <g id="Group_2771" data-name="Group 2771" transform="translate(6.51 4.453)">
        <path id="Path_1199" data-name="Path 1199" d="M-10686.021,6689.1v32.553h32.671" transform="translate(10687.271 -6686.712)" fill="none" stroke="#fff" stroke-width="2"></path>
        <g id="Group_2768" data-name="Group 2768" transform="matrix(-0.985, -0.174, 0.174, -0.985, 30.226, 34.94)">
          <path id="Path_1200" data-name="Path 1200" d="M0,0,8.351,7.95,11.358,4.9l5.219,5.116,2.959-2.961,5.508,5.471" transform="translate(28.949 21.281) rotate(-172)" fill="none" stroke="#fff" stroke-width="2"></path>
          <path id="Polygon_3" data-name="Polygon 3" d="M4.675,0,9.35,4.992H0Z" transform="matrix(0.719, -0.695, 0.695, 0.719, 0, 6.495)" fill="#fff"></path>
        </g>
        <g id="Group_2769" data-name="Group 2769" transform="translate(16.466 0)">
          <g id="Group_1866" data-name="Group 1866" transform="translate(0 0)">
            <g id="Polygon_2" data-name="Polygon 2" transform="translate(0)" fill="none" stroke-linecap="square" stroke-linejoin="round">
              <path d="M8.252,3a2,2,0,0,1,3.465,0l6.521,11.3a2,2,0,0,1-1.732,3H3.463a2,2,0,0,1-1.732-3Z" stroke="none"></path>
              <path d="M 9.983894348144531 4.002218246459961 L 3.462820053100586 15.30541896820068 C 3.462821960449219 15.30541896820068 3.462823867797852 15.30541896820068 3.462823867797852 15.30541896820068 L 16.50496482849121 15.30541896820068 C 16.50496864318848 15.30541896820068 16.50497055053711 15.30541896820068 16.50497436523438 15.30541896820068 L 9.983894348144531 4.002218246459961 M 9.983894348144531 2.002218246459961 C 10.65766429901123 2.002218246459961 11.33143424987793 2.335739135742188 11.71626472473145 3.002779006958008 L 18.23734474182129 14.30596923828125 C 19.0065746307373 15.63929843902588 18.04428482055664 17.3054084777832 16.50497436523438 17.30541801452637 L 3.462823867797852 17.30541801452637 C 1.923503875732422 17.3054084777832 0.9612140655517578 15.63929843902588 1.730453491210938 14.30596923828125 L 8.251523971557617 3.002779006958008 C 8.636354446411133 2.335739135742188 9.310124397277832 2.002218246459961 9.983894348144531 2.002218246459961 Z" stroke="none" fill="#fff"></path>
            </g>
            <line id="Line_186" data-name="Line 186" y2="3.936" transform="translate(9.984 6.914)" fill="none" stroke="#fff" stroke-width="1.5"></line>
            <g id="Ellipse_16" data-name="Ellipse 16" transform="translate(9.135 11.981)" fill="#fff" stroke="#fff" stroke-width="1">
              <ellipse cx="0.849" cy="0.849" rx="0.849" ry="0.849" stroke="none"></ellipse>
              <ellipse cx="0.849" cy="0.849" rx="0.349" ry="0.349" fill="none"></ellipse>
            </g>
          </g>
        </g>
      </g>
    </g>
  </g>
</svg>
