<svg id="ricoh-lock-up" xmlns="http://www.w3.org/2000/svg" width="104.102" height="36.014" viewBox="0 0 104.102 36.014">
  <path id="Path_245" data-name="Path 245" d="M53.456,23.28c0,3.549,2.628,6.169,7.021,6.169a12.333,12.333,0,0,0,5.406-1.134l1.648,2.24a15.382,15.382,0,0,1-7.823,1.834c-7.009,0-12.16-3.376-12.16-9.107v0c0-5.73,5.151-9.1,12.16-9.1a17.218,17.218,0,0,1,7.657,1.5l-1.685,2.579a10.213,10.213,0,0,0-5.2-1.147c-4.394,0-7.021,2.617-7.021,6.166M80.2,14.171c-6.785,0-11.678,3.379-11.678,9.109s4.893,9.109,11.678,9.109,11.682-3.376,11.682-9.109S86.984,14.171,80.2,14.171m0,15.385c-3.731,0-5.792-2.8-5.792-6.277S76.464,17,80.2,17s5.8,2.806,5.8,6.277-2.063,6.277-5.8,6.277m29.32-4.957v7.33h5.608v-17.3h-5.608v6.6h-8.571v-6.6H95.35v17.3h5.594V24.6h8.571Zm-71.254-9.97h5.905v17.3H38.262Zm-16.937,7.92V24.2a44.119,44.119,0,0,1,7.681,7.726h6.611A42.349,42.349,0,0,0,27.19,24.4c3.051-.125,6.45-1.36,6.45-4.862,0-4.49-4.8-5.315-9.655-5.315-3.965,0-7.618.183-9.811.363V31.928H19.69V17.2a34.585,34.585,0,0,1,4.32-.233c2.839,0,4.277.939,4.277,2.574,0,1.4-.6,3.072-6.962,3.011" transform="translate(-14.174 -14.171)" fill="#cf142b"/>
  <path id="Path_246" data-name="Path 246" d="M17.59,189.92H19v1.369H17.59Zm0,2.82H19v7.052H17.59Zm11.968,7.053v-4.528c0-.86-.268-1.565-1.255-1.565-1.156,0-1.565,1.163-1.565,2.25v3.844h-1.41v-4.528c0-.859-.268-1.564-1.254-1.564-1.158,0-1.58,1.163-1.58,2.25v3.844h-1.41v-5.431a15.926,15.926,0,0,0-.07-1.622h1.324l.042,1.213a2.3,2.3,0,0,1,2.156-1.353,2.031,2.031,0,0,1,2.06,1.439,2.348,2.348,0,0,1,2.158-1.438c1.535,0,2.226,1.044,2.226,2.5v4.7Zm63.662,0-.043-1.115c-1.009,1.884-4.555,1.686-4.555-.747,0-1.833,1.754-2.585,4.512-2.455,0-.01.151-1.326-.757-1.732a3.62,3.62,0,0,0-2.925.406l-.084-1.085c1.639-.677,5.148-1.1,5.148,2.165v3a13.031,13.031,0,0,0,.084,1.567Zm-1.381-.89c1.035-.245,1.34-1.29,1.3-2.566,0,0-3.2-.258-3.116,1.517.051,1.041,1.053,1.232,1.82,1.049m-54.847.89-.043-1.115c-1.009,1.884-4.555,1.686-4.555-.747,0-1.833,1.753-2.585,4.512-2.455,0-.01.151-1.326-.757-1.732a3.62,3.62,0,0,0-2.925.406l-.085-1.085c1.639-.677,5.148-1.1,5.148,2.165v3a12.979,12.979,0,0,0,.084,1.567Zm-1.381-.89c1.034-.245,1.34-1.29,1.3-2.566,0,0-3.2-.258-3.116,1.517.05,1.041,1.052,1.232,1.82,1.049m68.852,3.709.085-1.2a4.482,4.482,0,0,0,2.1.508c2.439-.038,2.3-2.063,2.3-3.356a2.655,2.655,0,0,1-2.186,1.227c-2.06.006-2.863-1.792-2.863-3.554,0-1.876.8-3.639,2.892-3.639A2.337,2.337,0,0,1,109,193.911V192.74h1.354V199.4c0,3.927-3.492,3.959-5.895,3.215m2.736-8.926c-1.452,0-1.776,1.381-1.776,2.567,0,1.1.338,2.455,1.763,2.455,1.367,0,1.805-1.384,1.805-2.455,0-1.127-.424-2.567-1.791-2.567m-66.848,8.927.085-1.2a4.486,4.486,0,0,0,2.1.508c2.441-.038,2.3-2.063,2.3-3.356a2.653,2.653,0,0,1-2.185,1.227c-2.06.006-2.864-1.792-2.864-3.554,0-1.876.8-3.639,2.891-3.639a2.341,2.341,0,0,1,2.216,1.311V192.74h1.353V199.4c0,3.927-3.491,3.959-5.893,3.215m2.737-8.926c-1.453,0-1.778,1.381-1.778,2.567,0,1.1.338,2.455,1.763,2.455,1.368,0,1.8-1.384,1.8-2.455,0-1.127-.423-2.567-1.791-2.567m5.244-3.765h1.409v1.369H48.329Zm0,2.82h1.409v7.052H48.329Zm64.991,3.893c.082,2.464,2.275,2.774,4.23,1.833l.085,1.1c-2.833.918-5.768.377-5.768-3.328a3.352,3.352,0,0,1,3.187-3.638c3.324,0,2.947,4.033,2.947,4.033Zm1.749-3.06c-1.2,0-1.764,1.284-1.764,2.187h3.342c0-1-.381-2.187-1.58-2.187m-54.294,3.06c.082,2.464,2.276,2.774,4.232,1.833l.084,1.1c-2.834.918-5.768.377-5.768-3.328A3.353,3.353,0,0,1,62.51,192.6c3.324,0,2.948,4.033,2.948,4.033Zm1.749-3.06c-1.2,0-1.762,1.284-1.762,2.187H64.1c0-1-.38-2.187-1.58-2.187m4.67,4.767H68.7v1.453H67.191Zm6.49-2.1c0-3.207,3.093-4.241,5.785-3.342l-.084,1.128c-1.763-.824-4.178-.31-4.178,2.215,0,2.445,2.3,3.147,4.192,2.313l.07,1.114c-2.233.762-5.785.179-5.785-3.427m11.1-3.639A2.292,2.292,0,0,0,82.6,193.91v-3.991h-1.41v9.872H82.6V196.1c0-1.1.423-2.4,1.721-2.4,1.212,0,1.4.926,1.4,1.931v4.16h1.423v-4.455c0-1.608-.662-2.735-2.354-2.735m16.181,7.193v-4.161c0-.987-.183-1.931-1.4-1.931-1.31,0-1.719,1.2-1.719,2.308v3.785h-1.41v-5.43a15.527,15.527,0,0,0-.071-1.622h1.325l.043,1.213a2.46,2.46,0,0,1,2.285-1.353c1.748,0,2.37,1.114,2.37,2.736v4.457Zm-44.576,0v-4.161c0-.987-.183-1.931-1.4-1.931-1.311,0-1.719,1.2-1.719,2.308v3.785h-1.41v-5.43a15.522,15.522,0,0,0-.071-1.622h1.326l.042,1.213a2.461,2.461,0,0,1,2.285-1.353c1.75,0,2.37,1.114,2.37,2.736v4.457Zm63.35-1.454h1.509v1.454h-1.508Z" transform="translate(-17.144 -166.973)" fill="#6d6e71"/>
</svg>
