<svg width="55" height="55" viewBox="0 0 55 55" fill="none" xmlns="http://www.w3.org/2000/svg">
<path d="M44.6854 0H10.3146C4.618 0 0 4.618 0 10.3146V44.6854C0 50.382 4.618 55 10.3146 55H44.6854C50.382 55 55 50.382 55 44.6854V10.3146C55 4.618 50.382 0 44.6854 0Z" fill="#8D8C8C"/>
<path d="M39.7036 30.3996L39.1667 35.2935C39.0824 36.0936 38.9877 36.8937 38.9035 37.6937C38.7771 38.8055 38.377 40.468 37.8085 41.4447C35.4607 45.497 30.5649 46.8477 26.4904 44.4267C25.1954 43.6578 24.1847 42.598 23.4898 41.3927L20.2365 36.2183L18.1519 32.8933C17.6149 32.1452 17.5412 31.1166 18.0571 30.2853C18.7415 29.1528 20.2365 28.7995 21.3736 29.4749C21.7105 29.6827 21.9842 29.9529 22.1843 30.2646L23.4898 32.3427V21.786C23.4898 21.36 23.6056 20.9443 23.8372 20.5495C24.5321 19.4273 26.0166 19.0637 27.1537 19.739C27.9012 20.1858 28.3224 20.9755 28.3224 21.786V26.5552C29.0804 26.046 30.1017 25.9837 30.9439 26.4824C31.4072 26.763 31.7441 27.1578 31.9336 27.615C32.7022 26.9708 33.8287 26.8461 34.7447 27.3864C35.1869 27.6462 35.5133 28.0306 35.7028 28.467C36.4714 27.802 37.619 27.6773 38.5455 28.2176C38.6297 28.2696 38.714 28.3216 38.7876 28.3839C39.4088 28.8826 39.7457 29.6411 39.7036 30.3996Z" stroke="white" stroke-width="1.5" stroke-miterlimit="10"/>
<path d="M16.7399 25.9509C14.2927 22.1226 14.4736 17.0005 17.5341 13.3206C21.3206 8.76773 28.0809 8.14646 32.6338 11.9329C36.3137 14.9934 37.4252 19.9968 35.7167 24.207" stroke="white" stroke-width="1.5" stroke-linecap="round"/>
<path d="M19.7927 23.9449C18.1734 21.4117 18.2931 18.0225 20.3182 15.5875C22.8236 12.5749 27.2969 12.1638 30.3095 14.6693C32.7445 16.6944 33.4799 20.0051 32.3494 22.7909" stroke="white" stroke-width="1.5" stroke-linecap="round"/>
</svg>
