<svg width="55" height="55" viewBox="0 0 55 55" fill="none" xmlns="http://www.w3.org/2000/svg">
<path d="M44.6854 0H10.3146C4.618 0 0 4.618 0 10.3146V44.6854C0 50.382 4.618 55 10.3146 55H44.6854C50.382 55 55 50.382 55 44.6854V10.3146C55 4.618 50.382 0 44.6854 0Z" fill="#8D8C8C"/>
<path d="M33.8461 26.232V28.5395C33.8461 30.5367 32.4651 32.2264 30.5637 32.7958C30.1176 32.928 29.6439 32.9999 29.1537 32.9999C28.7021 32.9999 28.2657 32.9384 27.8526 32.8233C25.9374 32.2893 24.5385 30.6061 24.5385 28.6128V26.2307H33.8461V26.232Z" stroke="white" stroke-width="2" stroke-miterlimit="10"/>
<path d="M27.9231 22.9763V26.2308H25.3846V22.9763C25.3846 22.4364 25.9523 22 26.6548 22C27.0042 22 27.3231 22.1095 27.5529 22.2846C27.7807 22.4626 27.9231 22.7078 27.9231 22.9763Z" stroke="white" stroke-width="2" stroke-miterlimit="10"/>
<path d="M33 22.9763V26.2308H30.4615V22.9763C30.4615 22.4364 31.0307 22 31.7308 22C32.0799 22 32.3986 22.1095 32.6263 22.2846C32.8577 22.4626 33 22.7078 33 22.9763Z" stroke="white" stroke-width="2" stroke-miterlimit="10"/>
<path d="M31.3077 33V34.6463C31.3077 35.1396 30.8519 35.5385 30.293 35.5385H28.0916C27.5305 35.5385 27.0769 35.1377 27.0769 34.6463V33.0397C27.7218 33.206 28.4012 33.2949 29.1084 33.2949C29.8738 33.2968 30.6133 33.1928 31.3077 33Z" stroke="white" stroke-width="2" stroke-miterlimit="10"/>
<path d="M29.5828 41.4078H40.7391C46.2787 41.4078 50.7692 37.2489 50.7692 32.118C50.7692 27.9079 47.74 24.356 43.5944 23.2154C43.14 18.1578 38.6214 13.5385 32.3807 13.5385C26.1399 13.5385 24.0222 16.1184 22.3505 19.2155C17.8922 17.1512 11.7637 19.7312 11.7637 25.9253C7.81022 26.5392 5.0769 30.0717 5.0769 33.6665C5.0769 38.5471 9.09064 41.123 13.6808 41.3801C15.9639 41.5087 18.2933 41.4465 20.5821 41.4465C28.4721 41.4465 29.2771 39.4057 29.2771 37.1908V35.5234" stroke="white" stroke-width="2" stroke-miterlimit="10" stroke-linecap="round"/>
</svg>
