<svg width="55" height="55" viewBox="0 0 55 55" fill="none" xmlns="http://www.w3.org/2000/svg">
<path d="M44.6854 0H10.3146C4.618 0 0 4.618 0 10.3146V44.6854C0 50.382 4.618 55 10.3146 55H44.6854C50.382 55 55 50.382 55 44.6854V10.3146C55 4.618 50.382 0 44.6854 0Z" fill="#8D8C8C"/>
<path d="M20.6064 34.462C20.6064 35.4256 21.3626 36.2062 22.2896 36.2062H35.7793C36.7062 36.2062 37.4624 35.4256 37.4624 34.462V32.7179H20.6064V34.462Z" stroke="white" stroke-width="1.3" stroke-miterlimit="10"/>
<path d="M20.6064 30.0225C20.6064 30.986 21.3626 31.7666 22.2896 31.7666H35.7793C36.7062 31.7666 37.4624 30.986 37.4624 30.0225V28.2783H20.6064V30.0225Z" stroke="white" stroke-width="1.3" stroke-miterlimit="10"/>
<path d="M39.9995 19.9113H38.3163C37.8528 19.9113 37.4747 20.3016 37.4747 20.7772C37.4747 21.2529 37.8528 21.6432 38.3163 21.6432H39.9995C40.463 21.6432 40.8411 21.2529 40.8411 20.7772C40.8411 20.3016 40.463 19.9113 39.9995 19.9113Z" stroke="white" stroke-width="1.3" stroke-miterlimit="10"/>
<path d="M20.6064 39.0237C20.6064 39.9872 21.3626 40.7678 22.2896 40.7678H35.7793C36.7062 40.7678 37.4624 39.9872 37.4624 39.0237V37.2795H20.6064V39.0237Z" stroke="white" stroke-width="1.3" stroke-miterlimit="10"/>
<path d="M39.1578 14.691V18.3501H34.5596V21.4237C34.5596 21.753 34.2913 22.0213 33.9742 22.0213H24.6192C24.3021 22.0213 24.0338 21.753 24.0338 21.4237V18.3501H22.0335L18.9111 14.691C17.045 14.691 15.5326 16.2522 15.5326 18.1671V26.0341L10.1538 21.7652L10.166 23.0946L15.5448 28.9247V41.2679C15.5448 42.2314 16.301 43.012 17.228 43.012H18.3013C18.0939 43.256 17.972 43.5853 17.972 43.9268C17.972 44.7196 18.594 45.3538 19.3502 45.3538C20.1186 45.3538 20.7284 44.7196 20.7284 43.9268C20.7284 43.5731 20.6065 43.256 20.3991 43.012H38.1455C37.9382 43.256 37.8162 43.5853 37.8162 43.9268C37.8162 44.7196 38.4382 45.3538 39.1944 45.3538C39.9628 45.3538 40.5727 44.7196 40.5727 43.9268C40.5727 43.5731 40.4507 43.256 40.2434 43.012H40.8288C41.7558 43.012 42.512 42.2314 42.512 41.2679V18.1671C42.5363 16.2522 41.0239 14.691 39.1578 14.691ZM37.4747 39.0237C37.4747 39.9872 36.7185 40.7678 35.7915 40.7678H22.2896C21.3627 40.7678 20.6065 39.9872 20.6065 39.0237V37.2795H37.4747V39.0237ZM37.4747 34.4621C37.4747 35.4256 36.7185 36.2062 35.7915 36.2062H22.2896C21.3627 36.2062 20.6065 35.4256 20.6065 34.4621V32.7179H37.4747V34.4621ZM37.4747 30.0224C37.4747 30.986 36.7185 31.7666 35.7915 31.7666H22.2896C21.3627 31.7666 20.6065 30.986 20.6065 30.0224V28.2783H29.0406H37.4747V30.0224ZM39.9994 21.6432H38.3163C37.8528 21.6432 37.4747 21.2529 37.4747 20.7773C37.4747 20.3016 37.8528 19.9113 38.3163 19.9113H39.9994C40.4629 19.9113 40.841 20.3016 40.841 20.7773C40.841 21.2529 40.4629 21.6432 39.9994 21.6432Z" stroke="white" stroke-width="1.3" stroke-miterlimit="10"/>
<path d="M30.5102 11.6174L35.5963 11.032V10.1538H26.6195L23.2653 11.6174H19.9356L19.8624 14.5203L22.4969 17.4231H24.0215V15.0203C24.0215 14.691 24.2777 14.4227 24.607 14.4227H33.9619C34.2791 14.4227 34.5474 14.691 34.5474 15.0203V17.4231H38.4016V11.6174H30.5102Z" stroke="white" stroke-width="1.3" stroke-miterlimit="10"/>
</svg>
