<svg width="55" height="55" viewBox="0 0 55 55" fill="none" xmlns="http://www.w3.org/2000/svg">
<path d="M44.6854 0H10.3146C4.618 0 0 4.618 0 10.3146V44.6854C0 50.382 4.618 55 10.3146 55H44.6854C50.382 55 55 50.382 55 44.6854V10.3146C55 4.618 50.382 0 44.6854 0Z" fill="#8D8C8C"/>
<path d="M28.8001 34.2716L38.9099 39.1919C38.8415 39.534 38.8037 39.7276 38.8037 39.7276C36.7249 40.2473 36.7249 43.1121 37.9535 46.91L24.1098 42.326C24.7852 39.9358 23.6964 37.4902 22.3309 35.5643C21.6482 34.6035 20.7631 33.8014 20.1183 32.8115C19.4938 31.8537 18.9522 30.9133 18.7062 29.8026C18.2127 27.5725 18.4937 24.9784 19.5593 22.9579C20.4094 21.3435 21.7763 20.1018 23.3819 19.2342C25.5393 18.0682 28.0285 17.5252 30.4756 17.6882C33.6199 17.8964 36.3435 19.2691 38.7091 21.2838C39.2695 21.7613 39.8067 22.265 40.3234 22.789C40.3525 22.8181 40.402 22.8662 40.4675 22.9258L29.4042 27.3002C29.0199 27.1605 28.605 27.0848 28.1727 27.0848C26.1725 27.0848 24.5509 28.7064 24.5509 30.7066C24.5509 32.7067 26.1725 34.3284 28.1727 34.3284C28.3867 34.3284 28.5963 34.308 28.8001 34.2716Z" stroke="white" stroke-width="2" stroke-miterlimit="10"/>
<path d="M42.5361 40.9577L38.9085 39.1934L28.7986 34.2731C29.9544 34.0722 30.921 33.324 31.4232 32.305L39.482 36.2936L42.111 37.595L42.5361 40.9577Z" stroke="white" stroke-width="2" stroke-miterlimit="10"/>
<path d="M45.465 30.4679L42.1299 37.6023L42.111 37.5936L39.482 36.2922L31.4232 32.3035C31.643 31.8581 31.7726 31.3602 31.7915 30.8347C31.793 30.7925 31.7944 30.7503 31.7944 30.7066C31.7944 29.1388 30.7987 27.804 29.4042 27.3003L40.4675 22.9259L41.8272 22.3887L45.465 30.4679Z" stroke="white" stroke-width="2" stroke-miterlimit="10"/>
<path d="M26.2308 8.47165C26.0485 8.46588 25.8647 8.46155 25.6809 8.46155C17.6639 8.46155 10.9619 13.8939 9.30774 21.1539" stroke="white" stroke-width="2" stroke-miterlimit="10"/>
<path d="M27.051 11.8631C26.9141 11.8588 26.7758 11.8573 26.639 11.8573C19.9544 11.8573 14.3427 16.4515 12.788 22.6543" stroke="white" stroke-width="2" stroke-miterlimit="10"/>
<path d="M16.077 23.6923C17.4458 18.8005 21.7349 15.2308 26.8151 15.2308C26.9024 15.2308 26.9897 15.2322 27.077 15.2336" stroke="white" stroke-width="2" stroke-miterlimit="10"/>
</svg>
