<svg id="Icon_dissolving_issues" xmlns="http://www.w3.org/2000/svg" xmlns:xlink="http://www.w3.org/1999/xlink" width="60" height="60" viewBox="0 0 60 60">
  <defs>
    <clipPath id="clip-path">
      <rect id="Rectangle_696" data-name="Rectangle 696" width="35.744" height="37.369" transform="translate(0)"></rect>
    </clipPath>
  </defs>
  <path id="Path_273" data-name="Path 273" d="M114.521,230.126h-4.535a.892.892,0,0,1-.891-.892V180.027a1.79,1.79,0,0,0-1.784-1.791h-50.1a1.794,1.794,0,0,0-1.79,1.791v50.1a1.792,1.792,0,0,0,1.79,1.791h49.2a.894.894,0,0,1,.9.9v4.533a.886.886,0,0,0,.887.89h6.324a.892.892,0,0,0,.9-.89v-6.325a.9.9,0,0,0-.9-.9" transform="translate(-55.418 -178.236)" fill="#606cbf"></path>
  <g id="Icon_10" transform="translate(8.832 7.985)" clip-path="url('#clip-path')">
    <path id="Path_1485" data-name="Path 1485" d="M557.843,1864.918a2.926,2.926,0,0,1-2.921,2.925,2.921,2.921,0,1,1,0-5.843A2.925,2.925,0,0,1,557.843,1864.918Z" transform="translate(-536.976 -1860.579)" fill="none" stroke="#fff" stroke-linecap="round" stroke-linejoin="round" stroke-miterlimit="10" stroke-width="1" fill-rule="evenodd"></path>
    <path id="Path_1486" data-name="Path 1486" d="M550.515,1901.841H541a4.972,4.972,0,0,1,.2-1.4,4.824,4.824,0,0,1,1.093-1.915,4.7,4.7,0,0,1,6.93,0,4.924,4.924,0,0,1,1.093,1.92A5.047,5.047,0,0,1,550.515,1901.841Z" transform="translate(-527.812 -1889.737)" fill="none" stroke="#fff" stroke-linecap="round" stroke-linejoin="round" stroke-miterlimit="10" stroke-width="1" fill-rule="evenodd"></path>
    <path id="Path_1487" data-name="Path 1487" d="M557.843,2006.918a2.926,2.926,0,0,1-2.921,2.925,2.921,2.921,0,1,1,0-5.843A2.925,2.925,0,0,1,557.843,2006.918Z" transform="translate(-536.976 -1978.875)" fill="none" stroke="#fff" stroke-linecap="round" stroke-linejoin="round" stroke-miterlimit="10" stroke-width="1" fill-rule="evenodd"></path>
    <path id="Path_1488" data-name="Path 1488" d="M550.515,2043.841H541a4.972,4.972,0,0,1,.2-1.4,4.827,4.827,0,0,1,1.093-1.915,4.7,4.7,0,0,1,6.93,0,4.926,4.926,0,0,1,1.093,1.92A5.111,5.111,0,0,1,550.515,2043.841Z" transform="translate(-527.812 -2008.032)" fill="none" stroke="#fff" stroke-linecap="round" stroke-linejoin="round" stroke-miterlimit="10" stroke-width="1" fill-rule="evenodd"></path>
    <path id="Path_1489" data-name="Path 1489" d="M628.843,1935.918a2.921,2.921,0,1,1-2.921-2.918A2.923,2.923,0,0,1,628.843,1935.918Z" transform="translate(-596.123 -1919.727)" fill="none" stroke="#fff" stroke-linecap="round" stroke-linejoin="round" stroke-miterlimit="10" stroke-width="1" fill-rule="evenodd"></path>
    <path id="Path_1490" data-name="Path 1490" d="M621.515,1972.841H612a4.963,4.963,0,0,1,.2-1.4,4.826,4.826,0,0,1,1.092-1.915,4.7,4.7,0,0,1,6.926,0,4.925,4.925,0,0,1,1.092,1.92A4.847,4.847,0,0,1,621.515,1972.841Z" transform="translate(-586.96 -1948.885)" fill="none" stroke="#fff" stroke-linecap="round" stroke-linejoin="round" stroke-miterlimit="10" stroke-width="1" fill-rule="evenodd"></path>
    <path id="Path_1491" data-name="Path 1491" d="M486.843,1935.918a2.924,2.924,0,0,1-2.919,2.925,2.886,2.886,0,0,1-1.969-.768,2.919,2.919,0,1,1,4.888-2.157Z" transform="translate(-477.828 -1919.727)" fill="none" stroke="#fff" stroke-linecap="round" stroke-linejoin="round" stroke-miterlimit="10" stroke-width="1" fill-rule="evenodd"></path>
    <path id="Path_1492" data-name="Path 1492" d="M479.682,1972.841H470a4.892,4.892,0,0,1,.206-1.4,4.841,4.841,0,0,1,8.159-1.915,4.9,4.9,0,0,1,1.112,1.92A4.964,4.964,0,0,1,479.682,1972.841Z" transform="translate(-468.664 -1948.885)" fill="none" stroke="#fff" stroke-linecap="round" stroke-linejoin="round" stroke-miterlimit="10" stroke-width="1" fill-rule="evenodd"></path>
    <path id="Path_1493" data-name="Path 1493" d="M570,1933v2.337" transform="translate(-551.971 -1919.727)" fill="none" stroke="#fff" stroke-linecap="round" stroke-linejoin="round" stroke-miterlimit="10" stroke-width="1" fill-rule="evenodd"></path>
    <path id="Path_1494" data-name="Path 1494" d="M570,1982v2.5" transform="translate(-551.971 -1960.548)" fill="none" stroke="#fff" stroke-linecap="round" stroke-linejoin="round" stroke-miterlimit="10" stroke-width="1" fill-rule="evenodd"></path>
    <path id="Path_1495" data-name="Path 1495" d="M528,1965h4.006" transform="translate(-516.982 -1946.385)" fill="none" stroke="#fff" stroke-linecap="round" stroke-linejoin="round" stroke-miterlimit="10" stroke-width="1" fill-rule="evenodd"></path>
    <path id="Path_1496" data-name="Path 1496" d="M591.173,1965H587" transform="translate(-566.133 -1946.385)" fill="none" stroke="#fff" stroke-linecap="round" stroke-linejoin="round" stroke-miterlimit="10" stroke-width="1" fill-rule="evenodd"></path>
    <path id="Path_1497" data-name="Path 1497" d="M561.34,1954.17a2.17,2.17,0,1,1-2.17-2.17A2.17,2.17,0,0,1,561.34,1954.17Z" transform="translate(-541.141 -1935.556)" fill="none" stroke="#fff" stroke-linecap="round" stroke-linejoin="round" stroke-miterlimit="10" stroke-width="1" fill-rule="evenodd"></path>
  </g>
</svg>
