<svg id="Icon-Employee-Experience" xmlns="http://www.w3.org/2000/svg" xmlns:xlink="http://www.w3.org/1999/xlink" width="99.943" height="99.943" viewBox="0 0 99.943 99.943">
  <defs>
    <clipPath id="clip-path">
      <rect id="Rectangle_526" data-name="Rectangle 526" width="41.523" height="40.225" transform="translate(0)" fill="#fff"></rect>
    </clipPath>
    <clipPath id="clip-path-2">
      <rect id="Rectangle_530" data-name="Rectangle 530" width="41.523" height="41.523" transform="translate(-0.001 0)" fill="#fff"></rect>
    </clipPath>
  </defs>
  <path id="Ricoh_Ribbon_-_HW" data-name="Ricoh Ribbon - HW" d="M153.867,264.67h-7.555a1.486,1.486,0,0,1-1.485-1.485V181.22a2.981,2.981,0,0,0-2.972-2.984H58.4a2.988,2.988,0,0,0-2.982,2.984v83.45a2.985,2.985,0,0,0,2.982,2.984h81.957a1.49,1.49,0,0,1,1.5,1.492V276.7a1.475,1.475,0,0,0,1.478,1.482h10.534a1.485,1.485,0,0,0,1.494-1.482V266.162a1.493,1.493,0,0,0-1.494-1.492" transform="translate(-55.418 -178.236)" fill="#758cc5"></path>
  <g id="employee-experience" transform="translate(19.475 14.001)">
    <g id="employee1" transform="translate(-5.578 -1.684)" clip-path="url('#clip-path')">
      <path id="employee1-2" data-name="employee1" d="M409.9,385.221a3.981,3.981,0,0,0-1.474-2.906,17.749,17.749,0,0,0-4.945-2.776,8.109,8.109,0,0,0,2.3-1,.505.505,0,0,0,.217-.3.49.49,0,0,0-.131-.347,5.239,5.239,0,0,1-1.474-2.689,14.729,14.729,0,0,1,.433-2.993,28.755,28.755,0,0,0,.651-4.9c0-2.125-.564-3.3-1.952-4.121a3.758,3.758,0,0,0-2.169-.13,6.944,6.944,0,0,0-3.513-2.255,8.994,8.994,0,0,0-6.765.867c-1.866,1.214-2.646,3.123-2.646,6.55,0,1.691.086,3.165.173,4.467a18.481,18.481,0,0,1,.044,3.426,4.231,4.231,0,0,1-.955,2.038.47.47,0,0,0-.086.347c0,.131.086.217.216.3a9.218,9.218,0,0,0,2.255.825,16.812,16.812,0,0,0-4.814,2.688,4.212,4.212,0,0,0-1.388,2.906v7.372l.173.13c2.038,1.344,7.5,2.038,12.967,2.038s10.886-.694,12.708-2.038l.173-.13Zm-17.868-5.465.738-.3c.044,0,.086-.044.13-.044s.044,0,.086-.044a1.664,1.664,0,0,0,.868-1.518v-.781a6.615,6.615,0,0,0,6.071,0v.781a1.7,1.7,0,0,0,.911,1.518h.044c.044.044.086.044.13.087l.738.3-.087.347a8.367,8.367,0,0,1-4.77,1.214,8.266,8.266,0,0,1-4.77-1.214Zm4.857-2.776a5.627,5.627,0,0,1-5.639-5.638v-1.735a19.058,19.058,0,0,0,5.465-1.3l.434-.217a11.688,11.688,0,0,0,3.252-2.124,12.665,12.665,0,0,0,.737,2.948,3.945,3.945,0,0,0,1.214,1.3c.043.044.086.044.13.087v1.041A5.563,5.563,0,0,1,396.886,376.98Zm6.505-6.939a.465.465,0,0,0-.13-.3,1.338,1.338,0,0,0-.39-.3,2.354,2.354,0,0,1-.955-1,9.309,9.309,0,0,1-.65-2.646,1.605,1.605,0,0,0-.217-.477.856.856,0,0,0-.608-.26h0a.824.824,0,0,0-.563.216,11.544,11.544,0,0,1-3.079,1.952l-.434.217a16.5,16.5,0,0,1-5.551,1.258.409.409,0,0,0-.433.433h0V371.3a6.592,6.592,0,0,0,2.6,5.2v1.344a.858.858,0,0,1-.519.781c-1.172.519-2.907-.087-3.687-.434a4.865,4.865,0,0,0,.824-2,20.3,20.3,0,0,0-.044-3.6c-.086-1.3-.173-2.732-.173-4.423,0-3.079.65-4.771,2.213-5.768a8.017,8.017,0,0,1,6.072-.78,5.537,5.537,0,0,1,3.165,2.081.435.435,0,0,0,.477.217,3.384,3.384,0,0,1,1.866,0c.954.52,1.518,1.258,1.518,3.34a27.439,27.439,0,0,1-.65,4.728,16.672,16.672,0,0,0-.434,3.252,5.361,5.361,0,0,0,1.345,2.863c-.781.39-2.429,1.127-3.6.563a.818.818,0,0,1-.477-.78v-1.344a6.531,6.531,0,0,0,2.6-5.2Zm-18.648,15.18a3.172,3.172,0,0,1,1.128-2.3,18.127,18.127,0,0,1,5.334-2.863l3.817,13.836c-4.381-.131-8.5-.738-10.279-1.735Zm11.19,8.674-3.47-12.578a11.712,11.712,0,0,0,8.846,0l-3.47,12.578C397.189,393.937,396.583,393.895,395.932,393.895Zm2.818,0,3.816-13.792a18.1,18.1,0,0,1,5.334,2.863,3.01,3.01,0,0,1,1.128,2.255v6.939C407.381,393.2,403.218,393.764,398.751,393.895Z" transform="translate(-376.347 -357.076)" fill="#fff" stroke="#fff" stroke-width="0.66"></path>
    </g>
    <g id="employee2" transform="translate(15.188 21.673)" clip-path="url('#clip-path-2')">
      <g id="employee2-2" data-name="employee2" transform="translate(7.15 3.348)">
        <path id="Path_1098" data-name="Path 1098" d="M430.326,409.216a3.806,3.806,0,0,0-1.46-2.928,17.779,17.779,0,0,0-5.408-2.792l-2.133-.875a.864.864,0,0,1-.537-.8V400.54a6.492,6.492,0,0,0,2.6-5.193v-.286l.95-1.221a2.364,2.364,0,0,0,.482-1.715,7.916,7.916,0,0,0-4.4-6.393,1.013,1.013,0,0,0-1.02.086l-.055.038-.193-.266a1.336,1.336,0,0,0-.85-.536,7.863,7.863,0,0,0-9.072,6.306l-.016.087a7.317,7.317,0,0,1-1.11,2.728.434.434,0,0,0,.361.674h1.915v.5a6.5,6.5,0,0,0,2.6,5.19v1.281a.866.866,0,0,1-.537.8l-2.146.879a17.8,17.8,0,0,0-5.386,2.782,3.824,3.824,0,0,0-1.467,2.943v7.389l.193.13c2.028,1.352,7.732,2.027,13.39,2.027,5.681,0,11.317-.681,13.129-2.041l.173-.133ZM410.067,391.6l.015-.086a7,7,0,0,1,8.073-5.61.483.483,0,0,1,.3.194l.443.607a.435.435,0,0,0,.6.1l.4-.279a.15.15,0,0,1,.147-.019,7.045,7.045,0,0,1,3.92,5.689,1.5,1.5,0,0,1-.3,1.11l-.309.4a3.26,3.26,0,0,0-.76-1.614l-1.473-1.689a.432.432,0,0,0-.435-.134,3.683,3.683,0,0,0-1.842,1.509,4.683,4.683,0,0,1-4.121,2.2H409.23A8.152,8.152,0,0,0,410.067,391.6Zm1.181,3.743v-.5h3.47a5.536,5.536,0,0,0,4.8-2.527,3.906,3.906,0,0,1,1.142-1.12l1.277,1.464a2.4,2.4,0,0,1,.59,1.573v1.109a5.639,5.639,0,0,1-11.277,0Zm1.524,8.076a1.73,1.73,0,0,0,1.076-1.6V401.1a6.476,6.476,0,0,0,6.074,0v.721a1.729,1.729,0,0,0,1.076,1.6l.785.322-1.991,14.125c-.764.03-1.542.047-2.323.051L419,416.326l-.539-9.021.957-3.285h-5.059l.947,3.255-.528,9.051,1.527,1.588c-.78-.008-1.561-.029-2.328-.062l-1.989-14.108Zm4.984,3.2h-1.738l-.506-1.735h2.748Zm-1.6.868h1.44l.509,8.51-1.222,1.272L415.664,416Zm-5-3.374,1.931,13.692c-3.842-.223-7.241-.78-8.782-1.667v-6.905a2.96,2.96,0,0,1,1.141-2.276,16.923,16.923,0,0,1,5.092-2.625Zm12.063.217a16.906,16.906,0,0,1,5.1,2.631,2.953,2.953,0,0,1,1.134,2.261v6.929c-1.427.908-4.865,1.464-8.789,1.672l1.936-13.712Z" transform="translate(-403.442 -384.937)" fill="#fff" stroke="#fff" stroke-width="0.66"></path>
        <path id="Path_1099" data-name="Path 1099" d="M423.565,410.75h3.9v.867h-3.9Z" transform="translate(-403.617 -385.162)" fill="#fff" stroke="#fff" stroke-width="0.66"></path>
      </g>
    </g>
  </g>
</svg>
