<svg id="Icon-Multiple-Buildings" xmlns="http://www.w3.org/2000/svg" width="60" height="60" viewBox="0 0 60 60">
  <path id="Path_273" data-name="Path 273" d="M114.521,230.126h-4.535a.892.892,0,0,1-.891-.892V180.027a1.79,1.79,0,0,0-1.784-1.791h-50.1a1.794,1.794,0,0,0-1.79,1.791v50.1a1.792,1.792,0,0,0,1.79,1.791h49.2a.894.894,0,0,1,.9.9v4.533a.886.886,0,0,0,.887.89h6.324a.892.892,0,0,0,.9-.89v-6.325a.9.9,0,0,0-.9-.9" transform="translate(-55.418 -178.236)" fill="#768ec7"/>
  <g id="Group_2067" data-name="Group 2067" transform="translate(-1078 -1894.668)">
    <g id="Group_2067-2" data-name="Group 2067" transform="translate(1083.755 1914.08)">
      <g id="Group_2069" data-name="Group 2069" transform="translate(0 0)">
        <path id="Path_1574" data-name="Path 1574" d="M120.2,177.338v-16.8l-8.614-6.874-8.614,6.874v16.8h19.685" transform="translate(-100.012 -153.66)" fill="none" stroke="#fff" stroke-miterlimit="10" stroke-width="1.6"/>
        <path id="Path_1575" data-name="Path 1575" d="M77.65,162.895l11.572-9.235s5.857,4.665,8.753,6.973" transform="translate(-77.65 -153.66)" fill="none" stroke="#fff" stroke-miterlimit="10" stroke-width="1.6"/>
        <line id="Line_198" data-name="Line 198" x2="2.249" transform="translate(0.709 23.678)" fill="none" stroke="#fff" stroke-miterlimit="10" stroke-width="1.6"/>
        <rect id="Rectangle_701" data-name="Rectangle 701" width="4.455" height="8.445" transform="translate(6.183 15.233)" fill="none" stroke="#fff" stroke-miterlimit="10" stroke-width="1.6"/>
        <rect id="Rectangle_702" data-name="Rectangle 702" width="5.191" height="3.612" transform="translate(11.972 8.402)" fill="none" stroke="#fff" stroke-miterlimit="10" stroke-width="1.6"/>
        <path id="Path_1576" data-name="Path 1576" d="M111.653,164.372V160.92h-2.5v5.45Z" transform="translate(-105.47 -160.072)" fill="none" stroke="#fff" stroke-miterlimit="10" stroke-width="1.6"/>
      </g>
    </g>
    <g id="Group_2068" data-name="Group 2068" transform="translate(1101.547 1905.264)">
      <path id="Path_1577" data-name="Path 1577" d="M355.044,187.166V158.2h16.8v28.378H353.333" transform="translate(-352.307 -154.126)" fill="none" stroke="#fff" stroke-miterlimit="10" stroke-width="1.6"/>
      <line id="Line_199" data-name="Line 199" x2="1.591" transform="translate(19.542 32.494)" fill="none" stroke="#fff" stroke-miterlimit="10" stroke-width="1.6"/>
      <rect id="Rectangle_703" data-name="Rectangle 703" width="22.214" height="3.073" transform="translate(0 1)" fill="none" stroke="#fff" stroke-miterlimit="10" stroke-width="1.6"/>
      <rect id="Rectangle_704" data-name="Rectangle 704" width="3.484" height="4.675" transform="translate(6.341 7.149)" fill="none" stroke="#fff" stroke-miterlimit="10" stroke-width="1.6"/>
      <rect id="Rectangle_705" data-name="Rectangle 705" width="3.484" height="4.675" transform="translate(12.389 7.149)" fill="none" stroke="#fff" stroke-miterlimit="10" stroke-width="1.6"/>
      <rect id="Rectangle_706" data-name="Rectangle 706" width="3.484" height="4.675" transform="translate(6.341 14.713)" fill="none" stroke="#fff" stroke-miterlimit="10" stroke-width="1.6"/>
      <rect id="Rectangle_707" data-name="Rectangle 707" width="3.484" height="4.675" transform="translate(12.389 14.713)" fill="none" stroke="#fff" stroke-miterlimit="10" stroke-width="1.6"/>
      <rect id="Rectangle_708" data-name="Rectangle 708" width="3.484" height="4.675" transform="translate(12.389 22.277)" fill="none" stroke="#fff" stroke-miterlimit="10" stroke-width="1.6"/>
    </g>
  </g>
</svg>
