<svg id="Icon-Wayfinding" xmlns="http://www.w3.org/2000/svg" xmlns:xlink="http://www.w3.org/1999/xlink" width="60" height="60" viewBox="0 0 60 60">
  <defs>
    <clipPath id="clip-path">
      <rect id="Rectangle_699" data-name="Rectangle 699" width="50" height="49" transform="translate(-0.193 -0.017)" fill="none"/>
    </clipPath>
  </defs>
  <path id="Path_273" data-name="Path 273" d="M114.521,230.126h-4.535a.892.892,0,0,1-.891-.892V180.027a1.79,1.79,0,0,0-1.784-1.791h-50.1a1.794,1.794,0,0,0-1.79,1.791v50.1a1.792,1.792,0,0,0,1.79,1.791h49.2a.894.894,0,0,1,.9.9v4.533a.886.886,0,0,0,.887.89h6.324a.892.892,0,0,0,.9-.89v-6.325a.9.9,0,0,0-.9-.9" transform="translate(-55.418 -178.236)" fill="#768ec7"/>
  <g id="Group_1538" data-name="Group 1538" transform="translate(7 6.712)">
    <g id="Group_2017" data-name="Group 2017" transform="translate(-4.808 -2.042)" clip-path="url(#clip-path)">
      <path id="Path_1512" data-name="Path 1512" d="M110.834,357.892l15.048,8.825a.905.905,0,0,1-.369,1.671l-7.523,1.211-3.717,6.689a.852.852,0,0,1-1.58-.279l-3.25-17.184A.948.948,0,0,1,110.834,357.892Z" transform="translate(-92.46 -344.257)" fill="none" stroke="#fff" stroke-miterlimit="10" stroke-width="2" fill-rule="evenodd"/>
      <path id="Path_1543" data-name="Path 1543" d="M44.9,26.044a18.487,18.487,0,0,1-36.97,0,18.487,18.487,0,0,1,36.97,0Z" transform="translate(-1.943 -3.573)" fill="rgba(0,0,0,0)" stroke="#fff" stroke-miterlimit="10" stroke-width="2"/>
    </g>
  </g>
</svg>
