<svg xmlns="http://www.w3.org/2000/svg" width="82.679" height="82.679" viewBox="0 0 82.679 82.679">
  <path id="Ricoh_Ribbon_-_HW" data-name="Ricoh Ribbon - HW" d="M136.861,249.74h-6.25a1.229,1.229,0,0,1-1.228-1.229V180.7a2.466,2.466,0,0,0-2.459-2.468H57.885a2.472,2.472,0,0,0-2.467,2.468V249.74a2.47,2.47,0,0,0,2.467,2.468h67.8a1.233,1.233,0,0,1,1.239,1.234v6.247a1.22,1.22,0,0,0,1.223,1.226h8.714a1.229,1.229,0,0,0,1.236-1.226v-8.715a1.235,1.235,0,0,0-1.236-1.234" transform="translate(-55.418 -178.236)" fill="#758cc5"/>
</svg>
