<svg xmlns="http://www.w3.org/2000/svg" width="60.234" height="60.234" viewBox="0 0 60.234 60.234"><defs><style>.a {
  fill: #b1b1b1;
}

.b {
  fill: #fff;
}

</style></defs><g transform="translate(-851.266 -2563.766)"><path class="a" d="M114.752,230.329H110.2a.9.9,0,0,1-.895-.9v-49.4a1.8,1.8,0,0,0-1.791-1.8h-50.3a1.8,1.8,0,0,0-1.8,1.8v50.294a1.8,1.8,0,0,0,1.8,1.8H106.61a.9.9,0,0,1,.9.9v4.551a.889.889,0,0,0,.891.893h6.348a.9.9,0,0,0,.9-.893v-6.349a.9.9,0,0,0-.9-.9" transform="translate(795.848 2385.53)"></path><g transform="translate(863.226 2575.971)"><path class="b" d="M14.774,0A14.774,14.774,0,1,0,29.548,14.774,14.791,14.791,0,0,0,14.774,0Zm0,26.861A12.088,12.088,0,1,1,26.861,14.774,12.1,12.1,0,0,1,14.774,26.861Z"></path><path class="a" d="M14.774-.3A15.074,15.074,0,1,1-.3,14.774,15.091,15.091,0,0,1,14.774-.3Zm0,29.548A14.474,14.474,0,1,0,.3,14.774,14.49,14.49,0,0,0,14.774,29.248Zm0-26.861A12.388,12.388,0,1,1,2.386,14.774,12.4,12.4,0,0,1,14.774,2.386Zm0,24.175A11.788,11.788,0,1,0,2.986,14.774,11.8,11.8,0,0,0,14.774,26.561Z"></path><path class="b" d="M146.792,70a1.791,1.791,0,1,0,1.79,1.792A1.793,1.793,0,0,0,146.792,70Z" transform="translate(-132.019 -63.732)"></path><path class="a" d="M146.792,69.7a2.091,2.091,0,1,1-2.09,2.092A2.093,2.093,0,0,1,146.792,69.7Zm0,3.582a1.491,1.491,0,1,0-1.49-1.49A1.492,1.492,0,0,0,146.792,73.282Z" transform="translate(-132.019 -63.732)"></path><path class="b" d="M151.343,140A1.343,1.343,0,0,0,150,141.343V149.4a1.343,1.343,0,0,0,2.686,0v-8.058A1.343,1.343,0,0,0,151.343,140Z" transform="translate(-136.569 -127.465)"></path><path class="a" d="M151.343,139.7a1.645,1.645,0,0,1,1.643,1.643V149.4a1.643,1.643,0,0,1-3.286,0v-8.058A1.645,1.645,0,0,1,151.343,139.7Zm0,10.745a1.044,1.044,0,0,0,1.043-1.043v-8.058a1.043,1.043,0,0,0-2.086,0V149.4A1.044,1.044,0,0,0,151.343,150.445Z" transform="translate(-136.569 -127.465)"></path></g></g></svg>