<svg xmlns="http://www.w3.org/2000/svg" xmlns:xlink="http://www.w3.org/1999/xlink" width="60.234" height="60.234" viewBox="0 0 60.234 60.234"><defs><style>.a {
  fill: none;
  stroke: #fff;
  stroke-width: .3px;
}

.b {
  fill: #8fc740;
}

.c {
  clip-path: url("#a");
}

.d {
  fill: #fff;
}

</style><clipPath id="a"><rect class="a" width="22.734" height="28.759"></rect></clipPath></defs><g transform="translate(-851.266)"><path class="b" d="M114.752,230.329H110.2a.9.9,0,0,1-.895-.9v-49.4a1.8,1.8,0,0,0-1.791-1.8h-50.3a1.8,1.8,0,0,0-1.8,1.8v50.294a1.8,1.8,0,0,0,1.8,1.8H106.61a.9.9,0,0,1,.9.9v4.551a.889.889,0,0,0,.891.893h6.348a.9.9,0,0,0,.9-.893v-6.349a.9.9,0,0,0-.9-.9" transform="translate(795.848 -178.236)"></path><g transform="translate(866.697 12.644)"><g class="c" transform="translate(0 0)"><path class="d" d="M18.578,36.419H1.359A1.361,1.361,0,0,1,0,35.06V21.043a1.361,1.361,0,0,1,1.359-1.359H18.578a1.361,1.361,0,0,1,1.359,1.359V35.06a1.361,1.361,0,0,1-1.359,1.359M1.359,20.494a.55.55,0,0,0-.55.549V35.06a.55.55,0,0,0,.55.55H18.578a.55.55,0,0,0,.55-.55V21.043a.55.55,0,0,0-.55-.549Z" transform="translate(1.399 -9.429)"></path><path class="d" d="M18.578,36.569H1.359A1.511,1.511,0,0,1-.15,35.06V21.043a1.511,1.511,0,0,1,1.509-1.509H18.578a1.511,1.511,0,0,1,1.509,1.509V35.06A1.511,1.511,0,0,1,18.578,36.569ZM1.359,19.834A1.211,1.211,0,0,0,.15,21.043V35.06a1.211,1.211,0,0,0,1.209,1.209H18.578a1.211,1.211,0,0,0,1.209-1.209V21.043a1.211,1.211,0,0,0-1.209-1.209ZM18.578,35.759H1.359a.7.7,0,0,1-.7-.7V21.043a.7.7,0,0,1,.7-.7H18.578a.7.7,0,0,1,.7.7V35.06A.7.7,0,0,1,18.578,35.759ZM1.359,20.644a.4.4,0,0,0-.4.4V35.06a.4.4,0,0,0,.4.4H18.578a.4.4,0,0,0,.4-.4V21.043a.4.4,0,0,0-.4-.4Z" transform="translate(1.399 -9.429)"></path><path class="d" d="M20.919,8.909h-.81V6.9A6.091,6.091,0,0,0,14.024.81,6.093,6.093,0,0,0,7.938,6.9V8.909h-.81V6.9a6.9,6.9,0,0,1,6.9-6.9,6.9,6.9,0,0,1,6.9,6.9Z" transform="translate(-2.657 1.769)"></path><path class="d" d="M21.069,9.059H19.96V6.9A5.942,5.942,0,0,0,14.024.96,5.943,5.943,0,0,0,8.088,6.9V9.059H6.978V6.9A7.054,7.054,0,0,1,14.024-.15,7.051,7.051,0,0,1,21.069,6.9Zm-.81-.3h.51V6.9A6.751,6.751,0,0,0,14.024.15,6.753,6.753,0,0,0,7.278,6.9V8.759h.51V6.9A6.243,6.243,0,0,1,14.024.66,6.242,6.242,0,0,1,20.26,6.9Z" transform="translate(-2.657 1.769)"></path><path class="d" d="M21.91,12.994H21.1V10.808a2.985,2.985,0,0,0-5.97,0v2.186h-.809V10.808a3.795,3.795,0,0,1,7.589,0Z" transform="translate(-6.748 -2.22)"></path><path class="d" d="M22.06,13.144h-1.11V10.808a2.835,2.835,0,0,0-5.67,0v2.336H14.171V10.808a3.945,3.945,0,0,1,7.889,0Zm-.81-.3h.51V10.808a3.645,3.645,0,1,0-7.289,0v2.036h.509V10.808a3.135,3.135,0,0,1,6.27,0Z" transform="translate(-6.748 -2.22)"></path><path class="d" d="M19.826,38.647a1.7,1.7,0,0,1-1.7-1.7v-2.3c0-.017,0-.036,0-.056a2.5,2.5,0,0,1-.8-1.83,2.5,2.5,0,0,1,2.495-2.495,2.5,2.5,0,0,1,1.77,4.262h0l-.069.066c0,.019,0,.036,0,.052v2.3a1.7,1.7,0,0,1-1.7,1.7m0-7.575A1.684,1.684,0,0,0,18.8,34.093l.214.161-.065.26a.568.568,0,0,0-.011.129v2.3a.889.889,0,1,0,1.779,0v-2.3a.568.568,0,0,0-.011-.129l-.068-.272.232-.16a1.131,1.131,0,0,0,.15-.127,1.688,1.688,0,0,0-1.2-2.882" transform="translate(-8.461 -15.446)"></path><path class="d" d="M19.826,38.8a1.851,1.851,0,0,1-1.847-1.851v-2.3a2.647,2.647,0,0,1-.8-1.894,2.646,2.646,0,0,1,2.645-2.645,2.648,2.648,0,0,1,1.887,4.507h0l-.011.012-.024.024v2.291A1.853,1.853,0,0,1,19.826,38.8Zm0-8.385a2.345,2.345,0,0,0-1.595,4.064l.05.046v.068c0,.019,0,.037,0,.053v2.3a1.549,1.549,0,1,0,3.1,0v-2.3c0-.015,0-.031,0-.049l0-.067.049-.046.058-.055.007-.008a2.347,2.347,0,0,0-1.663-4.006Zm0,7.575a1.04,1.04,0,0,1-1.037-1.041v-2.3a.7.7,0,0,1,.015-.166l.041-.163-.135-.1a1.834,1.834,0,0,1,1.116-3.291,1.839,1.839,0,0,1,1.3,3.138,1.27,1.27,0,0,1-.172.146l-.146.1.043.172a.7.7,0,0,1,.015.165v2.3A1.043,1.043,0,0,1,19.826,37.987Zm0-6.765a1.535,1.535,0,0,0-1.535,1.535,1.508,1.508,0,0,0,.6,1.216l.293.221-.089.356a.429.429,0,0,0-.006.093v2.3a.739.739,0,1,0,1.479,0v-2.3a.43.43,0,0,0-.006-.093l-.093-.374.318-.218a.983.983,0,0,0,.129-.11,1.538,1.538,0,0,0-1.089-2.626Z" transform="translate(-8.461 -15.446)"></path></g></g></g></svg>