<svg xmlns="http://www.w3.org/2000/svg" width="60" height="60" viewBox="0 0 60 60"><path d="M114.521,230.126h-4.535a.892.892,0,0,1-.891-.892V180.027a1.79,1.79,0,0,0-1.784-1.791h-50.1a1.794,1.794,0,0,0-1.79,1.791v50.1a1.792,1.792,0,0,0,1.79,1.791h49.2a.894.894,0,0,1,.9.9v4.533a.886.886,0,0,0,.887.89h6.324a.892.892,0,0,0,.9-.89v-6.325a.9.9,0,0,0-.9-.9" transform="translate(-55.418 -178.236)" fill="#768ec7"></path><g transform="translate(1919.679 -616.466)"><path d="M-1906.472,646.982v11.334a2.054,2.054,0,0,0,2.054,2.054h25.992a2.054,2.054,0,0,0,2.054-2.054V633.8a2.054,2.054,0,0,0-2.054-2.054h-11.588" transform="translate(-0.809 -1.618)" fill="none" stroke="#fff" stroke-miterlimit="10" stroke-width="2"></path><path d="M-1890.472,653.6" transform="translate(-6.048 -8.775)" fill="none" stroke="#fff" stroke-miterlimit="10" stroke-width="2"></path><path d="M-1886.759,667.07l0-1.745a2.1,2.1,0,0,0-2.1-2.1l-.648.1a2.469,2.469,0,0,1-2.469-2.469,2.468,2.468,0,0,1,2.469-2.468l.648.095a2.1,2.1,0,0,0,2.1-2.1l0-2.277,0,0,2.438,0a2.1,2.1,0,0,1,2.1,2.1l-.1.648a2.468,2.468,0,0,0,2.468,2.469,2.469,2.469,0,0,0,2.469-2.469l-.095-.648a2.1,2.1,0,0,1,2.1-2.1l3.075,0" transform="translate(-5.555 -8.935)" fill="none" stroke="#fff" stroke-miterlimit="10" stroke-width="2"></path><path d="M-1905.038,642.48l-3.9-.012V629.531a2.73,2.73,0,0,1,2.731-2.73h12.462v2.928l0-.1,0,1.745c0,1.162.427,2.4,2.1,2.1l.648-.1a2.469,2.469,0,0,1,2.468,2.469,2.469,2.469,0,0,1-2.468,2.469l-.648-.1c-1.869-.266-2.1.942-2.1,2.1v1.523l.007.629-2.347,0c-1.6-.025-2.424.671-2.1,2.1l.095.648a2.469,2.469,0,0,1-2.469,2.469,2.469,2.469,0,0,1-2.468-2.469l.1-.648c.182-1.369-.2-2.065-2.1-2.1" transform="translate(0)" fill="none" stroke="#fff" stroke-miterlimit="10" stroke-width="2"></path></g></svg>