<svg xmlns="http://www.w3.org/2000/svg" width="111" height="111" viewBox="0 0 111 111"><g transform="translate(0 -1069)"><path d="M164.758,274.233h-8.39a1.65,1.65,0,0,1-1.649-1.65V181.55a3.311,3.311,0,0,0-3.3-3.314H58.73a3.318,3.318,0,0,0-3.312,3.314v92.683a3.316,3.316,0,0,0,3.312,3.314h91.024a1.655,1.655,0,0,1,1.663,1.657v8.386a1.639,1.639,0,0,0,1.642,1.646h11.7a1.649,1.649,0,0,0,1.66-1.646v-11.7a1.659,1.659,0,0,0-1.66-1.657" transform="translate(-55.418 890.764)" fill="#768ec7"></path><g transform="translate(1676.096 1023.398)"><path d="M-1-1H27.546V27.384H-1ZM25.546,1H1V25.384H25.546Z" transform="translate(-1638.713 81.653)" fill="#fff"></path><path d="M4.082-1A5.082,5.082,0,1,1-1,4.082,5.088,5.088,0,0,1,4.082-1Zm0,8.164A3.082,3.082,0,1,0,1,4.082,3.086,3.086,0,0,0,4.082,7.164Z" transform="translate(-1625.203 65.832)" fill="#fff"></path><path d="M4.082-1A5.082,5.082,0,1,1-1,4.082,5.088,5.088,0,0,1,4.082-1Zm0,8.164A3.082,3.082,0,1,0,1,4.082,3.086,3.086,0,0,0,4.082,7.164Z" transform="translate(-1620.537 116.276)" fill="#fff"></path><path d="M4.082-1A5.082,5.082,0,1,1-1,4.082,5.088,5.088,0,0,1,4.082-1Zm0,8.164A3.082,3.082,0,1,0,1,4.082,3.086,3.086,0,0,0,4.082,7.164Z" transform="translate(-1653.487 72.344)" fill="#fff"></path><path d="M2.108-1A3.108,3.108,0,1,1-1,2.108,3.112,3.112,0,0,1,2.108-1Zm0,4.217A1.108,1.108,0,1,0,1,2.108,1.11,1.11,0,0,0,2.108,3.217Z" transform="translate(-1635.281 70.235)" fill="#fff"></path><path d="M2.108-1A3.108,3.108,0,1,1-1,2.108,3.112,3.112,0,0,1,2.108-1Zm0,4.217A1.108,1.108,0,1,0,1,2.108,1.11,1.11,0,0,0,2.108,3.217Z" transform="translate(-1605.831 85.787)" fill="#fff"></path><path d="M2.108-1A3.108,3.108,0,1,1-1,2.108,3.112,3.112,0,0,1,2.108-1Zm0,4.217A1.108,1.108,0,1,0,1,2.108,1.11,1.11,0,0,0,2.108,3.217Z" transform="translate(-1631.831 115.042)" fill="#fff"></path><path d="M2.108-1A3.108,3.108,0,1,1-1,2.108,3.112,3.112,0,0,1,2.108-1Zm0,4.217A1.108,1.108,0,1,0,1,2.108,1.11,1.11,0,0,0,2.108,3.217Z" transform="translate(-1652.679 85.981)" fill="#fff"></path><path d="M2.108-1A3.108,3.108,0,1,1-1,2.108,3.112,3.112,0,0,1,2.108-1Zm0,4.217A1.108,1.108,0,1,0,1,2.108,1.11,1.11,0,0,0,2.108,3.217Z" transform="translate(-1647.625 95.312)" fill="#fff"></path><path d="M2.108-1A3.108,3.108,0,1,1-1,2.108,3.112,3.112,0,0,1,2.108-1Zm0,4.217A1.108,1.108,0,1,0,1,2.108,1.11,1.11,0,0,0,2.108,3.217Z" transform="translate(-1603.012 96.575)" fill="#fff"></path><path d="M2.108-1A3.108,3.108,0,1,1-1,2.108,3.112,3.112,0,0,1,2.108-1Zm0,4.217A1.108,1.108,0,1,0,1,2.108,1.11,1.11,0,0,0,2.108,3.217Z" transform="translate(-1646.167 115.14)" fill="#fff"></path><path d="M4.082-1A5.082,5.082,0,1,1-1,4.082,5.088,5.088,0,0,1,4.082-1Zm0,8.164A3.082,3.082,0,1,0,1,4.082,3.086,3.086,0,0,0,4.082,7.164Z" transform="translate(-1654.847 102.571)" fill="#fff"></path><path d="M4.082-1A5.082,5.082,0,1,1-1,4.082,5.088,5.088,0,0,1,4.082-1Zm0,8.164A3.082,3.082,0,1,0,1,4.082,3.086,3.086,0,0,0,4.082,7.164Z" transform="translate(-1607.61 71.08)" fill="#fff"></path><path d="M4.082-1A5.082,5.082,0,1,1-1,4.082,5.088,5.088,0,0,1,4.082-1Zm0,8.164A3.082,3.082,0,1,0,1,4.082,3.086,3.086,0,0,0,4.082,7.164Z" transform="translate(-1604.986 109.569)" fill="#fff"></path><path d="M-1646.461,104.829l-1.151-1.636.693-.487a8.6,8.6,0,0,1,4.856-1.574l2.361-.032a13.5,13.5,0,0,0,4.293-.762l14.88-5.215a1.6,1.6,0,0,0,1.068-1.506V86.2h13.374v2h-11.374v5.421a3.6,3.6,0,0,1-2.407,3.393l-14.88,5.215a15.5,15.5,0,0,1-4.928.874l-2.361.032a6.613,6.613,0,0,0-3.732,1.21Z" transform="translate(0.256 0.699)" fill="#fff"></path><path d="M-1616.483,81.573h-2V79.514a5.67,5.67,0,0,1,1.8-4.133,5.631,5.631,0,0,1,3.848-1.514h4v2h-4a3.637,3.637,0,0,0-2.485.978,3.663,3.663,0,0,0-1.162,2.67Z" transform="translate(1.222 0.295)" fill="#fff"></path><path d="M-1637.817,98.264l-5.97-.1.034-2,5.364.092,15.906-10.232V73.738h2V87.113Z" transform="translate(0.362 0.259)" fill="#fff"></path><path d="M-1613.112,93.788h-11.265l-4.309-10.509-.129-4.426a3.4,3.4,0,0,0-1.608-2.8l-2.365-1.472,1.057-1.7,2.365,1.472a5.4,5.4,0,0,1,2.55,4.435l.119,4.063,3.662,8.931h9.924Z" transform="translate(0.739 0.258)" fill="#fff"></path><path d="M-1629.211,114.858l-2-.013.188-28.263-9.447-.134a6.974,6.974,0,0,1-5.832-3.282l-1.862-2.968,1.694-1.063,1.862,2.968a4.982,4.982,0,0,0,4.166,2.345l11.432.162Z" transform="translate(0.246 0.452)" fill="#fff"></path><path d="M-1619.965,117.131l-4.2-3.993.077-8.271a3.914,3.914,0,0,0-1.645-3.225l-13.784-9.8h-5.275a4.661,4.661,0,0,1-2.951-1.056l-1.712-1.407,1.27-1.545,1.712,1.407a2.656,2.656,0,0,0,1.682.6h5.913l14.3,10.168a5.915,5.915,0,0,1,2.486,4.874l-.069,7.4,3.573,3.394Z" transform="translate(0.197 0.745)" fill="#fff"></path><path d="M-1642.134,115.427l-.956-1.757,6.073-3.3-.083-3.569,2-.046.111,4.789Z" transform="translate(0.4 1.339)" fill="#fff"></path><path d="M-1618.741,106.488h-2a10.13,10.13,0,0,1,7.5-9.773l.265-.072h8.813v2h-8.546l-.011,0A8.129,8.129,0,0,0-1618.741,106.488Z" transform="translate(1.148 1.04)" fill="#fff"></path><path d="M-1605.01,108.85l-1.974-4.377-6.653-.089.027-2,7.926.106,2.5,5.537Z" transform="translate(1.348 1.228)" fill="#fff"></path></g></g></svg>