<svg xmlns="http://www.w3.org/2000/svg" width="201.859" height="172.754" viewBox="0 0 201.859 172.754">
  <g id="Group_2165" data-name="Group 2165" transform="translate(1.5 1.5)">
    <path id="Path_263" data-name="Path 263" d="M221.257,325.045H208.532a2.513,2.513,0,0,1-2.5-2.523V183.3a5.043,5.043,0,0,0-5.007-5.068H60.442a5.054,5.054,0,0,0-5.024,5.068V325.045a5.05,5.05,0,0,0,5.024,5.068H198.5a2.52,2.52,0,0,1,2.523,2.534v12.826a2.5,2.5,0,0,0,2.49,2.517h17.744a2.512,2.512,0,0,0,2.517-2.517V327.579a2.526,2.526,0,0,0-2.517-2.534" transform="translate(-55.418 -178.236)" fill="none" stroke="#8fc740" stroke-width="3"/>
    <rect id="Rectangle_384" data-name="Rectangle 384" width="68" height="76" transform="translate(125.359 46.877)" fill="#f0f5e7"/>
    <text id="_84_" data-name="84%" transform="translate(18.359 109.877)" fill="#8fc740" font-size="100" font-family="FrutigerLTStd-Bold, Frutiger LT Std" font-weight="700"><tspan x="0" y="0">84</tspan><tspan y="0" font-size="70">%</tspan></text>
  </g>
</svg>
