<svg xmlns="http://www.w3.org/2000/svg" width="60.162" height="60.162" viewBox="0 0 60.162 60.162"><path d="M114.681,230.266h-4.548a.894.894,0,0,1-.894-.894v-49.34a1.8,1.8,0,0,0-1.789-1.8H57.213a1.8,1.8,0,0,0-1.8,1.8v50.234a1.8,1.8,0,0,0,1.8,1.8h49.335a.9.9,0,0,1,.9.9v4.545a.888.888,0,0,0,.89.892h6.341a.894.894,0,0,0,.9-.892v-6.342a.9.9,0,0,0-.9-.9" transform="translate(-55.418 -178.236)" fill="#758cc5"></path><g transform="translate(6.967 8.814)"><g transform="translate(6.65 0)"><circle cx="5.797" cy="5.797" r="5.797" fill="none" stroke="#fff" stroke-miterlimit="10" stroke-width="1.5"></circle><g transform="translate(3.353 3.353)"><line y2="2.444" transform="translate(1.251)" fill="none" stroke="#fff" stroke-miterlimit="10" stroke-width="1.5"></line><line y2="2.444" transform="translate(3.808)" fill="none" stroke="#fff" stroke-miterlimit="10" stroke-width="1.5"></line><path d="M-1891.37,1110.176a2.444,2.444,0,0,1-2.444,2.444,2.444,2.444,0,0,1-2.444-2.444" transform="translate(1896.258 -1107.22)" fill="none" stroke="#fff" stroke-miterlimit="10" stroke-width="1.5"></path></g></g><g transform="translate(0 12.163)"><circle cx="5.797" cy="5.797" r="5.797" fill="none" stroke="#fff" stroke-miterlimit="10" stroke-width="1.5"></circle><g transform="translate(3.353 3.353)"><line y2="2.444" transform="translate(1.25)" fill="none" stroke="#fff" stroke-miterlimit="10" stroke-width="1.5"></line><line y2="2.444" transform="translate(3.808)" fill="none" stroke="#fff" stroke-miterlimit="10" stroke-width="1.5"></line><path d="M-1899.871,1125.725a2.444,2.444,0,0,1-2.444,2.444,2.444,2.444,0,0,1-2.444-2.444" transform="translate(1904.759 -1122.77)" fill="none" stroke="#fff" stroke-miterlimit="10" stroke-width="1.5"></path></g></g><g transform="translate(13.47 12.163)"><circle cx="5.797" cy="5.797" r="5.797" fill="none" stroke="#fff" stroke-miterlimit="10" stroke-width="1.5"></circle><g transform="translate(3.354 3.353)"><line y2="2.444" transform="translate(1.25)" fill="none" stroke="#fff" stroke-miterlimit="10" stroke-width="1.5"></line><line y2="2.444" transform="translate(3.808)" fill="none" stroke="#fff" stroke-miterlimit="10" stroke-width="1.5"></line><path d="M-1882.65,1125.725a2.444,2.444,0,0,1-2.444,2.444,2.444,2.444,0,0,1-2.444-2.444" transform="translate(1887.538 -1122.77)" fill="none" stroke="#fff" stroke-miterlimit="10" stroke-width="1.5"></path></g></g><g transform="translate(27.338 12.163)"><circle cx="5.797" cy="5.797" r="5.797" fill="none" stroke="#fff" stroke-miterlimit="10" stroke-width="1.5"></circle><g transform="translate(3.353 3.353)"><line y2="2.444" transform="translate(1.251)" fill="none" stroke="#fff" stroke-miterlimit="10" stroke-width="1.5"></line><line y2="2.444" transform="translate(3.808)" fill="none" stroke="#fff" stroke-miterlimit="10" stroke-width="1.5"></line><path d="M-1864.921,1125.725a2.444,2.444,0,0,1-2.444,2.444,2.444,2.444,0,0,1-2.444-2.444" transform="translate(1869.809 -1122.77)" fill="none" stroke="#fff" stroke-miterlimit="10" stroke-width="1.5"></path></g></g><g transform="translate(20.461 0)"><circle cx="5.797" cy="5.797" r="5.797" fill="none" stroke="#fff" stroke-miterlimit="10" stroke-width="1.5"></circle><g transform="translate(3.353 3.353)"><line y2="2.444" transform="translate(1.25)" fill="none" stroke="#fff" stroke-miterlimit="10" stroke-width="1.5"></line><line y2="2.444" transform="translate(3.808)" fill="none" stroke="#fff" stroke-miterlimit="10" stroke-width="1.5"></line><path d="M-1873.713,1110.176a2.444,2.444,0,0,1-2.443,2.444,2.444,2.444,0,0,1-2.444-2.444" transform="translate(1878.601 -1107.22)" fill="none" stroke="#fff" stroke-miterlimit="10" stroke-width="1.5"></path></g></g><g transform="translate(6.65 23.985)"><circle cx="5.797" cy="5.797" r="5.797" fill="none" stroke="#fff" stroke-miterlimit="10" stroke-width="1.5"></circle><g transform="translate(3.353 3.353)"><line y2="2.444" transform="translate(1.251)" fill="none" stroke="#fff" stroke-miterlimit="10" stroke-width="1.5"></line><line y2="2.444" transform="translate(3.808)" fill="none" stroke="#fff" stroke-miterlimit="10" stroke-width="1.5"></line><path d="M-1891.37,1140.839a2.443,2.443,0,0,1-2.444,2.444,2.444,2.444,0,0,1-2.444-2.444" transform="translate(1896.258 -1137.884)" fill="none" stroke="#fff" stroke-miterlimit="10" stroke-width="1.5"></path></g></g><g transform="translate(20.461 23.985)"><circle cx="5.797" cy="5.797" r="5.797" fill="none" stroke="#fff" stroke-miterlimit="10" stroke-width="1.5"></circle><g transform="translate(3.353 3.353)"><line y2="2.444" transform="translate(1.25)" fill="none" stroke="#fff" stroke-miterlimit="10" stroke-width="1.5"></line><line y2="2.444" transform="translate(3.808)" fill="none" stroke="#fff" stroke-miterlimit="10" stroke-width="1.5"></line><path d="M-1873.713,1140.839a2.443,2.443,0,0,1-2.443,2.444,2.443,2.443,0,0,1-2.444-2.444" transform="translate(1878.601 -1137.884)" fill="none" stroke="#fff" stroke-miterlimit="10" stroke-width="1.5"></path></g></g></g></svg>