<svg xmlns="http://www.w3.org/2000/svg" width="111" height="111" viewBox="0 0 111 111"><g transform="translate(0 -1069)"><path d="M164.758,274.233h-8.39a1.65,1.65,0,0,1-1.649-1.65V181.55a3.311,3.311,0,0,0-3.3-3.314H58.73a3.318,3.318,0,0,0-3.312,3.314v92.683a3.316,3.316,0,0,0,3.312,3.314h91.024a1.655,1.655,0,0,1,1.663,1.657v8.386a1.639,1.639,0,0,0,1.642,1.646h11.7a1.649,1.649,0,0,0,1.66-1.646v-11.7a1.659,1.659,0,0,0-1.66-1.657" transform="translate(-55.418 890.764)" fill="#768ec7"></path><g transform="translate(21.384 1093.356)"><path d="M-1765.768,1092.9h-35.507a1.525,1.525,0,0,1-1.523-1.523v-43.107a1.525,1.525,0,0,1,1.523-1.523h56.45a1.525,1.525,0,0,1,1.523,1.523v23.115a1,1,0,0,1-1,1,1,1,0,0,1-1-1v-22.638h-55.5V1090.9h35.03a1,1,0,0,1,1,1A1,1,0,0,1-1765.768,1092.9Z" transform="translate(1801.798 -1044.671)" fill="#fff"></path><path d="M56.827,1H0V-1H56.827Z" transform="translate(0.238 13.045)" fill="#fff"></path><path d="M27.421,1H0V-1H27.421Z" transform="translate(7.114 32.626)" fill="#fff"></path><path d="M0,9.727a1,1,0,0,1-1-1V0A1,1,0,0,1,0-1,1,1,0,0,1,1,0V8.727A1,1,0,0,1,0,9.727Z" transform="translate(7.847)" fill="#fff"></path><path d="M1,21.96H-1V0H1Z" transform="translate(14.814 18.208)" fill="#fff"></path><path d="M1,21.96H-1V0H1Z" transform="translate(21.708 18.208)" fill="#fff"></path><path d="M1,21.96H-1V0H1Z" transform="translate(28.528 18.208)" fill="#fff"></path><path d="M-1796.72,1081.749a1.359,1.359,0,0,1-1.357-1.357v-21.947a1.359,1.359,0,0,1,1.357-1.359h43.176a1.36,1.36,0,0,1,1.359,1.359v8.519H-1767.4v14.783Zm.643-14.787v12.787l26.673,0v-12.783Zm28.673-2h13.219v-5.877H-1767.4Zm-28.673,0h26.673v-5.877h-26.673Z" transform="translate(1803.825 -1040.231)" fill="#fff"></path><path d="M1,8.257H-1V0H1Z" transform="translate(42.536 18.206)" fill="#fff"></path><path d="M0,9.727a1,1,0,0,1-1-1V0A1,1,0,0,1,0-1,1,1,0,0,1,1,0V8.727A1,1,0,0,1,0,9.727Z" transform="translate(49.355)" fill="#fff"></path><path d="M10.508-1A11.508,11.508,0,0,1,22.016,10.508,11.508,11.508,0,0,1,10.508,22.016,11.508,11.508,0,0,1-1,10.508,11.508,11.508,0,0,1,10.508-1Zm0,21.016A9.508,9.508,0,1,0,1,10.508,9.519,9.519,0,0,0,10.508,20.016Z" transform="translate(39.976 30.16)" fill="#fff"></path><path d="M-1761.244,1078.246h0l-5.863-.017a1.1,1.1,0,0,1-1.1-1.1v-6a1,1,0,0,1,1-1,1,1,0,0,1,1,1v5.1l4.965.015a1,1,0,0,1,1,1A1,1,0,0,1-1761.244,1078.246Z" transform="translate(1816.651 -1034.63)" fill="#fff"></path></g></g></svg>