<svg xmlns="http://www.w3.org/2000/svg" width="111" height="111" viewBox="0 0 111 111"><g transform="translate(0 -1069)"><path d="M164.758,274.233h-8.39a1.65,1.65,0,0,1-1.649-1.65V181.55a3.311,3.311,0,0,0-3.3-3.314H58.73a3.318,3.318,0,0,0-3.312,3.314v92.683a3.316,3.316,0,0,0,3.312,3.314h91.024a1.655,1.655,0,0,1,1.663,1.657v8.386a1.639,1.639,0,0,0,1.642,1.646h11.7a1.649,1.649,0,0,0,1.66-1.646v-11.7a1.659,1.659,0,0,0-1.66-1.657" transform="translate(-55.418 890.764)" fill="#768ec7"></path><g transform="translate(20.473 1082.815)"><path d="M-1653.955,1043.81a19.458,19.458,0,0,1,2.133.118,18.675,18.675,0,0,1,11.006,5.283,18.636,18.636,0,0,1,5.414,10.939,18.934,18.934,0,0,1-1.177,9.276,18.778,18.778,0,0,1-5.174,7.249,7.8,7.8,0,0,0-2.7,4.768l-.591,4.171a3.244,3.244,0,0,1-3.2,2.774h-12.006a3.243,3.243,0,0,1-3.2-2.784l-.653-4.721a7.642,7.642,0,0,0-2.453-4.569,18.538,18.538,0,0,1-4.453-6.133,18.567,18.567,0,0,1-1.642-7.677,18.587,18.587,0,0,1,1.469-7.279,18.625,18.625,0,0,1,4.005-5.943,18.628,18.628,0,0,1,5.942-4.006A18.587,18.587,0,0,1-1653.955,1043.81Zm5.71,42.58a1.235,1.235,0,0,0,1.217-1.055l.591-4.17a9.8,9.8,0,0,1,3.38-6,16.77,16.77,0,0,0,4.621-6.474,16.7,16.7,0,0,0,1.05-8.294,16.745,16.745,0,0,0-14.656-14.477,17.448,17.448,0,0,0-1.912-.106,16.586,16.586,0,0,0-11.806,4.889,16.588,16.588,0,0,0-4.889,11.807,16.58,16.58,0,0,0,1.465,6.856,16.553,16.553,0,0,0,3.976,5.475,9.646,9.646,0,0,1,3.088,5.773l.653,4.72a1.234,1.234,0,0,0,1.217,1.059Z" transform="translate(1682.708 -1033.86)" fill="#fff"></path><path d="M-1-1H13.889V6.459a3.987,3.987,0,0,1-3.983,3.983H2.983A3.987,3.987,0,0,1-1,6.459ZM11.889,1H1V6.459A1.985,1.985,0,0,0,2.983,8.442H9.906a1.985,1.985,0,0,0,1.983-1.983Z" transform="translate(21.86 54.275)" fill="#fff"></path><path d="M7.612,1H0A1,1,0,0,1-1,0,1,1,0,0,1,0-1H7.612a1,1,0,0,1,1,1A1,1,0,0,1,7.612,1Z" transform="translate(26.506 58.921)" fill="#fff"></path><path d="M5.014,4.8a1,1,0,0,1-.6-.2L-.6.8A1,1,0,0,1-.8-.6,1,1,0,0,1,.6-.8l5.015,3.8a1,1,0,0,1-.605,1.8Z" transform="translate(4.428 14.42)" fill="#fff"></path><path d="M6.295,1H0A1,1,0,0,1-1,0,1,1,0,0,1,0-1H6.295a1,1,0,0,1,1,1A1,1,0,0,1,6.295,1Z" transform="translate(0 31.363)" fill="#fff"></path><path d="M6.295,1H0A1,1,0,0,1-1,0,1,1,0,0,1,0-1H6.295a1,1,0,0,1,1,1A1,1,0,0,1,6.295,1Z" transform="translate(51.405 31.363)" fill="#fff"></path><path d="M0,5.451a1,1,0,0,1-.707-.293,1,1,0,0,1,0-1.414L3.744-.707a1,1,0,0,1,1.414,0,1,1,0,0,1,0,1.414L.707,5.158A1,1,0,0,1,0,5.451Z" transform="translate(7.007 46.052)" fill="#fff"></path><path d="M0,4.658A1,1,0,0,1-.814,4.24,1,1,0,0,1-.581,2.845L4.541-.814a1,1,0,0,1,1.395.233A1,1,0,0,1,5.7.814L.581,4.472A1,1,0,0,1,0,4.658Z" transform="translate(47.699 14.824)" fill="#fff"></path><path d="M4.722,5.162a1,1,0,0,1-.661-.25L-.661.75A1,1,0,0,1-.75-.661,1,1,0,0,1,.661-.75L5.383,3.412a1,1,0,0,1-.662,1.75Z" transform="translate(45.589 45.671)" fill="#fff"></path><path d="M0,8.147a1,1,0,0,1-1-1V0A1,1,0,0,1,0-1,1,1,0,0,1,1,0V7.147A1,1,0,0,1,0,8.147Z" transform="translate(29.033)" fill="#fff"></path><path d="M-1666.683,1061.2a1,1,0,0,1-1-1,10.826,10.826,0,0,1,3.192-7.705,10.825,10.825,0,0,1,7.705-3.192,1,1,0,0,1,1,1,1,1,0,0,1-1,1,8.907,8.907,0,0,0-8.9,8.9A1,1,0,0,1-1666.683,1061.2Z" transform="translate(1684.995 -1031.333)" fill="#fff"></path></g></g></svg>