<svg xmlns="http://www.w3.org/2000/svg" width="60.162" height="60.162" viewBox="0 0 60.162 60.162"><path d="M114.681,230.266h-4.548a.894.894,0,0,1-.894-.894v-49.34a1.8,1.8,0,0,0-1.789-1.8H57.213a1.8,1.8,0,0,0-1.8,1.8v50.234a1.8,1.8,0,0,0,1.8,1.8h49.335a.9.9,0,0,1,.9.9v4.545a.888.888,0,0,0,.89.892h6.341a.894.894,0,0,0,.9-.892v-6.342a.9.9,0,0,0-.9-.9" transform="translate(-55.418 -178.236)" fill="#758cc5"></path><g transform="translate(10.281 8.853)"><path d="M-1797.438,1103.927h6.933V1116.1" transform="translate(1817.013 -1102.47)" fill="none" stroke="#fff" stroke-miterlimit="10" stroke-width="1.5"></path><path d="M-1800,1137.193h-21.847v-33.267h7.166" transform="translate(1821.852 -1102.47)" fill="none" stroke="#fff" stroke-miterlimit="10" stroke-width="1.5"></path><path d="M-1799.387,1134.927h-18.469v-27.149h20.1v9.205" transform="translate(1821.06 -1103.234)" fill="none" stroke="#fff" stroke-miterlimit="10" stroke-width="1.5"></path><line x2="5.593" transform="translate(16.138 7.807)" fill="none" stroke="#fff" stroke-miterlimit="10" stroke-width="1.5"></line><path d="M-1812.188,1106.188v-4.078h11.361v4.078" transform="translate(1819.937 -1102.11)" fill="none" stroke="#fff" stroke-miterlimit="10" stroke-width="1.5"></path><line x2="5.593" transform="translate(5.302 25.809)" fill="none" stroke="#fff" stroke-miterlimit="10" stroke-width="1.5"></line><line x2="5.593" transform="translate(5.302 28.547)" fill="none" stroke="#fff" stroke-miterlimit="10" stroke-width="1.5"></line><path d="M-1811.316,1122.785l3.612,3.379,7.923-7.632" transform="translate(1819.764 -1105.365)" fill="none" stroke="#fff" stroke-miterlimit="10" stroke-width="1.5"></path><path d="M-1793.151,1145.994v-4.719h12.541v4.719" transform="translate(1816.163 -1109.873)" fill="none" stroke="#fff" stroke-miterlimit="10" stroke-width="1.5"></path><line x2="4.37" transform="translate(16.954 19.051)" fill="none" stroke="#fff" stroke-miterlimit="10" stroke-width="1.5"></line><path d="M-1795.36,1125.161l1.286-3.647a1.117,1.117,0,0,1,1.05-.739h.745l5.3.005a4.425,4.425,0,0,1,4.426,4.426v12.3h-10.022v-3.764l-4.166-6.314a1.461,1.461,0,0,1,.414-2.037,1.428,1.428,0,0,1,.805-.241,1.478,1.478,0,0,1,1.232.656l.86,1.3a.466.466,0,0,0,.855-.257v-3.736" transform="translate(1816.923 -1105.809)" fill="none" stroke="#fff" stroke-miterlimit="10" stroke-width="1.5"></path></g></svg>