<svg id="Ricoh_cisco_meraki_logo" xmlns="http://www.w3.org/2000/svg" xmlns:xlink="http://www.w3.org/1999/xlink" width="216.369" height="60.675" viewBox="0 0 216.369 60.675">
  <defs>
    <clipPath id="clip-path">
      <rect id="Rectangle_772" data-name="Rectangle 772" width="216.369" height="60.675" fill="none"/>
    </clipPath>
  </defs>
  <g id="Group_2966" data-name="Group 2966" clip-path="url(#clip-path)">
    <path id="Path_2311" data-name="Path 2311" d="M208.672,0H7.7A7.709,7.709,0,0,0,0,7.7V49.218a7.709,7.709,0,0,0,7.7,7.7h19.18V55.109H7.7a5.9,5.9,0,0,1-5.89-5.89V7.7A5.9,5.9,0,0,1,7.7,1.807H208.672a5.9,5.9,0,0,1,5.89,5.89V49.218a5.9,5.9,0,0,1-5.89,5.89h-19.18v1.807h19.18a7.709,7.709,0,0,0,7.7-7.7V7.7a7.709,7.709,0,0,0-7.7-7.7" fill="#fff"/>
    <path id="Path_2312" data-name="Path 2312" d="M78.971,113.023h5.258v1.491H80.868v2.331h3.2v1.491h-3.2v4.146h-1.9Z" transform="translate(-43.299 -61.969)" fill="#fff"/>
    <path id="Path_2313" data-name="Path 2313" d="M98.785,112.664c2.968,0,4.635,2.005,4.635,4.864s-1.64,4.919-4.635,4.919c-3.035,0-4.634-2.019-4.634-4.919s1.626-4.864,4.634-4.864m0,8.293c1.938,0,2.656-1.721,2.656-3.428,0-1.667-.772-3.374-2.656-3.374s-2.656,1.707-2.656,3.374c0,1.707.719,3.428,2.656,3.428" transform="translate(-51.622 -61.773)" fill="#fff"/>
    <path id="Path_2314" data-name="Path 2314" d="M119.351,113.024H121.4c2.033,0,4.458-.068,4.458,2.561a2.164,2.164,0,0,1-1.951,2.2v.027c.515.041.813.556,1,.976l1.518,3.7H124.31l-1.138-2.954c-.271-.7-.515-.975-1.314-.975h-.61v3.929h-1.9Zm1.9,4.038h.623c.935,0,2.005-.136,2.005-1.314,0-1.139-1.057-1.234-2.005-1.234h-.623Z" transform="translate(-65.439 -61.97)" fill="#fff"/>
    <path id="Path_2315" data-name="Path 2315" d="M136.57,113.023h1.992l1.762,7.561h.027l1.613-7.561h2.575l1.666,7.561h.028l1.775-7.561h1.843l-2.466,9.458h-2.439l-1.707-7.561h-.027l-1.68,7.561h-2.453Z" transform="translate(-74.88 -61.969)" fill="#fff"/>
    <path id="Path_2316" data-name="Path 2316" d="M170.317,113.023h2.141l3.713,9.458h-2.1l-.813-2.168h-3.835l-.827,2.168h-1.965Zm1.043,1.9h-.027l-1.369,3.9h2.764Z" transform="translate(-91.362 -61.969)" fill="#fff"/>
    <path id="Path_2317" data-name="Path 2317" d="M191.291,113.024h2.046c2.033,0,4.458-.068,4.458,2.561a2.165,2.165,0,0,1-1.951,2.2v.027c.515.041.813.556,1,.976l1.517,3.7H196.25l-1.138-2.954c-.271-.7-.515-.975-1.314-.975h-.61v3.929h-1.9Zm1.9,4.038h.624c.935,0,2.005-.136,2.005-1.314,0-1.139-1.057-1.234-2.005-1.234h-.624Z" transform="translate(-104.883 -61.97)" fill="#fff"/>
    <path id="Path_2318" data-name="Path 2318" d="M211.181,113.023h2.588c2.9,0,5.461.976,5.461,4.729s-2.561,4.729-5.461,4.729h-2.588Zm1.9,7.968h1.057a3.241,3.241,0,0,0,0-6.478h-1.057Z" transform="translate(-115.788 -61.969)" fill="#fff"/>
    <path id="Path_2319" data-name="Path 2319" d="M244.1,114.514h-2.71v-1.491h7.317v1.491H246v7.968h-1.9Z" transform="translate(-132.352 -61.969)" fill="#fff"/>
    <path id="Path_2320" data-name="Path 2320" d="M265.074,112.664c2.968,0,4.635,2.005,4.635,4.864s-1.64,4.919-4.635,4.919c-3.035,0-4.634-2.019-4.634-4.919s1.626-4.864,4.634-4.864m0,8.293c1.938,0,2.656-1.721,2.656-3.428,0-1.667-.772-3.374-2.656-3.374s-2.656,1.707-2.656,3.374c0,1.707.719,3.428,2.656,3.428" transform="translate(-142.797 -61.773)" fill="#fff"/>
    <path id="Path_2321" data-name="Path 2321" d="M292.827,114.656a6.19,6.19,0,0,0-2.439-.5,3.22,3.22,0,0,0-3.428,3.428,3.116,3.116,0,0,0,3.212,3.374,5.109,5.109,0,0,0,1.247-.136v-2.466h-2.006v-1.49h3.821v5.095a11.926,11.926,0,0,1-3.062.488c-3.063,0-5.19-1.532-5.19-4.729,0-3.239,1.978-5.054,5.19-5.054a9.338,9.338,0,0,1,2.778.393Z" transform="translate(-156.252 -61.773)" fill="#fff"/>
    <path id="Path_2322" data-name="Path 2322" d="M308.859,113.023h5.583v1.491h-3.685v2.331h3.374v1.491h-3.374v2.656h3.713v1.49h-5.61Z" transform="translate(-169.344 -61.969)" fill="#fff"/>
    <path id="Path_2323" data-name="Path 2323" d="M327.26,114.514h-2.71v-1.491h7.317v1.491h-2.71v7.968h-1.9Z" transform="translate(-177.947 -61.969)" fill="#fff"/>
    <path id="Path_2324" data-name="Path 2324" d="M344.619,113.023h1.9v3.821h3.794v-3.821h1.9v9.458h-1.9v-4.146h-3.794v4.146h-1.9Z" transform="translate(-188.951 -61.969)" fill="#fff"/>
    <path id="Path_2325" data-name="Path 2325" d="M367.479,113.023h5.583v1.491h-3.686v2.331h3.374v1.491h-3.374v2.656h3.713v1.49h-5.61Z" transform="translate(-201.485 -61.969)" fill="#fff"/>
    <path id="Path_2326" data-name="Path 2326" d="M385,113.024h2.046c2.033,0,4.458-.068,4.458,2.561a2.165,2.165,0,0,1-1.951,2.2v.027c.515.041.813.556,1,.976l1.517,3.7h-2.114l-1.138-2.954c-.271-.7-.515-.975-1.314-.975h-.61v3.929H385Zm1.9,4.038h.624c.935,0,2.005-.136,2.005-1.314,0-1.139-1.057-1.234-2.005-1.234H386.9Z" transform="translate(-211.091 -61.97)" fill="#fff"/>
    <path id="Path_2327" data-name="Path 2327" d="M123.741,48.045c0,3.11,2.3,5.407,6.154,5.407a10.813,10.813,0,0,0,4.738-.993l1.444,1.963a13.48,13.48,0,0,1-6.857,1.607c-6.143,0-10.658-2.959-10.658-7.982v0c0-5.022,4.515-7.979,10.658-7.979a15.088,15.088,0,0,1,6.712,1.319l-1.477,2.259a8.956,8.956,0,0,0-4.56-1.006c-3.851,0-6.154,2.293-6.154,5.4" transform="translate(-65.007 -21.968)" fill="#fff"/>
    <path id="Path_2328" data-name="Path 2328" d="M169.485,53.538c-3.27,0-5.076-2.457-5.076-5.5s1.805-5.5,5.076-5.5,5.079,2.459,5.079,5.5-1.808,5.5-5.079,5.5m0-13.483c-5.946,0-10.235,2.961-10.235,7.984s4.289,7.983,10.235,7.983,10.238-2.959,10.238-7.983-4.289-7.984-10.238-7.984" transform="translate(-87.315 -21.962)" fill="#fff"/>
    <path id="Path_2329" data-name="Path 2329" d="M223.727,49.681V56.1h4.915V40.943h-4.915v5.783h-7.512V40.943h-4.9V56.1h4.9V49.681Z" transform="translate(-115.86 -22.449)" fill="#fff"/>
    <rect id="Rectangle_770" data-name="Rectangle 770" width="5.176" height="15.162" transform="translate(45.418 18.494)" fill="#fff"/>
    <path id="Path_2330" data-name="Path 2330" d="M60.078,47.451V48.9a38.691,38.691,0,0,1,6.732,6.772H72.6a37.109,37.109,0,0,0-7.386-6.6c2.674-.109,5.653-1.193,5.653-4.262,0-3.935-4.208-4.658-8.461-4.658-3.475,0-6.677.16-8.6.318v15.2h4.834V42.761a30.278,30.278,0,0,1,3.786-.2c2.488,0,3.749.823,3.749,2.256,0,1.225-.522,2.693-6.1,2.639" transform="translate(-29.504 -22.016)" fill="#fff"/>
    <path id="Path_2331" data-name="Path 2331" d="M278.574,55.908a.9.9,0,0,1-.9-.9V39.775a.9.9,0,1,1,1.807,0V55a.9.9,0,0,1-.9.9" transform="translate(-152.244 -21.313)" fill="#fff"/>
    <rect id="Rectangle_771" data-name="Rectangle 771" width="1.567" height="6.28" transform="translate(147.22 14.674)" fill="#fff"/>
    <path id="Path_2332" data-name="Path 2332" d="M351.563,34.151a2.731,2.731,0,0,0-1.317-.335,1.676,1.676,0,1,0,0,3.352,2.734,2.734,0,0,0,1.317-.333v1.687a4.948,4.948,0,0,1-1.426.224,3.252,3.252,0,1,1,0-6.5,4.719,4.719,0,0,1,1.426.225Z" transform="translate(-190.165 -17.678)" fill="#fff"/>
    <path id="Path_2333" data-name="Path 2333" d="M315.422,34.151a2.693,2.693,0,0,0-1.314-.335,1.677,1.677,0,1,0,0,3.352,2.708,2.708,0,0,0,1.314-.333v1.687a4.918,4.918,0,0,1-1.429.224,3.252,3.252,0,1,1,0-6.5,4.67,4.67,0,0,1,1.429.225Z" transform="translate(-170.351 -17.678)" fill="#fff"/>
    <path id="Path_2334" data-name="Path 2334" d="M367.5,35.492a3.273,3.273,0,1,1-3.275-3.25,3.2,3.2,0,0,1,3.275,3.25m-3.275-1.651a1.652,1.652,0,1,0,1.618,1.651,1.611,1.611,0,0,0-1.618-1.651" transform="translate(-197.906 -17.678)" fill="#fff"/>
    <path id="Path_2335" data-name="Path 2335" d="M337.859,33.777a5.443,5.443,0,0,0-1.222-.189c-.627,0-.967.211-.967.515,0,.382.458.514.715.6l.434.138a1.886,1.886,0,0,1,1.478,1.8c0,1.576-1.37,2.108-2.566,2.108a9.416,9.416,0,0,1-1.688-.172V37.126a5.842,5.842,0,0,0,1.477.234c.776,0,1.136-.23,1.136-.589,0-.318-.308-.5-.7-.624-.093-.032-.234-.078-.335-.109a1.926,1.926,0,0,1-1.595-1.837c0-1.176.867-1.964,2.311-1.964a6.551,6.551,0,0,1,1.523.2Z" transform="translate(-183.143 -17.676)" fill="#fff"/>
    <path id="Path_2336" data-name="Path 2336" d="M317.168,66.26l-4.835-12.1v12.1h-1.016V52.8h1.532l4.891,12.341L322.353,52.8h1.478V66.26h-1v-12l-4.559,12Z" transform="translate(-170.692 -28.949)" fill="#fff"/>
    <path id="Path_2337" data-name="Path 2337" d="M344.769,65h6.643c-.128-2.488-1.513-3.719-3.3-3.719-1.753,0-3.156,1.287-3.34,3.719m7.512,2.8a3.885,3.885,0,0,1-3.987,2.935c-2.6,0-4.559-1.812-4.559-5.141s1.9-5.141,4.374-5.141c2.455,0,4.337,1.683,4.337,5.385h-7.7c.093,2.765,1.642,4.038,3.562,4.038a2.868,2.868,0,0,0,2.916-2.076Z" transform="translate(-188.466 -33.148)" fill="#fff"/>
    <path id="Path_2338" data-name="Path 2338" d="M368.176,70.46V60.737h.812l.148,1.87a2.788,2.788,0,0,1,2.694-2.15,3.39,3.39,0,0,1,1,.15V61.6a3.714,3.714,0,0,0-1.052-.169c-1.4,0-2.6,1.384-2.6,3.72V70.46Z" transform="translate(-201.867 -33.148)" fill="#fff"/>
    <path id="Path_2339" data-name="Path 2339" d="M387.206,67V65.187l-2.584.448c-2.289.393-2.953,1.123-2.953,2.283,0,1.307,1,1.962,2.437,1.962a3.035,3.035,0,0,0,3.1-2.879m-6.293-3.74c.146-1.662,1.606-2.8,3.728-2.8,2.141,0,3.561,1.215,3.561,3.2V70.46h-.812l-.147-1.607a3.766,3.766,0,0,1-3.4,1.886c-1.864,0-3.212-1.027-3.212-2.747,0-1.664,1-2.674,3.691-3.123l2.88-.486v-.842c0-1.4-.978-2.261-2.62-2.261a2.357,2.357,0,0,0-2.641,1.98Z" transform="translate(-208.698 -33.148)" fill="#fff"/>
    <path id="Path_2340" data-name="Path 2340" d="M403.041,66.26V52.8h1v7.7l4.6-3.962h1.347l-4.929,4.245,5.537,5.477h-1.346l-5.205-5.141V66.26Z" transform="translate(-220.983 -28.949)" fill="#fff"/>
    <path id="Path_2341" data-name="Path 2341" d="M422.625,56.538h1V66.26h-1Zm-.092-3.74h1.2V54.18h-1.2Z" transform="translate(-231.671 -28.949)" fill="#fff"/>
  </g>
</svg>
