<svg id="Icon_Replication" xmlns="http://www.w3.org/2000/svg" width="60.234" height="60.234" viewBox="0 0 60.234 60.234">
  <path id="Path_1004" data-name="Path 1004" d="M114.752,230.329H110.2a.9.9,0,0,1-.895-.9v-49.4a1.8,1.8,0,0,0-1.791-1.8h-50.3a1.8,1.8,0,0,0-1.8,1.8v50.294a1.8,1.8,0,0,0,1.8,1.8H106.61a.9.9,0,0,1,.9.9v4.551a.889.889,0,0,0,.891.893h6.348a.9.9,0,0,0,.9-.893v-6.349a.9.9,0,0,0-.9-.9" transform="translate(-55.418 -178.236)" fill="#cf142b"/>
  <g id="Group_2767" data-name="Group 2767">
    <g id="Group_2657" data-name="Group 2657" transform="translate(-2 -2.599)">
      <g id="Group_2637" data-name="Group 2637" transform="translate(13.304 10.989)">
        <g id="Group_2500" data-name="Group 2500" transform="translate(0)">
          <path id="Path_1515" data-name="Path 1515" d="M0,0V3.982H4.027Z" transform="translate(12.786 0)" fill="none" stroke="#fff" stroke-linecap="round" stroke-linejoin="round" stroke-miterlimit="10" stroke-width="1.5"/>
          <g id="Group_2499" data-name="Group 2499" transform="translate(0 0)">
            <path id="Path_1925" data-name="Path 1925" d="M14.08-.155H3.688v17.91H17.949V3.867Z" transform="translate(-3.688 2.972)" fill="#cf142b" stroke="#fff" stroke-linecap="round" stroke-linejoin="round" stroke-width="1.5"/>
            <path id="Path_1916" data-name="Path 1916" d="M14.08-.155H3.688v17.91H17.949V3.867Z" transform="translate(-1.137 0.155)" fill="#cf142b" stroke="#fff" stroke-linejoin="round" stroke-width="1.5"/>
            <path id="Path_1910" data-name="Path 1910" d="M0,0H7.043" transform="translate(6.161 14.459)" fill="none" stroke="#fff" stroke-linecap="round" stroke-linejoin="round" stroke-miterlimit="10" stroke-width="1.5"/>
            <path id="Path_1520" data-name="Path 1520" d="M0,0H7.043" transform="translate(6.161 10.955)" fill="none" stroke="#fff" stroke-linecap="round" stroke-linejoin="round" stroke-miterlimit="10" stroke-width="1.5"/>
            <path id="Path_1521" data-name="Path 1521" d="M0,0H5.052" transform="translate(6.161 7.452)" fill="none" stroke="#fff" stroke-linecap="round" stroke-linejoin="round" stroke-miterlimit="10" stroke-width="1.5"/>
            <path id="Path_1522" data-name="Path 1522" d="M0,0H3.323" transform="translate(6.161 3.948)" fill="none" stroke="#fff" stroke-linecap="round" stroke-linejoin="round" stroke-miterlimit="10" stroke-width="1.5"/>
          </g>
        </g>
      </g>
    </g>
    <g id="Group_2766" data-name="Group 2766" transform="translate(13 13.401)">
      <g id="Group_2637-2" data-name="Group 2637" transform="translate(13.304 10.989)">
        <g id="Group_2500-2" data-name="Group 2500" transform="translate(0)">
          <path id="Path_1515-2" data-name="Path 1515" d="M0,0V3.982H4.027Z" transform="translate(12.786 0)" fill="none" stroke="#fff" stroke-linecap="round" stroke-linejoin="round" stroke-miterlimit="10" stroke-width="1.5"/>
          <g id="Group_2499-2" data-name="Group 2499" transform="translate(0 0)">
            <path id="Path_1925-2" data-name="Path 1925" d="M14.08-.155H3.688v17.91H17.949V3.867Z" transform="translate(-3.688 2.972)" fill="#cf142b" stroke="#fff" stroke-linecap="round" stroke-linejoin="round" stroke-width="1.5"/>
            <path id="Path_1916-2" data-name="Path 1916" d="M14.08-.155H3.688v17.91H17.949V3.867Z" transform="translate(-1.137 0.155)" fill="#cf142b" stroke="#fff" stroke-linecap="round" stroke-linejoin="round" stroke-width="1.5"/>
            <path id="Path_1910-2" data-name="Path 1910" d="M0,0H7.043" transform="translate(6.161 14.459)" fill="none" stroke="#fff" stroke-linecap="round" stroke-linejoin="round" stroke-miterlimit="10" stroke-width="1.5"/>
            <path id="Path_1520-2" data-name="Path 1520" d="M0,0H7.043" transform="translate(6.161 10.955)" fill="none" stroke="#fff" stroke-linecap="round" stroke-linejoin="round" stroke-miterlimit="10" stroke-width="1.5"/>
            <path id="Path_1521-2" data-name="Path 1521" d="M0,0H5.052" transform="translate(6.161 7.452)" fill="none" stroke="#fff" stroke-linecap="round" stroke-linejoin="round" stroke-miterlimit="10" stroke-width="1.5"/>
            <path id="Path_1522-2" data-name="Path 1522" d="M0,0H3.323" transform="translate(6.161 3.948)" fill="none" stroke="#fff" stroke-linecap="round" stroke-linejoin="round" stroke-miterlimit="10" stroke-width="1.5"/>
          </g>
        </g>
      </g>
    </g>
    <path id="Path_1943" data-name="Path 1943" d="M28.117,18.464h8.374v4.422" transform="translate(0 -2.533)" fill="none" stroke="#fff" stroke-linejoin="round" stroke-width="1.5"/>
    <path id="Path_1944" data-name="Path 1944" d="M36.491,22.886H28.117V17.666" transform="translate(-10 16.289)" fill="none" stroke="#fff" stroke-linejoin="round" stroke-width="1.5"/>
    <path id="Path_1945" data-name="Path 1945" d="M444,1607.11l.019.534,2.632-.089-.1,2.634.535.018.123-3.207Z" transform="translate(1489.035 841.673) rotate(135)" fill="#fff" stroke="#fff" stroke-linejoin="round" stroke-miterlimit="8" stroke-width="0.7" fill-rule="evenodd"/>
    <path id="Path_1946" data-name="Path 1946" d="M0,.11.019.644,2.65.554l-.1,2.634.535.018L3.206,0Z" transform="translate(15.85 35.307) rotate(-45)" fill="none" stroke="#fff" stroke-linejoin="round" stroke-miterlimit="8" stroke-width="0.7" fill-rule="evenodd"/>
  </g>
</svg>
