<svg xmlns="http://www.w3.org/2000/svg" width="60.234" height="60.234" viewBox="0 0 60.234 60.234">
  <g id="Group_1448" data-name="Group 1448" transform="translate(-851.266 -2563.766)">
    <path id="Path_1004" data-name="Path 1004" d="M114.752,230.329H110.2a.9.9,0,0,1-.895-.9v-49.4a1.8,1.8,0,0,0-1.791-1.8h-50.3a1.8,1.8,0,0,0-1.8,1.8v50.294a1.8,1.8,0,0,0,1.8,1.8H106.61a.9.9,0,0,1,.9.9v4.551a.889.889,0,0,0,.891.893h6.348a.9.9,0,0,0,.9-.893v-6.349a.9.9,0,0,0-.9-.9" transform="translate(795.848 2385.53)" fill="#758cc5"/>
    <g id="Group_2119" data-name="Group 2119" transform="translate(861.232 2574.305)">
      <path id="Path_1567" data-name="Path 1567" d="M741.372,366.3l-.3.175h-4.733v8.566h4.733l.3.175,6.272,3.62a.966.966,0,0,0,1.45-.838V363.52a.966.966,0,0,0-1.45-.838Z" transform="translate(-736.336 -353.765)" fill="none" stroke="#fff" stroke-miterlimit="10" stroke-width="2"/>
      <path id="Path_1568" data-name="Path 1568" d="M746.218,374.061a5.009,5.009,0,0,0,0-9.5" transform="translate(-729.223 -352.316)" fill="none" stroke="#fff" stroke-miterlimit="10" stroke-width="2"/>
      <path id="Path_1569" data-name="Path 1569" d="M747.212,379.087a8.923,8.923,0,0,0,0-16.584" transform="translate(-728.507 -353.799)" fill="none" stroke="#fff" stroke-miterlimit="10" stroke-width="2"/>
      <path id="Path_1570" data-name="Path 1570" d="M736.336,383.158v6.4a1.871,1.871,0,0,0,1.871,1.871h30.248a1.872,1.872,0,0,0,1.873-1.871v-30.25a1.873,1.873,0,0,0-1.873-1.871H738.207a1.871,1.871,0,0,0-1.871,1.871v6.4" transform="translate(-736.336 -357.442)" fill="none" stroke="#fff" stroke-miterlimit="10" stroke-width="2"/>
    </g>
  </g>
</svg>
