<svg xmlns="http://www.w3.org/2000/svg" width="60.234" height="60.234" viewBox="0 0 60.234 60.234">
  <g id="Group_1448" data-name="Group 1448" transform="translate(-851.266 -2563.766)">
    <path id="Path_1004" data-name="Path 1004" d="M114.752,230.329H110.2a.9.9,0,0,1-.895-.9v-49.4a1.8,1.8,0,0,0-1.791-1.8h-50.3a1.8,1.8,0,0,0-1.8,1.8v50.294a1.8,1.8,0,0,0,1.8,1.8H106.61a.9.9,0,0,1,.9.9v4.551a.889.889,0,0,0,.891.893h6.348a.9.9,0,0,0,.9-.893v-6.349a.9.9,0,0,0-.9-.9" transform="translate(795.848 2385.53)" fill="#758cc5"/>
    <g id="Group_2117" data-name="Group 2117" transform="translate(857.526 2576.887)">
      <path id="Path_1561" data-name="Path 1561" d="M682.84,360.834h1.524a3.819,3.819,0,0,1,3.819,3.819h0a3.819,3.819,0,0,1-3.819,3.819H672.009" transform="translate(-666.469 -360.468)" fill="none" stroke="#fff" stroke-miterlimit="10" stroke-width="2"/>
      <path id="Path_1562" data-name="Path 1562" d="M683.194,380.456h1.533a3.567,3.567,0,0,0,3.567-3.566h0a3.567,3.567,0,0,0-3.567-3.567H674.648" transform="translate(-664.678 -351.992)" fill="none" stroke="#fff" stroke-miterlimit="10" stroke-width="2"/>
      <path id="Path_1563" data-name="Path 1563" d="M673.221,378.711h-2.028a2.486,2.486,0,0,1-2.485-2.486h0a2.485,2.485,0,0,1,2.485-2.485h25.652a4.178,4.178,0,0,0,4.178-4.178h0a4.178,4.178,0,0,0-4.178-4.178h-3.409" transform="translate(-668.709 -357.38)" fill="none" stroke="#fff" stroke-miterlimit="10" stroke-width="2"/>
      <ellipse id="Ellipse_33" data-name="Ellipse 33" cx="2.597" cy="2.597" rx="2.597" ry="2.597" transform="translate(31.107)" fill="none" stroke="#fff" stroke-miterlimit="10" stroke-width="2"/>
      <ellipse id="Ellipse_34" data-name="Ellipse 34" cx="1.459" cy="1.459" rx="1.459" ry="1.459" transform="translate(37.489 8.903)" fill="none" stroke="#fff" stroke-miterlimit="10" stroke-width="2"/>
    </g>
  </g>
</svg>
