<svg xmlns="http://www.w3.org/2000/svg" xmlns:xlink="http://www.w3.org/1999/xlink" width="60.234" height="60.234" viewBox="0 0 60.234 60.234">
    <defs>
        <style>.a {
  fill: none;
}

.b {
  fill: #0f7ac9;
}

.c {
  clip-path: url("#a");
}

.d {
  fill: #fff;
}

</style>
        <clipPath id="a">
            <rect class="a" width="35.106" height="33.474"></rect>
        </clipPath>
    </defs>
    <g transform="translate(-851.266 -2563.766)">
        <path class="b" d="M114.752,230.329H110.2a.9.9,0,0,1-.895-.9v-49.4a1.8,1.8,0,0,0-1.791-1.8h-50.3a1.8,1.8,0,0,0-1.8,1.8v50.294a1.8,1.8,0,0,0,1.8,1.8H106.61a.9.9,0,0,1,.9.9v4.551a.889.889,0,0,0,.891.893h6.348a.9.9,0,0,0,.9-.893v-6.349a.9.9,0,0,0-.9-.9" transform="translate(795.848 2385.53)"></path>
        <g transform="translate(863.576 2575.904)">
            <g class="c" transform="translate(-3.038 -2.897)">
                <path class="d" d="M.5,32.1h-1V0h1Z" transform="translate(17.735 1.369)"></path>
                <path class="d" d="M9.657,25h-1V12.635a4.987,4.987,0,0,1,4.982-4.982h11.52v1H13.639a3.986,3.986,0,0,0-3.982,3.982Z" transform="translate(8.578 7.637)"></path>
                <path class="d" d="M17.5,20.662h-1V16.224A4.426,4.426,0,0,0,12.075,11.8H.774v-1h11.3A5.428,5.428,0,0,1,17.5,16.224Z" transform="translate(0.725 10.588)"></path>
                <path class="d" d="M5.6,19.439,0,13.841l5.6-5.6.707.707L1.414,13.841l4.891,4.891Z" transform="translate(0.663 8.05)"></path>
                <path class="d" d="M16.587,6.306,11.693,1.414,6.8,6.306,6.095,5.6l5.6-5.6,5.6,5.6Z" transform="translate(6.041 0.662)"></path>
                <path class="d" d="M15.064,16.289l-.707-.707,4.891-4.893L14.357,5.8l.707-.707,5.6,5.6Z" transform="translate(13.781 5.099)"></path>
            </g>
        </g>
    </g>
</svg>