<svg xmlns="http://www.w3.org/2000/svg" xmlns:xlink="http://www.w3.org/1999/xlink" width="60.234" height="60.234" viewBox="0 0 60.234 60.234">
    <defs>
        <style>.a {
  fill: none;
  stroke: #707070;
}

.b {
  fill: #0f7ac9;
}

.c {
  clip-path: url("#a");
}

.d {
  fill: #fff;
}

</style>
        <clipPath id="a">
            <rect class="a" width="34.819" height="34.605"></rect>
        </clipPath>
    </defs>
    <g transform="translate(-851.266 -2563.766)">
        <path class="b" d="M114.752,230.329H110.2a.9.9,0,0,1-.895-.9v-49.4a1.8,1.8,0,0,0-1.791-1.8h-50.3a1.8,1.8,0,0,0-1.8,1.8v50.294a1.8,1.8,0,0,0,1.8,1.8H106.61a.9.9,0,0,1,.9.9v4.551a.889.889,0,0,0,.891.893h6.348a.9.9,0,0,0,.9-.893v-6.349a.9.9,0,0,0-.9-.9" transform="translate(795.848 2385.53)"></path>
        <g transform="translate(862.104 2574.442)">
            <g class="c" transform="translate(-2 -2)">
                <path class="d" d="M22.492,16.649H5.86A7.008,7.008,0,0,1,2.341,15.7l-.033-.019q-.2-.1-.389-.226l-.141-.082.008-.008A4.491,4.491,0,0,1-.123,11.7a5.985,5.985,0,0,1,2.41-4.915,4.44,4.44,0,0,1,2.539-.923h.021a2.79,2.79,0,0,1,.835.126L5.7,6a7.668,7.668,0,0,1,.386-.952A10.532,10.532,0,0,1,7.391,3a8.753,8.753,0,0,1,6.327-3.28c.248-.017.5-.025.736-.025A7.856,7.856,0,0,1,20.2,1.934a6.924,6.924,0,0,1,1.6,2.422h.006c.012,0,.309-.033.773-.033a7.78,7.78,0,0,1,5.059,1.636l.016.015a6.009,6.009,0,0,1,1.815,4.682,5.529,5.529,0,0,1-1.591,4.128l-.01.009a6.671,6.671,0,0,1-3.156,1.595A10.211,10.211,0,0,1,22.492,16.649ZM3.433,15.135a6.008,6.008,0,0,0,2.426.513H22.492a7.37,7.37,0,0,0,4.684-1.575,4.527,4.527,0,0,0,1.3-3.4v-.029l0-.029a5.01,5.01,0,0,0-1.5-3.92,6.808,6.808,0,0,0-4.386-1.375c-.383,0-.633.024-.662.027a1,1,0,0,1-1.061-.66l-.012-.038a6.034,6.034,0,0,0-1.41-2.068A6.856,6.856,0,0,0,14.455.693c-.218,0-.444.008-.669.023A7.656,7.656,0,0,0,8.254,3.525,9,9,0,0,0,6.669,6.252l-.015.05a1.024,1.024,0,0,1-.475.6l-.027.016-.029.012a1.014,1.014,0,0,1-.76.011,1.792,1.792,0,0,0-.507-.075,3.445,3.445,0,0,0-1.963.718l-.008.006a4.983,4.983,0,0,0-2.009,4.1V11.7a3.491,3.491,0,0,0,1.94,3.12l.625.31Z" transform="translate(2.653 2.426)"></path>
                <circle class="d" cx="0.798" cy="0.798" r="0.798" transform="translate(16.538 13.711)"></circle>
                <path class="d" d="M.8-.5A1.3,1.3,0,1,1-.5.8,1.3,1.3,0,0,1,.8-.5Zm0,1.6A.3.3,0,1,0,.5.8.3.3,0,0,0,.8,1.1Z" transform="translate(16.538 13.711)"></path>
                <path class="d" d="M11.15,5.711a3.421,3.421,0,0,0-5.374,0L4.99,5.092a4.421,4.421,0,0,1,6.945,0Z" transform="translate(8.898 7.058)"></path>
                <path class="d" d="M13.7,5.2a5.505,5.505,0,0,0-8.65,0L4.26,4.577a6.505,6.505,0,0,1,10.222,0Z" transform="translate(7.988 5.423)"></path>
                <path class="d" d="M2.793,15.132A3.1,3.1,0,0,1,.6,9.837,3.129,3.129,0,0,1,2.793,8.93a3.1,3.1,0,0,1,0,6.2Zm0-5.2a2.122,2.122,0,0,0-1.485.616,2.1,2.1,0,1,0,2.97,2.971A2.1,2.1,0,0,0,2.793,9.93Z" transform="translate(2.425 13.946)"></path>
                <path class="d" d="M8.156,16.688h-.01A3.139,3.139,0,0,1,5.025,13.52a3.153,3.153,0,0,1,.949-2.214A3.137,3.137,0,0,1,11.3,13.552v.5h-.042a3.128,3.128,0,0,1-.884,1.723A3.172,3.172,0,0,1,8.156,16.688Zm0-5.272a2.116,2.116,0,0,0-1.487.606,2.136,2.136,0,0,0,1.478,3.666h.005a2.163,2.163,0,0,0,1.511-.621,2.13,2.13,0,0,0,.629-1.515v-.1a2.153,2.153,0,0,0-.613-1.4,2.112,2.112,0,0,0-1.489-.638Z" transform="translate(9.075 15.799)"></path>
                <path class="d" d="M13.655,15.273h0a3.171,3.171,0,0,1-2.257-.935,3.191,3.191,0,0,1,0-4.513,3.2,3.2,0,0,1,4.514,0,3.223,3.223,0,0,1,.936,2.258,3.2,3.2,0,0,1-3.191,3.192Zm0-5.382a2.184,2.184,0,0,0-1.551.641,2.191,2.191,0,0,0,0,3.1,2.194,2.194,0,0,0,3.742-1.551A2.214,2.214,0,0,0,15.2,10.53,2.183,2.183,0,0,0,13.653,9.891Z" transform="translate(15.855 13.898)"></path>
                <path class="d" d="M4.526,15.2H2.508v-1H4.526a1.2,1.2,0,0,0,1.2-1.2V7.292h1V13A2.2,2.2,0,0,1,4.526,15.2Z" transform="translate(5.313 11.28)"></path>
                <path class="d" d="M13.023,15.2H11a2.2,2.2,0,0,1-2.2-2.2V7.292h1V13A1.2,1.2,0,0,0,11,14.2h2.018Z" transform="translate(13.794 11.28)"></path>
                <path class="d" d="M.5,8.144h-1V0h1Z" transform="translate(17.237 18.572)"></path>
            </g>
        </g>
    </g>
</svg>