<svg xmlns="http://www.w3.org/2000/svg" xmlns:xlink="http://www.w3.org/1999/xlink" width="60.234" height="60.234" viewBox="0 0 60.234 60.234"><defs><style>.a {
  fill: none;
}

.b {
  fill: #56a3da;
}

.c {
  clip-path: url("#a");
}

.d {
  fill: #fff;
}

</style><clipPath id="a"><rect class="a" width="25.392" height="29.947"></rect></clipPath></defs><g transform="translate(-851.266 -2563.766)"><path class="b" d="M114.752,230.329H110.2a.9.9,0,0,1-.895-.9v-49.4a1.8,1.8,0,0,0-1.791-1.8h-50.3a1.8,1.8,0,0,0-1.8,1.8v50.294a1.8,1.8,0,0,0,1.8,1.8H106.61a.9.9,0,0,1,.9.9v4.551a.889.889,0,0,0,.891.893h6.348a.9.9,0,0,0,.9-.893v-6.349a.9.9,0,0,0-.9-.9" transform="translate(795.848 2385.53)"></path><g transform="translate(865.396 2574.771)"><g class="c" transform="translate(0 0)"><path class="d" d="M22.224,14.112l-.584-.1a1.84,1.84,0,0,0-.314-.03H18.3V10.51a6.581,6.581,0,0,0-13.157,0v3.472H1.989a1.353,1.353,0,0,0-.195.012l-.573.085V10.5a10.5,10.5,0,1,1,21,0ZM19.3,12.982h1.922V10.5a9.5,9.5,0,1,0-19,0v2.478H4.145v-2.49a7.581,7.581,0,0,1,15.157,0v2.491Z" transform="translate(1.041 0.302)"></path><path class="d" d="M2.724,8.09H22.059a2.8,2.8,0,0,1,.487.043,2.729,2.729,0,0,1,2.241,2.684V21.726a2.729,2.729,0,0,1-2.727,2.724H2.729A2.73,2.73,0,0,1,0,21.726V10.817A2.724,2.724,0,0,1,2.4,8.111,2.937,2.937,0,0,1,2.724,8.09ZM22.059,23.45a1.728,1.728,0,0,0,1.727-1.724V10.817a1.729,1.729,0,0,0-1.418-1.7,1.814,1.814,0,0,0-.309-.027H2.724a1.937,1.937,0,0,0-.212.014A1.723,1.723,0,0,0,1,10.817V21.726A1.729,1.729,0,0,0,2.729,23.45Z" transform="translate(0.302 5.194)"></path><path class="d" d="M9.431,19.878H8.186a1.4,1.4,0,0,1-1.4-1.4V15.12a2.968,2.968,0,1,1,5.025-2.14,2.926,2.926,0,0,1-.977,2.209v3.289A1.4,1.4,0,0,1,9.431,19.878ZM7.784,14.967c0,.012,0,.024,0,.037v3.474a.4.4,0,0,0,.4.4H9.431a.4.4,0,0,0,.4-.4V14.705l.2-.15a1.943,1.943,0,0,0,.779-1.572,1.969,1.969,0,1,0-3.2,1.528l.221.18Z" transform="translate(3.853 6.357)"></path></g></g></g></svg>