<svg xmlns="http://www.w3.org/2000/svg" width="60" height="60" viewBox="0 0 60 60">
  <g id="Icon-Break" transform="translate(0 -1069)">
    <path id="Path_273" data-name="Path 273" d="M114.521,230.126h-4.535a.892.892,0,0,1-.891-.892V180.027a1.79,1.79,0,0,0-1.784-1.791h-50.1a1.794,1.794,0,0,0-1.79,1.791v50.1a1.792,1.792,0,0,0,1.79,1.791h49.2a.894.894,0,0,1,.9.9v4.533a.886.886,0,0,0,.887.89h6.324a.892.892,0,0,0,.9-.89v-6.325a.9.9,0,0,0-.9-.9" transform="translate(-55.418 890.764)" fill="#cf142b"></path>
    <g id="Group_1449" data-name="Group 1449" transform="translate(-746.716 872.261)">
      <path id="Path_997" data-name="Path 997" d="M32.246,36.547H29.7A5.444,5.444,0,0,1,24.26,31.1V25.958H37.689V31.1A5.443,5.443,0,0,1,32.246,36.547Z" transform="translate(753.357 204.24)" fill="none" stroke="#fff" stroke-linecap="round" stroke-miterlimit="10" stroke-width="2"></path>
      <line id="Line_156" data-name="Line 156" x2="16.12" transform="translate(776.36 240.786)" fill="none" stroke="#fff" stroke-linecap="round" stroke-miterlimit="10" stroke-width="2"></line>
      <path id="Path_999" data-name="Path 999" d="M17.644,34.786A17.143,17.143,0,1,1,34.786,17.643" transform="translate(755 206)" fill="none" stroke="#fff" stroke-linecap="round" stroke-miterlimit="10" stroke-width="2"></path>
      <path id="Path_1000" data-name="Path 1000" d="M17.943,32.025A13.108,13.108,0,0,1,4.835,18.917" transform="translate(754.7 204.727)" fill="none" stroke="#fff" stroke-linecap="round" stroke-miterlimit="10" stroke-width="2"></path>
      <path id="Path_1001" data-name="Path 1001" d="M18.917,4.834a13.1,13.1,0,0,1,11.427,6.682" transform="translate(753.727 205.7)" fill="none" stroke="#fff" stroke-linecap="round" stroke-miterlimit="10" stroke-width="2"></path>
      <circle id="Ellipse_13" data-name="Ellipse 13" cx="2.006" cy="2.006" r="2.006" transform="translate(770.637 221.637)" fill="none" stroke="#fff" stroke-linecap="round" stroke-miterlimit="10" stroke-width="2"></circle>
      <line id="Line_157" data-name="Line 157" y1="7.42" transform="translate(772.643 214.217)" fill="none" stroke="#fff" stroke-linecap="round" stroke-miterlimit="10" stroke-width="2"></line>
      <line id="Line_158" data-name="Line 158" y1="4.932" x2="10.198" transform="translate(774.099 217.089)" fill="none" stroke="#fff" stroke-linecap="round" stroke-miterlimit="10" stroke-width="2"></line>
      <path id="Path_1002" data-name="Path 1002" d="M33.441,13.975a5.533,5.533,0,0,1,0,5.234c-1.427,3.092-.357,3.965-.357,3.965" transform="translate(752.774 205.068)" fill="none" stroke="#fff" stroke-linecap="round" stroke-miterlimit="10" stroke-width="2"></path>
      <path id="Path_1003" data-name="Path 1003" d="M29.833,18.917a2.764,2.764,0,0,1,0,2.617c-.714,1.547-.179,1.983-.179,1.983" transform="translate(752.997 204.727)" fill="none" stroke="#fff" stroke-linecap="round" stroke-miterlimit="10" stroke-width="2"></path>
    </g>
  </g>
</svg>
