<svg xmlns="http://www.w3.org/2000/svg" xmlns:xlink="http://www.w3.org/1999/xlink" width="140" height="140" viewBox="0 0 140 140"><defs><clipPath id="a"><rect width="140" height="140" transform="translate(1226 6368)" fill="#fff"></rect></clipPath></defs><g transform="translate(-1226 -6368)" clip-path="url('#a')"><path d="M58.047,330.271H71.335a2.613,2.613,0,0,0,2.611-2.613V183.485a5.244,5.244,0,0,1,5.228-5.249H225.97a5.255,5.255,0,0,1,5.246,5.249V330.271a5.251,5.251,0,0,1-5.246,5.249H81.809a2.621,2.621,0,0,0-2.634,2.624v13.282a2.6,2.6,0,0,1-2.6,2.607H58.047a2.612,2.612,0,0,1-2.629-2.607V332.9a2.627,2.627,0,0,1,2.629-2.624" transform="translate(1176.042 6148.506)" fill="none" stroke="#cf142b" stroke-width="2"></path></g></svg>