<svg id="Icon-Standardise-Ways" xmlns="http://www.w3.org/2000/svg" xmlns:xlink="http://www.w3.org/1999/xlink" width="60.146" height="60.146" viewBox="0 0 60.146 60.146">
  <defs>
    <clipPath id="clip-path">
      <rect id="Rectangle_683" data-name="Rectangle 683" width="43" height="43" transform="translate(393 2001)"></rect>
    </clipPath>
  </defs>
  <g id="Group_1204" data-name="Group 1204">
    <path id="Path_273" data-name="Path 273" d="M114.664,230.252h-4.546a.894.894,0,0,1-.893-.894V180.032a1.794,1.794,0,0,0-1.789-1.8H57.213a1.8,1.8,0,0,0-1.795,1.8v50.22a1.8,1.8,0,0,0,1.795,1.8h49.322a.9.9,0,0,1,.9.9v4.544a.888.888,0,0,0,.889.892h6.339a.894.894,0,0,0,.9-.892v-6.34a.9.9,0,0,0-.9-.9" transform="translate(-55.418 -178.236)" fill="#768ec7"></path>
    <g id="Icon_4" transform="translate(-387.854 -1996)" clip-path="url('#clip-path')">
      <path id="Path_1352" data-name="Path 1352" d="M444.75,2044h5.059v2.183a.464.464,0,0,0,.338.449,10.244,10.244,0,0,1,1.9.771h.456l.045-.028a.3.3,0,0,0,.03-.03c.009-.008.025-.01.03-.014a.11.11,0,0,0,.015-.016c.016-.016.032-.046.059-.072.053-.052.131-.116.22-.2.179-.174.425-.421.662-.655.311-.306.441-.435.618-.611l3.559,3.535c-.179.177-.3.3-.6.6-.237.234-.483.465-.662.641-.089.088-.153.166-.206.218-.026.026-.057.042-.073.058s-.006.022-.015.03l-.015.014a.172.172,0,0,0-.03.03c-.007.01-.03.058-.03.058l-.03.393a.5.5,0,0,0,.03.044,9.9,9.9,0,0,1,.78,1.877.47.47,0,0,0,.456.333h2.221v4.974h-2.221a.469.469,0,0,0-.456.32,9.848,9.848,0,0,1-.78,1.877v.451s.022.034.03.044a.279.279,0,0,0,.03.03c.008.008.011.024.015.028a.068.068,0,0,0,.015.016c.016.016.048.032.073.058.053.052.117.13.206.218.178.176.424.407.662.641.3.3.424.419.6.6l-3.559,3.535c-.177-.176-.306-.306-.618-.611-.237-.234-.483-.465-.662-.641-.089-.088-.153-.166-.205-.218-.027-.026-.058-.044-.073-.06s-.009-.022-.015-.028-.009,0-.015,0a.116.116,0,0,0-.015-.016l-.03-.028-.28-.088a.475.475,0,0,0-.22.06,10.233,10.233,0,0,1-1.9.771.465.465,0,0,0-.338.449v2.183h-5.059v-2.183a.465.465,0,0,0-.338-.449,10.235,10.235,0,0,1-1.9-.771.474.474,0,0,0-.558.086l-1.559,1.542-3.574-3.521,1.559-1.542a.457.457,0,0,0,.073-.551,9.9,9.9,0,0,1-.78-1.877.47.47,0,0,0-.456-.32H435V2053.6h2.221a.471.471,0,0,0,.456-.333,9.848,9.848,0,0,1,.78-1.877.463.463,0,0,0-.073-.553l-1.559-1.542,3.559-3.518,1.574,1.556a.473.473,0,0,0,.558.072,10.1,10.1,0,0,1,1.9-.771.468.468,0,0,0,.338-.451V2044Z" transform="translate(-32.876 -33.676)" fill="none" stroke="#fff" stroke-miterlimit="8" stroke-width="1.8" fill-rule="evenodd"></path>
      <path id="Path_1353" data-name="Path 1353" d="M476.092,2079a5.092,5.092,0,1,0,5.092,5.1A5.106,5.106,0,0,0,476.092,2079Z" transform="translate(-61.687 -61.687)" fill="none" stroke="#fff" stroke-miterlimit="8" stroke-width="1.8" fill-rule="evenodd"></path>
      <path id="Path_1354" data-name="Path 1354" d="M416.946,2044.814l-2-.1-1.97-.3-1.9-.489-1.824-.667-1.735-.837-1.636-.993-1.527-1.142L402.944,2039l-1.28-1.408-1.142-1.527-.994-1.635-.836-1.735-.667-1.823-.489-1.9-.3-1.969-.1-2.029.1-2.029.3-1.969.489-1.9.667-1.823.836-1.735.994-1.635,1.142-1.527,1.28-1.408,1.409-1.282,1.527-1.142,1.636-.992,1.735-.837,1.824-.667,1.9-.489,1.97-.3,2.028-.1,2.028.1,1.97.3,1.9.489,1.824.667,1.735.837,1.636.992,1.527,1.142,1.409,1.282,1.28,1.408,1.142,1.527.994,1.635.836,1.735.668,1.823.489,1.9.3,1.969.1,2.031-.117,2.165-.343,2.1-.557,2.021-.759,1.929-.948,1.823-1.125,1.705-1.29,1.579-.755.357c-.224.224-.451.481-.674.258a.574.574,0,0,1,0-.811l.6-.595-.039.044,1.253-1.533-.035.048,1.093-1.658-.03.05.921-1.769-.025.054.737-1.873-.019.058.541-1.961-.013.06.333-2.041-.007.062.114-2.1V2025l-.1-1.969.006.058-.292-1.915.011.058-.475-1.847.017.054-.648-1.771.022.052-.812-1.683.027.048-.965-1.59.031.046-1.109-1.484.035.042-1.244-1.368.039.038-1.368-1.242.042.034-1.483-1.11.046.032-1.589-.964.049.026-1.685-.813.052.022-1.77-.647.054.016-1.847-.475.056.012-1.913-.292.057.006-1.97-.1H417l-1.97.1.058-.006-1.913.292.056-.012-1.847.475.054-.016-1.77.647.052-.022-1.684.813.049-.026-1.589.964.046-.032-1.483,1.11.042-.034-1.368,1.242.039-.038-1.244,1.368.035-.042-1.109,1.484.031-.046-.965,1.59.027-.048-.811,1.683.022-.052-.648,1.771.017-.054-.475,1.847.011-.058-.292,1.915.006-.058-.1,1.969v-.056l.1,1.969-.006-.058.292,1.915-.011-.058.475,1.847-.017-.054.648,1.771-.022-.052.811,1.683-.027-.048.965,1.59-.031-.046,1.109,1.484-.035-.042,1.244,1.368-.039-.038,1.368,1.242-.042-.034,1.483,1.11-.046-.032,1.589.966-.049-.028,1.684.813-.052-.022,1.77.647-.054-.016,1.847.475-.056-.012,1.913.292-.058-.006,1.97.1c.315.016.3.256.285.572S417.261,2044.83,416.946,2044.814ZM436.593,2037l-6.792,2.448,1.122-7.242c.081-.306.449-.218.755-.138s.737.08.656.386l-1.042,6.041-.782-.538,5.494-2.327c.306-.08.473.353.588.625S436.9,2036.919,436.593,2037Z" transform="translate(-2.569 -2.568)" fill="#fff" stroke="#fff" stroke-width="0.6"></path>
    </g>
  </g>
</svg>
