<svg id="Icon-User-First-Design" xmlns="http://www.w3.org/2000/svg" xmlns:xlink="http://www.w3.org/1999/xlink" width="60" height="60" viewBox="0 0 60 60">
  <defs>
    <clipPath id="clip-path">
      <rect id="Rectangle_689" data-name="Rectangle 689" width="43" height="45" transform="translate(313 1178.425)"></rect>
    </clipPath>
  </defs>
  <path id="Path_273" data-name="Path 273" d="M114.521,230.126h-4.535a.892.892,0,0,1-.891-.892V180.027a1.79,1.79,0,0,0-1.784-1.791h-50.1a1.794,1.794,0,0,0-1.79,1.791v50.1a1.792,1.792,0,0,0,1.79,1.791h49.2a.894.894,0,0,1,.9.9v4.533a.886.886,0,0,0,.887.89h6.324a.892.892,0,0,0,.9-.89v-6.325a.9.9,0,0,0-.9-.9" transform="translate(-55.418 -178.236)" fill="#768ec7"></path>
  <g id="Icon_2" transform="translate(-308 -1174.425)" clip-path="url('#clip-path')">
    <path id="Path_1419" data-name="Path 1419" d="M365,1210.892A14.8,14.8,0,0,1,375.035,1207a14.752,14.752,0,0,1,14.806,14.7,14.558,14.558,0,0,1-2.6,8.325" transform="translate(-40.414 -20.994)" fill="none" stroke="#fff" stroke-miterlimit="8" stroke-width="1.8" fill-rule="evenodd"></path>
    <path id="Path_1420" data-name="Path 1420" d="M361.718,1222.732a1.011,1.011,0,1,1,.012-1.43A1.013,1.013,0,0,1,361.718,1222.732Z" transform="translate(-36.423 -32.167)" fill="#fff" stroke="#fff" stroke-miterlimit="8" stroke-width="1.8" fill-rule="evenodd"></path>
    <path id="Path_1421" data-name="Path 1421" d="M361.061,1222.076a1.212,1.212,0,1,0-1.714-.014,1.214,1.214,0,0,0,1.714.014Zm-1.5-1.527a.928.928,0,1,1-.012,1.313.929.929,0,0,1,.012-1.313C359.927,1220.192,359.2,1220.909,359.562,1220.55Z" transform="translate(-35.625 -31.368)" fill="#8093dc" stroke="#fff" stroke-miterlimit="8" stroke-width="1.8" fill-rule="evenodd"></path>
    <path id="Path_1422" data-name="Path 1422" d="M364.841,1258.132a14.991,14.991,0,0,1-2.161,1.644A14.831,14.831,0,0,1,340,1247.325a14.557,14.557,0,0,1,2.6-8.325" transform="translate(-20.463 -46.531)" fill="none" stroke="#fff" stroke-miterlimit="8" stroke-width="1.8" fill-rule="evenodd"></path>
    <path id="Path_1423" data-name="Path 1423" d="M457.365,1329.318a1.314,1.314,0,0,1,1.726.013,1.04,1.04,0,0,1-.016,1.569,1.313,1.313,0,0,1-1.726-.014,1.04,1.04,0,0,1,.015-1.569Z" transform="matrix(0.839, -0.545, 0.545, 0.839, -764.338, 345.829)" fill="#fff" stroke="#fff" stroke-miterlimit="8" stroke-width="1.8" fill-rule="evenodd"></path>
    <path id="Path_1425" data-name="Path 1425" d="M385.452,1216a18.975,18.975,0,0,1,2.336,2.987,18.932,18.932,0,0,1-26.788,25.6" transform="translate(-37.221 -28.176)" fill="none" stroke="#fff" stroke-miterlimit="8" stroke-width="1.8" fill-rule="evenodd"></path>
    <path id="Path_1426" data-name="Path 1426" d="M477.3,1212.9a1.189,1.189,0,0,1-.006-1.569.946.946,0,0,1,1.428-.006,1.189,1.189,0,0,1,.006,1.569A.946.946,0,0,1,477.3,1212.9Z" transform="translate(-129.794 -24.188)" fill="#fff" stroke="#fff" stroke-miterlimit="8" stroke-width="1.8" fill-rule="evenodd"></path>
    <path id="Path_1427" data-name="Path 1427" d="M476.357,1212.9a1.3,1.3,0,0,0,1.715-.006,1.051,1.051,0,0,0-.006-1.573,1.3,1.3,0,0,0-1.715.006,1.051,1.051,0,0,0,.006,1.573C476.831,1213.331,475.884,1212.468,476.357,1212.9Zm1.508-1.393a.8.8,0,0,1,0,1.2.988.988,0,0,1-1.312,0,.8.8,0,0,1-.005-1.2.988.988,0,0,1,1.312,0Z" transform="translate(-128.996 -24.186)" fill="#8093dc" stroke="#fff" stroke-miterlimit="8" stroke-width="1.8" fill-rule="evenodd"></path>
    <path id="Path_1428" data-name="Path 1428" d="M325.236,1217.91a19,19,0,0,1-2.336-2.987,18.932,18.932,0,0,1,26.788-25.6" transform="translate(-4.502 -4.235)" fill="none" stroke="#fff" stroke-miterlimit="8" stroke-width="1.8" fill-rule="evenodd"></path>
    <path id="Path_1429" data-name="Path 1429" d="M342.721,1338.321a1.194,1.194,0,0,1,.006,1.573.949.949,0,0,1-1.428.006,1.194,1.194,0,0,1-.006-1.573A.949.949,0,0,1,342.721,1338.321Z" transform="translate(-21.261 -125.537)" fill="#fff" stroke="#fff" stroke-miterlimit="8" stroke-width="1.8" fill-rule="evenodd"></path>
    <path id="Path_1430" data-name="Path 1430" d="M342.066,1338.321a1.3,1.3,0,0,0-1.715.006,1.05,1.05,0,0,0,.006,1.573,1.3,1.3,0,0,0,1.715-.006,1.051,1.051,0,0,0-.006-1.573C341.592,1337.891,342.54,1338.754,342.066,1338.321Zm-1.508,1.394a.8.8,0,0,1-.005-1.2.988.988,0,0,1,1.312,0,.8.8,0,0,1,.005,1.2.988.988,0,0,1-1.312,0Z" transform="translate(-20.463 -125.537)" fill="#8093dc" stroke="#fff" stroke-miterlimit="8" stroke-width="1.8" fill-rule="evenodd"></path>
    <path id="Path_1431" data-name="Path 1431" d="M361,1250.561l.7-.685a1.494,1.494,0,0,1,.517-.325l5.615-2.07a1.455,1.455,0,0,0,.661-2.252c-.674-.889-2.256-3.179-2.256-5.158a7.438,7.438,0,0,1,.345-2.222,5.551,5.551,0,0,1,4.885-3.837c.106-.008.211-.012.315-.012a4.758,4.758,0,0,1,.5.028,5.572,5.572,0,0,1,4.733,3.823,7.416,7.416,0,0,1,.345,2.219c0,1.979-1.581,4.27-2.256,5.158a1.455,1.455,0,0,0,.661,2.252l5.615,2.07a1.453,1.453,0,0,1,.517.325l.7.685" transform="translate(-37.221 -42.541)" fill="none" stroke="#fff" stroke-miterlimit="8" stroke-width="1.8" fill-rule="evenodd"></path>
  </g>
</svg>
