<?xml version="1.0" encoding="utf-8"?>
<!-- Generator: Adobe Illustrator 27.1.1, SVG Export Plug-In . SVG Version: 6.00 Build 0)  -->
<svg version="1.1" id="Layer_1" xmlns="http://www.w3.org/2000/svg" xmlns:xlink="http://www.w3.org/1999/xlink" x="0px" y="0px"
	 viewBox="0 0 60.2 60.2" style="enable-background:new 0 0 60.2 60.2;" xml:space="preserve">
<style type="text/css">
	.st0{clip-path:url(#SVGID_00000060723014775626822850000004906621496435288207_);}
	.st1{fill:#8FC740;}
	.st2{fill:#FFFFFF;}
	.st3{font-family:'FrutigerLTStd-Bold';}
	.st4{font-size:32px;}
</style>
<g>
	<defs>
		<rect id="SVGID_1_" width="60.2" height="60.2"/>
	</defs>
	<clipPath id="SVGID_00000039812952350385977850000003571317801978349233_">
		<use xlink:href="#SVGID_1_"  style="overflow:visible;"/>
	</clipPath>
	<g id="a" style="clip-path:url(#SVGID_00000039812952350385977850000003571317801978349233_);">
		<g transform="translate(-851.27)">
			<path class="st1" d="M910.6,52.1H906c-0.5,0-0.9-0.4-0.9-0.9V1.8c0-1-0.8-1.8-1.8-1.8h-50.3c-1,0-1.8,0.8-1.8,1.8l0,0v50.3
				c0,1,0.8,1.8,1.8,1.8c0,0,0,0,0,0h49.4c0.5,0,0.9,0.4,0.9,0.9v4.6c0,0.5,0.4,0.9,0.9,0.9c0,0,0,0,0,0h6.3c0.5,0,0.9-0.4,0.9-0.9
				V53C911.5,52.5,911.1,52.1,910.6,52.1"/>
			<text transform="matrix(1 0 0 1 869 37.99)" class="st2 st3 st4">1</text>
		</g>
	</g>
</g>
</svg>
