<?xml version="1.0" encoding="utf-8"?>
<!-- Generator: Adobe Illustrator 27.1.1, SVG Export Plug-In . SVG Version: 6.00 Build 0)  -->
<svg version="1.1" id="Layer_1" xmlns="http://www.w3.org/2000/svg" xmlns:xlink="http://www.w3.org/1999/xlink" x="0px" y="0px"
	 viewBox="0 0 60.2 60.2" style="enable-background:new 0 0 60.2 60.2;" xml:space="preserve">
<style type="text/css">
	.st0{clip-path:url(#SVGID_00000078039000918900898080000016150507353193043646_);}
	.st1{fill:#8FC740;}
	.st2{fill:#FFFFFF;}
</style>
<g>
	<defs>
		<rect id="SVGID_1_" width="60.2" height="60.2"/>
	</defs>
	<clipPath id="SVGID_00000160887377909397202110000001420246404245449879_">
		<use xlink:href="#SVGID_1_"  style="overflow:visible;"/>
	</clipPath>
	<g id="a" style="clip-path:url(#SVGID_00000160887377909397202110000001420246404245449879_);">
		<g transform="translate(-851.266 -0.004)">
			<path class="st1" d="M910.6,52.1H906c-0.5,0-0.9-0.4-0.9-0.9V1.8c0-1-0.8-1.8-1.8-1.8h-50.3c-1,0-1.8,0.8-1.8,1.8l0,0v50.3
				c0,1,0.8,1.8,1.8,1.8c0,0,0,0,0,0h49.4c0.5,0,0.9,0.4,0.9,0.9v4.6c0,0.5,0.4,0.9,0.9,0.9c0,0,0,0,0,0h6.3c0.5,0,0.9-0.4,0.9-0.9
				V53C911.5,52.5,911.1,52.1,910.6,52.1"/>
			<g transform="translate(861.054 6.517)">
				<path class="st2" d="M29.6,4.1H4.3V36h25.4V4.1z M28.4,34.7H5.5V5.4h22.9V34.7z"/>
				<path class="st2" d="M4,3.9h25.9v32.3H4V3.9z M29.4,4.4H4.5v31.3h24.9V4.4z M5.2,5.1h23.4V35H5.2L5.2,5.1z M28.1,5.6H5.7v28.8
					h22.4V5.6z"/>
				<rect x="9.9" y="12.3" class="st2" width="13.9" height="1.2"/>
				<path class="st2" d="M9.6,12h14.4v1.8H9.6V12z M23.6,12.5H10.1v0.8h13.4V12.5z"/>
				<rect x="9.9" y="19.8" class="st2" width="13.9" height="1.2"/>
				<path class="st2" d="M9.6,19.5h14.4v1.8H9.6V19.5z M23.6,20H10.1v0.8h13.4V20z"/>
				<rect x="9.9" y="26.5" class="st2" width="13.9" height="1.2"/>
				<path class="st2" d="M9.6,26.2h14.4V28H9.6V26.2z M23.6,26.7H10.1v0.8h13.4V26.7z"/>
				<path class="st2" d="M1.2,1.2H7V0H0v7h1.2V1.2z"/>
				<path class="st2" d="M-0.3-0.2h7.5v1.7H1.5v5.8h-1.7V-0.2z M6.8,0.3H0.2v6.5H1V1h5.8L6.8,0.3z"/>
				<path class="st2" d="M7,39.3H1.2v-5.8H0v7h7L7,39.3z"/>
				<path class="st2" d="M7.3,40.8h-7.5v-7.5h1.7V39h5.8L7.3,40.8z M0.2,40.3h6.5v-0.7H1v-5.8H0.2L0.2,40.3z"/>
				<path class="st2" d="M33.9,33.5h-1.2v5.8h-5.8v1.2h7V33.5z"/>
				<path class="st2" d="M32.4,33.2h1.7v7.5h-7.5V39h5.8L32.4,33.2z M33.6,33.7h-0.7v5.8h-5.8v0.7h6.5L33.6,33.7z"/>
				<path class="st2" d="M33.9,0h-7v1.2h5.8V7h1.2V0z"/>
				<path class="st2" d="M26.6-0.2h7.5v7.5h-1.7V1.5h-5.8V-0.2z M33.6,0.3h-6.5V1h5.8v5.8h0.7V0.3z"/>
			</g>
		</g>
	</g>
</g>
</svg>
