<?xml version="1.0" encoding="utf-8"?>
<!-- Generator: Adobe Illustrator 27.1.1, SVG Export Plug-In . SVG Version: 6.00 Build 0)  -->
<svg version="1.1" id="Layer_1" xmlns="http://www.w3.org/2000/svg" xmlns:xlink="http://www.w3.org/1999/xlink" x="0px" y="0px"
	 viewBox="0 0 60.2 60.2" style="enable-background:new 0 0 60.2 60.2;" xml:space="preserve">
<style type="text/css">
	.st0{clip-path:url(#SVGID_00000022526567198692252150000005984471694864288169_);}
	.st1{fill:#8FC740;}
	.st2{fill:#FFFFFF;}
</style>
<g>
	<defs>
		<rect id="SVGID_1_" width="60.2" height="60.2"/>
	</defs>
	<clipPath id="SVGID_00000165923405022651990750000006113513355889516673_">
		<use xlink:href="#SVGID_1_"  style="overflow:visible;"/>
	</clipPath>
	<g id="a" style="clip-path:url(#SVGID_00000165923405022651990750000006113513355889516673_);">
		<g transform="translate(-851.266)">
			<path class="st1" d="M910.6,52.1H906c-0.5,0-0.9-0.4-0.9-0.9V1.8c0-1-0.8-1.8-1.8-1.8h-50.3c-1,0-1.8,0.8-1.8,1.8l0,0v50.3
				c0,1,0.8,1.8,1.8,1.8c0,0,0,0,0,0h49.4c0.5,0,0.9,0.4,0.9,0.9v4.6c0,0.5,0.4,0.9,0.9,0.9c0,0,0,0,0,0h6.3c0.5,0,0.9-0.4,0.9-0.9
				V53C911.5,52.5,911.1,52.1,910.6,52.1"/>
			<g transform="translate(857.805 14.554)">
				<path class="st2" d="M40.4,18.1c-0.2-4.8-2.4-9.3-5.9-12.5C30.6,1.9,25.5,0,20.2,0C14.9,0,9.8,1.9,5.9,5.5
					C2.4,8.8,0.3,13.3,0,18.1l0,0.6h8l0-0.5c0.2-2.8,1.5-5.4,3.5-7.3c4.9-4.5,12.4-4.5,17.3,0c2.1,1.9,3.3,4.5,3.6,7.3l0,0.5h8
					L40.4,18.1z M6.9,17.5H1.3c0.2-3,1.3-5.9,3.1-8.4l4.5,3.2C7.7,13.9,7.1,15.7,6.9,17.5 M10.7,10c-0.5,0.4-0.9,0.9-1.3,1.4L5,8.2
					c0.5-0.7,1.1-1.3,1.8-1.9c1.8-1.6,3.8-2.9,6.1-3.8l2.4,4.8C13.5,7.9,12,8.8,10.7,10 M16.3,6.9L14,2.1c4.6-1.5,9.6-1.3,14,0.6
					l-3,4.5C22.2,6.2,19.2,6.1,16.3,6.9 M26.1,7.6l3-4.4C30.7,4,32.3,5,33.6,6.3c1,0.9,1.8,1.9,2.6,3l-4.5,3.2
					c-0.6-0.9-1.3-1.7-2.1-2.5C28.6,9,27.4,8.2,26.1,7.6 M33.5,17.5c-0.2-1.4-0.6-2.8-1.2-4.1l4.5-3.2c1.3,2.2,2.1,4.7,2.3,7.3
					L33.5,17.5z"/>
				<path class="st2" d="M40.7,18.9h-8.5l-0.1-0.8c-0.2-2.7-1.4-5.3-3.5-7.2c-4.8-4.4-12.1-4.4-16.9,0c-2,1.9-3.3,4.4-3.5,7.2
					l-0.1,0.8h-8.5l0-0.8c0.2-4.9,2.4-9.4,6-12.7c3.9-3.6,9.1-5.6,14.4-5.6c5.4,0,10.5,2,14.4,5.6c3.6,3.3,5.7,7.9,6,12.7L40.7,18.9
					z M32.6,18.4h7.5l0-0.3c-0.2-4.7-2.3-9.2-5.8-12.4c-3.8-3.5-8.9-5.5-14.1-5.5C15,0.2,9.9,2.2,6.1,5.7c-3.5,3.2-5.6,7.6-5.8,12.4
					l0,0.3h7.5l0-0.3c0.2-2.9,1.5-5.6,3.6-7.5c5-4.5,12.6-4.5,17.6,0c2.1,1.9,3.4,4.6,3.6,7.5L32.6,18.4z M39.4,17.8h-6.1l0-0.2
					c-0.2-1.4-0.6-2.7-1.2-4L32,13.4l4.9-3.5l0.1,0.2c1.3,2.2,2.1,4.8,2.3,7.4L39.4,17.8z M33.7,17.3h5.1c-0.2-2.3-0.9-4.6-2.1-6.6
					l-4.1,2.9C33.2,14.7,33.6,16,33.7,17.3z M7.1,17.8H1l0-0.3c0.3-3.1,1.3-6,3.1-8.5l0.1-0.2l4.9,3.5L9,12.5
					c-1,1.5-1.6,3.3-1.9,5.1L7.1,17.8z M1.5,17.3h5.1c0.2-1.7,0.8-3.4,1.8-4.9L4.4,9.5C2.8,11.8,1.8,14.5,1.5,17.3L1.5,17.3z
					 M31.7,12.8l-0.1-0.2c-0.6-0.9-1.2-1.7-2-2.4c-1-1-2.2-1.8-3.5-2.4l-0.3-0.1L29,2.8l0.2,0.1c1.7,0.8,3.2,1.9,4.6,3.2
					c1,0.9,1.9,1.9,2.6,3l0.1,0.2L31.7,12.8z M26.4,7.5c1.2,0.6,2.4,1.4,3.4,2.3c0.7,0.7,1.4,1.5,1.9,2.3l4.1-2.9
					c-0.7-1-1.5-1.9-2.4-2.8c-1.3-1.2-2.7-2.2-4.3-3L26.4,7.5z M9.5,11.8L4.6,8.3l0.2-0.2c0.6-0.7,1.2-1.3,1.8-1.9
					c1.8-1.7,3.9-3,6.2-3.9L13,2.2l2.6,5.2l-0.3,0.1c-1.6,0.6-3.1,1.5-4.4,2.7c-0.5,0.4-0.9,0.9-1.3,1.4L9.5,11.8z M5.3,8.2l4,2.9
					c0.4-0.4,0.7-0.9,1.2-1.3c1.3-1.2,2.7-2.1,4.3-2.7l-2.1-4.3c-2.1,0.9-4.1,2.1-5.8,3.7C6.4,7,5.8,7.6,5.3,8.2L5.3,8.2z M25,7.5
					l-0.2-0.1c-2.7-1-5.7-1.1-8.5-0.3l-0.2,0.1l-2.6-5.2l0.3-0.1c2-0.7,4.2-1,6.3-1c2.7,0,5.4,0.5,7.9,1.6l0.3,0.1L25,7.5z
					 M20.2,6.1c1.6,0,3.2,0.3,4.7,0.8l2.8-4.1c-2.4-0.9-4.9-1.4-7.4-1.4c-2,0-4,0.3-5.9,0.9l2.2,4.3C17.7,6.3,18.9,6.1,20.2,6.1
					L20.2,6.1z"/>
				<path class="st2" d="M25.7,11.9l-9,2.7c-1.3,0.4-2.3,1.5-2.7,2.8c-0.3,1.6,0.2,3.3,1.3,4.5c0.9,1,2.2,1.5,3.6,1.5
					c0.2,0,0.3,0,0.5,0c1.3-0.1,2.4-0.7,3.1-1.8l4.5-8c0.3-0.5,0.1-1.2-0.4-1.5C26.3,11.9,26,11.9,25.7,11.9 M21,20.7
					c-0.4,0.6-1.1,1-1.8,1c-1,0.1-2-0.2-2.7-1c-0.7-0.8-1.1-1.9-0.9-3c0.2-0.8,0.8-1.4,1.6-1.6l7.7-2.3L21,20.7z"/>
				<path class="st2" d="M26,11.6c0.7,0,1.4,0.6,1.4,1.4c0,0.2-0.1,0.5-0.2,0.7l-4.5,8c-0.7,1.1-1.9,1.8-3.3,1.9c-0.2,0-0.3,0-0.5,0
					c-1.4,0-2.8-0.6-3.8-1.6c-1.2-1.3-1.7-3-1.3-4.7c0.4-1.4,1.4-2.6,2.8-3l0,0l9-2.7C25.8,11.7,25.9,11.6,26,11.6z M22.2,21.5
					l4.5-8c0.2-0.4,0.1-0.9-0.3-1.2c-0.1-0.1-0.3-0.1-0.4-0.1c-0.1,0-0.2,0-0.2,0l-9,2.7c-1.2,0.4-2.2,1.4-2.5,2.6
					c-0.3,1.5,0.1,3.1,1.2,4.2c0.9,0.9,2.1,1.4,3.4,1.4c0.2,0,0.3,0,0.4,0C20.5,23.1,21.6,22.4,22.2,21.5L22.2,21.5z M25.4,13.5
					l-4.2,7.4c-0.5,0.7-1.2,1.1-2,1.1c-0.1,0-0.2,0-0.3,0c-1,0-1.9-0.4-2.6-1c-0.8-0.9-1.1-2-0.9-3.2c0.2-0.9,0.9-1.5,1.7-1.8l0,0
					L25.4,13.5z M20.8,20.6l3.5-6.3l-7.1,2.1c-0.7,0.2-1.2,0.8-1.4,1.5c-0.2,1,0.1,2,0.8,2.7c0.6,0.6,1.4,0.9,2.2,0.9
					c0.1,0,0.2,0,0.3,0C19.8,21.5,20.4,21.1,20.8,20.6L20.8,20.6z"/>
			</g>
		</g>
	</g>
</g>
</svg>
