<?xml version="1.0" encoding="utf-8"?>
<!-- Generator: Adobe Illustrator 27.1.1, SVG Export Plug-In . SVG Version: 6.00 Build 0)  -->
<svg version="1.1" id="Layer_1" xmlns="http://www.w3.org/2000/svg" xmlns:xlink="http://www.w3.org/1999/xlink" x="0px" y="0px"
	 viewBox="0 0 60.2 60.2" style="enable-background:new 0 0 60.2 60.2;" xml:space="preserve">
<style type="text/css">
	.st0{clip-path:url(#SVGID_00000122722081740257710460000003429193845176460685_);}
	.st1{fill:#8FC740;}
	.st2{fill:#FFFFFF;}
</style>
<g>
	<defs>
		<rect id="SVGID_1_" width="60.2" height="60.2"/>
	</defs>
	<clipPath id="SVGID_00000169519168133304932060000004713280364457926544_">
		<use xlink:href="#SVGID_1_"  style="overflow:visible;"/>
	</clipPath>
	<g id="a" style="clip-path:url(#SVGID_00000169519168133304932060000004713280364457926544_);">
		<g transform="translate(-851.266 -0.004)">
			<path class="st1" d="M910.6,52.1H906c-0.5,0-0.9-0.4-0.9-0.9V1.8c0-1-0.8-1.8-1.8-1.8h-50.3c-1,0-1.8,0.8-1.8,1.8l0,0v50.3
				c0,1,0.8,1.8,1.8,1.8c0,0,0,0,0,0h49.4c0.5,0,0.9,0.4,0.9,0.9v4.6c0,0.5,0.4,0.9,0.9,0.9c0,0,0,0,0,0h6.3c0.5,0,0.9-0.4,0.9-0.9
				V53C911.5,52.5,911.1,52.1,910.6,52.1"/>
			<g transform="translate(861.409 7.548)">
				<path class="st2" d="M0,0v6.9h1.2V1.2h5.7V0H0z"/>
				<path class="st2" d="M-0.3-0.3h7.4v1.7H1.5v5.7h-1.7V-0.3z M6.6,0.2H0.2v6.4H1V1h5.7L6.6,0.2z"/>
				<path class="st2" d="M6.9,36.2H1.2v-5.7H0v6.9h6.9V36.2z"/>
				<path class="st2" d="M7.1,37.7h-7.4v-7.4h1.7V36h5.7V37.7z M0.2,37.2h6.4v-0.7H1v-5.7H0.2L0.2,37.2z"/>
				<path class="st2" d="M33.2,30.6H32v5.7h-5.7v1.2h6.9V30.6z"/>
				<path class="st2" d="M31.7,30.3h1.7v7.4h-7.4V36h5.7L31.7,30.3z M32.9,30.8h-0.7v5.7h-5.7v0.7h6.4V30.8z"/>
				<path class="st2" d="M26.3,0v1.2H32v5.7h1.2V0H26.3z"/>
				<path class="st2" d="M26.1-0.3h7.4v7.4h-1.7V1.5h-5.7V-0.3z M32.9,0.2h-6.4V1h5.7v5.7h0.7L32.9,0.2z"/>
				<path class="st2" d="M18.3,27.7c2.9,0,5.2-2.3,5.2-5.2c0-2.9-2.3-5.2-5.2-5.2s-5.2,2.3-5.2,5.2c0,0,0,0,0,0
					C13.1,25.4,15.4,27.7,18.3,27.7 M18.3,18.6c2.2,0,4,1.8,4,4s-1.8,4-4,4s-4-1.8-4-4c0,0,0,0,0,0C14.3,20.3,16.1,18.6,18.3,18.6"
					/>
				<path class="st2" d="M18.3,28c-3,0-5.4-2.4-5.4-5.4c0-3,2.4-5.4,5.4-5.4c3,0,5.4,2.4,5.4,5.4c0,0,0,0,0,0
					C23.7,25.5,21.3,28,18.3,28z M18.3,17.6c-2.7,0-4.9,2.2-4.9,4.9c0,2.7,2.2,4.9,4.9,4.9c2.7,0,4.9-2.2,4.9-4.9c0,0,0,0,0,0
					C23.2,19.8,21,17.6,18.3,17.6z M18.3,26.8c-2.3,0-4.2-1.9-4.2-4.2c0-2.3,1.9-4.2,4.2-4.2c2.3,0,4.2,1.9,4.2,4.2l0,0
					C22.5,24.9,20.6,26.7,18.3,26.8z M18.3,18.8c-2.1,0-3.7,1.7-3.7,3.7c0,2.1,1.7,3.7,3.7,3.7s3.7-1.7,3.7-3.7c0,0,0,0,0,0
					C22,20.5,20.3,18.8,18.3,18.8z"/>
				<path class="st2" d="M15.6,13.5c-0.7,0.2-1.3,0.5-1.9,0.8l-2.3-1.3l-2.8,2.8L10,18c-0.3,0.6-0.6,1.2-0.8,1.9l-2.6,0.7v4l2.6,0.6
					c0.2,0.7,0.5,1.3,0.8,1.9l-1.3,2.3l2.8,2.8l2.2-1.4c0.6,0.3,1.2,0.6,1.9,0.8l0.7,2.6h4l0.6-2.6c0.7-0.2,1.3-0.5,1.9-0.8l2.3,1.3
					l2.8-2.8L26.5,27c0.3-0.6,0.6-1.2,0.8-1.9l2.6-0.7v-4l-2.6-0.6c-0.2-0.7-0.5-1.3-0.8-1.9l1.3-2.3L25,12.9l-2.2,1.4
					c-0.6-0.3-1.2-0.6-1.9-0.8l-0.7-2.6h-4L15.6,13.5z M16.6,14.5l0.6-2.4h2.1l0.6,2.4l0.4,0.1c0.8,0.2,1.5,0.5,2.2,0.9l0.3,0.2
					l2.1-1.3l1.5,1.5L25.1,18l0.2,0.3c0.4,0.7,0.7,1.4,0.9,2.2l0.1,0.4l2.4,0.6v2.1l-2.3,0.6l-0.1,0.4c-0.2,0.8-0.5,1.5-0.9,2.2
					L25.1,27l1.3,2.1l-1.5,1.5l-2.1-1.2l-0.3,0.2c-0.7,0.4-1.4,0.7-2.2,0.9l-0.4,0.1l-0.6,2.4h-2.1l-0.6-2.4l-0.4-0.1
					c-0.8-0.2-1.5-0.5-2.2-0.9l-0.3-0.2l-2.1,1.3l-1.5-1.5l1.2-2.1l-0.2-0.3c-0.4-0.7-0.7-1.4-0.9-2.2l-0.1-0.4l-2.4-0.6v-2.1
					l2.4-0.6l0.1-0.4c0.2-0.8,0.5-1.5,0.9-2.2l0.2-0.3L10.2,16l1.5-1.5l2.1,1.2l0.3-0.2c0.7-0.4,1.4-0.7,2.2-0.9L16.6,14.5z"/>
				<path class="st2" d="M16,10.7h4.4l0.7,2.6c0.6,0.2,1.1,0.4,1.7,0.7l2.3-1.4l3.1,3.1L26.8,18c0.3,0.5,0.5,1.1,0.7,1.7l2.6,0.6
					v4.4l-2.6,0.7c-0.2,0.6-0.4,1.1-0.7,1.7l1.4,2.3l-3.1,3.1l-2.3-1.4c-0.5,0.3-1.1,0.5-1.7,0.7l-0.6,2.6h-4.4l-0.7-2.6
					c-0.6-0.2-1.1-0.4-1.7-0.7l-2.3,1.4l-3.1-3.1l1.4-2.3C9.5,26.5,9.2,26,9,25.4l-2.6-0.6v-4.4L9,19.7c0.2-0.6,0.4-1.1,0.7-1.7
					l-1.4-2.3l3.1-3.1l2.3,1.4c0.5-0.3,1.1-0.5,1.7-0.7L16,10.7z M20,11.2h-3.6l-0.6,2.5l-0.1,0c-0.6,0.2-1.3,0.4-1.8,0.8l-0.1,0.1
					l-2.2-1.3l-2.6,2.6l1.4,2.2l-0.1,0.1c-0.3,0.6-0.6,1.2-0.8,1.8l0,0.1l-2.5,0.6v3.6L9.4,25l0,0.1c0.2,0.6,0.4,1.3,0.8,1.8
					l0.1,0.1L9,29.3l2.6,2.6l2.2-1.4l0.1,0.1c0.6,0.3,1.2,0.6,1.8,0.8l0.1,0l0.6,2.5h3.6l0.6-2.5l0.1,0c0.6-0.2,1.3-0.4,1.8-0.8
					l0.1-0.1l2.2,1.3l2.6-2.6L26.2,27l0.1-0.1c0.3-0.6,0.6-1.2,0.8-1.8l0-0.1l2.5-0.6v-3.6l-2.5-0.6l0-0.1c-0.2-0.6-0.4-1.3-0.8-1.8
					L26.2,18l1.3-2.2L25,13.2l-2.2,1.4l-0.1-0.1c-0.6-0.3-1.2-0.6-1.8-0.8l-0.1,0L20,11.2z M17,11.9h2.5l0.6,2.4l0.2,0.1
					c0.8,0.2,1.6,0.5,2.3,0.9l0.2,0.1l2.1-1.3l1.8,1.8L25.4,18l0.1,0.2c0.4,0.7,0.8,1.5,1,2.3l0.1,0.2l2.4,0.6v2.5l-2.4,0.6
					l-0.1,0.2c-0.2,0.8-0.5,1.6-1,2.3L25.4,27l1.3,2.1l-1.8,1.8l-2.1-1.3l-0.2,0.1c-0.7,0.4-1.5,0.8-2.3,1l-0.2,0.1l-0.6,2.4h-2.5
					l-0.6-2.4l-0.2-0.1c-0.8-0.2-1.6-0.5-2.3-0.9l-0.2-0.1l-2.1,1.3l-1.8-1.8l1.3-2.1L11,26.9c-0.4-0.7-0.8-1.5-1-2.3L10,24.4
					l-2.4-0.6v-2.5l2.4-0.6l0.1-0.2c0.2-0.8,0.5-1.6,0.9-2.3l0.1-0.2l-1.3-2.1l1.8-1.8l2.1,1.3l0.2-0.1c0.7-0.4,1.5-0.8,2.3-1
					l0.2-0.1L17,11.9z M19.1,12.4h-1.7l-0.5,2.3l-0.5,0.1c-0.8,0.2-1.5,0.5-2.2,0.9L13.7,16l-2-1.2L10.5,16l1.3,2l-0.3,0.5
					c-0.4,0.7-0.7,1.4-0.9,2.2l-0.1,0.5l-2.3,0.6v1.7l2.3,0.5l0.1,0.5c0.2,0.8,0.5,1.5,0.9,2.2l0.3,0.4l-1.2,2l1.2,1.2l2-1.3
					l0.5,0.3c0.7,0.4,1.4,0.7,2.2,0.9l0.5,0.1l0.6,2.3h1.7l0.5-2.3l0.5-0.1c0.8-0.2,1.5-0.5,2.2-0.9l0.4-0.3l2,1.2l1.2-1.2l-1.2-2
					l0.3-0.4c0.4-0.7,0.7-1.4,0.9-2.2l0.1-0.5l2.3-0.6v-1.7l-2.3-0.5L26,20.6c-0.2-0.8-0.5-1.5-0.9-2.2L24.8,18l1.2-2l-1.2-1.2
					l-2,1.3l-0.5-0.3c-0.7-0.4-1.4-0.7-2.2-0.9l-0.5-0.1L19.1,12.4z"/>
				<path class="st2" d="M2.4,19.2h1.2c0-7.3,5.9-13.3,13.2-13.5l-0.9,0.9l0.9,0.9L19,5.3L16.5,3l-0.8,0.9l0.7,0.7
					C8.6,4.9,2.4,11.4,2.4,19.2 M17.1,5.5V5.1l0.2,0.2L17.1,5.5z"/>
				<path class="st2" d="M3.8,19.5H2.1v-0.2c0-7.8,6-14.3,13.7-14.9l-0.5-0.5l1.2-1.2l2.8,2.7l-2.6,2.6l-1.2-1.2L16.1,6
					C9.2,6.5,3.8,12.3,3.8,19.2V19.5z M2.6,19h0.7C3.5,11.6,9.4,5.7,16.8,5.5h0V4.8l-0.4,0C8.8,5.1,2.8,11.3,2.6,19z M16.2,6.7
					l0.5,0.5l1.9-1.9l-2.1-2L16,3.8l1,0.9l0,0l0.6,0.5l-0.8,0.8l0,0L16.2,6.7z"/>
			</g>
		</g>
	</g>
</g>
</svg>
