<svg xmlns="http://www.w3.org/2000/svg" xmlns:xlink="http://www.w3.org/1999/xlink" width="60.234" height="60.234" viewBox="0 0 60.234 60.234"><defs><style>.a{fill:#fff;}.b{fill:#0f7ac9;}.c{clip-path:url(#a);}.d{clip-path:url(#b);}</style><clipPath id="a"><rect class="a" width="26.47" height="25.643" transform="translate(0)"/></clipPath><clipPath id="b"><rect class="a" width="26.47" height="26.47" transform="translate(0 0)"/></clipPath></defs><g transform="translate(-851.266 -2563.766)"><path class="b" d="M114.752,230.329H110.2a.9.9,0,0,1-.895-.9v-49.4a1.8,1.8,0,0,0-1.791-1.8h-50.3a1.8,1.8,0,0,0-1.8,1.8v50.294a1.8,1.8,0,0,0,1.8,1.8H106.61a.9.9,0,0,1,.9.9v4.551a.889.889,0,0,0,.891.893h6.348a.9.9,0,0,0,.9-.893v-6.349a.9.9,0,0,0-.9-.9" transform="translate(795.848 2385.53)"/><g transform="translate(863.92 2571.88)"><g class="c" transform="translate(-5.578 -1.684)"><path class="a" d="M400.463,376.258a2.538,2.538,0,0,0-.94-1.853,11.315,11.315,0,0,0-3.152-1.769,5.17,5.17,0,0,0,1.465-.636.322.322,0,0,0,.138-.193.313.313,0,0,0-.083-.221,3.34,3.34,0,0,1-.94-1.714,9.39,9.39,0,0,1,.276-1.908,18.329,18.329,0,0,0,.415-3.124,2.637,2.637,0,0,0-1.244-2.627,2.4,2.4,0,0,0-1.383-.083,4.426,4.426,0,0,0-2.24-1.438,5.734,5.734,0,0,0-4.312.553c-1.189.774-1.687,1.991-1.687,4.175,0,1.078.055,2.018.111,2.847a11.781,11.781,0,0,1,.028,2.184,2.7,2.7,0,0,1-.609,1.3.3.3,0,0,0-.055.221c0,.083.055.138.138.193a5.874,5.874,0,0,0,1.438.526,10.718,10.718,0,0,0-3.069,1.714,2.685,2.685,0,0,0-.885,1.853v4.7l.111.083c1.3.857,4.783,1.3,8.266,1.3s6.939-.442,8.1-1.3l.111-.083Zm-11.391-3.484.47-.193c.028,0,.055-.028.083-.028s.028,0,.055-.028a1.061,1.061,0,0,0,.554-.967v-.5a4.217,4.217,0,0,0,3.87,0v.5a1.086,1.086,0,0,0,.581.967h.028c.028.028.055.028.083.056l.47.193-.056.221a5.334,5.334,0,0,1-3.041.774,5.27,5.27,0,0,1-3.041-.774Zm3.1-1.769a3.587,3.587,0,0,1-3.594-3.594v-1.106a12.149,12.149,0,0,0,3.484-.83l.277-.138a7.452,7.452,0,0,0,2.073-1.354,8.072,8.072,0,0,0,.47,1.879,2.513,2.513,0,0,0,.774.83c.027.028.055.028.083.056v.664A3.546,3.546,0,0,1,392.169,371.005Zm4.147-4.423a.3.3,0,0,0-.083-.193.854.854,0,0,0-.248-.193,1.5,1.5,0,0,1-.609-.636,5.935,5.935,0,0,1-.415-1.687,1.023,1.023,0,0,0-.138-.3.546.546,0,0,0-.387-.166h0a.525.525,0,0,0-.359.138,7.359,7.359,0,0,1-1.963,1.244l-.277.138a10.521,10.521,0,0,1-3.539.8.261.261,0,0,0-.276.276h0v1.383a4.2,4.2,0,0,0,1.658,3.318v.857a.547.547,0,0,1-.331.5,3.329,3.329,0,0,1-2.35-.277,3.1,3.1,0,0,0,.525-1.272,12.944,12.944,0,0,0-.028-2.295c-.055-.829-.111-1.742-.111-2.82,0-1.963.415-3.041,1.41-3.677a5.111,5.111,0,0,1,3.871-.5,3.53,3.53,0,0,1,2.018,1.326.277.277,0,0,0,.3.138,2.157,2.157,0,0,1,1.189,0c.608.332.968.8.968,2.129a17.491,17.491,0,0,1-.415,3.014,10.628,10.628,0,0,0-.277,2.073,3.418,3.418,0,0,0,.858,1.825,2.928,2.928,0,0,1-2.3.359.522.522,0,0,1-.3-.5v-.857a4.164,4.164,0,0,0,1.659-3.318Zm-11.888,9.677a2.022,2.022,0,0,1,.719-1.465,11.556,11.556,0,0,1,3.4-1.825l2.433,8.82c-2.793-.083-5.419-.47-6.553-1.106Zm7.133,5.529-2.212-8.018a7.466,7.466,0,0,0,5.639,0l-2.212,8.018C392.363,381.815,391.976,381.788,391.561,381.788Zm1.8,0L395.791,373a11.54,11.54,0,0,1,3.4,1.825,1.919,1.919,0,0,1,.719,1.438v4.423C398.859,381.345,396.206,381.7,393.358,381.788Z" transform="translate(-379.076 -358.316)"/><path class="a" d="M392.252,382.67c-3.092,0-6.935-.356-8.448-1.354l-.016-.011-.243-.182v-4.878a3.023,3.023,0,0,1,.994-2.085l.007-.006a10.03,10.03,0,0,1,2.313-1.412,6.224,6.224,0,0,1-.6-.273l-.047-.027a.564.564,0,0,1-.285-.468.61.61,0,0,1,.133-.434,2.4,2.4,0,0,0,.533-1.123l0-.018a9.919,9.919,0,0,0-.017-1.862l-.015-.248c-.058-.859-.111-1.8-.111-2.867,0-2.282.549-3.614,1.837-4.452l.018-.011a6.068,6.068,0,0,1,4.558-.584l.018.005a4.97,4.97,0,0,1,2.275,1.4,4.072,4.072,0,0,1,.534-.038,1.767,1.767,0,0,1,.875.188l0,0a2.941,2.941,0,0,1,1.406,2.911,18.323,18.323,0,0,1-.414,3.149l-.008.042a10.346,10.346,0,0,0-.27,1.813,2.949,2.949,0,0,0,.84,1.505.643.643,0,0,1,.184.458v.054l-.017.051a.646.646,0,0,1-.267.362h0a4.732,4.732,0,0,1-.735.393,10.391,10.391,0,0,1,2.45,1.485,2.851,2.851,0,0,1,1.059,2.093v4.878l-.243.182a8.038,8.038,0,0,1-3.328,1.033A34.726,34.726,0,0,1,392.252,382.67Zm-.439-1.21.166,0c.134,0,.261.006.391.006l.153,0,1.971-7.144a8.379,8.379,0,0,1-4.649,0Zm4.2-8.024-2.216,8.007a16.45,16.45,0,0,0,5.785-.952v-4.232a1.609,1.609,0,0,0-.606-1.189A10.5,10.5,0,0,0,396.011,373.436Zm-11.253,7.045a17.548,17.548,0,0,0,5.785.961l-2.216-8.034a10.53,10.53,0,0,0-2.959,1.63,1.682,1.682,0,0,0-.61,1.22Zm4.843-7.567a6.509,6.509,0,0,0,5.131,0l-.123-.051-.007-.006-.073-.039a1.41,1.41,0,0,1-.754-1.247,4.572,4.572,0,0,1-3.21,0,1.4,1.4,0,0,1-.688,1.225.351.351,0,0,1-.177.083.423.423,0,0,1-.062.021Zm5.441-2.024v.7a.207.207,0,0,0,.1.194l.013.006a1.111,1.111,0,0,0,.484.1,3.065,3.065,0,0,0,1.152-.285,3.383,3.383,0,0,1-.671-1.676,2.782,2.782,0,0,1,0-.321A4.482,4.482,0,0,1,395.043,370.89Zm-7.557.728a3.72,3.72,0,0,0,1.177.237,1.367,1.367,0,0,0,.552-.1.218.218,0,0,0,.135-.2v-.7a4.578,4.578,0,0,1-1.5-2.318,10.682,10.682,0,0,1,0,2.015v.005A3.334,3.334,0,0,1,387.486,371.618Zm1.419-5.006v.8a3.268,3.268,0,0,0,3.264,3.264,3.227,3.227,0,0,0,2.316-.963,3.182,3.182,0,0,0,.921-2.3v-.495a2.812,2.812,0,0,1-.811-.891l-.007-.013a5.55,5.55,0,0,1-.4-1.4,8.046,8.046,0,0,1-1.472.895l-.225.116-.3.15A12.921,12.921,0,0,1,388.9,366.611Zm7.584-.433a.635.635,0,0,1,.151.326,10.771,10.771,0,0,0,.175-1.692c0-1.3-.36-1.6-.8-1.839l-.017-.01h0a.758.758,0,0,0-.287-.034,3.184,3.184,0,0,0-.65.075.572.572,0,0,1-.135.016.606.606,0,0,1-.533-.313,3.33,3.33,0,0,0-1.822-1.172,4.755,4.755,0,0,0-1.238-.165,4.835,4.835,0,0,0-2.372.629c-.888.571-1.25,1.556-1.25,3.394q0,.215,0,.423a.59.59,0,0,1,.58-.421,10.279,10.279,0,0,0,3.4-.77l.271-.135a7.037,7.037,0,0,0,1.886-1.191.853.853,0,0,1,.584-.226.875.875,0,0,1,.621.262l.023.023.018.027a1.351,1.351,0,0,1,.184.407l.007.038a5.823,5.823,0,0,0,.37,1.559l.008.014a1.167,1.167,0,0,0,.482.506l.018.011.047.03A.952.952,0,0,1,396.489,366.179Z" transform="translate(-379.076 -358.316)"/></g><g class="d" transform="translate(7.659 13.205)"><g transform="translate(4.559 2.135)"><path class="a" d="M420.58,400.414a2.426,2.426,0,0,0-.931-1.867,11.334,11.334,0,0,0-3.447-1.78l-1.36-.558a.551.551,0,0,1-.342-.512v-.815a4.139,4.139,0,0,0,1.66-3.311v-.182l.605-.779a1.507,1.507,0,0,0,.307-1.093,5.046,5.046,0,0,0-2.806-4.075.646.646,0,0,0-.65.055l-.035.024-.123-.169a.852.852,0,0,0-.542-.342,5.013,5.013,0,0,0-5.784,4.02l-.01.056a4.665,4.665,0,0,1-.708,1.739.276.276,0,0,0,.23.43h1.221v.317a4.141,4.141,0,0,0,1.656,3.309v.816a.552.552,0,0,1-.343.512l-1.368.561a11.344,11.344,0,0,0-3.433,1.773,2.438,2.438,0,0,0-.935,1.876v4.71l.123.083c1.293.862,4.929,1.292,8.536,1.292,3.622,0,7.214-.434,8.369-1.3l.11-.085Zm-12.915-11.227.009-.055a4.46,4.46,0,0,1,5.146-3.576.308.308,0,0,1,.19.124l.282.387a.277.277,0,0,0,.382.064l.255-.178a.1.1,0,0,1,.093-.012,4.491,4.491,0,0,1,2.5,3.627.956.956,0,0,1-.193.708l-.2.253a2.079,2.079,0,0,0-.485-1.029l-.939-1.077a.275.275,0,0,0-.277-.085,2.348,2.348,0,0,0-1.174.962,2.985,2.985,0,0,1-2.627,1.4h-3.5A5.2,5.2,0,0,0,407.665,389.187Zm.753,2.386v-.318h2.212a3.529,3.529,0,0,0,3.059-1.611,2.49,2.49,0,0,1,.728-.714l.814.933a1.53,1.53,0,0,1,.376,1v.707a3.594,3.594,0,0,1-7.189,0Zm.971,5.148a1.1,1.1,0,0,0,.686-1.023v-.461a4.128,4.128,0,0,0,3.872,0v.459a1.1,1.1,0,0,0,.686,1.023l.5.205-1.269,9c-.487.019-.983.03-1.481.032l.976-1.015-.344-5.751.61-2.094H410.4l.6,2.075-.337,5.77.973,1.012c-.5-.005-1-.018-1.484-.04l-1.268-8.994Zm3.177,2.039h-1.108l-.322-1.106h1.752Zm-1.017.554h.918l.324,5.425-.779.811-.78-.811Zm-3.187-2.151,1.231,8.728a15.329,15.329,0,0,1-5.6-1.063v-4.4a1.887,1.887,0,0,1,.727-1.451,10.789,10.789,0,0,1,3.246-1.673Zm7.69.138a10.777,10.777,0,0,1,3.252,1.677,1.882,1.882,0,0,1,.723,1.441v4.417c-.91.579-3.1.933-5.6,1.066l1.234-8.741Z" transform="translate(-403.442 -384.937)"/><path class="a" d="M412.1,406.836c-3.238,0-7.228-.354-8.719-1.348l-.27-.182v-4.892a2.757,2.757,0,0,1,1.059-2.128,11.634,11.634,0,0,1,3.521-1.824l1.361-.558a.223.223,0,0,0,.138-.206v-.656a4.5,4.5,0,0,1-1.656-3.457h-.891a.606.606,0,0,1-.5-.943,4.312,4.312,0,0,0,.658-1.616l.01-.054a5.338,5.338,0,0,1,6.165-4.286,1.174,1.174,0,0,1,.707.414,1,1,0,0,1,.729.045,5.409,5.409,0,0,1,2.993,4.34,1.827,1.827,0,0,1-.375,1.329l-.536.689v.069a4.492,4.492,0,0,1-1.66,3.472v.653a.22.22,0,0,0,.137.206l1.354.555a11.621,11.621,0,0,1,3.535,1.83,2.745,2.745,0,0,1,1.055,2.118v4.874l-.239.184a8.084,8.084,0,0,1-3.414,1.041A37.45,37.45,0,0,1,412.1,406.836Zm1.543-1.708-.475.494.407-.011Zm-3.2.475.406.013-.474-.493Zm5.485-7.994-1.121,7.943a14.368,14.368,0,0,0,4.89-.9v-4.223a1.547,1.547,0,0,0-.6-1.185l-.006,0a10.476,10.476,0,0,0-3.154-1.622Zm-11.6,7.022a15.354,15.354,0,0,0,4.885.907l-1.118-7.928-.013,0a10.646,10.646,0,0,0-3.147,1.618l-.006,0a1.55,1.55,0,0,0-.6,1.194Zm7.245-.016.442.46.441-.459-.3-4.971h-.3Zm-2.32-7.479,1.09,7.732.33-5.652-.71-2.443h4.1l-.717,2.462.336,5.611,1.087-7.712-.263-.108a1.425,1.425,0,0,1-.89-1.276,4.455,4.455,0,0,1-3.214,0,1.427,1.427,0,0,1-.89,1.277Zm2.455,1.3h.613l.13-.446h-.872Zm-2.958-6.846a3.264,3.264,0,0,0,6.529-.012v-.707a1.2,1.2,0,0,0-.295-.786l-.615-.7a2.152,2.152,0,0,0-.4.452l-.016.023a3.858,3.858,0,0,1-3.317,1.735Zm-1.093-1.214h2.975A2.677,2.677,0,0,0,413,389.094a2.631,2.631,0,0,1,1.35-1.076.605.605,0,0,1,.609.188l.939,1.077a2.413,2.413,0,0,1,.3.437.618.618,0,0,0,0-.11V389.6a4.186,4.186,0,0,0-2.188-3.3l-.142.1a.607.607,0,0,1-.836-.139l-.28-.384a4.172,4.172,0,0,0-.693-.058A4.129,4.129,0,0,0,408,389.192l-.009.051A5.554,5.554,0,0,1,407.654,390.371Z" transform="translate(-403.442 -384.937)"/><path class="a" d="M423.565,410.75h2.488v.553h-2.488Z" transform="translate(-410.849 -394.438)"/><path class="a" d="M423.235,410.42h3.148v1.213h-3.148Z" transform="translate(-410.849 -394.438)"/></g></g></g></g></svg>