<svg xmlns="http://www.w3.org/2000/svg" xmlns:xlink="http://www.w3.org/1999/xlink" width="60.234" height="60.234" viewBox="0 0 60.234 60.234"><defs><style>.a,.d{fill:#fff;}.a{stroke:#fff;stroke-width:0.8px;}.b{fill:#0f7ac9;}.c{clip-path:url(#a);}</style><clipPath id="a"><rect class="a" width="35.235" height="35.238" transform="translate(-2 -2)"/></clipPath></defs><g transform="translate(-851.266 -2563.766)"><path class="b" d="M114.752,230.329H110.2a.9.9,0,0,1-.895-.9v-49.4a1.8,1.8,0,0,0-1.791-1.8h-50.3a1.8,1.8,0,0,0-1.8,1.8v50.294a1.8,1.8,0,0,0,1.8,1.8H106.61a.9.9,0,0,1,.9.9v4.551a.889.889,0,0,0,.891.893h6.348a.9.9,0,0,0,.9-.893v-6.349a.9.9,0,0,0-.9-.9" transform="translate(795.848 2385.53)"/><g transform="translate(859.406 2572.291)"><g transform="translate(2.977 2.971)"><g class="c"><path class="d" d="M393.389,156.834a.244.244,0,0,0-.474.115,15.209,15.209,0,0,1-.948,9.891.245.245,0,0,0,.446.2,15.7,15.7,0,0,0,.976-10.209" transform="translate(-362.594 -144.917)"/><path class="d" d="M392.192,167.585h-.008a.644.644,0,0,1-.58-.912,14.873,14.873,0,0,0,.922-9.631.644.644,0,0,1,.475-.777.644.644,0,0,1,.777.475,16.169,16.169,0,0,1-1,10.469A.646.646,0,0,1,392.192,167.585Z" transform="translate(-362.594 -144.917)"/><path class="d" d="M307.157,374.882a11.446,11.446,0,0,1-1.1.677.244.244,0,1,0,.231.43,11.97,11.97,0,0,0,1.145-.706l.009-.007a.244.244,0,1,0-.287-.395" transform="translate(-283.018 -346.766)"/><path class="d" d="M306.171,376.419a.647.647,0,0,1-.644-.635.64.64,0,0,1,.344-.579,11.09,11.09,0,0,0,1.055-.65.644.644,0,0,1,.754,1.044l-.019.014a12.434,12.434,0,0,1-1.18.727.644.644,0,0,1-.3.079Z" transform="translate(-283.018 -346.766)"/><path class="d" d="M75.827,354.222a15.077,15.077,0,0,1-14.816-3.311h3.32a.244.244,0,1,0,0-.488H60.439a.242.242,0,0,0-.277.273v3.9a.244.244,0,1,0,.488,0V351.24a15.572,15.572,0,0,0,15.323,3.447.244.244,0,1,0-.146-.465" transform="translate(-55.655 -324.179)"/><path class="d" d="M71.252,355.817h0a15.9,15.9,0,0,1-10.2-3.691v2.466a.644.644,0,1,1-1.288,0v-3.875a.639.639,0,0,1,.177-.5.649.649,0,0,1,.523-.193h3.869a.644.644,0,1,1,0,1.288H62.087a14.675,14.675,0,0,0,13.619,2.53.644.644,0,1,1,.388,1.228A16.068,16.068,0,0,1,71.252,355.817Z" transform="translate(-55.655 -324.179)"/><path class="d" d="M355.18,332.412a.244.244,0,0,0-.341.049,11.49,11.49,0,0,1-.921,1.063.244.244,0,1,0,.351.337,12.011,12.011,0,0,0,.96-1.108h0a.244.244,0,0,0-.049-.341" transform="translate(-327.35 -307.475)"/><path class="d" d="M354.093,334.339h0a.644.644,0,0,1-.461-1.094,11.134,11.134,0,0,0,.889-1.027.644.644,0,0,1,1.029.774l-.008.01a12.453,12.453,0,0,1-.985,1.137.647.647,0,0,1-.462.2Z" transform="translate(-327.35 -307.475)"/><path class="d" d="M26.668,4.922a.243.243,0,0,0,.066-.2V.825a.244.244,0,1,0-.488,0V4.178A15.613,15.613,0,0,0,.275,18.519a.244.244,0,0,0,.239.2.237.237,0,0,0,.045,0h0a.244.244,0,0,0,.195-.285A15.126,15.126,0,0,1,25.883,4.506H22.564a.244.244,0,1,0,0,.488h3.9a.243.243,0,0,0,.206-.072" transform="translate(0 0)"/><path class="d" d="M.516,19.118h0a.645.645,0,0,1-.631-.526,16.014,16.014,0,0,1,25.963-15.3V.825a.644.644,0,0,1,1.288,0V4.707a.641.641,0,0,1-.64.689l-.05,0H22.564a.644.644,0,1,1,0-1.288h2.241A14.726,14.726,0,0,0,1.148,18.354a.645.645,0,0,1-.514.752l-.012,0A.64.64,0,0,1,.516,19.118Z" transform="translate(0 0)"/><path class="d" d="M80.839,70.475A10.341,10.341,0,1,0,91.18,80.816h0a10.341,10.341,0,0,0-10.341-10.34m9.823,10.342a9.823,9.823,0,1,1-9.822-9.823,9.822,9.822,0,0,1,9.822,9.823Z" transform="translate(-65.227 -65.197)"/><path class="d" d="M80.839,70.075a10.741,10.741,0,1,1-7.595,3.146A10.67,10.67,0,0,1,80.839,70.075Zm0,20.564v-.4a9.423,9.423,0,1,0-6.663-2.76,9.433,9.433,0,0,0,6.663,2.76v.518h0Z" transform="translate(-65.227 -65.197)"/><path class="d" d="M148.8,139.007c-.1.069-.194.136-.29.2l-1.523.984-1.548-.991a6.4,6.4,0,0,1-2.964-5.416l0-3.984a16.892,16.892,0,0,0,4.495-1.748,17.056,17.056,0,0,0,1.709.841.243.243,0,0,0,.19-.448,16.556,16.556,0,0,1-1.661-.816.484.484,0,0,0-.472,0,16.506,16.506,0,0,1-4.371,1.7.48.48,0,0,0-.373.468v3.99a6.886,6.886,0,0,0,3.189,5.826l1.549.991a.483.483,0,0,0,.519,0l1.53-.984c.1-.066.208-.138.311-.212a.243.243,0,0,0-.285-.395" transform="translate(-131.355 -118.012)"/><path class="d" d="M146.984,141.075a.879.879,0,0,1-.474-.138l-1.549-.991a7.284,7.284,0,0,1-3.373-6.163v-3.99a.878.878,0,0,1,.682-.858,16.109,16.109,0,0,0,4.266-1.657.9.9,0,0,1,.865,0,16.15,16.15,0,0,0,1.62.8.643.643,0,1,1-.5,1.185c-.524-.222-1.046-.474-1.553-.751a17.279,17.279,0,0,1-4.095,1.605l0,3.669a6,6,0,0,0,2.78,5.079l1.332.852,1.307-.845c.091-.058.183-.121.273-.186a.643.643,0,1,1,.753,1.044c-.108.078-.219.154-.329.224l-1.53.984A.88.88,0,0,1,146.984,141.075Z" transform="translate(-131.355 -118.012)"/><path class="d" d="M247.138,145.74c-.5-.116-1-.257-1.484-.418a.243.243,0,0,0-.154.462,15.574,15.574,0,0,0,1.524.424v4a6.4,6.4,0,0,1-1.675,4.331.243.243,0,1,0,.359.329,6.887,6.887,0,0,0,1.8-4.66v-4a.48.48,0,0,0-.373-.468" transform="translate(-226.918 -134.428)"/><path class="d" d="M245.53,155.352a.643.643,0,0,1-.475-1.078,6,6,0,0,0,1.57-4.061v-3.688c-.412-.1-.832-.223-1.25-.362a.643.643,0,1,1,.406-1.221c.472.157.959.294,1.448.408a.879.879,0,0,1,.683.858v4a7.286,7.286,0,0,1-1.907,4.93A.646.646,0,0,1,245.53,155.352Z" transform="translate(-226.918 -134.428)"/><path class="d" d="M177.672,159.29h-3.185v-.93a1.381,1.381,0,0,1,2.762,0,.243.243,0,1,0,.487,0,1.868,1.868,0,0,0-3.735,0v.933a.837.837,0,0,0-.773.834v.863a.243.243,0,0,0,.487,0v-.863a.35.35,0,0,1,.35-.35h3.609a.35.35,0,0,1,.35.35v3.049a.35.35,0,0,1-.35.35h-3.609a.35.35,0,0,1-.35-.35v-.863a.243.243,0,0,0-.487,0v.863a.838.838,0,0,0,.837.837h3.609a.838.838,0,0,0,.837-.837v-3.049a.838.838,0,0,0-.837-.837" transform="translate(-160.254 -144.773)"/><path class="d" d="M177.672,164.163h-3.609a.988.988,0,0,1-.987-.987v-.863a.393.393,0,0,1,.787,0v.863a.2.2,0,0,0,.2.2h3.609a.2.2,0,0,0,.2-.2v-3.049a.2.2,0,0,0-.2-.2h-3.609a.2.2,0,0,0-.2.2v.863a.393.393,0,0,1-.787,0v-.863a.991.991,0,0,1,.773-.963v-.8a2.018,2.018,0,0,1,4.035,0,.393.393,0,1,1-.787,0,1.231,1.231,0,0,0-2.462,0v.78h3.035a.988.988,0,0,1,.987.987v3.049A.988.988,0,0,1,177.672,164.163Zm-4.2-1.943a.093.093,0,0,0-.093.093v.863a.688.688,0,0,0,.687.687h3.609a.688.688,0,0,0,.687-.687v-3.049a.688.688,0,0,0-.687-.687h-3.335v-1.08a1.531,1.531,0,0,1,3.062,0,.093.093,0,1,0,.187,0,1.718,1.718,0,0,0-3.435,0v1.072l-.139.01a.689.689,0,0,0-.635.684v.863a.093.093,0,0,0,.187,0v-.863a.5.5,0,0,1,.5-.5h3.609a.5.5,0,0,1,.5.5v3.049a.5.5,0,0,1-.5.5h-3.609a.5.5,0,0,1-.5-.5v-.863A.094.094,0,0,0,173.469,162.219Z" transform="translate(-160.254 -144.773)"/><path class="d" d="M198.4,216.39a.243.243,0,0,0,.243-.243v-.284a.817.817,0,1,0-.487,0v.284a.243.243,0,0,0,.243.243m0-1.637a.33.33,0,1,1-.33.33.331.331,0,0,1,.33-.33" transform="translate(-182.79 -198.221)"/><path class="d" d="M198.4,216.54a.394.394,0,0,1-.393-.393v-.18a.967.967,0,1,1,.787,0v.18A.394.394,0,0,1,198.4,216.54Zm0-2.124a.667.667,0,0,0-.2,1.3l.105.033v.394a.093.093,0,0,0,.187,0v-.394l.105-.033a.667.667,0,0,0-.2-1.3Zm0,1.147a.48.48,0,1,1,.48-.48A.481.481,0,0,1,198.4,215.563Zm0-.66a.18.18,0,1,0,.18.18A.18.18,0,0,0,198.4,214.9Z" transform="translate(-182.79 -198.221)"/></g></g></g></g></svg>