<svg xmlns="http://www.w3.org/2000/svg" width="60.234" height="60.234" viewBox="0 0 60.234 60.234"><defs><style>.a{fill:#0f7ac9;}.b{fill:#fff;}</style></defs><g transform="translate(-851.266 -2563.766)"><path class="a" d="M114.752,230.329H110.2a.9.9,0,0,1-.895-.9v-49.4a1.8,1.8,0,0,0-1.791-1.8h-50.3a1.8,1.8,0,0,0-1.8,1.8v50.294a1.8,1.8,0,0,0,1.8,1.8H106.61a.9.9,0,0,1,.9.9v4.551a.889.889,0,0,0,.891.893h6.348a.9.9,0,0,0,.9-.893v-6.349a.9.9,0,0,0-.9-.9" transform="translate(795.848 2385.53)"/><g transform="translate(857.458 2573.875)"><g transform="translate(16.989)"><path class="b" d="M6.919-1A7.918,7.918,0,1,1-1,6.918,7.928,7.928,0,0,1,6.919-1Zm0,13.836A5.918,5.918,0,1,0,1,6.918,5.925,5.925,0,0,0,6.919,12.836Z" transform="translate(4.295)"/><path class="b" d="M779.29,234.992h-2V230.4a6.988,6.988,0,0,0-6.981-6.979h-6.473a6.988,6.988,0,0,0-6.981,6.979v4.594h-2V230.4a8.99,8.99,0,0,1,8.981-8.979h6.473a8.99,8.99,0,0,1,8.981,8.979Z" transform="translate(-755.855 -206.941)"/></g><path class="b" d="M741.106,233.861a1.83,1.83,0,0,1-1.753-1.326l-.642-2.3a1.823,1.823,0,0,1,1.756-2.314h13.958v2H740.7l.542,1.937h13.179v2H741.106Z" transform="translate(-739.643 -206.631)"/><path class="b" d="M742.662,229.55h-2V217.273a2.479,2.479,0,0,1,2.476-2.476h16.125v2H743.138a.477.477,0,0,0-.476.476Z" transform="translate(-739.546 -207.257)"/></g></g></svg>