<svg xmlns="http://www.w3.org/2000/svg" width="60" height="60" viewBox="0 0 60 60"><path d="M114.521,230.126h-4.535a.892.892,0,0,1-.891-.892V180.027a1.79,1.79,0,0,0-1.784-1.791h-50.1a1.794,1.794,0,0,0-1.79,1.791v50.1a1.792,1.792,0,0,0,1.79,1.791h49.2a.894.894,0,0,1,.9.9v4.533a.886.886,0,0,0,.887.89h6.324a.892.892,0,0,0,.9-.89v-6.325a.9.9,0,0,0-.9-.9" transform="translate(-55.418 -178.236)" fill="#768ec7"/><g transform="translate(1922.833 -463.86)"><path d="M-1885.552,480.748h5.118a1.418,1.418,0,0,1,1.419,1.419v20.34a1.418,1.418,0,0,1-1.419,1.419h-31.685a1.418,1.418,0,0,1-1.418-1.419v-20.34a1.418,1.418,0,0,1,1.418-1.419h15.078" transform="translate(0 -2.249)" fill="none" stroke="#fff" stroke-miterlimit="10" stroke-width="2"/><line y2="3.103" transform="translate(-1899.682 501.841)" fill="none" stroke="#fff" stroke-miterlimit="10" stroke-width="2"/><line y2="3.103" transform="translate(-1892.933 501.841)" fill="none" stroke="#fff" stroke-miterlimit="10" stroke-width="2"/><line x2="11.601" transform="translate(-1902.083 505.274)" fill="none" stroke="#fff" stroke-miterlimit="10" stroke-width="2"/><line x2="33.807" transform="translate(-1913.218 497.879)" fill="none" stroke="#fff" stroke-miterlimit="10" stroke-width="2"/><line y2="15.104" transform="translate(-1909.619 482.56)" fill="none" stroke="#fff" stroke-miterlimit="10" stroke-width="2"/><path d="M-1903.365,502.234V496.49h4.655v5.745" transform="translate(-3.995 -6.947)" fill="none" stroke="#fff" stroke-miterlimit="10" stroke-width="2"/><path d="M-1893.976,500.809v-9.26h4.655v9.26" transform="translate(-6.468 -5.472)" fill="none" stroke="#fff" stroke-miterlimit="10" stroke-width="2"/><line x2="3.912" transform="translate(-1885.552 485.036)" fill="none" stroke="#fff" stroke-miterlimit="10" stroke-width="2"/><line x2="3.912" transform="translate(-1885.552 487.661)" fill="none" stroke="#fff" stroke-miterlimit="10" stroke-width="2"/><line x2="3.912" transform="translate(-1885.552 490.137)" fill="none" stroke="#fff" stroke-miterlimit="10" stroke-width="2"/><path d="M-1881.478,495.287v-14.1a.079.079,0,0,1,.079-.079l2.309,0a.079.079,0,0,0,.068-.119l-2.234-3.869-2.234-3.868a.079.079,0,0,0-.137,0l-2.234,3.868-2.234,3.869a.079.079,0,0,0,.069.119l2.309,0a.078.078,0,0,1,.079.079v14.1" transform="translate(-7.59)" fill="none" stroke="#fff" stroke-miterlimit="10" stroke-width="2"/></g></svg>