<svg xmlns="http://www.w3.org/2000/svg" width="60.146" height="60.146" viewBox="0 0 60.146 60.146"><path d="M114.664,230.252h-4.546a.894.894,0,0,1-.893-.894V180.032a1.794,1.794,0,0,0-1.789-1.8H57.213a1.8,1.8,0,0,0-1.795,1.8v50.22a1.8,1.8,0,0,0,1.795,1.8h49.322a.9.9,0,0,1,.9.9v4.544a.888.888,0,0,0,.889.892h6.339a.894.894,0,0,0,.9-.892v-6.34a.9.9,0,0,0-.9-.9" transform="translate(-55.418 -178.236)" fill="#768ec7"/><g transform="translate(1929.141 -386.953)"><rect width="13.933" height="9.318" transform="translate(-1909.145 398.064)" fill="none" stroke="#fff" stroke-miterlimit="10" stroke-width="2"/><g transform="translate(-1905.814 401.752)"><path d="M-1895.44,406.115l-1.036-1.036,1.036-1.036" transform="translate(1896.476 -404.043)" fill="none" stroke="#fff" stroke-miterlimit="10" stroke-width="2"/><path d="M-1886.347,404.043l1.036,1.036-1.036,1.036" transform="translate(1892.595 -404.043)" fill="none" stroke="#fff" stroke-miterlimit="10" stroke-width="2"/><line x2="7.147" transform="translate(0.061 1.056)" fill="none" stroke="#fff" stroke-miterlimit="10" stroke-width="2"/></g><path d="M-1890.386,415a.811.811,0,0,0,.284.617l.862.737h-6.967l.841-.737a.811.811,0,0,0,.276-.61V413.24h4.7Z" transform="translate(-9.441 -5.815)" fill="none" stroke="#fff" stroke-miterlimit="10" stroke-width="2"/><rect width="13.933" height="9.318" transform="translate(-1920.847 414.713)" fill="none" stroke="#fff" stroke-miterlimit="10" stroke-width="2"/><g transform="translate(-1917.515 418.401)"><path d="M-1914.41,433.106l-1.036-1.036,1.036-1.036" transform="translate(1915.446 -431.034)" fill="none" stroke="#fff" stroke-miterlimit="10" stroke-width="2"/><path d="M-1905.316,431.034l1.036,1.036-1.036,1.036" transform="translate(1911.565 -431.034)" fill="none" stroke="#fff" stroke-miterlimit="10" stroke-width="2"/><line x2="7.147" transform="translate(0.061 1.056)" fill="none" stroke="#fff" stroke-miterlimit="10" stroke-width="2"/></g><path d="M-1909.356,441.991a.809.809,0,0,0,.284.616l.862.737h-6.967l.841-.738a.81.81,0,0,0,.276-.609v-1.766h4.7Z" transform="translate(-2.173 -16.156)" fill="none" stroke="#fff" stroke-miterlimit="10" stroke-width="2"/><rect width="13.933" height="9.318" transform="translate(-1897.218 414.713)" fill="none" stroke="#fff" stroke-miterlimit="10" stroke-width="2"/><g transform="translate(-1893.886 418.401)"><path d="M-1876.1,433.106l-1.036-1.036,1.036-1.036" transform="translate(1877.14 -431.034)" fill="none" stroke="#fff" stroke-miterlimit="10" stroke-width="2"/><path d="M-1867.01,431.034l1.036,1.036-1.036,1.036" transform="translate(1873.259 -431.034)" fill="none" stroke="#fff" stroke-miterlimit="10" stroke-width="2"/><line x2="7.147" transform="translate(0.061 1.056)" fill="none" stroke="#fff" stroke-miterlimit="10" stroke-width="2"/></g><path d="M-1871.05,441.991a.809.809,0,0,0,.284.616l.862.737h-6.967l.841-.738a.808.808,0,0,0,.276-.609v-1.766h4.7Z" transform="translate(-16.85 -16.156)" fill="none" stroke="#fff" stroke-miterlimit="10" stroke-width="2"/><line x2="9.623" transform="translate(-1906.794 419.225)" fill="none" stroke="#fff" stroke-miterlimit="10" stroke-width="2"/><line y2="8.708" transform="translate(-1902.222 410.517)" fill="none" stroke="#fff" stroke-miterlimit="10" stroke-width="2"/></g></svg>