<svg xmlns="http://www.w3.org/2000/svg" width="60.146" height="60.146" viewBox="0 0 60.146 60.146"><path d="M114.664,230.252h-4.546a.894.894,0,0,1-.893-.894V180.032a1.794,1.794,0,0,0-1.789-1.8H57.213a1.8,1.8,0,0,0-1.795,1.8v50.22a1.8,1.8,0,0,0,1.795,1.8h49.322a.9.9,0,0,1,.9.9v4.544a.888.888,0,0,0,.889.892h6.339a.894.894,0,0,0,.9-.892v-6.34a.9.9,0,0,0-.9-.9" transform="translate(-55.418 -178.236)" fill="#768ec7"/><g transform="translate(1916.851 -699.161)"><path d="M-1901.117,709.595l6.734,3.174.1,8.273-6.734,2.79-7.214-2.886.1-8.369Z" transform="translate(0.521 -1.609)" fill="none" stroke="#fff" stroke-miterlimit="10" stroke-width="2"/><path d="M-1897.647,718.066v0Z" transform="translate(-2.852 -4.308)" fill="none" stroke="#fff" stroke-miterlimit="10" stroke-width="2"/><path d="M-1894.338,714.164l-6.637,2.6-7.118-2.79" transform="translate(0.476 -3.004)" fill="none" stroke="#fff" stroke-miterlimit="10" stroke-width="2"/><line x2="13.082" transform="translate(-1909.165 726.801)" fill="none" stroke="#fff" stroke-miterlimit="10" stroke-width="2"/><line x2="13.082" transform="translate(-1909.165 729.687)" fill="none" stroke="#fff" stroke-miterlimit="10" stroke-width="2"/><line x2="8.657" transform="translate(-1909.165 732.476)" fill="none" stroke="#fff" stroke-miterlimit="10" stroke-width="2"/><path d="M-1869.406,715.929h0a3.439,3.439,0,0,1-3.161-3.126l-.046-.435a3.178,3.178,0,0,1,3.16-3.513h.1a3.178,3.178,0,0,1,3.156,3.548l-.051.436A3.44,3.44,0,0,1-1869.406,715.929Z" transform="translate(-10.689 -0.05)" fill="none" stroke="#fff" stroke-miterlimit="10" stroke-width="2"/><path d="M-1860.538,727.264v7.272a1.882,1.882,0,0,1-1.883,1.883h-.639" transform="translate(-13.284 -5.041)" fill="none" stroke="#fff" stroke-miterlimit="10" stroke-width="2"/><path d="M-1876.851,749.084v-23.74a.158.158,0,0,0-.277-.1l-3.489,3.991a1.778,1.778,0,0,1-1.3.722h-4.119a1.493,1.493,0,0,1-1.518-1.312,1.421,1.421,0,0,1,.411-1.123,1.452,1.452,0,0,1,1.013-.415h3.644l4.92-5.707a1.4,1.4,0,0,1,.962-.474l4.643-.032a4.778,4.778,0,0,1,4.778,4.779" transform="translate(-6.643 -3.313)" fill="none" stroke="#fff" stroke-miterlimit="10" stroke-width="2"/><line x2="0.011" y2="23.597" transform="translate(-1876.411 722.172)" fill="none" stroke="#fff" stroke-miterlimit="10" stroke-width="2"/><line x2="7.135" transform="translate(-1883.546 745.043)" fill="none" stroke="#fff" stroke-miterlimit="10" stroke-width="2"/><line y2="14.063" transform="translate(-1880.116 730.37)" fill="none" stroke="#fff" stroke-miterlimit="10" stroke-width="2"/></g></svg>