<svg xmlns="http://www.w3.org/2000/svg" width="60" height="60" viewBox="0 0 60 60"><path d="M114.521,230.126h-4.535a.892.892,0,0,1-.891-.892V180.027a1.79,1.79,0,0,0-1.784-1.791h-50.1a1.794,1.794,0,0,0-1.79,1.791v50.1a1.792,1.792,0,0,0,1.79,1.791h49.2a.894.894,0,0,1,.9.9v4.533a.886.886,0,0,0,.887.89h6.324a.892.892,0,0,0,.9-.89v-6.325a.9.9,0,0,0-.9-.9" transform="translate(-55.418 -178.236)" fill="#768ec7"/><g transform="translate(1921.068 -539.68)"><circle cx="3.566" cy="3.566" r="3.566" transform="translate(-1898.021 562.957)" fill="none" stroke="#fff" stroke-miterlimit="10" stroke-width="2"/><path d="M-1882.027,571.494v-2.375l-1.919-.451a6.815,6.815,0,0,0-.776-1.866l1-1.7-1.677-1.678-1.673,1.043a6.678,6.678,0,0,0-1.872-.771l-.492-1.914h-2.374l-.451,1.919a6.839,6.839,0,0,0-1.866.776l-1.7-1-1.678,1.678,1.038,1.673a6.641,6.641,0,0,0-.771,1.866l-1.914.493v2.376l1.919.451a6.847,6.847,0,0,0,.776,1.866l-1,1.7,1.678,1.677,1.672-1.038a6.636,6.636,0,0,0,1.866.771l.493,1.914h2.376l.451-1.919a6.827,6.827,0,0,0,1.866-.776l1.7,1,1.677-1.678-1.028-1.673a6.693,6.693,0,0,0,.771-1.872Z" transform="translate(-3.872 -3.823)" fill="none" stroke="#fff" stroke-miterlimit="10" stroke-width="2"/><circle cx="2.624" cy="2.624" r="2.624" transform="translate(-1897.149 549.171)" fill="none" stroke="#fff" stroke-miterlimit="10" stroke-width="2"/><line y1="4.198" transform="translate(-1894.46 554.484)" fill="none" stroke="#fff" stroke-miterlimit="10" stroke-width="2"/><circle cx="2.624" cy="2.624" r="2.624" transform="translate(-1911.924 563.945)" fill="none" stroke="#fff" stroke-miterlimit="10" stroke-width="2"/><line x1="4.198" transform="translate(-1906.611 566.503)" fill="none" stroke="#fff" stroke-miterlimit="10" stroke-width="2"/><g transform="translate(-1909.605 551.254)"><circle cx="2.624" cy="2.624" r="2.624" transform="translate(0 0)" fill="none" stroke="#fff" stroke-miterlimit="10" stroke-width="2"/><line x1="2.986" y1="2.951" transform="translate(4.49 4.561)" fill="none" stroke="#fff" stroke-miterlimit="10" stroke-width="2"/></g><g transform="translate(-1886.884 551.45)"><circle cx="2.624" cy="2.624" r="2.624" transform="translate(2.318 0)" fill="none" stroke="#fff" stroke-miterlimit="10" stroke-width="2"/><line y1="2.952" x2="2.984" transform="translate(0 4.468)" fill="none" stroke="#fff" stroke-miterlimit="10" stroke-width="2"/></g><g transform="translate(-1887.159 574.114)"><circle cx="2.624" cy="2.624" r="2.624" transform="translate(2.118 2.371)" fill="none" stroke="#fff" stroke-miterlimit="10" stroke-width="2"/><line x2="2.919" y2="3.017" fill="none" stroke="#fff" stroke-miterlimit="10" stroke-width="2"/></g><g transform="translate(-1910.069 573.668)"><circle cx="2.624" cy="2.624" r="2.624" transform="translate(0 2.062)" fill="none" stroke="#fff" stroke-miterlimit="10" stroke-width="2"/><line x1="3.049" y2="2.885" transform="translate(4.622 0)" fill="none" stroke="#fff" stroke-miterlimit="10" stroke-width="2"/></g><circle cx="2.624" cy="2.624" r="2.624" transform="translate(-1882.277 563.945)" fill="none" stroke="#fff" stroke-miterlimit="10" stroke-width="2"/><line x2="4.198" transform="translate(-1886.54 566.503)" fill="none" stroke="#fff" stroke-miterlimit="10" stroke-width="2"/><circle cx="2.624" cy="2.624" r="2.624" transform="translate(-1897.149 578.424)" fill="none" stroke="#fff" stroke-miterlimit="10" stroke-width="2"/><line y2="4.198" transform="translate(-1894.46 574.161)" fill="none" stroke="#fff" stroke-miterlimit="10" stroke-width="2"/></g></svg>